%TF.GenerationSoftware,KiCad,Pcbnew,9.0.1*%
%TF.CreationDate,2025-06-12T22:27:34-04:00*%
%TF.ProjectId,STM32_FlightController,53544d33-325f-4466-9c69-676874436f6e,rev?*%
%TF.SameCoordinates,Original*%
%TF.FileFunction,Legend,Bot*%
%TF.FilePolarity,Positive*%
%FSLAX46Y46*%
G04 Gerber Fmt 4.6, Leading zero omitted, Abs format (unit mm)*
G04 Created by KiCad (PCBNEW 9.0.1) date 2025-06-12 22:27:34*
%MOMM*%
%LPD*%
G01*
G04 APERTURE LIST*
%ADD10C,0.150000*%
%ADD11C,0.100000*%
%ADD12C,0.120000*%
G04 APERTURE END LIST*
D10*
G36*
X37504518Y-51751737D02*
G01*
X37482108Y-51623082D01*
X36905329Y-51623082D01*
X36703767Y-51410225D01*
X37444312Y-51410225D01*
X37424711Y-51298239D01*
X36818561Y-51298239D01*
X36587569Y-51054607D01*
X37671152Y-51054607D01*
X37837726Y-51992500D01*
X36936164Y-51992500D01*
X36706515Y-51751737D01*
X37504518Y-51751737D01*
G37*
G36*
X36192933Y-51429764D02*
G01*
X36226075Y-51427748D01*
X36251522Y-51421452D01*
X36265450Y-51413815D01*
X36275232Y-51403476D01*
X36282479Y-51378137D01*
X36282510Y-51376031D01*
X36280525Y-51354405D01*
X36274451Y-51336669D01*
X36265997Y-51324546D01*
X36254383Y-51314897D01*
X36220280Y-51302271D01*
X36170524Y-51298239D01*
X35520899Y-51298239D01*
X35291311Y-51054607D01*
X36104701Y-51054607D01*
X36168091Y-51056531D01*
X36226255Y-51062187D01*
X36277515Y-51071010D01*
X36324138Y-51082981D01*
X36364926Y-51097404D01*
X36401578Y-51114480D01*
X36433437Y-51133554D01*
X36461547Y-51154881D01*
X36485777Y-51178087D01*
X36506511Y-51203243D01*
X36538121Y-51259526D01*
X36556954Y-51324415D01*
X36562534Y-51390197D01*
X36560567Y-51423019D01*
X36554617Y-51453781D01*
X36545410Y-51480483D01*
X36532611Y-51505148D01*
X36516889Y-51526796D01*
X36497746Y-51546354D01*
X36449259Y-51578641D01*
X36384750Y-51601871D01*
X36300825Y-51614480D01*
X36254544Y-51615999D01*
X35743527Y-51615999D01*
X35713306Y-51617963D01*
X35689396Y-51623891D01*
X35674713Y-51631598D01*
X35664136Y-51641950D01*
X35655464Y-51667131D01*
X35655294Y-51671992D01*
X35657278Y-51693061D01*
X35663349Y-51710791D01*
X35671974Y-51723417D01*
X35683867Y-51733667D01*
X35718379Y-51747303D01*
X35767340Y-51751737D01*
X36477110Y-51751737D01*
X36705294Y-51992500D01*
X35833103Y-51992500D01*
X35769271Y-51990572D01*
X35710774Y-51984898D01*
X35659530Y-51976081D01*
X35612947Y-51964105D01*
X35572357Y-51949710D01*
X35535870Y-51932641D01*
X35504192Y-51913581D01*
X35476195Y-51892225D01*
X35451997Y-51868929D01*
X35431214Y-51843611D01*
X35399152Y-51786551D01*
X35379393Y-51719972D01*
X35372522Y-51642561D01*
X35374470Y-51611141D01*
X35380290Y-51582170D01*
X35389339Y-51557012D01*
X35401798Y-51534078D01*
X35436071Y-51495569D01*
X35484409Y-51465199D01*
X35549860Y-51443158D01*
X35636506Y-51431155D01*
X35683321Y-51429764D01*
X36192933Y-51429764D01*
G37*
G36*
X34725706Y-51751737D02*
G01*
X34763489Y-51749813D01*
X34798765Y-51744157D01*
X34830695Y-51735155D01*
X34859754Y-51722900D01*
X34884997Y-51708052D01*
X34907114Y-51690448D01*
X34925343Y-51670936D01*
X34940263Y-51649125D01*
X34951448Y-51625770D01*
X34959133Y-51600487D01*
X34963720Y-51557991D01*
X34956189Y-51500471D01*
X34933935Y-51446660D01*
X34897128Y-51397635D01*
X34846134Y-51355450D01*
X34782383Y-51322988D01*
X34746557Y-51311358D01*
X34708859Y-51303273D01*
X34645899Y-51298239D01*
X34175488Y-51298239D01*
X33945899Y-51054607D01*
X34602485Y-51054607D01*
X34718045Y-51062260D01*
X34773924Y-51071731D01*
X34827920Y-51084797D01*
X34879756Y-51101322D01*
X34929244Y-51121187D01*
X34975681Y-51144016D01*
X35019362Y-51169876D01*
X35059305Y-51198063D01*
X35096166Y-51228936D01*
X35128899Y-51261474D01*
X35158309Y-51296345D01*
X35183491Y-51332322D01*
X35205177Y-51370303D01*
X35222724Y-51409024D01*
X35236637Y-51449457D01*
X35246554Y-51490487D01*
X35252697Y-51532981D01*
X35254919Y-51579057D01*
X35252984Y-51619575D01*
X35247253Y-51658739D01*
X35237830Y-51696442D01*
X35224831Y-51732519D01*
X35188371Y-51799524D01*
X35138441Y-51858737D01*
X35075561Y-51908935D01*
X35000326Y-51948709D01*
X34958228Y-51964236D01*
X34913503Y-51976529D01*
X34865984Y-51985480D01*
X34816063Y-51990852D01*
X34767715Y-51992500D01*
X34297304Y-51992500D01*
X34069120Y-51751737D01*
X34725706Y-51751737D01*
G37*
X36345833Y-55047319D02*
X36345833Y-55761604D01*
X36345833Y-55761604D02*
X36393452Y-55904461D01*
X36393452Y-55904461D02*
X36488690Y-55999700D01*
X36488690Y-55999700D02*
X36631547Y-56047319D01*
X36631547Y-56047319D02*
X36726785Y-56047319D01*
X35917261Y-55142557D02*
X35869642Y-55094938D01*
X35869642Y-55094938D02*
X35774404Y-55047319D01*
X35774404Y-55047319D02*
X35536309Y-55047319D01*
X35536309Y-55047319D02*
X35441071Y-55094938D01*
X35441071Y-55094938D02*
X35393452Y-55142557D01*
X35393452Y-55142557D02*
X35345833Y-55237795D01*
X35345833Y-55237795D02*
X35345833Y-55333033D01*
X35345833Y-55333033D02*
X35393452Y-55475890D01*
X35393452Y-55475890D02*
X35964880Y-56047319D01*
X35964880Y-56047319D02*
X35345833Y-56047319D01*
D11*
X43276785Y-51426204D02*
X43314881Y-51464300D01*
X43314881Y-51464300D02*
X43429166Y-51502395D01*
X43429166Y-51502395D02*
X43505357Y-51502395D01*
X43505357Y-51502395D02*
X43619643Y-51464300D01*
X43619643Y-51464300D02*
X43695833Y-51388109D01*
X43695833Y-51388109D02*
X43733928Y-51311919D01*
X43733928Y-51311919D02*
X43772024Y-51159538D01*
X43772024Y-51159538D02*
X43772024Y-51045252D01*
X43772024Y-51045252D02*
X43733928Y-50892871D01*
X43733928Y-50892871D02*
X43695833Y-50816680D01*
X43695833Y-50816680D02*
X43619643Y-50740490D01*
X43619643Y-50740490D02*
X43505357Y-50702395D01*
X43505357Y-50702395D02*
X43429166Y-50702395D01*
X43429166Y-50702395D02*
X43314881Y-50740490D01*
X43314881Y-50740490D02*
X43276785Y-50778585D01*
X42972024Y-50778585D02*
X42933928Y-50740490D01*
X42933928Y-50740490D02*
X42857738Y-50702395D01*
X42857738Y-50702395D02*
X42667262Y-50702395D01*
X42667262Y-50702395D02*
X42591071Y-50740490D01*
X42591071Y-50740490D02*
X42552976Y-50778585D01*
X42552976Y-50778585D02*
X42514881Y-50854776D01*
X42514881Y-50854776D02*
X42514881Y-50930966D01*
X42514881Y-50930966D02*
X42552976Y-51045252D01*
X42552976Y-51045252D02*
X43010119Y-51502395D01*
X43010119Y-51502395D02*
X42514881Y-51502395D01*
X42019642Y-50702395D02*
X41943452Y-50702395D01*
X41943452Y-50702395D02*
X41867261Y-50740490D01*
X41867261Y-50740490D02*
X41829166Y-50778585D01*
X41829166Y-50778585D02*
X41791071Y-50854776D01*
X41791071Y-50854776D02*
X41752976Y-51007157D01*
X41752976Y-51007157D02*
X41752976Y-51197633D01*
X41752976Y-51197633D02*
X41791071Y-51350014D01*
X41791071Y-51350014D02*
X41829166Y-51426204D01*
X41829166Y-51426204D02*
X41867261Y-51464300D01*
X41867261Y-51464300D02*
X41943452Y-51502395D01*
X41943452Y-51502395D02*
X42019642Y-51502395D01*
X42019642Y-51502395D02*
X42095833Y-51464300D01*
X42095833Y-51464300D02*
X42133928Y-51426204D01*
X42133928Y-51426204D02*
X42172023Y-51350014D01*
X42172023Y-51350014D02*
X42210119Y-51197633D01*
X42210119Y-51197633D02*
X42210119Y-51007157D01*
X42210119Y-51007157D02*
X42172023Y-50854776D01*
X42172023Y-50854776D02*
X42133928Y-50778585D01*
X42133928Y-50778585D02*
X42095833Y-50740490D01*
X42095833Y-50740490D02*
X42019642Y-50702395D01*
X32051785Y-31901204D02*
X32089881Y-31939300D01*
X32089881Y-31939300D02*
X32204166Y-31977395D01*
X32204166Y-31977395D02*
X32280357Y-31977395D01*
X32280357Y-31977395D02*
X32394643Y-31939300D01*
X32394643Y-31939300D02*
X32470833Y-31863109D01*
X32470833Y-31863109D02*
X32508928Y-31786919D01*
X32508928Y-31786919D02*
X32547024Y-31634538D01*
X32547024Y-31634538D02*
X32547024Y-31520252D01*
X32547024Y-31520252D02*
X32508928Y-31367871D01*
X32508928Y-31367871D02*
X32470833Y-31291680D01*
X32470833Y-31291680D02*
X32394643Y-31215490D01*
X32394643Y-31215490D02*
X32280357Y-31177395D01*
X32280357Y-31177395D02*
X32204166Y-31177395D01*
X32204166Y-31177395D02*
X32089881Y-31215490D01*
X32089881Y-31215490D02*
X32051785Y-31253585D01*
X31289881Y-31977395D02*
X31747024Y-31977395D01*
X31518452Y-31977395D02*
X31518452Y-31177395D01*
X31518452Y-31177395D02*
X31594643Y-31291680D01*
X31594643Y-31291680D02*
X31670833Y-31367871D01*
X31670833Y-31367871D02*
X31747024Y-31405966D01*
X30832738Y-31520252D02*
X30908928Y-31482157D01*
X30908928Y-31482157D02*
X30947023Y-31444061D01*
X30947023Y-31444061D02*
X30985119Y-31367871D01*
X30985119Y-31367871D02*
X30985119Y-31329776D01*
X30985119Y-31329776D02*
X30947023Y-31253585D01*
X30947023Y-31253585D02*
X30908928Y-31215490D01*
X30908928Y-31215490D02*
X30832738Y-31177395D01*
X30832738Y-31177395D02*
X30680357Y-31177395D01*
X30680357Y-31177395D02*
X30604166Y-31215490D01*
X30604166Y-31215490D02*
X30566071Y-31253585D01*
X30566071Y-31253585D02*
X30527976Y-31329776D01*
X30527976Y-31329776D02*
X30527976Y-31367871D01*
X30527976Y-31367871D02*
X30566071Y-31444061D01*
X30566071Y-31444061D02*
X30604166Y-31482157D01*
X30604166Y-31482157D02*
X30680357Y-31520252D01*
X30680357Y-31520252D02*
X30832738Y-31520252D01*
X30832738Y-31520252D02*
X30908928Y-31558347D01*
X30908928Y-31558347D02*
X30947023Y-31596442D01*
X30947023Y-31596442D02*
X30985119Y-31672633D01*
X30985119Y-31672633D02*
X30985119Y-31825014D01*
X30985119Y-31825014D02*
X30947023Y-31901204D01*
X30947023Y-31901204D02*
X30908928Y-31939300D01*
X30908928Y-31939300D02*
X30832738Y-31977395D01*
X30832738Y-31977395D02*
X30680357Y-31977395D01*
X30680357Y-31977395D02*
X30604166Y-31939300D01*
X30604166Y-31939300D02*
X30566071Y-31901204D01*
X30566071Y-31901204D02*
X30527976Y-31825014D01*
X30527976Y-31825014D02*
X30527976Y-31672633D01*
X30527976Y-31672633D02*
X30566071Y-31596442D01*
X30566071Y-31596442D02*
X30604166Y-31558347D01*
X30604166Y-31558347D02*
X30680357Y-31520252D01*
X33095832Y-18452395D02*
X33362499Y-18071442D01*
X33552975Y-18452395D02*
X33552975Y-17652395D01*
X33552975Y-17652395D02*
X33248213Y-17652395D01*
X33248213Y-17652395D02*
X33172023Y-17690490D01*
X33172023Y-17690490D02*
X33133928Y-17728585D01*
X33133928Y-17728585D02*
X33095832Y-17804776D01*
X33095832Y-17804776D02*
X33095832Y-17919061D01*
X33095832Y-17919061D02*
X33133928Y-17995252D01*
X33133928Y-17995252D02*
X33172023Y-18033347D01*
X33172023Y-18033347D02*
X33248213Y-18071442D01*
X33248213Y-18071442D02*
X33552975Y-18071442D01*
X32410118Y-17919061D02*
X32410118Y-18452395D01*
X32600594Y-17614300D02*
X32791071Y-18185728D01*
X32791071Y-18185728D02*
X32295832Y-18185728D01*
X37122023Y-24127395D02*
X37122023Y-24775014D01*
X37122023Y-24775014D02*
X37083928Y-24851204D01*
X37083928Y-24851204D02*
X37045833Y-24889300D01*
X37045833Y-24889300D02*
X36969642Y-24927395D01*
X36969642Y-24927395D02*
X36817261Y-24927395D01*
X36817261Y-24927395D02*
X36741071Y-24889300D01*
X36741071Y-24889300D02*
X36702976Y-24851204D01*
X36702976Y-24851204D02*
X36664880Y-24775014D01*
X36664880Y-24775014D02*
X36664880Y-24127395D01*
X35864881Y-24927395D02*
X36322024Y-24927395D01*
X36093452Y-24927395D02*
X36093452Y-24127395D01*
X36093452Y-24127395D02*
X36169643Y-24241680D01*
X36169643Y-24241680D02*
X36245833Y-24317871D01*
X36245833Y-24317871D02*
X36322024Y-24355966D01*
X26597023Y-24127395D02*
X26597023Y-24775014D01*
X26597023Y-24775014D02*
X26558928Y-24851204D01*
X26558928Y-24851204D02*
X26520833Y-24889300D01*
X26520833Y-24889300D02*
X26444642Y-24927395D01*
X26444642Y-24927395D02*
X26292261Y-24927395D01*
X26292261Y-24927395D02*
X26216071Y-24889300D01*
X26216071Y-24889300D02*
X26177976Y-24851204D01*
X26177976Y-24851204D02*
X26139880Y-24775014D01*
X26139880Y-24775014D02*
X26139880Y-24127395D01*
X25644643Y-24470252D02*
X25720833Y-24432157D01*
X25720833Y-24432157D02*
X25758928Y-24394061D01*
X25758928Y-24394061D02*
X25797024Y-24317871D01*
X25797024Y-24317871D02*
X25797024Y-24279776D01*
X25797024Y-24279776D02*
X25758928Y-24203585D01*
X25758928Y-24203585D02*
X25720833Y-24165490D01*
X25720833Y-24165490D02*
X25644643Y-24127395D01*
X25644643Y-24127395D02*
X25492262Y-24127395D01*
X25492262Y-24127395D02*
X25416071Y-24165490D01*
X25416071Y-24165490D02*
X25377976Y-24203585D01*
X25377976Y-24203585D02*
X25339881Y-24279776D01*
X25339881Y-24279776D02*
X25339881Y-24317871D01*
X25339881Y-24317871D02*
X25377976Y-24394061D01*
X25377976Y-24394061D02*
X25416071Y-24432157D01*
X25416071Y-24432157D02*
X25492262Y-24470252D01*
X25492262Y-24470252D02*
X25644643Y-24470252D01*
X25644643Y-24470252D02*
X25720833Y-24508347D01*
X25720833Y-24508347D02*
X25758928Y-24546442D01*
X25758928Y-24546442D02*
X25797024Y-24622633D01*
X25797024Y-24622633D02*
X25797024Y-24775014D01*
X25797024Y-24775014D02*
X25758928Y-24851204D01*
X25758928Y-24851204D02*
X25720833Y-24889300D01*
X25720833Y-24889300D02*
X25644643Y-24927395D01*
X25644643Y-24927395D02*
X25492262Y-24927395D01*
X25492262Y-24927395D02*
X25416071Y-24889300D01*
X25416071Y-24889300D02*
X25377976Y-24851204D01*
X25377976Y-24851204D02*
X25339881Y-24775014D01*
X25339881Y-24775014D02*
X25339881Y-24622633D01*
X25339881Y-24622633D02*
X25377976Y-24546442D01*
X25377976Y-24546442D02*
X25416071Y-24508347D01*
X25416071Y-24508347D02*
X25492262Y-24470252D01*
X34976785Y-48976204D02*
X35014881Y-49014300D01*
X35014881Y-49014300D02*
X35129166Y-49052395D01*
X35129166Y-49052395D02*
X35205357Y-49052395D01*
X35205357Y-49052395D02*
X35319643Y-49014300D01*
X35319643Y-49014300D02*
X35395833Y-48938109D01*
X35395833Y-48938109D02*
X35433928Y-48861919D01*
X35433928Y-48861919D02*
X35472024Y-48709538D01*
X35472024Y-48709538D02*
X35472024Y-48595252D01*
X35472024Y-48595252D02*
X35433928Y-48442871D01*
X35433928Y-48442871D02*
X35395833Y-48366680D01*
X35395833Y-48366680D02*
X35319643Y-48290490D01*
X35319643Y-48290490D02*
X35205357Y-48252395D01*
X35205357Y-48252395D02*
X35129166Y-48252395D01*
X35129166Y-48252395D02*
X35014881Y-48290490D01*
X35014881Y-48290490D02*
X34976785Y-48328585D01*
X34214881Y-49052395D02*
X34672024Y-49052395D01*
X34443452Y-49052395D02*
X34443452Y-48252395D01*
X34443452Y-48252395D02*
X34519643Y-48366680D01*
X34519643Y-48366680D02*
X34595833Y-48442871D01*
X34595833Y-48442871D02*
X34672024Y-48480966D01*
X33833928Y-49052395D02*
X33681547Y-49052395D01*
X33681547Y-49052395D02*
X33605357Y-49014300D01*
X33605357Y-49014300D02*
X33567261Y-48976204D01*
X33567261Y-48976204D02*
X33491071Y-48861919D01*
X33491071Y-48861919D02*
X33452976Y-48709538D01*
X33452976Y-48709538D02*
X33452976Y-48404776D01*
X33452976Y-48404776D02*
X33491071Y-48328585D01*
X33491071Y-48328585D02*
X33529166Y-48290490D01*
X33529166Y-48290490D02*
X33605357Y-48252395D01*
X33605357Y-48252395D02*
X33757738Y-48252395D01*
X33757738Y-48252395D02*
X33833928Y-48290490D01*
X33833928Y-48290490D02*
X33872023Y-48328585D01*
X33872023Y-48328585D02*
X33910119Y-48404776D01*
X33910119Y-48404776D02*
X33910119Y-48595252D01*
X33910119Y-48595252D02*
X33872023Y-48671442D01*
X33872023Y-48671442D02*
X33833928Y-48709538D01*
X33833928Y-48709538D02*
X33757738Y-48747633D01*
X33757738Y-48747633D02*
X33605357Y-48747633D01*
X33605357Y-48747633D02*
X33529166Y-48709538D01*
X33529166Y-48709538D02*
X33491071Y-48671442D01*
X33491071Y-48671442D02*
X33452976Y-48595252D01*
X37677975Y-44477395D02*
X37677975Y-43677395D01*
X37677975Y-43677395D02*
X37487499Y-43677395D01*
X37487499Y-43677395D02*
X37373213Y-43715490D01*
X37373213Y-43715490D02*
X37297023Y-43791680D01*
X37297023Y-43791680D02*
X37258928Y-43867871D01*
X37258928Y-43867871D02*
X37220832Y-44020252D01*
X37220832Y-44020252D02*
X37220832Y-44134538D01*
X37220832Y-44134538D02*
X37258928Y-44286919D01*
X37258928Y-44286919D02*
X37297023Y-44363109D01*
X37297023Y-44363109D02*
X37373213Y-44439300D01*
X37373213Y-44439300D02*
X37487499Y-44477395D01*
X37487499Y-44477395D02*
X37677975Y-44477395D01*
X36458928Y-44477395D02*
X36916071Y-44477395D01*
X36687499Y-44477395D02*
X36687499Y-43677395D01*
X36687499Y-43677395D02*
X36763690Y-43791680D01*
X36763690Y-43791680D02*
X36839880Y-43867871D01*
X36839880Y-43867871D02*
X36916071Y-43905966D01*
X46472023Y-41252395D02*
X46472023Y-41900014D01*
X46472023Y-41900014D02*
X46433928Y-41976204D01*
X46433928Y-41976204D02*
X46395833Y-42014300D01*
X46395833Y-42014300D02*
X46319642Y-42052395D01*
X46319642Y-42052395D02*
X46167261Y-42052395D01*
X46167261Y-42052395D02*
X46091071Y-42014300D01*
X46091071Y-42014300D02*
X46052976Y-41976204D01*
X46052976Y-41976204D02*
X46014880Y-41900014D01*
X46014880Y-41900014D02*
X46014880Y-41252395D01*
X45252976Y-41252395D02*
X45633928Y-41252395D01*
X45633928Y-41252395D02*
X45672024Y-41633347D01*
X45672024Y-41633347D02*
X45633928Y-41595252D01*
X45633928Y-41595252D02*
X45557738Y-41557157D01*
X45557738Y-41557157D02*
X45367262Y-41557157D01*
X45367262Y-41557157D02*
X45291071Y-41595252D01*
X45291071Y-41595252D02*
X45252976Y-41633347D01*
X45252976Y-41633347D02*
X45214881Y-41709538D01*
X45214881Y-41709538D02*
X45214881Y-41900014D01*
X45214881Y-41900014D02*
X45252976Y-41976204D01*
X45252976Y-41976204D02*
X45291071Y-42014300D01*
X45291071Y-42014300D02*
X45367262Y-42052395D01*
X45367262Y-42052395D02*
X45557738Y-42052395D01*
X45557738Y-42052395D02*
X45633928Y-42014300D01*
X45633928Y-42014300D02*
X45672024Y-41976204D01*
X34472023Y-35452395D02*
X34472023Y-36100014D01*
X34472023Y-36100014D02*
X34433928Y-36176204D01*
X34433928Y-36176204D02*
X34395833Y-36214300D01*
X34395833Y-36214300D02*
X34319642Y-36252395D01*
X34319642Y-36252395D02*
X34167261Y-36252395D01*
X34167261Y-36252395D02*
X34091071Y-36214300D01*
X34091071Y-36214300D02*
X34052976Y-36176204D01*
X34052976Y-36176204D02*
X34014880Y-36100014D01*
X34014880Y-36100014D02*
X34014880Y-35452395D01*
X33291071Y-35452395D02*
X33443452Y-35452395D01*
X33443452Y-35452395D02*
X33519643Y-35490490D01*
X33519643Y-35490490D02*
X33557738Y-35528585D01*
X33557738Y-35528585D02*
X33633928Y-35642871D01*
X33633928Y-35642871D02*
X33672024Y-35795252D01*
X33672024Y-35795252D02*
X33672024Y-36100014D01*
X33672024Y-36100014D02*
X33633928Y-36176204D01*
X33633928Y-36176204D02*
X33595833Y-36214300D01*
X33595833Y-36214300D02*
X33519643Y-36252395D01*
X33519643Y-36252395D02*
X33367262Y-36252395D01*
X33367262Y-36252395D02*
X33291071Y-36214300D01*
X33291071Y-36214300D02*
X33252976Y-36176204D01*
X33252976Y-36176204D02*
X33214881Y-36100014D01*
X33214881Y-36100014D02*
X33214881Y-35909538D01*
X33214881Y-35909538D02*
X33252976Y-35833347D01*
X33252976Y-35833347D02*
X33291071Y-35795252D01*
X33291071Y-35795252D02*
X33367262Y-35757157D01*
X33367262Y-35757157D02*
X33519643Y-35757157D01*
X33519643Y-35757157D02*
X33595833Y-35795252D01*
X33595833Y-35795252D02*
X33633928Y-35833347D01*
X33633928Y-35833347D02*
X33672024Y-35909538D01*
X29276785Y-40051204D02*
X29314881Y-40089300D01*
X29314881Y-40089300D02*
X29429166Y-40127395D01*
X29429166Y-40127395D02*
X29505357Y-40127395D01*
X29505357Y-40127395D02*
X29619643Y-40089300D01*
X29619643Y-40089300D02*
X29695833Y-40013109D01*
X29695833Y-40013109D02*
X29733928Y-39936919D01*
X29733928Y-39936919D02*
X29772024Y-39784538D01*
X29772024Y-39784538D02*
X29772024Y-39670252D01*
X29772024Y-39670252D02*
X29733928Y-39517871D01*
X29733928Y-39517871D02*
X29695833Y-39441680D01*
X29695833Y-39441680D02*
X29619643Y-39365490D01*
X29619643Y-39365490D02*
X29505357Y-39327395D01*
X29505357Y-39327395D02*
X29429166Y-39327395D01*
X29429166Y-39327395D02*
X29314881Y-39365490D01*
X29314881Y-39365490D02*
X29276785Y-39403585D01*
X28514881Y-40127395D02*
X28972024Y-40127395D01*
X28743452Y-40127395D02*
X28743452Y-39327395D01*
X28743452Y-39327395D02*
X28819643Y-39441680D01*
X28819643Y-39441680D02*
X28895833Y-39517871D01*
X28895833Y-39517871D02*
X28972024Y-39555966D01*
X28248214Y-39327395D02*
X27714880Y-39327395D01*
X27714880Y-39327395D02*
X28057738Y-40127395D01*
X29995832Y-17377395D02*
X30262499Y-16996442D01*
X30452975Y-17377395D02*
X30452975Y-16577395D01*
X30452975Y-16577395D02*
X30148213Y-16577395D01*
X30148213Y-16577395D02*
X30072023Y-16615490D01*
X30072023Y-16615490D02*
X30033928Y-16653585D01*
X30033928Y-16653585D02*
X29995832Y-16729776D01*
X29995832Y-16729776D02*
X29995832Y-16844061D01*
X29995832Y-16844061D02*
X30033928Y-16920252D01*
X30033928Y-16920252D02*
X30072023Y-16958347D01*
X30072023Y-16958347D02*
X30148213Y-16996442D01*
X30148213Y-16996442D02*
X30452975Y-16996442D01*
X29729166Y-16577395D02*
X29233928Y-16577395D01*
X29233928Y-16577395D02*
X29500594Y-16882157D01*
X29500594Y-16882157D02*
X29386309Y-16882157D01*
X29386309Y-16882157D02*
X29310118Y-16920252D01*
X29310118Y-16920252D02*
X29272023Y-16958347D01*
X29272023Y-16958347D02*
X29233928Y-17034538D01*
X29233928Y-17034538D02*
X29233928Y-17225014D01*
X29233928Y-17225014D02*
X29272023Y-17301204D01*
X29272023Y-17301204D02*
X29310118Y-17339300D01*
X29310118Y-17339300D02*
X29386309Y-17377395D01*
X29386309Y-17377395D02*
X29614880Y-17377395D01*
X29614880Y-17377395D02*
X29691071Y-17339300D01*
X29691071Y-17339300D02*
X29729166Y-17301204D01*
D12*
%TO.C,J2*%
X30902500Y-53802500D02*
X31952500Y-53802500D01*
X30902500Y-56302500D02*
X30902500Y-53802500D01*
X39952500Y-58272500D02*
X32072500Y-58272500D01*
X40072500Y-53802500D02*
X40072500Y-52812500D01*
X41122500Y-53802500D02*
X40072500Y-53802500D01*
X41122500Y-56302500D02*
X41122500Y-53802500D01*
%TO.C,C20*%
X43023752Y-48952500D02*
X42501248Y-48952500D01*
X43023752Y-50422500D02*
X42501248Y-50422500D01*
%TO.C,C18*%
X31678080Y-32227500D02*
X31396920Y-32227500D01*
X31678080Y-33247500D02*
X31396920Y-33247500D01*
%TO.C,R4*%
X31208859Y-17707500D02*
X31516141Y-17707500D01*
X31208859Y-18467500D02*
X31516141Y-18467500D01*
%TO.C,U1*%
X33775000Y-24252500D02*
X32975000Y-24252500D01*
X33775000Y-24252500D02*
X34575000Y-24252500D01*
X33775000Y-27372500D02*
X32975000Y-27372500D01*
X33775000Y-27372500D02*
X34575000Y-27372500D01*
X32715000Y-27652500D02*
X32235000Y-27652500D01*
X32475000Y-27322500D01*
X32715000Y-27652500D01*
G36*
X32715000Y-27652500D02*
G01*
X32235000Y-27652500D01*
X32475000Y-27322500D01*
X32715000Y-27652500D01*
G37*
%TO.C,U8*%
X28675000Y-24252500D02*
X27875000Y-24252500D01*
X28675000Y-24252500D02*
X29475000Y-24252500D01*
X28675000Y-27372500D02*
X27875000Y-27372500D01*
X28675000Y-27372500D02*
X29475000Y-27372500D01*
X27615000Y-27652500D02*
X27135000Y-27652500D01*
X27375000Y-27322500D01*
X27615000Y-27652500D01*
G36*
X27615000Y-27652500D02*
G01*
X27135000Y-27652500D01*
X27375000Y-27322500D01*
X27615000Y-27652500D01*
G37*
%TO.C,C19*%
X35827500Y-48376248D02*
X35827500Y-48898752D01*
X37297500Y-48376248D02*
X37297500Y-48898752D01*
%TO.C,D1*%
X35450000Y-41327500D02*
X34800000Y-41327500D01*
X35450000Y-41327500D02*
X36100000Y-41327500D01*
X35450000Y-44447500D02*
X34800000Y-44447500D01*
X35450000Y-44447500D02*
X36100000Y-44447500D01*
X34527500Y-44727500D02*
X34047500Y-44727500D01*
X34287500Y-44397500D01*
X34527500Y-44727500D01*
G36*
X34527500Y-44727500D02*
G01*
X34047500Y-44727500D01*
X34287500Y-44397500D01*
X34527500Y-44727500D01*
G37*
%TO.C,U5*%
X40862500Y-40977500D02*
X44622500Y-40977500D01*
X40862500Y-47797500D02*
X44622500Y-47797500D01*
X44622500Y-40977500D02*
X44622500Y-42237500D01*
X44622500Y-47797500D02*
X44622500Y-46537500D01*
X39822500Y-48027500D02*
X39342500Y-48027500D01*
X39582500Y-47697500D01*
X39822500Y-48027500D01*
G36*
X39822500Y-48027500D02*
G01*
X39342500Y-48027500D01*
X39582500Y-47697500D01*
X39822500Y-48027500D01*
G37*
%TO.C,U6*%
X29802500Y-35887500D02*
X29802500Y-35087500D01*
X29802500Y-35887500D02*
X29802500Y-36687500D01*
X32922500Y-35887500D02*
X32922500Y-35087500D01*
X32922500Y-35887500D02*
X32922500Y-36687500D01*
X33202500Y-37427500D02*
X32872500Y-37187500D01*
X33202500Y-36947500D01*
X33202500Y-37427500D01*
G36*
X33202500Y-37427500D02*
G01*
X32872500Y-37187500D01*
X33202500Y-36947500D01*
X33202500Y-37427500D01*
G37*
%TO.C,C17*%
X31478080Y-39240000D02*
X31196920Y-39240000D01*
X31478080Y-40260000D02*
X31196920Y-40260000D01*
%TO.C,R3*%
X31516141Y-16607500D02*
X31208859Y-16607500D01*
X31516141Y-17367500D02*
X31208859Y-17367500D01*
%TD*%
M02*
