M48
; DRILL file {KiCad 9.0.1} date 2025-06-12T22:27:30-0400
; FORMAT={-:-/ absolute / metric / decimal}
; #@! TF.CreationDate,2025-06-12T22:27:30-04:00
; #@! TF.GenerationSoftware,Kicad,Pcbnew,9.0.1
; #@! TF.FileFunction,MixedPlating,1,4
FMAT,2
METRIC
; #@! TA.AperFunction,Plated,PTH,ViaDrill
T1C0.300
; #@! TA.AperFunction,Plated,PTH,ComponentDrill
T2C0.550
; #@! TA.AperFunction,Plated,PTH,ComponentDrill
T3C0.650
; #@! TA.AperFunction,Plated,PTH,ComponentDrill
T4C0.850
; #@! TA.AperFunction,Plated,PTH,ComponentDrill
T5C4.000
; #@! TA.AperFunction,NonPlated,NPTH,ComponentDrill
T6C0.800
; #@! TA.AperFunction,NonPlated,NPTH,ComponentDrill
T7C0.900
%
G90
G05
T1
X17.012Y-29.237
X17.012Y-33.962
X17.012Y-38.962
X17.012Y-40.962
X17.012Y-42.962
X19.012Y-38.962
X19.012Y-40.962
X19.012Y-42.962
X20.012Y-25.962
X20.738Y-37.663
X21.012Y-40.962
X21.012Y-42.962
X22.012Y-25.962
X22.613Y-30.287
X23.012Y-42.962
X23.587Y-34.112
X24.012Y-25.962
X24.987Y-41.462
X25.012Y-43.962
X25.012Y-45.962
X25.012Y-47.962
X25.962Y-29.162
X26.012Y-38.212
X26.462Y-25.812
X26.462Y-26.762
X27.012Y-45.962
X27.012Y-47.962
X27.012Y-49.962
X27.452Y-33.002
X27.912Y-54.712
X28.012Y-28.962
X28.092Y-32.222
X28.262Y-34.262
X28.39Y-42.885
X28.462Y-21.012
X28.601Y-23.624
X28.812Y-46.862
X28.85Y-17.5
X28.912Y-37.112
X28.912Y-54.712
X29.562Y-32.737
X29.612Y-30.462
X30.211Y-28.562
X30.287Y-23.612
X30.863Y-18.763
X30.887Y-24.862
X30.912Y-47.962
X31.212Y-25.812
X31.557Y-26.768
X31.6Y-30.5
X31.6Y-38.406
X31.912Y-44.562
X32.374Y-18.949
X32.512Y-52.462
X32.712Y-41.688
X33.112Y-23.238
X33.125Y-39.75
X33.152Y-16.312
X33.512Y-52.462
X33.656Y-19.169
X33.688Y-33.062
X33.788Y-29.188
X34.512Y-52.462
X34.913Y-23.862
X35.142Y-30.188
X35.312Y-21.462
X35.512Y-54.752
X35.762Y-27.812
X35.762Y-29.312
X35.987Y-25.812
X36.337Y-21.188
X37.512Y-54.712
X37.712Y-47.712
X38.142Y-46.692
X38.262Y-34.913
X38.413Y-23.287
X38.413Y-30.412
X38.562Y-24.175
X38.887Y-48.9
X38.887Y-49.55
X39.012Y-27.337
X39.012Y-36.062
X39.462Y-37.712
X39.562Y-48.9
X39.562Y-49.575
X40.112Y-52.362
X40.212Y-38.862
X40.237Y-48.9
X40.237Y-49.575
X40.312Y-26.212
X40.913Y-22.562
X41.0Y-31.65
X41.062Y-26.862
X41.062Y-43.062
X41.637Y-52.137
X42.042Y-42.8
X42.262Y-23.387
X42.262Y-25.9
X42.45Y-46.05
X42.652Y-32.622
X43.012Y-16.962
X43.012Y-18.962
X43.012Y-20.962
X43.262Y-46.562
X43.262Y-47.262
X43.612Y-52.137
X44.163Y-46.562
X44.163Y-47.262
X44.7Y-30.912
X45.012Y-16.962
X45.012Y-18.962
X45.012Y-20.962
X45.012Y-22.962
X48.012Y-39.962
X48.012Y-41.962
X48.012Y-43.962
X48.012Y-45.962
X49.087Y-37.688
X49.36Y-35.515
X50.012Y-41.962
X50.012Y-43.962
X52.162Y-34.188
X52.362Y-42.887
X54.212Y-40.788
T3
X46.938Y-27.087
X46.938Y-28.357
X48.207Y-27.087
X48.207Y-28.357
X49.477Y-27.087
X49.477Y-28.357
X50.747Y-27.087
X50.747Y-28.357
X52.017Y-27.087
X52.017Y-28.357
T5
X20.512Y-20.212
X20.512Y-50.712
X51.012Y-20.212
X51.012Y-50.712
T6
X52.107Y-32.987
X52.107Y-37.987
T7
X16.532Y-30.087
X16.532Y-33.087
T2
G00X54.532Y-31.612
M15
G01X55.182Y-31.612
M16
G05
G00X54.532Y-39.362
M15
G01X55.182Y-39.362
M16
G05
T4
G00X50.782Y-31.762
M15
G01X51.332Y-31.762
M16
G05
G00X50.782Y-39.212
M15
G01X51.332Y-39.212
M16
G05
M30
