<?xml version="1.0" encoding="UTF-8"?>
<svg xmlns="http://www.w3.org/2000/svg" version="1.1" viewBox="0 0 432 288">
  <!-- Generator: Adobe Illustrator 29.6.0, SVG Export Plug-In . SVG Version: 2.1.1 Build 207)  -->
  <defs>
    <style>
      .st0 {
        stroke: #000;
        stroke-width: .19px;
      }

      .st0, .st1 {
        fill: none;
        stroke-miterlimit: 11.34;
      }

      .st2 {
        display: none;
      }

      .st1 {
        stroke: blue;
        stroke-width: .07px;
      }
    </style>
  </defs>
  <g id="Layer_1">
    <path class="st1" d="M108.06,159.75l-.02-.31-.02-.09-.03-.08-.05-.07-.06-.07-.07-.06-.07-.05-.08-.03-.09-.02-.32-.03-3.21-.28-3.34-.9-3.14-1.46-2.83-1.98-2.45-2.45-1.98-2.83-1.46-3.14-.9-3.34-.29-3.32V53.95l.29-3.32.9-3.34,1.46-3.14,1.98-2.83,2.45-2.45,2.83-1.98,3.14-1.46,3.34-.9,3.32-.29h85.29l3.32.29,3.34.9,3.14,1.46,2.83,1.98,2.45,2.45,1.98,2.83,1.46,3.14.9,3.34.29,3.32v85.29l-.29,3.32-.9,3.34-1.46,3.14-1.98,2.83-2.45,2.45-2.83,1.98-3.14,1.46-3.34.9-3.21.28-.32.03-.09.02-.08.03-.07.05-.07.06-.06.07-.05.07-.03.08-.02.09-.02.31-.06.75-.23.95-.38.91-.51.84-.64.75-.75.64-.84.51-.91.38-.95.23-.87.07h-71.66l-.87-.07-.95-.23-.91-.38-.84-.51-.75-.64-.64-.75-.51-.84-.38-.91-.23-.95-.06-.75Z"/>
    <rect class="st1" width="300" height="200"/>
  </g>
  <g id="Layer_2" class="st2">
    <path class="st0" d="M110.88,159.53l-.04-.53-.12-.52-.2-.49-.28-.46-.35-.41-.41-.35-.46-.28-.49-.2-.52-.12-.53-.04-2.95-.26-2.86-.77-2.69-1.25-2.43-1.7-2.1-2.1-1.7-2.43-1.25-2.69-.77-2.86-.26-2.95V54.08l.26-2.95.77-2.86,1.25-2.69,1.7-2.43,2.1-2.1,2.43-1.7,2.69-1.25,2.86-.77,2.95-.26h85.04l2.95.26,2.86.77,2.69,1.25,2.43,1.7,2.1,2.1,1.7,2.43,1.25,2.69.77,2.86.26,2.95v85.04l-.26,2.95-.77,2.86-1.25,2.69-1.7,2.43-2.1,2.1-2.43,1.7-2.69,1.25-2.86.77-2.95.26-.53.04-.52.12-.49.2-.46.28-.41.35-.35.41-.28.46-.2.49-.12.52-.04.53-.04.53-.12.52-.2.49-.28.46-.35.41-.41.35-.46.28-.49.2-.52.12-.53.04h-71.43l-.53-.04-.52-.12-.49-.2-.46-.28-.41-.35-.35-.41-.28-.46-.2-.49-.12-.52-.04-.53Z"/>
  </g>
</svg>