<svg xmlns="http://www.w3.org/2000/svg" xmlns:xlink="http://www.w3.org/1999/xlink" width="15.24cm" height="10.16cm" viewBox="0 0 152.4 101.6">
<path fill="none" stroke="#0000FF" stroke-width="0.06614583333333333"
  d="M 61.40308266626687,71.87845909572785 L
  61.39448353973073,71.76919683340742
  61.38727044774225,71.73915214300618
  61.37544613581538,71.71060572878659
  61.359301757752405,71.68426049820687
  61.33923484172133,71.66076515827868
  61.31573950179312,71.6406982422476
  61.28939427121338,71.6245538641846
  61.260847856993806,71.61272955225773
  61.23080316659258,71.60551646026926
  61.117191004205836,71.59657498917338
  59.983799448503106,71.49741607671339
  58.80455253533626,71.18143781865345
  57.69809008122832,70.66548590284194
  56.69803138795035,69.96523726715654
  55.83476273284346,69.10196861204966
  55.13451409715806,68.10190991877167
  54.618562181346554,66.99544746466373
  54.302583923286605,65.81620055149689
  54.2,64.64366094290851
  54.2,34.556339057091485
  54.302583923286605,33.3837994485031
  54.618562181346554,32.20455253533626
  55.13451409715806,31.09809008122832
  55.83476273284345,30.098031387950343
  56.69803138795035,29.23476273284345
  57.69809008122833,28.53451409715806
  58.80455253533626,28.018562181346553
  59.983799448503106,27.702583923286607
  61.156339057091486,27.599999999999998
  91.24366094290852,27.599999999999998
  92.4162005514969,27.702583923286607
  93.59544746466375,28.018562181346553
  94.70190991877168,28.53451409715806
  95.70196861204965,29.234762732843453
  96.56523726715655,30.098031387950346
  97.26548590284193,31.09809008122832
  97.78143781865344,32.20455253533626
  98.09741607671339,33.3837994485031
  98.2,34.556339057091485
  98.2,64.6436609429085
  98.09741607671339,65.81620055149689
  97.78143781865344,66.99544746466373
  97.26548590284195,68.10190991877167
  96.56523726715655,69.10196861204966
  95.70196861204965,69.96523726715654
  94.70190991877168,70.66548590284194
  93.59544746466375,71.18143781865344
  92.4162005514969,71.49741607671339
  91.28280899579417,71.59657498917338
  91.16919683340743,71.60551646026926
  91.13915214300619,71.61272955225773
  91.11060572878662,71.6245538641846
  91.08426049820687,71.6406982422476
  91.06076515827868,71.66076515827868
  91.0406982422476,71.68426049820687
  91.02455386418461,71.71060572878662
  91.01272955225774,71.73915214300618
  91.00551646026926,71.76919683340742
  90.99691733373314,71.87845909572785
  90.97596847769759,72.14463954950395
  90.89526519136611,72.48079292950605
  90.76296952223669,72.80018292816152
  90.58233902874747,73.0949451037088
  90.35782143312639,73.35782143312639
  90.0949451037088,73.58233902874747
  89.80018292816152,73.76296952223669
  89.48079292950605,73.89526519136611
  89.14463954950395,73.97596847769759
  88.83929010700767,74.0
  63.56070989299233,74.0
  63.25536045049604,73.97596847769759
  62.91920707049394,73.89526519136611
  62.59981707183848,73.76296952223669
  62.30505489629121,73.58233902874747
  62.04217856687362,73.35782143312639
  61.81766097125252,73.0949451037088
  61.637030477763304,72.8001829281615
  61.50473480863389,72.48079292950605
  61.4240315223024,72.14463954950396
  Z" />
<path fill="none" stroke="#000000" stroke-width="0.06614583333333333"
  d="M 62.4,71.8 L
  62.385226008714156,71.61227864195172
  62.341267819554176,71.42917960675007
  62.26920782902604,71.25521140031253
  62.17082039324993,71.09465769724903
  62.04852813742385,70.95147186257614
  61.90534230275097,70.82917960675006
  61.74478859968745,70.73079217097396
  61.57082039324993,70.65873218044581
  61.38772135804827,70.61477399128583
  61.2,70.6
  60.158110933998415,70.50884651807324
  59.14787914004599,70.23815572471545
  58.2,69.79615242270663
  57.343274341880765,69.19626665871385
  56.60373334128613,68.45672565811924
  56.00384757729337,67.6
  55.56184427528455,66.65212085995401
  55.291153481926756,65.64188906600157
  55.2,64.6
  55.2,34.599999999999994
  55.291153481926756,33.55811093399842
  55.56184427528455,32.547879140045985
  56.00384757729337,31.599999999999994
  56.60373334128613,30.74327434188076
  57.343274341880765,30.00373334128613
  58.2,29.403847577293366
  59.14787914004599,28.961844275284548
  60.158110933998415,28.69115348192675
  61.2,28.599999999999998
  91.2,28.599999999999998
  92.24188906600159,28.69115348192675
  93.25212085995402,28.961844275284548
  94.2,29.403847577293366
  95.05672565811923,30.00373334128613
  95.79626665871388,30.743274341880763
  96.39615242270663,31.599999999999998
  96.83815572471545,32.547879140045985
  97.10884651807325,33.55811093399842
  97.2,34.599999999999994
  97.2,64.6
  97.10884651807325,65.64188906600157
  96.83815572471545,66.65212085995401
  96.39615242270663,67.6
  95.79626665871388,68.45672565811924
  95.05672565811923,69.19626665871385
  94.2,69.79615242270663
  93.25212085995402,70.23815572471544
  92.24188906600159,70.50884651807324
  91.2,70.6
  91.01227864195172,70.61477399128583
  90.82917960675007,70.65873218044581
  90.65521140031254,70.73079217097396
  90.49465769724904,70.82917960675006
  90.35147186257615,70.95147186257614
  90.22917960675007,71.09465769724903
  90.13079217097396,71.25521140031253
  90.05873218044582,71.42917960675007
  90.01477399128584,71.61227864195172
  90.0,71.8
  89.98522600871416,71.98772135804828
  89.94126781955418,72.17082039324993
  89.86920782902604,72.34478859968746
  89.77082039324993,72.50534230275096
  89.64852813742385,72.64852813742385
  89.50534230275096,72.77082039324993
  89.34478859968746,72.86920782902604
  89.17082039324993,72.94126781955418
  88.98772135804828,72.98522600871416
  88.8,73.0
  63.6,73.0
  63.41227864195173,72.98522600871416
  63.229179606750066,72.94126781955418
  63.055211400312544,72.86920782902604
  62.89465769724903,72.77082039324993
  62.75147186257614,72.64852813742385
  62.62917960675006,72.50534230275096
  62.53079217097395,72.34478859968746
  62.458732180445814,72.17082039324993
  62.414773991285834,71.98772135804828
  Z" />
</svg>