<?xml version="1.0" standalone="no"?>
 <!DOCTYPE svg PUBLIC "-//W3C//DTD SVG 1.1//EN" 
 "http://www.w3.org/Graphics/SVG/1.1/DTD/svg11.dtd"> 
<svg
  xmlns:svg="http://www.w3.org/2000/svg"
  xmlns="http://www.w3.org/2000/svg"
  xmlns:xlink="http://www.w3.org/1999/xlink"
  version="1.1"
  width="210.0072mm" height="148.0058mm" viewBox="0.0000 0.0000 210.0072 148.0058">
<title>SVG Image created as STM32_FlightController-B_Paste.svg date 2025/06/13 16:04:39 </title>
  <desc>Image generated by PCBNEW </desc>
<g style="fill:#000000; fill-opacity:1.0000;stroke:#000000; stroke-opacity:1.0000;
stroke-linecap:round; stroke-linejoin:round;"
 transform="translate(0 0) scale(1 1)">
<path style="fill:#000000; fill-opacity:1.0000; stroke:none;fill-rule:evenodd;"
d="M 39.8125,54.2125
39.8011,54.2699
39.7686,54.3186
39.7199,54.3511
39.6625,54.3625
39.3625,54.3625
39.3051,54.3511
39.2564,54.3186
39.2239,54.2699
39.2125,54.2125
39.2125,52.9625
39.2239,52.9051
39.2564,52.8564
39.3051,52.8239
39.3625,52.8125
39.6625,52.8125
39.7199,52.8239
39.7686,52.8564
39.8011,52.9051
39.8125,52.9625
Z" /> 
<path style="fill:#000000; fill-opacity:1.0000; stroke:none;fill-rule:evenodd;"
d="M 38.8125,54.2125
38.8011,54.2699
38.7686,54.3186
38.7199,54.3511
38.6625,54.3625
38.3625,54.3625
38.3051,54.3511
38.2564,54.3186
38.2239,54.2699
38.2125,54.2125
38.2125,52.9625
38.2239,52.9051
38.2564,52.8564
38.3051,52.8239
38.3625,52.8125
38.6625,52.8125
38.7199,52.8239
38.7686,52.8564
38.8011,52.9051
38.8125,52.9625
Z" /> 
<path style="fill:#000000; fill-opacity:1.0000; stroke:none;fill-rule:evenodd;"
d="M 37.8125,54.2125
37.8011,54.2699
37.7686,54.3186
37.7199,54.3511
37.6625,54.3625
37.3625,54.3625
37.3051,54.3511
37.2564,54.3186
37.2239,54.2699
37.2125,54.2125
37.2125,52.9625
37.2239,52.9051
37.2564,52.8564
37.3051,52.8239
37.3625,52.8125
37.6625,52.8125
37.7199,52.8239
37.7686,52.8564
37.8011,52.9051
37.8125,52.9625
Z" /> 
<path style="fill:#000000; fill-opacity:1.0000; stroke:none;fill-rule:evenodd;"
d="M 36.8125,54.2125
36.8011,54.2699
36.7686,54.3186
36.7199,54.3511
36.6625,54.3625
36.3625,54.3625
36.3051,54.3511
36.2564,54.3186
36.2239,54.2699
36.2125,54.2125
36.2125,52.9625
36.2239,52.9051
36.2564,52.8564
36.3051,52.8239
36.3625,52.8125
36.6625,52.8125
36.7199,52.8239
36.7686,52.8564
36.8011,52.9051
36.8125,52.9625
Z" /> 
<path style="fill:#000000; fill-opacity:1.0000; stroke:none;fill-rule:evenodd;"
d="M 35.8125,54.2125
35.8011,54.2699
35.7686,54.3186
35.7199,54.3511
35.6625,54.3625
35.3625,54.3625
35.3051,54.3511
35.2564,54.3186
35.2239,54.2699
35.2125,54.2125
35.2125,52.9625
35.2239,52.9051
35.2564,52.8564
35.3051,52.8239
35.3625,52.8125
35.6625,52.8125
35.7199,52.8239
35.7686,52.8564
35.8011,52.9051
35.8125,52.9625
Z" /> 
<path style="fill:#000000; fill-opacity:1.0000; stroke:none;fill-rule:evenodd;"
d="M 34.8125,54.2125
34.8011,54.2699
34.7686,54.3186
34.7199,54.3511
34.6625,54.3625
34.3625,54.3625
34.3051,54.3511
34.2564,54.3186
34.2239,54.2699
34.2125,54.2125
34.2125,52.9625
34.2239,52.9051
34.2564,52.8564
34.3051,52.8239
34.3625,52.8125
34.6625,52.8125
34.7199,52.8239
34.7686,52.8564
34.8011,52.9051
34.8125,52.9625
Z" /> 
<path style="fill:#000000; fill-opacity:1.0000; stroke:none;fill-rule:evenodd;"
d="M 33.8125,54.2125
33.8011,54.2699
33.7686,54.3186
33.7199,54.3511
33.6625,54.3625
33.3625,54.3625
33.3051,54.3511
33.2564,54.3186
33.2239,54.2699
33.2125,54.2125
33.2125,52.9625
33.2239,52.9051
33.2564,52.8564
33.3051,52.8239
33.3625,52.8125
33.6625,52.8125
33.7199,52.8239
33.7686,52.8564
33.8011,52.9051
33.8125,52.9625
Z" /> 
<path style="fill:#000000; fill-opacity:1.0000; stroke:none;fill-rule:evenodd;"
d="M 32.8125,54.2125
32.8011,54.2699
32.7686,54.3186
32.7199,54.3511
32.6625,54.3625
32.3625,54.3625
32.3051,54.3511
32.2564,54.3186
32.2239,54.2699
32.2125,54.2125
32.2125,52.9625
32.2239,52.9051
32.2564,52.8564
32.3051,52.8239
32.3625,52.8125
32.6625,52.8125
32.7199,52.8239
32.7686,52.8564
32.8011,52.9051
32.8125,52.9625
Z" /> 
<path style="fill:#000000; fill-opacity:1.0000; stroke:none;fill-rule:evenodd;"
d="M 41.4125,58.1125
41.3935,58.2082
41.3393,58.2893
41.2582,58.3435
41.1625,58.3625
40.4625,58.3625
40.3668,58.3435
40.2857,58.2893
40.2315,58.2082
40.2125,58.1125
40.2125,56.8125
40.2315,56.7168
40.2857,56.6357
40.3668,56.5815
40.4625,56.5625
41.1625,56.5625
41.2582,56.5815
41.3393,56.6357
41.3935,56.7168
41.4125,56.8125
Z" /> 
<path style="fill:#000000; fill-opacity:1.0000; stroke:none;fill-rule:evenodd;"
d="M 31.8125,58.1125
31.7935,58.2082
31.7393,58.2893
31.6582,58.3435
31.5625,58.3625
30.8625,58.3625
30.7668,58.3435
30.6857,58.2893
30.6315,58.2082
30.6125,58.1125
30.6125,56.8125
30.6315,56.7168
30.6857,56.6357
30.7668,56.5815
30.8625,56.5625
31.5625,56.5625
31.6582,56.5815
31.7393,56.6357
31.7935,56.7168
31.8125,56.8125
Z" /> 
<path style="fill:#000000; fill-opacity:1.0000; stroke:none;fill-rule:evenodd;"
d="M 44.2125,50.1625
44.1935,50.2582
44.1393,50.3393
44.0582,50.3935
43.9625,50.4125
43.4625,50.4125
43.3668,50.3935
43.2857,50.3393
43.2315,50.2582
43.2125,50.1625
43.2125,49.2125
43.2315,49.1168
43.2857,49.0357
43.3668,48.9815
43.4625,48.9625
43.9625,48.9625
44.0582,48.9815
44.1393,49.0357
44.1935,49.1168
44.2125,49.2125
Z" /> 
<path style="fill:#000000; fill-opacity:1.0000; stroke:none;fill-rule:evenodd;"
d="M 42.3125,50.1625
42.2935,50.2582
42.2393,50.3393
42.1582,50.3935
42.0625,50.4125
41.5625,50.4125
41.4668,50.3935
41.3857,50.3393
41.3315,50.2582
41.3125,50.1625
41.3125,49.2125
41.3315,49.1168
41.3857,49.0357
41.4668,48.9815
41.5625,48.9625
42.0625,48.9625
42.1582,48.9815
42.2393,49.0357
42.2935,49.1168
42.3125,49.2125
Z" /> 
<path style="fill:#000000; fill-opacity:1.0000; stroke:none;fill-rule:evenodd;"
d="M 32.7625,32.9875
32.7454,33.0736
32.6966,33.1466
32.6236,33.1954
32.5375,33.2125
32.0875,33.2125
32.0014,33.1954
31.9284,33.1466
31.8796,33.0736
31.8625,32.9875
31.8625,32.4875
31.8796,32.4014
31.9284,32.3284
32.0014,32.2796
32.0875,32.2625
32.5375,32.2625
32.6236,32.2796
32.6966,32.3284
32.7454,32.4014
32.7625,32.4875
Z" /> 
<path style="fill:#000000; fill-opacity:1.0000; stroke:none;fill-rule:evenodd;"
d="M 31.2125,32.9875
31.1954,33.0736
31.1466,33.1466
31.0736,33.1954
30.9875,33.2125
30.5375,33.2125
30.4514,33.1954
30.3784,33.1466
30.3296,33.0736
30.3125,32.9875
30.3125,32.4875
30.3296,32.4014
30.3784,32.3284
30.4514,32.2796
30.5375,32.2625
30.9875,32.2625
31.0736,32.2796
31.1466,32.3284
31.1954,32.4014
31.2125,32.4875
Z" /> 
<path style="fill:#000000; fill-opacity:1.0000; stroke:none;fill-rule:evenodd;"
d="M 30.5825,17.9025
30.5928,17.8508
30.6220,17.8070
30.6658,17.7778
30.7175,17.7675
30.9875,17.7675
31.0392,17.7778
31.0830,17.8070
31.1122,17.8508
31.1225,17.9025
31.1225,18.2725
31.1122,18.3242
31.0830,18.3680
31.0392,18.3972
30.9875,18.4075
30.7175,18.4075
30.6658,18.3972
30.6220,18.3680
30.5928,18.3242
30.5825,18.2725
Z" /> 
<path style="fill:#000000; fill-opacity:1.0000; stroke:none;fill-rule:evenodd;"
d="M 31.6025,17.9025
31.6128,17.8508
31.6420,17.8070
31.6858,17.7778
31.7375,17.7675
32.0075,17.7675
32.0592,17.7778
32.1030,17.8070
32.1322,17.8508
32.1425,17.9025
32.1425,18.2725
32.1322,18.3242
32.1030,18.3680
32.0592,18.3972
32.0075,18.4075
31.7375,18.4075
31.6858,18.3972
31.6420,18.3680
31.6128,18.3242
31.6025,18.2725
Z" /> 
<path style="fill:#000000; fill-opacity:1.0000; stroke:none;fill-rule:evenodd;"
d="M 31.9750,26.6125
31.9864,26.5551
32.0189,26.5064
32.0676,26.4739
32.1250,26.4625
33.1500,26.4625
33.2074,26.4739
33.2561,26.5064
33.2886,26.5551
33.3000,26.6125
33.3000,26.9125
33.2886,26.9699
33.2561,27.0186
33.2074,27.0511
33.1500,27.0625
32.1250,27.0625
32.0676,27.0511
32.0189,27.0186
31.9864,26.9699
31.9750,26.9125
Z" /> 
<path style="fill:#000000; fill-opacity:1.0000; stroke:none;fill-rule:evenodd;"
d="M 31.9750,25.6625
31.9864,25.6051
32.0189,25.5564
32.0676,25.5239
32.1250,25.5125
33.1500,25.5125
33.2074,25.5239
33.2561,25.5564
33.2886,25.6051
33.3000,25.6625
33.3000,25.9625
33.2886,26.0199
33.2561,26.0686
33.2074,26.1011
33.1500,26.1125
32.1250,26.1125
32.0676,26.1011
32.0189,26.0686
31.9864,26.0199
31.9750,25.9625
Z" /> 
<path style="fill:#000000; fill-opacity:1.0000; stroke:none;fill-rule:evenodd;"
d="M 31.9750,24.7125
31.9864,24.6551
32.0189,24.6064
32.0676,24.5739
32.1250,24.5625
33.1500,24.5625
33.2074,24.5739
33.2561,24.6064
33.2886,24.6551
33.3000,24.7125
33.3000,25.0125
33.2886,25.0699
33.2561,25.1186
33.2074,25.1511
33.1500,25.1625
32.1250,25.1625
32.0676,25.1511
32.0189,25.1186
31.9864,25.0699
31.9750,25.0125
Z" /> 
<path style="fill:#000000; fill-opacity:1.0000; stroke:none;fill-rule:evenodd;"
d="M 34.2500,24.7125
34.2614,24.6551
34.2939,24.6064
34.3426,24.5739
34.4000,24.5625
35.4250,24.5625
35.4824,24.5739
35.5311,24.6064
35.5636,24.6551
35.5750,24.7125
35.5750,25.0125
35.5636,25.0699
35.5311,25.1186
35.4824,25.1511
35.4250,25.1625
34.4000,25.1625
34.3426,25.1511
34.2939,25.1186
34.2614,25.0699
34.2500,25.0125
Z" /> 
<path style="fill:#000000; fill-opacity:1.0000; stroke:none;fill-rule:evenodd;"
d="M 34.2500,25.6625
34.2614,25.6051
34.2939,25.5564
34.3426,25.5239
34.4000,25.5125
35.4250,25.5125
35.4824,25.5239
35.5311,25.5564
35.5636,25.6051
35.5750,25.6625
35.5750,25.9625
35.5636,26.0199
35.5311,26.0686
35.4824,26.1011
35.4250,26.1125
34.4000,26.1125
34.3426,26.1011
34.2939,26.0686
34.2614,26.0199
34.2500,25.9625
Z" /> 
<path style="fill:#000000; fill-opacity:1.0000; stroke:none;fill-rule:evenodd;"
d="M 34.2500,26.6125
34.2614,26.5551
34.2939,26.5064
34.3426,26.4739
34.4000,26.4625
35.4250,26.4625
35.4824,26.4739
35.5311,26.5064
35.5636,26.5551
35.5750,26.6125
35.5750,26.9125
35.5636,26.9699
35.5311,27.0186
35.4824,27.0511
35.4250,27.0625
34.4000,27.0625
34.3426,27.0511
34.2939,27.0186
34.2614,26.9699
34.2500,26.9125
Z" /> 
<path style="fill:#000000; fill-opacity:1.0000; stroke:none;fill-rule:evenodd;"
d="M 26.8750,26.6125
26.8864,26.5551
26.9189,26.5064
26.9676,26.4739
27.0250,26.4625
28.0500,26.4625
28.1074,26.4739
28.1561,26.5064
28.1886,26.5551
28.2000,26.6125
28.2000,26.9125
28.1886,26.9699
28.1561,27.0186
28.1074,27.0511
28.0500,27.0625
27.0250,27.0625
26.9676,27.0511
26.9189,27.0186
26.8864,26.9699
26.8750,26.9125
Z" /> 
<path style="fill:#000000; fill-opacity:1.0000; stroke:none;fill-rule:evenodd;"
d="M 26.8750,25.6625
26.8864,25.6051
26.9189,25.5564
26.9676,25.5239
27.0250,25.5125
28.0500,25.5125
28.1074,25.5239
28.1561,25.5564
28.1886,25.6051
28.2000,25.6625
28.2000,25.9625
28.1886,26.0199
28.1561,26.0686
28.1074,26.1011
28.0500,26.1125
27.0250,26.1125
26.9676,26.1011
26.9189,26.0686
26.8864,26.0199
26.8750,25.9625
Z" /> 
<path style="fill:#000000; fill-opacity:1.0000; stroke:none;fill-rule:evenodd;"
d="M 26.8750,24.7125
26.8864,24.6551
26.9189,24.6064
26.9676,24.5739
27.0250,24.5625
28.0500,24.5625
28.1074,24.5739
28.1561,24.6064
28.1886,24.6551
28.2000,24.7125
28.2000,25.0125
28.1886,25.0699
28.1561,25.1186
28.1074,25.1511
28.0500,25.1625
27.0250,25.1625
26.9676,25.1511
26.9189,25.1186
26.8864,25.0699
26.8750,25.0125
Z" /> 
<path style="fill:#000000; fill-opacity:1.0000; stroke:none;fill-rule:evenodd;"
d="M 29.1500,24.7125
29.1614,24.6551
29.1939,24.6064
29.2426,24.5739
29.3000,24.5625
30.3250,24.5625
30.3824,24.5739
30.4311,24.6064
30.4636,24.6551
30.4750,24.7125
30.4750,25.0125
30.4636,25.0699
30.4311,25.1186
30.3824,25.1511
30.3250,25.1625
29.3000,25.1625
29.2426,25.1511
29.1939,25.1186
29.1614,25.0699
29.1500,25.0125
Z" /> 
<path style="fill:#000000; fill-opacity:1.0000; stroke:none;fill-rule:evenodd;"
d="M 29.1500,25.6625
29.1614,25.6051
29.1939,25.5564
29.2426,25.5239
29.3000,25.5125
30.3250,25.5125
30.3824,25.5239
30.4311,25.5564
30.4636,25.6051
30.4750,25.6625
30.4750,25.9625
30.4636,26.0199
30.4311,26.0686
30.3824,26.1011
30.3250,26.1125
29.3000,26.1125
29.2426,26.1011
29.1939,26.0686
29.1614,26.0199
29.1500,25.9625
Z" /> 
<path style="fill:#000000; fill-opacity:1.0000; stroke:none;fill-rule:evenodd;"
d="M 29.1500,26.6125
29.1614,26.5551
29.1939,26.5064
29.2426,26.4739
29.3000,26.4625
30.3250,26.4625
30.3824,26.4739
30.4311,26.5064
30.4636,26.5551
30.4750,26.6125
30.4750,26.9125
30.4636,26.9699
30.4311,27.0186
30.3824,27.0511
30.3250,27.0625
29.3000,27.0625
29.2426,27.0511
29.1939,27.0186
29.1614,26.9699
29.1500,26.9125
Z" /> 
<path style="fill:#000000; fill-opacity:1.0000; stroke:none;fill-rule:evenodd;"
d="M 37.0375,47.1875
37.1332,47.2065
37.2143,47.2607
37.2685,47.3418
37.2875,47.4375
37.2875,47.9375
37.2685,48.0332
37.2143,48.1143
37.1332,48.1685
37.0375,48.1875
36.0875,48.1875
35.9918,48.1685
35.9107,48.1143
35.8565,48.0332
35.8375,47.9375
35.8375,47.4375
35.8565,47.3418
35.9107,47.2607
35.9918,47.2065
36.0875,47.1875
Z" /> 
<path style="fill:#000000; fill-opacity:1.0000; stroke:none;fill-rule:evenodd;"
d="M 37.0375,49.0875
37.1332,49.1065
37.2143,49.1607
37.2685,49.2418
37.2875,49.3375
37.2875,49.8375
37.2685,49.9332
37.2143,50.0143
37.1332,50.0685
37.0375,50.0875
36.0875,50.0875
35.9918,50.0685
35.9107,50.0143
35.8565,49.9332
35.8375,49.8375
35.8375,49.3375
35.8565,49.2418
35.9107,49.1607
35.9918,49.1065
36.0875,49.0875
Z" /> 
<path style="fill:#000000; fill-opacity:1.0000; stroke:none;fill-rule:evenodd;"
d="M 33.7750,43.6875
33.7864,43.6301
33.8189,43.5814
33.8676,43.5489
33.9250,43.5375
35.1000,43.5375
35.1574,43.5489
35.2061,43.5814
35.2386,43.6301
35.2500,43.6875
35.2500,43.9875
35.2386,44.0449
35.2061,44.0936
35.1574,44.1261
35.1000,44.1375
33.9250,44.1375
33.8676,44.1261
33.8189,44.0936
33.7864,44.0449
33.7750,43.9875
Z" /> 
<path style="fill:#000000; fill-opacity:1.0000; stroke:none;fill-rule:evenodd;"
d="M 33.7750,41.7875
33.7864,41.7301
33.8189,41.6814
33.8676,41.6489
33.9250,41.6375
35.1000,41.6375
35.1574,41.6489
35.2061,41.6814
35.2386,41.7301
35.2500,41.7875
35.2500,42.0875
35.2386,42.1449
35.2061,42.1936
35.1574,42.2261
35.1000,42.2375
33.9250,42.2375
33.8676,42.2261
33.8189,42.1936
33.7864,42.1449
33.7750,42.0875
Z" /> 
<path style="fill:#000000; fill-opacity:1.0000; stroke:none;fill-rule:evenodd;"
d="M 35.6500,42.7375
35.6614,42.6801
35.6939,42.6314
35.7426,42.5989
35.8000,42.5875
36.9750,42.5875
37.0324,42.5989
37.0811,42.6314
37.1136,42.6801
37.1250,42.7375
37.1250,43.0375
37.1136,43.0949
37.0811,43.1436
37.0324,43.1761
36.9750,43.1875
35.8000,43.1875
35.7426,43.1761
35.6939,43.1436
35.6614,43.0949
35.6500,43.0375
Z" /> 
<path style="fill:#000000; fill-opacity:1.0000; stroke:none;fill-rule:evenodd;"
d="M 38.5625,46.3125
38.5781,46.2055
38.6323,46.0946
38.7196,46.0073
38.8305,45.9531
38.9375,45.9375
40.1875,45.9375
40.2945,45.9531
40.4054,46.0073
40.4927,46.0946
40.5469,46.2055
40.5625,46.3125
40.5625,47.0625
40.5469,47.1695
40.4927,47.2804
40.4054,47.3677
40.2945,47.4219
40.1875,47.4375
38.9375,47.4375
38.8305,47.4219
38.7196,47.3677
38.6323,47.2804
38.5781,47.1695
38.5625,47.0625
Z" /> 
<path style="fill:#000000; fill-opacity:1.0000; stroke:none;fill-rule:evenodd;"
d="M 38.5625,44.0125
38.5781,43.9055
38.6323,43.7946
38.7196,43.7073
38.8305,43.6531
38.9375,43.6375
40.1875,43.6375
40.2945,43.6531
40.4054,43.7073
40.4927,43.7946
40.5469,43.9055
40.5625,44.0125
40.5625,44.7625
40.5469,44.8695
40.4927,44.9804
40.4054,45.0677
40.2945,45.1219
40.1875,45.1375
38.9375,45.1375
38.8305,45.1219
38.7196,45.0677
38.6323,44.9804
38.5781,44.8695
38.5625,44.7625
Z" /> 
<path style="fill:#000000; fill-opacity:1.0000; stroke:none;fill-rule:evenodd;"
d="M 44.8625,42.9875
44.8739,42.8812
44.9237,42.7479
45.0089,42.6339
45.1229,42.5487
45.2562,42.4989
45.3625,42.4875
46.3625,42.4875
46.4688,42.4989
46.6021,42.5487
46.7161,42.6339
46.8013,42.7479
46.8511,42.8812
46.8625,42.9875
46.8625,45.7875
46.8511,45.8938
46.8013,46.0271
46.7161,46.1411
46.6021,46.2263
46.4688,46.2761
46.3625,46.2875
45.3625,46.2875
45.2562,46.2761
45.1229,46.2263
45.0089,46.1411
44.9237,46.0271
44.8739,45.8938
44.8625,45.7875
Z" /> 
<path style="fill:#000000; fill-opacity:1.0000; stroke:none;fill-rule:evenodd;"
d="M 38.5625,41.7125
38.5781,41.6055
38.6323,41.4946
38.7196,41.4073
38.8305,41.3531
38.9375,41.3375
40.1875,41.3375
40.2945,41.3531
40.4054,41.4073
40.4927,41.4946
40.5469,41.6055
40.5625,41.7125
40.5625,42.4625
40.5469,42.5695
40.4927,42.6804
40.4054,42.7677
40.2945,42.8219
40.1875,42.8375
38.9375,42.8375
38.8305,42.8219
38.7196,42.7677
38.6323,42.6804
38.5781,42.5695
38.5625,42.4625
Z" /> 
<path style="fill:#000000; fill-opacity:1.0000; stroke:none;fill-rule:evenodd;"
d="M 32.1625,37.6875
32.1051,37.6761
32.0564,37.6436
32.0239,37.5949
32.0125,37.5375
32.0125,36.5125
32.0239,36.4551
32.0564,36.4064
32.1051,36.3739
32.1625,36.3625
32.4625,36.3625
32.5199,36.3739
32.5686,36.4064
32.6011,36.4551
32.6125,36.5125
32.6125,37.5375
32.6011,37.5949
32.5686,37.6436
32.5199,37.6761
32.4625,37.6875
Z" /> 
<path style="fill:#000000; fill-opacity:1.0000; stroke:none;fill-rule:evenodd;"
d="M 31.2125,37.6875
31.1551,37.6761
31.1064,37.6436
31.0739,37.5949
31.0625,37.5375
31.0625,36.5125
31.0739,36.4551
31.1064,36.4064
31.1551,36.3739
31.2125,36.3625
31.5125,36.3625
31.5699,36.3739
31.6186,36.4064
31.6511,36.4551
31.6625,36.5125
31.6625,37.5375
31.6511,37.5949
31.6186,37.6436
31.5699,37.6761
31.5125,37.6875
Z" /> 
<path style="fill:#000000; fill-opacity:1.0000; stroke:none;fill-rule:evenodd;"
d="M 30.2625,37.6875
30.2051,37.6761
30.1564,37.6436
30.1239,37.5949
30.1125,37.5375
30.1125,36.5125
30.1239,36.4551
30.1564,36.4064
30.2051,36.3739
30.2625,36.3625
30.5625,36.3625
30.6199,36.3739
30.6686,36.4064
30.7011,36.4551
30.7125,36.5125
30.7125,37.5375
30.7011,37.5949
30.6686,37.6436
30.6199,37.6761
30.5625,37.6875
Z" /> 
<path style="fill:#000000; fill-opacity:1.0000; stroke:none;fill-rule:evenodd;"
d="M 30.2625,35.4125
30.2051,35.4011
30.1564,35.3686
30.1239,35.3199
30.1125,35.2625
30.1125,34.2375
30.1239,34.1801
30.1564,34.1314
30.2051,34.0989
30.2625,34.0875
30.5625,34.0875
30.6199,34.0989
30.6686,34.1314
30.7011,34.1801
30.7125,34.2375
30.7125,35.2625
30.7011,35.3199
30.6686,35.3686
30.6199,35.4011
30.5625,35.4125
Z" /> 
<path style="fill:#000000; fill-opacity:1.0000; stroke:none;fill-rule:evenodd;"
d="M 32.1625,35.4125
32.1051,35.4011
32.0564,35.3686
32.0239,35.3199
32.0125,35.2625
32.0125,34.2375
32.0239,34.1801
32.0564,34.1314
32.1051,34.0989
32.1625,34.0875
32.4625,34.0875
32.5199,34.0989
32.5686,34.1314
32.6011,34.1801
32.6125,34.2375
32.6125,35.2625
32.6011,35.3199
32.5686,35.3686
32.5199,35.4011
32.4625,35.4125
Z" /> 
<path style="fill:#000000; fill-opacity:1.0000; stroke:none;fill-rule:evenodd;"
d="M 32.5625,40.0000
32.5454,40.0861
32.4966,40.1591
32.4236,40.2079
32.3375,40.2250
31.8875,40.2250
31.8014,40.2079
31.7284,40.1591
31.6796,40.0861
31.6625,40.0000
31.6625,39.5000
31.6796,39.4139
31.7284,39.3409
31.8014,39.2921
31.8875,39.2750
32.3375,39.2750
32.4236,39.2921
32.4966,39.3409
32.5454,39.4139
32.5625,39.5000
Z" /> 
<path style="fill:#000000; fill-opacity:1.0000; stroke:none;fill-rule:evenodd;"
d="M 31.0125,40.0000
30.9954,40.0861
30.9466,40.1591
30.8736,40.2079
30.7875,40.2250
30.3375,40.2250
30.2514,40.2079
30.1784,40.1591
30.1296,40.0861
30.1125,40.0000
30.1125,39.5000
30.1296,39.4139
30.1784,39.3409
30.2514,39.2921
30.3375,39.2750
30.7875,39.2750
30.8736,39.2921
30.9466,39.3409
30.9954,39.4139
31.0125,39.5000
Z" /> 
<path style="fill:#000000; fill-opacity:1.0000; stroke:none;fill-rule:evenodd;"
d="M 32.1425,17.1725
32.1322,17.2242
32.1030,17.2680
32.0592,17.2972
32.0075,17.3075
31.7375,17.3075
31.6858,17.2972
31.6420,17.2680
31.6128,17.2242
31.6025,17.1725
31.6025,16.8025
31.6128,16.7508
31.6420,16.7070
31.6858,16.6778
31.7375,16.6675
32.0075,16.6675
32.0592,16.6778
32.1030,16.7070
32.1322,16.7508
32.1425,16.8025
Z" /> 
<path style="fill:#000000; fill-opacity:1.0000; stroke:none;fill-rule:evenodd;"
d="M 31.1225,17.1725
31.1122,17.2242
31.0830,17.2680
31.0392,17.2972
30.9875,17.3075
30.7175,17.3075
30.6658,17.2972
30.6220,17.2680
30.5928,17.2242
30.5825,17.1725
30.5825,16.8025
30.5928,16.7508
30.6220,16.7070
30.6658,16.6778
30.7175,16.6675
30.9875,16.6675
31.0392,16.6778
31.0830,16.7070
31.1122,16.7508
31.1225,16.8025
Z" /> 
</g> 
</svg>
