<?xml version="1.0" standalone="no"?>
 <!DOCTYPE svg PUBLIC "-//W3C//DTD SVG 1.1//EN" 
 "http://www.w3.org/Graphics/SVG/1.1/DTD/svg11.dtd"> 
<svg
  xmlns:svg="http://www.w3.org/2000/svg"
  xmlns="http://www.w3.org/2000/svg"
  xmlns:xlink="http://www.w3.org/1999/xlink"
  version="1.1"
  width="210.0072mm" height="148.0058mm" viewBox="0.0000 0.0000 210.0072 148.0058">
<title>SVG Image created as STM32_FlightController-Edge_Cuts.svg date 2025/06/13 16:04:39 </title>
  <desc>Image generated by PCBNEW </desc>
<g style="fill:#000000; fill-opacity:1.0000;stroke:#000000; stroke-opacity:1.0000;
stroke-linecap:round; stroke-linejoin:round;"
 transform="translate(0 0) scale(1 1)">
</g>
<g style="fill:none; 
stroke:#000000; stroke-width:0.0500; stroke-opacity:1; 
stroke-linecap:round; stroke-linejoin:round;">
<path d="M14.7625 20.4875
L14.7625 50.4875
" />
<path d="M23.1625 58.8875
L48.3625 58.8875
" />
<path d="M20.7625 14.4875 A6.0000 6.0000 0.0 0 0 14.7625 20.4875" />
<path d="M56.7625 20.4875 A6.0000 6.0000 0.0 0 0 50.7625 14.4875" />
<path d="M21.9625 57.6875 A1.2000 1.2000 0.0 0 0 20.7625 56.4875" />
<path d="M50.7625 56.4875 A6.0000 6.0000 0.0 0 0 56.7625 50.4875" />
<path d="M56.7625 50.4875
L56.7625 20.4875
" />
<path d="M50.7625 56.4875 A1.2000 1.2000 0.0 0 0 49.5625 57.6875" />
<path d="M14.7625 50.4875 A6.0000 6.0000 0.0 0 0 20.7625 56.4875" />
<path d="M48.3625 58.8875 A1.2000 1.2000 0.0 0 0 49.5625 57.6875" />
<path d="M50.7625 14.4875
L20.7625 14.4875
" />
<path d="M21.9625 57.6875 A1.2000 1.2000 0.0 0 0 23.1625 58.8875" />
</g> 
</svg>
