<?xml version="1.0" standalone="no"?>
 <!DOCTYPE svg PUBLIC "-//W3C//DTD SVG 1.1//EN" 
 "http://www.w3.org/Graphics/SVG/1.1/DTD/svg11.dtd"> 
<svg
  xmlns:svg="http://www.w3.org/2000/svg"
  xmlns="http://www.w3.org/2000/svg"
  xmlns:xlink="http://www.w3.org/1999/xlink"
  version="1.1"
  width="210.0072mm" height="148.0058mm" viewBox="0.0000 0.0000 210.0072 148.0058">
<title>SVG Image created as STM32_FlightController-F_Paste.svg date 2025/06/13 16:04:39 </title>
  <desc>Image generated by PCBNEW </desc>
<g style="fill:#000000; fill-opacity:1.0000;stroke:#000000; stroke-opacity:1.0000;
stroke-linecap:round; stroke-linejoin:round;"
 transform="translate(0 0) scale(1 1)">
<path style="fill:#000000; fill-opacity:1.0000; stroke:none;fill-rule:evenodd;"
d="M 30.0475,17.2075
30.0992,17.2178
30.1430,17.2470
30.1722,17.2908
30.1825,17.3425
30.1825,17.6125
30.1722,17.6642
30.1430,17.7080
30.0992,17.7372
30.0475,17.7475
29.6775,17.7475
29.6258,17.7372
29.5820,17.7080
29.5528,17.6642
29.5425,17.6125
29.5425,17.3425
29.5528,17.2908
29.5820,17.2470
29.6258,17.2178
29.6775,17.2075
Z" /> 
<path style="fill:#000000; fill-opacity:1.0000; stroke:none;fill-rule:evenodd;"
d="M 30.0475,18.2275
30.0992,18.2378
30.1430,18.2670
30.1722,18.3108
30.1825,18.3625
30.1825,18.6325
30.1722,18.6842
30.1430,18.7280
30.0992,18.7572
30.0475,18.7675
29.6775,18.7675
29.6258,18.7572
29.5820,18.7280
29.5528,18.6842
29.5425,18.6325
29.5425,18.3625
29.5528,18.3108
29.5820,18.2670
29.6258,18.2378
29.6775,18.2275
Z" /> 
<path style="fill:#000000; fill-opacity:1.0000; stroke:none;fill-rule:evenodd;"
d="M 19.9825,32.1025
19.9928,32.0508
20.0220,32.0070
20.0658,31.9778
20.1175,31.9675
20.3875,31.9675
20.4392,31.9778
20.4830,32.0070
20.5122,32.0508
20.5225,32.1025
20.5225,32.4725
20.5122,32.5242
20.4830,32.5680
20.4392,32.5972
20.3875,32.6075
20.1175,32.6075
20.0658,32.5972
20.0220,32.5680
19.9928,32.5242
19.9825,32.4725
Z" /> 
<path style="fill:#000000; fill-opacity:1.0000; stroke:none;fill-rule:evenodd;"
d="M 21.0025,32.1025
21.0128,32.0508
21.0420,32.0070
21.0858,31.9778
21.1375,31.9675
21.4075,31.9675
21.4592,31.9778
21.5030,32.0070
21.5322,32.0508
21.5425,32.1025
21.5425,32.4725
21.5322,32.5242
21.5030,32.5680
21.4592,32.5972
21.4075,32.6075
21.1375,32.6075
21.0858,32.5972
21.0420,32.5680
21.0128,32.5242
21.0025,32.4725
Z" /> 
<path style="fill:#000000; fill-opacity:1.0000; stroke:none;fill-rule:evenodd;"
d="M 40.3125,52.9625
40.3239,52.9051
40.3564,52.8564
40.4051,52.8239
40.4625,52.8125
40.7625,52.8125
40.8199,52.8239
40.8686,52.8564
40.9011,52.9051
40.9125,52.9625
40.9125,54.2125
40.9011,54.2699
40.8686,54.3186
40.8199,54.3511
40.7625,54.3625
40.4625,54.3625
40.4051,54.3511
40.3564,54.3186
40.3239,54.2699
40.3125,54.2125
Z" /> 
<path style="fill:#000000; fill-opacity:1.0000; stroke:none;fill-rule:evenodd;"
d="M 41.3125,52.9625
41.3239,52.9051
41.3564,52.8564
41.4051,52.8239
41.4625,52.8125
41.7625,52.8125
41.8199,52.8239
41.8686,52.8564
41.9011,52.9051
41.9125,52.9625
41.9125,54.2125
41.9011,54.2699
41.8686,54.3186
41.8199,54.3511
41.7625,54.3625
41.4625,54.3625
41.4051,54.3511
41.3564,54.3186
41.3239,54.2699
41.3125,54.2125
Z" /> 
<path style="fill:#000000; fill-opacity:1.0000; stroke:none;fill-rule:evenodd;"
d="M 42.3125,52.9625
42.3239,52.9051
42.3564,52.8564
42.4051,52.8239
42.4625,52.8125
42.7625,52.8125
42.8199,52.8239
42.8686,52.8564
42.9011,52.9051
42.9125,52.9625
42.9125,54.2125
42.9011,54.2699
42.8686,54.3186
42.8199,54.3511
42.7625,54.3625
42.4625,54.3625
42.4051,54.3511
42.3564,54.3186
42.3239,54.2699
42.3125,54.2125
Z" /> 
<path style="fill:#000000; fill-opacity:1.0000; stroke:none;fill-rule:evenodd;"
d="M 43.3125,52.9625
43.3239,52.9051
43.3564,52.8564
43.4051,52.8239
43.4625,52.8125
43.7625,52.8125
43.8199,52.8239
43.8686,52.8564
43.9011,52.9051
43.9125,52.9625
43.9125,54.2125
43.9011,54.2699
43.8686,54.3186
43.8199,54.3511
43.7625,54.3625
43.4625,54.3625
43.4051,54.3511
43.3564,54.3186
43.3239,54.2699
43.3125,54.2125
Z" /> 
<path style="fill:#000000; fill-opacity:1.0000; stroke:none;fill-rule:evenodd;"
d="M 38.7125,56.8125
38.7315,56.7168
38.7857,56.6357
38.8668,56.5815
38.9625,56.5625
39.6625,56.5625
39.7582,56.5815
39.8393,56.6357
39.8935,56.7168
39.9125,56.8125
39.9125,58.1125
39.8935,58.2082
39.8393,58.2893
39.7582,58.3435
39.6625,58.3625
38.9625,58.3625
38.8668,58.3435
38.7857,58.2893
38.7315,58.2082
38.7125,58.1125
Z" /> 
<path style="fill:#000000; fill-opacity:1.0000; stroke:none;fill-rule:evenodd;"
d="M 44.3125,56.8125
44.3315,56.7168
44.3857,56.6357
44.4668,56.5815
44.5625,56.5625
45.2625,56.5625
45.3582,56.5815
45.4393,56.6357
45.4935,56.7168
45.5125,56.8125
45.5125,58.1125
45.4935,58.2082
45.4393,58.2893
45.3582,58.3435
45.2625,58.3625
44.5625,58.3625
44.4668,58.3435
44.3857,58.2893
44.3315,58.2082
44.3125,58.1125
Z" /> 
<path style="fill:#000000; fill-opacity:1.0000; stroke:none;fill-rule:evenodd;"
d="M 51.6575,37.0125
50.3575,37.0125
50.3575,36.5625
51.6575,36.5625
Z" /> 
<path style="fill:#000000; fill-opacity:1.0000; stroke:none;fill-rule:evenodd;"
d="M 51.6575,36.3625
50.3575,36.3625
50.3575,35.9125
51.6575,35.9125
Z" /> 
<path style="fill:#000000; fill-opacity:1.0000; stroke:none;fill-rule:evenodd;"
d="M 51.6575,35.7125
50.3575,35.7125
50.3575,35.2625
51.6575,35.2625
Z" /> 
<path style="fill:#000000; fill-opacity:1.0000; stroke:none;fill-rule:evenodd;"
d="M 51.6575,35.0625
50.3575,35.0625
50.3575,34.6125
51.6575,34.6125
Z" /> 
<path style="fill:#000000; fill-opacity:1.0000; stroke:none;fill-rule:evenodd;"
d="M 51.6575,34.4125
50.3575,34.4125
50.3575,33.9625
51.6575,33.9625
Z" /> 
<path style="fill:#000000; fill-opacity:1.0000; stroke:none;fill-rule:evenodd;"
d="M 40.8025,43.5175
40.8132,43.4639
40.8435,43.4185
40.8889,43.3882
40.9425,43.3775
41.2225,43.3775
41.2761,43.3882
41.3215,43.4185
41.3518,43.4639
41.3625,43.5175
41.3625,43.8575
41.3518,43.9111
41.3215,43.9565
41.2761,43.9868
41.2225,43.9975
40.9425,43.9975
40.8889,43.9868
40.8435,43.9565
40.8132,43.9111
40.8025,43.8575
Z" /> 
<path style="fill:#000000; fill-opacity:1.0000; stroke:none;fill-rule:evenodd;"
d="M 41.7625,43.5175
41.7732,43.4639
41.8035,43.4185
41.8489,43.3882
41.9025,43.3775
42.1825,43.3775
42.2361,43.3882
42.2815,43.4185
42.3118,43.4639
42.3225,43.5175
42.3225,43.8575
42.3118,43.9111
42.2815,43.9565
42.2361,43.9868
42.1825,43.9975
41.9025,43.9975
41.8489,43.9868
41.8035,43.9565
41.7732,43.9111
41.7625,43.8575
Z" /> 
<path style="fill:#000000; fill-opacity:1.0000; stroke:none;fill-rule:evenodd;"
d="M 55.5025,41.7225
55.4922,41.7742
55.4630,41.8180
55.4192,41.8472
55.3675,41.8575
55.0975,41.8575
55.0458,41.8472
55.0020,41.8180
54.9728,41.7742
54.9625,41.7225
54.9625,41.3525
54.9728,41.3008
55.0020,41.2570
55.0458,41.2278
55.0975,41.2175
55.3675,41.2175
55.4192,41.2278
55.4630,41.2570
55.4922,41.3008
55.5025,41.3525
Z" /> 
<path style="fill:#000000; fill-opacity:1.0000; stroke:none;fill-rule:evenodd;"
d="M 54.4825,41.7225
54.4722,41.7742
54.4430,41.8180
54.3992,41.8472
54.3475,41.8575
54.0775,41.8575
54.0258,41.8472
53.9820,41.8180
53.9528,41.7742
53.9425,41.7225
53.9425,41.3525
53.9528,41.3008
53.9820,41.2570
54.0258,41.2278
54.0775,41.2175
54.3475,41.2175
54.3992,41.2278
54.4430,41.2570
54.4722,41.3008
54.4825,41.3525
Z" /> 
<path style="fill:#000000; fill-opacity:1.0000; stroke:none;fill-rule:evenodd;"
d="M 17.2425,27.4375
18.0425,27.4375
18.0425,28.4375
17.2425,28.4375
Z" /> 
<path style="fill:#000000; fill-opacity:1.0000; stroke:none;fill-rule:evenodd;"
d="M 15.0325,27.4375
15.8325,27.4375
15.8325,28.4375
15.0325,28.4375
Z" /> 
<path style="fill:#000000; fill-opacity:1.0000; stroke:none;fill-rule:evenodd;"
d="M 17.2425,34.7375
18.0425,34.7375
18.0425,35.7375
17.2425,35.7375
Z" /> 
<path style="fill:#000000; fill-opacity:1.0000; stroke:none;fill-rule:evenodd;"
d="M 15.0325,34.7375
15.8325,34.7375
15.8325,35.7375
15.0325,35.7375
Z" /> 
<path style="fill:#000000; fill-opacity:1.0000; stroke:none;fill-rule:evenodd;"
d="M 17.5425,28.9875
19.0425,28.9875
19.0425,29.6875
17.5425,29.6875
Z" /> 
<path style="fill:#000000; fill-opacity:1.0000; stroke:none;fill-rule:evenodd;"
d="M 17.5425,31.9875
19.0425,31.9875
19.0425,32.6875
17.5425,32.6875
Z" /> 
<path style="fill:#000000; fill-opacity:1.0000; stroke:none;fill-rule:evenodd;"
d="M 17.5425,33.4875
19.0425,33.4875
19.0425,34.1875
17.5425,34.1875
Z" /> 
<path style="fill:#000000; fill-opacity:1.0000; stroke:none;fill-rule:evenodd;"
d="M 28.2925,23.0475
28.2389,23.0368
28.1935,23.0065
28.1632,22.9611
28.1525,22.9075
28.1525,22.6275
28.1632,22.5739
28.1935,22.5285
28.2389,22.4982
28.2925,22.4875
28.6325,22.4875
28.6861,22.4982
28.7315,22.5285
28.7618,22.5739
28.7725,22.6275
28.7725,22.9075
28.7618,22.9611
28.7315,23.0065
28.6861,23.0368
28.6325,23.0475
Z" /> 
<path style="fill:#000000; fill-opacity:1.0000; stroke:none;fill-rule:evenodd;"
d="M 28.2925,22.0875
28.2389,22.0768
28.1935,22.0465
28.1632,22.0011
28.1525,21.9475
28.1525,21.6675
28.1632,21.6139
28.1935,21.5685
28.2389,21.5382
28.2925,21.5275
28.6325,21.5275
28.6861,21.5382
28.7315,21.5685
28.7618,21.6139
28.7725,21.6675
28.7725,21.9475
28.7618,22.0011
28.7315,22.0465
28.6861,22.0768
28.6325,22.0875
Z" /> 
<path style="fill:#000000; fill-opacity:1.0000; stroke:none;fill-rule:evenodd;"
d="M 26.6600,39.0175
26.6707,38.9639
26.7010,38.9185
26.7464,38.8882
26.8000,38.8775
27.0800,38.8775
27.1336,38.8882
27.1790,38.9185
27.2093,38.9639
27.2200,39.0175
27.2200,39.3575
27.2093,39.4111
27.1790,39.4565
27.1336,39.4868
27.0800,39.4975
26.8000,39.4975
26.7464,39.4868
26.7010,39.4565
26.6707,39.4111
26.6600,39.3575
Z" /> 
<path style="fill:#000000; fill-opacity:1.0000; stroke:none;fill-rule:evenodd;"
d="M 27.6200,39.0175
27.6307,38.9639
27.6610,38.9185
27.7064,38.8882
27.7600,38.8775
28.0400,38.8775
28.0936,38.8882
28.1390,38.9185
28.1693,38.9639
28.1800,39.0175
28.1800,39.3575
28.1693,39.4111
28.1390,39.4565
28.0936,39.4868
28.0400,39.4975
27.7600,39.4975
27.7064,39.4868
27.6610,39.4565
27.6307,39.4111
27.6200,39.3575
Z" /> 
<path style="fill:#000000; fill-opacity:1.0000; stroke:none;fill-rule:evenodd;"
d="M 29.4875,20.2375
29.4913,20.2184
29.5021,20.2021
29.5184,20.1913
29.5375,20.1875
29.9875,20.1875
30.0066,20.1913
30.0229,20.2021
30.0337,20.2184
30.0375,20.2375
30.0375,20.3375
30.0337,20.3566
30.0229,20.3729
30.0066,20.3837
29.9875,20.3875
29.5375,20.3875
29.5184,20.3837
29.5021,20.3729
29.4913,20.3566
29.4875,20.3375
Z" /> 
<path style="fill:#000000; fill-opacity:1.0000; stroke:none;fill-rule:evenodd;"
d="M 29.4875,20.6375
29.4913,20.6184
29.5021,20.6021
29.5184,20.5913
29.5375,20.5875
29.9875,20.5875
30.0066,20.5913
30.0229,20.6021
30.0337,20.6184
30.0375,20.6375
30.0375,20.7375
30.0337,20.7566
30.0229,20.7729
30.0066,20.7837
29.9875,20.7875
29.5375,20.7875
29.5184,20.7837
29.5021,20.7729
29.4913,20.7566
29.4875,20.7375
Z" /> 
<path style="fill:#000000; fill-opacity:1.0000; stroke:none;fill-rule:evenodd;"
d="M 29.4875,21.0375
29.4913,21.0184
29.5021,21.0021
29.5184,20.9913
29.5375,20.9875
29.9875,20.9875
30.0066,20.9913
30.0229,21.0021
30.0337,21.0184
30.0375,21.0375
30.0375,21.1375
30.0337,21.1566
30.0229,21.1729
30.0066,21.1837
29.9875,21.1875
29.5375,21.1875
29.5184,21.1837
29.5021,21.1729
29.4913,21.1566
29.4875,21.1375
Z" /> 
<path style="fill:#000000; fill-opacity:1.0000; stroke:none;fill-rule:evenodd;"
d="M 29.4875,21.4375
29.4913,21.4184
29.5021,21.4021
29.5184,21.3913
29.5375,21.3875
29.9875,21.3875
30.0066,21.3913
30.0229,21.4021
30.0337,21.4184
30.0375,21.4375
30.0375,21.5375
30.0337,21.5566
30.0229,21.5729
30.0066,21.5837
29.9875,21.5875
29.5375,21.5875
29.5184,21.5837
29.5021,21.5729
29.4913,21.5566
29.4875,21.5375
Z" /> 
<path style="fill:#000000; fill-opacity:1.0000; stroke:none;fill-rule:evenodd;"
d="M 29.4875,21.8375
29.4913,21.8184
29.5021,21.8021
29.5184,21.7913
29.5375,21.7875
29.9875,21.7875
30.0066,21.7913
30.0229,21.8021
30.0337,21.8184
30.0375,21.8375
30.0375,21.9375
30.0337,21.9566
30.0229,21.9729
30.0066,21.9837
29.9875,21.9875
29.5375,21.9875
29.5184,21.9837
29.5021,21.9729
29.4913,21.9566
29.4875,21.9375
Z" /> 
<path style="fill:#000000; fill-opacity:1.0000; stroke:none;fill-rule:evenodd;"
d="M 29.4875,22.2375
29.4913,22.2184
29.5021,22.2021
29.5184,22.1913
29.5375,22.1875
29.9875,22.1875
30.0066,22.1913
30.0229,22.2021
30.0337,22.2184
30.0375,22.2375
30.0375,22.3375
30.0337,22.3566
30.0229,22.3729
30.0066,22.3837
29.9875,22.3875
29.5375,22.3875
29.5184,22.3837
29.5021,22.3729
29.4913,22.3566
29.4875,22.3375
Z" /> 
<path style="fill:#000000; fill-opacity:1.0000; stroke:none;fill-rule:evenodd;"
d="M 30.2125,23.0625
30.1934,23.0587
30.1771,23.0479
30.1663,23.0316
30.1625,23.0125
30.1625,22.5625
30.1663,22.5434
30.1771,22.5271
30.1934,22.5163
30.2125,22.5125
30.3125,22.5125
30.3316,22.5163
30.3479,22.5271
30.3587,22.5434
30.3625,22.5625
30.3625,23.0125
30.3587,23.0316
30.3479,23.0479
30.3316,23.0587
30.3125,23.0625
Z" /> 
<path style="fill:#000000; fill-opacity:1.0000; stroke:none;fill-rule:evenodd;"
d="M 30.6125,23.0625
30.5934,23.0587
30.5771,23.0479
30.5663,23.0316
30.5625,23.0125
30.5625,22.5625
30.5663,22.5434
30.5771,22.5271
30.5934,22.5163
30.6125,22.5125
30.7125,22.5125
30.7316,22.5163
30.7479,22.5271
30.7587,22.5434
30.7625,22.5625
30.7625,23.0125
30.7587,23.0316
30.7479,23.0479
30.7316,23.0587
30.7125,23.0625
Z" /> 
<path style="fill:#000000; fill-opacity:1.0000; stroke:none;fill-rule:evenodd;"
d="M 31.0125,23.0625
30.9934,23.0587
30.9771,23.0479
30.9663,23.0316
30.9625,23.0125
30.9625,22.5625
30.9663,22.5434
30.9771,22.5271
30.9934,22.5163
31.0125,22.5125
31.1125,22.5125
31.1316,22.5163
31.1479,22.5271
31.1587,22.5434
31.1625,22.5625
31.1625,23.0125
31.1587,23.0316
31.1479,23.0479
31.1316,23.0587
31.1125,23.0625
Z" /> 
<path style="fill:#000000; fill-opacity:1.0000; stroke:none;fill-rule:evenodd;"
d="M 31.4125,23.0625
31.3934,23.0587
31.3771,23.0479
31.3663,23.0316
31.3625,23.0125
31.3625,22.5625
31.3663,22.5434
31.3771,22.5271
31.3934,22.5163
31.4125,22.5125
31.5125,22.5125
31.5316,22.5163
31.5479,22.5271
31.5587,22.5434
31.5625,22.5625
31.5625,23.0125
31.5587,23.0316
31.5479,23.0479
31.5316,23.0587
31.5125,23.0625
Z" /> 
<path style="fill:#000000; fill-opacity:1.0000; stroke:none;fill-rule:evenodd;"
d="M 31.8125,23.0625
31.7934,23.0587
31.7771,23.0479
31.7663,23.0316
31.7625,23.0125
31.7625,22.5625
31.7663,22.5434
31.7771,22.5271
31.7934,22.5163
31.8125,22.5125
31.9125,22.5125
31.9316,22.5163
31.9479,22.5271
31.9587,22.5434
31.9625,22.5625
31.9625,23.0125
31.9587,23.0316
31.9479,23.0479
31.9316,23.0587
31.9125,23.0625
Z" /> 
<path style="fill:#000000; fill-opacity:1.0000; stroke:none;fill-rule:evenodd;"
d="M 32.2125,23.0625
32.1934,23.0587
32.1771,23.0479
32.1663,23.0316
32.1625,23.0125
32.1625,22.5625
32.1663,22.5434
32.1771,22.5271
32.1934,22.5163
32.2125,22.5125
32.3125,22.5125
32.3316,22.5163
32.3479,22.5271
32.3587,22.5434
32.3625,22.5625
32.3625,23.0125
32.3587,23.0316
32.3479,23.0479
32.3316,23.0587
32.3125,23.0625
Z" /> 
<path style="fill:#000000; fill-opacity:1.0000; stroke:none;fill-rule:evenodd;"
d="M 32.4875,22.2375
32.4913,22.2184
32.5021,22.2021
32.5184,22.1913
32.5375,22.1875
32.9875,22.1875
33.0066,22.1913
33.0229,22.2021
33.0337,22.2184
33.0375,22.2375
33.0375,22.3375
33.0337,22.3566
33.0229,22.3729
33.0066,22.3837
32.9875,22.3875
32.5375,22.3875
32.5184,22.3837
32.5021,22.3729
32.4913,22.3566
32.4875,22.3375
Z" /> 
<path style="fill:#000000; fill-opacity:1.0000; stroke:none;fill-rule:evenodd;"
d="M 32.4875,21.8375
32.4913,21.8184
32.5021,21.8021
32.5184,21.7913
32.5375,21.7875
32.9875,21.7875
33.0066,21.7913
33.0229,21.8021
33.0337,21.8184
33.0375,21.8375
33.0375,21.9375
33.0337,21.9566
33.0229,21.9729
33.0066,21.9837
32.9875,21.9875
32.5375,21.9875
32.5184,21.9837
32.5021,21.9729
32.4913,21.9566
32.4875,21.9375
Z" /> 
<path style="fill:#000000; fill-opacity:1.0000; stroke:none;fill-rule:evenodd;"
d="M 32.4875,21.4375
32.4913,21.4184
32.5021,21.4021
32.5184,21.3913
32.5375,21.3875
32.9875,21.3875
33.0066,21.3913
33.0229,21.4021
33.0337,21.4184
33.0375,21.4375
33.0375,21.5375
33.0337,21.5566
33.0229,21.5729
33.0066,21.5837
32.9875,21.5875
32.5375,21.5875
32.5184,21.5837
32.5021,21.5729
32.4913,21.5566
32.4875,21.5375
Z" /> 
<path style="fill:#000000; fill-opacity:1.0000; stroke:none;fill-rule:evenodd;"
d="M 32.4875,21.0375
32.4913,21.0184
32.5021,21.0021
32.5184,20.9913
32.5375,20.9875
32.9875,20.9875
33.0066,20.9913
33.0229,21.0021
33.0337,21.0184
33.0375,21.0375
33.0375,21.1375
33.0337,21.1566
33.0229,21.1729
33.0066,21.1837
32.9875,21.1875
32.5375,21.1875
32.5184,21.1837
32.5021,21.1729
32.4913,21.1566
32.4875,21.1375
Z" /> 
<path style="fill:#000000; fill-opacity:1.0000; stroke:none;fill-rule:evenodd;"
d="M 32.4875,20.6375
32.4913,20.6184
32.5021,20.6021
32.5184,20.5913
32.5375,20.5875
32.9875,20.5875
33.0066,20.5913
33.0229,20.6021
33.0337,20.6184
33.0375,20.6375
33.0375,20.7375
33.0337,20.7566
33.0229,20.7729
33.0066,20.7837
32.9875,20.7875
32.5375,20.7875
32.5184,20.7837
32.5021,20.7729
32.4913,20.7566
32.4875,20.7375
Z" /> 
<path style="fill:#000000; fill-opacity:1.0000; stroke:none;fill-rule:evenodd;"
d="M 32.4875,20.2375
32.4913,20.2184
32.5021,20.2021
32.5184,20.1913
32.5375,20.1875
32.9875,20.1875
33.0066,20.1913
33.0229,20.2021
33.0337,20.2184
33.0375,20.2375
33.0375,20.3375
33.0337,20.3566
33.0229,20.3729
33.0066,20.3837
32.9875,20.3875
32.5375,20.3875
32.5184,20.3837
32.5021,20.3729
32.4913,20.3566
32.4875,20.3375
Z" /> 
<path style="fill:#000000; fill-opacity:1.0000; stroke:none;fill-rule:evenodd;"
d="M 32.2125,20.0625
32.1934,20.0587
32.1771,20.0479
32.1663,20.0316
32.1625,20.0125
32.1625,19.5625
32.1663,19.5434
32.1771,19.5271
32.1934,19.5163
32.2125,19.5125
32.3125,19.5125
32.3316,19.5163
32.3479,19.5271
32.3587,19.5434
32.3625,19.5625
32.3625,20.0125
32.3587,20.0316
32.3479,20.0479
32.3316,20.0587
32.3125,20.0625
Z" /> 
<path style="fill:#000000; fill-opacity:1.0000; stroke:none;fill-rule:evenodd;"
d="M 31.8125,20.0625
31.7934,20.0587
31.7771,20.0479
31.7663,20.0316
31.7625,20.0125
31.7625,19.5625
31.7663,19.5434
31.7771,19.5271
31.7934,19.5163
31.8125,19.5125
31.9125,19.5125
31.9316,19.5163
31.9479,19.5271
31.9587,19.5434
31.9625,19.5625
31.9625,20.0125
31.9587,20.0316
31.9479,20.0479
31.9316,20.0587
31.9125,20.0625
Z" /> 
<path style="fill:#000000; fill-opacity:1.0000; stroke:none;fill-rule:evenodd;"
d="M 31.4125,20.0625
31.3934,20.0587
31.3771,20.0479
31.3663,20.0316
31.3625,20.0125
31.3625,19.5625
31.3663,19.5434
31.3771,19.5271
31.3934,19.5163
31.4125,19.5125
31.5125,19.5125
31.5316,19.5163
31.5479,19.5271
31.5587,19.5434
31.5625,19.5625
31.5625,20.0125
31.5587,20.0316
31.5479,20.0479
31.5316,20.0587
31.5125,20.0625
Z" /> 
<path style="fill:#000000; fill-opacity:1.0000; stroke:none;fill-rule:evenodd;"
d="M 31.0125,20.0625
30.9934,20.0587
30.9771,20.0479
30.9663,20.0316
30.9625,20.0125
30.9625,19.5625
30.9663,19.5434
30.9771,19.5271
30.9934,19.5163
31.0125,19.5125
31.1125,19.5125
31.1316,19.5163
31.1479,19.5271
31.1587,19.5434
31.1625,19.5625
31.1625,20.0125
31.1587,20.0316
31.1479,20.0479
31.1316,20.0587
31.1125,20.0625
Z" /> 
<path style="fill:#000000; fill-opacity:1.0000; stroke:none;fill-rule:evenodd;"
d="M 30.6125,20.0625
30.5934,20.0587
30.5771,20.0479
30.5663,20.0316
30.5625,20.0125
30.5625,19.5625
30.5663,19.5434
30.5771,19.5271
30.5934,19.5163
30.6125,19.5125
30.7125,19.5125
30.7316,19.5163
30.7479,19.5271
30.7587,19.5434
30.7625,19.5625
30.7625,20.0125
30.7587,20.0316
30.7479,20.0479
30.7316,20.0587
30.7125,20.0625
Z" /> 
<path style="fill:#000000; fill-opacity:1.0000; stroke:none;fill-rule:evenodd;"
d="M 30.2125,20.0625
30.1934,20.0587
30.1771,20.0479
30.1663,20.0316
30.1625,20.0125
30.1625,19.5625
30.1663,19.5434
30.1771,19.5271
30.1934,19.5163
30.2125,19.5125
30.3125,19.5125
30.3316,19.5163
30.3479,19.5271
30.3587,19.5434
30.3625,19.5625
30.3625,20.0125
30.3587,20.0316
30.3479,20.0479
30.3316,20.0587
30.3125,20.0625
Z" /> 
<path style="fill:#000000; fill-opacity:1.0000; stroke:none;fill-rule:evenodd;"
d="M 28.0875,40.8438
28.0708,40.9275
28.0234,40.9984
27.9525,41.0458
27.8687,41.0625
27.4312,41.0625
27.3475,41.0458
27.2766,40.9984
27.2292,40.9275
27.2125,40.8438
27.2125,40.3312
27.2292,40.2475
27.2766,40.1766
27.3475,40.1292
27.4312,40.1125
27.8687,40.1125
27.9525,40.1292
28.0234,40.1766
28.0708,40.2475
28.0875,40.3312
Z" /> 
<path style="fill:#000000; fill-opacity:1.0000; stroke:none;fill-rule:evenodd;"
d="M 26.5125,40.8438
26.4958,40.9275
26.4484,40.9984
26.3775,41.0458
26.2937,41.0625
25.8562,41.0625
25.7725,41.0458
25.7016,40.9984
25.6542,40.9275
25.6375,40.8438
25.6375,40.3312
25.6542,40.2475
25.7016,40.1766
25.7725,40.1292
25.8562,40.1125
26.2937,40.1125
26.3775,40.1292
26.4484,40.1766
26.4958,40.2475
26.5125,40.3312
Z" /> 
<path style="fill:#000000; fill-opacity:1.0000; stroke:none;fill-rule:evenodd;"
d="M 27.8200,41.6325
27.8736,41.6432
27.9190,41.6735
27.9493,41.7189
27.9600,41.7725
27.9600,42.0525
27.9493,42.1061
27.9190,42.1515
27.8736,42.1818
27.8200,42.1925
27.4800,42.1925
27.4264,42.1818
27.3810,42.1515
27.3507,42.1061
27.3400,42.0525
27.3400,41.7725
27.3507,41.7189
27.3810,41.6735
27.4264,41.6432
27.4800,41.6325
Z" /> 
<path style="fill:#000000; fill-opacity:1.0000; stroke:none;fill-rule:evenodd;"
d="M 27.8200,42.5925
27.8736,42.6032
27.9190,42.6335
27.9493,42.6789
27.9600,42.7325
27.9600,43.0125
27.9493,43.0661
27.9190,43.1115
27.8736,43.1418
27.8200,43.1525
27.4800,43.1525
27.4264,43.1418
27.3810,43.1115
27.3507,43.0661
27.3400,43.0125
27.3400,42.7325
27.3507,42.6789
27.3810,42.6335
27.4264,42.6032
27.4800,42.5925
Z" /> 
<path style="fill:#000000; fill-opacity:1.0000; stroke:none;fill-rule:evenodd;"
d="M 43.5125,32.9125
43.4264,32.8954
43.3534,32.8466
43.3046,32.7736
43.2875,32.6875
43.2875,32.2375
43.3046,32.1514
43.3534,32.0784
43.4264,32.0296
43.5125,32.0125
44.0125,32.0125
44.0986,32.0296
44.1716,32.0784
44.2204,32.1514
44.2375,32.2375
44.2375,32.6875
44.2204,32.7736
44.1716,32.8466
44.0986,32.8954
44.0125,32.9125
Z" /> 
<path style="fill:#000000; fill-opacity:1.0000; stroke:none;fill-rule:evenodd;"
d="M 43.5125,31.3625
43.4264,31.3454
43.3534,31.2966
43.3046,31.2236
43.2875,31.1375
43.2875,30.6875
43.3046,30.6014
43.3534,30.5284
43.4264,30.4796
43.5125,30.4625
44.0125,30.4625
44.0986,30.4796
44.1716,30.5284
44.2204,30.6014
44.2375,30.6875
44.2375,31.1375
44.2204,31.2236
44.1716,31.2966
44.0986,31.3454
44.0125,31.3625
Z" /> 
<path style="fill:#000000; fill-opacity:1.0000; stroke:none;fill-rule:evenodd;"
d="M 26.9825,28.2775
27.0361,28.2882
27.0815,28.3185
27.1118,28.3639
27.1225,28.4175
27.1225,28.6975
27.1118,28.7511
27.0815,28.7965
27.0361,28.8268
26.9825,28.8375
26.6425,28.8375
26.5889,28.8268
26.5435,28.7965
26.5132,28.7511
26.5025,28.6975
26.5025,28.4175
26.5132,28.3639
26.5435,28.3185
26.5889,28.2882
26.6425,28.2775
Z" /> 
<path style="fill:#000000; fill-opacity:1.0000; stroke:none;fill-rule:evenodd;"
d="M 26.9825,29.2375
27.0361,29.2482
27.0815,29.2785
27.1118,29.3239
27.1225,29.3775
27.1225,29.6575
27.1118,29.7111
27.0815,29.7565
27.0361,29.7868
26.9825,29.7975
26.6425,29.7975
26.5889,29.7868
26.5435,29.7565
26.5132,29.7111
26.5025,29.6575
26.5025,29.3775
26.5132,29.3239
26.5435,29.2785
26.5889,29.2482
26.6425,29.2375
Z" /> 
<path style="fill:#000000; fill-opacity:1.0000; stroke:none;fill-rule:evenodd;"
d="M 40.5925,22.7325
40.5818,22.7861
40.5515,22.8315
40.5061,22.8618
40.4525,22.8725
40.1725,22.8725
40.1189,22.8618
40.0735,22.8315
40.0432,22.7861
40.0325,22.7325
40.0325,22.3925
40.0432,22.3389
40.0735,22.2935
40.1189,22.2632
40.1725,22.2525
40.4525,22.2525
40.5061,22.2632
40.5515,22.2935
40.5818,22.3389
40.5925,22.3925
Z" /> 
<path style="fill:#000000; fill-opacity:1.0000; stroke:none;fill-rule:evenodd;"
d="M 39.6325,22.7325
39.6218,22.7861
39.5915,22.8315
39.5461,22.8618
39.4925,22.8725
39.2125,22.8725
39.1589,22.8618
39.1135,22.8315
39.0832,22.7861
39.0725,22.7325
39.0725,22.3925
39.0832,22.3389
39.1135,22.2935
39.1589,22.2632
39.2125,22.2525
39.4925,22.2525
39.5461,22.2632
39.5915,22.2935
39.6218,22.3389
39.6325,22.3925
Z" /> 
<path style="fill:#000000; fill-opacity:1.0000; stroke:none;fill-rule:evenodd;"
d="M 39.7725,27.3275
39.7828,27.2758
39.8120,27.2320
39.8558,27.2028
39.9075,27.1925
40.1775,27.1925
40.2292,27.2028
40.2730,27.2320
40.3022,27.2758
40.3125,27.3275
40.3125,27.6975
40.3022,27.7492
40.2730,27.7930
40.2292,27.8222
40.1775,27.8325
39.9075,27.8325
39.8558,27.8222
39.8120,27.7930
39.7828,27.7492
39.7725,27.6975
Z" /> 
<path style="fill:#000000; fill-opacity:1.0000; stroke:none;fill-rule:evenodd;"
d="M 40.7925,27.3275
40.8028,27.2758
40.8320,27.2320
40.8758,27.2028
40.9275,27.1925
41.1975,27.1925
41.2492,27.2028
41.2930,27.2320
41.3222,27.2758
41.3325,27.3275
41.3325,27.6975
41.3222,27.7492
41.2930,27.7930
41.2492,27.8222
41.1975,27.8325
40.9275,27.8325
40.8758,27.8222
40.8320,27.7930
40.8028,27.7492
40.7925,27.6975
Z" /> 
<path style="fill:#000000; fill-opacity:1.0000; stroke:none;fill-rule:evenodd;"
d="M 27.6125,52.9625
27.6239,52.9051
27.6564,52.8564
27.7051,52.8239
27.7625,52.8125
28.0625,52.8125
28.1199,52.8239
28.1686,52.8564
28.2011,52.9051
28.2125,52.9625
28.2125,54.2125
28.2011,54.2699
28.1686,54.3186
28.1199,54.3511
28.0625,54.3625
27.7625,54.3625
27.7051,54.3511
27.6564,54.3186
27.6239,54.2699
27.6125,54.2125
Z" /> 
<path style="fill:#000000; fill-opacity:1.0000; stroke:none;fill-rule:evenodd;"
d="M 28.6125,52.9625
28.6239,52.9051
28.6564,52.8564
28.7051,52.8239
28.7625,52.8125
29.0625,52.8125
29.1199,52.8239
29.1686,52.8564
29.2011,52.9051
29.2125,52.9625
29.2125,54.2125
29.2011,54.2699
29.1686,54.3186
29.1199,54.3511
29.0625,54.3625
28.7625,54.3625
28.7051,54.3511
28.6564,54.3186
28.6239,54.2699
28.6125,54.2125
Z" /> 
<path style="fill:#000000; fill-opacity:1.0000; stroke:none;fill-rule:evenodd;"
d="M 29.6125,52.9625
29.6239,52.9051
29.6564,52.8564
29.7051,52.8239
29.7625,52.8125
30.0625,52.8125
30.1199,52.8239
30.1686,52.8564
30.2011,52.9051
30.2125,52.9625
30.2125,54.2125
30.2011,54.2699
30.1686,54.3186
30.1199,54.3511
30.0625,54.3625
29.7625,54.3625
29.7051,54.3511
29.6564,54.3186
29.6239,54.2699
29.6125,54.2125
Z" /> 
<path style="fill:#000000; fill-opacity:1.0000; stroke:none;fill-rule:evenodd;"
d="M 30.6125,52.9625
30.6239,52.9051
30.6564,52.8564
30.7051,52.8239
30.7625,52.8125
31.0625,52.8125
31.1199,52.8239
31.1686,52.8564
31.2011,52.9051
31.2125,52.9625
31.2125,54.2125
31.2011,54.2699
31.1686,54.3186
31.1199,54.3511
31.0625,54.3625
30.7625,54.3625
30.7051,54.3511
30.6564,54.3186
30.6239,54.2699
30.6125,54.2125
Z" /> 
<path style="fill:#000000; fill-opacity:1.0000; stroke:none;fill-rule:evenodd;"
d="M 26.0125,56.8125
26.0315,56.7168
26.0857,56.6357
26.1668,56.5815
26.2625,56.5625
26.9625,56.5625
27.0582,56.5815
27.1393,56.6357
27.1935,56.7168
27.2125,56.8125
27.2125,58.1125
27.1935,58.2082
27.1393,58.2893
27.0582,58.3435
26.9625,58.3625
26.2625,58.3625
26.1668,58.3435
26.0857,58.2893
26.0315,58.2082
26.0125,58.1125
Z" /> 
<path style="fill:#000000; fill-opacity:1.0000; stroke:none;fill-rule:evenodd;"
d="M 31.6125,56.8125
31.6315,56.7168
31.6857,56.6357
31.7668,56.5815
31.8625,56.5625
32.5625,56.5625
32.6582,56.5815
32.7393,56.6357
32.7935,56.7168
32.8125,56.8125
32.8125,58.1125
32.7935,58.2082
32.7393,58.2893
32.6582,58.3435
32.5625,58.3625
31.8625,58.3625
31.7668,58.3435
31.6857,58.2893
31.6315,58.2082
31.6125,58.1125
Z" /> 
<path style="fill:#000000; fill-opacity:1.0000; stroke:none;fill-rule:evenodd;"
d="M 33.8925,21.1275
33.8389,21.1168
33.7935,21.0865
33.7632,21.0411
33.7525,20.9875
33.7525,20.7075
33.7632,20.6539
33.7935,20.6085
33.8389,20.5782
33.8925,20.5675
34.2325,20.5675
34.2861,20.5782
34.3315,20.6085
34.3618,20.6539
34.3725,20.7075
34.3725,20.9875
34.3618,21.0411
34.3315,21.0865
34.2861,21.1168
34.2325,21.1275
Z" /> 
<path style="fill:#000000; fill-opacity:1.0000; stroke:none;fill-rule:evenodd;"
d="M 33.8925,20.1675
33.8389,20.1568
33.7935,20.1265
33.7632,20.0811
33.7525,20.0275
33.7525,19.7475
33.7632,19.6939
33.7935,19.6485
33.8389,19.6182
33.8925,19.6075
34.2325,19.6075
34.2861,19.6182
34.3315,19.6485
34.3618,19.6939
34.3725,19.7475
34.3725,20.0275
34.3618,20.0811
34.3315,20.1265
34.2861,20.1568
34.2325,20.1675
Z" /> 
<path style="fill:#000000; fill-opacity:1.0000; stroke:none;fill-rule:evenodd;"
d="M 40.1875,24.1625
40.1875,23.8875
40.4375,23.8875
40.4375,24.1625
Z" /> 
<path style="fill:#000000; fill-opacity:1.0000; stroke:none;fill-rule:evenodd;"
d="M 39.6875,24.1625
39.6875,23.8875
39.9375,23.8875
39.9375,24.1625
Z" /> 
<path style="fill:#000000; fill-opacity:1.0000; stroke:none;fill-rule:evenodd;"
d="M 39.1625,24.4125
39.1625,24.1625
39.4375,24.1625
39.4375,24.4125
Z" /> 
<path style="fill:#000000; fill-opacity:1.0000; stroke:none;fill-rule:evenodd;"
d="M 39.1625,24.9125
39.1625,24.6625
39.4375,24.6625
39.4375,24.9125
Z" /> 
<path style="fill:#000000; fill-opacity:1.0000; stroke:none;fill-rule:evenodd;"
d="M 39.1625,25.4125
39.1625,25.1625
39.4375,25.1625
39.4375,25.4125
Z" /> 
<path style="fill:#000000; fill-opacity:1.0000; stroke:none;fill-rule:evenodd;"
d="M 39.6875,25.6875
39.6875,25.4125
39.9375,25.4125
39.9375,25.6875
Z" /> 
<path style="fill:#000000; fill-opacity:1.0000; stroke:none;fill-rule:evenodd;"
d="M 40.1875,25.6875
40.1875,25.4125
40.4375,25.4125
40.4375,25.6875
Z" /> 
<path style="fill:#000000; fill-opacity:1.0000; stroke:none;fill-rule:evenodd;"
d="M 40.6875,25.4125
40.6875,25.1625
40.9625,25.1625
40.9625,25.4125
Z" /> 
<path style="fill:#000000; fill-opacity:1.0000; stroke:none;fill-rule:evenodd;"
d="M 40.6875,24.9125
40.6875,24.6625
40.9625,24.6625
40.9625,24.9125
Z" /> 
<path style="fill:#000000; fill-opacity:1.0000; stroke:none;fill-rule:evenodd;"
d="M 40.6875,24.4125
40.6875,24.1625
40.9625,24.1625
40.9625,24.4125
Z" /> 
<path style="fill:#000000; fill-opacity:1.0000; stroke:none;fill-rule:evenodd;"
d="M 28.9425,18.6725
28.9322,18.7242
28.9030,18.7680
28.8592,18.7972
28.8075,18.8075
28.5375,18.8075
28.4858,18.7972
28.4420,18.7680
28.4128,18.7242
28.4025,18.6725
28.4025,18.3025
28.4128,18.2508
28.4420,18.2070
28.4858,18.1778
28.5375,18.1675
28.8075,18.1675
28.8592,18.1778
28.9030,18.2070
28.9322,18.2508
28.9425,18.3025
Z" /> 
<path style="fill:#000000; fill-opacity:1.0000; stroke:none;fill-rule:evenodd;"
d="M 27.9225,18.6725
27.9122,18.7242
27.8830,18.7680
27.8392,18.7972
27.7875,18.8075
27.5175,18.8075
27.4658,18.7972
27.4220,18.7680
27.3928,18.7242
27.3825,18.6725
27.3825,18.3025
27.3928,18.2508
27.4220,18.2070
27.4658,18.1778
27.5175,18.1675
27.7875,18.1675
27.8392,18.1778
27.8830,18.2070
27.9122,18.2508
27.9225,18.3025
Z" /> 
<path style="fill:#000000; fill-opacity:1.0000; stroke:none;fill-rule:evenodd;"
d="M 29.5625,33.6375
29.5682,33.6088
29.5845,33.5845
29.6088,33.5682
29.6375,33.5625
31.0375,33.5625
31.0662,33.5682
31.0905,33.5845
31.1068,33.6088
31.1125,33.6375
31.1125,33.7875
31.1068,33.8162
31.0905,33.8405
31.0662,33.8568
31.0375,33.8625
29.6375,33.8625
29.6088,33.8568
29.5845,33.8405
29.5682,33.8162
29.5625,33.7875
Z" /> 
<path style="fill:#000000; fill-opacity:1.0000; stroke:none;fill-rule:evenodd;"
d="M 29.5625,34.1375
29.5682,34.1088
29.5845,34.0845
29.6088,34.0682
29.6375,34.0625
31.0375,34.0625
31.0662,34.0682
31.0905,34.0845
31.1068,34.1088
31.1125,34.1375
31.1125,34.2875
31.1068,34.3162
31.0905,34.3405
31.0662,34.3568
31.0375,34.3625
29.6375,34.3625
29.6088,34.3568
29.5845,34.3405
29.5682,34.3162
29.5625,34.2875
Z" /> 
<path style="fill:#000000; fill-opacity:1.0000; stroke:none;fill-rule:evenodd;"
d="M 29.5625,34.6375
29.5682,34.6088
29.5845,34.5845
29.6088,34.5682
29.6375,34.5625
31.0375,34.5625
31.0662,34.5682
31.0905,34.5845
31.1068,34.6088
31.1125,34.6375
31.1125,34.7875
31.1068,34.8162
31.0905,34.8405
31.0662,34.8568
31.0375,34.8625
29.6375,34.8625
29.6088,34.8568
29.5845,34.8405
29.5682,34.8162
29.5625,34.7875
Z" /> 
<path style="fill:#000000; fill-opacity:1.0000; stroke:none;fill-rule:evenodd;"
d="M 29.5625,35.1375
29.5682,35.1088
29.5845,35.0845
29.6088,35.0682
29.6375,35.0625
31.0375,35.0625
31.0662,35.0682
31.0905,35.0845
31.1068,35.1088
31.1125,35.1375
31.1125,35.2875
31.1068,35.3162
31.0905,35.3405
31.0662,35.3568
31.0375,35.3625
29.6375,35.3625
29.6088,35.3568
29.5845,35.3405
29.5682,35.3162
29.5625,35.2875
Z" /> 
<path style="fill:#000000; fill-opacity:1.0000; stroke:none;fill-rule:evenodd;"
d="M 29.5625,35.6375
29.5682,35.6088
29.5845,35.5845
29.6088,35.5682
29.6375,35.5625
31.0375,35.5625
31.0662,35.5682
31.0905,35.5845
31.1068,35.6088
31.1125,35.6375
31.1125,35.7875
31.1068,35.8162
31.0905,35.8405
31.0662,35.8568
31.0375,35.8625
29.6375,35.8625
29.6088,35.8568
29.5845,35.8405
29.5682,35.8162
29.5625,35.7875
Z" /> 
<path style="fill:#000000; fill-opacity:1.0000; stroke:none;fill-rule:evenodd;"
d="M 29.5625,36.1375
29.5682,36.1088
29.5845,36.0845
29.6088,36.0682
29.6375,36.0625
31.0375,36.0625
31.0662,36.0682
31.0905,36.0845
31.1068,36.1088
31.1125,36.1375
31.1125,36.2875
31.1068,36.3162
31.0905,36.3405
31.0662,36.3568
31.0375,36.3625
29.6375,36.3625
29.6088,36.3568
29.5845,36.3405
29.5682,36.3162
29.5625,36.2875
Z" /> 
<path style="fill:#000000; fill-opacity:1.0000; stroke:none;fill-rule:evenodd;"
d="M 29.5625,36.6375
29.5682,36.6088
29.5845,36.5845
29.6088,36.5682
29.6375,36.5625
31.0375,36.5625
31.0662,36.5682
31.0905,36.5845
31.1068,36.6088
31.1125,36.6375
31.1125,36.7875
31.1068,36.8162
31.0905,36.8405
31.0662,36.8568
31.0375,36.8625
29.6375,36.8625
29.6088,36.8568
29.5845,36.8405
29.5682,36.8162
29.5625,36.7875
Z" /> 
<path style="fill:#000000; fill-opacity:1.0000; stroke:none;fill-rule:evenodd;"
d="M 29.5625,37.1375
29.5682,37.1088
29.5845,37.0845
29.6088,37.0682
29.6375,37.0625
31.0375,37.0625
31.0662,37.0682
31.0905,37.0845
31.1068,37.1088
31.1125,37.1375
31.1125,37.2875
31.1068,37.3162
31.0905,37.3405
31.0662,37.3568
31.0375,37.3625
29.6375,37.3625
29.6088,37.3568
29.5845,37.3405
29.5682,37.3162
29.5625,37.2875
Z" /> 
<path style="fill:#000000; fill-opacity:1.0000; stroke:none;fill-rule:evenodd;"
d="M 29.5625,37.6375
29.5682,37.6088
29.5845,37.5845
29.6088,37.5682
29.6375,37.5625
31.0375,37.5625
31.0662,37.5682
31.0905,37.5845
31.1068,37.6088
31.1125,37.6375
31.1125,37.7875
31.1068,37.8162
31.0905,37.8405
31.0662,37.8568
31.0375,37.8625
29.6375,37.8625
29.6088,37.8568
29.5845,37.8405
29.5682,37.8162
29.5625,37.7875
Z" /> 
<path style="fill:#000000; fill-opacity:1.0000; stroke:none;fill-rule:evenodd;"
d="M 29.5625,38.1375
29.5682,38.1088
29.5845,38.0845
29.6088,38.0682
29.6375,38.0625
31.0375,38.0625
31.0662,38.0682
31.0905,38.0845
31.1068,38.1088
31.1125,38.1375
31.1125,38.2875
31.1068,38.3162
31.0905,38.3405
31.0662,38.3568
31.0375,38.3625
29.6375,38.3625
29.6088,38.3568
29.5845,38.3405
29.5682,38.3162
29.5625,38.2875
Z" /> 
<path style="fill:#000000; fill-opacity:1.0000; stroke:none;fill-rule:evenodd;"
d="M 29.5625,38.6375
29.5682,38.6088
29.5845,38.5845
29.6088,38.5682
29.6375,38.5625
31.0375,38.5625
31.0662,38.5682
31.0905,38.5845
31.1068,38.6088
31.1125,38.6375
31.1125,38.7875
31.1068,38.8162
31.0905,38.8405
31.0662,38.8568
31.0375,38.8625
29.6375,38.8625
29.6088,38.8568
29.5845,38.8405
29.5682,38.8162
29.5625,38.7875
Z" /> 
<path style="fill:#000000; fill-opacity:1.0000; stroke:none;fill-rule:evenodd;"
d="M 29.5625,39.1375
29.5682,39.1088
29.5845,39.0845
29.6088,39.0682
29.6375,39.0625
31.0375,39.0625
31.0662,39.0682
31.0905,39.0845
31.1068,39.1088
31.1125,39.1375
31.1125,39.2875
31.1068,39.3162
31.0905,39.3405
31.0662,39.3568
31.0375,39.3625
29.6375,39.3625
29.6088,39.3568
29.5845,39.3405
29.5682,39.3162
29.5625,39.2875
Z" /> 
<path style="fill:#000000; fill-opacity:1.0000; stroke:none;fill-rule:evenodd;"
d="M 29.5625,39.6375
29.5682,39.6088
29.5845,39.5845
29.6088,39.5682
29.6375,39.5625
31.0375,39.5625
31.0662,39.5682
31.0905,39.5845
31.1068,39.6088
31.1125,39.6375
31.1125,39.7875
31.1068,39.8162
31.0905,39.8405
31.0662,39.8568
31.0375,39.8625
29.6375,39.8625
29.6088,39.8568
29.5845,39.8405
29.5682,39.8162
29.5625,39.7875
Z" /> 
<path style="fill:#000000; fill-opacity:1.0000; stroke:none;fill-rule:evenodd;"
d="M 29.5625,40.1375
29.5682,40.1088
29.5845,40.0845
29.6088,40.0682
29.6375,40.0625
31.0375,40.0625
31.0662,40.0682
31.0905,40.0845
31.1068,40.1088
31.1125,40.1375
31.1125,40.2875
31.1068,40.3162
31.0905,40.3405
31.0662,40.3568
31.0375,40.3625
29.6375,40.3625
29.6088,40.3568
29.5845,40.3405
29.5682,40.3162
29.5625,40.2875
Z" /> 
<path style="fill:#000000; fill-opacity:1.0000; stroke:none;fill-rule:evenodd;"
d="M 29.5625,40.6375
29.5682,40.6088
29.5845,40.5845
29.6088,40.5682
29.6375,40.5625
31.0375,40.5625
31.0662,40.5682
31.0905,40.5845
31.1068,40.6088
31.1125,40.6375
31.1125,40.7875
31.1068,40.8162
31.0905,40.8405
31.0662,40.8568
31.0375,40.8625
29.6375,40.8625
29.6088,40.8568
29.5845,40.8405
29.5682,40.8162
29.5625,40.7875
Z" /> 
<path style="fill:#000000; fill-opacity:1.0000; stroke:none;fill-rule:evenodd;"
d="M 29.5625,41.1375
29.5682,41.1088
29.5845,41.0845
29.6088,41.0682
29.6375,41.0625
31.0375,41.0625
31.0662,41.0682
31.0905,41.0845
31.1068,41.1088
31.1125,41.1375
31.1125,41.2875
31.1068,41.3162
31.0905,41.3405
31.0662,41.3568
31.0375,41.3625
29.6375,41.3625
29.6088,41.3568
29.5845,41.3405
29.5682,41.3162
29.5625,41.2875
Z" /> 
<path style="fill:#000000; fill-opacity:1.0000; stroke:none;fill-rule:evenodd;"
d="M 32.1125,42.4375
32.1182,42.4088
32.1345,42.3845
32.1588,42.3682
32.1875,42.3625
32.3375,42.3625
32.3662,42.3682
32.3905,42.3845
32.4068,42.4088
32.4125,42.4375
32.4125,43.8375
32.4068,43.8662
32.3905,43.8905
32.3662,43.9068
32.3375,43.9125
32.1875,43.9125
32.1588,43.9068
32.1345,43.8905
32.1182,43.8662
32.1125,43.8375
Z" /> 
<path style="fill:#000000; fill-opacity:1.0000; stroke:none;fill-rule:evenodd;"
d="M 32.6125,42.4375
32.6182,42.4088
32.6345,42.3845
32.6588,42.3682
32.6875,42.3625
32.8375,42.3625
32.8662,42.3682
32.8905,42.3845
32.9068,42.4088
32.9125,42.4375
32.9125,43.8375
32.9068,43.8662
32.8905,43.8905
32.8662,43.9068
32.8375,43.9125
32.6875,43.9125
32.6588,43.9068
32.6345,43.8905
32.6182,43.8662
32.6125,43.8375
Z" /> 
<path style="fill:#000000; fill-opacity:1.0000; stroke:none;fill-rule:evenodd;"
d="M 33.1125,42.4375
33.1182,42.4088
33.1345,42.3845
33.1588,42.3682
33.1875,42.3625
33.3375,42.3625
33.3662,42.3682
33.3905,42.3845
33.4068,42.4088
33.4125,42.4375
33.4125,43.8375
33.4068,43.8662
33.3905,43.8905
33.3662,43.9068
33.3375,43.9125
33.1875,43.9125
33.1588,43.9068
33.1345,43.8905
33.1182,43.8662
33.1125,43.8375
Z" /> 
<path style="fill:#000000; fill-opacity:1.0000; stroke:none;fill-rule:evenodd;"
d="M 33.6125,42.4375
33.6182,42.4088
33.6345,42.3845
33.6588,42.3682
33.6875,42.3625
33.8375,42.3625
33.8662,42.3682
33.8905,42.3845
33.9068,42.4088
33.9125,42.4375
33.9125,43.8375
33.9068,43.8662
33.8905,43.8905
33.8662,43.9068
33.8375,43.9125
33.6875,43.9125
33.6588,43.9068
33.6345,43.8905
33.6182,43.8662
33.6125,43.8375
Z" /> 
<path style="fill:#000000; fill-opacity:1.0000; stroke:none;fill-rule:evenodd;"
d="M 34.1125,42.4375
34.1182,42.4088
34.1345,42.3845
34.1588,42.3682
34.1875,42.3625
34.3375,42.3625
34.3662,42.3682
34.3905,42.3845
34.4068,42.4088
34.4125,42.4375
34.4125,43.8375
34.4068,43.8662
34.3905,43.8905
34.3662,43.9068
34.3375,43.9125
34.1875,43.9125
34.1588,43.9068
34.1345,43.8905
34.1182,43.8662
34.1125,43.8375
Z" /> 
<path style="fill:#000000; fill-opacity:1.0000; stroke:none;fill-rule:evenodd;"
d="M 34.6125,42.4375
34.6182,42.4088
34.6345,42.3845
34.6588,42.3682
34.6875,42.3625
34.8375,42.3625
34.8662,42.3682
34.8905,42.3845
34.9068,42.4088
34.9125,42.4375
34.9125,43.8375
34.9068,43.8662
34.8905,43.8905
34.8662,43.9068
34.8375,43.9125
34.6875,43.9125
34.6588,43.9068
34.6345,43.8905
34.6182,43.8662
34.6125,43.8375
Z" /> 
<path style="fill:#000000; fill-opacity:1.0000; stroke:none;fill-rule:evenodd;"
d="M 35.1125,42.4375
35.1182,42.4088
35.1345,42.3845
35.1588,42.3682
35.1875,42.3625
35.3375,42.3625
35.3662,42.3682
35.3905,42.3845
35.4068,42.4088
35.4125,42.4375
35.4125,43.8375
35.4068,43.8662
35.3905,43.8905
35.3662,43.9068
35.3375,43.9125
35.1875,43.9125
35.1588,43.9068
35.1345,43.8905
35.1182,43.8662
35.1125,43.8375
Z" /> 
<path style="fill:#000000; fill-opacity:1.0000; stroke:none;fill-rule:evenodd;"
d="M 35.6125,42.4375
35.6182,42.4088
35.6345,42.3845
35.6588,42.3682
35.6875,42.3625
35.8375,42.3625
35.8662,42.3682
35.8905,42.3845
35.9068,42.4088
35.9125,42.4375
35.9125,43.8375
35.9068,43.8662
35.8905,43.8905
35.8662,43.9068
35.8375,43.9125
35.6875,43.9125
35.6588,43.9068
35.6345,43.8905
35.6182,43.8662
35.6125,43.8375
Z" /> 
<path style="fill:#000000; fill-opacity:1.0000; stroke:none;fill-rule:evenodd;"
d="M 36.1125,42.4375
36.1182,42.4088
36.1345,42.3845
36.1588,42.3682
36.1875,42.3625
36.3375,42.3625
36.3662,42.3682
36.3905,42.3845
36.4068,42.4088
36.4125,42.4375
36.4125,43.8375
36.4068,43.8662
36.3905,43.8905
36.3662,43.9068
36.3375,43.9125
36.1875,43.9125
36.1588,43.9068
36.1345,43.8905
36.1182,43.8662
36.1125,43.8375
Z" /> 
<path style="fill:#000000; fill-opacity:1.0000; stroke:none;fill-rule:evenodd;"
d="M 36.6125,42.4375
36.6182,42.4088
36.6345,42.3845
36.6588,42.3682
36.6875,42.3625
36.8375,42.3625
36.8662,42.3682
36.8905,42.3845
36.9068,42.4088
36.9125,42.4375
36.9125,43.8375
36.9068,43.8662
36.8905,43.8905
36.8662,43.9068
36.8375,43.9125
36.6875,43.9125
36.6588,43.9068
36.6345,43.8905
36.6182,43.8662
36.6125,43.8375
Z" /> 
<path style="fill:#000000; fill-opacity:1.0000; stroke:none;fill-rule:evenodd;"
d="M 37.1125,42.4375
37.1182,42.4088
37.1345,42.3845
37.1588,42.3682
37.1875,42.3625
37.3375,42.3625
37.3662,42.3682
37.3905,42.3845
37.4068,42.4088
37.4125,42.4375
37.4125,43.8375
37.4068,43.8662
37.3905,43.8905
37.3662,43.9068
37.3375,43.9125
37.1875,43.9125
37.1588,43.9068
37.1345,43.8905
37.1182,43.8662
37.1125,43.8375
Z" /> 
<path style="fill:#000000; fill-opacity:1.0000; stroke:none;fill-rule:evenodd;"
d="M 37.6125,42.4375
37.6182,42.4088
37.6345,42.3845
37.6588,42.3682
37.6875,42.3625
37.8375,42.3625
37.8662,42.3682
37.8905,42.3845
37.9068,42.4088
37.9125,42.4375
37.9125,43.8375
37.9068,43.8662
37.8905,43.8905
37.8662,43.9068
37.8375,43.9125
37.6875,43.9125
37.6588,43.9068
37.6345,43.8905
37.6182,43.8662
37.6125,43.8375
Z" /> 
<path style="fill:#000000; fill-opacity:1.0000; stroke:none;fill-rule:evenodd;"
d="M 38.1125,42.4375
38.1182,42.4088
38.1345,42.3845
38.1588,42.3682
38.1875,42.3625
38.3375,42.3625
38.3662,42.3682
38.3905,42.3845
38.4068,42.4088
38.4125,42.4375
38.4125,43.8375
38.4068,43.8662
38.3905,43.8905
38.3662,43.9068
38.3375,43.9125
38.1875,43.9125
38.1588,43.9068
38.1345,43.8905
38.1182,43.8662
38.1125,43.8375
Z" /> 
<path style="fill:#000000; fill-opacity:1.0000; stroke:none;fill-rule:evenodd;"
d="M 38.6125,42.4375
38.6182,42.4088
38.6345,42.3845
38.6588,42.3682
38.6875,42.3625
38.8375,42.3625
38.8662,42.3682
38.8905,42.3845
38.9068,42.4088
38.9125,42.4375
38.9125,43.8375
38.9068,43.8662
38.8905,43.8905
38.8662,43.9068
38.8375,43.9125
38.6875,43.9125
38.6588,43.9068
38.6345,43.8905
38.6182,43.8662
38.6125,43.8375
Z" /> 
<path style="fill:#000000; fill-opacity:1.0000; stroke:none;fill-rule:evenodd;"
d="M 39.1125,42.4375
39.1182,42.4088
39.1345,42.3845
39.1588,42.3682
39.1875,42.3625
39.3375,42.3625
39.3662,42.3682
39.3905,42.3845
39.4068,42.4088
39.4125,42.4375
39.4125,43.8375
39.4068,43.8662
39.3905,43.8905
39.3662,43.9068
39.3375,43.9125
39.1875,43.9125
39.1588,43.9068
39.1345,43.8905
39.1182,43.8662
39.1125,43.8375
Z" /> 
<path style="fill:#000000; fill-opacity:1.0000; stroke:none;fill-rule:evenodd;"
d="M 39.6125,42.4375
39.6182,42.4088
39.6345,42.3845
39.6588,42.3682
39.6875,42.3625
39.8375,42.3625
39.8662,42.3682
39.8905,42.3845
39.9068,42.4088
39.9125,42.4375
39.9125,43.8375
39.9068,43.8662
39.8905,43.8905
39.8662,43.9068
39.8375,43.9125
39.6875,43.9125
39.6588,43.9068
39.6345,43.8905
39.6182,43.8662
39.6125,43.8375
Z" /> 
<path style="fill:#000000; fill-opacity:1.0000; stroke:none;fill-rule:evenodd;"
d="M 40.9125,41.1375
40.9182,41.1088
40.9345,41.0845
40.9588,41.0682
40.9875,41.0625
42.3875,41.0625
42.4162,41.0682
42.4405,41.0845
42.4568,41.1088
42.4625,41.1375
42.4625,41.2875
42.4568,41.3162
42.4405,41.3405
42.4162,41.3568
42.3875,41.3625
40.9875,41.3625
40.9588,41.3568
40.9345,41.3405
40.9182,41.3162
40.9125,41.2875
Z" /> 
<path style="fill:#000000; fill-opacity:1.0000; stroke:none;fill-rule:evenodd;"
d="M 40.9125,40.6375
40.9182,40.6088
40.9345,40.5845
40.9588,40.5682
40.9875,40.5625
42.3875,40.5625
42.4162,40.5682
42.4405,40.5845
42.4568,40.6088
42.4625,40.6375
42.4625,40.7875
42.4568,40.8162
42.4405,40.8405
42.4162,40.8568
42.3875,40.8625
40.9875,40.8625
40.9588,40.8568
40.9345,40.8405
40.9182,40.8162
40.9125,40.7875
Z" /> 
<path style="fill:#000000; fill-opacity:1.0000; stroke:none;fill-rule:evenodd;"
d="M 40.9125,40.1375
40.9182,40.1088
40.9345,40.0845
40.9588,40.0682
40.9875,40.0625
42.3875,40.0625
42.4162,40.0682
42.4405,40.0845
42.4568,40.1088
42.4625,40.1375
42.4625,40.2875
42.4568,40.3162
42.4405,40.3405
42.4162,40.3568
42.3875,40.3625
40.9875,40.3625
40.9588,40.3568
40.9345,40.3405
40.9182,40.3162
40.9125,40.2875
Z" /> 
<path style="fill:#000000; fill-opacity:1.0000; stroke:none;fill-rule:evenodd;"
d="M 40.9125,39.6375
40.9182,39.6088
40.9345,39.5845
40.9588,39.5682
40.9875,39.5625
42.3875,39.5625
42.4162,39.5682
42.4405,39.5845
42.4568,39.6088
42.4625,39.6375
42.4625,39.7875
42.4568,39.8162
42.4405,39.8405
42.4162,39.8568
42.3875,39.8625
40.9875,39.8625
40.9588,39.8568
40.9345,39.8405
40.9182,39.8162
40.9125,39.7875
Z" /> 
<path style="fill:#000000; fill-opacity:1.0000; stroke:none;fill-rule:evenodd;"
d="M 40.9125,39.1375
40.9182,39.1088
40.9345,39.0845
40.9588,39.0682
40.9875,39.0625
42.3875,39.0625
42.4162,39.0682
42.4405,39.0845
42.4568,39.1088
42.4625,39.1375
42.4625,39.2875
42.4568,39.3162
42.4405,39.3405
42.4162,39.3568
42.3875,39.3625
40.9875,39.3625
40.9588,39.3568
40.9345,39.3405
40.9182,39.3162
40.9125,39.2875
Z" /> 
<path style="fill:#000000; fill-opacity:1.0000; stroke:none;fill-rule:evenodd;"
d="M 40.9125,38.6375
40.9182,38.6088
40.9345,38.5845
40.9588,38.5682
40.9875,38.5625
42.3875,38.5625
42.4162,38.5682
42.4405,38.5845
42.4568,38.6088
42.4625,38.6375
42.4625,38.7875
42.4568,38.8162
42.4405,38.8405
42.4162,38.8568
42.3875,38.8625
40.9875,38.8625
40.9588,38.8568
40.9345,38.8405
40.9182,38.8162
40.9125,38.7875
Z" /> 
<path style="fill:#000000; fill-opacity:1.0000; stroke:none;fill-rule:evenodd;"
d="M 40.9125,38.1375
40.9182,38.1088
40.9345,38.0845
40.9588,38.0682
40.9875,38.0625
42.3875,38.0625
42.4162,38.0682
42.4405,38.0845
42.4568,38.1088
42.4625,38.1375
42.4625,38.2875
42.4568,38.3162
42.4405,38.3405
42.4162,38.3568
42.3875,38.3625
40.9875,38.3625
40.9588,38.3568
40.9345,38.3405
40.9182,38.3162
40.9125,38.2875
Z" /> 
<path style="fill:#000000; fill-opacity:1.0000; stroke:none;fill-rule:evenodd;"
d="M 40.9125,37.6375
40.9182,37.6088
40.9345,37.5845
40.9588,37.5682
40.9875,37.5625
42.3875,37.5625
42.4162,37.5682
42.4405,37.5845
42.4568,37.6088
42.4625,37.6375
42.4625,37.7875
42.4568,37.8162
42.4405,37.8405
42.4162,37.8568
42.3875,37.8625
40.9875,37.8625
40.9588,37.8568
40.9345,37.8405
40.9182,37.8162
40.9125,37.7875
Z" /> 
<path style="fill:#000000; fill-opacity:1.0000; stroke:none;fill-rule:evenodd;"
d="M 40.9125,37.1375
40.9182,37.1088
40.9345,37.0845
40.9588,37.0682
40.9875,37.0625
42.3875,37.0625
42.4162,37.0682
42.4405,37.0845
42.4568,37.1088
42.4625,37.1375
42.4625,37.2875
42.4568,37.3162
42.4405,37.3405
42.4162,37.3568
42.3875,37.3625
40.9875,37.3625
40.9588,37.3568
40.9345,37.3405
40.9182,37.3162
40.9125,37.2875
Z" /> 
<path style="fill:#000000; fill-opacity:1.0000; stroke:none;fill-rule:evenodd;"
d="M 40.9125,36.6375
40.9182,36.6088
40.9345,36.5845
40.9588,36.5682
40.9875,36.5625
42.3875,36.5625
42.4162,36.5682
42.4405,36.5845
42.4568,36.6088
42.4625,36.6375
42.4625,36.7875
42.4568,36.8162
42.4405,36.8405
42.4162,36.8568
42.3875,36.8625
40.9875,36.8625
40.9588,36.8568
40.9345,36.8405
40.9182,36.8162
40.9125,36.7875
Z" /> 
<path style="fill:#000000; fill-opacity:1.0000; stroke:none;fill-rule:evenodd;"
d="M 40.9125,36.1375
40.9182,36.1088
40.9345,36.0845
40.9588,36.0682
40.9875,36.0625
42.3875,36.0625
42.4162,36.0682
42.4405,36.0845
42.4568,36.1088
42.4625,36.1375
42.4625,36.2875
42.4568,36.3162
42.4405,36.3405
42.4162,36.3568
42.3875,36.3625
40.9875,36.3625
40.9588,36.3568
40.9345,36.3405
40.9182,36.3162
40.9125,36.2875
Z" /> 
<path style="fill:#000000; fill-opacity:1.0000; stroke:none;fill-rule:evenodd;"
d="M 40.9125,35.6375
40.9182,35.6088
40.9345,35.5845
40.9588,35.5682
40.9875,35.5625
42.3875,35.5625
42.4162,35.5682
42.4405,35.5845
42.4568,35.6088
42.4625,35.6375
42.4625,35.7875
42.4568,35.8162
42.4405,35.8405
42.4162,35.8568
42.3875,35.8625
40.9875,35.8625
40.9588,35.8568
40.9345,35.8405
40.9182,35.8162
40.9125,35.7875
Z" /> 
<path style="fill:#000000; fill-opacity:1.0000; stroke:none;fill-rule:evenodd;"
d="M 40.9125,35.1375
40.9182,35.1088
40.9345,35.0845
40.9588,35.0682
40.9875,35.0625
42.3875,35.0625
42.4162,35.0682
42.4405,35.0845
42.4568,35.1088
42.4625,35.1375
42.4625,35.2875
42.4568,35.3162
42.4405,35.3405
42.4162,35.3568
42.3875,35.3625
40.9875,35.3625
40.9588,35.3568
40.9345,35.3405
40.9182,35.3162
40.9125,35.2875
Z" /> 
<path style="fill:#000000; fill-opacity:1.0000; stroke:none;fill-rule:evenodd;"
d="M 40.9125,34.6375
40.9182,34.6088
40.9345,34.5845
40.9588,34.5682
40.9875,34.5625
42.3875,34.5625
42.4162,34.5682
42.4405,34.5845
42.4568,34.6088
42.4625,34.6375
42.4625,34.7875
42.4568,34.8162
42.4405,34.8405
42.4162,34.8568
42.3875,34.8625
40.9875,34.8625
40.9588,34.8568
40.9345,34.8405
40.9182,34.8162
40.9125,34.7875
Z" /> 
<path style="fill:#000000; fill-opacity:1.0000; stroke:none;fill-rule:evenodd;"
d="M 40.9125,34.1375
40.9182,34.1088
40.9345,34.0845
40.9588,34.0682
40.9875,34.0625
42.3875,34.0625
42.4162,34.0682
42.4405,34.0845
42.4568,34.1088
42.4625,34.1375
42.4625,34.2875
42.4568,34.3162
42.4405,34.3405
42.4162,34.3568
42.3875,34.3625
40.9875,34.3625
40.9588,34.3568
40.9345,34.3405
40.9182,34.3162
40.9125,34.2875
Z" /> 
<path style="fill:#000000; fill-opacity:1.0000; stroke:none;fill-rule:evenodd;"
d="M 40.9125,33.6375
40.9182,33.6088
40.9345,33.5845
40.9588,33.5682
40.9875,33.5625
42.3875,33.5625
42.4162,33.5682
42.4405,33.5845
42.4568,33.6088
42.4625,33.6375
42.4625,33.7875
42.4568,33.8162
42.4405,33.8405
42.4162,33.8568
42.3875,33.8625
40.9875,33.8625
40.9588,33.8568
40.9345,33.8405
40.9182,33.8162
40.9125,33.7875
Z" /> 
<path style="fill:#000000; fill-opacity:1.0000; stroke:none;fill-rule:evenodd;"
d="M 39.6125,31.0875
39.6182,31.0588
39.6345,31.0345
39.6588,31.0182
39.6875,31.0125
39.8375,31.0125
39.8662,31.0182
39.8905,31.0345
39.9068,31.0588
39.9125,31.0875
39.9125,32.4875
39.9068,32.5162
39.8905,32.5405
39.8662,32.5568
39.8375,32.5625
39.6875,32.5625
39.6588,32.5568
39.6345,32.5405
39.6182,32.5162
39.6125,32.4875
Z" /> 
<path style="fill:#000000; fill-opacity:1.0000; stroke:none;fill-rule:evenodd;"
d="M 39.1125,31.0875
39.1182,31.0588
39.1345,31.0345
39.1588,31.0182
39.1875,31.0125
39.3375,31.0125
39.3662,31.0182
39.3905,31.0345
39.4068,31.0588
39.4125,31.0875
39.4125,32.4875
39.4068,32.5162
39.3905,32.5405
39.3662,32.5568
39.3375,32.5625
39.1875,32.5625
39.1588,32.5568
39.1345,32.5405
39.1182,32.5162
39.1125,32.4875
Z" /> 
<path style="fill:#000000; fill-opacity:1.0000; stroke:none;fill-rule:evenodd;"
d="M 38.6125,31.0875
38.6182,31.0588
38.6345,31.0345
38.6588,31.0182
38.6875,31.0125
38.8375,31.0125
38.8662,31.0182
38.8905,31.0345
38.9068,31.0588
38.9125,31.0875
38.9125,32.4875
38.9068,32.5162
38.8905,32.5405
38.8662,32.5568
38.8375,32.5625
38.6875,32.5625
38.6588,32.5568
38.6345,32.5405
38.6182,32.5162
38.6125,32.4875
Z" /> 
<path style="fill:#000000; fill-opacity:1.0000; stroke:none;fill-rule:evenodd;"
d="M 38.1125,31.0875
38.1182,31.0588
38.1345,31.0345
38.1588,31.0182
38.1875,31.0125
38.3375,31.0125
38.3662,31.0182
38.3905,31.0345
38.4068,31.0588
38.4125,31.0875
38.4125,32.4875
38.4068,32.5162
38.3905,32.5405
38.3662,32.5568
38.3375,32.5625
38.1875,32.5625
38.1588,32.5568
38.1345,32.5405
38.1182,32.5162
38.1125,32.4875
Z" /> 
<path style="fill:#000000; fill-opacity:1.0000; stroke:none;fill-rule:evenodd;"
d="M 37.6125,31.0875
37.6182,31.0588
37.6345,31.0345
37.6588,31.0182
37.6875,31.0125
37.8375,31.0125
37.8662,31.0182
37.8905,31.0345
37.9068,31.0588
37.9125,31.0875
37.9125,32.4875
37.9068,32.5162
37.8905,32.5405
37.8662,32.5568
37.8375,32.5625
37.6875,32.5625
37.6588,32.5568
37.6345,32.5405
37.6182,32.5162
37.6125,32.4875
Z" /> 
<path style="fill:#000000; fill-opacity:1.0000; stroke:none;fill-rule:evenodd;"
d="M 37.1125,31.0875
37.1182,31.0588
37.1345,31.0345
37.1588,31.0182
37.1875,31.0125
37.3375,31.0125
37.3662,31.0182
37.3905,31.0345
37.4068,31.0588
37.4125,31.0875
37.4125,32.4875
37.4068,32.5162
37.3905,32.5405
37.3662,32.5568
37.3375,32.5625
37.1875,32.5625
37.1588,32.5568
37.1345,32.5405
37.1182,32.5162
37.1125,32.4875
Z" /> 
<path style="fill:#000000; fill-opacity:1.0000; stroke:none;fill-rule:evenodd;"
d="M 36.6125,31.0875
36.6182,31.0588
36.6345,31.0345
36.6588,31.0182
36.6875,31.0125
36.8375,31.0125
36.8662,31.0182
36.8905,31.0345
36.9068,31.0588
36.9125,31.0875
36.9125,32.4875
36.9068,32.5162
36.8905,32.5405
36.8662,32.5568
36.8375,32.5625
36.6875,32.5625
36.6588,32.5568
36.6345,32.5405
36.6182,32.5162
36.6125,32.4875
Z" /> 
<path style="fill:#000000; fill-opacity:1.0000; stroke:none;fill-rule:evenodd;"
d="M 36.1125,31.0875
36.1182,31.0588
36.1345,31.0345
36.1588,31.0182
36.1875,31.0125
36.3375,31.0125
36.3662,31.0182
36.3905,31.0345
36.4068,31.0588
36.4125,31.0875
36.4125,32.4875
36.4068,32.5162
36.3905,32.5405
36.3662,32.5568
36.3375,32.5625
36.1875,32.5625
36.1588,32.5568
36.1345,32.5405
36.1182,32.5162
36.1125,32.4875
Z" /> 
<path style="fill:#000000; fill-opacity:1.0000; stroke:none;fill-rule:evenodd;"
d="M 35.6125,31.0875
35.6182,31.0588
35.6345,31.0345
35.6588,31.0182
35.6875,31.0125
35.8375,31.0125
35.8662,31.0182
35.8905,31.0345
35.9068,31.0588
35.9125,31.0875
35.9125,32.4875
35.9068,32.5162
35.8905,32.5405
35.8662,32.5568
35.8375,32.5625
35.6875,32.5625
35.6588,32.5568
35.6345,32.5405
35.6182,32.5162
35.6125,32.4875
Z" /> 
<path style="fill:#000000; fill-opacity:1.0000; stroke:none;fill-rule:evenodd;"
d="M 35.1125,31.0875
35.1182,31.0588
35.1345,31.0345
35.1588,31.0182
35.1875,31.0125
35.3375,31.0125
35.3662,31.0182
35.3905,31.0345
35.4068,31.0588
35.4125,31.0875
35.4125,32.4875
35.4068,32.5162
35.3905,32.5405
35.3662,32.5568
35.3375,32.5625
35.1875,32.5625
35.1588,32.5568
35.1345,32.5405
35.1182,32.5162
35.1125,32.4875
Z" /> 
<path style="fill:#000000; fill-opacity:1.0000; stroke:none;fill-rule:evenodd;"
d="M 34.6125,31.0875
34.6182,31.0588
34.6345,31.0345
34.6588,31.0182
34.6875,31.0125
34.8375,31.0125
34.8662,31.0182
34.8905,31.0345
34.9068,31.0588
34.9125,31.0875
34.9125,32.4875
34.9068,32.5162
34.8905,32.5405
34.8662,32.5568
34.8375,32.5625
34.6875,32.5625
34.6588,32.5568
34.6345,32.5405
34.6182,32.5162
34.6125,32.4875
Z" /> 
<path style="fill:#000000; fill-opacity:1.0000; stroke:none;fill-rule:evenodd;"
d="M 34.1125,31.0875
34.1182,31.0588
34.1345,31.0345
34.1588,31.0182
34.1875,31.0125
34.3375,31.0125
34.3662,31.0182
34.3905,31.0345
34.4068,31.0588
34.4125,31.0875
34.4125,32.4875
34.4068,32.5162
34.3905,32.5405
34.3662,32.5568
34.3375,32.5625
34.1875,32.5625
34.1588,32.5568
34.1345,32.5405
34.1182,32.5162
34.1125,32.4875
Z" /> 
<path style="fill:#000000; fill-opacity:1.0000; stroke:none;fill-rule:evenodd;"
d="M 33.6125,31.0875
33.6182,31.0588
33.6345,31.0345
33.6588,31.0182
33.6875,31.0125
33.8375,31.0125
33.8662,31.0182
33.8905,31.0345
33.9068,31.0588
33.9125,31.0875
33.9125,32.4875
33.9068,32.5162
33.8905,32.5405
33.8662,32.5568
33.8375,32.5625
33.6875,32.5625
33.6588,32.5568
33.6345,32.5405
33.6182,32.5162
33.6125,32.4875
Z" /> 
<path style="fill:#000000; fill-opacity:1.0000; stroke:none;fill-rule:evenodd;"
d="M 33.1125,31.0875
33.1182,31.0588
33.1345,31.0345
33.1588,31.0182
33.1875,31.0125
33.3375,31.0125
33.3662,31.0182
33.3905,31.0345
33.4068,31.0588
33.4125,31.0875
33.4125,32.4875
33.4068,32.5162
33.3905,32.5405
33.3662,32.5568
33.3375,32.5625
33.1875,32.5625
33.1588,32.5568
33.1345,32.5405
33.1182,32.5162
33.1125,32.4875
Z" /> 
<path style="fill:#000000; fill-opacity:1.0000; stroke:none;fill-rule:evenodd;"
d="M 32.6125,31.0875
32.6182,31.0588
32.6345,31.0345
32.6588,31.0182
32.6875,31.0125
32.8375,31.0125
32.8662,31.0182
32.8905,31.0345
32.9068,31.0588
32.9125,31.0875
32.9125,32.4875
32.9068,32.5162
32.8905,32.5405
32.8662,32.5568
32.8375,32.5625
32.6875,32.5625
32.6588,32.5568
32.6345,32.5405
32.6182,32.5162
32.6125,32.4875
Z" /> 
<path style="fill:#000000; fill-opacity:1.0000; stroke:none;fill-rule:evenodd;"
d="M 32.1125,31.0875
32.1182,31.0588
32.1345,31.0345
32.1588,31.0182
32.1875,31.0125
32.3375,31.0125
32.3662,31.0182
32.3905,31.0345
32.4068,31.0588
32.4125,31.0875
32.4125,32.4875
32.4068,32.5162
32.3905,32.5405
32.3662,32.5568
32.3375,32.5625
32.1875,32.5625
32.1588,32.5568
32.1345,32.5405
32.1182,32.5162
32.1125,32.4875
Z" /> 
<path style="fill:#000000; fill-opacity:1.0000; stroke:none;fill-rule:evenodd;"
d="M 30.7925,31.7225
30.7389,31.7118
30.6935,31.6815
30.6632,31.6361
30.6525,31.5825
30.6525,31.3025
30.6632,31.2489
30.6935,31.2035
30.7389,31.1732
30.7925,31.1625
31.1325,31.1625
31.1861,31.1732
31.2315,31.2035
31.2618,31.2489
31.2725,31.3025
31.2725,31.5825
31.2618,31.6361
31.2315,31.6815
31.1861,31.7118
31.1325,31.7225
Z" /> 
<path style="fill:#000000; fill-opacity:1.0000; stroke:none;fill-rule:evenodd;"
d="M 30.7925,30.7625
30.7389,30.7518
30.6935,30.7215
30.6632,30.6761
30.6525,30.6225
30.6525,30.3425
30.6632,30.2889
30.6935,30.2435
30.7389,30.2132
30.7925,30.2025
31.1325,30.2025
31.1861,30.2132
31.2315,30.2435
31.2618,30.2889
31.2725,30.3425
31.2725,30.6225
31.2618,30.6761
31.2315,30.7215
31.1861,30.7518
31.1325,30.7625
Z" /> 
<path style="fill:#000000; fill-opacity:1.0000; stroke:none;fill-rule:evenodd;"
d="M 32.1575,23.8275
32.2111,23.8382
32.2565,23.8685
32.2868,23.9139
32.2975,23.9675
32.2975,24.2475
32.2868,24.3011
32.2565,24.3465
32.2111,24.3768
32.1575,24.3875
31.8175,24.3875
31.7639,24.3768
31.7185,24.3465
31.6882,24.3011
31.6775,24.2475
31.6775,23.9675
31.6882,23.9139
31.7185,23.8685
31.7639,23.8382
31.8175,23.8275
Z" /> 
<path style="fill:#000000; fill-opacity:1.0000; stroke:none;fill-rule:evenodd;"
d="M 32.1575,24.7875
32.2111,24.7982
32.2565,24.8285
32.2868,24.8739
32.2975,24.9275
32.2975,25.2075
32.2868,25.2611
32.2565,25.3065
32.2111,25.3368
32.1575,25.3475
31.8175,25.3475
31.7639,25.3368
31.7185,25.3065
31.6882,25.2611
31.6775,25.2075
31.6775,24.9275
31.6882,24.8739
31.7185,24.8285
31.7639,24.7982
31.8175,24.7875
Z" /> 
<path style="fill:#000000; fill-opacity:1.0000; stroke:none;fill-rule:evenodd;"
d="M 30.0875,31.6125
30.0704,31.6986
30.0216,31.7716
29.9486,31.8204
29.8625,31.8375
29.4125,31.8375
29.3264,31.8204
29.2534,31.7716
29.2046,31.6986
29.1875,31.6125
29.1875,31.1125
29.2046,31.0264
29.2534,30.9534
29.3264,30.9046
29.4125,30.8875
29.8625,30.8875
29.9486,30.9046
30.0216,30.9534
30.0704,31.0264
30.0875,31.1125
Z" /> 
<path style="fill:#000000; fill-opacity:1.0000; stroke:none;fill-rule:evenodd;"
d="M 28.5375,31.6125
28.5204,31.6986
28.4716,31.7716
28.3986,31.8204
28.3125,31.8375
27.8625,31.8375
27.7764,31.8204
27.7034,31.7716
27.6546,31.6986
27.6375,31.6125
27.6375,31.1125
27.6546,31.0264
27.7034,30.9534
27.7764,30.9046
27.8625,30.8875
28.3125,30.8875
28.3986,30.9046
28.4716,30.9534
28.5204,31.0264
28.5375,31.1125
Z" /> 
<path style="fill:#000000; fill-opacity:1.0000; stroke:none;fill-rule:evenodd;"
d="M 33.0975,45.6075
33.0868,45.6611
33.0565,45.7065
33.0111,45.7368
32.9575,45.7475
32.6775,45.7475
32.6239,45.7368
32.5785,45.7065
32.5482,45.6611
32.5375,45.6075
32.5375,45.2675
32.5482,45.2139
32.5785,45.1685
32.6239,45.1382
32.6775,45.1275
32.9575,45.1275
33.0111,45.1382
33.0565,45.1685
33.0868,45.2139
33.0975,45.2675
Z" /> 
<path style="fill:#000000; fill-opacity:1.0000; stroke:none;fill-rule:evenodd;"
d="M 32.1375,45.6075
32.1268,45.6611
32.0965,45.7065
32.0511,45.7368
31.9975,45.7475
31.7175,45.7475
31.6639,45.7368
31.6185,45.7065
31.5882,45.6611
31.5775,45.6075
31.5775,45.2675
31.5882,45.2139
31.6185,45.1685
31.6639,45.1382
31.7175,45.1275
31.9975,45.1275
32.0511,45.1382
32.0965,45.1685
32.1268,45.2139
32.1375,45.2675
Z" /> 
<path style="fill:#000000; fill-opacity:1.0000; stroke:none;fill-rule:evenodd;"
d="M 55.3875,43.1437
55.3708,43.2275
55.3234,43.2984
55.2525,43.3458
55.1687,43.3625
54.7312,43.3625
54.6475,43.3458
54.5766,43.2984
54.5292,43.2275
54.5125,43.1437
54.5125,42.6313
54.5292,42.5475
54.5766,42.4766
54.6475,42.4292
54.7312,42.4125
55.1687,42.4125
55.2525,42.4292
55.3234,42.4766
55.3708,42.5475
55.3875,42.6313
Z" /> 
<path style="fill:#000000; fill-opacity:1.0000; stroke:none;fill-rule:evenodd;"
d="M 53.8125,43.1437
53.7958,43.2275
53.7484,43.2984
53.6775,43.3458
53.5938,43.3625
53.1562,43.3625
53.0725,43.3458
53.0016,43.2984
52.9542,43.2275
52.9375,43.1437
52.9375,42.6313
52.9542,42.5475
53.0016,42.4766
53.0725,42.4292
53.1562,42.4125
53.5938,42.4125
53.6775,42.4292
53.7484,42.4766
53.7958,42.5475
53.8125,42.6313
Z" /> 
<path style="fill:#000000; fill-opacity:1.0000; stroke:none;fill-rule:evenodd;"
d="M 28.6925,33.8325
28.6818,33.8861
28.6515,33.9315
28.6061,33.9618
28.5525,33.9725
28.2725,33.9725
28.2189,33.9618
28.1735,33.9315
28.1432,33.8861
28.1325,33.8325
28.1325,33.4925
28.1432,33.4389
28.1735,33.3935
28.2189,33.3632
28.2725,33.3525
28.5525,33.3525
28.6061,33.3632
28.6515,33.3935
28.6818,33.4389
28.6925,33.4925
Z" /> 
<path style="fill:#000000; fill-opacity:1.0000; stroke:none;fill-rule:evenodd;"
d="M 27.7325,33.8325
27.7218,33.8861
27.6915,33.9315
27.6461,33.9618
27.5925,33.9725
27.3125,33.9725
27.2589,33.9618
27.2135,33.9315
27.1832,33.8861
27.1725,33.8325
27.1725,33.4925
27.1832,33.4389
27.2135,33.3935
27.2589,33.3632
27.3125,33.3525
27.5925,33.3525
27.6461,33.3632
27.6915,33.3935
27.7218,33.4389
27.7325,33.4925
Z" /> 
<path style="fill:#000000; fill-opacity:1.0000; stroke:none;fill-rule:evenodd;"
d="M 31.8625,17.9025
31.8728,17.8508
31.9020,17.8070
31.9458,17.7778
31.9975,17.7675
32.2675,17.7675
32.3192,17.7778
32.3630,17.8070
32.3922,17.8508
32.4025,17.9025
32.4025,18.2725
32.3922,18.3242
32.3630,18.3680
32.3192,18.3972
32.2675,18.4075
31.9975,18.4075
31.9458,18.3972
31.9020,18.3680
31.8728,18.3242
31.8625,18.2725
Z" /> 
<path style="fill:#000000; fill-opacity:1.0000; stroke:none;fill-rule:evenodd;"
d="M 32.8825,17.9025
32.8928,17.8508
32.9220,17.8070
32.9658,17.7778
33.0175,17.7675
33.2875,17.7675
33.3392,17.7778
33.3830,17.8070
33.4122,17.8508
33.4225,17.9025
33.4225,18.2725
33.4122,18.3242
33.3830,18.3680
33.3392,18.3972
33.2875,18.4075
33.0175,18.4075
32.9658,18.3972
32.9220,18.3680
32.8928,18.3242
32.8825,18.2725
Z" /> 
<path style="fill:#000000; fill-opacity:1.0000; stroke:none;fill-rule:evenodd;"
d="M 41.8425,32.9025
41.7889,32.8918
41.7435,32.8615
41.7132,32.8161
41.7025,32.7625
41.7025,32.4825
41.7132,32.4289
41.7435,32.3835
41.7889,32.3532
41.8425,32.3425
42.1825,32.3425
42.2361,32.3532
42.2815,32.3835
42.3118,32.4289
42.3225,32.4825
42.3225,32.7625
42.3118,32.8161
42.2815,32.8615
42.2361,32.8918
42.1825,32.9025
Z" /> 
<path style="fill:#000000; fill-opacity:1.0000; stroke:none;fill-rule:evenodd;"
d="M 41.8425,31.9425
41.7889,31.9318
41.7435,31.9015
41.7132,31.8561
41.7025,31.8025
41.7025,31.5225
41.7132,31.4689
41.7435,31.4235
41.7889,31.3932
41.8425,31.3825
42.1825,31.3825
42.2361,31.3932
42.2815,31.4235
42.3118,31.4689
42.3225,31.5225
42.3225,31.8025
42.3118,31.8561
42.2815,31.9015
42.2361,31.9318
42.1825,31.9425
Z" /> 
<path style="fill:#000000; fill-opacity:1.0000; stroke:none;fill-rule:evenodd;"
d="M 19.8172,28.4931
19.8172,27.7819
20.8078,27.7819
20.8078,28.4931
Z" /> 
<path style="fill:#000000; fill-opacity:1.0000; stroke:none;fill-rule:evenodd;"
d="M 24.3172,28.4931
24.3172,27.7819
25.3078,27.7819
25.3078,28.4931
Z" /> 
<path style="fill:#000000; fill-opacity:1.0000; stroke:none;fill-rule:evenodd;"
d="M 19.8172,30.6431
19.8172,29.9319
20.8078,29.9319
20.8078,30.6431
Z" /> 
<path style="fill:#000000; fill-opacity:1.0000; stroke:none;fill-rule:evenodd;"
d="M 24.3172,30.6431
24.3172,29.9319
25.3078,29.9319
25.3078,30.6431
Z" /> 
<path style="fill:#000000; fill-opacity:1.0000; stroke:none;fill-rule:evenodd;"
d="M 26.2325,41.6325
26.2861,41.6432
26.3315,41.6735
26.3618,41.7189
26.3725,41.7725
26.3725,42.0525
26.3618,42.1061
26.3315,42.1515
26.2861,42.1818
26.2325,42.1925
25.8925,42.1925
25.8389,42.1818
25.7935,42.1515
25.7632,42.1061
25.7525,42.0525
25.7525,41.7725
25.7632,41.7189
25.7935,41.6735
25.8389,41.6432
25.8925,41.6325
Z" /> 
<path style="fill:#000000; fill-opacity:1.0000; stroke:none;fill-rule:evenodd;"
d="M 26.2325,42.5925
26.2861,42.6032
26.3315,42.6335
26.3618,42.6789
26.3725,42.7325
26.3725,43.0125
26.3618,43.0661
26.3315,43.1115
26.2861,43.1418
26.2325,43.1525
25.8925,43.1525
25.8389,43.1418
25.7935,43.1115
25.7632,43.0661
25.7525,43.0125
25.7525,42.7325
25.7632,42.6789
25.7935,42.6335
25.8389,42.6032
25.8925,42.5925
Z" /> 
<path style="fill:#000000; fill-opacity:1.0000; stroke:none;fill-rule:evenodd;"
d="M 25.3825,36.9725
25.4361,36.9832
25.4815,37.0135
25.5118,37.0589
25.5225,37.1125
25.5225,37.3925
25.5118,37.4461
25.4815,37.4915
25.4361,37.5218
25.3825,37.5325
25.0425,37.5325
24.9889,37.5218
24.9435,37.4915
24.9132,37.4461
24.9025,37.3925
24.9025,37.1125
24.9132,37.0589
24.9435,37.0135
24.9889,36.9832
25.0425,36.9725
Z" /> 
<path style="fill:#000000; fill-opacity:1.0000; stroke:none;fill-rule:evenodd;"
d="M 25.3825,37.9325
25.4361,37.9432
25.4815,37.9735
25.5118,38.0189
25.5225,38.0725
25.5225,38.3525
25.5118,38.4061
25.4815,38.4515
25.4361,38.4818
25.3825,38.4925
25.0425,38.4925
24.9889,38.4818
24.9435,38.4515
24.9132,38.4061
24.9025,38.3525
24.9025,38.0725
24.9132,38.0189
24.9435,37.9735
24.9889,37.9432
25.0425,37.9325
Z" /> 
<path style="fill:#000000; fill-opacity:1.0000; stroke:none;fill-rule:evenodd;"
d="M 25.0425,36.1725
24.9889,36.1618
24.9435,36.1315
24.9132,36.0861
24.9025,36.0325
24.9025,35.7525
24.9132,35.6989
24.9435,35.6535
24.9889,35.6232
25.0425,35.6125
25.3825,35.6125
25.4361,35.6232
25.4815,35.6535
25.5118,35.6989
25.5225,35.7525
25.5225,36.0325
25.5118,36.0861
25.4815,36.1315
25.4361,36.1618
25.3825,36.1725
Z" /> 
<path style="fill:#000000; fill-opacity:1.0000; stroke:none;fill-rule:evenodd;"
d="M 25.0425,35.2125
24.9889,35.2018
24.9435,35.1715
24.9132,35.1261
24.9025,35.0725
24.9025,34.7925
24.9132,34.7389
24.9435,34.6935
24.9889,34.6632
25.0425,34.6525
25.3825,34.6525
25.4361,34.6632
25.4815,34.6935
25.5118,34.7389
25.5225,34.7925
25.5225,35.0725
25.5118,35.1261
25.4815,35.1715
25.4361,35.2018
25.3825,35.2125
Z" /> 
<path style="fill:#000000; fill-opacity:1.0000; stroke:none;fill-rule:evenodd;"
d="M 21.2875,34.7625
22.4875,34.7625
22.4875,36.1625
21.2875,36.1625
Z" /> 
<path style="fill:#000000; fill-opacity:1.0000; stroke:none;fill-rule:evenodd;"
d="M 21.2875,36.9625
22.4875,36.9625
22.4875,38.3625
21.2875,38.3625
Z" /> 
<path style="fill:#000000; fill-opacity:1.0000; stroke:none;fill-rule:evenodd;"
d="M 22.9875,36.9625
24.1875,36.9625
24.1875,38.3625
22.9875,38.3625
Z" /> 
<path style="fill:#000000; fill-opacity:1.0000; stroke:none;fill-rule:evenodd;"
d="M 22.9875,34.7625
24.1875,34.7625
24.1875,36.1625
22.9875,36.1625
Z" /> 
<path style="fill:#000000; fill-opacity:1.0000; stroke:none;fill-rule:evenodd;"
d="M 33.4225,17.1725
33.4122,17.2242
33.3830,17.2680
33.3392,17.2972
33.2875,17.3075
33.0175,17.3075
32.9658,17.2972
32.9220,17.2680
32.8928,17.2242
32.8825,17.1725
32.8825,16.8025
32.8928,16.7508
32.9220,16.7070
32.9658,16.6778
33.0175,16.6675
33.2875,16.6675
33.3392,16.6778
33.3830,16.7070
33.4122,16.7508
33.4225,16.8025
Z" /> 
<path style="fill:#000000; fill-opacity:1.0000; stroke:none;fill-rule:evenodd;"
d="M 32.4025,17.1725
32.3922,17.2242
32.3630,17.2680
32.3192,17.2972
32.2675,17.3075
31.9975,17.3075
31.9458,17.2972
31.9020,17.2680
31.8728,17.2242
31.8625,17.1725
31.8625,16.8025
31.8728,16.7508
31.9020,16.7070
31.9458,16.6778
31.9975,16.6675
32.2675,16.6675
32.3192,16.6778
32.3630,16.7070
32.3922,16.7508
32.4025,16.8025
Z" /> 
<path style="fill:#000000; fill-opacity:1.0000; stroke:none;fill-rule:evenodd;"
d="M 40.4375,44.8625
40.4546,44.7764
40.5034,44.7034
40.5764,44.6546
40.6625,44.6375
41.1125,44.6375
41.1986,44.6546
41.2716,44.7034
41.3204,44.7764
41.3375,44.8625
41.3375,45.3625
41.3204,45.4486
41.2716,45.5216
41.1986,45.5704
41.1125,45.5875
40.6625,45.5875
40.5764,45.5704
40.5034,45.5216
40.4546,45.4486
40.4375,45.3625
Z" /> 
<path style="fill:#000000; fill-opacity:1.0000; stroke:none;fill-rule:evenodd;"
d="M 41.9875,44.8625
42.0046,44.7764
42.0534,44.7034
42.1264,44.6546
42.2125,44.6375
42.6625,44.6375
42.7486,44.6546
42.8216,44.7034
42.8704,44.7764
42.8875,44.8625
42.8875,45.3625
42.8704,45.4486
42.8216,45.5216
42.7486,45.5704
42.6625,45.5875
42.2125,45.5875
42.1264,45.5704
42.0534,45.5216
42.0046,45.4486
41.9875,45.3625
Z" /> 
<path style="fill:#000000; fill-opacity:1.0000; stroke:none;fill-rule:evenodd;"
d="M 36.5925,22.2975
36.5822,22.3492
36.5530,22.3930
36.5092,22.4222
36.4575,22.4325
36.1875,22.4325
36.1358,22.4222
36.0920,22.3930
36.0628,22.3492
36.0525,22.2975
36.0525,21.9275
36.0628,21.8758
36.0920,21.8320
36.1358,21.8028
36.1875,21.7925
36.4575,21.7925
36.5092,21.8028
36.5530,21.8320
36.5822,21.8758
36.5925,21.9275
Z" /> 
<path style="fill:#000000; fill-opacity:1.0000; stroke:none;fill-rule:evenodd;"
d="M 35.5725,22.2975
35.5622,22.3492
35.5330,22.3930
35.4892,22.4222
35.4375,22.4325
35.1675,22.4325
35.1158,22.4222
35.0720,22.3930
35.0428,22.3492
35.0325,22.2975
35.0325,21.9275
35.0428,21.8758
35.0720,21.8320
35.1158,21.8028
35.1675,21.7925
35.4375,21.7925
35.4892,21.8028
35.5330,21.8320
35.5622,21.8758
35.5725,21.9275
Z" /> 
<path style="fill:#000000; fill-opacity:1.0000; stroke:none;fill-rule:evenodd;"
d="M 48.9250,36.5875
48.9136,36.6449
48.8811,36.6936
48.8324,36.7261
48.7750,36.7375
47.7500,36.7375
47.6926,36.7261
47.6439,36.6936
47.6114,36.6449
47.6000,36.5875
47.6000,36.2875
47.6114,36.2301
47.6439,36.1814
47.6926,36.1489
47.7500,36.1375
48.7750,36.1375
48.8324,36.1489
48.8811,36.1814
48.9136,36.2301
48.9250,36.2875
Z" /> 
<path style="fill:#000000; fill-opacity:1.0000; stroke:none;fill-rule:evenodd;"
d="M 48.9250,35.6375
48.9136,35.6949
48.8811,35.7436
48.8324,35.7761
48.7750,35.7875
47.7500,35.7875
47.6926,35.7761
47.6439,35.7436
47.6114,35.6949
47.6000,35.6375
47.6000,35.3375
47.6114,35.2801
47.6439,35.2314
47.6926,35.1989
47.7500,35.1875
48.7750,35.1875
48.8324,35.1989
48.8811,35.2314
48.9136,35.2801
48.9250,35.3375
Z" /> 
<path style="fill:#000000; fill-opacity:1.0000; stroke:none;fill-rule:evenodd;"
d="M 48.9250,34.6875
48.9136,34.7449
48.8811,34.7936
48.8324,34.8261
48.7750,34.8375
47.7500,34.8375
47.6926,34.8261
47.6439,34.7936
47.6114,34.7449
47.6000,34.6875
47.6000,34.3875
47.6114,34.3301
47.6439,34.2814
47.6926,34.2489
47.7500,34.2375
48.7750,34.2375
48.8324,34.2489
48.8811,34.2814
48.9136,34.3301
48.9250,34.3875
Z" /> 
<path style="fill:#000000; fill-opacity:1.0000; stroke:none;fill-rule:evenodd;"
d="M 46.6500,34.6875
46.6386,34.7449
46.6061,34.7936
46.5574,34.8261
46.5000,34.8375
45.4750,34.8375
45.4176,34.8261
45.3689,34.7936
45.3364,34.7449
45.3250,34.6875
45.3250,34.3875
45.3364,34.3301
45.3689,34.2814
45.4176,34.2489
45.4750,34.2375
46.5000,34.2375
46.5574,34.2489
46.6061,34.2814
46.6386,34.3301
46.6500,34.3875
Z" /> 
<path style="fill:#000000; fill-opacity:1.0000; stroke:none;fill-rule:evenodd;"
d="M 46.6500,35.6375
46.6386,35.6949
46.6061,35.7436
46.5574,35.7761
46.5000,35.7875
45.4750,35.7875
45.4176,35.7761
45.3689,35.7436
45.3364,35.6949
45.3250,35.6375
45.3250,35.3375
45.3364,35.2801
45.3689,35.2314
45.4176,35.1989
45.4750,35.1875
46.5000,35.1875
46.5574,35.1989
46.6061,35.2314
46.6386,35.2801
46.6500,35.3375
Z" /> 
<path style="fill:#000000; fill-opacity:1.0000; stroke:none;fill-rule:evenodd;"
d="M 46.6500,36.5875
46.6386,36.6449
46.6061,36.6936
46.5574,36.7261
46.5000,36.7375
45.4750,36.7375
45.4176,36.7261
45.3689,36.6936
45.3364,36.6449
45.3250,36.5875
45.3250,36.2875
45.3364,36.2301
45.3689,36.1814
45.4176,36.1489
45.4750,36.1375
46.5000,36.1375
46.5574,36.1489
46.6061,36.1814
46.6386,36.2301
46.6500,36.2875
Z" /> 
<path style="fill:#000000; fill-opacity:1.0000; stroke:none;fill-rule:evenodd;"
d="M 42.4325,23.7025
42.4861,23.7132
42.5315,23.7435
42.5618,23.7889
42.5725,23.8425
42.5725,24.1225
42.5618,24.1761
42.5315,24.2215
42.4861,24.2518
42.4325,24.2625
42.0925,24.2625
42.0389,24.2518
41.9935,24.2215
41.9632,24.1761
41.9525,24.1225
41.9525,23.8425
41.9632,23.7889
41.9935,23.7435
42.0389,23.7132
42.0925,23.7025
Z" /> 
<path style="fill:#000000; fill-opacity:1.0000; stroke:none;fill-rule:evenodd;"
d="M 42.4325,24.6625
42.4861,24.6732
42.5315,24.7035
42.5618,24.7489
42.5725,24.8025
42.5725,25.0825
42.5618,25.1361
42.5315,25.1815
42.4861,25.2118
42.4325,25.2225
42.0925,25.2225
42.0389,25.2118
41.9935,25.1815
41.9632,25.1361
41.9525,25.0825
41.9525,24.8025
41.9632,24.7489
41.9935,24.7035
42.0389,24.6732
42.0925,24.6625
Z" /> 
</g> 
</svg>
