<?xml version="1.0" encoding="UTF-8"?>
<svg xmlns="http://www.w3.org/2000/svg" version="1.1" viewBox="0 0 323.89 288">
  <!-- Generator: Adobe Illustrator 29.6.0, SVG Export Plug-In . SVG Version: 2.1.1 Build 207)  -->
  <defs>
    <style>
      .st0 {
        display: none;
      }

      .st1 {
        stroke: #000;
        stroke-width: .19px;
      }

      .st1, .st2 {
        fill: none;
        stroke-miterlimit: 11.34;
      }

      .st2 {
        stroke: blue;
        stroke-width: .07px;
      }
    </style>
  </defs>
  <g id="Layer_1" class="st0">
    <path class="st2" d="M133.78,44.99l.08.02.05.04.04.05.02.08v.72l-.02.08-.04.05-.05.04-.08.02h-1.01l-.08-.02-.05-.04-.04-.05-.02-.08v-.72l.02-.08.04-.05.05-.04.08-.02h1.01Z"/>
    <path class="st2" d="M133.78,47.89l.08.02.05.04.04.05.02.08v.72l-.02.08-.04.05-.05.04-.08.02h-1.01l-.08-.02-.05-.04-.04-.05-.02-.08v-.72l.02-.08.04-.05.05-.04.08-.02h1.01Z"/>
    <path class="st2" d="M105.48,87.02l.02-.08.04-.05.05-.04.08-.02h.72l.08.02.05.04.04.05.02.08v1.01l-.02.08-.04.05-.05.04-.08.02h-.72l-.08-.02-.05-.04-.04-.05-.02-.08v-1.01Z"/>
    <path class="st2" d="M108.37,87.02l.02-.08.04-.05.05-.04.08-.02h.72l.08.02.05.04.04.05.02.08v1.01l-.02.08-.04.05-.05.04-.08.02h-.72l-.08-.02-.05-.04-.04-.05-.02-.08v-1.01Z"/>
    <path class="st2" d="M163.11,146.15l.02-.1.05-.07.07-.05.1-.02h.81l.1.02.07.05.05.07.02.1v3.5l-.02.1-.05.07-.07.05-.1.02h-.81l-.1-.02-.07-.05-.05-.07-.02-.1v-3.5Z"/>
    <path class="st2" d="M165.94,146.15l.02-.1.05-.07.07-.05.1-.02h.81l.1.02.07.05.05.07.02.1v3.5l-.02.1-.05.07-.07.05-.1.02h-.81l-.1-.02-.07-.05-.05-.07-.02-.1v-3.5Z"/>
    <path class="st2" d="M168.78,146.15l.02-.1.05-.07.07-.05.1-.02h.81l.1.02.07.05.05.07.02.1v3.5l-.02.1-.05.07-.07.05-.1.02h-.81l-.1-.02-.07-.05-.05-.07-.02-.1v-3.5Z"/>
    <path class="st2" d="M171.61,146.15l.02-.1.05-.07.07-.05.1-.02h.81l.1.02.07.05.05.07.02.1v3.5l-.02.1-.05.07-.07.05-.1.02h-.81l-.1-.02-.07-.05-.05-.07-.02-.1v-3.5Z"/>
    <path class="st2" d="M158.57,157.07l.04-.21.11-.16.16-.11.21-.04h1.94l.21.04.16.11.11.16.04.21v3.64l-.04.21-.11.16-.16.11-.21.04h-1.94l-.21-.04-.16-.11-.11-.16-.04-.21v-3.64Z"/>
    <path class="st2" d="M174.45,157.07l.04-.21.11-.16.16-.11.21-.04h1.94l.21.04.16.11.11.16.04.21v3.64l-.04.21-.11.16-.16.11-.21.04h-1.94l-.21-.04-.16-.11-.11-.16-.04-.21v-3.64Z"/>
    <path class="st2" d="M194.84,100.71h-3.26v-.85h3.26v.85Z"/>
    <path class="st2" d="M194.84,98.87h-3.26v-.85h3.26v.85Z"/>
    <path class="st2" d="M194.84,97.02h-3.26v-.85h3.26v.85Z"/>
    <path class="st2" d="M194.84,95.18h-3.26v-.85h3.26v.85Z"/>
    <path class="st2" d="M194.84,93.34h-3.26v-.85h3.26v.85Z"/>
    <path class="st2" d="M164.5,119.38l.02-.09.04-.06.06-.04.09-.02h.75l.09.02.06.04.04.06.02.09v.92l-.02.09-.04.06-.06.04-.09.02h-.75l-.09-.02-.06-.04-.04-.06-.02-.09v-.92Z"/>
    <path class="st2" d="M167.22,119.38l.02-.09.04-.06.06-.04.09-.02h.75l.09.02.06.04.04.06.02.09v.92l-.02.09-.04.06-.06.04-.09.02h-.75l-.09-.02-.06-.04-.04-.06-.02-.09v-.92Z"/>
    <path class="st2" d="M205.74,114.25l-.02.08-.04.05-.05.04-.08.02h-.72l-.08-.02-.05-.04-.04-.05-.02-.08v-1.01l.02-.08.04-.05.05-.04.08-.02h.72l.08.02.05.04.04.05.02.08v1.01Z"/>
    <path class="st2" d="M202.85,114.25l-.02.08-.04.05-.05.04-.08.02h-.72l-.08-.02-.05-.04-.04-.05-.02-.08v-1.01l.02-.08.04-.05.05-.04.08-.02h.72l.08.02.05.04.04.05.02.08v1.01Z"/>
    <path class="st2" d="M97.71,73.99h1.84v2.41h-1.84v-2.41Z"/>
    <path class="st2" d="M91.45,73.99h1.84v2.41h-1.84v-2.41Z"/>
    <path class="st2" d="M97.71,94.69h1.84v2.41h-1.84v-2.41Z"/>
    <path class="st2" d="M91.45,94.69h1.84v2.41h-1.84v-2.41Z"/>
    <path class="st2" d="M98.57,78.39h3.83v1.56h-3.83v-1.56Z"/>
    <path class="st2" d="M98.57,86.89h3.83v1.56h-3.83v-1.56Z"/>
    <path class="st2" d="M98.57,91.14h3.83v1.56h-3.83v-1.56Z"/>
    <path class="st2" d="M128.85,61.12l-.09-.02-.06-.04-.04-.06-.02-.09v-.75l.02-.09.04-.06.06-.04.09-.02h.92l.09.02.06.04.04.06.02.09v.75l-.02.09-.04.06-.06.04-.09.02h-.92Z"/>
    <path class="st2" d="M128.85,58.4l-.09-.02-.06-.04-.04-.06-.02-.09v-.75l.02-.09.04-.06.06-.04.09-.02h.92l.09.02.06.04.04.06.02.09v.75l-.02.09-.04.06-.06.04-.09.02h-.92Z"/>
    <path class="st2" d="M124.41,106.63l.02-.09.04-.06.06-.04.09-.02h.75l.09.02.06.04.04.06.02.09v.92l-.02.09-.04.06-.06.04-.09.02h-.75l-.09-.02-.06-.04-.04-.06-.02-.09v-.92Z"/>
    <path class="st2" d="M127.13,106.63l.02-.09.04-.06.06-.04.09-.02h.75l.09.02.06.04.04.06.02.09v.92l-.02.09-.04.06-.06.04-.09.02h-.75l-.09-.02-.06-.04-.04-.06-.02-.09v-.92Z"/>
    <path class="st2" d="M132.42,53.44h1.14v.14h-1.14v-.14Z"/>
    <path class="st2" d="M132.42,54.57h1.14v.14h-1.14v-.14Z"/>
    <path class="st2" d="M132.42,55.71h1.14v.14h-1.14v-.14Z"/>
    <path class="st2" d="M132.42,56.84h1.14v.14h-1.14v-.14Z"/>
    <path class="st2" d="M132.42,57.98h1.14v.14h-1.14v-.14Z"/>
    <path class="st2" d="M132.42,59.11h1.14v.14h-1.14v-.14Z"/>
    <path class="st2" d="M134.34,61.17v-1.14h.14v1.14h-.14Z"/>
    <path class="st2" d="M135.47,61.17v-1.14h.14v1.14h-.14Z"/>
    <path class="st2" d="M136.61,61.17v-1.14h.14v1.14h-.14Z"/>
    <path class="st2" d="M137.74,61.17v-1.14h.14v1.14h-.14Z"/>
    <path class="st2" d="M138.87,61.17v-1.14h.14v1.14h-.14Z"/>
    <path class="st2" d="M140.01,61.17v-1.14h.14v1.14h-.14Z"/>
    <path class="st2" d="M140.93,59.11h1.14v.14h-1.14v-.14Z"/>
    <path class="st2" d="M140.93,57.98h1.14v.14h-1.14v-.14Z"/>
    <path class="st2" d="M140.93,56.84h1.14v.14h-1.14v-.14Z"/>
    <path class="st2" d="M140.93,55.71h1.14v.14h-1.14v-.14Z"/>
    <path class="st2" d="M140.93,54.57h1.14v.14h-1.14v-.14Z"/>
    <path class="st2" d="M140.93,53.44h1.14v.14h-1.14v-.14Z"/>
    <path class="st2" d="M140.01,52.66v-1.14h.14v1.14h-.14Z"/>
    <path class="st2" d="M138.87,52.66v-1.14h.14v1.14h-.14Z"/>
    <path class="st2" d="M137.74,52.66v-1.14h.14v1.14h-.14Z"/>
    <path class="st2" d="M136.61,52.66v-1.14h.14v1.14h-.14Z"/>
    <path class="st2" d="M135.47,52.66v-1.14h.14v1.14h-.14Z"/>
    <path class="st2" d="M134.34,52.66v-1.14h.14v1.14h-.14Z"/>
    <path class="st2" d="M128.03,111.76l-.03.18-.09.13-.13.09-.18.03h-1.2l-.18-.03-.13-.09-.09-.13-.03-.18v-1.41l.03-.18.09-.13.13-.09.18-.03h1.2l.18.03.13.09.09.13.03.18v1.41Z"/>
    <path class="st2" d="M123.57,111.76l-.03.18-.09.13-.13.09-.18.03h-1.2l-.18-.03-.13-.09-.09-.13-.03-.18v-1.41l.03-.18.09-.13.13-.09.18-.03h1.2l.18.03.13.09.09.13.03.18v1.41Z"/>
    <path class="st2" d="M127.46,114.23l.09.02.06.04.04.06.02.09v.75l-.02.09-.04.06-.06.04-.09.02h-.92l-.09-.02-.06-.04-.04-.06-.02-.09v-.75l.02-.09.04-.06.06-.04.09-.02h.92Z"/>
    <path class="st2" d="M127.46,116.95l.09.02.06.04.04.06.02.09v.75l-.02.09-.04.06-.06.04-.09.02h-.92l-.09-.02-.06-.04-.04-.06-.02-.09v-.75l.02-.09.04-.06.06-.04.09-.02h.92Z"/>
    <path class="st2" d="M171.99,89.09l-.18-.04-.14-.09-.09-.14-.04-.18v-1.23l.04-.18.09-.14.14-.09.18-.04h1.38l.18.04.14.09.09.14.04.18v1.23l-.04.18-.09.14-.14.09-.18.04h-1.38Z"/>
    <path class="st2" d="M171.99,84.69l-.18-.04-.14-.09-.09-.14-.04-.18v-1.23l.04-.18.09-.14.14-.09.18-.04h1.38l.18.04.14.09.09.14.04.18v1.23l-.04.18-.09.14-.14.09-.18.04h-1.38Z"/>
    <path class="st2" d="M125.09,76.37l.09.02.06.04.04.06.02.09v.75l-.02.09-.04.06-.06.04-.09.02h-.92l-.09-.02-.06-.04-.04-.06-.02-.09v-.75l.02-.09.04-.06.06-.04.09-.02h.92Z"/>
    <path class="st2" d="M125.09,79.09l.09.02.06.04.04.06.02.09v.75l-.02.09-.04.06-.06.04-.09.02h-.92l-.09-.02-.06-.04-.04-.06-.02-.09v-.75l.02-.09.04-.06.06-.04.09-.02h.92Z"/>
    <path class="st2" d="M163.48,60.42l-.02.09-.04.06-.06.04-.09.02h-.75l-.09-.02-.06-.04-.04-.06-.02-.09v-.92l.02-.09.04-.06.06-.04.09-.02h.75l.09.02.06.04.04.06.02.09v.92Z"/>
    <path class="st2" d="M160.76,60.42l-.02.09-.04.06-.06.04-.09.02h-.75l-.09-.02-.06-.04-.04-.06-.02-.09v-.92l.02-.09.04-.06.06-.04.09-.02h.75l.09.02.06.04.04.06.02.09v.92Z"/>
    <path class="st2" d="M161.58,73.49l.02-.08.04-.05.05-.04.08-.02h.72l.08.02.05.04.04.05.02.08v1.01l-.02.08-.04.05-.05.04-.08.02h-.72l-.08-.02-.05-.04-.04-.05-.02-.08v-1.01Z"/>
    <path class="st2" d="M164.47,73.49l.02-.08.04-.05.05-.04.08-.02h.72l.08.02.05.04.04.05.02.08v1.01l-.02.08-.04.05-.05.04-.08.02h-.72l-.08-.02-.05-.04-.04-.05-.02-.08v-1.01Z"/>
    <path class="st2" d="M127.11,146.15l.02-.1.05-.07.07-.05.1-.02h.81l.1.02.07.05.05.07.02.1v3.5l-.02.1-.05.07-.07.05-.1.02h-.81l-.1-.02-.07-.05-.05-.07-.02-.1v-3.5Z"/>
    <path class="st2" d="M129.94,146.15l.02-.1.05-.07.07-.05.1-.02h.81l.1.02.07.05.05.07.02.1v3.5l-.02.1-.05.07-.07.05-.1.02h-.81l-.1-.02-.07-.05-.05-.07-.02-.1v-3.5Z"/>
    <path class="st2" d="M132.78,146.15l.02-.1.05-.07.07-.05.1-.02h.81l.1.02.07.05.05.07.02.1v3.5l-.02.1-.05.07-.07.05-.1.02h-.81l-.1-.02-.07-.05-.05-.07-.02-.1v-3.5Z"/>
    <path class="st2" d="M135.61,146.15l.02-.1.05-.07.07-.05.1-.02h.81l.1.02.07.05.05.07.02.1v3.5l-.02.1-.05.07-.07.05-.1.02h-.81l-.1-.02-.07-.05-.05-.07-.02-.1v-3.5Z"/>
    <path class="st2" d="M122.57,157.07l.04-.21.11-.16.16-.11.21-.04h1.94l.21.04.16.11.11.16.04.21v3.64l-.04.21-.11.16-.16.11-.21.04h-1.94l-.21-.04-.16-.11-.11-.16-.04-.21v-3.64Z"/>
    <path class="st2" d="M138.45,157.07l.04-.21.11-.16.16-.11.21-.04h1.94l.21.04.16.11.11.16.04.21v3.64l-.04.21-.11.16-.16.11-.21.04h-1.94l-.21-.04-.16-.11-.11-.16-.04-.21v-3.64Z"/>
    <path class="st2" d="M144.72,55.68l-.09-.02-.06-.04-.04-.06-.02-.09v-.75l.02-.09.04-.06.06-.04.09-.02h.92l.09.02.06.04.04.06.02.09v.75l-.02.09-.04.06-.06.04-.09.02h-.92Z"/>
    <path class="st2" d="M144.72,52.96l-.09-.02-.06-.04-.04-.06-.02-.09v-.75l.02-.09.04-.06.06-.04.09-.02h.92l.09.02.06.04.04.06.02.09v.75l-.02.09-.04.06-.06.04-.09.02h-.92Z"/>
    <path class="st2" d="M162.76,64.28v-.35h.28v.35h-.28Z"/>
    <path class="st2" d="M161.34,64.28v-.35h.28v.35h-.28Z"/>
    <path class="st2" d="M159.85,64.99v-.28h.35v.28h-.35Z"/>
    <path class="st2" d="M159.85,66.41v-.28h.35v.28h-.35Z"/>
    <path class="st2" d="M159.85,67.83v-.28h.35v.28h-.35Z"/>
    <path class="st2" d="M161.34,68.61v-.35h.28v.35h-.28Z"/>
    <path class="st2" d="M162.76,68.61v-.35h.28v.35h-.28Z"/>
    <path class="st2" d="M164.17,67.83v-.28h.35v.28h-.35Z"/>
    <path class="st2" d="M164.17,66.41v-.28h.35v.28h-.35Z"/>
    <path class="st2" d="M164.17,64.99v-.28h.35v.28h-.35Z"/>
    <path class="st2" d="M130.46,48.91l-.02.08-.04.05-.05.04-.08.02h-.72l-.08-.02-.05-.04-.04-.05-.02-.08v-1.01l.02-.08.04-.05.05-.04.08-.02h.72l.08.02.05.04.04.05.02.08v1.01Z"/>
    <path class="st2" d="M127.56,48.91l-.02.08-.04.05-.05.04-.08.02h-.72l-.08-.02-.05-.04-.04-.05-.02-.08v-1.01l.02-.08.04-.05.05-.04.08-.02h.72l.08.02.05.04.04.05.02.08v1.01Z"/>
    <path class="st2" d="M132.64,91.36h.02s3.94,0,3.94,0v.02s0,.4,0,.4h-.02s-3.94,0-3.94,0v-.02s0-.4,0-.4Z"/>
    <path class="st2" d="M132.64,92.78h.02s3.94,0,3.94,0v.02s0,.4,0,.4h-.02s-3.94,0-3.94,0v-.02s0-.4,0-.4Z"/>
    <path class="st2" d="M132.64,94.2h.02s3.94,0,3.94,0v.02s0,.4,0,.4h-.02s-3.94,0-3.94,0v-.02s0-.4,0-.4Z"/>
    <path class="st2" d="M132.64,95.61h.02s3.94,0,3.94,0v.02s0,.4,0,.4h-.02s-3.94,0-3.94,0v-.02s0-.4,0-.4Z"/>
    <path class="st2" d="M132.64,97.03h.02s3.94,0,3.94,0v.02s0,.4,0,.4h-.02s-3.94,0-3.94,0v-.02s0-.4,0-.4Z"/>
    <path class="st2" d="M132.64,98.45h.02s3.94,0,3.94,0v.02s0,.4,0,.4h-.02s-3.94,0-3.94,0v-.02s0-.4,0-.4Z"/>
    <path class="st2" d="M132.64,99.87h.02s3.94,0,3.94,0v.02s0,.4,0,.4h-.02s-3.94,0-3.94,0v-.02s0-.4,0-.4Z"/>
    <path class="st2" d="M132.64,101.28h.02s3.94,0,3.94,0v.02s0,.4,0,.4h-.02s-3.94,0-3.94,0v-.02s0-.4,0-.4Z"/>
    <path class="st2" d="M132.64,102.7h.02s3.94,0,3.94,0v.02s0,.4,0,.4h-.02s-3.94,0-3.94,0v-.02s0-.4,0-.4Z"/>
    <path class="st2" d="M132.64,104.12h.02s3.94,0,3.94,0v.02s0,.4,0,.4h-.02s-3.94,0-3.94,0v-.02s0-.4,0-.4Z"/>
    <path class="st2" d="M132.64,105.53h.02s3.94,0,3.94,0v.02s0,.4,0,.4h-.02s-3.94,0-3.94,0v-.02s0-.4,0-.4Z"/>
    <path class="st2" d="M132.64,106.95h.02s3.94,0,3.94,0v.02s0,.4,0,.4h-.02s-3.94,0-3.94,0v-.02s0-.4,0-.4Z"/>
    <path class="st2" d="M132.64,108.37h.02s3.94,0,3.94,0v.02s0,.4,0,.4h-.02s-3.94,0-3.94,0v-.02s0-.4,0-.4Z"/>
    <path class="st2" d="M132.64,109.79h.02s3.94,0,3.94,0v.02s0,.4,0,.4h-.02s-3.94,0-3.94,0v-.02s0-.4,0-.4Z"/>
    <path class="st2" d="M132.64,111.2h.02s3.94,0,3.94,0v.02s0,.4,0,.4h-.02s-3.94,0-3.94,0v-.02s0-.4,0-.4Z"/>
    <path class="st2" d="M132.64,112.62h.02s3.94,0,3.94,0v.02s0,.4,0,.4h-.02s-3.94,0-3.94,0v-.02s0-.4,0-.4Z"/>
    <path class="st2" d="M139.87,116.31h.02s.4,0,.4,0v.02s0,3.94,0,3.94h-.02s-.4,0-.4,0v-.02s0-3.94,0-3.94Z"/>
    <path class="st2" d="M141.29,116.31h.02s.4,0,.4,0v.02s0,3.94,0,3.94h-.02s-.4,0-.4,0v-.02s0-3.94,0-3.94Z"/>
    <path class="st2" d="M142.7,116.31h.02s.4,0,.4,0v.02s0,3.94,0,3.94h-.02s-.4,0-.4,0v-.02s0-3.94,0-3.94Z"/>
    <path class="st2" d="M144.12,116.31h.02s.4,0,.4,0v.02s0,3.94,0,3.94h-.02s-.4,0-.4,0v-.02s0-3.94,0-3.94Z"/>
    <path class="st2" d="M145.54,116.31h.02s.4,0,.4,0v.02s0,3.94,0,3.94h-.02s-.4,0-.4,0v-.02s0-3.94,0-3.94Z"/>
    <path class="st2" d="M146.95,116.31h.02s.4,0,.4,0v.02s0,3.94,0,3.94h-.02s-.4,0-.4,0v-.02s0-3.94,0-3.94Z"/>
    <path class="st2" d="M148.37,116.31h.02s.4,0,.4,0v.02s0,3.94,0,3.94h-.02s-.4,0-.4,0v-.02s0-3.94,0-3.94Z"/>
    <path class="st2" d="M149.79,116.31h.02s.4,0,.4,0v.02s0,3.94,0,3.94h-.02s-.4,0-.4,0v-.02s0-3.94,0-3.94Z"/>
    <path class="st2" d="M151.21,116.31h.02s.4,0,.4,0v.02s0,3.94,0,3.94h-.02s-.4,0-.4,0v-.02s0-3.94,0-3.94Z"/>
    <path class="st2" d="M152.62,116.31h.02s.4,0,.4,0v.02s0,3.94,0,3.94h-.02s-.4,0-.4,0v-.02s0-3.94,0-3.94Z"/>
    <path class="st2" d="M154.04,116.31h.02s.4,0,.4,0v.02s0,3.94,0,3.94h-.02s-.4,0-.4,0v-.02s0-3.94,0-3.94Z"/>
    <path class="st2" d="M155.46,116.31h.02s.4,0,.4,0v.02s0,3.94,0,3.94h-.02s-.4,0-.4,0v-.02s0-3.94,0-3.94Z"/>
    <path class="st2" d="M156.88,116.31h.02s.4,0,.4,0v.02s0,3.94,0,3.94h-.02s-.4,0-.4,0v-.02s0-3.94,0-3.94Z"/>
    <path class="st2" d="M158.29,116.31h.02s.4,0,.4,0v.02s0,3.94,0,3.94h-.02s-.4,0-.4,0v-.02s0-3.94,0-3.94Z"/>
    <path class="st2" d="M159.71,116.31h.02s.4,0,.4,0v.02s0,3.94,0,3.94h-.02s-.4,0-.4,0v-.02s0-3.94,0-3.94Z"/>
    <path class="st2" d="M161.13,116.31h.02s.4,0,.4,0v.02s0,3.94,0,3.94h-.02s-.4,0-.4,0v-.02s0-3.94,0-3.94Z"/>
    <path class="st2" d="M164.81,112.62h.02s3.94,0,3.94,0v.02s0,.4,0,.4h-.02s-3.94,0-3.94,0v-.02s0-.4,0-.4Z"/>
    <path class="st2" d="M164.81,111.2h.02s3.94,0,3.94,0v.02s0,.4,0,.4h-.02s-3.94,0-3.94,0v-.02s0-.4,0-.4Z"/>
    <path class="st2" d="M164.81,109.79h.02s3.94,0,3.94,0v.02s0,.4,0,.4h-.02s-3.94,0-3.94,0v-.02s0-.4,0-.4Z"/>
    <path class="st2" d="M164.81,108.37h.02s3.94,0,3.94,0v.02s0,.4,0,.4h-.02s-3.94,0-3.94,0v-.02s0-.4,0-.4Z"/>
    <path class="st2" d="M164.81,106.95h.02s3.94,0,3.94,0v.02s0,.4,0,.4h-.02s-3.94,0-3.94,0v-.02s0-.4,0-.4Z"/>
    <path class="st2" d="M164.81,105.53h.02s3.94,0,3.94,0v.02s0,.4,0,.4h-.02s-3.94,0-3.94,0v-.02s0-.4,0-.4Z"/>
    <path class="st2" d="M164.81,104.12h.02s3.94,0,3.94,0v.02s0,.4,0,.4h-.02s-3.94,0-3.94,0v-.02s0-.4,0-.4Z"/>
    <path class="st2" d="M164.81,102.7h.02s3.94,0,3.94,0v.02s0,.4,0,.4h-.02s-3.94,0-3.94,0v-.02s0-.4,0-.4Z"/>
    <path class="st2" d="M164.81,101.28h.02s3.94,0,3.94,0v.02s0,.4,0,.4h-.02s-3.94,0-3.94,0v-.02s0-.4,0-.4Z"/>
    <path class="st2" d="M164.81,99.87h.02s3.94,0,3.94,0v.02s0,.4,0,.4h-.02s-3.94,0-3.94,0v-.02s0-.4,0-.4Z"/>
    <path class="st2" d="M164.81,98.45h.02s3.94,0,3.94,0v.02s0,.4,0,.4h-.02s-3.94,0-3.94,0v-.02s0-.4,0-.4Z"/>
    <path class="st2" d="M164.81,97.03h.02s3.94,0,3.94,0v.02s0,.4,0,.4h-.02s-3.94,0-3.94,0v-.02s0-.4,0-.4Z"/>
    <path class="st2" d="M164.81,95.61h.02s3.94,0,3.94,0v.02s0,.4,0,.4h-.02s-3.94,0-3.94,0v-.02s0-.4,0-.4Z"/>
    <path class="st2" d="M164.81,94.2h.02s3.94,0,3.94,0v.02s0,.4,0,.4h-.02s-3.94,0-3.94,0v-.02s0-.4,0-.4Z"/>
    <path class="st2" d="M164.81,92.78h.02s3.94,0,3.94,0v.02s0,.4,0,.4h-.02s-3.94,0-3.94,0v-.02s0-.4,0-.4Z"/>
    <path class="st2" d="M164.81,91.36h.02s3.94,0,3.94,0v.02s0,.4,0,.4h-.02s-3.94,0-3.94,0v-.02s0-.4,0-.4Z"/>
    <path class="st2" d="M161.13,84.13h.02s.4,0,.4,0v.02s0,3.94,0,3.94h-.02s-.4,0-.4,0v-.02s0-3.94,0-3.94Z"/>
    <path class="st2" d="M159.71,84.13h.02s.4,0,.4,0v.02s0,3.94,0,3.94h-.02s-.4,0-.4,0v-.02s0-3.94,0-3.94Z"/>
    <path class="st2" d="M158.29,84.13h.02s.4,0,.4,0v.02s0,3.94,0,3.94h-.02s-.4,0-.4,0v-.02s0-3.94,0-3.94Z"/>
    <path class="st2" d="M156.88,84.13h.02s.4,0,.4,0v.02s0,3.94,0,3.94h-.02s-.4,0-.4,0v-.02s0-3.94,0-3.94Z"/>
    <path class="st2" d="M155.46,84.13h.02s.4,0,.4,0v.02s0,3.94,0,3.94h-.02s-.4,0-.4,0v-.02s0-3.94,0-3.94Z"/>
    <path class="st2" d="M154.04,84.13h.02s.4,0,.4,0v.02s0,3.94,0,3.94h-.02s-.4,0-.4,0v-.02s0-3.94,0-3.94Z"/>
    <path class="st2" d="M152.62,84.13h.02s.4,0,.4,0v.02s0,3.94,0,3.94h-.02s-.4,0-.4,0v-.02s0-3.94,0-3.94Z"/>
    <path class="st2" d="M151.21,84.13h.02s.4,0,.4,0v.02s0,3.94,0,3.94h-.02s-.4,0-.4,0v-.02s0-3.94,0-3.94Z"/>
    <path class="st2" d="M149.79,84.13h.02s.4,0,.4,0v.02s0,3.94,0,3.94h-.02s-.4,0-.4,0v-.02s0-3.94,0-3.94Z"/>
    <path class="st2" d="M148.37,84.13h.02s.4,0,.4,0v.02s0,3.94,0,3.94h-.02s-.4,0-.4,0v-.02s0-3.94,0-3.94Z"/>
    <path class="st2" d="M146.95,84.13h.02s.4,0,.4,0v.02s0,3.94,0,3.94h-.02s-.4,0-.4,0v-.02s0-3.94,0-3.94Z"/>
    <path class="st2" d="M145.54,84.13h.02s.4,0,.4,0v.02s0,3.94,0,3.94h-.02s-.4,0-.4,0v-.02s0-3.94,0-3.94Z"/>
    <path class="st2" d="M144.12,84.13h.02s.4,0,.4,0v.02s0,3.94,0,3.94h-.02s-.4,0-.4,0v-.02s0-3.94,0-3.94Z"/>
    <path class="st2" d="M142.7,84.13h.02s.4,0,.4,0v.02s0,3.94,0,3.94h-.02s-.4,0-.4,0v-.02s0-3.94,0-3.94Z"/>
    <path class="st2" d="M141.29,84.13h.02s.4,0,.4,0v.02s0,3.94,0,3.94h-.02s-.4,0-.4,0v-.02s0-3.94,0-3.94Z"/>
    <path class="st2" d="M139.87,84.13h.02s.4,0,.4,0v.02s0,3.94,0,3.94h-.02s-.4,0-.4,0v-.02s0-3.94,0-3.94Z"/>
    <path class="st2" d="M135.93,85.71l-.09-.02-.06-.04-.04-.06-.02-.09v-.75l.02-.09.04-.06.06-.04.09-.02h.92l.09.02.06.04.04.06.02.09v.75l-.02.09-.04.06-.06.04-.09.02h-.92Z"/>
    <path class="st2" d="M135.93,82.99l-.09-.02-.06-.04-.04-.06-.02-.09v-.75l.02-.09.04-.06.06-.04.09-.02h.92l.09.02.06.04.04.06.02.09v.75l-.02.09-.04.06-.06.04-.09.02h-.92Z"/>
    <path class="st2" d="M139.76,63.76l.09.02.06.04.04.06.02.09v.75l-.02.09-.04.06-.06.04-.09.02h-.92l-.09-.02-.06-.04-.04-.06-.02-.09v-.75l.02-.09.04-.06.06-.04.09-.02h.92Z"/>
    <path class="st2" d="M139.76,66.48l.09.02.06.04.04.06.02.09v.75l-.02.09-.04.06-.06.04-.09.02h-.92l-.09-.02-.06-.04-.04-.06-.02-.09v-.75l.02-.09.04-.06.06-.04.09-.02h.92Z"/>
    <path class="st2" d="M133.7,85.59l-.04.18-.09.14-.14.09-.18.04h-1.23l-.18-.04-.14-.09-.09-.14-.04-.18v-1.38l.04-.18.09-.14.14-.09.18-.04h1.23l.18.04.14.09.09.14.04.18v1.38Z"/>
    <path class="st2" d="M129.31,85.59l-.04.18-.09.14-.14.09-.18.04h-1.23l-.18-.04-.14-.09-.09-.14-.04-.18v-1.38l.04-.18.09-.14.14-.09.18-.04h1.23l.18.04.14.09.09.14.04.18v1.38Z"/>
    <path class="st2" d="M142.23,125.26l-.02.09-.04.06-.06.04-.09.02h-.75l-.09-.02-.06-.04-.04-.06-.02-.09v-.92l.02-.09.04-.06.06-.04.09-.02h.75l.09.02.06.04.04.06.02.09v.92Z"/>
    <path class="st2" d="M139.51,125.26l-.02.09-.04.06-.06.04-.09.02h-.75l-.09-.02-.06-.04-.04-.06-.02-.09v-.92l.02-.09.04-.06.06-.04.09-.02h.75l.09.02.06.04.04.06.02.09v.92Z"/>
    <path class="st2" d="M205.42,118.28l-.03.18-.09.13-.13.09-.18.03h-1.2l-.18-.03-.13-.09-.09-.13-.03-.18v-1.41l.03-.18.09-.13.13-.09.18-.03h1.2l.18.03.13.09.09.13.03.18v1.41Z"/>
    <path class="st2" d="M200.95,118.28l-.03.18-.09.13-.13.09-.18.03h-1.2l-.18-.03-.13-.09-.09-.13-.03-.18v-1.41l.03-.18.09-.13.13-.09.18-.03h1.2l.18.03.13.09.09.13.03.18v1.41Z"/>
    <path class="st2" d="M129.75,91.89l-.02.09-.04.06-.06.04-.09.02h-.75l-.09-.02-.06-.04-.04-.06-.02-.09v-.92l.02-.09.04-.06.06-.04.09-.02h.75l.09.02.06.04.04.06.02.09v.92Z"/>
    <path class="st2" d="M127.03,91.89l-.02.09-.04.06-.06.04-.09.02h-.75l-.09-.02-.06-.04-.04-.06-.02-.09v-.92l.02-.09.04-.06.06-.04.09-.02h.75l.09.02.06.04.04.06.02.09v.92Z"/>
    <path class="st2" d="M139.16,46.77l.02-.08.04-.05.05-.04.08-.02h.72l.08.02.05.04.04.05.02.08v1.01l-.02.08-.04.05-.05.04-.08.02h-.72l-.08-.02-.05-.04-.04-.05-.02-.08v-1.01Z"/>
    <path class="st2" d="M142.05,46.77l.02-.08.04-.05.05-.04.08-.02h.72l.08.02.05.04.04.05.02.08v1.01l-.02.08-.04.05-.05.04-.08.02h-.72l-.08-.02-.05-.04-.04-.05-.02-.08v-1.01Z"/>
    <path class="st2" d="M167.26,89.06l-.09-.02-.06-.04-.04-.06-.02-.09v-.75l.02-.09.04-.06.06-.04.09-.02h.92l.09.02.06.04.04.06.02.09v.75l-.02.09-.04.06-.06.04-.09.02h-.92Z"/>
    <path class="st2" d="M167.26,86.34l-.09-.02-.06-.04-.04-.06-.02-.09v-.75l.02-.09.04-.06.06-.04.09-.02h.92l.09.02.06.04.04.06.02.09v.75l-.02.09-.04.06-.06.04-.09.02h-.92Z"/>
    <path class="st2" d="M105.01,76.56v-1.59h2.38v1.59h-2.38Z"/>
    <path class="st2" d="M117.77,76.56v-1.59h2.38v1.59h-2.38Z"/>
    <path class="st2" d="M105.01,82.65v-1.59h2.38v1.59h-2.38Z"/>
    <path class="st2" d="M117.77,82.65v-1.59h2.38v1.59h-2.38Z"/>
    <path class="st2" d="M122.96,114.23l.09.02.06.04.04.06.02.09v.75l-.02.09-.04.06-.06.04-.09.02h-.92l-.09-.02-.06-.04-.04-.06-.02-.09v-.75l.02-.09.04-.06.06-.04.09-.02h.92Z"/>
    <path class="st2" d="M122.96,116.95l.09.02.06.04.04.06.02.09v.75l-.02.09-.04.06-.06.04-.09.02h-.92l-.09-.02-.06-.04-.04-.06-.02-.09v-.75l.02-.09.04-.06.06-.04.09-.02h.92Z"/>
    <path class="st2" d="M120.56,101.02l.09.02.06.04.04.06.02.09v.75l-.02.09-.04.06-.06.04-.09.02h-.92l-.09-.02-.06-.04-.04-.06-.02-.09v-.75l.02-.09.04-.06.06-.04.09-.02h.92Z"/>
    <path class="st2" d="M120.56,103.74l.09.02.06.04.04.06.02.09v.75l-.02.09-.04.06-.06.04-.09.02h-.92l-.09-.02-.06-.04-.04-.06-.02-.09v-.75l.02-.09.04-.06.06-.04.09-.02h.92Z"/>
    <path class="st2" d="M119.63,98.33l-.09-.02-.06-.04-.04-.06-.02-.09v-.75l.02-.09.04-.06.06-.04.09-.02h.92l.09.02.06.04.04.06.02.09v.75l-.02.09-.04.06-.06.04-.09.02h-.92Z"/>
    <path class="st2" d="M119.63,95.61l-.09-.02-.06-.04-.04-.06-.02-.09v-.75l.02-.09.04-.06.06-.04.09-.02h.92l.09.02.06.04.04.06.02.09v.75l-.02.09-.04.06-.06.04-.09.02h-.92Z"/>
    <path class="st2" d="M109.18,94.76h2.98v3.54h-2.98v-3.54Z"/>
    <path class="st2" d="M109.18,100.99h2.98v3.54h-2.98v-3.54Z"/>
    <path class="st2" d="M114,100.99h2.98v3.54h-2.98v-3.54Z"/>
    <path class="st2" d="M114,94.76h2.98v3.54h-2.98v-3.54Z"/>
    <path class="st2" d="M143.15,44.66l-.02.08-.04.05-.05.04-.08.02h-.72l-.08-.02-.05-.04-.04-.05-.02-.08v-1.01l.02-.08.04-.05.05-.04.08-.02h.72l.08.02.05.04.04.05.02.08v1.01Z"/>
    <path class="st2" d="M140.26,44.66l-.02.08-.04.05-.05.04-.08.02h-.72l-.08-.02-.05-.04-.04-.05-.02-.08v-1.01l.02-.08.04-.05.05-.04.08-.02h.72l.08.02.05.04.04.05.02.08v1.01Z"/>
    <path class="st2" d="M163.46,123.19l.04-.18.09-.14.14-.09.18-.04h1.23l.18.04.14.09.09.14.04.18v1.38l-.04.18-.09.14-.14.09-.18.04h-1.23l-.18-.04-.14-.09-.09-.14-.04-.18v-1.38Z"/>
    <path class="st2" d="M167.86,123.19l.04-.18.09-.14.14-.09.18-.04h1.23l.18.04.14.09.09.14.04.18v1.38l-.04.18-.09.14-.14.09-.18.04h-1.23l-.18-.04-.14-.09-.09-.14-.04-.18v-1.38Z"/>
    <path class="st2" d="M152.14,59.19l-.02.08-.04.05-.05.04-.08.02h-.72l-.08-.02-.05-.04-.04-.05-.02-.08v-1.01l.02-.08.04-.05.05-.04.08-.02h.72l.08.02.05.04.04.05.02.08v1.01Z"/>
    <path class="st2" d="M149.25,59.19l-.02.08-.04.05-.05.04-.08.02h-.72l-.08-.02-.05-.04-.04-.05-.02-.08v-1.01l.02-.08.04-.05.05-.04.08-.02h.72l.08.02.05.04.04.05.02.08v1.01Z"/>
    <path class="st2" d="M187.1,99.7l-.02.1-.05.07-.07.05-.1.02h-2.86l-.1-.02-.07-.05-.05-.07-.02-.1v-.81l.02-.1.05-.07.07-.05.1-.02h2.86l.1.02.07.05.05.07.02.1v.81Z"/>
    <path class="st2" d="M187.1,97l-.02.1-.05.07-.07.05-.1.02h-2.86l-.1-.02-.07-.05-.05-.07-.02-.1v-.81l.02-.1.05-.07.07-.05.1-.02h2.86l.1.02.07.05.05.07.02.1v.81Z"/>
    <path class="st2" d="M187.1,94.31l-.02.1-.05.07-.07.05-.1.02h-2.86l-.1-.02-.07-.05-.05-.07-.02-.1v-.81l.02-.1.05-.07.07-.05.1-.02h2.86l.1.02.07.05.05.07.02.1v.81Z"/>
    <path class="st2" d="M180.65,94.31l-.02.1-.05.07-.07.05-.1.02h-2.86l-.1-.02-.07-.05-.05-.07-.02-.1v-.81l.02-.1.05-.07.07-.05.1-.02h2.86l.1.02.07.05.05.07.02.1v.81Z"/>
    <path class="st2" d="M180.65,97l-.02.1-.05.07-.07.05-.1.02h-2.86l-.1-.02-.07-.05-.05-.07-.02-.1v-.81l.02-.1.05-.07.07-.05.1-.02h2.86l.1.02.07.05.05.07.02.1v.81Z"/>
    <path class="st2" d="M180.65,99.7l-.02.1-.05.07-.07.05-.1.02h-2.86l-.1-.02-.07-.05-.05-.07-.02-.1v-.81l.02-.1.05-.07.07-.05.1-.02h2.86l.1.02.07.05.05.07.02.1v.81Z"/>
    <path class="st2" d="M168.89,63.4l.09.02.06.04.04.06.02.09v.75l-.02.09-.04.06-.06.04-.09.02h-.92l-.09-.02-.06-.04-.04-.06-.02-.09v-.75l.02-.09.04-.06.06-.04.09-.02h.92Z"/>
    <path class="st2" d="M168.89,66.13l.09.02.06.04.04.06.02.09v.75l-.02.09-.04.06-.06.04-.09.02h-.92l-.09-.02-.06-.04-.04-.06-.02-.09v-.75l.02-.09.04-.06.06-.04.09-.02h.92Z"/>
    <rect class="st2" width="300" height="200"/>
  </g>
  <g id="Layer_1_copy">
    <path class="st2" d="M133.78,44.99l.08.02.05.04.04.05.02.08v.72l-.02.08-.04.05-.05.04-.08.02h-1.01l-.08-.02-.05-.04-.04-.05-.02-.08v-.72l.02-.08.04-.05.05-.04.08-.02h1.01Z"/>
    <path class="st2" d="M133.78,47.89l.08.02.05.04.04.05.02.08v.72l-.02.08-.04.05-.05.04-.08.02h-1.01l-.08-.02-.05-.04-.04-.05-.02-.08v-.72l.02-.08.04-.05.05-.04.08-.02h1.01Z"/>
    <path class="st2" d="M105.48,87.02l.02-.08.04-.05.05-.04.08-.02h.72l.08.02.05.04.04.05.02.08v1.01l-.02.08-.04.05-.05.04-.08.02h-.72l-.08-.02-.05-.04-.04-.05-.02-.08v-1.01Z"/>
    <path class="st2" d="M108.37,87.02l.02-.08.04-.05.05-.04.08-.02h.72l.08.02.05.04.04.05.02.08v1.01l-.02.08-.04.05-.05.04-.08.02h-.72l-.08-.02-.05-.04-.04-.05-.02-.08v-1.01Z"/>
    <path class="st2" d="M163.11,146.15l.02-.1.05-.07.07-.05.1-.02h.81l.1.02.07.05.05.07.02.1v3.5l-.02.1-.05.07-.07.05-.1.02h-.81l-.1-.02-.07-.05-.05-.07-.02-.1v-3.5Z"/>
    <path class="st2" d="M165.94,146.15l.02-.1.05-.07.07-.05.1-.02h.81l.1.02.07.05.05.07.02.1v3.5l-.02.1-.05.07-.07.05-.1.02h-.81l-.1-.02-.07-.05-.05-.07-.02-.1v-3.5Z"/>
    <path class="st2" d="M168.78,146.15l.02-.1.05-.07.07-.05.1-.02h.81l.1.02.07.05.05.07.02.1v3.5l-.02.1-.05.07-.07.05-.1.02h-.81l-.1-.02-.07-.05-.05-.07-.02-.1v-3.5Z"/>
    <path class="st2" d="M171.61,146.15l.02-.1.05-.07.07-.05.1-.02h.81l.1.02.07.05.05.07.02.1v3.5l-.02.1-.05.07-.07.05-.1.02h-.81l-.1-.02-.07-.05-.05-.07-.02-.1v-3.5Z"/>
    <path class="st2" d="M158.57,157.07l.04-.21.11-.16.16-.11.21-.04h1.94l.21.04.16.11.11.16.04.21v3.64l-.04.21-.11.16-.16.11-.21.04h-1.94l-.21-.04-.16-.11-.11-.16-.04-.21v-3.64Z"/>
    <path class="st2" d="M174.45,157.07l.04-.21.11-.16.16-.11.21-.04h1.94l.21.04.16.11.11.16.04.21v3.64l-.04.21-.11.16-.16.11-.21.04h-1.94l-.21-.04-.16-.11-.11-.16-.04-.21v-3.64Z"/>
    <path class="st2" d="M194.84,100.71h-3.26v-.85h3.26v.85Z"/>
    <path class="st2" d="M194.84,98.87h-3.26v-.85h3.26v.85Z"/>
    <path class="st2" d="M194.84,97.02h-3.26v-.85h3.26v.85Z"/>
    <path class="st2" d="M194.84,95.18h-3.26v-.85h3.26v.85Z"/>
    <path class="st2" d="M194.84,93.34h-3.26v-.85h3.26v.85Z"/>
    <path class="st2" d="M164.5,119.38l.02-.09.04-.06.06-.04.09-.02h.75l.09.02.06.04.04.06.02.09v.92l-.02.09-.04.06-.06.04-.09.02h-.75l-.09-.02-.06-.04-.04-.06-.02-.09v-.92Z"/>
    <path class="st2" d="M167.22,119.38l.02-.09.04-.06.06-.04.09-.02h.75l.09.02.06.04.04.06.02.09v.92l-.02.09-.04.06-.06.04-.09.02h-.75l-.09-.02-.06-.04-.04-.06-.02-.09v-.92Z"/>
    <path class="st2" d="M205.74,114.25l-.02.08-.04.05-.05.04-.08.02h-.72l-.08-.02-.05-.04-.04-.05-.02-.08v-1.01l.02-.08.04-.05.05-.04.08-.02h.72l.08.02.05.04.04.05.02.08v1.01Z"/>
    <path class="st2" d="M202.85,114.25l-.02.08-.04.05-.05.04-.08.02h-.72l-.08-.02-.05-.04-.04-.05-.02-.08v-1.01l.02-.08.04-.05.05-.04.08-.02h.72l.08.02.05.04.04.05.02.08v1.01Z"/>
    <path class="st2" d="M97.71,73.99h1.84v2.41h-1.84v-2.41Z"/>
    <path class="st2" d="M91.45,73.99h1.84v2.41h-1.84v-2.41Z"/>
    <path class="st2" d="M97.71,94.69h1.84v2.41h-1.84v-2.41Z"/>
    <path class="st2" d="M91.45,94.69h1.84v2.41h-1.84v-2.41Z"/>
    <path class="st2" d="M98.57,78.39h3.83v1.56h-3.83v-1.56Z"/>
    <path class="st2" d="M98.57,86.89h3.83v1.56h-3.83v-1.56Z"/>
    <path class="st2" d="M98.57,91.14h3.83v1.56h-3.83v-1.56Z"/>
    <path class="st2" d="M128.85,61.12l-.09-.02-.06-.04-.04-.06-.02-.09v-.75l.02-.09.04-.06.06-.04.09-.02h.92l.09.02.06.04.04.06.02.09v.75l-.02.09-.04.06-.06.04-.09.02h-.92Z"/>
    <path class="st2" d="M128.85,58.4l-.09-.02-.06-.04-.04-.06-.02-.09v-.75l.02-.09.04-.06.06-.04.09-.02h.92l.09.02.06.04.04.06.02.09v.75l-.02.09-.04.06-.06.04-.09.02h-.92Z"/>
    <path class="st2" d="M124.41,106.63l.02-.09.04-.06.06-.04.09-.02h.75l.09.02.06.04.04.06.02.09v.92l-.02.09-.04.06-.06.04-.09.02h-.75l-.09-.02-.06-.04-.04-.06-.02-.09v-.92Z"/>
    <path class="st2" d="M127.13,106.63l.02-.09.04-.06.06-.04.09-.02h.75l.09.02.06.04.04.06.02.09v.92l-.02.09-.04.06-.06.04-.09.02h-.75l-.09-.02-.06-.04-.04-.06-.02-.09v-.92Z"/>
    <path class="st2" d="M128.03,111.76l-.03.18-.09.13-.13.09-.18.03h-1.2l-.18-.03-.13-.09-.09-.13-.03-.18v-1.41l.03-.18.09-.13.13-.09.18-.03h1.2l.18.03.13.09.09.13.03.18v1.41Z"/>
    <path class="st2" d="M123.57,111.76l-.03.18-.09.13-.13.09-.18.03h-1.2l-.18-.03-.13-.09-.09-.13-.03-.18v-1.41l.03-.18.09-.13.13-.09.18-.03h1.2l.18.03.13.09.09.13.03.18v1.41Z"/>
    <path class="st2" d="M127.46,114.23l.09.02.06.04.04.06.02.09v.75l-.02.09-.04.06-.06.04-.09.02h-.92l-.09-.02-.06-.04-.04-.06-.02-.09v-.75l.02-.09.04-.06.06-.04.09-.02h.92Z"/>
    <path class="st2" d="M127.46,116.95l.09.02.06.04.04.06.02.09v.75l-.02.09-.04.06-.06.04-.09.02h-.92l-.09-.02-.06-.04-.04-.06-.02-.09v-.75l.02-.09.04-.06.06-.04.09-.02h.92Z"/>
    <path class="st2" d="M171.99,89.09l-.18-.04-.14-.09-.09-.14-.04-.18v-1.23l.04-.18.09-.14.14-.09.18-.04h1.38l.18.04.14.09.09.14.04.18v1.23l-.04.18-.09.14-.14.09-.18.04h-1.38Z"/>
    <path class="st2" d="M171.99,84.69l-.18-.04-.14-.09-.09-.14-.04-.18v-1.23l.04-.18.09-.14.14-.09.18-.04h1.38l.18.04.14.09.09.14.04.18v1.23l-.04.18-.09.14-.14.09-.18.04h-1.38Z"/>
    <path class="st2" d="M125.09,76.37l.09.02.06.04.04.06.02.09v.75l-.02.09-.04.06-.06.04-.09.02h-.92l-.09-.02-.06-.04-.04-.06-.02-.09v-.75l.02-.09.04-.06.06-.04.09-.02h.92Z"/>
    <path class="st2" d="M125.09,79.09l.09.02.06.04.04.06.02.09v.75l-.02.09-.04.06-.06.04-.09.02h-.92l-.09-.02-.06-.04-.04-.06-.02-.09v-.75l.02-.09.04-.06.06-.04.09-.02h.92Z"/>
    <path class="st2" d="M163.48,60.42l-.02.09-.04.06-.06.04-.09.02h-.75l-.09-.02-.06-.04-.04-.06-.02-.09v-.92l.02-.09.04-.06.06-.04.09-.02h.75l.09.02.06.04.04.06.02.09v.92Z"/>
    <path class="st2" d="M160.76,60.42l-.02.09-.04.06-.06.04-.09.02h-.75l-.09-.02-.06-.04-.04-.06-.02-.09v-.92l.02-.09.04-.06.06-.04.09-.02h.75l.09.02.06.04.04.06.02.09v.92Z"/>
    <path class="st2" d="M161.58,73.49l.02-.08.04-.05.05-.04.08-.02h.72l.08.02.05.04.04.05.02.08v1.01l-.02.08-.04.05-.05.04-.08.02h-.72l-.08-.02-.05-.04-.04-.05-.02-.08v-1.01Z"/>
    <path class="st2" d="M164.47,73.49l.02-.08.04-.05.05-.04.08-.02h.72l.08.02.05.04.04.05.02.08v1.01l-.02.08-.04.05-.05.04-.08.02h-.72l-.08-.02-.05-.04-.04-.05-.02-.08v-1.01Z"/>
    <path class="st2" d="M127.11,146.15l.02-.1.05-.07.07-.05.1-.02h.81l.1.02.07.05.05.07.02.1v3.5l-.02.1-.05.07-.07.05-.1.02h-.81l-.1-.02-.07-.05-.05-.07-.02-.1v-3.5Z"/>
    <path class="st2" d="M129.94,146.15l.02-.1.05-.07.07-.05.1-.02h.81l.1.02.07.05.05.07.02.1v3.5l-.02.1-.05.07-.07.05-.1.02h-.81l-.1-.02-.07-.05-.05-.07-.02-.1v-3.5Z"/>
    <path class="st2" d="M132.78,146.15l.02-.1.05-.07.07-.05.1-.02h.81l.1.02.07.05.05.07.02.1v3.5l-.02.1-.05.07-.07.05-.1.02h-.81l-.1-.02-.07-.05-.05-.07-.02-.1v-3.5Z"/>
    <path class="st2" d="M135.61,146.15l.02-.1.05-.07.07-.05.1-.02h.81l.1.02.07.05.05.07.02.1v3.5l-.02.1-.05.07-.07.05-.1.02h-.81l-.1-.02-.07-.05-.05-.07-.02-.1v-3.5Z"/>
    <path class="st2" d="M122.57,157.07l.04-.21.11-.16.16-.11.21-.04h1.94l.21.04.16.11.11.16.04.21v3.64l-.04.21-.11.16-.16.11-.21.04h-1.94l-.21-.04-.16-.11-.11-.16-.04-.21v-3.64Z"/>
    <path class="st2" d="M138.45,157.07l.04-.21.11-.16.16-.11.21-.04h1.94l.21.04.16.11.11.16.04.21v3.64l-.04.21-.11.16-.16.11-.21.04h-1.94l-.21-.04-.16-.11-.11-.16-.04-.21v-3.64Z"/>
    <path class="st2" d="M144.72,55.68l-.09-.02-.06-.04-.04-.06-.02-.09v-.75l.02-.09.04-.06.06-.04.09-.02h.92l.09.02.06.04.04.06.02.09v.75l-.02.09-.04.06-.06.04-.09.02h-.92Z"/>
    <path class="st2" d="M144.72,52.96l-.09-.02-.06-.04-.04-.06-.02-.09v-.75l.02-.09.04-.06.06-.04.09-.02h.92l.09.02.06.04.04.06.02.09v.75l-.02.09-.04.06-.06.04-.09.02h-.92Z"/>
    <path class="st2" d="M162.76,64.28v-.35h.28v.35h-.28Z"/>
    <path class="st2" d="M161.34,64.28v-.35h.28v.35h-.28Z"/>
    <path class="st2" d="M159.85,64.99v-.28h.35v.28h-.35Z"/>
    <path class="st2" d="M159.85,66.41v-.28h.35v.28h-.35Z"/>
    <path class="st2" d="M159.85,67.83v-.28h.35v.28h-.35Z"/>
    <path class="st2" d="M161.34,68.61v-.35h.28v.35h-.28Z"/>
    <path class="st2" d="M162.76,68.61v-.35h.28v.35h-.28Z"/>
    <path class="st2" d="M164.17,67.83v-.28h.35v.28h-.35Z"/>
    <path class="st2" d="M164.17,66.41v-.28h.35v.28h-.35Z"/>
    <path class="st2" d="M164.17,64.99v-.28h.35v.28h-.35Z"/>
    <path class="st2" d="M130.46,48.91l-.02.08-.04.05-.05.04-.08.02h-.72l-.08-.02-.05-.04-.04-.05-.02-.08v-1.01l.02-.08.04-.05.05-.04.08-.02h.72l.08.02.05.04.04.05.02.08v1.01Z"/>
    <path class="st2" d="M127.56,48.91l-.02.08-.04.05-.05.04-.08.02h-.72l-.08-.02-.05-.04-.04-.05-.02-.08v-1.01l.02-.08.04-.05.05-.04.08-.02h.72l.08.02.05.04.04.05.02.08v1.01Z"/>
    <path class="st2" d="M135.93,85.71l-.09-.02-.06-.04-.04-.06-.02-.09v-.75l.02-.09.04-.06.06-.04.09-.02h.92l.09.02.06.04.04.06.02.09v.75l-.02.09-.04.06-.06.04-.09.02h-.92Z"/>
    <path class="st2" d="M135.93,82.99l-.09-.02-.06-.04-.04-.06-.02-.09v-.75l.02-.09.04-.06.06-.04.09-.02h.92l.09.02.06.04.04.06.02.09v.75l-.02.09-.04.06-.06.04-.09.02h-.92Z"/>
    <path class="st2" d="M139.76,63.76l.09.02.06.04.04.06.02.09v.75l-.02.09-.04.06-.06.04-.09.02h-.92l-.09-.02-.06-.04-.04-.06-.02-.09v-.75l.02-.09.04-.06.06-.04.09-.02h.92Z"/>
    <path class="st2" d="M139.76,66.48l.09.02.06.04.04.06.02.09v.75l-.02.09-.04.06-.06.04-.09.02h-.92l-.09-.02-.06-.04-.04-.06-.02-.09v-.75l.02-.09.04-.06.06-.04.09-.02h.92Z"/>
    <path class="st2" d="M133.7,85.59l-.04.18-.09.14-.14.09-.18.04h-1.23l-.18-.04-.14-.09-.09-.14-.04-.18v-1.38l.04-.18.09-.14.14-.09.18-.04h1.23l.18.04.14.09.09.14.04.18v1.38Z"/>
    <path class="st2" d="M129.31,85.59l-.04.18-.09.14-.14.09-.18.04h-1.23l-.18-.04-.14-.09-.09-.14-.04-.18v-1.38l.04-.18.09-.14.14-.09.18-.04h1.23l.18.04.14.09.09.14.04.18v1.38Z"/>
    <path class="st2" d="M142.23,125.26l-.02.09-.04.06-.06.04-.09.02h-.75l-.09-.02-.06-.04-.04-.06-.02-.09v-.92l.02-.09.04-.06.06-.04.09-.02h.75l.09.02.06.04.04.06.02.09v.92Z"/>
    <path class="st2" d="M139.51,125.26l-.02.09-.04.06-.06.04-.09.02h-.75l-.09-.02-.06-.04-.04-.06-.02-.09v-.92l.02-.09.04-.06.06-.04.09-.02h.75l.09.02.06.04.04.06.02.09v.92Z"/>
    <path class="st2" d="M205.42,118.28l-.03.18-.09.13-.13.09-.18.03h-1.2l-.18-.03-.13-.09-.09-.13-.03-.18v-1.41l.03-.18.09-.13.13-.09.18-.03h1.2l.18.03.13.09.09.13.03.18v1.41Z"/>
    <path class="st2" d="M200.95,118.28l-.03.18-.09.13-.13.09-.18.03h-1.2l-.18-.03-.13-.09-.09-.13-.03-.18v-1.41l.03-.18.09-.13.13-.09.18-.03h1.2l.18.03.13.09.09.13.03.18v1.41Z"/>
    <path class="st2" d="M129.75,91.89l-.02.09-.04.06-.06.04-.09.02h-.75l-.09-.02-.06-.04-.04-.06-.02-.09v-.92l.02-.09.04-.06.06-.04.09-.02h.75l.09.02.06.04.04.06.02.09v.92Z"/>
    <path class="st2" d="M127.03,91.89l-.02.09-.04.06-.06.04-.09.02h-.75l-.09-.02-.06-.04-.04-.06-.02-.09v-.92l.02-.09.04-.06.06-.04.09-.02h.75l.09.02.06.04.04.06.02.09v.92Z"/>
    <path class="st2" d="M139.16,46.77l.02-.08.04-.05.05-.04.08-.02h.72l.08.02.05.04.04.05.02.08v1.01l-.02.08-.04.05-.05.04-.08.02h-.72l-.08-.02-.05-.04-.04-.05-.02-.08v-1.01Z"/>
    <path class="st2" d="M142.05,46.77l.02-.08.04-.05.05-.04.08-.02h.72l.08.02.05.04.04.05.02.08v1.01l-.02.08-.04.05-.05.04-.08.02h-.72l-.08-.02-.05-.04-.04-.05-.02-.08v-1.01Z"/>
    <path class="st2" d="M167.26,89.06l-.09-.02-.06-.04-.04-.06-.02-.09v-.75l.02-.09.04-.06.06-.04.09-.02h.92l.09.02.06.04.04.06.02.09v.75l-.02.09-.04.06-.06.04-.09.02h-.92Z"/>
    <path class="st2" d="M167.26,86.34l-.09-.02-.06-.04-.04-.06-.02-.09v-.75l.02-.09.04-.06.06-.04.09-.02h.92l.09.02.06.04.04.06.02.09v.75l-.02.09-.04.06-.06.04-.09.02h-.92Z"/>
    <path class="st2" d="M105.01,76.56v-1.59h2.38v1.59h-2.38Z"/>
    <path class="st2" d="M117.77,76.56v-1.59h2.38v1.59h-2.38Z"/>
    <path class="st2" d="M105.01,82.65v-1.59h2.38v1.59h-2.38Z"/>
    <path class="st2" d="M117.77,82.65v-1.59h2.38v1.59h-2.38Z"/>
    <path class="st2" d="M122.96,114.23l.09.02.06.04.04.06.02.09v.75l-.02.09-.04.06-.06.04-.09.02h-.92l-.09-.02-.06-.04-.04-.06-.02-.09v-.75l.02-.09.04-.06.06-.04.09-.02h.92Z"/>
    <path class="st2" d="M122.96,116.95l.09.02.06.04.04.06.02.09v.75l-.02.09-.04.06-.06.04-.09.02h-.92l-.09-.02-.06-.04-.04-.06-.02-.09v-.75l.02-.09.04-.06.06-.04.09-.02h.92Z"/>
    <path class="st2" d="M120.56,101.02l.09.02.06.04.04.06.02.09v.75l-.02.09-.04.06-.06.04-.09.02h-.92l-.09-.02-.06-.04-.04-.06-.02-.09v-.75l.02-.09.04-.06.06-.04.09-.02h.92Z"/>
    <path class="st2" d="M120.56,103.74l.09.02.06.04.04.06.02.09v.75l-.02.09-.04.06-.06.04-.09.02h-.92l-.09-.02-.06-.04-.04-.06-.02-.09v-.75l.02-.09.04-.06.06-.04.09-.02h.92Z"/>
    <path class="st2" d="M119.63,98.33l-.09-.02-.06-.04-.04-.06-.02-.09v-.75l.02-.09.04-.06.06-.04.09-.02h.92l.09.02.06.04.04.06.02.09v.75l-.02.09-.04.06-.06.04-.09.02h-.92Z"/>
    <path class="st2" d="M119.63,95.61l-.09-.02-.06-.04-.04-.06-.02-.09v-.75l.02-.09.04-.06.06-.04.09-.02h.92l.09.02.06.04.04.06.02.09v.75l-.02.09-.04.06-.06.04-.09.02h-.92Z"/>
    <path class="st2" d="M109.18,94.76h2.98v3.54h-2.98v-3.54Z"/>
    <path class="st2" d="M109.18,100.99h2.98v3.54h-2.98v-3.54Z"/>
    <path class="st2" d="M114,100.99h2.98v3.54h-2.98v-3.54Z"/>
    <path class="st2" d="M114,94.76h2.98v3.54h-2.98v-3.54Z"/>
    <path class="st2" d="M143.15,44.66l-.02.08-.04.05-.05.04-.08.02h-.72l-.08-.02-.05-.04-.04-.05-.02-.08v-1.01l.02-.08.04-.05.05-.04.08-.02h.72l.08.02.05.04.04.05.02.08v1.01Z"/>
    <path class="st2" d="M140.26,44.66l-.02.08-.04.05-.05.04-.08.02h-.72l-.08-.02-.05-.04-.04-.05-.02-.08v-1.01l.02-.08.04-.05.05-.04.08-.02h.72l.08.02.05.04.04.05.02.08v1.01Z"/>
    <path class="st2" d="M163.46,123.19l.04-.18.09-.14.14-.09.18-.04h1.23l.18.04.14.09.09.14.04.18v1.38l-.04.18-.09.14-.14.09-.18.04h-1.23l-.18-.04-.14-.09-.09-.14-.04-.18v-1.38Z"/>
    <path class="st2" d="M167.86,123.19l.04-.18.09-.14.14-.09.18-.04h1.23l.18.04.14.09.09.14.04.18v1.38l-.04.18-.09.14-.14.09-.18.04h-1.23l-.18-.04-.14-.09-.09-.14-.04-.18v-1.38Z"/>
    <path class="st2" d="M152.14,59.19l-.02.08-.04.05-.05.04-.08.02h-.72l-.08-.02-.05-.04-.04-.05-.02-.08v-1.01l.02-.08.04-.05.05-.04.08-.02h.72l.08.02.05.04.04.05.02.08v1.01Z"/>
    <path class="st2" d="M149.25,59.19l-.02.08-.04.05-.05.04-.08.02h-.72l-.08-.02-.05-.04-.04-.05-.02-.08v-1.01l.02-.08.04-.05.05-.04.08-.02h.72l.08.02.05.04.04.05.02.08v1.01Z"/>
    <path class="st2" d="M187.1,99.7l-.02.1-.05.07-.07.05-.1.02h-2.86l-.1-.02-.07-.05-.05-.07-.02-.1v-.81l.02-.1.05-.07.07-.05.1-.02h2.86l.1.02.07.05.05.07.02.1v.81Z"/>
    <path class="st2" d="M187.1,97l-.02.1-.05.07-.07.05-.1.02h-2.86l-.1-.02-.07-.05-.05-.07-.02-.1v-.81l.02-.1.05-.07.07-.05.1-.02h2.86l.1.02.07.05.05.07.02.1v.81Z"/>
    <path class="st2" d="M187.1,94.31l-.02.1-.05.07-.07.05-.1.02h-2.86l-.1-.02-.07-.05-.05-.07-.02-.1v-.81l.02-.1.05-.07.07-.05.1-.02h2.86l.1.02.07.05.05.07.02.1v.81Z"/>
    <path class="st2" d="M180.65,94.31l-.02.1-.05.07-.07.05-.1.02h-2.86l-.1-.02-.07-.05-.05-.07-.02-.1v-.81l.02-.1.05-.07.07-.05.1-.02h2.86l.1.02.07.05.05.07.02.1v.81Z"/>
    <path class="st2" d="M180.65,97l-.02.1-.05.07-.07.05-.1.02h-2.86l-.1-.02-.07-.05-.05-.07-.02-.1v-.81l.02-.1.05-.07.07-.05.1-.02h2.86l.1.02.07.05.05.07.02.1v.81Z"/>
    <path class="st2" d="M180.65,99.7l-.02.1-.05.07-.07.05-.1.02h-2.86l-.1-.02-.07-.05-.05-.07-.02-.1v-.81l.02-.1.05-.07.07-.05.1-.02h2.86l.1.02.07.05.05.07.02.1v.81Z"/>
    <path class="st2" d="M168.89,63.4l.09.02.06.04.04.06.02.09v.75l-.02.09-.04.06-.06.04-.09.02h-.92l-.09-.02-.06-.04-.04-.06-.02-.09v-.75l.02-.09.04-.06.06-.04.09-.02h.92Z"/>
    <path class="st2" d="M168.89,66.13l.09.02.06.04.04.06.02.09v.75l-.02.09-.04.06-.06.04-.09.02h-.92l-.09-.02-.06-.04-.04-.06-.02-.09v-.75l.02-.09.04-.06.06-.04.09-.02h.92Z"/>
    <rect class="st2" width="300" height="200"/>
  </g>
  <g id="Layer_4">
    <g>
      <line class="st2" x1="140.08" y1="84.13" x2="140.08" y2="88.09"/>
      <line class="st2" x1="141.5" y1="84.13" x2="141.5" y2="88.09"/>
      <line class="st2" x1="142.91" y1="84.13" x2="142.91" y2="88.09"/>
      <line class="st2" x1="144.33" y1="84.13" x2="144.33" y2="88.09"/>
      <line class="st2" x1="145.75" y1="84.13" x2="145.75" y2="88.09"/>
      <line class="st2" x1="147.17" y1="84.13" x2="147.17" y2="88.09"/>
      <line class="st2" x1="148.58" y1="84.13" x2="148.58" y2="88.09"/>
      <line class="st2" x1="150" y1="84.13" x2="150" y2="88.09"/>
      <line class="st2" x1="151.42" y1="84.13" x2="151.42" y2="88.09"/>
      <line class="st2" x1="152.83" y1="84.13" x2="152.83" y2="88.09"/>
      <line class="st2" x1="154.25" y1="84.13" x2="154.25" y2="88.09"/>
      <line class="st2" x1="155.67" y1="84.13" x2="155.67" y2="88.09"/>
      <line class="st2" x1="157.09" y1="84.13" x2="157.09" y2="88.09"/>
      <line class="st2" x1="158.5" y1="84.13" x2="158.5" y2="88.09"/>
      <line class="st2" x1="159.92" y1="84.13" x2="159.92" y2="88.09"/>
      <line class="st2" x1="161.34" y1="84.13" x2="161.34" y2="88.09"/>
    </g>
    <g>
      <line class="st2" x1="136.61" y1="91.55" x2="132.64" y2="91.55"/>
      <line class="st2" x1="136.61" y1="92.97" x2="132.64" y2="92.97"/>
      <line class="st2" x1="136.61" y1="94.39" x2="132.64" y2="94.39"/>
      <line class="st2" x1="136.61" y1="95.8" x2="132.64" y2="95.8"/>
      <line class="st2" x1="136.61" y1="97.22" x2="132.64" y2="97.22"/>
      <line class="st2" x1="136.61" y1="98.64" x2="132.64" y2="98.64"/>
      <line class="st2" x1="136.61" y1="100.06" x2="132.64" y2="100.06"/>
      <line class="st2" x1="136.61" y1="101.47" x2="132.64" y2="101.47"/>
      <line class="st2" x1="136.61" y1="102.89" x2="132.64" y2="102.89"/>
      <line class="st2" x1="136.61" y1="104.31" x2="132.64" y2="104.31"/>
      <line class="st2" x1="136.61" y1="105.73" x2="132.64" y2="105.73"/>
      <line class="st2" x1="136.61" y1="107.14" x2="132.64" y2="107.14"/>
      <line class="st2" x1="136.61" y1="108.56" x2="132.64" y2="108.56"/>
      <line class="st2" x1="136.61" y1="109.98" x2="132.64" y2="109.98"/>
      <line class="st2" x1="136.61" y1="111.4" x2="132.64" y2="111.4"/>
      <line class="st2" x1="136.61" y1="112.81" x2="132.64" y2="112.81"/>
    </g>
    <g>
      <line class="st2" x1="140.07" y1="116.3" x2="140.07" y2="120.27"/>
      <line class="st2" x1="141.48" y1="116.3" x2="141.48" y2="120.27"/>
      <line class="st2" x1="142.9" y1="116.3" x2="142.9" y2="120.27"/>
      <line class="st2" x1="144.32" y1="116.3" x2="144.32" y2="120.27"/>
      <line class="st2" x1="145.74" y1="116.3" x2="145.74" y2="120.27"/>
      <line class="st2" x1="147.15" y1="116.3" x2="147.15" y2="120.27"/>
      <line class="st2" x1="148.57" y1="116.3" x2="148.57" y2="120.27"/>
      <line class="st2" x1="149.99" y1="116.3" x2="149.99" y2="120.27"/>
      <line class="st2" x1="151.41" y1="116.3" x2="151.41" y2="120.27"/>
      <line class="st2" x1="152.82" y1="116.3" x2="152.82" y2="120.27"/>
      <line class="st2" x1="154.24" y1="116.3" x2="154.24" y2="120.27"/>
      <line class="st2" x1="155.66" y1="116.3" x2="155.66" y2="120.27"/>
      <line class="st2" x1="157.08" y1="116.3" x2="157.08" y2="120.27"/>
      <line class="st2" x1="158.49" y1="116.3" x2="158.49" y2="120.27"/>
      <line class="st2" x1="159.91" y1="116.3" x2="159.91" y2="120.27"/>
      <line class="st2" x1="161.33" y1="116.3" x2="161.33" y2="120.27"/>
    </g>
    <g>
      <line class="st2" x1="168.78" y1="91.56" x2="164.81" y2="91.56"/>
      <line class="st2" x1="168.78" y1="92.98" x2="164.81" y2="92.98"/>
      <line class="st2" x1="168.78" y1="94.4" x2="164.81" y2="94.4"/>
      <line class="st2" x1="168.78" y1="95.81" x2="164.81" y2="95.81"/>
      <line class="st2" x1="168.78" y1="97.23" x2="164.81" y2="97.23"/>
      <line class="st2" x1="168.78" y1="98.65" x2="164.81" y2="98.65"/>
      <line class="st2" x1="168.78" y1="100.07" x2="164.81" y2="100.07"/>
      <line class="st2" x1="168.78" y1="101.48" x2="164.81" y2="101.48"/>
      <line class="st2" x1="168.78" y1="102.9" x2="164.81" y2="102.9"/>
      <line class="st2" x1="168.78" y1="104.32" x2="164.81" y2="104.32"/>
      <line class="st2" x1="168.78" y1="105.73" x2="164.81" y2="105.73"/>
      <line class="st2" x1="168.78" y1="107.15" x2="164.81" y2="107.15"/>
      <line class="st2" x1="168.78" y1="108.57" x2="164.81" y2="108.57"/>
      <line class="st2" x1="168.78" y1="109.99" x2="164.81" y2="109.99"/>
      <line class="st2" x1="168.78" y1="111.4" x2="164.81" y2="111.4"/>
      <line class="st2" x1="168.78" y1="112.82" x2="164.81" y2="112.82"/>
    </g>
    <g>
      <line class="st2" x1="134.41" y1="51.53" x2="134.41" y2="52.66"/>
      <line class="st2" x1="135.54" y1="51.53" x2="135.54" y2="52.66"/>
      <line class="st2" x1="136.68" y1="51.53" x2="136.68" y2="52.66"/>
      <line class="st2" x1="137.81" y1="51.53" x2="137.81" y2="52.66"/>
      <line class="st2" x1="138.94" y1="51.53" x2="138.94" y2="52.66"/>
      <line class="st2" x1="140.08" y1="51.53" x2="140.08" y2="52.66"/>
    </g>
    <g>
      <line class="st2" x1="142.06" y1="53.51" x2="140.93" y2="53.51"/>
      <line class="st2" x1="142.06" y1="54.65" x2="140.93" y2="54.65"/>
      <line class="st2" x1="142.06" y1="55.78" x2="140.93" y2="55.78"/>
      <line class="st2" x1="142.06" y1="56.91" x2="140.93" y2="56.91"/>
      <line class="st2" x1="142.06" y1="58.05" x2="140.93" y2="58.05"/>
      <line class="st2" x1="142.06" y1="59.18" x2="140.93" y2="59.18"/>
    </g>
    <g>
      <line class="st2" x1="133.56" y1="53.51" x2="132.42" y2="53.51"/>
      <line class="st2" x1="133.56" y1="54.65" x2="132.42" y2="54.65"/>
      <line class="st2" x1="133.56" y1="55.78" x2="132.42" y2="55.78"/>
      <line class="st2" x1="133.56" y1="56.91" x2="132.42" y2="56.91"/>
      <line class="st2" x1="133.56" y1="58.05" x2="132.42" y2="58.05"/>
      <line class="st2" x1="133.56" y1="59.18" x2="132.42" y2="59.18"/>
    </g>
    <g>
      <line class="st2" x1="134.41" y1="60.03" x2="134.41" y2="61.17"/>
      <line class="st2" x1="135.54" y1="60.03" x2="135.54" y2="61.17"/>
      <line class="st2" x1="136.68" y1="60.03" x2="136.68" y2="61.17"/>
      <line class="st2" x1="137.81" y1="60.03" x2="137.81" y2="61.17"/>
      <line class="st2" x1="138.94" y1="60.03" x2="138.94" y2="61.17"/>
      <line class="st2" x1="140.08" y1="60.03" x2="140.08" y2="61.17"/>
    </g>
  </g>
  <g id="Layer_2" class="st0">
    <path class="st1" d="M110.88,159.53l-.04-.53-.12-.52-.2-.49-.28-.46-.35-.41-.41-.35-.46-.28-.49-.2-.52-.12-.53-.04-2.95-.26-2.86-.77-2.69-1.25-2.43-1.7-2.1-2.1-1.7-2.43-1.25-2.69-.77-2.86-.26-2.95V54.08l.26-2.95.77-2.86,1.25-2.69,1.7-2.43,2.1-2.1,2.43-1.7,2.69-1.25,2.86-.77,2.95-.26h85.04l2.95.26,2.86.77,2.69,1.25,2.43,1.7,2.1,2.1,1.7,2.43,1.25,2.69.77,2.86.26,2.95v85.04l-.26,2.95-.77,2.86-1.25,2.69-1.7,2.43-2.1,2.1-2.43,1.7-2.69,1.25-2.86.77-2.95.26-.53.04-.52.12-.49.2-.46.28-.41.35-.35.41-.28.46-.2.49-.12.52-.04.53-.04.53-.12.52-.2.49-.28.46-.35.41-.41.35-.46.28-.49.2-.52.12-.53.04h-71.43l-.53-.04-.52-.12-.49-.2-.46-.28-.41-.35-.35-.41-.28-.46-.2-.49-.12-.52-.04-.53Z"/>
  </g>
</svg>