<svg xmlns="http://www.w3.org/2000/svg" xmlns:xlink="http://www.w3.org/1999/xlink" width="10.16cm" height="10.16cm" viewBox="0 0 101.6 101.6">
<path fill="none" stroke="#0000FF" stroke-width="0.06614583333333333"
  d="M 54.77499999999999,68.31762429405748 L
  54.76794082090506,68.35316788002672
  54.75202184826286,68.37702184826287
  54.72816788002671,68.39294082090507
  54.69262429405748,68.39999999999999
  54.407375705942506,68.39999999999999
  54.371832119973284,68.39294082090507
  54.34797815173713,68.37702184826287
  54.33205917909493,68.35316788002672
  54.324999999999996,68.31762429405748
  54.324999999999996,67.08237570594252
  54.33205917909493,67.04683211997329
  54.347978151737124,67.02297815173714
  54.37183211997329,67.00705917909494
  54.40737570594251,67.0
  54.692624294057474,67.0
  54.7281678800267,67.00705917909494
  54.752021848262864,67.02297815173714
  54.76794082090506,67.04683211997329
  54.77499999999999,67.08237570594252
  Z" />
<path fill="none" stroke="#0000FF" stroke-width="0.06614583333333333"
  d="M 53.77499999999999,68.31762429405748 L
  53.76794082090506,68.35316788002672
  53.75202184826286,68.37702184826287
  53.72816788002671,68.39294082090507
  53.69262429405748,68.39999999999999
  53.407375705942506,68.39999999999999
  53.371832119973284,68.39294082090507
  53.34797815173713,68.37702184826287
  53.33205917909493,68.35316788002672
  53.324999999999996,68.31762429405748
  53.324999999999996,67.08237570594252
  53.33205917909493,67.04683211997329
  53.347978151737124,67.02297815173714
  53.37183211997329,67.00705917909494
  53.40737570594251,67.0
  53.692624294057474,67.0
  53.7281678800267,67.00705917909494
  53.752021848262864,67.02297815173714
  53.76794082090506,67.04683211997329
  53.77499999999999,67.08237570594252
  Z" />
<path fill="none" stroke="#0000FF" stroke-width="0.06614583333333333"
  d="M 52.77499999999999,68.31762429405748 L
  52.76794082090506,68.35316788002672
  52.75202184826286,68.37702184826287
  52.72816788002671,68.39294082090507
  52.69262429405748,68.39999999999999
  52.407375705942506,68.39999999999999
  52.371832119973284,68.39294082090507
  52.34797815173713,68.37702184826287
  52.33205917909493,68.35316788002672
  52.324999999999996,68.31762429405748
  52.324999999999996,67.08237570594252
  52.33205917909493,67.04683211997329
  52.347978151737124,67.02297815173714
  52.37183211997329,67.00705917909494
  52.40737570594251,67.0
  52.692624294057474,67.0
  52.7281678800267,67.00705917909494
  52.752021848262864,67.02297815173714
  52.76794082090506,67.04683211997329
  52.77499999999999,67.08237570594252
  Z" />
<path fill="none" stroke="#0000FF" stroke-width="0.06614583333333333"
  d="M 51.77499999999999,68.31762429405748 L
  51.76794082090506,68.35316788002672
  51.75202184826286,68.37702184826287
  51.72816788002671,68.39294082090507
  51.69262429405748,68.39999999999999
  51.407375705942506,68.39999999999999
  51.371832119973284,68.39294082090507
  51.34797815173713,68.37702184826287
  51.33205917909493,68.35316788002672
  51.324999999999996,68.31762429405748
  51.324999999999996,67.08237570594252
  51.33205917909493,67.04683211997329
  51.347978151737124,67.02297815173714
  51.37183211997329,67.00705917909494
  51.40737570594251,67.0
  51.692624294057474,67.0
  51.7281678800267,67.00705917909494
  51.752021848262864,67.02297815173714
  51.76794082090506,67.04683211997329
  51.77499999999999,67.08237570594252
  Z" />
<path fill="none" stroke="#0000FF" stroke-width="0.06614583333333333"
  d="M 50.77499999999999,68.31762429405748 L
  50.76794082090506,68.35316788002672
  50.75202184826286,68.37702184826287
  50.72816788002671,68.39294082090507
  50.69262429405748,68.39999999999999
  50.407375705942506,68.39999999999999
  50.371832119973284,68.39294082090507
  50.34797815173713,68.37702184826287
  50.33205917909493,68.35316788002672
  50.324999999999996,68.31762429405748
  50.324999999999996,67.08237570594252
  50.33205917909493,67.04683211997329
  50.347978151737124,67.02297815173714
  50.37183211997329,67.00705917909494
  50.40737570594251,67.0
  50.692624294057474,67.0
  50.7281678800267,67.00705917909494
  50.752021848262864,67.02297815173714
  50.76794082090506,67.04683211997329
  50.77499999999999,67.08237570594252
  Z" />
<path fill="none" stroke="#0000FF" stroke-width="0.06614583333333333"
  d="M 49.77499999999999,68.31762429405748 L
  49.76794082090506,68.35316788002672
  49.75202184826286,68.37702184826287
  49.72816788002671,68.39294082090507
  49.69262429405748,68.39999999999999
  49.407375705942506,68.39999999999999
  49.371832119973284,68.39294082090507
  49.34797815173713,68.37702184826287
  49.33205917909493,68.35316788002672
  49.324999999999996,68.31762429405748
  49.324999999999996,67.08237570594252
  49.33205917909493,67.04683211997329
  49.347978151737124,67.02297815173714
  49.37183211997329,67.00705917909494
  49.40737570594251,67.0
  49.692624294057474,67.0
  49.7281678800267,67.00705917909494
  49.752021848262864,67.02297815173714
  49.76794082090506,67.04683211997329
  49.77499999999999,67.08237570594252
  Z" />
<path fill="none" stroke="#0000FF" stroke-width="0.06614583333333333"
  d="M 48.77499999999999,68.31762429405748 L
  48.76794082090506,68.35316788002672
  48.75202184826286,68.37702184826287
  48.72816788002671,68.39294082090507
  48.69262429405748,68.39999999999999
  48.407375705942506,68.39999999999999
  48.371832119973284,68.39294082090507
  48.34797815173713,68.37702184826287
  48.33205917909493,68.35316788002672
  48.324999999999996,68.31762429405748
  48.324999999999996,67.08237570594252
  48.33205917909493,67.04683211997329
  48.347978151737124,67.02297815173714
  48.37183211997329,67.00705917909494
  48.40737570594251,67.0
  48.692624294057474,67.0
  48.7281678800267,67.00705917909494
  48.752021848262864,67.02297815173714
  48.76794082090506,67.04683211997329
  48.77499999999999,67.08237570594252
  Z" />
<path fill="none" stroke="#0000FF" stroke-width="0.06614583333333333"
  d="M 47.77499999999999,68.31762429405748 L
  47.76794082090506,68.35316788002672
  47.75202184826286,68.37702184826287
  47.72816788002671,68.39294082090507
  47.69262429405748,68.39999999999999
  47.407375705942506,68.39999999999999
  47.371832119973284,68.39294082090507
  47.34797815173713,68.37702184826287
  47.33205917909493,68.35316788002672
  47.324999999999996,68.31762429405748
  47.324999999999996,67.08237570594252
  47.33205917909493,67.04683211997329
  47.347978151737124,67.02297815173714
  47.37183211997329,67.00705917909494
  47.40737570594251,67.0
  47.692624294057474,67.0
  47.7281678800267,67.00705917909494
  47.752021848262864,67.02297815173714
  47.76794082090506,67.04683211997329
  47.77499999999999,67.08237570594252
  Z" />
<path fill="none" stroke="#0000FF" stroke-width="0.06614583333333333"
  d="M 56.37499999999999,72.21762681390393 L
  56.36034441885026,72.29144466211602
  56.3227289952361,72.3477289952361
  56.26644466211602,72.38534441885025
  56.19262681390393,72.39999999999999
  55.50737318609606,72.39999999999999
  55.433555337883966,72.38534441885025
  55.37727100476389,72.3477289952361
  55.33965558114973,72.29144466211602
  55.324999999999996,72.21762681390393
  55.324999999999996,70.93237318609607
  55.33965558114973,70.85855533788397
  55.37727100476389,70.8022710047639
  55.433555337883966,70.76465558114973
  55.50737318609606,70.75
  56.19262681390393,70.75
  56.26644466211602,70.76465558114973
  56.3227289952361,70.8022710047639
  56.36034441885026,70.85855533788397
  56.37499999999999,70.93237318609607
  Z" />
<path fill="none" stroke="#0000FF" stroke-width="0.06614583333333333"
  d="M 46.77499999999999,72.21762681390393 L
  46.76034441885026,72.29144466211602
  46.722728995236096,72.3477289952361
  46.66644466211602,72.38534441885025
  46.59262681390393,72.39999999999999
  45.907373186096066,72.39999999999999
  45.833555337883965,72.38534441885025
  45.77727100476389,72.3477289952361
  45.739655581149734,72.29144466211602
  45.724999999999994,72.21762681390393
  45.724999999999994,70.93237318609607
  45.739655581149734,70.85855533788397
  45.77727100476389,70.8022710047639
  45.833555337883965,70.76465558114973
  45.907373186096066,70.75
  46.59262681390393,70.75
  46.66644466211602,70.76465558114973
  46.722728995236096,70.8022710047639
  46.76034441885026,70.85855533788397
  46.77499999999999,70.93237318609607
  Z" />
<path fill="none" stroke="#0000FF" stroke-width="0.06614583333333333"
  d="M 59.17499999999999,64.26762681390393 L
  59.16034441885026,64.34144466211603
  59.122728995236095,64.3977289952361
  59.06644466211602,64.43534441885026
  58.992626813903925,64.44999999999999
  58.50737318609606,64.44999999999999
  58.433555337883966,64.43534441885026
  58.37727100476389,64.3977289952361
  58.33965558114973,64.34144466211603
  58.324999999999996,64.26762681390393
  58.324999999999996,63.33237318609606
  58.33965558114973,63.25855533788397
  58.37727100476389,63.202271004763894
  58.433555337883966,63.16465558114973
  58.50737318609606,63.15
  58.992626813903925,63.15
  59.06644466211602,63.16465558114973
  59.122728995236095,63.202271004763894
  59.16034441885026,63.25855533788397
  59.17499999999999,63.33237318609606
  Z" />
<path fill="none" stroke="#0000FF" stroke-width="0.06614583333333333"
  d="M 57.27499999999999,64.26762681390393 L
  57.26034441885026,64.34144466211603
  57.222728995236096,64.3977289952361
  57.16644466211602,64.43534441885026
  57.09262681390393,64.44999999999999
  56.60737318609606,64.44999999999999
  56.53355533788397,64.43534441885026
  56.47727100476389,64.3977289952361
  56.43965558114973,64.34144466211603
  56.425,64.26762681390393
  56.425,63.33237318609606
  56.43965558114973,63.25855533788397
  56.47727100476389,63.202271004763894
  56.53355533788397,63.16465558114973
  56.60737318609606,63.15
  57.09262681390393,63.15
  57.16644466211602,63.16465558114973
  57.222728995236096,63.202271004763894
  57.26034441885026,63.25855533788397
  57.27499999999999,63.33237318609606
  Z" />
<path fill="none" stroke="#0000FF" stroke-width="0.06614583333333333"
  d="M 47.724999999999994,47.09262429405747 L
  47.71224681820422,47.15683768309935
  47.680030350280425,47.20503035028043
  47.63183768309935,47.23724681820423
  47.56762429405748,47.24999999999999
  47.13237570594251,47.24999999999999
  47.06816231690064,47.23724681820423
  47.019969649719556,47.20503035028043
  46.98775318179577,47.15683768309935
  46.974999999999994,47.09262429405748
  46.974999999999994,46.607375705942516
  46.98775318179577,46.54316231690065
  47.019969649719556,46.494969649719565
  47.06816231690064,46.46275318179577
  47.13237570594251,46.45
  47.56762429405748,46.45
  47.63183768309935,46.46275318179577
  47.680030350280425,46.494969649719565
  47.71224681820422,46.54316231690065
  47.724999999999994,46.607375705942516
  Z" />
<path fill="none" stroke="#0000FF" stroke-width="0.06614583333333333"
  d="M 46.175,47.09262429405748 L
  46.162246818204224,47.15683768309935
  46.13003035028043,47.20503035028043
  46.081837683099344,47.23724681820423
  46.01762429405748,47.24999999999999
  45.58237570594251,47.24999999999999
  45.51816231690064,47.23724681820423
  45.46996964971956,47.20503035028043
  45.43775318179577,47.15683768309935
  45.425,47.09262429405748
  45.425,46.607375705942516
  45.43775318179577,46.54316231690065
  45.46996964971956,46.494969649719565
  45.51816231690064,46.46275318179577
  45.58237570594251,46.45
  46.01762429405748,46.45
  46.081837683099344,46.46275318179577
  46.13003035028043,46.494969649719565
  46.162246818204224,46.54316231690065
  46.175,46.607375705942516
  Z" />
<path fill="none" stroke="#0000FF" stroke-width="0.06614583333333333"
  d="M 45.69499999999999,32.0223982892023 L
  45.70094988134167,31.992533350817382
  45.71358326913196,31.973583269131957
  45.73253335081738,31.960949881341673
  45.762398289202295,31.954999999999995
  46.01760171079769,31.954999999999995
  46.04746664918261,31.960949881341673
  46.066416730868035,31.973583269131957
  46.079050118658316,31.992533350817382
  46.084999999999994,32.0223982892023
  46.084999999999994,32.3776017107977
  46.079050118658316,32.40746664918261
  46.066416730868035,32.42641673086804
  46.04746664918261,32.43905011865832
  46.01760171079769,32.44499999999999
  45.762398289202295,32.44499999999999
  45.73253335081738,32.43905011865832
  45.71358326913196,32.42641673086804
  45.70094988134167,32.40746664918261
  45.69499999999999,32.37760171079769
  Z" />
<path fill="none" stroke="#0000FF" stroke-width="0.06614583333333333"
  d="M 46.71499999999999,32.0223982892023 L
  46.72094988134167,31.992533350817382
  46.733583269131955,31.973583269131957
  46.75253335081738,31.960949881341673
  46.7823982892023,31.954999999999995
  47.03760171079769,31.954999999999995
  47.067466649182606,31.960949881341673
  47.08641673086804,31.973583269131957
  47.09905011865832,31.99253335081738
  47.10499999999999,32.0223982892023
  47.10499999999999,32.37760171079769
  47.09905011865832,32.40746664918261
  47.08641673086804,32.42641673086804
  47.067466649182606,32.43905011865832
  47.037601710797695,32.44499999999999
  46.78239828920229,32.44499999999999
  46.75253335081738,32.43905011865832
  46.733583269131955,32.42641673086804
  46.72094988134167,32.40746664918261
  46.71499999999999,32.37760171079769
  Z" />
<path fill="none" stroke="#0000FF" stroke-width="0.06614583333333333"
  d="M 47.0875,40.732375705942516 L
  47.09455917909493,40.69683211997329
  47.11047815173713,40.67297815173713
  47.13433211997329,40.65705917909493
  47.169875705942516,40.64999999999999
  48.18012429405747,40.64999999999999
  48.21566788002671,40.65705917909493
  48.23952184826287,40.67297815173713
  48.25544082090506,40.69683211997328
  48.26249999999999,40.732375705942516
  48.26249999999999,41.017624294057484
  48.25544082090506,41.053167880026706
  48.23952184826286,41.07702184826286
  48.21566788002671,41.09294082090506
  48.18012429405748,41.099999999999994
  47.16987570594251,41.099999999999994
  47.13433211997329,41.09294082090506
  47.110478151737134,41.07702184826286
  47.09455917909493,41.053167880026706
  47.0875,41.017624294057484
  Z" />
<path fill="none" stroke="#0000FF" stroke-width="0.06614583333333333"
  d="M 47.0875,39.78237570594251 L
  47.09455917909493,39.74683211997329
  47.11047815173713,39.72297815173713
  47.13433211997329,39.70705917909493
  47.169875705942516,39.699999999999996
  48.18012429405747,39.699999999999996
  48.21566788002671,39.70705917909493
  48.23952184826287,39.72297815173713
  48.25544082090506,39.746832119973284
  48.26249999999999,39.78237570594251
  48.26249999999999,40.06762429405748
  48.25544082090506,40.10316788002671
  48.23952184826287,40.127021848262864
  48.21566788002671,40.14294082090507
  48.18012429405747,40.15
  47.169875705942516,40.15
  47.13433211997329,40.14294082090507
  47.11047815173713,40.127021848262864
  47.09455917909493,40.1031678800267
  47.0875,40.06762429405748
  Z" />
<path fill="none" stroke="#0000FF" stroke-width="0.06614583333333333"
  d="M 47.0875,38.83237570594251 L
  47.09455917909493,38.79683211997329
  47.110478151737134,38.772978151737135
  47.13433211997329,38.75705917909493
  47.16987570594251,38.75
  48.18012429405748,38.75
  48.21566788002671,38.75705917909493
  48.23952184826286,38.772978151737135
  48.25544082090506,38.79683211997329
  48.26249999999999,38.83237570594251
  48.26249999999999,39.11762429405748
  48.25544082090506,39.153167880026714
  48.23952184826287,39.17702184826287
  48.21566788002671,39.192940820905065
  48.18012429405747,39.2
  47.169875705942516,39.2
  47.13433211997329,39.192940820905065
  47.11047815173713,39.17702184826287
  47.09455917909493,39.15316788002671
  47.0875,39.11762429405748
  Z" />
<path fill="none" stroke="#0000FF" stroke-width="0.06614583333333333"
  d="M 49.3625,38.83237570594251 L
  49.36955917909493,38.79683211997329
  49.38547815173713,38.77297815173713
  49.409332119973286,38.75705917909493
  49.44487570594251,38.75
  50.45512429405748,38.75
  50.490667880026706,38.75705917909493
  50.51452184826286,38.772978151737135
  50.53044082090506,38.79683211997329
  50.537499999999994,38.83237570594251
  50.537499999999994,39.11762429405748
  50.53044082090506,39.15316788002671
  50.514521848262866,39.17702184826287
  50.490667880026706,39.192940820905065
  50.45512429405747,39.2
  49.444875705942515,39.2
  49.409332119973286,39.192940820905065
  49.38547815173713,39.17702184826287
  49.36955917909493,39.15316788002671
  49.3625,39.11762429405748
  Z" />
<path fill="none" stroke="#0000FF" stroke-width="0.06614583333333333"
  d="M 49.3625,39.78237570594251 L
  49.36955917909493,39.74683211997329
  49.38547815173713,39.72297815173713
  49.409332119973286,39.70705917909493
  49.444875705942515,39.699999999999996
  50.45512429405747,39.699999999999996
  50.490667880026706,39.70705917909493
  50.514521848262866,39.72297815173713
  50.53044082090506,39.74683211997329
  50.537499999999994,39.78237570594251
  50.537499999999994,40.06762429405748
  50.53044082090506,40.1031678800267
  50.514521848262866,40.127021848262864
  50.490667880026706,40.14294082090507
  50.45512429405747,40.15
  49.444875705942515,40.15
  49.409332119973286,40.14294082090507
  49.38547815173713,40.127021848262864
  49.36955917909493,40.1031678800267
  49.3625,40.06762429405748
  Z" />
<path fill="none" stroke="#0000FF" stroke-width="0.06614583333333333"
  d="M 49.3625,40.732375705942516 L
  49.36955917909493,40.69683211997329
  49.38547815173713,40.67297815173713
  49.409332119973286,40.65705917909493
  49.444875705942515,40.64999999999999
  50.45512429405747,40.64999999999999
  50.490667880026706,40.65705917909493
  50.514521848262866,40.67297815173713
  50.53044082090506,40.69683211997329
  50.537499999999994,40.732375705942516
  50.537499999999994,41.017624294057484
  50.53044082090506,41.053167880026706
  50.51452184826286,41.07702184826286
  50.490667880026706,41.09294082090506
  50.45512429405748,41.099999999999994
  49.44487570594251,41.099999999999994
  49.409332119973286,41.09294082090506
  49.38547815173713,41.077021848262866
  49.36955917909493,41.053167880026706
  49.3625,41.017624294057484
  Z" />
<path fill="none" stroke="#0000FF" stroke-width="0.06614583333333333"
  d="M 41.9875,40.732375705942516 L
  41.99455917909493,40.69683211997329
  42.01047815173713,40.67297815173713
  42.034332119973286,40.65705917909493
  42.06987570594251,40.64999999999999
  43.08012429405748,40.64999999999999
  43.115667880026706,40.65705917909493
  43.13952184826286,40.67297815173713
  43.155440820905056,40.69683211997329
  43.162499999999994,40.732375705942516
  43.162499999999994,41.017624294057484
  43.155440820905056,41.053167880026706
  43.13952184826286,41.07702184826286
  43.115667880026706,41.09294082090506
  43.08012429405748,41.099999999999994
  42.06987570594251,41.099999999999994
  42.034332119973286,41.09294082090506
  42.01047815173713,41.07702184826286
  41.99455917909493,41.053167880026706
  41.9875,41.017624294057484
  Z" />
<path fill="none" stroke="#0000FF" stroke-width="0.06614583333333333"
  d="M 41.9875,39.78237570594251 L
  41.99455917909493,39.74683211997329
  42.01047815173713,39.72297815173713
  42.034332119973286,39.70705917909493
  42.06987570594251,39.699999999999996
  43.08012429405748,39.699999999999996
  43.115667880026706,39.70705917909493
  43.13952184826286,39.72297815173713
  43.155440820905056,39.74683211997329
  43.162499999999994,39.78237570594251
  43.162499999999994,40.06762429405748
  43.155440820905056,40.1031678800267
  43.13952184826286,40.127021848262864
  43.115667880026706,40.14294082090507
  43.08012429405748,40.15
  42.06987570594251,40.15
  42.034332119973286,40.14294082090507
  42.01047815173713,40.127021848262864
  41.99455917909493,40.1031678800267
  41.9875,40.06762429405748
  Z" />
<path fill="none" stroke="#0000FF" stroke-width="0.06614583333333333"
  d="M 41.9875,38.83237570594251 L
  41.99455917909493,38.79683211997329
  42.01047815173713,38.772978151737135
  42.034332119973286,38.75705917909493
  42.06987570594251,38.75
  43.08012429405748,38.75
  43.115667880026706,38.75705917909493
  43.13952184826286,38.772978151737135
  43.155440820905056,38.79683211997329
  43.162499999999994,38.83237570594251
  43.162499999999994,39.11762429405748
  43.155440820905056,39.15316788002671
  43.13952184826286,39.17702184826287
  43.115667880026706,39.192940820905065
  43.08012429405748,39.2
  42.06987570594251,39.2
  42.034332119973286,39.192940820905065
  42.01047815173713,39.17702184826287
  41.99455917909493,39.15316788002671
  41.9875,39.11762429405748
  Z" />
<path fill="none" stroke="#0000FF" stroke-width="0.06614583333333333"
  d="M 44.26249999999999,38.83237570594251 L
  44.26955917909493,38.79683211997329
  44.285478151737124,38.772978151737135
  44.309332119973284,38.75705917909493
  44.34487570594251,38.75
  45.355124294057475,38.75
  45.390667880026704,38.75705917909493
  45.414521848262865,38.772978151737135
  45.43044082090506,38.79683211997329
  45.4375,38.83237570594251
  45.4375,39.11762429405748
  45.43044082090506,39.15316788002671
  45.414521848262865,39.17702184826287
  45.390667880026704,39.192940820905065
  45.355124294057475,39.2
  44.34487570594251,39.2
  44.309332119973284,39.192940820905065
  44.285478151737124,39.17702184826287
  44.26955917909493,39.15316788002671
  44.26249999999999,39.11762429405748
  Z" />
<path fill="none" stroke="#0000FF" stroke-width="0.06614583333333333"
  d="M 44.26249999999999,39.78237570594251 L
  44.26955917909493,39.74683211997329
  44.285478151737124,39.72297815173713
  44.309332119973284,39.70705917909493
  44.34487570594251,39.699999999999996
  45.355124294057475,39.699999999999996
  45.390667880026704,39.70705917909493
  45.414521848262865,39.72297815173713
  45.43044082090506,39.74683211997329
  45.4375,39.78237570594251
  45.4375,40.06762429405748
  45.43044082090506,40.1031678800267
  45.414521848262865,40.127021848262864
  45.390667880026704,40.14294082090507
  45.355124294057475,40.15
  44.34487570594251,40.15
  44.309332119973284,40.14294082090507
  44.285478151737124,40.127021848262864
  44.26955917909493,40.1031678800267
  44.26249999999999,40.06762429405748
  Z" />
<path fill="none" stroke="#0000FF" stroke-width="0.06614583333333333"
  d="M 44.26249999999999,40.732375705942516 L
  44.26955917909493,40.69683211997329
  44.285478151737124,40.67297815173713
  44.309332119973284,40.65705917909493
  44.34487570594251,40.64999999999999
  45.355124294057475,40.64999999999999
  45.390667880026704,40.65705917909493
  45.414521848262865,40.67297815173713
  45.43044082090506,40.69683211997329
  45.4375,40.732375705942516
  45.4375,41.017624294057484
  45.43044082090506,41.053167880026706
  45.414521848262865,41.07702184826286
  45.390667880026704,41.09294082090506
  45.355124294057475,41.099999999999994
  44.34487570594251,41.099999999999994
  44.309332119973284,41.09294082090506
  44.285478151737124,41.07702184826286
  44.26955917909493,41.053167880026706
  44.26249999999999,41.017624294057484
  Z" />
<path fill="none" stroke="#0000FF" stroke-width="0.06614583333333333"
  d="M 52.06762681390393,61.375 L
  52.14144466211602,61.38965558114973
  52.1977289952361,61.427271004763895
  52.23534441885026,61.48355533788397
  52.24999999999999,61.557373186096065
  52.24999999999999,62.04262681390393
  52.23534441885026,62.116444662116024
  52.1977289952361,62.1727289952361
  52.14144466211602,62.21034441885026
  52.06762681390393,62.224999999999994
  51.13237318609606,62.224999999999994
  51.058555337883966,62.21034441885026
  51.00227100476389,62.1727289952361
  50.96465558114973,62.116444662116024
  50.949999999999996,62.04262681390393
  50.949999999999996,61.557373186096065
  50.96465558114973,61.48355533788397
  51.00227100476389,61.427271004763895
  51.058555337883966,61.38965558114973
  51.13237318609606,61.375
  Z" />
<path fill="none" stroke="#0000FF" stroke-width="0.06614583333333333"
  d="M 52.06762681390393,63.275 L
  52.14144466211602,63.28965558114973
  52.1977289952361,63.327271004763894
  52.23534441885026,63.38355533788397
  52.24999999999999,63.45737318609606
  52.24999999999999,63.94262681390393
  52.23534441885026,64.01644466211602
  52.1977289952361,64.0727289952361
  52.14144466211602,64.11034441885026
  52.06762681390393,64.125
  51.13237318609606,64.125
  51.058555337883966,64.11034441885026
  51.00227100476389,64.0727289952361
  50.96465558114973,64.01644466211602
  50.949999999999996,63.94262681390393
  50.949999999999996,63.45737318609606
  50.96465558114973,63.38355533788397
  51.00227100476389,63.327271004763894
  51.058555337883966,63.28965558114973
  51.13237318609606,63.275
  Z" />
<path fill="none" stroke="#0000FF" stroke-width="0.06614583333333333"
  d="M 48.887499999999996,57.80737570594252 L
  48.89455917909493,57.77183211997329
  48.910478151737124,57.747978151737136
  48.93433211997329,57.73205917909493
  48.96987570594251,57.725
  50.130124294057474,57.725
  50.1656678800267,57.73205917909493
  50.189521848262864,57.74797815173713
  50.20544082090506,57.77183211997329
  50.21249999999999,57.80737570594252
  50.21249999999999,58.09262429405747
  50.20544082090506,58.12816788002671
  50.18952184826286,58.15202184826287
  50.1656678800267,58.167940820905066
  50.130124294057474,58.175
  48.96987570594251,58.175
  48.93433211997329,58.167940820905066
  48.91047815173713,58.15202184826286
  48.89455917909493,58.12816788002671
  48.887499999999996,58.09262429405747
  Z" />
<path fill="none" stroke="#0000FF" stroke-width="0.06614583333333333"
  d="M 48.887499999999996,55.90737570594252 L
  48.89455917909493,55.871832119973284
  48.91047815173713,55.84797815173713
  48.934332119973284,55.832059179094934
  48.969875705942506,55.825
  50.13012429405748,55.825
  50.16566788002671,55.832059179094934
  50.18952184826286,55.847978151737124
  50.20544082090506,55.871832119973284
  50.21249999999999,55.90737570594252
  50.21249999999999,56.192624294057474
  50.20544082090506,56.22816788002671
  50.18952184826286,56.25202184826287
  50.16566788002671,56.26794082090506
  50.13012429405748,56.27499999999999
  48.969875705942506,56.27499999999999
  48.934332119973284,56.26794082090506
  48.91047815173713,56.252021848262864
  48.89455917909493,56.22816788002671
  48.887499999999996,56.192624294057474
  Z" />
<path fill="none" stroke="#0000FF" stroke-width="0.06614583333333333"
  d="M 50.762499999999996,56.857375705942516 L
  50.76955917909493,56.821832119973294
  50.78547815173713,56.797978151737134
  50.80933211997329,56.78205917909493
  50.84487570594251,56.775
  52.005124294057474,56.775
  52.0406678800267,56.78205917909493
  52.06452184826286,56.79797815173713
  52.08044082090506,56.821832119973294
  52.08749999999999,56.857375705942516
  52.08749999999999,57.14262429405748
  52.08044082090506,57.178167880026706
  52.064521848262864,57.202021848262866
  52.0406678800267,57.21794082090506
  52.005124294057474,57.224999999999994
  50.84487570594251,57.224999999999994
  50.80933211997329,57.21794082090506
  50.785478151737124,57.20202184826286
  50.76955917909493,57.178167880026706
  50.762499999999996,57.14262429405748
  Z" />
<path fill="none" stroke="#0000FF" stroke-width="0.06614583333333333"
  d="M 53.675,60.430438541270654 L
  53.68812571827337,60.340409576190446
  53.731685768165654,60.25128024901232
  53.801280249012315,60.18168576816566
  53.89040957619044,60.13812571827337
  53.98043854127065,60.125
  55.21956145872934,60.125
  55.309590423809546,60.13812571827337
  55.398719750987674,60.18168576816566
  55.468314231834334,60.25128024901232
  55.51187428172662,60.340409576190446
  55.52499999999999,60.430438541270654
  55.52499999999999,61.16956145872934
  55.51187428172662,61.25959042380955
  55.468314231834334,61.34871975098768
  55.398719750987674,61.41831423183434
  55.309590423809546,61.46187428172662
  55.21956145872934,61.474999999999994
  53.98043854127065,61.474999999999994
  53.89040957619044,61.46187428172662
  53.801280249012315,61.41831423183434
  53.731685768165654,61.34871975098768
  53.68812571827337,61.25959042380955
  53.675,61.16956145872934
  Z" />
<path fill="none" stroke="#0000FF" stroke-width="0.06614583333333333"
  d="M 53.675,58.13043854127066 L
  53.68812571827337,58.04040957619045
  53.731685768165654,57.95128024901232
  53.801280249012315,57.88168576816565
  53.89040957619044,57.838125718273375
  53.98043854127065,57.825
  55.21956145872934,57.825
  55.309590423809546,57.838125718273375
  55.398719750987674,57.88168576816565
  55.468314231834334,57.95128024901232
  55.51187428172662,58.04040957619045
  55.52499999999999,58.13043854127066
  55.52499999999999,58.86956145872934
  55.51187428172662,58.95959042380955
  55.468314231834334,59.04871975098768
  55.398719750987674,59.11831423183433
  55.309590423809546,59.16187428172662
  55.21956145872934,59.175
  53.98043854127065,59.175
  53.89040957619044,59.16187428172662
  53.801280249012315,59.11831423183433
  53.731685768165654,59.04871975098768
  53.68812571827337,58.95959042380955
  53.675,58.86956145872934
  Z" />
<path fill="none" stroke="#0000FF" stroke-width="0.06614583333333333"
  d="M 59.974999999999994,57.10401013948616 L
  59.98496462378297,57.01109439315892
  60.02770098965895,56.89670167084428
  60.099984413539424,56.79998441353943
  60.19670167084428,56.727700989658956
  60.31109439315892,56.684964623782975
  60.404010139486154,56.675
  61.39598986051383,56.675
  61.48890560684107,56.684964623782975
  61.60329832915571,56.727700989658956
  61.70001558646056,56.79998441353943
  61.77229901034103,56.89670167084428
  61.81503537621702,57.01109439315892
  61.82499999999999,57.10401013948616
  61.82499999999999,59.895989860513836
  61.81503537621702,59.98890560684107
  61.77229901034103,60.10329832915571
  61.70001558646056,60.200015586460566
  61.60329832915571,60.27229901034104
  61.48890560684107,60.31503537621702
  61.39598986051383,60.324999999999996
  60.404010139486154,60.324999999999996
  60.31109439315892,60.31503537621702
  60.19670167084428,60.27229901034104
  60.099984413539424,60.200015586460566
  60.02770098965895,60.10329832915571
  59.98496462378297,59.98890560684107
  59.974999999999994,59.895989860513836
  Z" />
<path fill="none" stroke="#0000FF" stroke-width="0.06614583333333333"
  d="M 53.675,55.83043854127065 L
  53.68812571827337,55.740409576190444
  53.731685768165654,55.651280249012316
  53.801280249012315,55.581685768165656
  53.89040957619044,55.53812571827337
  53.98043854127065,55.525
  55.21956145872934,55.525
  55.309590423809546,55.53812571827337
  55.398719750987674,55.581685768165656
  55.468314231834334,55.651280249012316
  55.51187428172662,55.740409576190444
  55.52499999999999,55.83043854127065
  55.52499999999999,56.56956145872934
  55.51187428172662,56.65959042380955
  55.468314231834334,56.748719750987675
  55.398719750987674,56.818314231834336
  55.309590423809546,56.86187428172662
  55.21956145872934,56.87499999999999
  53.98043854127065,56.87499999999999
  53.89040957619044,56.86187428172662
  53.801280249012315,56.818314231834336
  53.731685768165654,56.748719750987675
  53.68812571827337,56.65959042380955
  53.675,56.56956145872934
  Z" />
<path fill="none" stroke="#0000FF" stroke-width="0.06614583333333333"
  d="M 47.20737570594252,51.724999999999994 L
  47.17183211997328,51.71794082090506
  47.14797815173712,51.70202184826286
  47.13205917909493,51.67816788002671
  47.125,51.642624294057484
  47.125,50.632375705942515
  47.13205917909493,50.596832119973286
  47.14797815173713,50.57297815173713
  47.17183211997328,50.55705917909493
  47.20737570594252,50.55
  47.49262429405747,50.55
  47.52816788002671,50.55705917909493
  47.55202184826286,50.57297815173713
  47.56794082090506,50.596832119973286
  47.57499999999999,50.632375705942515
  47.57499999999999,51.642624294057484
  47.56794082090506,51.67816788002671
  47.55202184826287,51.70202184826286
  47.52816788002671,51.71794082090506
  47.49262429405747,51.724999999999994
  Z" />
<path fill="none" stroke="#0000FF" stroke-width="0.06614583333333333"
  d="M 46.25737570594251,51.724999999999994 L
  46.221832119973286,51.71794082090506
  46.197978151737125,51.70202184826286
  46.18205917909493,51.678167880026706
  46.175,51.642624294057484
  46.175,50.632375705942515
  46.18205917909493,50.596832119973286
  46.19797815173713,50.57297815173713
  46.221832119973286,50.55705917909493
  46.25737570594251,50.55
  46.542624294057475,50.55
  46.578167880026704,50.55705917909493
  46.602021848262865,50.572978151737125
  46.61794082090506,50.596832119973286
  46.625,50.63237570594252
  46.625,51.64262429405748
  46.61794082090506,51.678167880026706
  46.602021848262865,51.70202184826286
  46.578167880026704,51.71794082090506
  46.542624294057475,51.724999999999994
  Z" />
<path fill="none" stroke="#0000FF" stroke-width="0.06614583333333333"
  d="M 45.30737570594251,51.724999999999994 L
  45.27183211997328,51.71794082090506
  45.24797815173713,51.70202184826286
  45.23205917909493,51.678167880026706
  45.224999999999994,51.642624294057484
  45.224999999999994,50.632375705942515
  45.23205917909493,50.596832119973286
  45.24797815173713,50.57297815173713
  45.27183211997328,50.55705917909493
  45.30737570594251,50.55
  45.59262429405747,50.55
  45.62816788002671,50.55705917909493
  45.65202184826286,50.572978151737125
  45.66794082090506,50.596832119973286
  45.675,50.632375705942515
  45.675,51.642624294057484
  45.66794082090506,51.678167880026706
  45.65202184826286,51.70202184826286
  45.62816788002671,51.71794082090506
  45.59262429405747,51.724999999999994
  Z" />
<path fill="none" stroke="#0000FF" stroke-width="0.06614583333333333"
  d="M 45.30737570594251,49.449999999999996 L
  45.27183211997328,49.442940820905065
  45.24797815173713,49.42702184826286
  45.23205917909493,49.4031678800267
  45.224999999999994,49.367624294057485
  45.224999999999994,48.35737570594251
  45.23205917909493,48.321832119973294
  45.24797815173713,48.297978151737134
  45.27183211997328,48.28205917909493
  45.30737570594251,48.275
  45.59262429405747,48.275
  45.62816788002671,48.28205917909493
  45.65202184826286,48.29797815173713
  45.66794082090506,48.32183211997329
  45.675,48.35737570594251
  45.675,49.367624294057485
  45.66794082090506,49.40316788002671
  45.65202184826286,49.42702184826287
  45.62816788002671,49.442940820905065
  45.59262429405747,49.449999999999996
  Z" />
<path fill="none" stroke="#0000FF" stroke-width="0.06614583333333333"
  d="M 47.20737570594252,49.449999999999996 L
  47.17183211997328,49.442940820905065
  47.14797815173713,49.42702184826286
  47.13205917909493,49.40316788002671
  47.125,49.367624294057485
  47.125,48.35737570594251
  47.13205917909493,48.32183211997329
  47.14797815173713,48.297978151737134
  47.17183211997328,48.28205917909493
  47.20737570594252,48.275
  47.49262429405747,48.275
  47.52816788002671,48.28205917909493
  47.55202184826286,48.297978151737134
  47.56794082090506,48.32183211997329
  47.57499999999999,48.35737570594251
  47.57499999999999,49.367624294057485
  47.56794082090506,49.40316788002671
  47.55202184826286,49.42702184826286
  47.52816788002671,49.442940820905065
  47.49262429405747,49.449999999999996
  Z" />
<path fill="none" stroke="#0000FF" stroke-width="0.06614583333333333"
  d="M 47.52499999999999,54.10512429405748 L
  47.512246818204225,54.16933768309935
  47.48003035028043,54.217530350280434
  47.431837683099346,54.24974681820423
  47.36762429405748,54.262499999999996
  46.93237570594251,54.262499999999996
  46.868162316900644,54.24974681820423
  46.81996964971956,54.217530350280434
  46.787753181795765,54.16933768309935
  46.77499999999999,54.10512429405748
  46.77499999999999,53.61987570594251
  46.787753181795765,53.555662316900644
  46.81996964971956,53.50746964971956
  46.868162316900644,53.475253181795765
  46.93237570594251,53.4625
  47.36762429405748,53.4625
  47.431837683099346,53.475253181795765
  47.48003035028043,53.50746964971956
  47.512246818204225,53.555662316900644
  47.52499999999999,53.61987570594251
  Z" />
<path fill="none" stroke="#0000FF" stroke-width="0.06614583333333333"
  d="M 45.974999999999994,54.10512429405748 L
  45.96224681820422,54.16933768309935
  45.93003035028043,54.217530350280434
  45.88183768309935,54.24974681820423
  45.81762429405748,54.262499999999996
  45.38237570594251,54.262499999999996
  45.31816231690064,54.24974681820423
  45.269969649719556,54.217530350280434
  45.23775318179577,54.16933768309935
  45.224999999999994,54.10512429405748
  45.224999999999994,53.61987570594251
  45.23775318179577,53.555662316900644
  45.269969649719556,53.50746964971956
  45.31816231690064,53.475253181795765
  45.38237570594251,53.4625
  45.81762429405748,53.4625
  45.88183768309935,53.475253181795765
  45.93003035028043,53.50746964971956
  45.96224681820422,53.555662316900644
  45.974999999999994,53.61987570594251
  Z" />
<path fill="none" stroke="#0000FF" stroke-width="0.06614583333333333"
  d="M 47.10499999999999,31.277601710797693 L
  47.09905011865832,31.307466649182615
  47.08641673086804,31.326416730868036
  47.067466649182606,31.33905011865832
  47.03760171079769,31.345
  46.7823982892023,31.345
  46.75253335081738,31.33905011865832
  46.733583269131955,31.326416730868036
  46.72094988134167,31.30746664918261
  46.71499999999999,31.277601710797693
  46.71499999999999,30.9223982892023
  46.72094988134167,30.892533350817384
  46.733583269131955,30.87358326913196
  46.75253335081738,30.860949881341675
  46.7823982892023,30.854999999999997
  47.03760171079769,30.854999999999997
  47.067466649182606,30.860949881341675
  47.08641673086804,30.87358326913196
  47.09905011865832,30.892533350817384
  47.10499999999999,30.9223982892023
  Z" />
<path fill="none" stroke="#0000FF" stroke-width="0.06614583333333333"
  d="M 46.084999999999994,31.277601710797697 L
  46.079050118658316,31.30746664918261
  46.066416730868035,31.326416730868036
  46.04746664918261,31.33905011865832
  46.01760171079769,31.345
  45.762398289202295,31.345
  45.73253335081738,31.33905011865832
  45.71358326913196,31.326416730868036
  45.70094988134167,31.30746664918261
  45.69499999999999,31.277601710797693
  45.69499999999999,30.9223982892023
  45.70094988134167,30.892533350817384
  45.71358326913196,30.87358326913196
  45.73253335081738,30.860949881341675
  45.762398289202295,30.854999999999997
  46.01760171079769,30.854999999999997
  46.04746664918261,30.860949881341675
  46.066416730868035,30.87358326913196
  46.079050118658316,30.892533350817384
  46.084999999999994,30.922398289202295
  Z" />
<path fill="none" stroke="#000000" stroke-width="0.06614583333333333"
  d="M 36.99999999999999,71.8 L
  36.98522600871415,71.61227864195172
  36.94126781955417,71.42917960675007
  36.86920782902603,71.25521140031253
  36.77082039324993,71.09465769724903
  36.648528137423845,70.95147186257614
  36.50534230275096,70.82917960675006
  36.34478859968745,70.73079217097396
  36.170820393249926,70.65873218044581
  35.98772135804826,70.61477399128583
  35.8,70.6
  34.75811093399841,70.50884651807324
  33.74787914004598,70.23815572471545
  32.8,69.79615242270663
  31.94327434188076,69.19626665871385
  31.203733341286124,68.45672565811924
  30.60384757729336,67.6
  30.161844275284544,66.65212085995401
  29.891153481926747,65.64188906600157
  29.799999999999994,64.6
  29.799999999999994,34.599999999999994
  29.891153481926747,33.55811093399842
  30.161844275284544,32.547879140045985
  30.60384757729336,31.599999999999994
  31.203733341286124,30.74327434188076
  31.94327434188076,30.00373334128613
  32.8,29.403847577293366
  33.74787914004598,28.961844275284548
  34.75811093399841,28.69115348192675
  35.8,28.599999999999998
  65.8,28.599999999999998
  66.84188906600158,28.69115348192675
  67.85212085995401,28.961844275284548
  68.8,29.403847577293366
  69.65672565811923,30.00373334128613
  70.39626665871387,30.743274341880763
  70.99615242270663,31.599999999999998
  71.43815572471544,32.547879140045985
  71.70884651807324,33.55811093399842
  71.8,34.599999999999994
  71.8,64.6
  71.70884651807324,65.64188906600157
  71.43815572471544,66.65212085995401
  70.99615242270663,67.6
  70.39626665871387,68.45672565811924
  69.65672565811923,69.19626665871385
  68.8,69.79615242270663
  67.85212085995401,70.23815572471544
  66.84188906600158,70.50884651807324
  65.8,70.6
  65.61227864195172,70.61477399128583
  65.42917960675007,70.65873218044581
  65.25521140031253,70.73079217097396
  65.09465769724903,70.82917960675006
  64.95147186257614,70.95147186257614
  64.82917960675006,71.09465769724903
  64.73079217097396,71.25521140031253
  64.65873218044581,71.42917960675007
  64.61477399128583,71.61227864195172
  64.6,71.8
  64.58522600871416,71.98772135804828
  64.54126781955418,72.17082039324993
  64.46920782902603,72.34478859968746
  64.37082039324993,72.50534230275096
  64.24852813742385,72.64852813742385
  64.10534230275096,72.77082039324993
  63.94478859968745,72.86920782902604
  63.77082039324993,72.94126781955418
  63.58772135804826,72.98522600871416
  63.39999999999999,73.0
  38.199999999999996,73.0
  38.012278641951724,72.98522600871416
  37.82917960675006,72.94126781955418
  37.65521140031254,72.86920782902604
  37.494657697249025,72.77082039324993
  37.35147186257613,72.64852813742385
  37.22917960675005,72.50534230275096
  37.13079217097395,72.34478859968746
  37.05873218044581,72.17082039324993
  37.01477399128583,71.98772135804828
  Z" />
</svg>