<?xml version="1.0" encoding="UTF-8"?>
<svg xmlns="http://www.w3.org/2000/svg" version="1.1" viewBox="0 0 323.38 288">
  <!-- Generator: Adobe Illustrator 29.6.0, SVG Export Plug-In . SVG Version: 2.1.1 Build 207)  -->
  <defs>
    <style>
      .st0 {
        display: none;
      }

      .st1 {
        stroke: #000;
        stroke-width: .19px;
      }

      .st1, .st2 {
        fill: none;
        stroke-miterlimit: 11.34;
      }

      .st2 {
        stroke: blue;
        stroke-width: .07px;
      }
    </style>
  </defs>
  <g id="Layer_1">
    <path class="st2" d="M161.27,149.66l-.02.1-.05.07-.07.05-.1.02h-.81l-.1-.02-.07-.05-.05-.07-.02-.1v-3.5l.02-.1.05-.07.07-.05.1-.02h.81l.1.02.07.05.05.07.02.1v3.5Z"/>
    <path class="st2" d="M158.43,149.66l-.02.1-.05.07-.07.05-.1.02h-.81l-.1-.02-.07-.05-.05-.07-.02-.1v-3.5l.02-.1.05-.07.07-.05.1-.02h.81l.1.02.07.05.05.07.02.1v3.5Z"/>
    <path class="st2" d="M155.6,149.66l-.02.1-.05.07-.07.05-.1.02h-.81l-.1-.02-.07-.05-.05-.07-.02-.1v-3.5l.02-.1.05-.07.07-.05.1-.02h.81l.1.02.07.05.05.07.02.1v3.5Z"/>
    <path class="st2" d="M152.76,149.66l-.02.1-.05.07-.07.05-.1.02h-.81l-.1-.02-.07-.05-.05-.07-.02-.1v-3.5l.02-.1.05-.07.07-.05.1-.02h.81l.1.02.07.05.05.07.02.1v3.5Z"/>
    <path class="st2" d="M149.93,149.66l-.02.1-.05.07-.07.05-.1.02h-.81l-.1-.02-.07-.05-.05-.07-.02-.1v-3.5l.02-.1.05-.07.07-.05.1-.02h.81l.1.02.07.05.05.07.02.1v3.5Z"/>
    <path class="st2" d="M147.09,149.66l-.02.1-.05.07-.07.05-.1.02h-.81l-.1-.02-.07-.05-.05-.07-.02-.1v-3.5l.02-.1.05-.07.07-.05.1-.02h.81l.1.02.07.05.05.07.02.1v3.5Z"/>
    <path class="st2" d="M144.26,149.66l-.02.1-.05.07-.07.05-.1.02h-.81l-.1-.02-.07-.05-.05-.07-.02-.1v-3.5l.02-.1.05-.07.07-.05.1-.02h.81l.1.02.07.05.05.07.02.1v3.5Z"/>
    <path class="st2" d="M141.43,149.66l-.02.1-.05.07-.07.05-.1.02h-.81l-.1-.02-.07-.05-.05-.07-.02-.1v-3.5l.02-.1.05-.07.07-.05.1-.02h.81l.1.02.07.05.05.07.02.1v3.5Z"/>
    <path class="st2" d="M165.8,160.71l-.04.21-.11.16-.16.11-.21.04h-1.94l-.21-.04-.16-.11-.11-.16-.04-.21v-3.64l.04-.21.11-.16.16-.11.21-.04h1.94l.21.04.16.11.11.16.04.21v3.64Z"/>
    <path class="st2" d="M138.59,160.71l-.04.21-.11.16-.16.11-.21.04h-1.94l-.21-.04-.16-.11-.11-.16-.04-.21v-3.64l.04-.21.11-.16.16-.11.21-.04h1.94l.21.04.16.11.11.16.04.21v3.64Z"/>
    <path class="st2" d="M173.74,138.18l-.04.21-.11.16-.16.11-.21.04h-1.38l-.21-.04-.16-.11-.11-.16-.04-.21v-2.65l.04-.21.11-.16.16-.11.21-.04h1.38l.21.04.16.11.11.16.04.21v2.65Z"/>
    <path class="st2" d="M168.35,138.18l-.04.21-.11.16-.16.11-.21.04h-1.38l-.21-.04-.16-.11-.11-.16-.04-.21v-2.65l.04-.21.11-.16.16-.11.21-.04h1.38l.21.04.16.11.11.16.04.21v2.65Z"/>
    <path class="st2" d="M141.28,89.49l-.04.18-.09.14-.14.09-.18.04h-1.23l-.18-.04-.14-.09-.09-.14-.04-.18v-1.38l.04-.18.09-.14.14-.09.18-.04h1.23l.18.04.14.09.09.14.04.18v1.38Z"/>
    <path class="st2" d="M136.89,89.49l-.04.18-.09.14-.14.09-.18.04h-1.23l-.18-.04-.14-.09-.09-.14-.04-.18v-1.38l.04-.18.09-.14.14-.09.18-.04h1.23l.18.04.14.09.09.14.04.18v1.38Z"/>
    <path class="st2" d="M135.53,46.77l.02-.08.04-.05.05-.04.08-.02h.72l.08.02.05.04.04.05.02.08v1.01l-.02.08-.04.05-.05.04-.08.02h-.72l-.08-.02-.05-.04-.04-.05-.02-.08v-1.01Z"/>
    <path class="st2" d="M138.42,46.77l.02-.08.04-.05.05-.04.08-.02h.72l.08.02.05.04.04.05.02.08v1.01l-.02.08-.04.05-.05.04-.08.02h-.72l-.08-.02-.05-.04-.04-.05-.02-.08v-1.01Z"/>
    <path class="st2" d="M139.48,71.46l.02-.1.05-.07.07-.05.1-.02h2.86l.1.02.07.05.05.07.02.1v.81l-.02.1-.05.07-.07.05-.1.02h-2.86l-.1-.02-.07-.05-.05-.07-.02-.1v-.81Z"/>
    <path class="st2" d="M139.48,68.77l.02-.1.05-.07.07-.05.1-.02h2.86l.1.02.07.05.05.07.02.1v.81l-.02.1-.05.07-.07.05-.1.02h-2.86l-.1-.02-.07-.05-.05-.07-.02-.1v-.81Z"/>
    <path class="st2" d="M139.48,66.08l.02-.1.05-.07.07-.05.1-.02h2.86l.1.02.07.05.05.07.02.1v.81l-.02.1-.05.07-.07.05-.1.02h-2.86l-.1-.02-.07-.05-.05-.07-.02-.1v-.81Z"/>
    <path class="st2" d="M145.93,66.08l.02-.1.05-.07.07-.05.1-.02h2.86l.1.02.07.05.05.07.02.1v.81l-.02.1-.05.07-.07.05-.1.02h-2.86l-.1-.02-.07-.05-.05-.07-.02-.1v-.81Z"/>
    <path class="st2" d="M145.93,68.77l.02-.1.05-.07.07-.05.1-.02h2.86l.1.02.07.05.05.07.02.1v.81l-.02.1-.05.07-.07.05-.1.02h-2.86l-.1-.02-.07-.05-.05-.07-.02-.1v-.81Z"/>
    <path class="st2" d="M145.93,71.46l.02-.1.05-.07.07-.05.1-.02h2.86l.1.02.07.05.05.07.02.1v.81l-.02.1-.05.07-.07.05-.1.02h-2.86l-.1-.02-.07-.05-.05-.07-.02-.1v-.81Z"/>
    <path class="st2" d="M125.02,71.46l.02-.1.05-.07.07-.05.1-.02h2.86l.1.02.07.05.05.07.02.1v.81l-.02.1-.05.07-.07.05-.1.02h-2.86l-.1-.02-.07-.05-.05-.07-.02-.1v-.81Z"/>
    <path class="st2" d="M125.02,68.77l.02-.1.05-.07.07-.05.1-.02h2.86l.1.02.07.05.05.07.02.1v.81l-.02.1-.05.07-.07.05-.1.02h-2.86l-.1-.02-.07-.05-.05-.07-.02-.1v-.81Z"/>
    <path class="st2" d="M125.02,66.08l.02-.1.05-.07.07-.05.1-.02h2.86l.1.02.07.05.05.07.02.1v.81l-.02.1-.05.07-.07.05-.1.02h-2.86l-.1-.02-.07-.05-.05-.07-.02-.1v-.81Z"/>
    <path class="st2" d="M131.47,66.08l.02-.1.05-.07.07-.05.1-.02h2.86l.1.02.07.05.05.07.02.1v.81l-.02.1-.05.07-.07.05-.1.02h-2.86l-.1-.02-.07-.05-.05-.07-.02-.1v-.81Z"/>
    <path class="st2" d="M131.47,68.77l.02-.1.05-.07.07-.05.1-.02h2.86l.1.02.07.05.05.07.02.1v.81l-.02.1-.05.07-.07.05-.1.02h-2.86l-.1-.02-.07-.05-.05-.07-.02-.1v-.81Z"/>
    <path class="st2" d="M131.47,71.46l.02-.1.05-.07.07-.05.1-.02h2.86l.1.02.07.05.05.07.02.1v.81l-.02.1-.05.07-.07.05-.1.02h-2.86l-.1-.02-.07-.05-.05-.07-.02-.1v-.81Z"/>
    <path class="st2" d="M153.59,129.98l.21.04.16.11.11.16.04.21v1.38l-.04.21-.11.16-.16.11-.21.04h-2.65l-.21-.04-.16-.11-.11-.16-.04-.21v-1.38l.04-.21.11-.16.16-.11.21-.04h2.65Z"/>
    <path class="st2" d="M153.59,135.36l.21.04.16.11.11.16.04.21v1.38l-.04.21-.11.16-.16.11-.21.04h-2.65l-.21-.04-.16-.11-.11-.16-.04-.21v-1.38l.04-.21.11-.16.16-.11.21-.04h2.65Z"/>
    <path class="st2" d="M144.58,119.86l.02-.1.05-.07.07-.05.1-.02h3.29l.1.02.07.05.05.07.02.1v.81l-.02.1-.05.07-.07.05-.1.02h-3.29l-.1-.02-.07-.05-.05-.07-.02-.1v-.81Z"/>
    <path class="st2" d="M144.58,114.48l.02-.1.05-.07.07-.05.1-.02h3.29l.1.02.07.05.05.07.02.1v.81l-.02.1-.05.07-.07.05-.1.02h-3.29l-.1-.02-.07-.05-.05-.07-.02-.1v-.81Z"/>
    <path class="st2" d="M149.89,117.17l.02-.1.05-.07.07-.05.1-.02h3.29l.1.02.07.05.05.07.02.1v.81l-.02.1-.05.07-.07.05-.1.02h-3.29l-.1-.02-.07-.05-.05-.07-.02-.1v-.81Z"/>
    <path class="st2" d="M158.15,127.3l.04-.26.12-.25.2-.2.25-.12.26-.04h3.51l.26.04.25.12.2.2.12.25.04.26v2.1l-.04.26-.12.25-.2.2-.25.12-.26.04h-3.51l-.26-.04-.25-.12-.2-.2-.12-.25-.04-.26v-2.1Z"/>
    <path class="st2" d="M158.15,120.78l.04-.26.12-.25.2-.2.25-.12.26-.04h3.51l.26.04.25.12.2.2.12.25.04.26v2.1l-.04.26-.12.25-.2.2-.25.12-.26.04h-3.51l-.26-.04-.25-.12-.2-.2-.12-.25-.04-.26v-2.1Z"/>
    <path class="st2" d="M176.01,117.87l.03-.26.12-.32.2-.27.27-.2.32-.12.26-.03h2.81l.26.03.32.12.27.2.2.27.12.32.03.26v7.91l-.03.26-.12.32-.2.27-.27.2-.32.12-.26.03h-2.81l-.26-.03-.32-.12-.27-.2-.2-.27-.12-.32-.03-.26v-7.91Z"/>
    <path class="st2" d="M158.15,114.26l.04-.26.12-.25.2-.2.25-.12.26-.04h3.51l.26.04.25.12.2.2.12.25.04.26v2.1l-.04.26-.12.25-.2.2-.25.12-.26.04h-3.51l-.26-.04-.25-.12-.2-.2-.12-.25-.04-.26v-2.1Z"/>
    <path class="st2" d="M139.82,102.62l-.1-.02-.07-.05-.05-.07-.02-.1v-2.86l.02-.1.05-.07.07-.05.1-.02h.81l.1.02.07.05.05.07.02.1v2.86l-.02.1-.05.07-.07.05-.1.02h-.81Z"/>
    <path class="st2" d="M137.12,102.62l-.1-.02-.07-.05-.05-.07-.02-.1v-2.86l.02-.1.05-.07.07-.05.1-.02h.81l.1.02.07.05.05.07.02.1v2.86l-.02.1-.05.07-.07.05-.1.02h-.81Z"/>
    <path class="st2" d="M134.43,102.62l-.1-.02-.07-.05-.05-.07-.02-.1v-2.86l.02-.1.05-.07.07-.05.1-.02h.81l.1.02.07.05.05.07.02.1v2.86l-.02.1-.05.07-.07.05-.1.02h-.81Z"/>
    <path class="st2" d="M134.43,96.17l-.1-.02-.07-.05-.05-.07-.02-.1v-2.86l.02-.1.05-.07.07-.05.1-.02h.81l.1.02.07.05.05.07.02.1v2.86l-.02.1-.05.07-.07.05-.1.02h-.81Z"/>
    <path class="st2" d="M139.82,96.17l-.1-.02-.07-.05-.05-.07-.02-.1v-2.86l.02-.1.05-.07.07-.05.1-.02h.81l.1.02.07.05.05.07.02.1v2.86l-.02.1-.05.07-.07.05-.1.02h-.81Z"/>
    <path class="st2" d="M140.72,109.37l-.04.18-.09.14-.14.09-.18.04h-1.23l-.18-.04-.14-.09-.09-.14-.04-.18v-1.38l.04-.18.09-.14.14-.09.18-.04h1.23l.18.04.14.09.09.14.04.18v1.38Z"/>
    <path class="st2" d="M136.32,109.37l-.04.18-.09.14-.14.09-.18.04h-1.23l-.18-.04-.14-.09-.09-.14-.04-.18v-1.38l.04-.18.09-.14.14-.09.18-.04h1.23l.18.04.14.09.09.14.04.18v1.38Z"/>
    <path class="st2" d="M139.53,44.66l-.02.08-.04.05-.05.04-.08.02h-.72l-.08-.02-.05-.04-.04-.05-.02-.08v-1.01l.02-.08.04-.05.05-.04.08-.02h.72l.08.02.05.04.04.05.02.08v1.01Z"/>
    <path class="st2" d="M136.63,44.66l-.02.08-.04.05-.05.04-.08.02h-.72l-.08-.02-.05-.04-.04-.05-.02-.08v-1.01l.02-.08.04-.05.05-.04.08-.02h.72l.08.02.05.04.04.05.02.08v1.01Z"/>
    <rect class="st2" width="300" height="200"/>
  </g>
  <g id="Layer_2" class="st0">
    <path class="st1" d="M110.88,159.53l-.04-.53-.12-.52-.2-.49-.28-.46-.35-.41-.41-.35-.46-.28-.49-.2-.52-.12-.53-.04-2.95-.26-2.86-.77-2.69-1.25-2.43-1.7-2.1-2.1-1.7-2.43-1.25-2.69-.77-2.86-.26-2.95V54.08l.26-2.95.77-2.86,1.25-2.69,1.7-2.43,2.1-2.1,2.43-1.7,2.69-1.25,2.86-.77,2.95-.26h85.04l2.95.26,2.86.77,2.69,1.25,2.43,1.7,2.1,2.1,1.7,2.43,1.25,2.69.77,2.86.26,2.95v85.04l-.26,2.95-.77,2.86-1.25,2.69-1.7,2.43-2.1,2.1-2.43,1.7-2.69,1.25-2.86.77-2.95.26-.53.04-.52.12-.49.2-.46.28-.41.35-.35.41-.28.46-.2.49-.12.52-.04.53-.04.53-.12.52-.2.49-.28.46-.35.41-.41.35-.46.28-.49.2-.52.12-.53.04h-71.43l-.53-.04-.52-.12-.49-.2-.46-.28-.41-.35-.35-.41-.28-.46-.2-.49-.12-.52-.04-.53Z"/>
  </g>
</svg>