%TF.GenerationSoftware,KiCad,Pcbnew,9.0.1*%
%TF.CreationDate,2025-06-10T20:36:17-04:00*%
%TF.ProjectId,STM32_FlightController,53544d33-325f-4466-9c69-676874436f6e,rev?*%
%TF.SameCoordinates,Original*%
%TF.FileFunction,Paste,Top*%
%TF.FilePolarity,Positive*%
%FSLAX46Y46*%
G04 Gerber Fmt 4.6, Leading zero omitted, Abs format (unit mm)*
G04 Created by KiCad (PCBNEW 9.0.1) date 2025-06-10 20:36:17*
%MOMM*%
%LPD*%
G01*
G04 APERTURE LIST*
G04 Aperture macros list*
%AMRoundRect*
0 Rectangle with rounded corners*
0 $1 Rounding radius*
0 $2 $3 $4 $5 $6 $7 $8 $9 X,Y pos of 4 corners*
0 Add a 4 corners polygon primitive as box body*
4,1,4,$2,$3,$4,$5,$6,$7,$8,$9,$2,$3,0*
0 Add four circle primitives for the rounded corners*
1,1,$1+$1,$2,$3*
1,1,$1+$1,$4,$5*
1,1,$1+$1,$6,$7*
1,1,$1+$1,$8,$9*
0 Add four rect primitives between the rounded corners*
20,1,$1+$1,$2,$3,$4,$5,0*
20,1,$1+$1,$4,$5,$6,$7,0*
20,1,$1+$1,$6,$7,$8,$9,0*
20,1,$1+$1,$8,$9,$2,$3,0*%
G04 Aperture macros list end*
%ADD10RoundRect,0.135000X-0.185000X0.135000X-0.185000X-0.135000X0.185000X-0.135000X0.185000X0.135000X0*%
%ADD11RoundRect,0.135000X-0.135000X-0.185000X0.135000X-0.185000X0.135000X0.185000X-0.135000X0.185000X0*%
%ADD12RoundRect,0.150000X-0.150000X-0.625000X0.150000X-0.625000X0.150000X0.625000X-0.150000X0.625000X0*%
%ADD13RoundRect,0.250000X-0.350000X-0.650000X0.350000X-0.650000X0.350000X0.650000X-0.350000X0.650000X0*%
%ADD14R,1.300000X0.450000*%
%ADD15RoundRect,0.140000X-0.140000X-0.170000X0.140000X-0.170000X0.140000X0.170000X-0.140000X0.170000X0*%
%ADD16RoundRect,0.135000X0.135000X0.185000X-0.135000X0.185000X-0.135000X-0.185000X0.135000X-0.185000X0*%
%ADD17R,0.800000X1.000000*%
%ADD18R,1.500000X0.700000*%
%ADD19RoundRect,0.140000X0.170000X-0.140000X0.170000X0.140000X-0.170000X0.140000X-0.170000X-0.140000X0*%
%ADD20RoundRect,0.050000X-0.225000X-0.050000X0.225000X-0.050000X0.225000X0.050000X-0.225000X0.050000X0*%
%ADD21RoundRect,0.050000X0.050000X-0.225000X0.050000X0.225000X-0.050000X0.225000X-0.050000X-0.225000X0*%
%ADD22RoundRect,0.218750X0.218750X0.256250X-0.218750X0.256250X-0.218750X-0.256250X0.218750X-0.256250X0*%
%ADD23RoundRect,0.140000X-0.170000X0.140000X-0.170000X-0.140000X0.170000X-0.140000X0.170000X0.140000X0*%
%ADD24RoundRect,0.225000X0.250000X-0.225000X0.250000X0.225000X-0.250000X0.225000X-0.250000X-0.225000X0*%
%ADD25RoundRect,0.140000X0.140000X0.170000X-0.140000X0.170000X-0.140000X-0.170000X0.140000X-0.170000X0*%
%ADD26R,0.250000X0.275000*%
%ADD27R,0.275000X0.250000*%
%ADD28RoundRect,0.075000X-0.700000X-0.075000X0.700000X-0.075000X0.700000X0.075000X-0.700000X0.075000X0*%
%ADD29RoundRect,0.075000X-0.075000X-0.700000X0.075000X-0.700000X0.075000X0.700000X-0.075000X0.700000X0*%
%ADD30RoundRect,0.225000X0.225000X0.250000X-0.225000X0.250000X-0.225000X-0.250000X0.225000X-0.250000X0*%
%ADD31R,0.990600X0.711200*%
%ADD32R,1.200000X1.400000*%
%ADD33RoundRect,0.225000X-0.225000X-0.250000X0.225000X-0.250000X0.225000X0.250000X-0.225000X0.250000X0*%
%ADD34RoundRect,0.150000X0.512500X0.150000X-0.512500X0.150000X-0.512500X-0.150000X0.512500X-0.150000X0*%
G04 APERTURE END LIST*
D10*
%TO.C,R1*%
X29862500Y-17477500D03*
X29862500Y-18497500D03*
%TD*%
D11*
%TO.C,R10*%
X20252500Y-32287500D03*
X21272500Y-32287500D03*
%TD*%
D12*
%TO.C,J4*%
X40612500Y-53587500D03*
X41612500Y-53587500D03*
X42612500Y-53587500D03*
X43612500Y-53587500D03*
D13*
X39312500Y-57462500D03*
X44912500Y-57462500D03*
%TD*%
D14*
%TO.C,J1*%
X51007500Y-36787500D03*
X51007500Y-36137500D03*
X51007500Y-35487500D03*
X51007500Y-34837500D03*
X51007500Y-34187500D03*
%TD*%
D15*
%TO.C,C4*%
X41082500Y-43687500D03*
X42042500Y-43687500D03*
%TD*%
D16*
%TO.C,R9*%
X55232500Y-41537500D03*
X54212500Y-41537500D03*
%TD*%
D17*
%TO.C,SW2*%
X17642500Y-27937500D03*
X15432500Y-27937500D03*
X17642500Y-35237500D03*
X15432500Y-35237500D03*
D18*
X18292500Y-29337500D03*
X18292500Y-32337500D03*
X18292500Y-33837500D03*
%TD*%
D19*
%TO.C,C10*%
X28462500Y-22767500D03*
X28462500Y-21807500D03*
%TD*%
D15*
%TO.C,C8*%
X26940000Y-39187500D03*
X27900000Y-39187500D03*
%TD*%
D20*
%TO.C,U2*%
X29762500Y-20287500D03*
X29762500Y-20687500D03*
X29762500Y-21087500D03*
X29762500Y-21487500D03*
X29762500Y-21887500D03*
X29762500Y-22287500D03*
D21*
X30262500Y-22787500D03*
X30662500Y-22787500D03*
X31062500Y-22787500D03*
X31462500Y-22787500D03*
X31862500Y-22787500D03*
X32262500Y-22787500D03*
D20*
X32762500Y-22287500D03*
X32762500Y-21887500D03*
X32762500Y-21487500D03*
X32762500Y-21087500D03*
X32762500Y-20687500D03*
X32762500Y-20287500D03*
D21*
X32262500Y-19787500D03*
X31862500Y-19787500D03*
X31462500Y-19787500D03*
X31062500Y-19787500D03*
X30662500Y-19787500D03*
X30262500Y-19787500D03*
%TD*%
D22*
%TO.C,FB1*%
X27650000Y-40587500D03*
X26075000Y-40587500D03*
%TD*%
D23*
%TO.C,C7*%
X27650000Y-41912500D03*
X27650000Y-42872500D03*
%TD*%
D24*
%TO.C,C14*%
X43762500Y-32462500D03*
X43762500Y-30912500D03*
%TD*%
D23*
%TO.C,C23*%
X26812500Y-28557500D03*
X26812500Y-29517500D03*
%TD*%
D25*
%TO.C,C15*%
X40312500Y-22562500D03*
X39352500Y-22562500D03*
%TD*%
D11*
%TO.C,R8*%
X40042500Y-27512500D03*
X41062500Y-27512500D03*
%TD*%
D12*
%TO.C,J3*%
X27912500Y-53587500D03*
X28912500Y-53587500D03*
X29912500Y-53587500D03*
X30912500Y-53587500D03*
D13*
X26612500Y-57462500D03*
X32212500Y-57462500D03*
%TD*%
D19*
%TO.C,C11*%
X34062500Y-20847500D03*
X34062500Y-19887500D03*
%TD*%
D26*
%TO.C,U7*%
X40312500Y-24025000D03*
X39812500Y-24025000D03*
D27*
X39300000Y-24287500D03*
X39300000Y-24787500D03*
X39300000Y-25287500D03*
D26*
X39812500Y-25550000D03*
X40312500Y-25550000D03*
D27*
X40825000Y-25287500D03*
X40825000Y-24787500D03*
X40825000Y-24287500D03*
%TD*%
D16*
%TO.C,R2*%
X28672500Y-18487500D03*
X27652500Y-18487500D03*
%TD*%
D28*
%TO.C,U3*%
X30337500Y-33712500D03*
X30337500Y-34212500D03*
X30337500Y-34712500D03*
X30337500Y-35212500D03*
X30337500Y-35712500D03*
X30337500Y-36212500D03*
X30337500Y-36712500D03*
X30337500Y-37212500D03*
X30337500Y-37712500D03*
X30337500Y-38212500D03*
X30337500Y-38712500D03*
X30337500Y-39212500D03*
X30337500Y-39712500D03*
X30337500Y-40212500D03*
X30337500Y-40712500D03*
X30337500Y-41212500D03*
D29*
X32262500Y-43137500D03*
X32762500Y-43137500D03*
X33262500Y-43137500D03*
X33762500Y-43137500D03*
X34262500Y-43137500D03*
X34762500Y-43137500D03*
X35262500Y-43137500D03*
X35762500Y-43137500D03*
X36262500Y-43137500D03*
X36762500Y-43137500D03*
X37262500Y-43137500D03*
X37762500Y-43137500D03*
X38262500Y-43137500D03*
X38762500Y-43137500D03*
X39262500Y-43137500D03*
X39762500Y-43137500D03*
D28*
X41687500Y-41212500D03*
X41687500Y-40712500D03*
X41687500Y-40212500D03*
X41687500Y-39712500D03*
X41687500Y-39212500D03*
X41687500Y-38712500D03*
X41687500Y-38212500D03*
X41687500Y-37712500D03*
X41687500Y-37212500D03*
X41687500Y-36712500D03*
X41687500Y-36212500D03*
X41687500Y-35712500D03*
X41687500Y-35212500D03*
X41687500Y-34712500D03*
X41687500Y-34212500D03*
X41687500Y-33712500D03*
D29*
X39762500Y-31787500D03*
X39262500Y-31787500D03*
X38762500Y-31787500D03*
X38262500Y-31787500D03*
X37762500Y-31787500D03*
X37262500Y-31787500D03*
X36762500Y-31787500D03*
X36262500Y-31787500D03*
X35762500Y-31787500D03*
X35262500Y-31787500D03*
X34762500Y-31787500D03*
X34262500Y-31787500D03*
X33762500Y-31787500D03*
X33262500Y-31787500D03*
X32762500Y-31787500D03*
X32262500Y-31787500D03*
%TD*%
D19*
%TO.C,C2*%
X30962500Y-31442500D03*
X30962500Y-30482500D03*
%TD*%
D23*
%TO.C,C12*%
X31987500Y-24107500D03*
X31987500Y-25067500D03*
%TD*%
D30*
%TO.C,C1*%
X29637500Y-31362500D03*
X28087500Y-31362500D03*
%TD*%
D25*
%TO.C,C5*%
X32817500Y-45437500D03*
X31857500Y-45437500D03*
%TD*%
D22*
%TO.C,D2*%
X54950000Y-42887500D03*
X53375000Y-42887500D03*
%TD*%
D25*
%TO.C,C9*%
X28412500Y-33662500D03*
X27452500Y-33662500D03*
%TD*%
D11*
%TO.C,R7*%
X32132500Y-18087500D03*
X33152500Y-18087500D03*
%TD*%
D19*
%TO.C,C3*%
X42012500Y-32622500D03*
X42012500Y-31662500D03*
%TD*%
D31*
%TO.C,SW1*%
X20312499Y-28137501D03*
X24812501Y-28137501D03*
X20312499Y-30287499D03*
X24812501Y-30287499D03*
%TD*%
D23*
%TO.C,C6*%
X26062500Y-41912500D03*
X26062500Y-42872500D03*
%TD*%
%TO.C,C22*%
X25212500Y-37252500D03*
X25212500Y-38212500D03*
%TD*%
D19*
%TO.C,C21*%
X25212500Y-35892500D03*
X25212500Y-34932500D03*
%TD*%
D32*
%TO.C,Y1*%
X21887500Y-35462500D03*
X21887500Y-37662500D03*
X23587500Y-37662500D03*
X23587500Y-35462500D03*
%TD*%
D16*
%TO.C,R6*%
X33152500Y-16987500D03*
X32132500Y-16987500D03*
%TD*%
D33*
%TO.C,C13*%
X40887500Y-45112500D03*
X42437500Y-45112500D03*
%TD*%
D16*
%TO.C,R5*%
X36322500Y-22112500D03*
X35302500Y-22112500D03*
%TD*%
D34*
%TO.C,U4*%
X48262500Y-36437500D03*
X48262500Y-35487500D03*
X48262500Y-34537500D03*
X45987500Y-34537500D03*
X45987500Y-35487500D03*
X45987500Y-36437500D03*
%TD*%
D23*
%TO.C,C16*%
X42262500Y-23982500D03*
X42262500Y-24942500D03*
%TD*%
M02*
