%TF.GenerationSoftware,KiCad,Pcbnew,9.0.1*%
%TF.CreationDate,2025-06-10T20:36:17-04:00*%
%TF.ProjectId,STM32_FlightController,53544d33-325f-4466-9c69-676874436f6e,rev?*%
%TF.SameCoordinates,Original*%
%TF.FileFunction,Copper,L2,Inr*%
%TF.FilePolarity,Positive*%
%FSLAX46Y46*%
G04 Gerber Fmt 4.6, Leading zero omitted, Abs format (unit mm)*
G04 Created by KiCad (PCBNEW 9.0.1) date 2025-06-10 20:36:17*
%MOMM*%
%LPD*%
G01*
G04 APERTURE LIST*
%TA.AperFunction,HeatsinkPad*%
%ADD10O,1.800000X1.150000*%
%TD*%
%TA.AperFunction,HeatsinkPad*%
%ADD11O,2.000000X1.450000*%
%TD*%
%TA.AperFunction,ComponentPad*%
%ADD12C,8.000000*%
%TD*%
%TA.AperFunction,ComponentPad*%
%ADD13R,1.000000X1.000000*%
%TD*%
%TA.AperFunction,ComponentPad*%
%ADD14C,1.000000*%
%TD*%
%TA.AperFunction,ViaPad*%
%ADD15C,0.600000*%
%TD*%
G04 APERTURE END LIST*
D10*
%TO.N,unconnected-(J1-Shield-Pad6)_2*%
%TO.C,J1*%
X54857500Y-39362500D03*
D11*
%TO.N,unconnected-(J1-Shield-Pad6)*%
X51057500Y-39212500D03*
%TO.N,unconnected-(J1-Shield-Pad6)_3*%
X51057500Y-31762500D03*
D10*
%TO.N,unconnected-(J1-Shield-Pad6)_1*%
X54857500Y-31612500D03*
%TD*%
D12*
%TO.N,unconnected-(H1-Pad1)*%
%TO.C,H1*%
X20512500Y-20212500D03*
%TD*%
%TO.N,unconnected-(H3-Pad1)*%
%TO.C,H3*%
X20512500Y-50712500D03*
%TD*%
%TO.N,unconnected-(H4-Pad1)*%
%TO.C,H4*%
X51012500Y-50712500D03*
%TD*%
%TO.N,unconnected-(H2-Pad1)*%
%TO.C,H2*%
X51012500Y-20212500D03*
%TD*%
D13*
%TO.N,+3V3*%
%TO.C,J5*%
X46937500Y-28357500D03*
D14*
X46937500Y-27087500D03*
%TO.N,/SWO*%
X48207500Y-28357500D03*
X48207500Y-27087500D03*
%TO.N,/SWCLK*%
X49477500Y-28357500D03*
X49477500Y-27087500D03*
%TO.N,/SWDIO*%
X50747500Y-28357500D03*
X50747500Y-27087500D03*
%TO.N,GND*%
X52017500Y-28357500D03*
X52017500Y-27087500D03*
%TD*%
D15*
%TO.N,GND*%
X40112500Y-52362500D03*
X38142500Y-46692500D03*
X44787500Y-30912500D03*
X41262500Y-31662500D03*
%TO.N,+3V3*%
X42652500Y-32622500D03*
%TO.N,GND*%
X43012500Y-18962500D03*
X38887500Y-48787500D03*
X40237500Y-48787500D03*
X32374329Y-18949201D03*
X50012500Y-41962500D03*
X17012500Y-38962500D03*
X35987500Y-25812500D03*
X40237500Y-49462500D03*
X37512500Y-54712500D03*
X20012500Y-25962500D03*
X31612500Y-30337500D03*
X33687500Y-33062500D03*
X23587500Y-34112500D03*
X28912500Y-17437500D03*
X45012500Y-20962500D03*
X48012500Y-39962500D03*
X25012500Y-43962500D03*
X27012500Y-47962500D03*
X28912500Y-54712500D03*
X22612500Y-30287499D03*
X28092500Y-32222500D03*
X27452500Y-33002500D03*
X50012500Y-43962500D03*
X24012500Y-25962500D03*
X25012500Y-47962500D03*
X39562500Y-48787500D03*
X43012500Y-20962500D03*
X54212500Y-40787500D03*
X31212500Y-25812500D03*
X48012500Y-41962500D03*
X27012500Y-49962500D03*
X31912500Y-44562500D03*
X21012500Y-42962500D03*
X48012500Y-45962500D03*
X23012500Y-42962500D03*
X25012500Y-45962500D03*
X25962500Y-29162500D03*
X17012500Y-40962500D03*
X52162500Y-34187500D03*
X26012500Y-38212500D03*
X26462500Y-25812500D03*
X19012500Y-38962500D03*
X31600163Y-38406155D03*
X17012500Y-42962500D03*
X42162500Y-46012500D03*
X27012500Y-45962500D03*
X33655735Y-19169265D03*
X17012500Y-29237500D03*
X28462500Y-21012500D03*
X43012500Y-16962500D03*
X19012500Y-42962500D03*
X45012500Y-22962500D03*
X19012500Y-40962500D03*
X22012500Y-25962500D03*
X33152500Y-16312500D03*
X45012500Y-16962500D03*
X39562500Y-49462500D03*
X28390000Y-42885000D03*
X21012500Y-40962500D03*
X49359735Y-35515265D03*
X42042500Y-43062500D03*
X45012500Y-18962500D03*
X29562500Y-32737500D03*
X20737500Y-37662500D03*
X38887500Y-49437500D03*
X42262500Y-25537500D03*
X38639771Y-24054541D03*
X48012500Y-43962500D03*
%TO.N,+3V3*%
X35312500Y-21462500D03*
X29612500Y-30462500D03*
X26462500Y-26762500D03*
X52362500Y-42887500D03*
X32712500Y-41687500D03*
X41062500Y-43062500D03*
X27912500Y-54712500D03*
X31556793Y-26768207D03*
X28262500Y-34262500D03*
X17012500Y-33962500D03*
X41062500Y-26862500D03*
X33125000Y-39750000D03*
X42262500Y-23387500D03*
X43262500Y-46562500D03*
X44162500Y-46562500D03*
X40912500Y-22562500D03*
X44162500Y-47262500D03*
X24987500Y-41462500D03*
X43262500Y-47262500D03*
%TO.N,/NRST*%
X28012500Y-28962500D03*
X28912500Y-37112500D03*
%TO.N,V_MAIN*%
X37712500Y-47712500D03*
%TO.N,VBUS*%
X49087500Y-37687500D03*
%TO.N,+1V8*%
X30287500Y-23612500D03*
X28600999Y-23624001D03*
X33112500Y-23237500D03*
%TO.N,/IMU_MISO*%
X30887500Y-24862500D03*
%TO.N,/MISO*%
X30211500Y-28562500D03*
%TO.N,/IMU_INT*%
X34912500Y-23862500D03*
%TO.N,/INT1*%
X35142500Y-30187500D03*
X33787500Y-29187500D03*
X39462500Y-37712500D03*
%TO.N,/MOSI*%
X35762500Y-27812500D03*
X35762500Y-29312500D03*
%TO.N,/IMU_SCK*%
X30863235Y-18763235D03*
%TO.N,/SCK*%
X38412500Y-23287500D03*
X38412500Y-30412500D03*
%TO.N,/CS1*%
X38262500Y-34912500D03*
X36337500Y-21187500D03*
%TO.N,/S1*%
X35512500Y-54752500D03*
%TO.N,/S2*%
X34512500Y-52462500D03*
%TO.N,/S3*%
X33512500Y-52462500D03*
%TO.N,/S4*%
X32512500Y-52462500D03*
%TO.N,/CS2*%
X39012500Y-36062500D03*
X39012500Y-27337500D03*
%TO.N,/INT2*%
X40312500Y-26212500D03*
X40212500Y-38862500D03*
%TO.N,/GPS_RX*%
X30912500Y-47962500D03*
X28812500Y-46862500D03*
%TO.N,/ELRS_RX*%
X43612500Y-52137500D03*
X41637500Y-52137500D03*
%TD*%
%TA.AperFunction,Conductor*%
%TO.N,GND*%
G36*
X50764942Y-14488095D02*
G01*
X51184237Y-14504569D01*
X51189520Y-14504892D01*
X51287932Y-14513046D01*
X51292186Y-14513473D01*
X51659348Y-14556930D01*
X51665052Y-14557743D01*
X51757957Y-14573247D01*
X51761694Y-14573931D01*
X52129554Y-14647103D01*
X52135691Y-14648489D01*
X52218792Y-14669533D01*
X52221999Y-14670391D01*
X52302980Y-14693229D01*
X52591695Y-14774655D01*
X52598240Y-14776699D01*
X52666507Y-14800136D01*
X52668967Y-14801011D01*
X53042710Y-14938893D01*
X53049579Y-14941665D01*
X53095497Y-14961807D01*
X53097580Y-14962743D01*
X53252110Y-15033982D01*
X53479513Y-15138816D01*
X53486609Y-15142367D01*
X53490747Y-15144606D01*
X53498696Y-15148907D01*
X53500086Y-15149673D01*
X53892983Y-15369707D01*
X53901267Y-15374782D01*
X54284867Y-15631096D01*
X54292743Y-15636819D01*
X54655039Y-15922429D01*
X54662437Y-15928747D01*
X55001215Y-16241911D01*
X55008088Y-16248784D01*
X55316143Y-16582035D01*
X55321247Y-16587556D01*
X55327570Y-16594960D01*
X55613180Y-16957256D01*
X55618903Y-16965132D01*
X55875204Y-17348714D01*
X55880291Y-17357016D01*
X56100289Y-17749850D01*
X56101156Y-17751425D01*
X56107628Y-17763385D01*
X56111182Y-17770485D01*
X56287246Y-18152398D01*
X56288191Y-18154501D01*
X56308333Y-18200419D01*
X56311114Y-18207311D01*
X56448961Y-18580960D01*
X56449907Y-18583617D01*
X56473286Y-18651719D01*
X56475349Y-18658323D01*
X56579607Y-19027999D01*
X56580467Y-19031215D01*
X56601495Y-19114247D01*
X56602907Y-19120498D01*
X56676064Y-19488288D01*
X56676756Y-19492068D01*
X56692247Y-19584895D01*
X56693079Y-19590732D01*
X56736518Y-19957750D01*
X56736953Y-19962083D01*
X56745103Y-20060432D01*
X56745431Y-20065805D01*
X56761904Y-20485056D01*
X56762000Y-20489924D01*
X56762000Y-50485075D01*
X56761904Y-50489943D01*
X56745431Y-50909193D01*
X56745103Y-50914566D01*
X56736953Y-51012915D01*
X56736518Y-51017248D01*
X56693079Y-51384266D01*
X56692247Y-51390103D01*
X56676756Y-51482930D01*
X56676064Y-51486710D01*
X56602907Y-51854500D01*
X56601495Y-51860751D01*
X56580467Y-51943783D01*
X56579607Y-51946999D01*
X56475349Y-52316675D01*
X56473286Y-52323279D01*
X56449907Y-52391381D01*
X56448961Y-52394038D01*
X56311114Y-52767687D01*
X56308333Y-52774579D01*
X56288191Y-52820497D01*
X56287246Y-52822600D01*
X56111182Y-53204513D01*
X56107628Y-53211613D01*
X56101156Y-53223573D01*
X56100290Y-53225148D01*
X55880292Y-53617983D01*
X55875204Y-53626285D01*
X55618903Y-54009867D01*
X55613180Y-54017743D01*
X55327570Y-54380039D01*
X55321247Y-54387443D01*
X55008094Y-54726209D01*
X55001209Y-54733094D01*
X54662443Y-55046247D01*
X54655039Y-55052570D01*
X54292743Y-55338180D01*
X54284867Y-55343903D01*
X53901285Y-55600204D01*
X53892983Y-55605292D01*
X53500148Y-55825290D01*
X53498573Y-55826156D01*
X53486613Y-55832628D01*
X53479513Y-55836182D01*
X53097600Y-56012246D01*
X53095497Y-56013191D01*
X53049579Y-56033333D01*
X53042687Y-56036114D01*
X52669038Y-56173961D01*
X52666381Y-56174907D01*
X52598279Y-56198286D01*
X52591675Y-56200349D01*
X52221999Y-56304607D01*
X52218783Y-56305467D01*
X52135751Y-56326495D01*
X52129500Y-56327907D01*
X51761710Y-56401064D01*
X51757930Y-56401756D01*
X51665103Y-56417247D01*
X51659266Y-56418079D01*
X51292248Y-56461518D01*
X51287915Y-56461953D01*
X51189566Y-56470103D01*
X51184193Y-56470431D01*
X50764943Y-56486904D01*
X50760075Y-56487000D01*
X50668014Y-56487000D01*
X50481381Y-56516560D01*
X50457067Y-56524460D01*
X50457061Y-56524462D01*
X50452338Y-56525996D01*
X50451324Y-56526175D01*
X50447475Y-56527575D01*
X50445409Y-56528247D01*
X50301671Y-56574951D01*
X50269311Y-56591438D01*
X50269310Y-56591437D01*
X50262543Y-56594884D01*
X50254389Y-56597853D01*
X50236871Y-56607967D01*
X50233957Y-56609452D01*
X50133307Y-56660736D01*
X50133295Y-56660743D01*
X50091473Y-56691126D01*
X50091474Y-56691127D01*
X50086207Y-56694953D01*
X50072894Y-56702640D01*
X50055247Y-56717447D01*
X50051731Y-56720002D01*
X50051723Y-56720008D01*
X49980426Y-56771810D01*
X49980420Y-56771815D01*
X49928093Y-56824141D01*
X49912351Y-56837351D01*
X49899141Y-56853093D01*
X49846815Y-56905420D01*
X49846810Y-56905426D01*
X49795008Y-56976723D01*
X49792448Y-56980246D01*
X49777640Y-56997894D01*
X49769954Y-57011206D01*
X49766129Y-57016471D01*
X49735743Y-57058295D01*
X49735736Y-57058307D01*
X49684452Y-57158957D01*
X49682967Y-57161870D01*
X49672853Y-57179389D01*
X49669884Y-57187546D01*
X49666440Y-57194305D01*
X49666438Y-57194311D01*
X49649951Y-57226671D01*
X49603249Y-57370399D01*
X49603250Y-57370400D01*
X49602576Y-57372474D01*
X49601175Y-57376324D01*
X49600996Y-57377338D01*
X49599462Y-57382061D01*
X49599460Y-57382067D01*
X49591560Y-57406381D01*
X49562000Y-57593013D01*
X49562000Y-57682623D01*
X49561618Y-57692353D01*
X49549007Y-57852570D01*
X49547506Y-57864370D01*
X49541773Y-57896887D01*
X49540230Y-57904304D01*
X49507105Y-58042280D01*
X49503052Y-58055745D01*
X49494985Y-58077908D01*
X49493025Y-58082949D01*
X49434994Y-58223049D01*
X49426160Y-58240386D01*
X49338015Y-58384225D01*
X49326579Y-58399966D01*
X49217013Y-58528253D01*
X49203253Y-58542013D01*
X49074966Y-58651579D01*
X49059225Y-58663015D01*
X48915386Y-58751160D01*
X48898049Y-58759994D01*
X48757949Y-58818025D01*
X48752908Y-58819985D01*
X48730745Y-58828052D01*
X48717280Y-58832105D01*
X48579304Y-58865230D01*
X48571887Y-58866773D01*
X48539370Y-58872506D01*
X48527570Y-58874007D01*
X48367353Y-58886618D01*
X48357623Y-58887000D01*
X23167377Y-58887000D01*
X23157647Y-58886618D01*
X22997428Y-58874007D01*
X22985628Y-58872506D01*
X22962395Y-58868409D01*
X22953105Y-58866771D01*
X22945694Y-58865230D01*
X22807718Y-58832105D01*
X22794253Y-58828052D01*
X22772090Y-58819985D01*
X22767049Y-58818025D01*
X22626949Y-58759994D01*
X22609612Y-58751160D01*
X22465774Y-58663016D01*
X22450033Y-58651580D01*
X22393375Y-58603190D01*
X22321746Y-58542013D01*
X22307986Y-58528253D01*
X22257869Y-58469573D01*
X22198416Y-58399961D01*
X22186987Y-58384230D01*
X22098833Y-58240376D01*
X22090007Y-58223056D01*
X22031966Y-58082931D01*
X22030013Y-58077908D01*
X22021946Y-58055745D01*
X22017898Y-58042298D01*
X21984761Y-57904274D01*
X21983235Y-57896938D01*
X21977489Y-57864350D01*
X21975991Y-57852568D01*
X21963382Y-57692353D01*
X21963000Y-57682624D01*
X21963000Y-57593013D01*
X21946876Y-57491217D01*
X21933440Y-57406382D01*
X21924004Y-57377342D01*
X21923825Y-57376324D01*
X21922418Y-57372461D01*
X21900379Y-57304633D01*
X21875049Y-57226672D01*
X21858565Y-57194320D01*
X21858160Y-57193527D01*
X21855120Y-57187560D01*
X21852147Y-57179389D01*
X21842019Y-57161847D01*
X21789260Y-57058301D01*
X21789258Y-57058298D01*
X21789257Y-57058296D01*
X21758872Y-57016476D01*
X21758872Y-57016475D01*
X21755053Y-57011218D01*
X21747360Y-56997894D01*
X21732539Y-56980231D01*
X21730002Y-56976739D01*
X21729992Y-56976726D01*
X21729990Y-56976723D01*
X21678190Y-56905427D01*
X21625868Y-56853105D01*
X21612649Y-56837351D01*
X21596894Y-56824131D01*
X21544572Y-56771809D01*
X21473266Y-56720001D01*
X21473266Y-56720002D01*
X21469772Y-56717463D01*
X21452106Y-56702640D01*
X21438775Y-56694943D01*
X21391699Y-56660740D01*
X21391691Y-56660736D01*
X21291033Y-56609448D01*
X21291033Y-56609447D01*
X21288131Y-56607968D01*
X21270611Y-56597853D01*
X21262450Y-56594882D01*
X21255690Y-56591438D01*
X21255684Y-56591436D01*
X21223340Y-56574957D01*
X21223332Y-56574953D01*
X21079612Y-56528255D01*
X21079612Y-56528254D01*
X21077525Y-56527576D01*
X21073676Y-56526175D01*
X21072663Y-56525996D01*
X21067947Y-56524464D01*
X21067936Y-56524461D01*
X21043619Y-56516560D01*
X20856986Y-56487000D01*
X20856981Y-56487000D01*
X20764925Y-56487000D01*
X20760057Y-56486904D01*
X20340805Y-56470431D01*
X20335432Y-56470103D01*
X20237083Y-56461953D01*
X20232750Y-56461518D01*
X19952573Y-56428357D01*
X19865723Y-56418077D01*
X19859895Y-56417247D01*
X19767068Y-56401756D01*
X19763288Y-56401064D01*
X19395498Y-56327907D01*
X19389251Y-56326496D01*
X19382161Y-56324700D01*
X19306215Y-56305467D01*
X19302999Y-56304607D01*
X18933323Y-56200349D01*
X18926719Y-56198286D01*
X18907904Y-56191827D01*
X18858593Y-56174898D01*
X18855960Y-56173961D01*
X18482311Y-56036114D01*
X18475419Y-56033333D01*
X18429501Y-56013191D01*
X18427398Y-56012246D01*
X18045485Y-55836182D01*
X18038385Y-55832628D01*
X18026425Y-55826156D01*
X18024850Y-55825289D01*
X17632016Y-55605291D01*
X17623714Y-55600204D01*
X17240132Y-55343903D01*
X17232256Y-55338180D01*
X16869960Y-55052570D01*
X16862556Y-55046247D01*
X16826589Y-55012999D01*
X16523784Y-54733088D01*
X16516911Y-54726215D01*
X16203747Y-54387437D01*
X16197429Y-54380039D01*
X15911819Y-54017743D01*
X15906096Y-54009867D01*
X15823450Y-53886179D01*
X15649782Y-53626267D01*
X15644707Y-53617983D01*
X15424673Y-53225086D01*
X15423907Y-53223696D01*
X15417367Y-53211609D01*
X15413816Y-53204513D01*
X15257728Y-52865932D01*
X15237743Y-52822580D01*
X15236807Y-52820497D01*
X15216665Y-52774579D01*
X15213893Y-52767710D01*
X15076011Y-52393967D01*
X15075136Y-52391507D01*
X15051699Y-52323240D01*
X15049655Y-52316695D01*
X14955257Y-51981981D01*
X14945391Y-51946999D01*
X14944531Y-51943783D01*
X14923489Y-51860691D01*
X14922103Y-51854554D01*
X14848931Y-51486694D01*
X14848242Y-51482930D01*
X14832743Y-51390052D01*
X14831930Y-51384348D01*
X14788473Y-51017187D01*
X14788045Y-51012915D01*
X14779892Y-50914520D01*
X14779569Y-50909237D01*
X14764463Y-50524732D01*
X16212000Y-50524732D01*
X16212000Y-50900267D01*
X16244729Y-51274365D01*
X16309938Y-51644179D01*
X16309941Y-51644192D01*
X16407130Y-52006910D01*
X16535568Y-52359793D01*
X16694271Y-52700133D01*
X16694279Y-52700148D01*
X16716133Y-52738000D01*
X16882040Y-53025358D01*
X16882044Y-53025364D01*
X16882051Y-53025375D01*
X17097434Y-53332974D01*
X17171913Y-53421734D01*
X17338818Y-53620644D01*
X17604356Y-53886182D01*
X17723968Y-53986548D01*
X17892025Y-54127565D01*
X18199624Y-54342948D01*
X18199631Y-54342952D01*
X18199642Y-54342960D01*
X18270490Y-54383864D01*
X18524851Y-54530720D01*
X18524866Y-54530728D01*
X18865206Y-54689431D01*
X19128979Y-54785436D01*
X19218083Y-54817867D01*
X19218084Y-54817867D01*
X19218089Y-54817869D01*
X19332042Y-54848402D01*
X19580815Y-54915061D01*
X19950637Y-54980271D01*
X20324734Y-55012999D01*
X20324735Y-55013000D01*
X20324736Y-55013000D01*
X20700265Y-55013000D01*
X20700265Y-55012999D01*
X21074363Y-54980271D01*
X21444185Y-54915061D01*
X21806917Y-54817867D01*
X22159798Y-54689429D01*
X22279860Y-54633443D01*
X27312000Y-54633443D01*
X27312000Y-54791557D01*
X27340308Y-54897202D01*
X27352923Y-54944283D01*
X27352926Y-54944290D01*
X27431975Y-55081209D01*
X27431979Y-55081214D01*
X27431980Y-55081216D01*
X27543784Y-55193020D01*
X27543786Y-55193021D01*
X27543790Y-55193024D01*
X27680709Y-55272073D01*
X27680716Y-55272077D01*
X27833443Y-55313000D01*
X27833445Y-55313000D01*
X27991555Y-55313000D01*
X27991557Y-55313000D01*
X28144284Y-55272077D01*
X28281216Y-55193020D01*
X28393020Y-55081216D01*
X28472077Y-54944284D01*
X28513000Y-54791557D01*
X28513000Y-54673443D01*
X34912000Y-54673443D01*
X34912000Y-54831557D01*
X34951848Y-54980270D01*
X34952923Y-54984283D01*
X34952926Y-54984290D01*
X35031975Y-55121209D01*
X35031979Y-55121214D01*
X35031980Y-55121216D01*
X35143784Y-55233020D01*
X35143786Y-55233021D01*
X35143790Y-55233024D01*
X35211433Y-55272077D01*
X35280716Y-55312077D01*
X35433443Y-55353000D01*
X35433445Y-55353000D01*
X35591555Y-55353000D01*
X35591557Y-55353000D01*
X35744284Y-55312077D01*
X35881216Y-55233020D01*
X35993020Y-55121216D01*
X36072077Y-54984284D01*
X36113000Y-54831557D01*
X36113000Y-54673443D01*
X36072077Y-54520716D01*
X35995133Y-54387443D01*
X35993024Y-54383790D01*
X35993018Y-54383782D01*
X35881217Y-54271981D01*
X35881209Y-54271975D01*
X35744290Y-54192926D01*
X35744286Y-54192924D01*
X35744284Y-54192923D01*
X35591557Y-54152000D01*
X35433443Y-54152000D01*
X35280716Y-54192923D01*
X35280709Y-54192926D01*
X35143790Y-54271975D01*
X35143782Y-54271981D01*
X35031981Y-54383782D01*
X35031975Y-54383790D01*
X34952926Y-54520709D01*
X34952923Y-54520716D01*
X34912000Y-54673443D01*
X28513000Y-54673443D01*
X28513000Y-54633443D01*
X28472077Y-54480716D01*
X28472073Y-54480709D01*
X28393024Y-54343790D01*
X28393018Y-54343782D01*
X28281217Y-54231981D01*
X28281209Y-54231975D01*
X28144290Y-54152926D01*
X28144286Y-54152924D01*
X28144284Y-54152923D01*
X27991557Y-54112000D01*
X27833443Y-54112000D01*
X27680716Y-54152923D01*
X27680709Y-54152926D01*
X27543790Y-54231975D01*
X27543782Y-54231981D01*
X27431981Y-54343782D01*
X27431975Y-54343790D01*
X27352926Y-54480709D01*
X27352923Y-54480716D01*
X27312000Y-54633443D01*
X22279860Y-54633443D01*
X22500142Y-54530724D01*
X22517476Y-54520716D01*
X22522304Y-54517929D01*
X22586770Y-54480709D01*
X22825358Y-54342960D01*
X23132973Y-54127566D01*
X23420644Y-53886182D01*
X23686182Y-53620644D01*
X23927566Y-53332973D01*
X24142960Y-53025358D01*
X24330724Y-52700142D01*
X24478403Y-52383443D01*
X31912000Y-52383443D01*
X31912000Y-52541557D01*
X31932490Y-52618024D01*
X31952923Y-52694283D01*
X31952926Y-52694290D01*
X32031975Y-52831209D01*
X32031979Y-52831214D01*
X32031980Y-52831216D01*
X32143784Y-52943020D01*
X32143786Y-52943021D01*
X32143790Y-52943024D01*
X32245259Y-53001606D01*
X32280716Y-53022077D01*
X32433443Y-53063000D01*
X32433445Y-53063000D01*
X32591555Y-53063000D01*
X32591557Y-53063000D01*
X32744284Y-53022077D01*
X32881216Y-52943020D01*
X32924819Y-52899417D01*
X32986142Y-52865932D01*
X33055834Y-52870916D01*
X33100181Y-52899417D01*
X33143784Y-52943020D01*
X33143786Y-52943021D01*
X33143790Y-52943024D01*
X33245259Y-53001606D01*
X33280716Y-53022077D01*
X33433443Y-53063000D01*
X33433445Y-53063000D01*
X33591555Y-53063000D01*
X33591557Y-53063000D01*
X33744284Y-53022077D01*
X33881216Y-52943020D01*
X33924819Y-52899417D01*
X33986142Y-52865932D01*
X34055834Y-52870916D01*
X34100181Y-52899417D01*
X34143784Y-52943020D01*
X34143786Y-52943021D01*
X34143790Y-52943024D01*
X34245259Y-53001606D01*
X34280716Y-53022077D01*
X34433443Y-53063000D01*
X34433445Y-53063000D01*
X34591555Y-53063000D01*
X34591557Y-53063000D01*
X34744284Y-53022077D01*
X34881216Y-52943020D01*
X34993020Y-52831216D01*
X35072077Y-52694284D01*
X35113000Y-52541557D01*
X35113000Y-52383443D01*
X35072077Y-52230716D01*
X34993023Y-52093790D01*
X34993022Y-52093787D01*
X34993018Y-52093782D01*
X34957679Y-52058443D01*
X41037000Y-52058443D01*
X41037000Y-52216557D01*
X41075382Y-52359798D01*
X41077923Y-52369283D01*
X41077926Y-52369290D01*
X41156975Y-52506209D01*
X41156979Y-52506214D01*
X41156980Y-52506216D01*
X41268784Y-52618020D01*
X41268786Y-52618021D01*
X41268790Y-52618024D01*
X41400877Y-52694283D01*
X41405716Y-52697077D01*
X41558443Y-52738000D01*
X41558445Y-52738000D01*
X41716555Y-52738000D01*
X41716557Y-52738000D01*
X41869284Y-52697077D01*
X42006216Y-52618020D01*
X42118020Y-52506216D01*
X42197077Y-52369284D01*
X42238000Y-52216557D01*
X42238000Y-52058443D01*
X43012000Y-52058443D01*
X43012000Y-52216557D01*
X43050382Y-52359798D01*
X43052923Y-52369283D01*
X43052926Y-52369290D01*
X43131975Y-52506209D01*
X43131979Y-52506214D01*
X43131980Y-52506216D01*
X43243784Y-52618020D01*
X43243786Y-52618021D01*
X43243790Y-52618024D01*
X43375877Y-52694283D01*
X43380716Y-52697077D01*
X43533443Y-52738000D01*
X43533445Y-52738000D01*
X43691555Y-52738000D01*
X43691557Y-52738000D01*
X43844284Y-52697077D01*
X43981216Y-52618020D01*
X44093020Y-52506216D01*
X44172077Y-52369284D01*
X44213000Y-52216557D01*
X44213000Y-52058443D01*
X44172077Y-51905716D01*
X44170466Y-51902926D01*
X44093024Y-51768790D01*
X44093018Y-51768782D01*
X43981217Y-51656981D01*
X43981209Y-51656975D01*
X43844290Y-51577926D01*
X43844286Y-51577924D01*
X43844284Y-51577923D01*
X43691557Y-51537000D01*
X43533443Y-51537000D01*
X43380716Y-51577923D01*
X43380709Y-51577926D01*
X43243790Y-51656975D01*
X43243782Y-51656981D01*
X43131981Y-51768782D01*
X43131975Y-51768790D01*
X43052926Y-51905709D01*
X43052923Y-51905716D01*
X43012000Y-52058443D01*
X42238000Y-52058443D01*
X42197077Y-51905716D01*
X42195466Y-51902926D01*
X42118024Y-51768790D01*
X42118018Y-51768782D01*
X42006217Y-51656981D01*
X42006209Y-51656975D01*
X41869290Y-51577926D01*
X41869286Y-51577924D01*
X41869284Y-51577923D01*
X41716557Y-51537000D01*
X41558443Y-51537000D01*
X41405716Y-51577923D01*
X41405709Y-51577926D01*
X41268790Y-51656975D01*
X41268782Y-51656981D01*
X41156981Y-51768782D01*
X41156975Y-51768790D01*
X41077926Y-51905709D01*
X41077923Y-51905716D01*
X41037000Y-52058443D01*
X34957679Y-52058443D01*
X34881217Y-51981981D01*
X34881209Y-51981975D01*
X34744290Y-51902926D01*
X34744286Y-51902924D01*
X34744284Y-51902923D01*
X34591557Y-51862000D01*
X34433443Y-51862000D01*
X34280716Y-51902923D01*
X34280709Y-51902926D01*
X34143790Y-51981975D01*
X34143782Y-51981981D01*
X34100181Y-52025583D01*
X34038858Y-52059068D01*
X33969166Y-52054084D01*
X33924819Y-52025583D01*
X33881217Y-51981981D01*
X33881209Y-51981975D01*
X33744290Y-51902926D01*
X33744286Y-51902924D01*
X33744284Y-51902923D01*
X33591557Y-51862000D01*
X33433443Y-51862000D01*
X33280716Y-51902923D01*
X33280709Y-51902926D01*
X33143790Y-51981975D01*
X33143782Y-51981981D01*
X33100181Y-52025583D01*
X33038858Y-52059068D01*
X32969166Y-52054084D01*
X32924819Y-52025583D01*
X32881217Y-51981981D01*
X32881209Y-51981975D01*
X32744290Y-51902926D01*
X32744286Y-51902924D01*
X32744284Y-51902923D01*
X32591557Y-51862000D01*
X32433443Y-51862000D01*
X32280716Y-51902923D01*
X32280709Y-51902926D01*
X32143790Y-51981975D01*
X32143782Y-51981981D01*
X32031981Y-52093782D01*
X32031975Y-52093790D01*
X31952926Y-52230709D01*
X31952923Y-52230716D01*
X31912000Y-52383443D01*
X24478403Y-52383443D01*
X24489429Y-52359798D01*
X24489505Y-52359587D01*
X24499217Y-52332907D01*
X24499217Y-52332906D01*
X24541565Y-52216555D01*
X24617867Y-52006917D01*
X24715061Y-51644185D01*
X24780271Y-51274363D01*
X24813000Y-50900264D01*
X24813000Y-50524736D01*
X24813000Y-50524732D01*
X46712000Y-50524732D01*
X46712000Y-50900267D01*
X46744729Y-51274365D01*
X46809938Y-51644179D01*
X46809941Y-51644192D01*
X46907130Y-52006910D01*
X47035568Y-52359793D01*
X47194271Y-52700133D01*
X47194279Y-52700148D01*
X47216133Y-52738000D01*
X47382040Y-53025358D01*
X47382044Y-53025364D01*
X47382051Y-53025375D01*
X47597434Y-53332974D01*
X47671913Y-53421734D01*
X47838818Y-53620644D01*
X48104356Y-53886182D01*
X48223968Y-53986548D01*
X48392025Y-54127565D01*
X48699624Y-54342948D01*
X48699631Y-54342952D01*
X48699642Y-54342960D01*
X48770490Y-54383864D01*
X49024851Y-54530720D01*
X49024866Y-54530728D01*
X49365206Y-54689431D01*
X49628979Y-54785436D01*
X49718083Y-54817867D01*
X49718084Y-54817867D01*
X49718089Y-54817869D01*
X49832042Y-54848402D01*
X50080815Y-54915061D01*
X50450637Y-54980271D01*
X50824734Y-55012999D01*
X50824735Y-55013000D01*
X50824736Y-55013000D01*
X51200265Y-55013000D01*
X51200265Y-55012999D01*
X51574363Y-54980271D01*
X51944185Y-54915061D01*
X52306917Y-54817867D01*
X52659798Y-54689429D01*
X53000142Y-54530724D01*
X53325358Y-54342960D01*
X53632973Y-54127566D01*
X53920644Y-53886182D01*
X54186182Y-53620644D01*
X54427566Y-53332973D01*
X54642960Y-53025358D01*
X54830724Y-52700142D01*
X54989429Y-52359798D01*
X55005125Y-52316675D01*
X55041565Y-52216555D01*
X55117867Y-52006917D01*
X55215061Y-51644185D01*
X55280271Y-51274363D01*
X55313000Y-50900264D01*
X55313000Y-50524736D01*
X55280271Y-50150637D01*
X55215061Y-49780815D01*
X55117867Y-49418083D01*
X55085436Y-49328979D01*
X54989431Y-49065206D01*
X54830728Y-48724866D01*
X54830720Y-48724851D01*
X54713647Y-48522076D01*
X54642960Y-48399642D01*
X54642952Y-48399631D01*
X54642948Y-48399624D01*
X54427565Y-48092025D01*
X54235389Y-47862999D01*
X54186182Y-47804356D01*
X53920644Y-47538818D01*
X53781516Y-47422076D01*
X53632974Y-47297434D01*
X53325375Y-47082051D01*
X53325364Y-47082044D01*
X53325358Y-47082040D01*
X53228733Y-47026253D01*
X53000148Y-46894279D01*
X53000133Y-46894271D01*
X52659793Y-46735568D01*
X52306910Y-46607130D01*
X51944192Y-46509941D01*
X51944195Y-46509941D01*
X51944185Y-46509939D01*
X51852555Y-46493782D01*
X51574365Y-46444729D01*
X51200267Y-46412000D01*
X51200264Y-46412000D01*
X50824736Y-46412000D01*
X50824732Y-46412000D01*
X50450634Y-46444729D01*
X50080820Y-46509938D01*
X50080817Y-46509938D01*
X50080815Y-46509939D01*
X50080810Y-46509940D01*
X50080807Y-46509941D01*
X49718089Y-46607130D01*
X49365206Y-46735568D01*
X49024866Y-46894271D01*
X49024851Y-46894279D01*
X48699650Y-47082035D01*
X48699624Y-47082051D01*
X48392025Y-47297434D01*
X48104353Y-47538820D01*
X47838820Y-47804353D01*
X47597434Y-48092025D01*
X47382051Y-48399624D01*
X47382035Y-48399650D01*
X47194279Y-48724851D01*
X47194271Y-48724866D01*
X47035568Y-49065206D01*
X46907130Y-49418089D01*
X46809941Y-49780807D01*
X46809938Y-49780820D01*
X46744729Y-50150634D01*
X46712000Y-50524732D01*
X24813000Y-50524732D01*
X24780271Y-50150637D01*
X24715061Y-49780815D01*
X24617867Y-49418083D01*
X24585436Y-49328979D01*
X24489431Y-49065206D01*
X24330728Y-48724866D01*
X24330720Y-48724851D01*
X24213647Y-48522076D01*
X24142960Y-48399642D01*
X24142952Y-48399631D01*
X24142948Y-48399624D01*
X23927570Y-48092032D01*
X23918495Y-48081217D01*
X23752544Y-47883443D01*
X30312000Y-47883443D01*
X30312000Y-48041557D01*
X30352586Y-48193024D01*
X30352923Y-48194283D01*
X30352926Y-48194290D01*
X30431975Y-48331209D01*
X30431979Y-48331214D01*
X30431980Y-48331216D01*
X30543784Y-48443020D01*
X30543786Y-48443021D01*
X30543790Y-48443024D01*
X30680709Y-48522073D01*
X30680716Y-48522077D01*
X30833443Y-48563000D01*
X30833445Y-48563000D01*
X30991555Y-48563000D01*
X30991557Y-48563000D01*
X31144284Y-48522077D01*
X31281216Y-48443020D01*
X31393020Y-48331216D01*
X31472077Y-48194284D01*
X31513000Y-48041557D01*
X31513000Y-47883443D01*
X31472077Y-47730716D01*
X31415917Y-47633443D01*
X37112000Y-47633443D01*
X37112000Y-47791557D01*
X37136622Y-47883445D01*
X37152923Y-47944283D01*
X37152926Y-47944290D01*
X37231975Y-48081209D01*
X37231979Y-48081214D01*
X37231980Y-48081216D01*
X37343784Y-48193020D01*
X37343786Y-48193021D01*
X37343790Y-48193024D01*
X37480709Y-48272073D01*
X37480716Y-48272077D01*
X37633443Y-48313000D01*
X37633445Y-48313000D01*
X37791555Y-48313000D01*
X37791557Y-48313000D01*
X37944284Y-48272077D01*
X38081216Y-48193020D01*
X38193020Y-48081216D01*
X38272077Y-47944284D01*
X38313000Y-47791557D01*
X38313000Y-47633443D01*
X38272077Y-47480716D01*
X38238222Y-47422077D01*
X38193024Y-47343790D01*
X38193018Y-47343782D01*
X38081217Y-47231981D01*
X38081209Y-47231975D01*
X37944290Y-47152926D01*
X37944286Y-47152924D01*
X37944284Y-47152923D01*
X37791557Y-47112000D01*
X37633443Y-47112000D01*
X37480716Y-47152923D01*
X37480709Y-47152926D01*
X37343790Y-47231975D01*
X37343782Y-47231981D01*
X37231981Y-47343782D01*
X37231975Y-47343790D01*
X37152926Y-47480709D01*
X37152923Y-47480716D01*
X37112000Y-47633443D01*
X31415917Y-47633443D01*
X31393020Y-47593784D01*
X31281216Y-47481980D01*
X31281214Y-47481979D01*
X31281209Y-47481975D01*
X31144290Y-47402926D01*
X31144286Y-47402924D01*
X31144284Y-47402923D01*
X30991557Y-47362000D01*
X30833443Y-47362000D01*
X30680716Y-47402923D01*
X30680709Y-47402926D01*
X30543790Y-47481975D01*
X30543782Y-47481981D01*
X30431981Y-47593782D01*
X30431975Y-47593790D01*
X30352926Y-47730709D01*
X30352923Y-47730716D01*
X30312000Y-47883443D01*
X23752544Y-47883443D01*
X23686182Y-47804356D01*
X23420644Y-47538818D01*
X23281516Y-47422076D01*
X23132974Y-47297434D01*
X22825375Y-47082051D01*
X22825364Y-47082044D01*
X22825358Y-47082040D01*
X22728733Y-47026253D01*
X22500148Y-46894279D01*
X22500124Y-46894267D01*
X22486037Y-46887698D01*
X22486036Y-46887698D01*
X22262461Y-46783443D01*
X28212000Y-46783443D01*
X28212000Y-46941557D01*
X28249643Y-47082040D01*
X28252923Y-47094283D01*
X28252926Y-47094290D01*
X28331975Y-47231209D01*
X28331979Y-47231214D01*
X28331980Y-47231216D01*
X28443784Y-47343020D01*
X28443786Y-47343021D01*
X28443790Y-47343024D01*
X28547540Y-47402923D01*
X28580716Y-47422077D01*
X28733443Y-47463000D01*
X28733445Y-47463000D01*
X28891555Y-47463000D01*
X28891557Y-47463000D01*
X29044284Y-47422077D01*
X29181216Y-47343020D01*
X29293020Y-47231216D01*
X29372077Y-47094284D01*
X29413000Y-46941557D01*
X29413000Y-46783443D01*
X29372077Y-46630716D01*
X29293020Y-46493784D01*
X29282679Y-46483443D01*
X42662000Y-46483443D01*
X42662000Y-46641556D01*
X42702923Y-46794283D01*
X42702925Y-46794288D01*
X42735379Y-46850502D01*
X42751850Y-46918402D01*
X42735379Y-46974498D01*
X42702925Y-47030711D01*
X42702923Y-47030716D01*
X42662000Y-47183443D01*
X42662000Y-47341557D01*
X42699627Y-47481981D01*
X42702923Y-47494283D01*
X42702926Y-47494290D01*
X42781975Y-47631209D01*
X42781979Y-47631214D01*
X42781980Y-47631216D01*
X42893784Y-47743020D01*
X42893786Y-47743021D01*
X42893790Y-47743024D01*
X42977853Y-47791557D01*
X43030716Y-47822077D01*
X43183443Y-47863000D01*
X43183445Y-47863000D01*
X43341555Y-47863000D01*
X43341557Y-47863000D01*
X43494284Y-47822077D01*
X43549056Y-47790454D01*
X43631207Y-47743026D01*
X43631211Y-47743022D01*
X43631216Y-47743020D01*
X43631219Y-47743016D01*
X43637007Y-47738575D01*
X43702174Y-47713377D01*
X43770620Y-47727410D01*
X43787993Y-47738575D01*
X43793792Y-47743026D01*
X43930709Y-47822073D01*
X43930716Y-47822077D01*
X44083443Y-47863000D01*
X44083445Y-47863000D01*
X44241555Y-47863000D01*
X44241557Y-47863000D01*
X44394284Y-47822077D01*
X44531216Y-47743020D01*
X44643020Y-47631216D01*
X44722077Y-47494284D01*
X44763000Y-47341557D01*
X44763000Y-47183443D01*
X44722077Y-47030716D01*
X44689619Y-46974497D01*
X44673147Y-46906601D01*
X44689618Y-46850503D01*
X44722077Y-46794284D01*
X44763000Y-46641557D01*
X44763000Y-46483443D01*
X44722077Y-46330716D01*
X44682404Y-46262000D01*
X44643024Y-46193790D01*
X44643018Y-46193782D01*
X44531217Y-46081981D01*
X44531209Y-46081975D01*
X44394290Y-46002926D01*
X44394286Y-46002924D01*
X44394284Y-46002923D01*
X44241557Y-45962000D01*
X44083443Y-45962000D01*
X43930716Y-46002923D01*
X43930709Y-46002926D01*
X43793791Y-46081975D01*
X43787988Y-46086428D01*
X43722819Y-46111623D01*
X43654374Y-46097586D01*
X43637012Y-46086428D01*
X43631220Y-46081984D01*
X43631216Y-46081980D01*
X43631210Y-46081976D01*
X43631208Y-46081975D01*
X43494290Y-46002926D01*
X43494286Y-46002924D01*
X43494284Y-46002923D01*
X43341557Y-45962000D01*
X43183443Y-45962000D01*
X43030716Y-46002923D01*
X43030709Y-46002926D01*
X42893790Y-46081975D01*
X42893782Y-46081981D01*
X42781981Y-46193782D01*
X42781975Y-46193790D01*
X42702926Y-46330709D01*
X42702923Y-46330716D01*
X42662000Y-46483443D01*
X29282679Y-46483443D01*
X29181216Y-46381980D01*
X29181214Y-46381979D01*
X29181209Y-46381975D01*
X29044290Y-46302926D01*
X29044286Y-46302924D01*
X29044284Y-46302923D01*
X28891557Y-46262000D01*
X28733443Y-46262000D01*
X28580716Y-46302923D01*
X28580709Y-46302926D01*
X28443790Y-46381975D01*
X28443782Y-46381981D01*
X28331981Y-46493782D01*
X28331975Y-46493790D01*
X28252926Y-46630709D01*
X28252923Y-46630716D01*
X28212000Y-46783443D01*
X22262461Y-46783443D01*
X22159793Y-46735568D01*
X21806910Y-46607130D01*
X21444192Y-46509941D01*
X21444195Y-46509941D01*
X21444185Y-46509939D01*
X21352555Y-46493782D01*
X21074365Y-46444729D01*
X20700267Y-46412000D01*
X20700264Y-46412000D01*
X20324736Y-46412000D01*
X20324732Y-46412000D01*
X19950634Y-46444729D01*
X19580820Y-46509938D01*
X19580817Y-46509938D01*
X19580815Y-46509939D01*
X19580810Y-46509940D01*
X19580807Y-46509941D01*
X19218089Y-46607130D01*
X18865206Y-46735568D01*
X18524866Y-46894271D01*
X18524851Y-46894279D01*
X18199650Y-47082035D01*
X18199624Y-47082051D01*
X17892025Y-47297434D01*
X17604353Y-47538820D01*
X17338820Y-47804353D01*
X17097434Y-48092025D01*
X16882051Y-48399624D01*
X16882035Y-48399650D01*
X16694279Y-48724851D01*
X16694271Y-48724866D01*
X16535568Y-49065206D01*
X16407130Y-49418089D01*
X16309941Y-49780807D01*
X16309938Y-49780820D01*
X16244729Y-50150634D01*
X16212000Y-50524732D01*
X14764463Y-50524732D01*
X14763096Y-50489943D01*
X14763000Y-50485075D01*
X14763000Y-42983443D01*
X40462000Y-42983443D01*
X40462000Y-43141556D01*
X40502923Y-43294283D01*
X40502926Y-43294290D01*
X40581975Y-43431209D01*
X40581979Y-43431214D01*
X40581980Y-43431216D01*
X40693784Y-43543020D01*
X40693786Y-43543021D01*
X40693790Y-43543024D01*
X40830709Y-43622073D01*
X40830716Y-43622077D01*
X40983443Y-43663000D01*
X40983445Y-43663000D01*
X41141555Y-43663000D01*
X41141557Y-43663000D01*
X41294284Y-43622077D01*
X41431216Y-43543020D01*
X41543020Y-43431216D01*
X41622077Y-43294284D01*
X41663000Y-43141557D01*
X41663000Y-42983443D01*
X41622077Y-42830716D01*
X41609218Y-42808443D01*
X51762000Y-42808443D01*
X51762000Y-42966556D01*
X51802923Y-43119283D01*
X51802926Y-43119290D01*
X51881975Y-43256209D01*
X51881979Y-43256214D01*
X51881980Y-43256216D01*
X51993784Y-43368020D01*
X51993786Y-43368021D01*
X51993790Y-43368024D01*
X52103245Y-43431217D01*
X52130716Y-43447077D01*
X52283443Y-43488000D01*
X52283445Y-43488000D01*
X52441555Y-43488000D01*
X52441557Y-43488000D01*
X52594284Y-43447077D01*
X52731216Y-43368020D01*
X52843020Y-43256216D01*
X52922077Y-43119284D01*
X52963000Y-42966557D01*
X52963000Y-42808443D01*
X52922077Y-42655716D01*
X52922073Y-42655709D01*
X52843024Y-42518790D01*
X52843018Y-42518782D01*
X52731217Y-42406981D01*
X52731209Y-42406975D01*
X52594290Y-42327926D01*
X52594286Y-42327924D01*
X52594284Y-42327923D01*
X52441557Y-42287000D01*
X52283443Y-42287000D01*
X52130716Y-42327923D01*
X52130709Y-42327926D01*
X51993790Y-42406975D01*
X51993782Y-42406981D01*
X51881981Y-42518782D01*
X51881975Y-42518790D01*
X51802926Y-42655709D01*
X51802923Y-42655716D01*
X51762000Y-42808443D01*
X41609218Y-42808443D01*
X41543024Y-42693790D01*
X41543018Y-42693782D01*
X41431217Y-42581981D01*
X41431209Y-42581975D01*
X41294290Y-42502926D01*
X41294286Y-42502924D01*
X41294284Y-42502923D01*
X41141557Y-42462000D01*
X40983443Y-42462000D01*
X40830716Y-42502923D01*
X40830709Y-42502926D01*
X40693790Y-42581975D01*
X40693782Y-42581981D01*
X40581981Y-42693782D01*
X40581975Y-42693790D01*
X40502926Y-42830709D01*
X40502923Y-42830716D01*
X40462000Y-42983443D01*
X14763000Y-42983443D01*
X14763000Y-41383443D01*
X24387000Y-41383443D01*
X24387000Y-41541557D01*
X24387001Y-41541558D01*
X24427923Y-41694283D01*
X24427926Y-41694290D01*
X24506975Y-41831209D01*
X24506979Y-41831214D01*
X24506980Y-41831216D01*
X24618784Y-41943020D01*
X24618786Y-41943021D01*
X24618790Y-41943024D01*
X24755709Y-42022073D01*
X24755716Y-42022077D01*
X24908443Y-42063000D01*
X24908445Y-42063000D01*
X25066555Y-42063000D01*
X25066557Y-42063000D01*
X25219284Y-42022077D01*
X25356216Y-41943020D01*
X25468020Y-41831216D01*
X25547077Y-41694284D01*
X25570078Y-41608443D01*
X32112000Y-41608443D01*
X32112000Y-41766557D01*
X32129326Y-41831216D01*
X32152923Y-41919283D01*
X32152926Y-41919290D01*
X32231975Y-42056209D01*
X32231979Y-42056214D01*
X32231980Y-42056216D01*
X32343784Y-42168020D01*
X32343786Y-42168021D01*
X32343790Y-42168024D01*
X32480709Y-42247073D01*
X32480716Y-42247077D01*
X32633443Y-42288000D01*
X32633445Y-42288000D01*
X32791555Y-42288000D01*
X32791557Y-42288000D01*
X32944284Y-42247077D01*
X33081216Y-42168020D01*
X33193020Y-42056216D01*
X33272077Y-41919284D01*
X33313000Y-41766557D01*
X33313000Y-41608443D01*
X33272077Y-41455716D01*
X33230351Y-41383443D01*
X33193024Y-41318790D01*
X33193018Y-41318782D01*
X33081217Y-41206981D01*
X33081209Y-41206975D01*
X32944290Y-41127926D01*
X32944286Y-41127924D01*
X32944284Y-41127923D01*
X32791557Y-41087000D01*
X32633443Y-41087000D01*
X32480716Y-41127923D01*
X32480709Y-41127926D01*
X32343790Y-41206975D01*
X32343782Y-41206981D01*
X32231981Y-41318782D01*
X32231975Y-41318790D01*
X32152926Y-41455709D01*
X32152923Y-41455716D01*
X32112000Y-41608443D01*
X25570078Y-41608443D01*
X25588000Y-41541557D01*
X25588000Y-41383443D01*
X25547077Y-41230716D01*
X25487730Y-41127923D01*
X25468024Y-41093790D01*
X25468018Y-41093782D01*
X25356217Y-40981981D01*
X25356209Y-40981975D01*
X25219290Y-40902926D01*
X25219286Y-40902924D01*
X25219284Y-40902923D01*
X25066557Y-40862000D01*
X24908443Y-40862000D01*
X24755716Y-40902923D01*
X24755709Y-40902926D01*
X24618790Y-40981975D01*
X24618782Y-40981981D01*
X24506981Y-41093782D01*
X24506975Y-41093790D01*
X24427926Y-41230709D01*
X24427923Y-41230716D01*
X24387000Y-41383443D01*
X14763000Y-41383443D01*
X14763000Y-39670943D01*
X32524500Y-39670943D01*
X32524500Y-39829057D01*
X32549030Y-39920602D01*
X32565423Y-39981783D01*
X32565426Y-39981790D01*
X32644475Y-40118709D01*
X32644479Y-40118714D01*
X32644480Y-40118716D01*
X32756284Y-40230520D01*
X32756286Y-40230521D01*
X32756290Y-40230524D01*
X32893209Y-40309573D01*
X32893216Y-40309577D01*
X33045943Y-40350500D01*
X33045945Y-40350500D01*
X33204055Y-40350500D01*
X33204057Y-40350500D01*
X33356784Y-40309577D01*
X33493716Y-40230520D01*
X33605520Y-40118716D01*
X33684577Y-39981784D01*
X33725500Y-39829057D01*
X33725500Y-39670943D01*
X33684577Y-39518216D01*
X33680768Y-39511619D01*
X33605524Y-39381290D01*
X33605518Y-39381282D01*
X33493717Y-39269481D01*
X33493709Y-39269475D01*
X33356790Y-39190426D01*
X33356786Y-39190424D01*
X33356784Y-39190423D01*
X33204057Y-39149500D01*
X33045943Y-39149500D01*
X32893216Y-39190423D01*
X32893209Y-39190426D01*
X32756290Y-39269475D01*
X32756282Y-39269481D01*
X32644481Y-39381282D01*
X32644475Y-39381290D01*
X32565426Y-39518209D01*
X32565423Y-39518216D01*
X32524500Y-39670943D01*
X14763000Y-39670943D01*
X14763000Y-37033443D01*
X28312000Y-37033443D01*
X28312000Y-37191557D01*
X28352789Y-37343782D01*
X28352923Y-37344283D01*
X28352926Y-37344290D01*
X28431975Y-37481209D01*
X28431979Y-37481214D01*
X28431980Y-37481216D01*
X28543784Y-37593020D01*
X28543786Y-37593021D01*
X28543790Y-37593024D01*
X28652319Y-37655682D01*
X28680716Y-37672077D01*
X28833443Y-37713000D01*
X28833445Y-37713000D01*
X28991555Y-37713000D01*
X28991557Y-37713000D01*
X29144284Y-37672077D01*
X29211201Y-37633443D01*
X38862000Y-37633443D01*
X38862000Y-37791557D01*
X38896225Y-37919284D01*
X38902923Y-37944283D01*
X38902926Y-37944290D01*
X38981975Y-38081209D01*
X38981979Y-38081214D01*
X38981980Y-38081216D01*
X39093784Y-38193020D01*
X39093786Y-38193021D01*
X39093790Y-38193024D01*
X39187414Y-38247077D01*
X39230716Y-38272077D01*
X39383443Y-38313000D01*
X39383445Y-38313000D01*
X39541554Y-38313000D01*
X39541557Y-38313000D01*
X39603046Y-38296524D01*
X39672893Y-38298187D01*
X39730756Y-38337349D01*
X39758260Y-38401577D01*
X39746674Y-38470480D01*
X39733516Y-38491781D01*
X39731978Y-38493784D01*
X39652926Y-38630709D01*
X39652923Y-38630716D01*
X39612000Y-38783443D01*
X39612000Y-38941557D01*
X39647304Y-39073311D01*
X39652923Y-39094283D01*
X39652926Y-39094290D01*
X39731975Y-39231209D01*
X39731979Y-39231214D01*
X39731980Y-39231216D01*
X39843784Y-39343020D01*
X39843786Y-39343021D01*
X39843790Y-39343024D01*
X39910070Y-39381290D01*
X39980716Y-39422077D01*
X40133443Y-39463000D01*
X40133445Y-39463000D01*
X40291555Y-39463000D01*
X40291557Y-39463000D01*
X40444284Y-39422077D01*
X40581216Y-39343020D01*
X40693020Y-39231216D01*
X40762142Y-39111492D01*
X49757000Y-39111492D01*
X49757000Y-39313507D01*
X49796407Y-39511619D01*
X49796409Y-39511627D01*
X49873712Y-39698252D01*
X49873717Y-39698262D01*
X49985941Y-39866218D01*
X50128781Y-40009058D01*
X50296737Y-40121282D01*
X50296741Y-40121284D01*
X50296744Y-40121286D01*
X50483373Y-40198591D01*
X50681492Y-40237999D01*
X50681496Y-40238000D01*
X50681497Y-40238000D01*
X51433504Y-40238000D01*
X51433505Y-40237999D01*
X51631627Y-40198591D01*
X51818256Y-40121286D01*
X51986218Y-40009058D01*
X52129058Y-39866218D01*
X52241286Y-39698256D01*
X52318591Y-39511627D01*
X52358000Y-39313503D01*
X52358000Y-39276266D01*
X53657000Y-39276266D01*
X53657000Y-39448733D01*
X53690643Y-39617866D01*
X53690646Y-39617878D01*
X53756638Y-39777198D01*
X53756645Y-39777211D01*
X53852454Y-39920598D01*
X53852457Y-39920602D01*
X53974397Y-40042542D01*
X53974401Y-40042545D01*
X54117788Y-40138354D01*
X54117801Y-40138361D01*
X54263208Y-40198590D01*
X54277126Y-40204355D01*
X54408687Y-40230524D01*
X54446266Y-40237999D01*
X54446269Y-40238000D01*
X54446271Y-40238000D01*
X55268731Y-40238000D01*
X55268732Y-40237999D01*
X55437874Y-40204355D01*
X55597205Y-40138358D01*
X55740599Y-40042545D01*
X55862545Y-39920599D01*
X55958358Y-39777205D01*
X56024355Y-39617874D01*
X56058000Y-39448729D01*
X56058000Y-39276271D01*
X56058000Y-39276268D01*
X56057999Y-39276266D01*
X56040924Y-39190423D01*
X56024355Y-39107126D01*
X56010349Y-39073312D01*
X55958361Y-38947801D01*
X55958354Y-38947788D01*
X55862545Y-38804401D01*
X55862542Y-38804397D01*
X55740602Y-38682457D01*
X55740598Y-38682454D01*
X55597211Y-38586645D01*
X55597198Y-38586638D01*
X55437878Y-38520646D01*
X55437866Y-38520643D01*
X55268732Y-38487000D01*
X55268729Y-38487000D01*
X54446271Y-38487000D01*
X54446268Y-38487000D01*
X54277133Y-38520643D01*
X54277121Y-38520646D01*
X54117801Y-38586638D01*
X54117788Y-38586645D01*
X53974401Y-38682454D01*
X53974397Y-38682457D01*
X53852457Y-38804397D01*
X53852454Y-38804401D01*
X53756645Y-38947788D01*
X53756638Y-38947801D01*
X53690646Y-39107121D01*
X53690643Y-39107133D01*
X53657000Y-39276266D01*
X52358000Y-39276266D01*
X52358000Y-39111497D01*
X52318591Y-38913373D01*
X52275854Y-38810197D01*
X52268385Y-38740727D01*
X52299660Y-38678248D01*
X52342957Y-38648185D01*
X52439311Y-38608275D01*
X52554042Y-38531614D01*
X52651614Y-38434042D01*
X52728275Y-38319311D01*
X52734736Y-38303714D01*
X52747840Y-38272076D01*
X52781080Y-38191828D01*
X52795475Y-38119459D01*
X52808000Y-38056495D01*
X52808000Y-37918504D01*
X52781081Y-37783177D01*
X52781080Y-37783176D01*
X52781080Y-37783172D01*
X52774198Y-37766557D01*
X52728278Y-37655695D01*
X52728271Y-37655682D01*
X52651614Y-37540958D01*
X52651611Y-37540954D01*
X52554045Y-37443388D01*
X52554041Y-37443385D01*
X52439317Y-37366728D01*
X52439304Y-37366721D01*
X52311832Y-37313921D01*
X52311822Y-37313918D01*
X52176495Y-37287000D01*
X52176493Y-37287000D01*
X52038507Y-37287000D01*
X52038505Y-37287000D01*
X51903177Y-37313918D01*
X51903167Y-37313921D01*
X51775695Y-37366721D01*
X51775682Y-37366728D01*
X51660958Y-37443385D01*
X51660954Y-37443388D01*
X51563388Y-37540954D01*
X51563385Y-37540958D01*
X51486728Y-37655682D01*
X51486721Y-37655695D01*
X51433921Y-37783167D01*
X51433918Y-37783177D01*
X51407000Y-37918504D01*
X51407000Y-38062585D01*
X51404210Y-38062585D01*
X51393442Y-38119459D01*
X51345392Y-38170183D01*
X51283041Y-38187000D01*
X50681492Y-38187000D01*
X50483380Y-38226407D01*
X50483372Y-38226409D01*
X50296747Y-38303712D01*
X50296737Y-38303717D01*
X50128781Y-38415941D01*
X49985941Y-38558781D01*
X49873717Y-38726737D01*
X49873712Y-38726747D01*
X49796409Y-38913372D01*
X49796407Y-38913380D01*
X49757000Y-39111492D01*
X40762142Y-39111492D01*
X40772077Y-39094284D01*
X40813000Y-38941557D01*
X40813000Y-38783443D01*
X40772077Y-38630716D01*
X40759120Y-38608273D01*
X40693024Y-38493790D01*
X40693018Y-38493782D01*
X40581217Y-38381981D01*
X40581209Y-38381975D01*
X40444290Y-38302926D01*
X40444286Y-38302924D01*
X40444284Y-38302923D01*
X40291557Y-38262000D01*
X40133443Y-38262000D01*
X40133441Y-38262000D01*
X40071954Y-38278475D01*
X40002104Y-38276812D01*
X39944242Y-38237648D01*
X39916739Y-38173419D01*
X39928326Y-38104517D01*
X39941493Y-38083205D01*
X39943015Y-38081220D01*
X39943020Y-38081216D01*
X40022077Y-37944284D01*
X40063000Y-37791557D01*
X40063000Y-37633443D01*
X40056301Y-37608443D01*
X48487000Y-37608443D01*
X48487000Y-37766557D01*
X48493699Y-37791556D01*
X48527923Y-37919283D01*
X48527926Y-37919290D01*
X48606975Y-38056209D01*
X48606979Y-38056214D01*
X48606980Y-38056216D01*
X48718784Y-38168020D01*
X48718786Y-38168021D01*
X48718790Y-38168024D01*
X48839384Y-38237648D01*
X48855716Y-38247077D01*
X49008443Y-38288000D01*
X49008445Y-38288000D01*
X49166555Y-38288000D01*
X49166557Y-38288000D01*
X49319284Y-38247077D01*
X49456216Y-38168020D01*
X49568020Y-38056216D01*
X49647077Y-37919284D01*
X49688000Y-37766557D01*
X49688000Y-37608443D01*
X49647077Y-37455716D01*
X49647073Y-37455709D01*
X49568024Y-37318790D01*
X49568018Y-37318782D01*
X49456217Y-37206981D01*
X49456209Y-37206975D01*
X49319290Y-37127926D01*
X49319286Y-37127924D01*
X49319284Y-37127923D01*
X49166557Y-37087000D01*
X49008443Y-37087000D01*
X48855716Y-37127923D01*
X48855709Y-37127926D01*
X48718790Y-37206975D01*
X48718782Y-37206981D01*
X48606981Y-37318782D01*
X48606975Y-37318790D01*
X48527926Y-37455709D01*
X48527923Y-37455716D01*
X48487000Y-37608443D01*
X40056301Y-37608443D01*
X40022077Y-37480716D01*
X40022073Y-37480709D01*
X39943024Y-37343790D01*
X39943018Y-37343782D01*
X39831217Y-37231981D01*
X39831209Y-37231975D01*
X39694290Y-37152926D01*
X39694286Y-37152924D01*
X39694284Y-37152923D01*
X39541557Y-37112000D01*
X39383443Y-37112000D01*
X39230716Y-37152923D01*
X39230709Y-37152926D01*
X39093790Y-37231975D01*
X39093782Y-37231981D01*
X38981981Y-37343782D01*
X38981975Y-37343790D01*
X38902926Y-37480709D01*
X38902924Y-37480714D01*
X38902923Y-37480716D01*
X38862000Y-37633443D01*
X29211201Y-37633443D01*
X29281216Y-37593020D01*
X29393020Y-37481216D01*
X29472077Y-37344284D01*
X29513000Y-37191557D01*
X29513000Y-37033443D01*
X29472077Y-36880716D01*
X29472073Y-36880709D01*
X29393024Y-36743790D01*
X29393018Y-36743782D01*
X29281217Y-36631981D01*
X29281209Y-36631975D01*
X29144290Y-36552926D01*
X29144286Y-36552924D01*
X29144284Y-36552923D01*
X28991557Y-36512000D01*
X28833443Y-36512000D01*
X28680716Y-36552923D01*
X28680709Y-36552926D01*
X28543790Y-36631975D01*
X28543782Y-36631981D01*
X28431981Y-36743782D01*
X28431975Y-36743790D01*
X28352926Y-36880709D01*
X28352923Y-36880716D01*
X28312000Y-37033443D01*
X14763000Y-37033443D01*
X14763000Y-33151571D01*
X15881999Y-33151571D01*
X15906997Y-33277238D01*
X15906999Y-33277244D01*
X15956033Y-33395624D01*
X15956038Y-33395633D01*
X16027223Y-33502168D01*
X16027226Y-33502172D01*
X16117827Y-33592773D01*
X16117831Y-33592776D01*
X16224366Y-33663961D01*
X16224379Y-33663968D01*
X16345721Y-33714229D01*
X16400125Y-33758070D01*
X16422190Y-33824364D01*
X16418045Y-33860879D01*
X16412000Y-33883440D01*
X16412000Y-33883443D01*
X16412000Y-34041557D01*
X16439242Y-34143223D01*
X16452923Y-34194283D01*
X16452926Y-34194290D01*
X16531975Y-34331209D01*
X16531979Y-34331214D01*
X16531980Y-34331216D01*
X16643784Y-34443020D01*
X16643786Y-34443021D01*
X16643790Y-34443024D01*
X16732587Y-34494290D01*
X16780716Y-34522077D01*
X16933443Y-34563000D01*
X16933445Y-34563000D01*
X17091555Y-34563000D01*
X17091557Y-34563000D01*
X17244284Y-34522077D01*
X17381216Y-34443020D01*
X17493020Y-34331216D01*
X17572077Y-34194284D01*
X17574982Y-34183443D01*
X27662000Y-34183443D01*
X27662000Y-34341557D01*
X27689187Y-34443018D01*
X27702923Y-34494283D01*
X27702926Y-34494290D01*
X27781975Y-34631209D01*
X27781979Y-34631214D01*
X27781980Y-34631216D01*
X27893784Y-34743020D01*
X27893786Y-34743021D01*
X27893790Y-34743024D01*
X28030709Y-34822073D01*
X28030716Y-34822077D01*
X28183443Y-34863000D01*
X28183445Y-34863000D01*
X28341555Y-34863000D01*
X28341557Y-34863000D01*
X28451865Y-34833443D01*
X37662000Y-34833443D01*
X37662000Y-34991556D01*
X37702923Y-35144283D01*
X37702926Y-35144290D01*
X37781975Y-35281209D01*
X37781979Y-35281214D01*
X37781980Y-35281216D01*
X37893784Y-35393020D01*
X37893786Y-35393021D01*
X37893790Y-35393024D01*
X38013262Y-35462000D01*
X38030716Y-35472077D01*
X38183443Y-35513000D01*
X38183445Y-35513000D01*
X38341554Y-35513000D01*
X38341557Y-35513000D01*
X38403046Y-35496524D01*
X38472893Y-35498187D01*
X38530756Y-35537349D01*
X38558260Y-35601577D01*
X38546674Y-35670480D01*
X38533516Y-35691781D01*
X38531978Y-35693784D01*
X38452926Y-35830709D01*
X38452923Y-35830716D01*
X38412000Y-35983443D01*
X38412000Y-36141556D01*
X38452923Y-36294283D01*
X38452926Y-36294290D01*
X38531975Y-36431209D01*
X38531979Y-36431214D01*
X38531980Y-36431216D01*
X38643784Y-36543020D01*
X38643786Y-36543021D01*
X38643790Y-36543024D01*
X38780709Y-36622073D01*
X38780716Y-36622077D01*
X38933443Y-36663000D01*
X38933445Y-36663000D01*
X39091555Y-36663000D01*
X39091557Y-36663000D01*
X39244284Y-36622077D01*
X39381216Y-36543020D01*
X39493020Y-36431216D01*
X39572077Y-36294284D01*
X39613000Y-36141557D01*
X39613000Y-35983443D01*
X39572077Y-35830716D01*
X39572073Y-35830709D01*
X39493024Y-35693790D01*
X39493018Y-35693782D01*
X39381217Y-35581981D01*
X39381209Y-35581975D01*
X39244290Y-35502926D01*
X39244286Y-35502924D01*
X39244284Y-35502923D01*
X39091557Y-35462000D01*
X38933443Y-35462000D01*
X38933441Y-35462000D01*
X38871954Y-35478475D01*
X38802104Y-35476812D01*
X38744242Y-35437648D01*
X38716739Y-35373419D01*
X38728326Y-35304517D01*
X38741493Y-35283205D01*
X38743015Y-35281220D01*
X38743020Y-35281216D01*
X38822077Y-35144284D01*
X38863000Y-34991557D01*
X38863000Y-34833443D01*
X38822077Y-34680716D01*
X38793499Y-34631217D01*
X38743024Y-34543790D01*
X38743018Y-34543782D01*
X38631217Y-34431981D01*
X38631209Y-34431975D01*
X38494290Y-34352926D01*
X38494286Y-34352924D01*
X38494284Y-34352923D01*
X38341557Y-34312000D01*
X38183443Y-34312000D01*
X38030716Y-34352923D01*
X38030709Y-34352926D01*
X37893790Y-34431975D01*
X37893782Y-34431981D01*
X37781981Y-34543782D01*
X37781975Y-34543790D01*
X37702926Y-34680709D01*
X37702923Y-34680716D01*
X37662000Y-34833443D01*
X28451865Y-34833443D01*
X28494284Y-34822077D01*
X28631216Y-34743020D01*
X28743020Y-34631216D01*
X28822077Y-34494284D01*
X28863000Y-34341557D01*
X28863000Y-34183443D01*
X28822077Y-34030716D01*
X28822073Y-34030709D01*
X28743024Y-33893790D01*
X28743018Y-33893782D01*
X28631217Y-33781981D01*
X28631209Y-33781975D01*
X28494290Y-33702926D01*
X28494286Y-33702924D01*
X28494284Y-33702923D01*
X28341557Y-33662000D01*
X28183443Y-33662000D01*
X28030716Y-33702923D01*
X28030709Y-33702926D01*
X27893790Y-33781975D01*
X27893782Y-33781981D01*
X27781981Y-33893782D01*
X27781975Y-33893790D01*
X27702926Y-34030709D01*
X27702923Y-34030716D01*
X27662000Y-34183443D01*
X17574982Y-34183443D01*
X17613000Y-34041557D01*
X17613000Y-33883443D01*
X17572077Y-33730716D01*
X17547415Y-33688000D01*
X17493024Y-33593790D01*
X17493018Y-33593782D01*
X17381217Y-33481981D01*
X17381209Y-33481975D01*
X17244290Y-33402926D01*
X17244287Y-33402924D01*
X17244284Y-33402923D01*
X17244280Y-33402922D01*
X17236777Y-33399814D01*
X17237997Y-33396866D01*
X17191136Y-33368288D01*
X17160620Y-33305434D01*
X17161291Y-33260706D01*
X17183000Y-33151571D01*
X17183000Y-33023428D01*
X17158002Y-32897761D01*
X17158001Y-32897760D01*
X17158001Y-32897756D01*
X17120074Y-32806192D01*
X17108966Y-32779375D01*
X17108961Y-32779366D01*
X17037776Y-32672831D01*
X17037773Y-32672827D01*
X16947172Y-32582226D01*
X16947168Y-32582223D01*
X16889130Y-32543443D01*
X42052000Y-32543443D01*
X42052000Y-32701557D01*
X42075163Y-32788000D01*
X42092923Y-32854283D01*
X42092926Y-32854290D01*
X42171975Y-32991209D01*
X42171979Y-32991214D01*
X42171980Y-32991216D01*
X42283784Y-33103020D01*
X42283786Y-33103021D01*
X42283790Y-33103024D01*
X42420709Y-33182073D01*
X42420716Y-33182077D01*
X42573443Y-33223000D01*
X42573445Y-33223000D01*
X42731555Y-33223000D01*
X42731557Y-33223000D01*
X42884284Y-33182077D01*
X43021216Y-33103020D01*
X43133020Y-32991216D01*
X43212077Y-32854284D01*
X43253000Y-32701557D01*
X43253000Y-32543443D01*
X43212077Y-32390716D01*
X43175185Y-32326816D01*
X43133024Y-32253790D01*
X43133018Y-32253782D01*
X43021217Y-32141981D01*
X43021209Y-32141975D01*
X42884290Y-32062926D01*
X42884286Y-32062924D01*
X42884284Y-32062923D01*
X42731557Y-32022000D01*
X42573443Y-32022000D01*
X42420716Y-32062923D01*
X42420709Y-32062926D01*
X42283790Y-32141975D01*
X42283782Y-32141981D01*
X42171981Y-32253782D01*
X42171975Y-32253790D01*
X42092926Y-32390709D01*
X42092923Y-32390716D01*
X42052000Y-32543443D01*
X16889130Y-32543443D01*
X16840633Y-32511038D01*
X16840624Y-32511033D01*
X16722244Y-32461999D01*
X16722238Y-32461997D01*
X16596571Y-32437000D01*
X16596569Y-32437000D01*
X16468431Y-32437000D01*
X16468429Y-32437000D01*
X16342761Y-32461997D01*
X16342755Y-32461999D01*
X16224375Y-32511033D01*
X16224366Y-32511038D01*
X16117831Y-32582223D01*
X16117827Y-32582226D01*
X16027226Y-32672827D01*
X16027223Y-32672831D01*
X15956038Y-32779366D01*
X15956033Y-32779375D01*
X15906999Y-32897755D01*
X15906997Y-32897761D01*
X15882000Y-33023428D01*
X15882000Y-33023431D01*
X15882000Y-33151569D01*
X15882000Y-33151571D01*
X15881999Y-33151571D01*
X14763000Y-33151571D01*
X14763000Y-31661492D01*
X49757000Y-31661492D01*
X49757000Y-31863507D01*
X49796407Y-32061619D01*
X49796409Y-32061627D01*
X49873712Y-32248252D01*
X49873717Y-32248262D01*
X49985941Y-32416218D01*
X50128781Y-32559058D01*
X50296737Y-32671282D01*
X50296741Y-32671284D01*
X50296744Y-32671286D01*
X50483373Y-32748591D01*
X50638091Y-32779366D01*
X50681492Y-32787999D01*
X50681496Y-32788000D01*
X50681497Y-32788000D01*
X51283041Y-32788000D01*
X51350080Y-32807685D01*
X51395835Y-32860489D01*
X51404480Y-32912415D01*
X51407000Y-32912415D01*
X51407000Y-32918507D01*
X51407000Y-33056493D01*
X51407000Y-33056495D01*
X51406999Y-33056495D01*
X51433918Y-33191822D01*
X51433921Y-33191832D01*
X51486721Y-33319304D01*
X51486728Y-33319317D01*
X51563385Y-33434041D01*
X51563388Y-33434045D01*
X51660954Y-33531611D01*
X51660958Y-33531614D01*
X51775682Y-33608271D01*
X51775695Y-33608278D01*
X51903167Y-33661078D01*
X51903172Y-33661080D01*
X51903176Y-33661080D01*
X51903177Y-33661081D01*
X52038504Y-33688000D01*
X52038507Y-33688000D01*
X52176495Y-33688000D01*
X52267541Y-33669889D01*
X52311828Y-33661080D01*
X52439311Y-33608275D01*
X52554042Y-33531614D01*
X52651614Y-33434042D01*
X52728275Y-33319311D01*
X52781080Y-33191828D01*
X52789889Y-33147541D01*
X52808000Y-33056495D01*
X52808000Y-32918504D01*
X52781081Y-32783177D01*
X52781080Y-32783176D01*
X52781080Y-32783172D01*
X52747274Y-32701556D01*
X52728278Y-32655695D01*
X52728271Y-32655682D01*
X52651614Y-32540958D01*
X52651611Y-32540954D01*
X52554045Y-32443388D01*
X52554041Y-32443385D01*
X52439317Y-32366728D01*
X52439304Y-32366721D01*
X52342962Y-32326816D01*
X52288558Y-32282976D01*
X52266493Y-32216682D01*
X52275851Y-32164807D01*
X52318591Y-32061627D01*
X52358000Y-31863503D01*
X52358000Y-31661497D01*
X52357845Y-31660722D01*
X52334703Y-31544370D01*
X52331102Y-31526266D01*
X53657000Y-31526266D01*
X53657000Y-31698733D01*
X53690643Y-31867866D01*
X53690646Y-31867878D01*
X53756638Y-32027198D01*
X53756645Y-32027211D01*
X53852454Y-32170598D01*
X53852457Y-32170602D01*
X53974397Y-32292542D01*
X53974401Y-32292545D01*
X54117788Y-32388354D01*
X54117801Y-32388361D01*
X54235227Y-32437000D01*
X54277126Y-32454355D01*
X54446266Y-32487999D01*
X54446269Y-32488000D01*
X54446271Y-32488000D01*
X55268731Y-32488000D01*
X55268732Y-32487999D01*
X55437874Y-32454355D01*
X55597205Y-32388358D01*
X55740599Y-32292545D01*
X55862545Y-32170599D01*
X55958358Y-32027205D01*
X56024355Y-31867874D01*
X56058000Y-31698729D01*
X56058000Y-31526271D01*
X56058000Y-31526268D01*
X56057999Y-31526266D01*
X56045489Y-31463373D01*
X56024355Y-31357126D01*
X55991057Y-31276737D01*
X55958361Y-31197801D01*
X55958354Y-31197788D01*
X55862545Y-31054401D01*
X55862542Y-31054397D01*
X55740602Y-30932457D01*
X55740598Y-30932454D01*
X55597211Y-30836645D01*
X55597198Y-30836638D01*
X55437878Y-30770646D01*
X55437866Y-30770643D01*
X55268732Y-30737000D01*
X55268729Y-30737000D01*
X54446271Y-30737000D01*
X54446268Y-30737000D01*
X54277133Y-30770643D01*
X54277121Y-30770646D01*
X54117801Y-30836638D01*
X54117788Y-30836645D01*
X53974401Y-30932454D01*
X53974397Y-30932457D01*
X53852457Y-31054397D01*
X53852454Y-31054401D01*
X53756645Y-31197788D01*
X53756638Y-31197801D01*
X53690646Y-31357121D01*
X53690643Y-31357133D01*
X53657000Y-31526266D01*
X52331102Y-31526266D01*
X52318592Y-31463380D01*
X52318591Y-31463373D01*
X52241286Y-31276744D01*
X52241284Y-31276741D01*
X52241282Y-31276737D01*
X52129058Y-31108781D01*
X51986218Y-30965941D01*
X51818262Y-30853717D01*
X51818252Y-30853712D01*
X51631627Y-30776409D01*
X51631619Y-30776407D01*
X51433507Y-30737000D01*
X51433503Y-30737000D01*
X50681497Y-30737000D01*
X50681492Y-30737000D01*
X50483380Y-30776407D01*
X50483372Y-30776409D01*
X50296747Y-30853712D01*
X50296737Y-30853717D01*
X50128781Y-30965941D01*
X49985941Y-31108781D01*
X49873717Y-31276737D01*
X49873712Y-31276747D01*
X49796409Y-31463372D01*
X49796407Y-31463380D01*
X49757000Y-31661492D01*
X14763000Y-31661492D01*
X14763000Y-30151571D01*
X15881999Y-30151571D01*
X15906997Y-30277238D01*
X15906999Y-30277244D01*
X15956033Y-30395624D01*
X15956038Y-30395633D01*
X16027223Y-30502168D01*
X16027226Y-30502172D01*
X16117827Y-30592773D01*
X16117831Y-30592776D01*
X16224366Y-30663961D01*
X16224375Y-30663966D01*
X16234172Y-30668024D01*
X16342756Y-30713001D01*
X16342760Y-30713001D01*
X16342761Y-30713002D01*
X16468428Y-30738000D01*
X16468431Y-30738000D01*
X16596571Y-30738000D01*
X16681115Y-30721182D01*
X16722244Y-30713001D01*
X16840627Y-30663965D01*
X16947169Y-30592776D01*
X17037776Y-30502169D01*
X17108965Y-30395627D01*
X17114012Y-30383443D01*
X29012000Y-30383443D01*
X29012000Y-30541557D01*
X29044800Y-30663966D01*
X29052923Y-30694283D01*
X29052926Y-30694290D01*
X29131975Y-30831209D01*
X29131979Y-30831214D01*
X29131980Y-30831216D01*
X29243784Y-30943020D01*
X29243786Y-30943021D01*
X29243790Y-30943024D01*
X29364992Y-31012999D01*
X29380716Y-31022077D01*
X29533443Y-31063000D01*
X29533445Y-31063000D01*
X29691555Y-31063000D01*
X29691557Y-31063000D01*
X29844284Y-31022077D01*
X29981216Y-30943020D01*
X30093020Y-30831216D01*
X30172077Y-30694284D01*
X30213000Y-30541557D01*
X30213000Y-30383443D01*
X30172077Y-30230716D01*
X30126382Y-30151569D01*
X30101484Y-30108443D01*
X34542000Y-30108443D01*
X34542000Y-30266557D01*
X34576584Y-30395624D01*
X34582923Y-30419283D01*
X34582926Y-30419290D01*
X34661975Y-30556209D01*
X34661979Y-30556214D01*
X34661980Y-30556216D01*
X34773784Y-30668020D01*
X34773786Y-30668021D01*
X34773790Y-30668024D01*
X34893262Y-30737000D01*
X34910716Y-30747077D01*
X35063443Y-30788000D01*
X35063445Y-30788000D01*
X35221555Y-30788000D01*
X35221557Y-30788000D01*
X35374284Y-30747077D01*
X35511216Y-30668020D01*
X35623020Y-30556216D01*
X35702077Y-30419284D01*
X35725078Y-30333443D01*
X37812000Y-30333443D01*
X37812000Y-30491557D01*
X37839122Y-30592776D01*
X37852923Y-30644283D01*
X37852926Y-30644290D01*
X37931975Y-30781209D01*
X37931979Y-30781214D01*
X37931980Y-30781216D01*
X38043784Y-30893020D01*
X38043786Y-30893021D01*
X38043790Y-30893024D01*
X38130387Y-30943020D01*
X38180716Y-30972077D01*
X38333443Y-31013000D01*
X38333445Y-31013000D01*
X38491555Y-31013000D01*
X38491557Y-31013000D01*
X38644284Y-30972077D01*
X38781216Y-30893020D01*
X38893020Y-30781216D01*
X38972077Y-30644284D01*
X39013000Y-30491557D01*
X39013000Y-30333443D01*
X38972077Y-30180716D01*
X38921889Y-30093787D01*
X38893024Y-30043790D01*
X38893018Y-30043782D01*
X38781217Y-29931981D01*
X38781209Y-29931975D01*
X38644290Y-29852926D01*
X38644286Y-29852924D01*
X38644284Y-29852923D01*
X38491557Y-29812000D01*
X38333443Y-29812000D01*
X38180716Y-29852923D01*
X38180709Y-29852926D01*
X38043790Y-29931975D01*
X38043782Y-29931981D01*
X37931981Y-30043782D01*
X37931975Y-30043790D01*
X37852926Y-30180709D01*
X37852923Y-30180716D01*
X37812000Y-30333443D01*
X35725078Y-30333443D01*
X35743000Y-30266557D01*
X35743000Y-30108443D01*
X35732369Y-30068767D01*
X35734032Y-29998920D01*
X35773194Y-29941057D01*
X35835957Y-29913737D01*
X35841548Y-29913000D01*
X35841557Y-29913000D01*
X35994284Y-29872077D01*
X36131216Y-29793020D01*
X36243020Y-29681216D01*
X36322077Y-29544284D01*
X36363000Y-29391557D01*
X36363000Y-29233443D01*
X36359417Y-29220072D01*
X51508479Y-29220072D01*
X51543828Y-29243692D01*
X51725806Y-29319069D01*
X51725818Y-29319072D01*
X51919004Y-29357499D01*
X51919008Y-29357500D01*
X52115992Y-29357500D01*
X52115995Y-29357499D01*
X52309181Y-29319072D01*
X52309193Y-29319069D01*
X52491176Y-29243690D01*
X52491180Y-29243687D01*
X52526519Y-29220073D01*
X52526520Y-29220072D01*
X52017501Y-28711053D01*
X52017500Y-28711053D01*
X51508479Y-29220072D01*
X36359417Y-29220072D01*
X36322077Y-29080716D01*
X36300316Y-29043024D01*
X36243024Y-28943790D01*
X36243018Y-28943782D01*
X36131217Y-28831981D01*
X36131209Y-28831975D01*
X35994290Y-28752926D01*
X35994286Y-28752924D01*
X35994284Y-28752923D01*
X35841557Y-28712000D01*
X35683443Y-28712000D01*
X35530716Y-28752923D01*
X35530709Y-28752926D01*
X35393790Y-28831975D01*
X35393782Y-28831981D01*
X35281981Y-28943782D01*
X35281975Y-28943790D01*
X35202926Y-29080709D01*
X35202923Y-29080716D01*
X35162000Y-29233443D01*
X35162000Y-29391558D01*
X35172630Y-29431231D01*
X35170967Y-29501081D01*
X35131803Y-29558943D01*
X35069052Y-29586261D01*
X35063446Y-29586999D01*
X34910716Y-29627923D01*
X34910709Y-29627926D01*
X34773790Y-29706975D01*
X34773782Y-29706981D01*
X34661981Y-29818782D01*
X34661975Y-29818790D01*
X34582926Y-29955709D01*
X34582923Y-29955716D01*
X34542000Y-30108443D01*
X30101484Y-30108443D01*
X30093022Y-30093787D01*
X30093018Y-30093782D01*
X29981217Y-29981981D01*
X29981209Y-29981975D01*
X29844290Y-29902926D01*
X29844286Y-29902924D01*
X29844284Y-29902923D01*
X29691557Y-29862000D01*
X29533443Y-29862000D01*
X29380716Y-29902923D01*
X29380709Y-29902926D01*
X29243790Y-29981975D01*
X29243782Y-29981981D01*
X29131981Y-30093782D01*
X29131975Y-30093790D01*
X29052926Y-30230709D01*
X29052923Y-30230716D01*
X29012000Y-30383443D01*
X17114012Y-30383443D01*
X17158001Y-30277244D01*
X17177204Y-30180709D01*
X17183000Y-30151571D01*
X17183000Y-30023428D01*
X17158002Y-29897761D01*
X17158001Y-29897760D01*
X17158001Y-29897756D01*
X17120074Y-29806192D01*
X17108966Y-29779375D01*
X17108961Y-29779366D01*
X17037776Y-29672831D01*
X17037773Y-29672827D01*
X16947172Y-29582226D01*
X16947168Y-29582223D01*
X16840633Y-29511038D01*
X16840624Y-29511033D01*
X16722244Y-29461999D01*
X16722238Y-29461997D01*
X16596571Y-29437000D01*
X16596569Y-29437000D01*
X16468431Y-29437000D01*
X16468429Y-29437000D01*
X16342761Y-29461997D01*
X16342755Y-29461999D01*
X16224375Y-29511033D01*
X16224366Y-29511038D01*
X16117831Y-29582223D01*
X16117827Y-29582226D01*
X16027226Y-29672827D01*
X16027223Y-29672831D01*
X15956038Y-29779366D01*
X15956033Y-29779375D01*
X15906999Y-29897755D01*
X15906997Y-29897761D01*
X15882000Y-30023428D01*
X15882000Y-30023431D01*
X15882000Y-30151569D01*
X15882000Y-30151571D01*
X15881999Y-30151571D01*
X14763000Y-30151571D01*
X14763000Y-28883443D01*
X27412000Y-28883443D01*
X27412000Y-29041557D01*
X27444541Y-29163000D01*
X27452923Y-29194283D01*
X27452926Y-29194290D01*
X27531975Y-29331209D01*
X27531979Y-29331214D01*
X27531980Y-29331216D01*
X27643784Y-29443020D01*
X27643786Y-29443021D01*
X27643790Y-29443024D01*
X27761596Y-29511038D01*
X27780716Y-29522077D01*
X27933443Y-29563000D01*
X27933445Y-29563000D01*
X28091555Y-29563000D01*
X28091557Y-29563000D01*
X28244284Y-29522077D01*
X28381216Y-29443020D01*
X28493020Y-29331216D01*
X28572077Y-29194284D01*
X28613000Y-29041557D01*
X28613000Y-28883443D01*
X28572077Y-28730716D01*
X28572073Y-28730709D01*
X28493024Y-28593790D01*
X28493018Y-28593782D01*
X28382679Y-28483443D01*
X29611000Y-28483443D01*
X29611000Y-28641557D01*
X29640841Y-28752923D01*
X29651923Y-28794283D01*
X29651926Y-28794290D01*
X29730975Y-28931209D01*
X29730979Y-28931214D01*
X29730980Y-28931216D01*
X29842784Y-29043020D01*
X29842786Y-29043021D01*
X29842790Y-29043024D01*
X29979709Y-29122073D01*
X29979716Y-29122077D01*
X30132443Y-29163000D01*
X30132445Y-29163000D01*
X30290555Y-29163000D01*
X30290557Y-29163000D01*
X30443284Y-29122077D01*
X30466899Y-29108443D01*
X33187000Y-29108443D01*
X33187000Y-29266557D01*
X33220494Y-29391556D01*
X33227923Y-29419283D01*
X33227926Y-29419290D01*
X33306975Y-29556209D01*
X33306979Y-29556214D01*
X33306980Y-29556216D01*
X33418784Y-29668020D01*
X33418786Y-29668021D01*
X33418790Y-29668024D01*
X33486265Y-29706980D01*
X33555716Y-29747077D01*
X33708443Y-29788000D01*
X33708445Y-29788000D01*
X33866555Y-29788000D01*
X33866557Y-29788000D01*
X34019284Y-29747077D01*
X34156216Y-29668020D01*
X34268020Y-29556216D01*
X34347077Y-29419284D01*
X34388000Y-29266557D01*
X34388000Y-29108443D01*
X34347077Y-28955716D01*
X34332928Y-28931209D01*
X34268024Y-28818790D01*
X34268018Y-28818782D01*
X34156217Y-28706981D01*
X34156209Y-28706975D01*
X34019290Y-28627926D01*
X34019286Y-28627924D01*
X34019284Y-28627923D01*
X33866557Y-28587000D01*
X33708443Y-28587000D01*
X33555716Y-28627923D01*
X33555709Y-28627926D01*
X33418790Y-28706975D01*
X33418782Y-28706981D01*
X33306981Y-28818782D01*
X33306975Y-28818790D01*
X33227926Y-28955709D01*
X33227923Y-28955716D01*
X33187000Y-29108443D01*
X30466899Y-29108443D01*
X30580216Y-29043020D01*
X30692020Y-28931216D01*
X30771077Y-28794284D01*
X30812000Y-28641557D01*
X30812000Y-28483443D01*
X30771077Y-28330716D01*
X30749316Y-28293024D01*
X30692024Y-28193790D01*
X30692018Y-28193782D01*
X30580217Y-28081981D01*
X30580209Y-28081975D01*
X30443290Y-28002926D01*
X30443286Y-28002924D01*
X30443284Y-28002923D01*
X30290557Y-27962000D01*
X30132443Y-27962000D01*
X29979716Y-28002923D01*
X29979709Y-28002926D01*
X29842790Y-28081975D01*
X29842782Y-28081981D01*
X29730981Y-28193782D01*
X29730975Y-28193790D01*
X29651926Y-28330709D01*
X29651923Y-28330716D01*
X29611000Y-28483443D01*
X28382679Y-28483443D01*
X28381217Y-28481981D01*
X28381209Y-28481975D01*
X28244290Y-28402926D01*
X28244286Y-28402924D01*
X28244284Y-28402923D01*
X28091557Y-28362000D01*
X27933443Y-28362000D01*
X27780716Y-28402923D01*
X27780709Y-28402926D01*
X27643790Y-28481975D01*
X27643782Y-28481981D01*
X27531981Y-28593782D01*
X27531975Y-28593790D01*
X27452926Y-28730709D01*
X27452923Y-28730716D01*
X27412000Y-28883443D01*
X14763000Y-28883443D01*
X14763000Y-27733443D01*
X35162000Y-27733443D01*
X35162000Y-27891557D01*
X35199766Y-28032500D01*
X35202923Y-28044283D01*
X35202926Y-28044290D01*
X35281975Y-28181209D01*
X35281979Y-28181214D01*
X35281980Y-28181216D01*
X35393784Y-28293020D01*
X35393786Y-28293021D01*
X35393790Y-28293024D01*
X35505466Y-28357499D01*
X35530716Y-28372077D01*
X35683443Y-28413000D01*
X35683445Y-28413000D01*
X35841555Y-28413000D01*
X35841557Y-28413000D01*
X35994284Y-28372077D01*
X36131216Y-28293020D01*
X36243020Y-28181216D01*
X36322077Y-28044284D01*
X36363000Y-27891557D01*
X36363000Y-27733443D01*
X36322077Y-27580716D01*
X36256242Y-27466685D01*
X36243024Y-27443790D01*
X36243018Y-27443782D01*
X36131217Y-27331981D01*
X36131209Y-27331975D01*
X36003846Y-27258443D01*
X38412000Y-27258443D01*
X38412000Y-27416557D01*
X38450751Y-27561176D01*
X38452923Y-27569283D01*
X38452926Y-27569290D01*
X38531975Y-27706209D01*
X38531979Y-27706214D01*
X38531980Y-27706216D01*
X38643784Y-27818020D01*
X38643786Y-27818021D01*
X38643790Y-27818024D01*
X38771153Y-27891556D01*
X38780716Y-27897077D01*
X38933443Y-27938000D01*
X38933445Y-27938000D01*
X39091555Y-27938000D01*
X39091557Y-27938000D01*
X39244284Y-27897077D01*
X39381216Y-27818020D01*
X39493020Y-27706216D01*
X39572077Y-27569284D01*
X39613000Y-27416557D01*
X39613000Y-27258443D01*
X39572077Y-27105716D01*
X39516041Y-27008658D01*
X39493024Y-26968790D01*
X39493018Y-26968782D01*
X39381217Y-26856981D01*
X39381209Y-26856975D01*
X39244290Y-26777926D01*
X39244286Y-26777924D01*
X39244284Y-26777923D01*
X39091557Y-26737000D01*
X38933443Y-26737000D01*
X38780716Y-26777923D01*
X38780709Y-26777926D01*
X38643790Y-26856975D01*
X38643782Y-26856981D01*
X38531981Y-26968782D01*
X38531975Y-26968790D01*
X38452926Y-27105709D01*
X38452923Y-27105716D01*
X38412000Y-27258443D01*
X36003846Y-27258443D01*
X35994290Y-27252926D01*
X35994286Y-27252924D01*
X35994284Y-27252923D01*
X35841557Y-27212000D01*
X35683443Y-27212000D01*
X35530716Y-27252923D01*
X35530709Y-27252926D01*
X35393790Y-27331975D01*
X35393782Y-27331981D01*
X35281981Y-27443782D01*
X35281975Y-27443790D01*
X35202926Y-27580709D01*
X35202923Y-27580716D01*
X35162000Y-27733443D01*
X14763000Y-27733443D01*
X14763000Y-26683443D01*
X25862000Y-26683443D01*
X25862000Y-26841557D01*
X25901510Y-26989008D01*
X25902923Y-26994283D01*
X25902926Y-26994290D01*
X25981975Y-27131209D01*
X25981979Y-27131214D01*
X25981980Y-27131216D01*
X26093784Y-27243020D01*
X26093786Y-27243021D01*
X26093790Y-27243024D01*
X26228852Y-27321001D01*
X26230716Y-27322077D01*
X26383443Y-27363000D01*
X26383445Y-27363000D01*
X26541555Y-27363000D01*
X26541557Y-27363000D01*
X26694284Y-27322077D01*
X26831216Y-27243020D01*
X26943020Y-27131216D01*
X27022077Y-26994284D01*
X27063000Y-26841557D01*
X27063000Y-26689150D01*
X30956293Y-26689150D01*
X30956293Y-26847264D01*
X30995689Y-26994290D01*
X30997216Y-26999990D01*
X30997219Y-26999997D01*
X31076268Y-27136916D01*
X31076272Y-27136921D01*
X31076273Y-27136923D01*
X31188077Y-27248727D01*
X31188079Y-27248728D01*
X31188083Y-27248731D01*
X31313252Y-27320996D01*
X31325009Y-27327784D01*
X31477736Y-27368707D01*
X31477738Y-27368707D01*
X31635848Y-27368707D01*
X31635850Y-27368707D01*
X31788577Y-27327784D01*
X31925509Y-27248727D01*
X32037313Y-27136923D01*
X32116370Y-26999991D01*
X32157293Y-26847264D01*
X32157293Y-26689150D01*
X32116370Y-26536423D01*
X32091753Y-26493784D01*
X32037317Y-26399497D01*
X32037311Y-26399489D01*
X31925510Y-26287688D01*
X31925509Y-26287687D01*
X31788577Y-26208630D01*
X31635850Y-26167707D01*
X31477736Y-26167707D01*
X31325009Y-26208630D01*
X31325002Y-26208633D01*
X31188083Y-26287682D01*
X31188075Y-26287688D01*
X31076274Y-26399489D01*
X31076268Y-26399497D01*
X30997219Y-26536416D01*
X30997216Y-26536423D01*
X30956293Y-26689150D01*
X27063000Y-26689150D01*
X27063000Y-26683443D01*
X27022077Y-26530716D01*
X27000758Y-26493790D01*
X26943024Y-26393790D01*
X26943018Y-26393782D01*
X26831217Y-26281981D01*
X26831209Y-26281975D01*
X26694290Y-26202926D01*
X26694286Y-26202924D01*
X26694284Y-26202923D01*
X26541557Y-26162000D01*
X26383443Y-26162000D01*
X26230716Y-26202923D01*
X26230709Y-26202926D01*
X26093790Y-26281975D01*
X26093782Y-26281981D01*
X25981981Y-26393782D01*
X25981975Y-26393790D01*
X25902926Y-26530709D01*
X25902923Y-26530716D01*
X25862000Y-26683443D01*
X14763000Y-26683443D01*
X14763000Y-26133443D01*
X39712000Y-26133443D01*
X39712000Y-26291557D01*
X39740923Y-26399497D01*
X39752923Y-26444283D01*
X39752926Y-26444290D01*
X39831975Y-26581209D01*
X39831979Y-26581214D01*
X39831980Y-26581216D01*
X39943784Y-26693020D01*
X39943786Y-26693021D01*
X39943790Y-26693024D01*
X40019960Y-26737000D01*
X40080716Y-26772077D01*
X40233443Y-26813000D01*
X40233445Y-26813000D01*
X40338000Y-26813000D01*
X40405039Y-26832685D01*
X40450794Y-26885489D01*
X40462000Y-26937000D01*
X40462000Y-26941557D01*
X40479979Y-27008653D01*
X40502923Y-27094283D01*
X40502926Y-27094290D01*
X40581975Y-27231209D01*
X40581979Y-27231214D01*
X40581980Y-27231216D01*
X40693784Y-27343020D01*
X40693786Y-27343021D01*
X40693790Y-27343024D01*
X40821153Y-27416556D01*
X40830716Y-27422077D01*
X40983443Y-27463000D01*
X40983445Y-27463000D01*
X41141555Y-27463000D01*
X41141557Y-27463000D01*
X41294284Y-27422077D01*
X41431216Y-27343020D01*
X41543020Y-27231216D01*
X41622077Y-27094284D01*
X41645022Y-27008653D01*
X46137000Y-27008653D01*
X46137000Y-27166346D01*
X46167761Y-27320989D01*
X46167764Y-27321001D01*
X46228103Y-27466674D01*
X46241762Y-27487116D01*
X46262639Y-27553793D01*
X46244154Y-27621173D01*
X46226342Y-27643685D01*
X46185295Y-27684733D01*
X46185294Y-27684734D01*
X46139915Y-27787506D01*
X46139915Y-27787508D01*
X46137000Y-27812631D01*
X46137000Y-28902356D01*
X46137002Y-28902382D01*
X46139913Y-28927487D01*
X46139915Y-28927491D01*
X46185293Y-29030264D01*
X46185294Y-29030265D01*
X46264735Y-29109706D01*
X46367509Y-29155085D01*
X46392635Y-29158000D01*
X47482364Y-29157999D01*
X47482379Y-29157997D01*
X47482382Y-29157997D01*
X47507487Y-29155086D01*
X47507488Y-29155085D01*
X47507491Y-29155085D01*
X47610265Y-29109706D01*
X47651313Y-29068657D01*
X47712634Y-29035173D01*
X47782325Y-29040157D01*
X47807878Y-29053234D01*
X47828321Y-29066894D01*
X47828323Y-29066895D01*
X47828325Y-29066896D01*
X47973998Y-29127235D01*
X47974003Y-29127237D01*
X48128643Y-29157997D01*
X48128653Y-29157999D01*
X48128656Y-29158000D01*
X48128658Y-29158000D01*
X48286344Y-29158000D01*
X48286345Y-29157999D01*
X48440997Y-29127237D01*
X48586679Y-29066894D01*
X48717789Y-28979289D01*
X48717792Y-28979286D01*
X48754819Y-28942260D01*
X48816142Y-28908775D01*
X48885834Y-28913759D01*
X48930181Y-28942260D01*
X48967207Y-28979286D01*
X48967211Y-28979289D01*
X49098314Y-29066890D01*
X49098327Y-29066897D01*
X49243998Y-29127235D01*
X49244003Y-29127237D01*
X49398643Y-29157997D01*
X49398653Y-29157999D01*
X49398656Y-29158000D01*
X49398658Y-29158000D01*
X49556344Y-29158000D01*
X49556345Y-29157999D01*
X49710997Y-29127237D01*
X49856679Y-29066894D01*
X49987789Y-28979289D01*
X49987792Y-28979286D01*
X50024819Y-28942260D01*
X50086142Y-28908775D01*
X50155834Y-28913759D01*
X50200181Y-28942260D01*
X50237207Y-28979286D01*
X50237211Y-28979289D01*
X50368314Y-29066890D01*
X50368327Y-29066897D01*
X50513998Y-29127235D01*
X50514003Y-29127237D01*
X50668643Y-29157997D01*
X50668653Y-29157999D01*
X50668656Y-29158000D01*
X50668658Y-29158000D01*
X50826344Y-29158000D01*
X50826345Y-29157999D01*
X50980997Y-29127237D01*
X51126679Y-29066894D01*
X51257789Y-28979289D01*
X51369289Y-28867789D01*
X51456894Y-28736679D01*
X51517237Y-28590997D01*
X51531449Y-28519547D01*
X51563832Y-28457641D01*
X51565384Y-28456060D01*
X51663945Y-28357499D01*
X51621159Y-28314713D01*
X51692500Y-28314713D01*
X51692500Y-28400287D01*
X51714649Y-28482945D01*
X51757436Y-28557054D01*
X51817946Y-28617564D01*
X51892055Y-28660351D01*
X51974713Y-28682500D01*
X52060287Y-28682500D01*
X52142945Y-28660351D01*
X52217054Y-28617564D01*
X52277564Y-28557054D01*
X52320351Y-28482945D01*
X52342500Y-28400287D01*
X52342500Y-28357499D01*
X52371053Y-28357499D01*
X52371053Y-28357501D01*
X52880072Y-28866520D01*
X52880073Y-28866519D01*
X52903687Y-28831180D01*
X52903690Y-28831176D01*
X52979069Y-28649193D01*
X52979072Y-28649181D01*
X53017499Y-28455995D01*
X53017500Y-28455992D01*
X53017500Y-28259008D01*
X53017499Y-28259004D01*
X52979072Y-28065818D01*
X52979069Y-28065806D01*
X52903692Y-27883828D01*
X52880072Y-27848479D01*
X52371053Y-28357499D01*
X52342500Y-28357499D01*
X52342500Y-28314713D01*
X52320351Y-28232055D01*
X52277564Y-28157946D01*
X52217054Y-28097436D01*
X52142945Y-28054649D01*
X52060287Y-28032500D01*
X51974713Y-28032500D01*
X51892055Y-28054649D01*
X51817946Y-28097436D01*
X51757436Y-28157946D01*
X51714649Y-28232055D01*
X51692500Y-28314713D01*
X51621159Y-28314713D01*
X51565384Y-28258938D01*
X51531899Y-28197615D01*
X51531472Y-28195571D01*
X51517237Y-28124003D01*
X51479336Y-28032500D01*
X51456897Y-27978327D01*
X51456890Y-27978314D01*
X51369289Y-27847211D01*
X51369286Y-27847207D01*
X51332260Y-27810181D01*
X51328482Y-27803263D01*
X51322084Y-27798658D01*
X51311974Y-27773031D01*
X51298775Y-27748858D01*
X51299337Y-27740996D01*
X51296444Y-27733662D01*
X51298654Y-27722500D01*
X51736053Y-27722500D01*
X52017500Y-28003946D01*
X52017501Y-28003946D01*
X52298946Y-27722501D01*
X52298946Y-27722499D01*
X52017501Y-27441053D01*
X52017500Y-27441053D01*
X51736053Y-27722500D01*
X51298654Y-27722500D01*
X51301794Y-27706638D01*
X51303759Y-27679166D01*
X51308827Y-27671113D01*
X51310014Y-27665123D01*
X51328159Y-27640405D01*
X51330632Y-27636477D01*
X51331443Y-27635634D01*
X51369289Y-27597789D01*
X51372452Y-27593056D01*
X51456890Y-27466685D01*
X51456890Y-27466684D01*
X51456894Y-27466679D01*
X51517237Y-27320997D01*
X51531449Y-27249547D01*
X51563832Y-27187641D01*
X51565384Y-27186060D01*
X51663945Y-27087499D01*
X51621159Y-27044713D01*
X51692500Y-27044713D01*
X51692500Y-27130287D01*
X51714649Y-27212945D01*
X51757436Y-27287054D01*
X51817946Y-27347564D01*
X51892055Y-27390351D01*
X51974713Y-27412500D01*
X52060287Y-27412500D01*
X52142945Y-27390351D01*
X52217054Y-27347564D01*
X52277564Y-27287054D01*
X52320351Y-27212945D01*
X52342500Y-27130287D01*
X52342500Y-27087499D01*
X52371053Y-27087499D01*
X52371053Y-27087501D01*
X52880071Y-27596519D01*
X52880073Y-27596519D01*
X52903687Y-27561180D01*
X52903690Y-27561176D01*
X52979069Y-27379193D01*
X52979072Y-27379181D01*
X53017499Y-27185995D01*
X53017500Y-27185992D01*
X53017500Y-26989008D01*
X53017499Y-26989004D01*
X52979072Y-26795818D01*
X52979069Y-26795806D01*
X52903692Y-26613828D01*
X52880072Y-26578479D01*
X52371053Y-27087499D01*
X52342500Y-27087499D01*
X52342500Y-27044713D01*
X52320351Y-26962055D01*
X52277564Y-26887946D01*
X52217054Y-26827436D01*
X52142945Y-26784649D01*
X52060287Y-26762500D01*
X51974713Y-26762500D01*
X51892055Y-26784649D01*
X51817946Y-26827436D01*
X51757436Y-26887946D01*
X51714649Y-26962055D01*
X51692500Y-27044713D01*
X51621159Y-27044713D01*
X51565384Y-26988938D01*
X51531899Y-26927615D01*
X51531472Y-26925571D01*
X51517237Y-26854003D01*
X51493099Y-26795730D01*
X51456897Y-26708327D01*
X51456890Y-26708314D01*
X51369289Y-26577211D01*
X51369286Y-26577207D01*
X51257792Y-26465713D01*
X51257788Y-26465710D01*
X51126682Y-26378107D01*
X51126676Y-26378104D01*
X50981001Y-26317764D01*
X50980989Y-26317761D01*
X50826345Y-26287000D01*
X50826342Y-26287000D01*
X50668658Y-26287000D01*
X50668655Y-26287000D01*
X50514010Y-26317761D01*
X50513998Y-26317764D01*
X50368327Y-26378102D01*
X50368314Y-26378109D01*
X50237211Y-26465710D01*
X50237207Y-26465713D01*
X50200181Y-26502740D01*
X50138858Y-26536225D01*
X50069166Y-26531241D01*
X50024819Y-26502740D01*
X49987792Y-26465713D01*
X49987788Y-26465710D01*
X49856685Y-26378109D01*
X49856672Y-26378102D01*
X49711001Y-26317764D01*
X49710989Y-26317761D01*
X49556345Y-26287000D01*
X49556342Y-26287000D01*
X49398658Y-26287000D01*
X49398655Y-26287000D01*
X49244010Y-26317761D01*
X49243998Y-26317764D01*
X49098327Y-26378102D01*
X49098314Y-26378109D01*
X48967211Y-26465710D01*
X48967207Y-26465713D01*
X48930181Y-26502740D01*
X48868858Y-26536225D01*
X48799166Y-26531241D01*
X48754819Y-26502740D01*
X48717792Y-26465713D01*
X48717788Y-26465710D01*
X48586685Y-26378109D01*
X48586672Y-26378102D01*
X48441001Y-26317764D01*
X48440989Y-26317761D01*
X48286345Y-26287000D01*
X48286342Y-26287000D01*
X48128658Y-26287000D01*
X48128655Y-26287000D01*
X47974010Y-26317761D01*
X47973998Y-26317764D01*
X47828327Y-26378102D01*
X47828314Y-26378109D01*
X47697211Y-26465710D01*
X47697207Y-26465713D01*
X47660181Y-26502740D01*
X47598858Y-26536225D01*
X47529166Y-26531241D01*
X47484819Y-26502740D01*
X47447792Y-26465713D01*
X47447788Y-26465710D01*
X47316685Y-26378109D01*
X47316672Y-26378102D01*
X47171001Y-26317764D01*
X47170989Y-26317761D01*
X47016345Y-26287000D01*
X47016342Y-26287000D01*
X46858658Y-26287000D01*
X46858655Y-26287000D01*
X46704010Y-26317761D01*
X46703998Y-26317764D01*
X46558327Y-26378102D01*
X46558314Y-26378109D01*
X46427211Y-26465710D01*
X46427207Y-26465713D01*
X46315713Y-26577207D01*
X46315710Y-26577211D01*
X46228109Y-26708314D01*
X46228102Y-26708327D01*
X46167764Y-26853998D01*
X46167761Y-26854010D01*
X46137000Y-27008653D01*
X41645022Y-27008653D01*
X41663000Y-26941557D01*
X41663000Y-26783443D01*
X41622077Y-26630716D01*
X41593499Y-26581217D01*
X41543024Y-26493790D01*
X41543018Y-26493782D01*
X41431217Y-26381981D01*
X41431209Y-26381975D01*
X41294290Y-26302926D01*
X41294286Y-26302924D01*
X41294284Y-26302923D01*
X41141557Y-26262000D01*
X41037000Y-26262000D01*
X40969961Y-26242315D01*
X40954893Y-26224926D01*
X51508478Y-26224926D01*
X52017500Y-26733946D01*
X52017501Y-26733946D01*
X52526520Y-26224926D01*
X52491175Y-26201309D01*
X52491173Y-26201308D01*
X52309193Y-26125930D01*
X52309181Y-26125927D01*
X52115995Y-26087500D01*
X51919004Y-26087500D01*
X51725818Y-26125927D01*
X51725810Y-26125929D01*
X51543825Y-26201309D01*
X51543818Y-26201313D01*
X51508479Y-26224926D01*
X51508478Y-26224926D01*
X40954893Y-26224926D01*
X40924206Y-26189511D01*
X40913000Y-26138000D01*
X40913000Y-26133445D01*
X40913000Y-26133443D01*
X40872077Y-25980716D01*
X40872073Y-25980709D01*
X40793024Y-25843790D01*
X40793018Y-25843782D01*
X40681217Y-25731981D01*
X40681209Y-25731975D01*
X40544290Y-25652926D01*
X40544286Y-25652924D01*
X40544284Y-25652923D01*
X40391557Y-25612000D01*
X40233443Y-25612000D01*
X40080716Y-25652923D01*
X40080709Y-25652926D01*
X39943790Y-25731975D01*
X39943782Y-25731981D01*
X39831981Y-25843782D01*
X39831975Y-25843790D01*
X39752926Y-25980709D01*
X39752923Y-25980716D01*
X39712000Y-26133443D01*
X14763000Y-26133443D01*
X14763000Y-20489924D01*
X14763096Y-20485056D01*
X14766427Y-20400264D01*
X14779569Y-20065756D01*
X14779891Y-20060484D01*
X14782854Y-20024732D01*
X16212000Y-20024732D01*
X16212000Y-20400267D01*
X16244729Y-20774365D01*
X16309938Y-21144179D01*
X16309941Y-21144192D01*
X16407130Y-21506910D01*
X16535568Y-21859793D01*
X16694271Y-22200133D01*
X16694276Y-22200142D01*
X16882040Y-22525358D01*
X16882041Y-22525359D01*
X16882051Y-22525375D01*
X17097434Y-22832974D01*
X17271907Y-23040902D01*
X17338818Y-23120644D01*
X17604356Y-23386182D01*
X17703392Y-23469283D01*
X17892025Y-23627565D01*
X18199624Y-23842948D01*
X18199631Y-23842952D01*
X18199642Y-23842960D01*
X18439096Y-23981209D01*
X18524851Y-24030720D01*
X18524866Y-24030728D01*
X18865206Y-24189431D01*
X19064589Y-24262000D01*
X19218083Y-24317867D01*
X19218084Y-24317867D01*
X19218089Y-24317869D01*
X19311955Y-24343020D01*
X19580815Y-24415061D01*
X19950637Y-24480271D01*
X20324734Y-24512999D01*
X20324735Y-24513000D01*
X20324736Y-24513000D01*
X20700265Y-24513000D01*
X20700265Y-24512999D01*
X21074363Y-24480271D01*
X21444185Y-24415061D01*
X21806917Y-24317867D01*
X22159798Y-24189429D01*
X22500142Y-24030724D01*
X22825358Y-23842960D01*
X23132973Y-23627566D01*
X23231438Y-23544944D01*
X28000499Y-23544944D01*
X28000499Y-23703058D01*
X28039089Y-23847076D01*
X28041422Y-23855784D01*
X28041425Y-23855791D01*
X28120474Y-23992710D01*
X28120478Y-23992715D01*
X28120479Y-23992717D01*
X28232283Y-24104521D01*
X28232285Y-24104522D01*
X28232289Y-24104525D01*
X28369208Y-24183574D01*
X28369215Y-24183578D01*
X28521942Y-24224501D01*
X28521944Y-24224501D01*
X28680054Y-24224501D01*
X28680056Y-24224501D01*
X28832783Y-24183578D01*
X28969715Y-24104521D01*
X29081519Y-23992717D01*
X29160576Y-23855785D01*
X29201499Y-23703058D01*
X29201499Y-23544944D01*
X29198417Y-23533443D01*
X29687000Y-23533443D01*
X29687000Y-23691557D01*
X29727570Y-23842964D01*
X29727923Y-23844283D01*
X29727926Y-23844290D01*
X29806975Y-23981209D01*
X29806979Y-23981214D01*
X29806980Y-23981216D01*
X29918784Y-24093020D01*
X29918786Y-24093021D01*
X29918790Y-24093024D01*
X29938704Y-24104521D01*
X30055716Y-24172077D01*
X30208443Y-24213000D01*
X30208445Y-24213000D01*
X30366552Y-24213000D01*
X30366557Y-24213000D01*
X30366561Y-24212998D01*
X30374288Y-24211981D01*
X30443324Y-24222742D01*
X30495583Y-24269118D01*
X30514473Y-24336386D01*
X30493997Y-24403188D01*
X30478164Y-24422600D01*
X30406978Y-24493786D01*
X30406975Y-24493790D01*
X30327926Y-24630709D01*
X30327923Y-24630716D01*
X30287000Y-24783443D01*
X30287000Y-24941556D01*
X30327923Y-25094283D01*
X30327926Y-25094290D01*
X30406975Y-25231209D01*
X30406979Y-25231214D01*
X30406980Y-25231216D01*
X30518784Y-25343020D01*
X30518786Y-25343021D01*
X30518790Y-25343024D01*
X30655709Y-25422073D01*
X30655716Y-25422077D01*
X30808443Y-25463000D01*
X30808445Y-25463000D01*
X30966555Y-25463000D01*
X30966557Y-25463000D01*
X31119284Y-25422077D01*
X31256216Y-25343020D01*
X31368020Y-25231216D01*
X31447077Y-25094284D01*
X31488000Y-24941557D01*
X31488000Y-24783443D01*
X31447077Y-24630716D01*
X31447073Y-24630709D01*
X31368024Y-24493790D01*
X31368018Y-24493782D01*
X31256217Y-24381981D01*
X31256209Y-24381975D01*
X31119290Y-24302926D01*
X31119286Y-24302924D01*
X31119284Y-24302923D01*
X30966557Y-24262000D01*
X30808443Y-24262000D01*
X30808442Y-24262000D01*
X30800702Y-24263019D01*
X30731667Y-24252253D01*
X30679411Y-24205874D01*
X30660526Y-24138605D01*
X30681007Y-24071804D01*
X30696827Y-24052408D01*
X30768020Y-23981216D01*
X30847077Y-23844284D01*
X30888000Y-23691557D01*
X30888000Y-23533443D01*
X30847077Y-23380716D01*
X30804924Y-23307704D01*
X30768024Y-23243790D01*
X30768018Y-23243782D01*
X30682679Y-23158443D01*
X32512000Y-23158443D01*
X32512000Y-23316557D01*
X32552193Y-23466557D01*
X32552923Y-23469283D01*
X32552926Y-23469290D01*
X32631975Y-23606209D01*
X32631979Y-23606214D01*
X32631980Y-23606216D01*
X32743784Y-23718020D01*
X32743786Y-23718021D01*
X32743790Y-23718024D01*
X32830387Y-23768020D01*
X32880716Y-23797077D01*
X33033443Y-23838000D01*
X33033445Y-23838000D01*
X33191555Y-23838000D01*
X33191557Y-23838000D01*
X33344284Y-23797077D01*
X33367899Y-23783443D01*
X34312000Y-23783443D01*
X34312000Y-23941557D01*
X34352586Y-24093024D01*
X34352923Y-24094283D01*
X34352926Y-24094290D01*
X34431975Y-24231209D01*
X34431979Y-24231214D01*
X34431980Y-24231216D01*
X34543784Y-24343020D01*
X34543786Y-24343021D01*
X34543790Y-24343024D01*
X34668564Y-24415061D01*
X34680716Y-24422077D01*
X34833443Y-24463000D01*
X34833445Y-24463000D01*
X34991555Y-24463000D01*
X34991557Y-24463000D01*
X35144284Y-24422077D01*
X35281216Y-24343020D01*
X35393020Y-24231216D01*
X35472077Y-24094284D01*
X35513000Y-23941557D01*
X35513000Y-23783443D01*
X35472077Y-23630716D01*
X35407746Y-23519290D01*
X35393024Y-23493790D01*
X35393018Y-23493782D01*
X35281217Y-23381981D01*
X35281216Y-23381980D01*
X35144284Y-23302923D01*
X34991557Y-23262000D01*
X34833443Y-23262000D01*
X34680716Y-23302923D01*
X34680709Y-23302926D01*
X34543790Y-23381975D01*
X34543782Y-23381981D01*
X34431981Y-23493782D01*
X34431975Y-23493790D01*
X34352926Y-23630709D01*
X34352923Y-23630716D01*
X34312000Y-23783443D01*
X33367899Y-23783443D01*
X33481216Y-23718020D01*
X33593020Y-23606216D01*
X33672077Y-23469284D01*
X33713000Y-23316557D01*
X33713000Y-23208443D01*
X37812000Y-23208443D01*
X37812000Y-23366557D01*
X37846091Y-23493784D01*
X37852923Y-23519283D01*
X37852926Y-23519290D01*
X37931975Y-23656209D01*
X37931979Y-23656214D01*
X37931980Y-23656216D01*
X38043784Y-23768020D01*
X38043786Y-23768021D01*
X38043790Y-23768024D01*
X38164992Y-23837999D01*
X38180716Y-23847077D01*
X38333443Y-23888000D01*
X38333445Y-23888000D01*
X38491555Y-23888000D01*
X38491557Y-23888000D01*
X38644284Y-23847077D01*
X38781216Y-23768020D01*
X38893020Y-23656216D01*
X38972077Y-23519284D01*
X39013000Y-23366557D01*
X39013000Y-23308443D01*
X41662000Y-23308443D01*
X41662000Y-23466557D01*
X41699422Y-23606216D01*
X41702923Y-23619283D01*
X41702926Y-23619290D01*
X41781975Y-23756209D01*
X41781979Y-23756214D01*
X41781980Y-23756216D01*
X41893784Y-23868020D01*
X41893786Y-23868021D01*
X41893790Y-23868024D01*
X42021153Y-23941556D01*
X42030716Y-23947077D01*
X42183443Y-23988000D01*
X42183445Y-23988000D01*
X42341555Y-23988000D01*
X42341557Y-23988000D01*
X42494284Y-23947077D01*
X42631216Y-23868020D01*
X42743020Y-23756216D01*
X42822077Y-23619284D01*
X42863000Y-23466557D01*
X42863000Y-23308443D01*
X42822077Y-23155716D01*
X42802655Y-23122076D01*
X42743024Y-23018790D01*
X42743018Y-23018782D01*
X42631217Y-22906981D01*
X42631209Y-22906975D01*
X42494290Y-22827926D01*
X42494286Y-22827924D01*
X42494284Y-22827923D01*
X42341557Y-22787000D01*
X42183443Y-22787000D01*
X42030716Y-22827923D01*
X42030709Y-22827926D01*
X41893790Y-22906975D01*
X41893782Y-22906981D01*
X41781981Y-23018782D01*
X41781975Y-23018790D01*
X41702926Y-23155709D01*
X41702923Y-23155716D01*
X41662000Y-23308443D01*
X39013000Y-23308443D01*
X39013000Y-23208443D01*
X38972077Y-23055716D01*
X38970466Y-23052926D01*
X38893024Y-22918790D01*
X38893018Y-22918782D01*
X38781217Y-22806981D01*
X38781209Y-22806975D01*
X38644290Y-22727926D01*
X38644286Y-22727924D01*
X38644284Y-22727923D01*
X38491557Y-22687000D01*
X38333443Y-22687000D01*
X38180716Y-22727923D01*
X38180709Y-22727926D01*
X38043790Y-22806975D01*
X38043782Y-22806981D01*
X37931981Y-22918782D01*
X37931975Y-22918790D01*
X37852926Y-23055709D01*
X37852923Y-23055716D01*
X37812000Y-23208443D01*
X33713000Y-23208443D01*
X33713000Y-23158443D01*
X33672077Y-23005716D01*
X33672073Y-23005709D01*
X33593024Y-22868790D01*
X33593018Y-22868782D01*
X33481217Y-22756981D01*
X33481209Y-22756975D01*
X33344290Y-22677926D01*
X33344286Y-22677924D01*
X33344284Y-22677923D01*
X33191557Y-22637000D01*
X33033443Y-22637000D01*
X32880716Y-22677923D01*
X32880709Y-22677926D01*
X32743790Y-22756975D01*
X32743782Y-22756981D01*
X32631981Y-22868782D01*
X32631975Y-22868790D01*
X32552926Y-23005709D01*
X32552923Y-23005716D01*
X32512000Y-23158443D01*
X30682679Y-23158443D01*
X30656217Y-23131981D01*
X30656209Y-23131975D01*
X30519290Y-23052926D01*
X30519286Y-23052924D01*
X30519284Y-23052923D01*
X30366557Y-23012000D01*
X30208443Y-23012000D01*
X30055716Y-23052923D01*
X30055709Y-23052926D01*
X29918790Y-23131975D01*
X29918782Y-23131981D01*
X29806981Y-23243782D01*
X29806975Y-23243790D01*
X29727926Y-23380709D01*
X29727923Y-23380716D01*
X29687000Y-23533443D01*
X29198417Y-23533443D01*
X29160576Y-23392217D01*
X29111783Y-23307704D01*
X29081523Y-23255291D01*
X29081517Y-23255283D01*
X28969716Y-23143482D01*
X28969708Y-23143476D01*
X28832789Y-23064427D01*
X28832785Y-23064425D01*
X28832783Y-23064424D01*
X28680056Y-23023501D01*
X28521942Y-23023501D01*
X28369215Y-23064424D01*
X28369208Y-23064427D01*
X28232289Y-23143476D01*
X28232281Y-23143482D01*
X28120480Y-23255283D01*
X28120474Y-23255291D01*
X28041425Y-23392210D01*
X28041422Y-23392217D01*
X28000499Y-23544944D01*
X23231438Y-23544944D01*
X23420644Y-23386182D01*
X23686182Y-23120644D01*
X23927566Y-22832973D01*
X24142960Y-22525358D01*
X24167160Y-22483443D01*
X40312000Y-22483443D01*
X40312000Y-22641557D01*
X40350972Y-22787000D01*
X40352923Y-22794283D01*
X40352926Y-22794290D01*
X40431975Y-22931209D01*
X40431979Y-22931214D01*
X40431980Y-22931216D01*
X40543784Y-23043020D01*
X40543786Y-23043021D01*
X40543790Y-23043024D01*
X40580862Y-23064427D01*
X40680716Y-23122077D01*
X40833443Y-23163000D01*
X40833445Y-23163000D01*
X40991555Y-23163000D01*
X40991557Y-23163000D01*
X41144284Y-23122077D01*
X41281216Y-23043020D01*
X41393020Y-22931216D01*
X41472077Y-22794284D01*
X41513000Y-22641557D01*
X41513000Y-22483443D01*
X41472077Y-22330716D01*
X41472073Y-22330709D01*
X41393024Y-22193790D01*
X41393018Y-22193782D01*
X41281217Y-22081981D01*
X41281209Y-22081975D01*
X41144290Y-22002926D01*
X41144286Y-22002924D01*
X41144284Y-22002923D01*
X40991557Y-21962000D01*
X40833443Y-21962000D01*
X40680716Y-22002923D01*
X40680709Y-22002926D01*
X40543790Y-22081975D01*
X40543782Y-22081981D01*
X40431981Y-22193782D01*
X40431975Y-22193790D01*
X40352926Y-22330709D01*
X40352923Y-22330716D01*
X40312000Y-22483443D01*
X24167160Y-22483443D01*
X24330724Y-22200142D01*
X24489429Y-21859798D01*
X24499834Y-21831212D01*
X24559231Y-21668018D01*
X24617867Y-21506917D01*
X24650952Y-21383443D01*
X34712000Y-21383443D01*
X34712000Y-21541557D01*
X34752280Y-21691882D01*
X34752923Y-21694283D01*
X34752926Y-21694290D01*
X34831975Y-21831209D01*
X34831979Y-21831214D01*
X34831980Y-21831216D01*
X34943784Y-21943020D01*
X34943786Y-21943021D01*
X34943790Y-21943024D01*
X35047540Y-22002923D01*
X35080716Y-22022077D01*
X35233443Y-22063000D01*
X35233445Y-22063000D01*
X35391555Y-22063000D01*
X35391557Y-22063000D01*
X35544284Y-22022077D01*
X35681216Y-21943020D01*
X35793020Y-21831216D01*
X35845627Y-21740097D01*
X35896191Y-21691882D01*
X35964798Y-21678658D01*
X36015012Y-21694709D01*
X36105716Y-21747077D01*
X36258443Y-21788000D01*
X36258445Y-21788000D01*
X36416555Y-21788000D01*
X36416557Y-21788000D01*
X36569284Y-21747077D01*
X36706216Y-21668020D01*
X36818020Y-21556216D01*
X36897077Y-21419284D01*
X36938000Y-21266557D01*
X36938000Y-21108443D01*
X36897077Y-20955716D01*
X36842971Y-20862000D01*
X36818024Y-20818790D01*
X36818018Y-20818782D01*
X36706217Y-20706981D01*
X36706209Y-20706975D01*
X36569290Y-20627926D01*
X36569286Y-20627924D01*
X36569284Y-20627923D01*
X36416557Y-20587000D01*
X36258443Y-20587000D01*
X36105716Y-20627923D01*
X36105709Y-20627926D01*
X35968790Y-20706975D01*
X35968782Y-20706981D01*
X35856981Y-20818782D01*
X35856977Y-20818787D01*
X35804373Y-20909902D01*
X35753806Y-20958117D01*
X35685199Y-20971341D01*
X35634987Y-20955290D01*
X35544284Y-20902923D01*
X35391557Y-20862000D01*
X35233443Y-20862000D01*
X35080716Y-20902923D01*
X35080709Y-20902926D01*
X34943790Y-20981975D01*
X34943782Y-20981981D01*
X34831981Y-21093782D01*
X34831975Y-21093790D01*
X34752926Y-21230709D01*
X34752923Y-21230716D01*
X34712000Y-21383443D01*
X24650952Y-21383443D01*
X24715061Y-21144185D01*
X24780271Y-20774363D01*
X24813000Y-20400264D01*
X24813000Y-20024736D01*
X24813000Y-20024732D01*
X46712000Y-20024732D01*
X46712000Y-20400267D01*
X46744729Y-20774365D01*
X46809938Y-21144179D01*
X46809941Y-21144192D01*
X46907130Y-21506910D01*
X47035568Y-21859793D01*
X47194271Y-22200133D01*
X47194276Y-22200142D01*
X47382040Y-22525358D01*
X47382041Y-22525359D01*
X47382051Y-22525375D01*
X47597434Y-22832974D01*
X47771907Y-23040902D01*
X47838818Y-23120644D01*
X48104356Y-23386182D01*
X48203392Y-23469283D01*
X48392025Y-23627565D01*
X48699624Y-23842948D01*
X48699631Y-23842952D01*
X48699642Y-23842960D01*
X48939096Y-23981209D01*
X49024851Y-24030720D01*
X49024866Y-24030728D01*
X49365206Y-24189431D01*
X49564589Y-24262000D01*
X49718083Y-24317867D01*
X49718084Y-24317867D01*
X49718089Y-24317869D01*
X49811955Y-24343020D01*
X50080815Y-24415061D01*
X50450637Y-24480271D01*
X50824734Y-24512999D01*
X50824735Y-24513000D01*
X50824736Y-24513000D01*
X51200265Y-24513000D01*
X51200265Y-24512999D01*
X51574363Y-24480271D01*
X51944185Y-24415061D01*
X52306917Y-24317867D01*
X52659798Y-24189429D01*
X53000142Y-24030724D01*
X53325358Y-23842960D01*
X53632973Y-23627566D01*
X53920644Y-23386182D01*
X54186182Y-23120644D01*
X54427566Y-22832973D01*
X54642960Y-22525358D01*
X54830724Y-22200142D01*
X54989429Y-21859798D01*
X54999834Y-21831212D01*
X55059231Y-21668018D01*
X55117867Y-21506917D01*
X55215061Y-21144185D01*
X55280271Y-20774363D01*
X55313000Y-20400264D01*
X55313000Y-20024736D01*
X55280271Y-19650637D01*
X55215061Y-19280815D01*
X55117867Y-18918083D01*
X55045211Y-18718461D01*
X54989431Y-18565206D01*
X54830728Y-18224866D01*
X54830720Y-18224851D01*
X54788889Y-18152398D01*
X54642960Y-17899642D01*
X54642952Y-17899631D01*
X54642948Y-17899624D01*
X54427565Y-17592025D01*
X54223410Y-17348723D01*
X54186182Y-17304356D01*
X53920644Y-17038818D01*
X53823442Y-16957256D01*
X53632974Y-16797434D01*
X53325375Y-16582051D01*
X53325364Y-16582044D01*
X53325358Y-16582040D01*
X53029478Y-16411213D01*
X53000148Y-16394279D01*
X53000133Y-16394271D01*
X52659793Y-16235568D01*
X52306910Y-16107130D01*
X51944192Y-16009941D01*
X51944195Y-16009941D01*
X51944185Y-16009939D01*
X51891971Y-16000732D01*
X51574365Y-15944729D01*
X51200267Y-15912000D01*
X51200264Y-15912000D01*
X50824736Y-15912000D01*
X50824732Y-15912000D01*
X50450634Y-15944729D01*
X50080820Y-16009938D01*
X50080817Y-16009938D01*
X50080815Y-16009939D01*
X50080810Y-16009940D01*
X50080807Y-16009941D01*
X49718089Y-16107130D01*
X49365206Y-16235568D01*
X49024866Y-16394271D01*
X49024851Y-16394279D01*
X48699650Y-16582035D01*
X48699624Y-16582051D01*
X48392025Y-16797434D01*
X48104353Y-17038820D01*
X47838820Y-17304353D01*
X47597434Y-17592025D01*
X47382051Y-17899624D01*
X47382035Y-17899650D01*
X47194279Y-18224851D01*
X47194271Y-18224866D01*
X47035568Y-18565206D01*
X46907130Y-18918089D01*
X46809941Y-19280807D01*
X46809938Y-19280820D01*
X46744729Y-19650634D01*
X46712000Y-20024732D01*
X24813000Y-20024732D01*
X24780271Y-19650637D01*
X24715061Y-19280815D01*
X24617867Y-18918083D01*
X24545211Y-18718461D01*
X24532733Y-18684178D01*
X30262735Y-18684178D01*
X30262735Y-18842291D01*
X30303658Y-18995018D01*
X30303661Y-18995025D01*
X30382710Y-19131944D01*
X30382714Y-19131949D01*
X30382715Y-19131951D01*
X30494519Y-19243755D01*
X30494521Y-19243756D01*
X30494525Y-19243759D01*
X30558709Y-19280815D01*
X30631451Y-19322812D01*
X30784178Y-19363735D01*
X30784180Y-19363735D01*
X30942290Y-19363735D01*
X30942292Y-19363735D01*
X31095019Y-19322812D01*
X31231951Y-19243755D01*
X31343755Y-19131951D01*
X31422812Y-18995019D01*
X31463735Y-18842292D01*
X31463735Y-18684178D01*
X31422812Y-18531451D01*
X31422808Y-18531444D01*
X31343759Y-18394525D01*
X31343753Y-18394517D01*
X31231952Y-18282716D01*
X31231944Y-18282710D01*
X31095025Y-18203661D01*
X31095021Y-18203659D01*
X31095019Y-18203658D01*
X30942292Y-18162735D01*
X30784178Y-18162735D01*
X30631451Y-18203658D01*
X30631444Y-18203661D01*
X30494525Y-18282710D01*
X30494517Y-18282716D01*
X30382716Y-18394517D01*
X30382710Y-18394525D01*
X30303661Y-18531444D01*
X30303658Y-18531451D01*
X30262735Y-18684178D01*
X24532733Y-18684178D01*
X24489431Y-18565206D01*
X24330728Y-18224866D01*
X24330720Y-18224851D01*
X24288889Y-18152398D01*
X24142960Y-17899642D01*
X24142952Y-17899631D01*
X24142948Y-17899624D01*
X23927565Y-17592025D01*
X23723410Y-17348723D01*
X23686182Y-17304356D01*
X23420644Y-17038818D01*
X23323442Y-16957256D01*
X23132974Y-16797434D01*
X22825375Y-16582051D01*
X22825364Y-16582044D01*
X22825358Y-16582040D01*
X22529478Y-16411213D01*
X22500148Y-16394279D01*
X22500133Y-16394271D01*
X22159793Y-16235568D01*
X21806910Y-16107130D01*
X21444192Y-16009941D01*
X21444195Y-16009941D01*
X21444185Y-16009939D01*
X21391971Y-16000732D01*
X21074365Y-15944729D01*
X20700267Y-15912000D01*
X20700264Y-15912000D01*
X20324736Y-15912000D01*
X20324732Y-15912000D01*
X19950634Y-15944729D01*
X19580820Y-16009938D01*
X19580817Y-16009938D01*
X19580815Y-16009939D01*
X19580810Y-16009940D01*
X19580807Y-16009941D01*
X19218089Y-16107130D01*
X18865206Y-16235568D01*
X18524866Y-16394271D01*
X18524851Y-16394279D01*
X18199650Y-16582035D01*
X18199624Y-16582051D01*
X17892025Y-16797434D01*
X17604353Y-17038820D01*
X17338820Y-17304353D01*
X17097434Y-17592025D01*
X16882051Y-17899624D01*
X16882035Y-17899650D01*
X16694279Y-18224851D01*
X16694271Y-18224866D01*
X16535568Y-18565206D01*
X16407130Y-18918089D01*
X16309941Y-19280807D01*
X16309938Y-19280820D01*
X16244729Y-19650634D01*
X16212000Y-20024732D01*
X14782854Y-20024732D01*
X14788047Y-19962061D01*
X14788472Y-19957823D01*
X14831932Y-19590639D01*
X14832741Y-19584958D01*
X14848250Y-19492019D01*
X14848926Y-19488329D01*
X14922106Y-19120428D01*
X14923485Y-19114324D01*
X14944543Y-19031169D01*
X14945391Y-19027999D01*
X14954691Y-18995025D01*
X15049661Y-18658283D01*
X15051692Y-18651779D01*
X15075155Y-18583436D01*
X15075990Y-18581090D01*
X15213902Y-18207265D01*
X15216658Y-18200436D01*
X15236812Y-18154489D01*
X15237706Y-18152498D01*
X15413826Y-17770464D01*
X15417358Y-17763406D01*
X15423968Y-17751191D01*
X15424598Y-17750047D01*
X15644713Y-17357004D01*
X15649775Y-17348743D01*
X15906106Y-16965117D01*
X15911819Y-16957256D01*
X16037812Y-16797434D01*
X16197434Y-16594953D01*
X16203735Y-16587574D01*
X16516924Y-16248770D01*
X16523770Y-16241924D01*
X16862574Y-15928735D01*
X16869953Y-15922434D01*
X17232258Y-15636817D01*
X17240117Y-15631106D01*
X17623743Y-15374775D01*
X17632004Y-15369713D01*
X18025047Y-15149598D01*
X18026191Y-15148968D01*
X18038406Y-15142358D01*
X18045464Y-15138826D01*
X18427497Y-14962707D01*
X18429501Y-14961807D01*
X18475436Y-14941658D01*
X18482265Y-14938902D01*
X18856090Y-14800990D01*
X18858436Y-14800155D01*
X18926779Y-14776692D01*
X18933283Y-14774661D01*
X19303025Y-14670383D01*
X19306169Y-14669543D01*
X19389324Y-14648485D01*
X19395428Y-14647106D01*
X19763329Y-14573926D01*
X19767019Y-14573250D01*
X19859958Y-14557741D01*
X19865639Y-14556932D01*
X20232824Y-14513472D01*
X20237056Y-14513047D01*
X20335484Y-14504891D01*
X20340756Y-14504569D01*
X20760057Y-14488095D01*
X20764924Y-14488000D01*
X50760076Y-14488000D01*
X50764942Y-14488095D01*
G37*
%TD.AperFunction*%
%TD*%
M02*
