%TF.GenerationSoftware,KiCad,Pcbnew,9.0.1*%
%TF.CreationDate,2025-06-10T20:36:17-04:00*%
%TF.ProjectId,STM32_FlightController,53544d33-325f-4466-9c69-676874436f6e,rev?*%
%TF.SameCoordinates,Original*%
%TF.FileFunction,Soldermask,Bot*%
%TF.FilePolarity,Negative*%
%FSLAX46Y46*%
G04 Gerber Fmt 4.6, Leading zero omitted, Abs format (unit mm)*
G04 Created by KiCad (PCBNEW 9.0.1) date 2025-06-10 20:36:17*
%MOMM*%
%LPD*%
G01*
G04 APERTURE LIST*
G04 Aperture macros list*
%AMRoundRect*
0 Rectangle with rounded corners*
0 $1 Rounding radius*
0 $2 $3 $4 $5 $6 $7 $8 $9 X,Y pos of 4 corners*
0 Add a 4 corners polygon primitive as box body*
4,1,4,$2,$3,$4,$5,$6,$7,$8,$9,$2,$3,0*
0 Add four circle primitives for the rounded corners*
1,1,$1+$1,$2,$3*
1,1,$1+$1,$4,$5*
1,1,$1+$1,$6,$7*
1,1,$1+$1,$8,$9*
0 Add four rect primitives between the rounded corners*
20,1,$1+$1,$2,$3,$4,$5,0*
20,1,$1+$1,$4,$5,$6,$7,0*
20,1,$1+$1,$6,$7,$8,$9,0*
20,1,$1+$1,$8,$9,$2,$3,0*%
G04 Aperture macros list end*
%ADD10O,0.800000X0.800000*%
%ADD11O,1.800000X1.150000*%
%ADD12O,2.000000X1.450000*%
%ADD13C,0.900000*%
%ADD14C,8.000000*%
%ADD15R,1.000000X1.000000*%
%ADD16C,1.000000*%
%ADD17RoundRect,0.150000X0.150000X0.625000X-0.150000X0.625000X-0.150000X-0.625000X0.150000X-0.625000X0*%
%ADD18RoundRect,0.250000X0.350000X0.650000X-0.350000X0.650000X-0.350000X-0.650000X0.350000X-0.650000X0*%
%ADD19RoundRect,0.250000X0.250000X0.475000X-0.250000X0.475000X-0.250000X-0.475000X0.250000X-0.475000X0*%
%ADD20RoundRect,0.225000X0.225000X0.250000X-0.225000X0.250000X-0.225000X-0.250000X0.225000X-0.250000X0*%
%ADD21RoundRect,0.135000X-0.135000X-0.185000X0.135000X-0.185000X0.135000X0.185000X-0.135000X0.185000X0*%
%ADD22RoundRect,0.150000X-0.512500X-0.150000X0.512500X-0.150000X0.512500X0.150000X-0.512500X0.150000X0*%
%ADD23RoundRect,0.250000X-0.475000X0.250000X-0.475000X-0.250000X0.475000X-0.250000X0.475000X0.250000X0*%
%ADD24RoundRect,0.150000X-0.587500X-0.150000X0.587500X-0.150000X0.587500X0.150000X-0.587500X0.150000X0*%
%ADD25RoundRect,0.375000X-0.625000X-0.375000X0.625000X-0.375000X0.625000X0.375000X-0.625000X0.375000X0*%
%ADD26RoundRect,0.500000X-0.500000X-1.400000X0.500000X-1.400000X0.500000X1.400000X-0.500000X1.400000X0*%
%ADD27RoundRect,0.150000X0.150000X-0.512500X0.150000X0.512500X-0.150000X0.512500X-0.150000X-0.512500X0*%
%ADD28RoundRect,0.135000X0.135000X0.185000X-0.135000X0.185000X-0.135000X-0.185000X0.135000X-0.185000X0*%
G04 APERTURE END LIST*
D10*
%TO.C,J1*%
X52107500Y-37987500D03*
X52107500Y-32987500D03*
D11*
X54857500Y-39362500D03*
D12*
X51057500Y-39212500D03*
X51057500Y-31762500D03*
D11*
X54857500Y-31612500D03*
%TD*%
D13*
%TO.C,SW2*%
X16532500Y-30087500D03*
X16532500Y-33087500D03*
%TD*%
D14*
%TO.C,H1*%
X20512500Y-20212500D03*
%TD*%
%TO.C,H3*%
X20512500Y-50712500D03*
%TD*%
%TO.C,H4*%
X51012500Y-50712500D03*
%TD*%
%TO.C,H2*%
X51012500Y-20212500D03*
%TD*%
D15*
%TO.C,J5*%
X46937500Y-28357500D03*
D16*
X46937500Y-27087500D03*
X48207500Y-28357500D03*
X48207500Y-27087500D03*
X49477500Y-28357500D03*
X49477500Y-27087500D03*
X50747500Y-28357500D03*
X50747500Y-27087500D03*
X52017500Y-28357500D03*
X52017500Y-27087500D03*
%TD*%
D17*
%TO.C,J2*%
X39512500Y-53587500D03*
X38512500Y-53587500D03*
X37512500Y-53587500D03*
X36512500Y-53587500D03*
X35512500Y-53587500D03*
X34512500Y-53587500D03*
X33512500Y-53587500D03*
X32512500Y-53587500D03*
D18*
X40812500Y-57462500D03*
X31212500Y-57462500D03*
%TD*%
D19*
%TO.C,C20*%
X43712500Y-49687500D03*
X41812500Y-49687500D03*
%TD*%
D20*
%TO.C,C18*%
X32312500Y-32737500D03*
X30762500Y-32737500D03*
%TD*%
D21*
%TO.C,R4*%
X30852500Y-18087500D03*
X31872500Y-18087500D03*
%TD*%
D22*
%TO.C,U1*%
X32637500Y-26762500D03*
X32637500Y-25812500D03*
X32637500Y-24862500D03*
X34912500Y-24862500D03*
X34912500Y-25812500D03*
X34912500Y-26762500D03*
%TD*%
%TO.C,U8*%
X27537500Y-26762500D03*
X27537500Y-25812500D03*
X27537500Y-24862500D03*
X29812500Y-24862500D03*
X29812500Y-25812500D03*
X29812500Y-26762500D03*
%TD*%
D23*
%TO.C,C19*%
X36562500Y-47687500D03*
X36562500Y-49587500D03*
%TD*%
D24*
%TO.C,D1*%
X34512500Y-43837500D03*
X34512500Y-41937500D03*
X36387500Y-42887500D03*
%TD*%
D25*
%TO.C,U5*%
X39562500Y-46687500D03*
X39562500Y-44387500D03*
D26*
X45862500Y-44387500D03*
D25*
X39562500Y-42087500D03*
%TD*%
D27*
%TO.C,U6*%
X32312500Y-37025000D03*
X31362500Y-37025000D03*
X30412500Y-37025000D03*
X30412500Y-34750000D03*
X32312500Y-34750000D03*
%TD*%
D20*
%TO.C,C17*%
X32112500Y-39750000D03*
X30562500Y-39750000D03*
%TD*%
D28*
%TO.C,R3*%
X31872500Y-16987500D03*
X30852500Y-16987500D03*
%TD*%
M02*
