%TF.GenerationSoftware,KiCad,Pcbnew,9.0.1*%
%TF.CreationDate,2025-07-27T20:04:42-04:00*%
%TF.ProjectId,STM32_FlightController,53544d33-325f-4466-9c69-676874436f6e,rev?*%
%TF.SameCoordinates,Original*%
%TF.FileFunction,Copper,L3,Inr*%
%TF.FilePolarity,Positive*%
%FSLAX46Y46*%
G04 Gerber Fmt 4.6, Leading zero omitted, Abs format (unit mm)*
G04 Created by KiCad (PCBNEW 9.0.1) date 2025-07-27 20:04:42*
%MOMM*%
%LPD*%
G01*
G04 APERTURE LIST*
%TA.AperFunction,HeatsinkPad*%
%ADD10O,1.800000X1.150000*%
%TD*%
%TA.AperFunction,HeatsinkPad*%
%ADD11O,2.000000X1.450000*%
%TD*%
%TA.AperFunction,ComponentPad*%
%ADD12C,8.000000*%
%TD*%
%TA.AperFunction,ComponentPad*%
%ADD13R,1.000000X1.000000*%
%TD*%
%TA.AperFunction,ComponentPad*%
%ADD14C,1.000000*%
%TD*%
%TA.AperFunction,ViaPad*%
%ADD15C,0.600000*%
%TD*%
G04 APERTURE END LIST*
D10*
%TO.N,unconnected-(J1-Shield-Pad6)_2*%
%TO.C,J1*%
X54857500Y-39362500D03*
D11*
%TO.N,unconnected-(J1-Shield-Pad6)*%
X51057500Y-39212500D03*
%TO.N,unconnected-(J1-Shield-Pad6)_3*%
X51057500Y-31762500D03*
D10*
%TO.N,unconnected-(J1-Shield-Pad6)_1*%
X54857500Y-31612500D03*
%TD*%
D12*
%TO.N,unconnected-(H1-Pad1)*%
%TO.C,H1*%
X20512500Y-20212500D03*
%TD*%
%TO.N,unconnected-(H3-Pad1)*%
%TO.C,H3*%
X20512500Y-50712500D03*
%TD*%
%TO.N,unconnected-(H4-Pad1)*%
%TO.C,H4*%
X51012500Y-50712500D03*
%TD*%
%TO.N,unconnected-(H2-Pad1)*%
%TO.C,H2*%
X51012500Y-20212500D03*
%TD*%
D13*
%TO.N,+3V3*%
%TO.C,J5*%
X46937500Y-28357500D03*
D14*
X46937500Y-27087500D03*
%TO.N,/SWO*%
X48207500Y-28357500D03*
X48207500Y-27087500D03*
%TO.N,/SWCLK*%
X49477500Y-28357500D03*
X49477500Y-27087500D03*
%TO.N,/SWDIO*%
X50747500Y-28357500D03*
X50747500Y-27087500D03*
%TO.N,GND*%
X52017500Y-28357500D03*
X52017500Y-27087500D03*
%TD*%
D15*
%TO.N,/S1*%
X35512500Y-54752500D03*
%TO.N,GND*%
X43012500Y-18962500D03*
X38887500Y-48900000D03*
X40237500Y-48900000D03*
X32374329Y-18949201D03*
X41000000Y-31650000D03*
X50012500Y-41962500D03*
X17012500Y-38962500D03*
X38142500Y-46692500D03*
X35987500Y-25812500D03*
X40237500Y-49575000D03*
X37512500Y-54712500D03*
X20012500Y-25962500D03*
X44700000Y-30912500D03*
X33687500Y-33062500D03*
X23587500Y-34112500D03*
X28850000Y-17500000D03*
X45012500Y-20962500D03*
X48012500Y-39962500D03*
X25012500Y-43962500D03*
X27012500Y-47962500D03*
X28912500Y-54712500D03*
X22612500Y-30287499D03*
X28092500Y-32222500D03*
X27452500Y-33002500D03*
X50012500Y-43962500D03*
X24012500Y-25962500D03*
X25012500Y-47962500D03*
X39562500Y-48900000D03*
X43012500Y-20962500D03*
X54212500Y-40787500D03*
X31212500Y-25812500D03*
X48012500Y-41962500D03*
X27012500Y-49962500D03*
X31912500Y-44562500D03*
X21012500Y-42962500D03*
X48012500Y-45962500D03*
X23012500Y-42962500D03*
X25012500Y-45962500D03*
X25962500Y-29162500D03*
X17012500Y-40962500D03*
X52162500Y-34187500D03*
X26012500Y-38212500D03*
X26462500Y-25812500D03*
X19012500Y-38962500D03*
X31600163Y-38406155D03*
X17012500Y-42962500D03*
X27012500Y-45962500D03*
X33655735Y-19169265D03*
X17012500Y-29237500D03*
X42450000Y-46050000D03*
X38562500Y-24175000D03*
X28462500Y-21012500D03*
X43012500Y-16962500D03*
X19012500Y-42962500D03*
X45012500Y-22962500D03*
X19012500Y-40962500D03*
X22012500Y-25962500D03*
X33152500Y-16312500D03*
X45012500Y-16962500D03*
X39562500Y-49575000D03*
X28390000Y-42885000D03*
X21012500Y-40962500D03*
X49359735Y-35515265D03*
X42042500Y-42800000D03*
X45012500Y-18962500D03*
X29562500Y-32737500D03*
X20737500Y-37662500D03*
X38887500Y-49550000D03*
X40112500Y-52362500D03*
X42262500Y-25900000D03*
X31600000Y-30500000D03*
X48012500Y-43962500D03*
%TO.N,+3V3*%
X35312500Y-21462500D03*
X29612500Y-30462500D03*
X26462500Y-26762500D03*
X52362500Y-42887500D03*
X32712500Y-41687500D03*
X41062500Y-43062500D03*
X27912500Y-54712500D03*
X31556793Y-26768207D03*
X28262500Y-34262500D03*
X17012500Y-33962500D03*
X41062500Y-26862500D03*
X33125000Y-39750000D03*
X42262500Y-23387500D03*
X43262500Y-46562500D03*
X44162500Y-46562500D03*
X42652500Y-32622500D03*
X40912500Y-22562500D03*
X44162500Y-47262500D03*
X24987500Y-41462500D03*
X43262500Y-47262500D03*
%TO.N,/NRST*%
X28012500Y-28962500D03*
X28912500Y-37112500D03*
%TO.N,V_MAIN*%
X37712500Y-47712500D03*
%TO.N,VBUS*%
X49087500Y-37687500D03*
%TO.N,+1V8*%
X30287500Y-23612500D03*
X28600999Y-23624001D03*
X33112500Y-23237500D03*
%TO.N,/IMU_MISO*%
X30887500Y-24862500D03*
%TO.N,/MISO*%
X30211500Y-28562500D03*
%TO.N,/IMU_INT*%
X34912500Y-23862500D03*
%TO.N,/INT1*%
X35142500Y-30187500D03*
X33787500Y-29187500D03*
X39462500Y-37712500D03*
%TO.N,/MOSI*%
X35762500Y-27812500D03*
X35762500Y-29312500D03*
%TO.N,/IMU_SCK*%
X30863235Y-18763235D03*
%TO.N,/SCK*%
X38412500Y-23287500D03*
X38412500Y-30412500D03*
%TO.N,/CS1*%
X38262500Y-34912500D03*
X36337500Y-21187500D03*
%TO.N,/S2*%
X34512500Y-52462500D03*
%TO.N,/S3*%
X33512500Y-52462500D03*
%TO.N,/S4*%
X32512500Y-52462500D03*
%TO.N,/CS2*%
X39012500Y-36062500D03*
X39012500Y-27337500D03*
%TO.N,/INT2*%
X40312500Y-26212500D03*
X40212500Y-38862500D03*
%TO.N,/GPS_RX*%
X30912500Y-47962500D03*
X28812500Y-46862500D03*
%TO.N,/ELRS_RX*%
X43612500Y-52137500D03*
X41637500Y-52137500D03*
%TD*%
%TA.AperFunction,Conductor*%
%TO.N,+3V3*%
G36*
X50764942Y-14488095D02*
G01*
X51184237Y-14504569D01*
X51189520Y-14504892D01*
X51287932Y-14513046D01*
X51292186Y-14513473D01*
X51659348Y-14556930D01*
X51665052Y-14557743D01*
X51757957Y-14573247D01*
X51761694Y-14573931D01*
X52129554Y-14647103D01*
X52135691Y-14648489D01*
X52218792Y-14669533D01*
X52221999Y-14670391D01*
X52302980Y-14693229D01*
X52591695Y-14774655D01*
X52598240Y-14776699D01*
X52666507Y-14800136D01*
X52668967Y-14801011D01*
X53042710Y-14938893D01*
X53049579Y-14941665D01*
X53095497Y-14961807D01*
X53097580Y-14962743D01*
X53252110Y-15033982D01*
X53479513Y-15138816D01*
X53486609Y-15142367D01*
X53490747Y-15144606D01*
X53498696Y-15148907D01*
X53500086Y-15149673D01*
X53892983Y-15369707D01*
X53901267Y-15374782D01*
X54284867Y-15631096D01*
X54292743Y-15636819D01*
X54655039Y-15922429D01*
X54662437Y-15928747D01*
X55001215Y-16241911D01*
X55008088Y-16248784D01*
X55281252Y-16544290D01*
X55321247Y-16587556D01*
X55327570Y-16594960D01*
X55613180Y-16957256D01*
X55618903Y-16965132D01*
X55875204Y-17348714D01*
X55880291Y-17357016D01*
X56100289Y-17749850D01*
X56101156Y-17751425D01*
X56107628Y-17763385D01*
X56111182Y-17770485D01*
X56287246Y-18152398D01*
X56288191Y-18154501D01*
X56308333Y-18200419D01*
X56311114Y-18207311D01*
X56448961Y-18580960D01*
X56449898Y-18583593D01*
X56453399Y-18593790D01*
X56473286Y-18651719D01*
X56475349Y-18658323D01*
X56579607Y-19027999D01*
X56580467Y-19031215D01*
X56601495Y-19114247D01*
X56602907Y-19120498D01*
X56676064Y-19488288D01*
X56676756Y-19492068D01*
X56692247Y-19584895D01*
X56693079Y-19590732D01*
X56736518Y-19957750D01*
X56736953Y-19962083D01*
X56745103Y-20060432D01*
X56745431Y-20065805D01*
X56761904Y-20485056D01*
X56762000Y-20489924D01*
X56762000Y-50485075D01*
X56761904Y-50489943D01*
X56745431Y-50909193D01*
X56745103Y-50914566D01*
X56736953Y-51012915D01*
X56736518Y-51017248D01*
X56693079Y-51384266D01*
X56692247Y-51390103D01*
X56676756Y-51482930D01*
X56676064Y-51486710D01*
X56602907Y-51854500D01*
X56601495Y-51860751D01*
X56580467Y-51943783D01*
X56579607Y-51946999D01*
X56475349Y-52316675D01*
X56473286Y-52323279D01*
X56449907Y-52391381D01*
X56448961Y-52394038D01*
X56311114Y-52767687D01*
X56308333Y-52774579D01*
X56288191Y-52820497D01*
X56287246Y-52822600D01*
X56111182Y-53204513D01*
X56107628Y-53211613D01*
X56101156Y-53223573D01*
X56100290Y-53225148D01*
X55880292Y-53617983D01*
X55875204Y-53626285D01*
X55618903Y-54009867D01*
X55613180Y-54017743D01*
X55327570Y-54380039D01*
X55321247Y-54387443D01*
X55008094Y-54726209D01*
X55001209Y-54733094D01*
X54662443Y-55046247D01*
X54655039Y-55052570D01*
X54292743Y-55338180D01*
X54284867Y-55343903D01*
X53901285Y-55600204D01*
X53892983Y-55605292D01*
X53500148Y-55825290D01*
X53498573Y-55826156D01*
X53486613Y-55832628D01*
X53479513Y-55836182D01*
X53097600Y-56012246D01*
X53095497Y-56013191D01*
X53049579Y-56033333D01*
X53042687Y-56036114D01*
X52669038Y-56173961D01*
X52666381Y-56174907D01*
X52598279Y-56198286D01*
X52591675Y-56200349D01*
X52221999Y-56304607D01*
X52218783Y-56305467D01*
X52135751Y-56326495D01*
X52129500Y-56327907D01*
X51761710Y-56401064D01*
X51757930Y-56401756D01*
X51665103Y-56417247D01*
X51659266Y-56418079D01*
X51292248Y-56461518D01*
X51287915Y-56461953D01*
X51189566Y-56470103D01*
X51184193Y-56470431D01*
X50764943Y-56486904D01*
X50760075Y-56487000D01*
X50668014Y-56487000D01*
X50481381Y-56516560D01*
X50457067Y-56524460D01*
X50457061Y-56524462D01*
X50452338Y-56525996D01*
X50451324Y-56526175D01*
X50447475Y-56527575D01*
X50445409Y-56528247D01*
X50301671Y-56574951D01*
X50269311Y-56591438D01*
X50269310Y-56591437D01*
X50262543Y-56594884D01*
X50254389Y-56597853D01*
X50236871Y-56607967D01*
X50233957Y-56609452D01*
X50133307Y-56660736D01*
X50133295Y-56660743D01*
X50091473Y-56691126D01*
X50091474Y-56691127D01*
X50086207Y-56694953D01*
X50072894Y-56702640D01*
X50055247Y-56717447D01*
X50051731Y-56720002D01*
X50051723Y-56720008D01*
X49980426Y-56771810D01*
X49980420Y-56771815D01*
X49928093Y-56824141D01*
X49912351Y-56837351D01*
X49899141Y-56853093D01*
X49846815Y-56905420D01*
X49846810Y-56905426D01*
X49795008Y-56976723D01*
X49792448Y-56980246D01*
X49777640Y-56997894D01*
X49769954Y-57011206D01*
X49766129Y-57016471D01*
X49735743Y-57058295D01*
X49735736Y-57058307D01*
X49684452Y-57158957D01*
X49682967Y-57161870D01*
X49672853Y-57179389D01*
X49669884Y-57187546D01*
X49666440Y-57194305D01*
X49666438Y-57194311D01*
X49649951Y-57226671D01*
X49603249Y-57370399D01*
X49603250Y-57370400D01*
X49602576Y-57372474D01*
X49601175Y-57376324D01*
X49600996Y-57377338D01*
X49599462Y-57382061D01*
X49599460Y-57382067D01*
X49591560Y-57406381D01*
X49562000Y-57593013D01*
X49562000Y-57682623D01*
X49561618Y-57692353D01*
X49549007Y-57852570D01*
X49547506Y-57864370D01*
X49541773Y-57896887D01*
X49540230Y-57904304D01*
X49507105Y-58042280D01*
X49503052Y-58055745D01*
X49494985Y-58077908D01*
X49493025Y-58082949D01*
X49434994Y-58223049D01*
X49426160Y-58240386D01*
X49338015Y-58384225D01*
X49326579Y-58399966D01*
X49217013Y-58528253D01*
X49203253Y-58542013D01*
X49074966Y-58651579D01*
X49059225Y-58663015D01*
X48915386Y-58751160D01*
X48898049Y-58759994D01*
X48757949Y-58818025D01*
X48752908Y-58819985D01*
X48730745Y-58828052D01*
X48717280Y-58832105D01*
X48579304Y-58865230D01*
X48571887Y-58866773D01*
X48539370Y-58872506D01*
X48527570Y-58874007D01*
X48367353Y-58886618D01*
X48357623Y-58887000D01*
X23167377Y-58887000D01*
X23157647Y-58886618D01*
X22997428Y-58874007D01*
X22985628Y-58872506D01*
X22962395Y-58868409D01*
X22953105Y-58866771D01*
X22945694Y-58865230D01*
X22807718Y-58832105D01*
X22794253Y-58828052D01*
X22772090Y-58819985D01*
X22767049Y-58818025D01*
X22626949Y-58759994D01*
X22609612Y-58751160D01*
X22465774Y-58663016D01*
X22450033Y-58651580D01*
X22393375Y-58603190D01*
X22321746Y-58542013D01*
X22307986Y-58528253D01*
X22257869Y-58469573D01*
X22198416Y-58399961D01*
X22186987Y-58384230D01*
X22098833Y-58240376D01*
X22090007Y-58223056D01*
X22031966Y-58082931D01*
X22030013Y-58077908D01*
X22021946Y-58055745D01*
X22017898Y-58042298D01*
X21984761Y-57904274D01*
X21983235Y-57896938D01*
X21977489Y-57864350D01*
X21975991Y-57852568D01*
X21963382Y-57692353D01*
X21963000Y-57682624D01*
X21963000Y-57593013D01*
X21946876Y-57491217D01*
X21933440Y-57406382D01*
X21924004Y-57377342D01*
X21923825Y-57376324D01*
X21922418Y-57372461D01*
X21900379Y-57304633D01*
X21875049Y-57226672D01*
X21858565Y-57194320D01*
X21858160Y-57193527D01*
X21855120Y-57187560D01*
X21852147Y-57179389D01*
X21842019Y-57161847D01*
X21789260Y-57058301D01*
X21789258Y-57058298D01*
X21789257Y-57058296D01*
X21758872Y-57016476D01*
X21758872Y-57016475D01*
X21755053Y-57011218D01*
X21747360Y-56997894D01*
X21732539Y-56980231D01*
X21730002Y-56976739D01*
X21729992Y-56976726D01*
X21729990Y-56976723D01*
X21678190Y-56905427D01*
X21625868Y-56853105D01*
X21612649Y-56837351D01*
X21596894Y-56824131D01*
X21544572Y-56771809D01*
X21473266Y-56720001D01*
X21473266Y-56720002D01*
X21469772Y-56717463D01*
X21452106Y-56702640D01*
X21438775Y-56694943D01*
X21391699Y-56660740D01*
X21391691Y-56660736D01*
X21291033Y-56609448D01*
X21291033Y-56609447D01*
X21288131Y-56607968D01*
X21270611Y-56597853D01*
X21262450Y-56594882D01*
X21255690Y-56591438D01*
X21255684Y-56591436D01*
X21223340Y-56574957D01*
X21223332Y-56574953D01*
X21079612Y-56528255D01*
X21079612Y-56528254D01*
X21077525Y-56527576D01*
X21073676Y-56526175D01*
X21072663Y-56525996D01*
X21067947Y-56524464D01*
X21067936Y-56524461D01*
X21043619Y-56516560D01*
X20856986Y-56487000D01*
X20856981Y-56487000D01*
X20764925Y-56487000D01*
X20760057Y-56486904D01*
X20340805Y-56470431D01*
X20335432Y-56470103D01*
X20237083Y-56461953D01*
X20232750Y-56461518D01*
X19952573Y-56428357D01*
X19865723Y-56418077D01*
X19859895Y-56417247D01*
X19767068Y-56401756D01*
X19763288Y-56401064D01*
X19395498Y-56327907D01*
X19389251Y-56326496D01*
X19382161Y-56324700D01*
X19306215Y-56305467D01*
X19302999Y-56304607D01*
X18933323Y-56200349D01*
X18926719Y-56198286D01*
X18907904Y-56191827D01*
X18858593Y-56174898D01*
X18855960Y-56173961D01*
X18482311Y-56036114D01*
X18475419Y-56033333D01*
X18429501Y-56013191D01*
X18427398Y-56012246D01*
X18045485Y-55836182D01*
X18038385Y-55832628D01*
X18026425Y-55826156D01*
X18024850Y-55825289D01*
X17632016Y-55605291D01*
X17623714Y-55600204D01*
X17240132Y-55343903D01*
X17232256Y-55338180D01*
X16869960Y-55052570D01*
X16862556Y-55046247D01*
X16826589Y-55012999D01*
X16523784Y-54733088D01*
X16516911Y-54726215D01*
X16203747Y-54387437D01*
X16197429Y-54380039D01*
X15911819Y-54017743D01*
X15906096Y-54009867D01*
X15823450Y-53886179D01*
X15649782Y-53626267D01*
X15644707Y-53617983D01*
X15424673Y-53225086D01*
X15423907Y-53223696D01*
X15417367Y-53211609D01*
X15413816Y-53204513D01*
X15293265Y-52943018D01*
X15237743Y-52822580D01*
X15236807Y-52820497D01*
X15216665Y-52774579D01*
X15213893Y-52767710D01*
X15076011Y-52393967D01*
X15075136Y-52391507D01*
X15051699Y-52323240D01*
X15049655Y-52316695D01*
X14958587Y-51993790D01*
X14945391Y-51946999D01*
X14944531Y-51943783D01*
X14923489Y-51860691D01*
X14922103Y-51854554D01*
X14848931Y-51486694D01*
X14848242Y-51482930D01*
X14832743Y-51390052D01*
X14831930Y-51384348D01*
X14788473Y-51017187D01*
X14788045Y-51012915D01*
X14779892Y-50914520D01*
X14779569Y-50909237D01*
X14764462Y-50524732D01*
X16212000Y-50524732D01*
X16212000Y-50900267D01*
X16244729Y-51274365D01*
X16309938Y-51644179D01*
X16309941Y-51644192D01*
X16407130Y-52006910D01*
X16535568Y-52359793D01*
X16694271Y-52700133D01*
X16694279Y-52700148D01*
X16716133Y-52738000D01*
X16882040Y-53025358D01*
X16882044Y-53025364D01*
X16882051Y-53025375D01*
X17097434Y-53332974D01*
X17171913Y-53421734D01*
X17338818Y-53620644D01*
X17604356Y-53886182D01*
X17723968Y-53986548D01*
X17892025Y-54127565D01*
X18199624Y-54342948D01*
X18199631Y-54342952D01*
X18199642Y-54342960D01*
X18270490Y-54383864D01*
X18524851Y-54530720D01*
X18524866Y-54530728D01*
X18865206Y-54689431D01*
X19128979Y-54785436D01*
X19218083Y-54817867D01*
X19218084Y-54817867D01*
X19218089Y-54817869D01*
X19332042Y-54848402D01*
X19580815Y-54915061D01*
X19950637Y-54980271D01*
X20324734Y-55012999D01*
X20324735Y-55013000D01*
X20324736Y-55013000D01*
X20700265Y-55013000D01*
X20700265Y-55012999D01*
X21074363Y-54980271D01*
X21444185Y-54915061D01*
X21806917Y-54817867D01*
X22159798Y-54689429D01*
X22279860Y-54633443D01*
X28312000Y-54633443D01*
X28312000Y-54791557D01*
X28340308Y-54897202D01*
X28352923Y-54944283D01*
X28352926Y-54944290D01*
X28431975Y-55081209D01*
X28431979Y-55081214D01*
X28431980Y-55081216D01*
X28543784Y-55193020D01*
X28543786Y-55193021D01*
X28543790Y-55193024D01*
X28680709Y-55272073D01*
X28680716Y-55272077D01*
X28833443Y-55313000D01*
X28833445Y-55313000D01*
X28991555Y-55313000D01*
X28991557Y-55313000D01*
X29144284Y-55272077D01*
X29281216Y-55193020D01*
X29393020Y-55081216D01*
X29472077Y-54944284D01*
X29513000Y-54791557D01*
X29513000Y-54673443D01*
X34912000Y-54673443D01*
X34912000Y-54831557D01*
X34951848Y-54980270D01*
X34952923Y-54984283D01*
X34952926Y-54984290D01*
X35031975Y-55121209D01*
X35031979Y-55121214D01*
X35031980Y-55121216D01*
X35143784Y-55233020D01*
X35143786Y-55233021D01*
X35143790Y-55233024D01*
X35211433Y-55272077D01*
X35280716Y-55312077D01*
X35433443Y-55353000D01*
X35433445Y-55353000D01*
X35591555Y-55353000D01*
X35591557Y-55353000D01*
X35744284Y-55312077D01*
X35881216Y-55233020D01*
X35993020Y-55121216D01*
X36072077Y-54984284D01*
X36113000Y-54831557D01*
X36113000Y-54673443D01*
X36102282Y-54633443D01*
X36912000Y-54633443D01*
X36912000Y-54791557D01*
X36940308Y-54897202D01*
X36952923Y-54944283D01*
X36952926Y-54944290D01*
X37031975Y-55081209D01*
X37031979Y-55081214D01*
X37031980Y-55081216D01*
X37143784Y-55193020D01*
X37143786Y-55193021D01*
X37143790Y-55193024D01*
X37280709Y-55272073D01*
X37280716Y-55272077D01*
X37433443Y-55313000D01*
X37433445Y-55313000D01*
X37591555Y-55313000D01*
X37591557Y-55313000D01*
X37744284Y-55272077D01*
X37881216Y-55193020D01*
X37993020Y-55081216D01*
X38072077Y-54944284D01*
X38113000Y-54791557D01*
X38113000Y-54633443D01*
X38072077Y-54480716D01*
X38072073Y-54480709D01*
X37993024Y-54343790D01*
X37993018Y-54343782D01*
X37881217Y-54231981D01*
X37881209Y-54231975D01*
X37744290Y-54152926D01*
X37744286Y-54152924D01*
X37744284Y-54152923D01*
X37591557Y-54112000D01*
X37433443Y-54112000D01*
X37280716Y-54152923D01*
X37280709Y-54152926D01*
X37143790Y-54231975D01*
X37143782Y-54231981D01*
X37031981Y-54343782D01*
X37031975Y-54343790D01*
X36952926Y-54480709D01*
X36952923Y-54480716D01*
X36912000Y-54633443D01*
X36102282Y-54633443D01*
X36072077Y-54520716D01*
X35995133Y-54387443D01*
X35993024Y-54383790D01*
X35993018Y-54383782D01*
X35881217Y-54271981D01*
X35881209Y-54271975D01*
X35744290Y-54192926D01*
X35744286Y-54192924D01*
X35744284Y-54192923D01*
X35591557Y-54152000D01*
X35433443Y-54152000D01*
X35280716Y-54192923D01*
X35280709Y-54192926D01*
X35143790Y-54271975D01*
X35143782Y-54271981D01*
X35031981Y-54383782D01*
X35031975Y-54383790D01*
X34952926Y-54520709D01*
X34952923Y-54520716D01*
X34912000Y-54673443D01*
X29513000Y-54673443D01*
X29513000Y-54633443D01*
X29472077Y-54480716D01*
X29472073Y-54480709D01*
X29393024Y-54343790D01*
X29393018Y-54343782D01*
X29281217Y-54231981D01*
X29281209Y-54231975D01*
X29144290Y-54152926D01*
X29144286Y-54152924D01*
X29144284Y-54152923D01*
X28991557Y-54112000D01*
X28833443Y-54112000D01*
X28680716Y-54152923D01*
X28680709Y-54152926D01*
X28543790Y-54231975D01*
X28543782Y-54231981D01*
X28431981Y-54343782D01*
X28431975Y-54343790D01*
X28352926Y-54480709D01*
X28352923Y-54480716D01*
X28312000Y-54633443D01*
X22279860Y-54633443D01*
X22500142Y-54530724D01*
X22517476Y-54520716D01*
X22522304Y-54517929D01*
X22586770Y-54480709D01*
X22825358Y-54342960D01*
X23132973Y-54127566D01*
X23420644Y-53886182D01*
X23686182Y-53620644D01*
X23927566Y-53332973D01*
X24142960Y-53025358D01*
X24330724Y-52700142D01*
X24478403Y-52383443D01*
X31912000Y-52383443D01*
X31912000Y-52541557D01*
X31932490Y-52618024D01*
X31952923Y-52694283D01*
X31952926Y-52694290D01*
X32031975Y-52831209D01*
X32031979Y-52831214D01*
X32031980Y-52831216D01*
X32143784Y-52943020D01*
X32143786Y-52943021D01*
X32143790Y-52943024D01*
X32245259Y-53001606D01*
X32280716Y-53022077D01*
X32433443Y-53063000D01*
X32433445Y-53063000D01*
X32591555Y-53063000D01*
X32591557Y-53063000D01*
X32744284Y-53022077D01*
X32881216Y-52943020D01*
X32924819Y-52899417D01*
X32986142Y-52865932D01*
X33055834Y-52870916D01*
X33100181Y-52899417D01*
X33143784Y-52943020D01*
X33143786Y-52943021D01*
X33143790Y-52943024D01*
X33245259Y-53001606D01*
X33280716Y-53022077D01*
X33433443Y-53063000D01*
X33433445Y-53063000D01*
X33591555Y-53063000D01*
X33591557Y-53063000D01*
X33744284Y-53022077D01*
X33881216Y-52943020D01*
X33924819Y-52899417D01*
X33986142Y-52865932D01*
X34055834Y-52870916D01*
X34100181Y-52899417D01*
X34143784Y-52943020D01*
X34143786Y-52943021D01*
X34143790Y-52943024D01*
X34245259Y-53001606D01*
X34280716Y-53022077D01*
X34433443Y-53063000D01*
X34433445Y-53063000D01*
X34591555Y-53063000D01*
X34591557Y-53063000D01*
X34744284Y-53022077D01*
X34881216Y-52943020D01*
X34993020Y-52831216D01*
X35072077Y-52694284D01*
X35113000Y-52541557D01*
X35113000Y-52383443D01*
X35086205Y-52283443D01*
X39512000Y-52283443D01*
X39512000Y-52441557D01*
X39545339Y-52565978D01*
X39552923Y-52594283D01*
X39552926Y-52594290D01*
X39631975Y-52731209D01*
X39631979Y-52731214D01*
X39631980Y-52731216D01*
X39743784Y-52843020D01*
X39743786Y-52843021D01*
X39743790Y-52843024D01*
X39841467Y-52899417D01*
X39880716Y-52922077D01*
X40033443Y-52963000D01*
X40033445Y-52963000D01*
X40191555Y-52963000D01*
X40191557Y-52963000D01*
X40344284Y-52922077D01*
X40481216Y-52843020D01*
X40593020Y-52731216D01*
X40672077Y-52594284D01*
X40713000Y-52441557D01*
X40713000Y-52283443D01*
X40672077Y-52130716D01*
X40650758Y-52093790D01*
X40630351Y-52058443D01*
X41037000Y-52058443D01*
X41037000Y-52216557D01*
X41075382Y-52359798D01*
X41077923Y-52369283D01*
X41077926Y-52369290D01*
X41156975Y-52506209D01*
X41156979Y-52506214D01*
X41156980Y-52506216D01*
X41268784Y-52618020D01*
X41268786Y-52618021D01*
X41268790Y-52618024D01*
X41400877Y-52694283D01*
X41405716Y-52697077D01*
X41558443Y-52738000D01*
X41558445Y-52738000D01*
X41716555Y-52738000D01*
X41716557Y-52738000D01*
X41869284Y-52697077D01*
X42006216Y-52618020D01*
X42118020Y-52506216D01*
X42197077Y-52369284D01*
X42238000Y-52216557D01*
X42238000Y-52058443D01*
X43012000Y-52058443D01*
X43012000Y-52216557D01*
X43050382Y-52359798D01*
X43052923Y-52369283D01*
X43052926Y-52369290D01*
X43131975Y-52506209D01*
X43131979Y-52506214D01*
X43131980Y-52506216D01*
X43243784Y-52618020D01*
X43243786Y-52618021D01*
X43243790Y-52618024D01*
X43375877Y-52694283D01*
X43380716Y-52697077D01*
X43533443Y-52738000D01*
X43533445Y-52738000D01*
X43691555Y-52738000D01*
X43691557Y-52738000D01*
X43844284Y-52697077D01*
X43981216Y-52618020D01*
X44093020Y-52506216D01*
X44172077Y-52369284D01*
X44213000Y-52216557D01*
X44213000Y-52058443D01*
X44172077Y-51905716D01*
X44170466Y-51902926D01*
X44093024Y-51768790D01*
X44093018Y-51768782D01*
X43981217Y-51656981D01*
X43981209Y-51656975D01*
X43844290Y-51577926D01*
X43844286Y-51577924D01*
X43844284Y-51577923D01*
X43691557Y-51537000D01*
X43533443Y-51537000D01*
X43380716Y-51577923D01*
X43380709Y-51577926D01*
X43243790Y-51656975D01*
X43243782Y-51656981D01*
X43131981Y-51768782D01*
X43131975Y-51768790D01*
X43052926Y-51905709D01*
X43052923Y-51905716D01*
X43012000Y-52058443D01*
X42238000Y-52058443D01*
X42197077Y-51905716D01*
X42195466Y-51902926D01*
X42118024Y-51768790D01*
X42118018Y-51768782D01*
X42006217Y-51656981D01*
X42006209Y-51656975D01*
X41869290Y-51577926D01*
X41869286Y-51577924D01*
X41869284Y-51577923D01*
X41716557Y-51537000D01*
X41558443Y-51537000D01*
X41405716Y-51577923D01*
X41405709Y-51577926D01*
X41268790Y-51656975D01*
X41268782Y-51656981D01*
X41156981Y-51768782D01*
X41156975Y-51768790D01*
X41077926Y-51905709D01*
X41077923Y-51905716D01*
X41037000Y-52058443D01*
X40630351Y-52058443D01*
X40593024Y-51993790D01*
X40593018Y-51993782D01*
X40481217Y-51881981D01*
X40481209Y-51881975D01*
X40344290Y-51802926D01*
X40344286Y-51802924D01*
X40344284Y-51802923D01*
X40191557Y-51762000D01*
X40033443Y-51762000D01*
X39880716Y-51802923D01*
X39880709Y-51802926D01*
X39743790Y-51881975D01*
X39743782Y-51881981D01*
X39631981Y-51993782D01*
X39631975Y-51993790D01*
X39552926Y-52130709D01*
X39552923Y-52130716D01*
X39512000Y-52283443D01*
X35086205Y-52283443D01*
X35072077Y-52230716D01*
X35014342Y-52130715D01*
X34993024Y-52093790D01*
X34993018Y-52093782D01*
X34881217Y-51981981D01*
X34881209Y-51981975D01*
X34744290Y-51902926D01*
X34744286Y-51902924D01*
X34744284Y-51902923D01*
X34591557Y-51862000D01*
X34433443Y-51862000D01*
X34280716Y-51902923D01*
X34280709Y-51902926D01*
X34143790Y-51981975D01*
X34143782Y-51981981D01*
X34100181Y-52025583D01*
X34038858Y-52059068D01*
X33969166Y-52054084D01*
X33924819Y-52025583D01*
X33881217Y-51981981D01*
X33881209Y-51981975D01*
X33744290Y-51902926D01*
X33744286Y-51902924D01*
X33744284Y-51902923D01*
X33591557Y-51862000D01*
X33433443Y-51862000D01*
X33280716Y-51902923D01*
X33280709Y-51902926D01*
X33143790Y-51981975D01*
X33143782Y-51981981D01*
X33100181Y-52025583D01*
X33038858Y-52059068D01*
X32969166Y-52054084D01*
X32924819Y-52025583D01*
X32881217Y-51981981D01*
X32881209Y-51981975D01*
X32744290Y-51902926D01*
X32744286Y-51902924D01*
X32744284Y-51902923D01*
X32591557Y-51862000D01*
X32433443Y-51862000D01*
X32280716Y-51902923D01*
X32280709Y-51902926D01*
X32143790Y-51981975D01*
X32143782Y-51981981D01*
X32031981Y-52093782D01*
X32031975Y-52093790D01*
X31952926Y-52230709D01*
X31952923Y-52230716D01*
X31912000Y-52383443D01*
X24478403Y-52383443D01*
X24489429Y-52359798D01*
X24489505Y-52359587D01*
X24499217Y-52332907D01*
X24499217Y-52332906D01*
X24572810Y-52130709D01*
X24617867Y-52006917D01*
X24715061Y-51644185D01*
X24780271Y-51274363D01*
X24813000Y-50900264D01*
X24813000Y-50524736D01*
X24780271Y-50150637D01*
X24733157Y-49883443D01*
X26412000Y-49883443D01*
X26412000Y-50041557D01*
X26436925Y-50134576D01*
X26452923Y-50194283D01*
X26452926Y-50194290D01*
X26531975Y-50331209D01*
X26531979Y-50331214D01*
X26531980Y-50331216D01*
X26643784Y-50443020D01*
X26643786Y-50443021D01*
X26643790Y-50443024D01*
X26780709Y-50522073D01*
X26780716Y-50522077D01*
X26933443Y-50563000D01*
X26933445Y-50563000D01*
X27091555Y-50563000D01*
X27091557Y-50563000D01*
X27234375Y-50524732D01*
X46712000Y-50524732D01*
X46712000Y-50900267D01*
X46744729Y-51274365D01*
X46809938Y-51644179D01*
X46809941Y-51644192D01*
X46907130Y-52006910D01*
X47035568Y-52359793D01*
X47194271Y-52700133D01*
X47194279Y-52700148D01*
X47216133Y-52738000D01*
X47382040Y-53025358D01*
X47382044Y-53025364D01*
X47382051Y-53025375D01*
X47597434Y-53332974D01*
X47671913Y-53421734D01*
X47838818Y-53620644D01*
X48104356Y-53886182D01*
X48223968Y-53986548D01*
X48392025Y-54127565D01*
X48699624Y-54342948D01*
X48699631Y-54342952D01*
X48699642Y-54342960D01*
X48770490Y-54383864D01*
X49024851Y-54530720D01*
X49024866Y-54530728D01*
X49365206Y-54689431D01*
X49628979Y-54785436D01*
X49718083Y-54817867D01*
X49718084Y-54817867D01*
X49718089Y-54817869D01*
X49832042Y-54848402D01*
X50080815Y-54915061D01*
X50450637Y-54980271D01*
X50824734Y-55012999D01*
X50824735Y-55013000D01*
X50824736Y-55013000D01*
X51200265Y-55013000D01*
X51200265Y-55012999D01*
X51574363Y-54980271D01*
X51944185Y-54915061D01*
X52306917Y-54817867D01*
X52659798Y-54689429D01*
X53000142Y-54530724D01*
X53325358Y-54342960D01*
X53632973Y-54127566D01*
X53920644Y-53886182D01*
X54186182Y-53620644D01*
X54427566Y-53332973D01*
X54642960Y-53025358D01*
X54830724Y-52700142D01*
X54989429Y-52359798D01*
X55005125Y-52316675D01*
X55072810Y-52130709D01*
X55117867Y-52006917D01*
X55215061Y-51644185D01*
X55280271Y-51274363D01*
X55313000Y-50900264D01*
X55313000Y-50524736D01*
X55280271Y-50150637D01*
X55215061Y-49780815D01*
X55138730Y-49495943D01*
X55117869Y-49418089D01*
X54989431Y-49065206D01*
X54830728Y-48724866D01*
X54830720Y-48724851D01*
X54718967Y-48531290D01*
X54642960Y-48399642D01*
X54642952Y-48399631D01*
X54642948Y-48399624D01*
X54427565Y-48092025D01*
X54186179Y-47804353D01*
X53920646Y-47538820D01*
X53632974Y-47297434D01*
X53325375Y-47082051D01*
X53325364Y-47082044D01*
X53325358Y-47082040D01*
X53082035Y-46941557D01*
X53000148Y-46894279D01*
X53000133Y-46894271D01*
X52659793Y-46735568D01*
X52306910Y-46607130D01*
X51944192Y-46509941D01*
X51944195Y-46509941D01*
X51944185Y-46509939D01*
X51852555Y-46493782D01*
X51574365Y-46444729D01*
X51200267Y-46412000D01*
X51200264Y-46412000D01*
X50824736Y-46412000D01*
X50824732Y-46412000D01*
X50450634Y-46444729D01*
X50080820Y-46509938D01*
X50080817Y-46509938D01*
X50080815Y-46509939D01*
X50080810Y-46509940D01*
X50080807Y-46509941D01*
X49718089Y-46607130D01*
X49365206Y-46735568D01*
X49024866Y-46894271D01*
X49024851Y-46894279D01*
X48699650Y-47082035D01*
X48699624Y-47082051D01*
X48392025Y-47297434D01*
X48104353Y-47538820D01*
X47838820Y-47804353D01*
X47597434Y-48092025D01*
X47382051Y-48399624D01*
X47382035Y-48399650D01*
X47194279Y-48724851D01*
X47194271Y-48724866D01*
X47035568Y-49065206D01*
X46907130Y-49418089D01*
X46809941Y-49780807D01*
X46809938Y-49780820D01*
X46744729Y-50150634D01*
X46712000Y-50524732D01*
X27234375Y-50524732D01*
X27244284Y-50522077D01*
X27381216Y-50443020D01*
X27493020Y-50331216D01*
X27572077Y-50194284D01*
X27613000Y-50041557D01*
X27613000Y-49883443D01*
X27572077Y-49730716D01*
X27572073Y-49730709D01*
X27493024Y-49593790D01*
X27493018Y-49593782D01*
X27381217Y-49481981D01*
X27381209Y-49481975D01*
X27244290Y-49402926D01*
X27244286Y-49402924D01*
X27244284Y-49402923D01*
X27091557Y-49362000D01*
X26933443Y-49362000D01*
X26780716Y-49402923D01*
X26780709Y-49402926D01*
X26643790Y-49481975D01*
X26643782Y-49481981D01*
X26531981Y-49593782D01*
X26531975Y-49593790D01*
X26452926Y-49730709D01*
X26452923Y-49730716D01*
X26412000Y-49883443D01*
X24733157Y-49883443D01*
X24715061Y-49780815D01*
X24638730Y-49495943D01*
X24617869Y-49418089D01*
X24549739Y-49230904D01*
X24489429Y-49065202D01*
X24489427Y-49065197D01*
X24396177Y-48865220D01*
X24375530Y-48820943D01*
X38287000Y-48820943D01*
X38287000Y-48979057D01*
X38310084Y-49065205D01*
X38327923Y-49131783D01*
X38327924Y-49131786D01*
X38345946Y-49163003D01*
X38362416Y-49230904D01*
X38345946Y-49286997D01*
X38327924Y-49318213D01*
X38327923Y-49318216D01*
X38287000Y-49470943D01*
X38287000Y-49629057D01*
X38327664Y-49780815D01*
X38327923Y-49781783D01*
X38327926Y-49781790D01*
X38406975Y-49918709D01*
X38406979Y-49918714D01*
X38406980Y-49918716D01*
X38518784Y-50030520D01*
X38518786Y-50030521D01*
X38518790Y-50030524D01*
X38571650Y-50061042D01*
X38655716Y-50109577D01*
X38808443Y-50150500D01*
X38808445Y-50150500D01*
X38966555Y-50150500D01*
X38966557Y-50150500D01*
X39119284Y-50109577D01*
X39141349Y-50096837D01*
X39209247Y-50080364D01*
X39265347Y-50096836D01*
X39330716Y-50134577D01*
X39483443Y-50175500D01*
X39483445Y-50175500D01*
X39641555Y-50175500D01*
X39641557Y-50175500D01*
X39794284Y-50134577D01*
X39838002Y-50109336D01*
X39905899Y-50092864D01*
X39961996Y-50109335D01*
X40005716Y-50134577D01*
X40158443Y-50175500D01*
X40158445Y-50175500D01*
X40316555Y-50175500D01*
X40316557Y-50175500D01*
X40469284Y-50134577D01*
X40606216Y-50055520D01*
X40718020Y-49943716D01*
X40797077Y-49806784D01*
X40838000Y-49654057D01*
X40838000Y-49495943D01*
X40797077Y-49343216D01*
X40771836Y-49299497D01*
X40755364Y-49231601D01*
X40771835Y-49175503D01*
X40797077Y-49131784D01*
X40838000Y-48979057D01*
X40838000Y-48820943D01*
X40797077Y-48668216D01*
X40736331Y-48563000D01*
X40718024Y-48531290D01*
X40718018Y-48531282D01*
X40606217Y-48419481D01*
X40606209Y-48419475D01*
X40469290Y-48340426D01*
X40469286Y-48340424D01*
X40469284Y-48340423D01*
X40316557Y-48299500D01*
X40158443Y-48299500D01*
X40005716Y-48340423D01*
X40005711Y-48340425D01*
X39961998Y-48365662D01*
X39894097Y-48382133D01*
X39838002Y-48365662D01*
X39794288Y-48340425D01*
X39794286Y-48340424D01*
X39794284Y-48340423D01*
X39641557Y-48299500D01*
X39483443Y-48299500D01*
X39330716Y-48340423D01*
X39330711Y-48340425D01*
X39286998Y-48365662D01*
X39219097Y-48382133D01*
X39163002Y-48365662D01*
X39119288Y-48340425D01*
X39119286Y-48340424D01*
X39119284Y-48340423D01*
X38966557Y-48299500D01*
X38808443Y-48299500D01*
X38655716Y-48340423D01*
X38655709Y-48340426D01*
X38518790Y-48419475D01*
X38518782Y-48419481D01*
X38406981Y-48531282D01*
X38406975Y-48531290D01*
X38327926Y-48668209D01*
X38327923Y-48668216D01*
X38287000Y-48820943D01*
X24375530Y-48820943D01*
X24330728Y-48724867D01*
X24330720Y-48724851D01*
X24218967Y-48531290D01*
X24142960Y-48399642D01*
X24142952Y-48399631D01*
X24142948Y-48399624D01*
X23927570Y-48092032D01*
X23918495Y-48081217D01*
X23752544Y-47883443D01*
X24412000Y-47883443D01*
X24412000Y-48041557D01*
X24452586Y-48193024D01*
X24452923Y-48194283D01*
X24452926Y-48194290D01*
X24531975Y-48331209D01*
X24531979Y-48331214D01*
X24531980Y-48331216D01*
X24643784Y-48443020D01*
X24643786Y-48443021D01*
X24643790Y-48443024D01*
X24780709Y-48522073D01*
X24780716Y-48522077D01*
X24933443Y-48563000D01*
X24933445Y-48563000D01*
X25091555Y-48563000D01*
X25091557Y-48563000D01*
X25244284Y-48522077D01*
X25381216Y-48443020D01*
X25493020Y-48331216D01*
X25572077Y-48194284D01*
X25613000Y-48041557D01*
X25613000Y-47883443D01*
X26412000Y-47883443D01*
X26412000Y-48041557D01*
X26452586Y-48193024D01*
X26452923Y-48194283D01*
X26452926Y-48194290D01*
X26531975Y-48331209D01*
X26531979Y-48331214D01*
X26531980Y-48331216D01*
X26643784Y-48443020D01*
X26643786Y-48443021D01*
X26643790Y-48443024D01*
X26780709Y-48522073D01*
X26780716Y-48522077D01*
X26933443Y-48563000D01*
X26933445Y-48563000D01*
X27091555Y-48563000D01*
X27091557Y-48563000D01*
X27244284Y-48522077D01*
X27381216Y-48443020D01*
X27493020Y-48331216D01*
X27572077Y-48194284D01*
X27613000Y-48041557D01*
X27613000Y-47883443D01*
X30312000Y-47883443D01*
X30312000Y-48041557D01*
X30352586Y-48193024D01*
X30352923Y-48194283D01*
X30352926Y-48194290D01*
X30431975Y-48331209D01*
X30431979Y-48331214D01*
X30431980Y-48331216D01*
X30543784Y-48443020D01*
X30543786Y-48443021D01*
X30543790Y-48443024D01*
X30680709Y-48522073D01*
X30680716Y-48522077D01*
X30833443Y-48563000D01*
X30833445Y-48563000D01*
X30991555Y-48563000D01*
X30991557Y-48563000D01*
X31144284Y-48522077D01*
X31281216Y-48443020D01*
X31393020Y-48331216D01*
X31472077Y-48194284D01*
X31513000Y-48041557D01*
X31513000Y-47883443D01*
X31472077Y-47730716D01*
X31415917Y-47633443D01*
X37112000Y-47633443D01*
X37112000Y-47791557D01*
X37136622Y-47883445D01*
X37152923Y-47944283D01*
X37152926Y-47944290D01*
X37231975Y-48081209D01*
X37231979Y-48081214D01*
X37231980Y-48081216D01*
X37343784Y-48193020D01*
X37343786Y-48193021D01*
X37343790Y-48193024D01*
X37480709Y-48272073D01*
X37480716Y-48272077D01*
X37633443Y-48313000D01*
X37633445Y-48313000D01*
X37791555Y-48313000D01*
X37791557Y-48313000D01*
X37944284Y-48272077D01*
X38081216Y-48193020D01*
X38193020Y-48081216D01*
X38272077Y-47944284D01*
X38313000Y-47791557D01*
X38313000Y-47633443D01*
X38272077Y-47480716D01*
X38252249Y-47446373D01*
X38235777Y-47378475D01*
X38258629Y-47312448D01*
X38313550Y-47269258D01*
X38327534Y-47264603D01*
X38374284Y-47252077D01*
X38511216Y-47173020D01*
X38623020Y-47061216D01*
X38702077Y-46924284D01*
X38743000Y-46771557D01*
X38743000Y-46613443D01*
X38702077Y-46460716D01*
X38677829Y-46418716D01*
X38623024Y-46323790D01*
X38623018Y-46323782D01*
X38511217Y-46211981D01*
X38511209Y-46211975D01*
X38374290Y-46132926D01*
X38374286Y-46132924D01*
X38374284Y-46132923D01*
X38221557Y-46092000D01*
X38063443Y-46092000D01*
X37910716Y-46132923D01*
X37910709Y-46132926D01*
X37773790Y-46211975D01*
X37773782Y-46211981D01*
X37661981Y-46323782D01*
X37661975Y-46323790D01*
X37582926Y-46460709D01*
X37582923Y-46460716D01*
X37542000Y-46613443D01*
X37542000Y-46771557D01*
X37574883Y-46894276D01*
X37582923Y-46924283D01*
X37582924Y-46924286D01*
X37602749Y-46958624D01*
X37619222Y-47026525D01*
X37596369Y-47092551D01*
X37541448Y-47135742D01*
X37527457Y-47140398D01*
X37480720Y-47152921D01*
X37480709Y-47152926D01*
X37343790Y-47231975D01*
X37343782Y-47231981D01*
X37231981Y-47343782D01*
X37231975Y-47343790D01*
X37152926Y-47480709D01*
X37152923Y-47480716D01*
X37112000Y-47633443D01*
X31415917Y-47633443D01*
X31393020Y-47593784D01*
X31281216Y-47481980D01*
X31281214Y-47481979D01*
X31281209Y-47481975D01*
X31144290Y-47402926D01*
X31144286Y-47402924D01*
X31144284Y-47402923D01*
X30991557Y-47362000D01*
X30833443Y-47362000D01*
X30680716Y-47402923D01*
X30680709Y-47402926D01*
X30543790Y-47481975D01*
X30543782Y-47481981D01*
X30431981Y-47593782D01*
X30431975Y-47593790D01*
X30352926Y-47730709D01*
X30352923Y-47730716D01*
X30312000Y-47883443D01*
X27613000Y-47883443D01*
X27572077Y-47730716D01*
X27515917Y-47633443D01*
X27493024Y-47593790D01*
X27493021Y-47593786D01*
X27493020Y-47593784D01*
X27381216Y-47481980D01*
X27381214Y-47481979D01*
X27381209Y-47481975D01*
X27244290Y-47402926D01*
X27244286Y-47402924D01*
X27244284Y-47402923D01*
X27091557Y-47362000D01*
X26933443Y-47362000D01*
X26780716Y-47402923D01*
X26780709Y-47402926D01*
X26643790Y-47481975D01*
X26643782Y-47481981D01*
X26531981Y-47593782D01*
X26531975Y-47593790D01*
X26452926Y-47730709D01*
X26452923Y-47730716D01*
X26412000Y-47883443D01*
X25613000Y-47883443D01*
X25572077Y-47730716D01*
X25515917Y-47633443D01*
X25493024Y-47593790D01*
X25493021Y-47593786D01*
X25493020Y-47593784D01*
X25381216Y-47481980D01*
X25381214Y-47481979D01*
X25381209Y-47481975D01*
X25244290Y-47402926D01*
X25244286Y-47402924D01*
X25244284Y-47402923D01*
X25091557Y-47362000D01*
X24933443Y-47362000D01*
X24780716Y-47402923D01*
X24780709Y-47402926D01*
X24643790Y-47481975D01*
X24643782Y-47481981D01*
X24531981Y-47593782D01*
X24531975Y-47593790D01*
X24452926Y-47730709D01*
X24452923Y-47730716D01*
X24412000Y-47883443D01*
X23752544Y-47883443D01*
X23686182Y-47804356D01*
X23420644Y-47538818D01*
X23330286Y-47462999D01*
X23132974Y-47297434D01*
X22825375Y-47082051D01*
X22825364Y-47082044D01*
X22825358Y-47082040D01*
X22582035Y-46941557D01*
X22500148Y-46894279D01*
X22500124Y-46894267D01*
X22486037Y-46887698D01*
X22486036Y-46887698D01*
X22262461Y-46783443D01*
X28212000Y-46783443D01*
X28212000Y-46941557D01*
X28249643Y-47082040D01*
X28252923Y-47094283D01*
X28252926Y-47094290D01*
X28331975Y-47231209D01*
X28331979Y-47231214D01*
X28331980Y-47231216D01*
X28443784Y-47343020D01*
X28443786Y-47343021D01*
X28443790Y-47343024D01*
X28505194Y-47378475D01*
X28580716Y-47422077D01*
X28733443Y-47463000D01*
X28733445Y-47463000D01*
X28891555Y-47463000D01*
X28891557Y-47463000D01*
X29044284Y-47422077D01*
X29181216Y-47343020D01*
X29293020Y-47231216D01*
X29372077Y-47094284D01*
X29413000Y-46941557D01*
X29413000Y-46783443D01*
X29372077Y-46630716D01*
X29359870Y-46609573D01*
X29293024Y-46493790D01*
X29293018Y-46493782D01*
X29181217Y-46381981D01*
X29181209Y-46381975D01*
X29044290Y-46302926D01*
X29044286Y-46302924D01*
X29044284Y-46302923D01*
X28891557Y-46262000D01*
X28733443Y-46262000D01*
X28580716Y-46302923D01*
X28580709Y-46302926D01*
X28443790Y-46381975D01*
X28443782Y-46381981D01*
X28331981Y-46493782D01*
X28331975Y-46493790D01*
X28252926Y-46630709D01*
X28252923Y-46630716D01*
X28212000Y-46783443D01*
X22262461Y-46783443D01*
X22159793Y-46735568D01*
X21806910Y-46607130D01*
X21444192Y-46509941D01*
X21444195Y-46509941D01*
X21444185Y-46509939D01*
X21352555Y-46493782D01*
X21074365Y-46444729D01*
X20700267Y-46412000D01*
X20700264Y-46412000D01*
X20324736Y-46412000D01*
X20324732Y-46412000D01*
X19950634Y-46444729D01*
X19580820Y-46509938D01*
X19580817Y-46509938D01*
X19580815Y-46509939D01*
X19580810Y-46509940D01*
X19580807Y-46509941D01*
X19218089Y-46607130D01*
X18865206Y-46735568D01*
X18524866Y-46894271D01*
X18524851Y-46894279D01*
X18199650Y-47082035D01*
X18199624Y-47082051D01*
X17892025Y-47297434D01*
X17604353Y-47538820D01*
X17338820Y-47804353D01*
X17097434Y-48092025D01*
X16882051Y-48399624D01*
X16882035Y-48399650D01*
X16694279Y-48724851D01*
X16694271Y-48724866D01*
X16535568Y-49065206D01*
X16407130Y-49418089D01*
X16309941Y-49780807D01*
X16309938Y-49780820D01*
X16244729Y-50150634D01*
X16212000Y-50524732D01*
X14764462Y-50524732D01*
X14764358Y-50522076D01*
X14763096Y-50489943D01*
X14763000Y-50485075D01*
X14763000Y-45883443D01*
X24412000Y-45883443D01*
X24412000Y-46041557D01*
X24436482Y-46132923D01*
X24452923Y-46194283D01*
X24452926Y-46194290D01*
X24531975Y-46331209D01*
X24531979Y-46331214D01*
X24531980Y-46331216D01*
X24643784Y-46443020D01*
X24643786Y-46443021D01*
X24643790Y-46443024D01*
X24780709Y-46522073D01*
X24780716Y-46522077D01*
X24933443Y-46563000D01*
X24933445Y-46563000D01*
X25091555Y-46563000D01*
X25091557Y-46563000D01*
X25244284Y-46522077D01*
X25381216Y-46443020D01*
X25493020Y-46331216D01*
X25572077Y-46194284D01*
X25613000Y-46041557D01*
X25613000Y-45883443D01*
X26412000Y-45883443D01*
X26412000Y-46041557D01*
X26436482Y-46132923D01*
X26452923Y-46194283D01*
X26452926Y-46194290D01*
X26531975Y-46331209D01*
X26531979Y-46331214D01*
X26531980Y-46331216D01*
X26643784Y-46443020D01*
X26643786Y-46443021D01*
X26643790Y-46443024D01*
X26780709Y-46522073D01*
X26780716Y-46522077D01*
X26933443Y-46563000D01*
X26933445Y-46563000D01*
X27091555Y-46563000D01*
X27091557Y-46563000D01*
X27244284Y-46522077D01*
X27381216Y-46443020D01*
X27493020Y-46331216D01*
X27572077Y-46194284D01*
X27613000Y-46041557D01*
X27613000Y-45970943D01*
X41849500Y-45970943D01*
X41849500Y-46129057D01*
X41871720Y-46211981D01*
X41890423Y-46281783D01*
X41890426Y-46281790D01*
X41969475Y-46418709D01*
X41969479Y-46418714D01*
X41969480Y-46418716D01*
X42081284Y-46530520D01*
X42081286Y-46530521D01*
X42081290Y-46530524D01*
X42213978Y-46607130D01*
X42218216Y-46609577D01*
X42370943Y-46650500D01*
X42370945Y-46650500D01*
X42529055Y-46650500D01*
X42529057Y-46650500D01*
X42681784Y-46609577D01*
X42818716Y-46530520D01*
X42930520Y-46418716D01*
X43009577Y-46281784D01*
X43050500Y-46129057D01*
X43050500Y-45970943D01*
X43027054Y-45883443D01*
X47412000Y-45883443D01*
X47412000Y-46041557D01*
X47436482Y-46132923D01*
X47452923Y-46194283D01*
X47452926Y-46194290D01*
X47531975Y-46331209D01*
X47531979Y-46331214D01*
X47531980Y-46331216D01*
X47643784Y-46443020D01*
X47643786Y-46443021D01*
X47643790Y-46443024D01*
X47780709Y-46522073D01*
X47780716Y-46522077D01*
X47933443Y-46563000D01*
X47933445Y-46563000D01*
X48091555Y-46563000D01*
X48091557Y-46563000D01*
X48244284Y-46522077D01*
X48381216Y-46443020D01*
X48493020Y-46331216D01*
X48572077Y-46194284D01*
X48613000Y-46041557D01*
X48613000Y-45883443D01*
X48572077Y-45730716D01*
X48543537Y-45681282D01*
X48493024Y-45593790D01*
X48493018Y-45593782D01*
X48381217Y-45481981D01*
X48381209Y-45481975D01*
X48244290Y-45402926D01*
X48244286Y-45402924D01*
X48244284Y-45402923D01*
X48091557Y-45362000D01*
X47933443Y-45362000D01*
X47780716Y-45402923D01*
X47780709Y-45402926D01*
X47643790Y-45481975D01*
X47643782Y-45481981D01*
X47531981Y-45593782D01*
X47531975Y-45593790D01*
X47452926Y-45730709D01*
X47452923Y-45730716D01*
X47412000Y-45883443D01*
X43027054Y-45883443D01*
X43009577Y-45818216D01*
X43009573Y-45818209D01*
X42930524Y-45681290D01*
X42930518Y-45681282D01*
X42818717Y-45569481D01*
X42818709Y-45569475D01*
X42681790Y-45490426D01*
X42681786Y-45490424D01*
X42681784Y-45490423D01*
X42529057Y-45449500D01*
X42370943Y-45449500D01*
X42218216Y-45490423D01*
X42218209Y-45490426D01*
X42081290Y-45569475D01*
X42081282Y-45569481D01*
X41969481Y-45681282D01*
X41969475Y-45681290D01*
X41890426Y-45818209D01*
X41890424Y-45818214D01*
X41890423Y-45818216D01*
X41849500Y-45970943D01*
X27613000Y-45970943D01*
X27613000Y-45883443D01*
X27572077Y-45730716D01*
X27543537Y-45681282D01*
X27493024Y-45593790D01*
X27493018Y-45593782D01*
X27381217Y-45481981D01*
X27381209Y-45481975D01*
X27244290Y-45402926D01*
X27244286Y-45402924D01*
X27244284Y-45402923D01*
X27091557Y-45362000D01*
X26933443Y-45362000D01*
X26780716Y-45402923D01*
X26780709Y-45402926D01*
X26643790Y-45481975D01*
X26643782Y-45481981D01*
X26531981Y-45593782D01*
X26531975Y-45593790D01*
X26452926Y-45730709D01*
X26452923Y-45730716D01*
X26412000Y-45883443D01*
X25613000Y-45883443D01*
X25572077Y-45730716D01*
X25543537Y-45681282D01*
X25493024Y-45593790D01*
X25493018Y-45593782D01*
X25381217Y-45481981D01*
X25381209Y-45481975D01*
X25244290Y-45402926D01*
X25244286Y-45402924D01*
X25244284Y-45402923D01*
X25091557Y-45362000D01*
X24933443Y-45362000D01*
X24780716Y-45402923D01*
X24780709Y-45402926D01*
X24643790Y-45481975D01*
X24643782Y-45481981D01*
X24531981Y-45593782D01*
X24531975Y-45593790D01*
X24452926Y-45730709D01*
X24452923Y-45730716D01*
X24412000Y-45883443D01*
X14763000Y-45883443D01*
X14763000Y-43883443D01*
X24412000Y-43883443D01*
X24412000Y-44041557D01*
X24452789Y-44193782D01*
X24452923Y-44194283D01*
X24452926Y-44194290D01*
X24531975Y-44331209D01*
X24531979Y-44331214D01*
X24531980Y-44331216D01*
X24643784Y-44443020D01*
X24643786Y-44443021D01*
X24643790Y-44443024D01*
X24780709Y-44522073D01*
X24780716Y-44522077D01*
X24933443Y-44563000D01*
X24933445Y-44563000D01*
X25091555Y-44563000D01*
X25091557Y-44563000D01*
X25244284Y-44522077D01*
X25311201Y-44483443D01*
X31312000Y-44483443D01*
X31312000Y-44641556D01*
X31352923Y-44794283D01*
X31352926Y-44794290D01*
X31431975Y-44931209D01*
X31431979Y-44931214D01*
X31431980Y-44931216D01*
X31543784Y-45043020D01*
X31543786Y-45043021D01*
X31543790Y-45043024D01*
X31680709Y-45122073D01*
X31680716Y-45122077D01*
X31833443Y-45163000D01*
X31833445Y-45163000D01*
X31991555Y-45163000D01*
X31991557Y-45163000D01*
X32144284Y-45122077D01*
X32281216Y-45043020D01*
X32393020Y-44931216D01*
X32472077Y-44794284D01*
X32513000Y-44641557D01*
X32513000Y-44483443D01*
X32472077Y-44330716D01*
X32472073Y-44330709D01*
X32393024Y-44193790D01*
X32393018Y-44193782D01*
X32281217Y-44081981D01*
X32281209Y-44081975D01*
X32144290Y-44002926D01*
X32144286Y-44002924D01*
X32144284Y-44002923D01*
X31991557Y-43962000D01*
X31833443Y-43962000D01*
X31680716Y-44002923D01*
X31680709Y-44002926D01*
X31543790Y-44081975D01*
X31543782Y-44081981D01*
X31431981Y-44193782D01*
X31431975Y-44193790D01*
X31352926Y-44330709D01*
X31352923Y-44330716D01*
X31312000Y-44483443D01*
X25311201Y-44483443D01*
X25381216Y-44443020D01*
X25493020Y-44331216D01*
X25572077Y-44194284D01*
X25613000Y-44041557D01*
X25613000Y-43883443D01*
X47412000Y-43883443D01*
X47412000Y-44041557D01*
X47452789Y-44193782D01*
X47452923Y-44194283D01*
X47452926Y-44194290D01*
X47531975Y-44331209D01*
X47531979Y-44331214D01*
X47531980Y-44331216D01*
X47643784Y-44443020D01*
X47643786Y-44443021D01*
X47643790Y-44443024D01*
X47780709Y-44522073D01*
X47780716Y-44522077D01*
X47933443Y-44563000D01*
X47933445Y-44563000D01*
X48091555Y-44563000D01*
X48091557Y-44563000D01*
X48244284Y-44522077D01*
X48381216Y-44443020D01*
X48493020Y-44331216D01*
X48572077Y-44194284D01*
X48613000Y-44041557D01*
X48613000Y-43883443D01*
X49412000Y-43883443D01*
X49412000Y-44041557D01*
X49452789Y-44193782D01*
X49452923Y-44194283D01*
X49452926Y-44194290D01*
X49531975Y-44331209D01*
X49531979Y-44331214D01*
X49531980Y-44331216D01*
X49643784Y-44443020D01*
X49643786Y-44443021D01*
X49643790Y-44443024D01*
X49780709Y-44522073D01*
X49780716Y-44522077D01*
X49933443Y-44563000D01*
X49933445Y-44563000D01*
X50091555Y-44563000D01*
X50091557Y-44563000D01*
X50244284Y-44522077D01*
X50381216Y-44443020D01*
X50493020Y-44331216D01*
X50572077Y-44194284D01*
X50613000Y-44041557D01*
X50613000Y-43883443D01*
X50572077Y-43730716D01*
X50572073Y-43730709D01*
X50493024Y-43593790D01*
X50493018Y-43593782D01*
X50381217Y-43481981D01*
X50381209Y-43481975D01*
X50244290Y-43402926D01*
X50244286Y-43402924D01*
X50244284Y-43402923D01*
X50091557Y-43362000D01*
X49933443Y-43362000D01*
X49780716Y-43402923D01*
X49780709Y-43402926D01*
X49643790Y-43481975D01*
X49643782Y-43481981D01*
X49531981Y-43593782D01*
X49531975Y-43593790D01*
X49452926Y-43730709D01*
X49452923Y-43730716D01*
X49412000Y-43883443D01*
X48613000Y-43883443D01*
X48572077Y-43730716D01*
X48572073Y-43730709D01*
X48493024Y-43593790D01*
X48493018Y-43593782D01*
X48381217Y-43481981D01*
X48381209Y-43481975D01*
X48244290Y-43402926D01*
X48244286Y-43402924D01*
X48244284Y-43402923D01*
X48091557Y-43362000D01*
X47933443Y-43362000D01*
X47780716Y-43402923D01*
X47780709Y-43402926D01*
X47643790Y-43481975D01*
X47643782Y-43481981D01*
X47531981Y-43593782D01*
X47531975Y-43593790D01*
X47452926Y-43730709D01*
X47452923Y-43730716D01*
X47412000Y-43883443D01*
X25613000Y-43883443D01*
X25572077Y-43730716D01*
X25572073Y-43730709D01*
X25493024Y-43593790D01*
X25493018Y-43593782D01*
X25381217Y-43481981D01*
X25381209Y-43481975D01*
X25244290Y-43402926D01*
X25244286Y-43402924D01*
X25244284Y-43402923D01*
X25091557Y-43362000D01*
X24933443Y-43362000D01*
X24780716Y-43402923D01*
X24780709Y-43402926D01*
X24643790Y-43481975D01*
X24643782Y-43481981D01*
X24531981Y-43593782D01*
X24531975Y-43593790D01*
X24452926Y-43730709D01*
X24452923Y-43730716D01*
X24412000Y-43883443D01*
X14763000Y-43883443D01*
X14763000Y-42883443D01*
X16412000Y-42883443D01*
X16412000Y-43041557D01*
X16446073Y-43168717D01*
X16452923Y-43194283D01*
X16452926Y-43194290D01*
X16531975Y-43331209D01*
X16531979Y-43331214D01*
X16531980Y-43331216D01*
X16643784Y-43443020D01*
X16643786Y-43443021D01*
X16643790Y-43443024D01*
X16711265Y-43481980D01*
X16780716Y-43522077D01*
X16933443Y-43563000D01*
X16933445Y-43563000D01*
X17091555Y-43563000D01*
X17091557Y-43563000D01*
X17244284Y-43522077D01*
X17381216Y-43443020D01*
X17493020Y-43331216D01*
X17572077Y-43194284D01*
X17613000Y-43041557D01*
X17613000Y-42883443D01*
X18412000Y-42883443D01*
X18412000Y-43041557D01*
X18446073Y-43168717D01*
X18452923Y-43194283D01*
X18452926Y-43194290D01*
X18531975Y-43331209D01*
X18531979Y-43331214D01*
X18531980Y-43331216D01*
X18643784Y-43443020D01*
X18643786Y-43443021D01*
X18643790Y-43443024D01*
X18711265Y-43481980D01*
X18780716Y-43522077D01*
X18933443Y-43563000D01*
X18933445Y-43563000D01*
X19091555Y-43563000D01*
X19091557Y-43563000D01*
X19244284Y-43522077D01*
X19381216Y-43443020D01*
X19493020Y-43331216D01*
X19572077Y-43194284D01*
X19613000Y-43041557D01*
X19613000Y-42883443D01*
X20412000Y-42883443D01*
X20412000Y-43041557D01*
X20446073Y-43168717D01*
X20452923Y-43194283D01*
X20452926Y-43194290D01*
X20531975Y-43331209D01*
X20531979Y-43331214D01*
X20531980Y-43331216D01*
X20643784Y-43443020D01*
X20643786Y-43443021D01*
X20643790Y-43443024D01*
X20711265Y-43481980D01*
X20780716Y-43522077D01*
X20933443Y-43563000D01*
X20933445Y-43563000D01*
X21091555Y-43563000D01*
X21091557Y-43563000D01*
X21244284Y-43522077D01*
X21381216Y-43443020D01*
X21493020Y-43331216D01*
X21572077Y-43194284D01*
X21613000Y-43041557D01*
X21613000Y-42883443D01*
X22412000Y-42883443D01*
X22412000Y-43041557D01*
X22446073Y-43168717D01*
X22452923Y-43194283D01*
X22452926Y-43194290D01*
X22531975Y-43331209D01*
X22531979Y-43331214D01*
X22531980Y-43331216D01*
X22643784Y-43443020D01*
X22643786Y-43443021D01*
X22643790Y-43443024D01*
X22711265Y-43481980D01*
X22780716Y-43522077D01*
X22933443Y-43563000D01*
X22933445Y-43563000D01*
X23091555Y-43563000D01*
X23091557Y-43563000D01*
X23244284Y-43522077D01*
X23381216Y-43443020D01*
X23493020Y-43331216D01*
X23572077Y-43194284D01*
X23613000Y-43041557D01*
X23613000Y-42883443D01*
X23592234Y-42805943D01*
X27789500Y-42805943D01*
X27789500Y-42964057D01*
X27810266Y-43041555D01*
X27830423Y-43116783D01*
X27830426Y-43116790D01*
X27909475Y-43253709D01*
X27909479Y-43253714D01*
X27909480Y-43253716D01*
X28021284Y-43365520D01*
X28021286Y-43365521D01*
X28021290Y-43365524D01*
X28155516Y-43443018D01*
X28158216Y-43444577D01*
X28310943Y-43485500D01*
X28310945Y-43485500D01*
X28469055Y-43485500D01*
X28469057Y-43485500D01*
X28621784Y-43444577D01*
X28758716Y-43365520D01*
X28870520Y-43253716D01*
X28949577Y-43116784D01*
X28990500Y-42964057D01*
X28990500Y-42805943D01*
X28967724Y-42720943D01*
X41442000Y-42720943D01*
X41442000Y-42879057D01*
X41464776Y-42964056D01*
X41482923Y-43031783D01*
X41482926Y-43031790D01*
X41561975Y-43168709D01*
X41561979Y-43168714D01*
X41561980Y-43168716D01*
X41673784Y-43280520D01*
X41673786Y-43280521D01*
X41673790Y-43280524D01*
X41810709Y-43359573D01*
X41810716Y-43359577D01*
X41963443Y-43400500D01*
X41963445Y-43400500D01*
X42121555Y-43400500D01*
X42121557Y-43400500D01*
X42274284Y-43359577D01*
X42411216Y-43280520D01*
X42523020Y-43168716D01*
X42602077Y-43031784D01*
X42643000Y-42879057D01*
X42643000Y-42720943D01*
X42602077Y-42568216D01*
X42575439Y-42522077D01*
X42523024Y-42431290D01*
X42523018Y-42431282D01*
X42411217Y-42319481D01*
X42411209Y-42319475D01*
X42274290Y-42240426D01*
X42274286Y-42240424D01*
X42274284Y-42240423D01*
X42121557Y-42199500D01*
X41963443Y-42199500D01*
X41810716Y-42240423D01*
X41810709Y-42240426D01*
X41673790Y-42319475D01*
X41673782Y-42319481D01*
X41561981Y-42431282D01*
X41561975Y-42431290D01*
X41482926Y-42568209D01*
X41482923Y-42568216D01*
X41442000Y-42720943D01*
X28967724Y-42720943D01*
X28949577Y-42653216D01*
X28900499Y-42568209D01*
X28870524Y-42516290D01*
X28870518Y-42516282D01*
X28758717Y-42404481D01*
X28758709Y-42404475D01*
X28621790Y-42325426D01*
X28621786Y-42325424D01*
X28621784Y-42325423D01*
X28469057Y-42284500D01*
X28310943Y-42284500D01*
X28158216Y-42325423D01*
X28158209Y-42325426D01*
X28021290Y-42404475D01*
X28021282Y-42404481D01*
X27909481Y-42516282D01*
X27909475Y-42516290D01*
X27830426Y-42653209D01*
X27830424Y-42653214D01*
X27830423Y-42653216D01*
X27789500Y-42805943D01*
X23592234Y-42805943D01*
X23572077Y-42730716D01*
X23527329Y-42653209D01*
X23493024Y-42593790D01*
X23493018Y-42593782D01*
X23381217Y-42481981D01*
X23381209Y-42481975D01*
X23244290Y-42402926D01*
X23244286Y-42402924D01*
X23244284Y-42402923D01*
X23091557Y-42362000D01*
X22933443Y-42362000D01*
X22780716Y-42402923D01*
X22780709Y-42402926D01*
X22643790Y-42481975D01*
X22643782Y-42481981D01*
X22531981Y-42593782D01*
X22531975Y-42593790D01*
X22452926Y-42730709D01*
X22452923Y-42730716D01*
X22412000Y-42883443D01*
X21613000Y-42883443D01*
X21572077Y-42730716D01*
X21527329Y-42653209D01*
X21493024Y-42593790D01*
X21493018Y-42593782D01*
X21381217Y-42481981D01*
X21381209Y-42481975D01*
X21244290Y-42402926D01*
X21244286Y-42402924D01*
X21244284Y-42402923D01*
X21091557Y-42362000D01*
X20933443Y-42362000D01*
X20780716Y-42402923D01*
X20780709Y-42402926D01*
X20643790Y-42481975D01*
X20643782Y-42481981D01*
X20531981Y-42593782D01*
X20531975Y-42593790D01*
X20452926Y-42730709D01*
X20452923Y-42730716D01*
X20412000Y-42883443D01*
X19613000Y-42883443D01*
X19572077Y-42730716D01*
X19527329Y-42653209D01*
X19493024Y-42593790D01*
X19493018Y-42593782D01*
X19381217Y-42481981D01*
X19381209Y-42481975D01*
X19244290Y-42402926D01*
X19244286Y-42402924D01*
X19244284Y-42402923D01*
X19091557Y-42362000D01*
X18933443Y-42362000D01*
X18780716Y-42402923D01*
X18780709Y-42402926D01*
X18643790Y-42481975D01*
X18643782Y-42481981D01*
X18531981Y-42593782D01*
X18531975Y-42593790D01*
X18452926Y-42730709D01*
X18452923Y-42730716D01*
X18412000Y-42883443D01*
X17613000Y-42883443D01*
X17572077Y-42730716D01*
X17527329Y-42653209D01*
X17493024Y-42593790D01*
X17493018Y-42593782D01*
X17381217Y-42481981D01*
X17381209Y-42481975D01*
X17244290Y-42402926D01*
X17244286Y-42402924D01*
X17244284Y-42402923D01*
X17091557Y-42362000D01*
X16933443Y-42362000D01*
X16780716Y-42402923D01*
X16780709Y-42402926D01*
X16643790Y-42481975D01*
X16643782Y-42481981D01*
X16531981Y-42593782D01*
X16531975Y-42593790D01*
X16452926Y-42730709D01*
X16452923Y-42730716D01*
X16412000Y-42883443D01*
X14763000Y-42883443D01*
X14763000Y-41883443D01*
X47412000Y-41883443D01*
X47412000Y-42041556D01*
X47452923Y-42194283D01*
X47452926Y-42194290D01*
X47531975Y-42331209D01*
X47531979Y-42331214D01*
X47531980Y-42331216D01*
X47643784Y-42443020D01*
X47643786Y-42443021D01*
X47643790Y-42443024D01*
X47780709Y-42522073D01*
X47780716Y-42522077D01*
X47933443Y-42563000D01*
X47933445Y-42563000D01*
X48091555Y-42563000D01*
X48091557Y-42563000D01*
X48244284Y-42522077D01*
X48381216Y-42443020D01*
X48493020Y-42331216D01*
X48572077Y-42194284D01*
X48613000Y-42041557D01*
X48613000Y-41883443D01*
X49412000Y-41883443D01*
X49412000Y-42041556D01*
X49452923Y-42194283D01*
X49452926Y-42194290D01*
X49531975Y-42331209D01*
X49531979Y-42331214D01*
X49531980Y-42331216D01*
X49643784Y-42443020D01*
X49643786Y-42443021D01*
X49643790Y-42443024D01*
X49780709Y-42522073D01*
X49780716Y-42522077D01*
X49933443Y-42563000D01*
X49933445Y-42563000D01*
X50091555Y-42563000D01*
X50091557Y-42563000D01*
X50244284Y-42522077D01*
X50381216Y-42443020D01*
X50493020Y-42331216D01*
X50572077Y-42194284D01*
X50613000Y-42041557D01*
X50613000Y-41883443D01*
X50572077Y-41730716D01*
X50572073Y-41730709D01*
X50493024Y-41593790D01*
X50493018Y-41593782D01*
X50381217Y-41481981D01*
X50381209Y-41481975D01*
X50244290Y-41402926D01*
X50244286Y-41402924D01*
X50244284Y-41402923D01*
X50091557Y-41362000D01*
X49933443Y-41362000D01*
X49780716Y-41402923D01*
X49780709Y-41402926D01*
X49643790Y-41481975D01*
X49643782Y-41481981D01*
X49531981Y-41593782D01*
X49531975Y-41593790D01*
X49452926Y-41730709D01*
X49452923Y-41730716D01*
X49412000Y-41883443D01*
X48613000Y-41883443D01*
X48572077Y-41730716D01*
X48572073Y-41730709D01*
X48493024Y-41593790D01*
X48493018Y-41593782D01*
X48381217Y-41481981D01*
X48381209Y-41481975D01*
X48244290Y-41402926D01*
X48244286Y-41402924D01*
X48244284Y-41402923D01*
X48091557Y-41362000D01*
X47933443Y-41362000D01*
X47780716Y-41402923D01*
X47780709Y-41402926D01*
X47643790Y-41481975D01*
X47643782Y-41481981D01*
X47531981Y-41593782D01*
X47531975Y-41593790D01*
X47452926Y-41730709D01*
X47452923Y-41730716D01*
X47412000Y-41883443D01*
X14763000Y-41883443D01*
X14763000Y-40883443D01*
X16412000Y-40883443D01*
X16412000Y-41041556D01*
X16452923Y-41194283D01*
X16452926Y-41194290D01*
X16531975Y-41331209D01*
X16531979Y-41331214D01*
X16531980Y-41331216D01*
X16643784Y-41443020D01*
X16643786Y-41443021D01*
X16643790Y-41443024D01*
X16711265Y-41481980D01*
X16780716Y-41522077D01*
X16933443Y-41563000D01*
X16933445Y-41563000D01*
X17091555Y-41563000D01*
X17091557Y-41563000D01*
X17244284Y-41522077D01*
X17381216Y-41443020D01*
X17493020Y-41331216D01*
X17572077Y-41194284D01*
X17613000Y-41041557D01*
X17613000Y-40883443D01*
X18412000Y-40883443D01*
X18412000Y-41041556D01*
X18452923Y-41194283D01*
X18452926Y-41194290D01*
X18531975Y-41331209D01*
X18531979Y-41331214D01*
X18531980Y-41331216D01*
X18643784Y-41443020D01*
X18643786Y-41443021D01*
X18643790Y-41443024D01*
X18711265Y-41481980D01*
X18780716Y-41522077D01*
X18933443Y-41563000D01*
X18933445Y-41563000D01*
X19091555Y-41563000D01*
X19091557Y-41563000D01*
X19244284Y-41522077D01*
X19381216Y-41443020D01*
X19493020Y-41331216D01*
X19572077Y-41194284D01*
X19613000Y-41041557D01*
X19613000Y-40883443D01*
X20412000Y-40883443D01*
X20412000Y-41041556D01*
X20452923Y-41194283D01*
X20452926Y-41194290D01*
X20531975Y-41331209D01*
X20531979Y-41331214D01*
X20531980Y-41331216D01*
X20643784Y-41443020D01*
X20643786Y-41443021D01*
X20643790Y-41443024D01*
X20711265Y-41481980D01*
X20780716Y-41522077D01*
X20933443Y-41563000D01*
X20933445Y-41563000D01*
X21091555Y-41563000D01*
X21091557Y-41563000D01*
X21244284Y-41522077D01*
X21381216Y-41443020D01*
X21493020Y-41331216D01*
X21572077Y-41194284D01*
X21613000Y-41041557D01*
X21613000Y-40883443D01*
X21572077Y-40730716D01*
X21559218Y-40708443D01*
X53612000Y-40708443D01*
X53612000Y-40866556D01*
X53652923Y-41019283D01*
X53652926Y-41019290D01*
X53731975Y-41156209D01*
X53731979Y-41156214D01*
X53731980Y-41156216D01*
X53843784Y-41268020D01*
X53843786Y-41268021D01*
X53843790Y-41268024D01*
X53953245Y-41331217D01*
X53980716Y-41347077D01*
X54133443Y-41388000D01*
X54133445Y-41388000D01*
X54291555Y-41388000D01*
X54291557Y-41388000D01*
X54444284Y-41347077D01*
X54581216Y-41268020D01*
X54693020Y-41156216D01*
X54772077Y-41019284D01*
X54813000Y-40866557D01*
X54813000Y-40708443D01*
X54772077Y-40555716D01*
X54696031Y-40423999D01*
X54679559Y-40356099D01*
X54702412Y-40290072D01*
X54757334Y-40246882D01*
X54803419Y-40238000D01*
X55268731Y-40238000D01*
X55268732Y-40237999D01*
X55437874Y-40204355D01*
X55597205Y-40138358D01*
X55740599Y-40042545D01*
X55862545Y-39920599D01*
X55958358Y-39777205D01*
X56024355Y-39617874D01*
X56058000Y-39448729D01*
X56058000Y-39276271D01*
X56058000Y-39276268D01*
X56057999Y-39276266D01*
X56041692Y-39194284D01*
X56024355Y-39107126D01*
X56010349Y-39073312D01*
X55958361Y-38947801D01*
X55958354Y-38947788D01*
X55862545Y-38804401D01*
X55862542Y-38804397D01*
X55740602Y-38682457D01*
X55740598Y-38682454D01*
X55597211Y-38586645D01*
X55597198Y-38586638D01*
X55437878Y-38520646D01*
X55437866Y-38520643D01*
X55268732Y-38487000D01*
X55268729Y-38487000D01*
X54446271Y-38487000D01*
X54446268Y-38487000D01*
X54277133Y-38520643D01*
X54277121Y-38520646D01*
X54117801Y-38586638D01*
X54117788Y-38586645D01*
X53974401Y-38682454D01*
X53974397Y-38682457D01*
X53852457Y-38804397D01*
X53852454Y-38804401D01*
X53756645Y-38947788D01*
X53756638Y-38947801D01*
X53690646Y-39107121D01*
X53690643Y-39107133D01*
X53657000Y-39276266D01*
X53657000Y-39448733D01*
X53690643Y-39617866D01*
X53690646Y-39617878D01*
X53756638Y-39777198D01*
X53756645Y-39777211D01*
X53852454Y-39920598D01*
X53852457Y-39920602D01*
X53978708Y-40046853D01*
X53977022Y-40048538D01*
X54010432Y-40097543D01*
X54012332Y-40167386D01*
X53976170Y-40227170D01*
X53954449Y-40243087D01*
X53843787Y-40306977D01*
X53843782Y-40306981D01*
X53731981Y-40418782D01*
X53731975Y-40418790D01*
X53652926Y-40555709D01*
X53652923Y-40555716D01*
X53612000Y-40708443D01*
X21559218Y-40708443D01*
X21493024Y-40593790D01*
X21493018Y-40593782D01*
X21381217Y-40481981D01*
X21381209Y-40481975D01*
X21244290Y-40402926D01*
X21244286Y-40402924D01*
X21244284Y-40402923D01*
X21091557Y-40362000D01*
X20933443Y-40362000D01*
X20780716Y-40402923D01*
X20780709Y-40402926D01*
X20643790Y-40481975D01*
X20643782Y-40481981D01*
X20531981Y-40593782D01*
X20531975Y-40593790D01*
X20452926Y-40730709D01*
X20452923Y-40730716D01*
X20412000Y-40883443D01*
X19613000Y-40883443D01*
X19572077Y-40730716D01*
X19559218Y-40708443D01*
X19493024Y-40593790D01*
X19493018Y-40593782D01*
X19381217Y-40481981D01*
X19381209Y-40481975D01*
X19244290Y-40402926D01*
X19244286Y-40402924D01*
X19244284Y-40402923D01*
X19091557Y-40362000D01*
X18933443Y-40362000D01*
X18780716Y-40402923D01*
X18780709Y-40402926D01*
X18643790Y-40481975D01*
X18643782Y-40481981D01*
X18531981Y-40593782D01*
X18531975Y-40593790D01*
X18452926Y-40730709D01*
X18452923Y-40730716D01*
X18412000Y-40883443D01*
X17613000Y-40883443D01*
X17572077Y-40730716D01*
X17559218Y-40708443D01*
X17493024Y-40593790D01*
X17493018Y-40593782D01*
X17381217Y-40481981D01*
X17381209Y-40481975D01*
X17244290Y-40402926D01*
X17244286Y-40402924D01*
X17244284Y-40402923D01*
X17091557Y-40362000D01*
X16933443Y-40362000D01*
X16780716Y-40402923D01*
X16780709Y-40402926D01*
X16643790Y-40481975D01*
X16643782Y-40481981D01*
X16531981Y-40593782D01*
X16531975Y-40593790D01*
X16452926Y-40730709D01*
X16452923Y-40730716D01*
X16412000Y-40883443D01*
X14763000Y-40883443D01*
X14763000Y-39883443D01*
X47412000Y-39883443D01*
X47412000Y-40041557D01*
X47450972Y-40187000D01*
X47452923Y-40194283D01*
X47452926Y-40194290D01*
X47531975Y-40331209D01*
X47531979Y-40331214D01*
X47531980Y-40331216D01*
X47643784Y-40443020D01*
X47643786Y-40443021D01*
X47643790Y-40443024D01*
X47711265Y-40481980D01*
X47780716Y-40522077D01*
X47933443Y-40563000D01*
X47933445Y-40563000D01*
X48091555Y-40563000D01*
X48091557Y-40563000D01*
X48244284Y-40522077D01*
X48381216Y-40443020D01*
X48493020Y-40331216D01*
X48572077Y-40194284D01*
X48613000Y-40041557D01*
X48613000Y-39883443D01*
X48572077Y-39730716D01*
X48553340Y-39698262D01*
X48493024Y-39593790D01*
X48493018Y-39593782D01*
X48381217Y-39481981D01*
X48381209Y-39481975D01*
X48244290Y-39402926D01*
X48244286Y-39402924D01*
X48244284Y-39402923D01*
X48091557Y-39362000D01*
X47933443Y-39362000D01*
X47780716Y-39402923D01*
X47780709Y-39402926D01*
X47643790Y-39481975D01*
X47643782Y-39481981D01*
X47531981Y-39593782D01*
X47531975Y-39593790D01*
X47452926Y-39730709D01*
X47452923Y-39730716D01*
X47412000Y-39883443D01*
X14763000Y-39883443D01*
X14763000Y-38883443D01*
X16412000Y-38883443D01*
X16412000Y-39041557D01*
X16430741Y-39111497D01*
X16452923Y-39194283D01*
X16452926Y-39194290D01*
X16531975Y-39331209D01*
X16531979Y-39331214D01*
X16531980Y-39331216D01*
X16643784Y-39443020D01*
X16643786Y-39443021D01*
X16643790Y-39443024D01*
X16711265Y-39481980D01*
X16780716Y-39522077D01*
X16933443Y-39563000D01*
X16933445Y-39563000D01*
X17091555Y-39563000D01*
X17091557Y-39563000D01*
X17244284Y-39522077D01*
X17381216Y-39443020D01*
X17493020Y-39331216D01*
X17572077Y-39194284D01*
X17613000Y-39041557D01*
X17613000Y-38883443D01*
X18412000Y-38883443D01*
X18412000Y-39041557D01*
X18430741Y-39111497D01*
X18452923Y-39194283D01*
X18452926Y-39194290D01*
X18531975Y-39331209D01*
X18531979Y-39331214D01*
X18531980Y-39331216D01*
X18643784Y-39443020D01*
X18643786Y-39443021D01*
X18643790Y-39443024D01*
X18711265Y-39481980D01*
X18780716Y-39522077D01*
X18933443Y-39563000D01*
X18933445Y-39563000D01*
X19091555Y-39563000D01*
X19091557Y-39563000D01*
X19244284Y-39522077D01*
X19381216Y-39443020D01*
X19493020Y-39331216D01*
X19572077Y-39194284D01*
X19613000Y-39041557D01*
X19613000Y-38883443D01*
X19572077Y-38730716D01*
X19550316Y-38693024D01*
X19493024Y-38593790D01*
X19493018Y-38593782D01*
X19381217Y-38481981D01*
X19381209Y-38481975D01*
X19244290Y-38402926D01*
X19244286Y-38402924D01*
X19244284Y-38402923D01*
X19091557Y-38362000D01*
X18933443Y-38362000D01*
X18780716Y-38402923D01*
X18780709Y-38402926D01*
X18643790Y-38481975D01*
X18643782Y-38481981D01*
X18531981Y-38593782D01*
X18531975Y-38593790D01*
X18452926Y-38730709D01*
X18452923Y-38730716D01*
X18412000Y-38883443D01*
X17613000Y-38883443D01*
X17572077Y-38730716D01*
X17550316Y-38693024D01*
X17493024Y-38593790D01*
X17493018Y-38593782D01*
X17381217Y-38481981D01*
X17381209Y-38481975D01*
X17244290Y-38402926D01*
X17244286Y-38402924D01*
X17244284Y-38402923D01*
X17091557Y-38362000D01*
X16933443Y-38362000D01*
X16780716Y-38402923D01*
X16780709Y-38402926D01*
X16643790Y-38481975D01*
X16643782Y-38481981D01*
X16531981Y-38593782D01*
X16531975Y-38593790D01*
X16452926Y-38730709D01*
X16452923Y-38730716D01*
X16412000Y-38883443D01*
X14763000Y-38883443D01*
X14763000Y-37583443D01*
X20137000Y-37583443D01*
X20137000Y-37741557D01*
X20165141Y-37846578D01*
X20177923Y-37894283D01*
X20177926Y-37894290D01*
X20256975Y-38031209D01*
X20256979Y-38031214D01*
X20256980Y-38031216D01*
X20368784Y-38143020D01*
X20368786Y-38143021D01*
X20368790Y-38143024D01*
X20455387Y-38193020D01*
X20505716Y-38222077D01*
X20658443Y-38263000D01*
X20658445Y-38263000D01*
X20816555Y-38263000D01*
X20816557Y-38263000D01*
X20969284Y-38222077D01*
X21106216Y-38143020D01*
X21115793Y-38133443D01*
X25412000Y-38133443D01*
X25412000Y-38291557D01*
X25450180Y-38434045D01*
X25452923Y-38444283D01*
X25452926Y-38444290D01*
X25531975Y-38581209D01*
X25531979Y-38581214D01*
X25531980Y-38581216D01*
X25643784Y-38693020D01*
X25643786Y-38693021D01*
X25643790Y-38693024D01*
X25780709Y-38772073D01*
X25780716Y-38772077D01*
X25933443Y-38813000D01*
X25933445Y-38813000D01*
X26091555Y-38813000D01*
X26091557Y-38813000D01*
X26244284Y-38772077D01*
X26381216Y-38693020D01*
X26493020Y-38581216D01*
X26572077Y-38444284D01*
X26603477Y-38327098D01*
X30999663Y-38327098D01*
X30999663Y-38485212D01*
X31032637Y-38608271D01*
X31040586Y-38637938D01*
X31040589Y-38637945D01*
X31119638Y-38774864D01*
X31119642Y-38774869D01*
X31119643Y-38774871D01*
X31231447Y-38886675D01*
X31231449Y-38886676D01*
X31231453Y-38886679D01*
X31326506Y-38941557D01*
X31368379Y-38965732D01*
X31521106Y-39006655D01*
X31521108Y-39006655D01*
X31679218Y-39006655D01*
X31679220Y-39006655D01*
X31831947Y-38965732D01*
X31968879Y-38886675D01*
X32080683Y-38774871D01*
X32159740Y-38637939D01*
X32200663Y-38485212D01*
X32200663Y-38327098D01*
X32159740Y-38174371D01*
X32136112Y-38133445D01*
X32080687Y-38037445D01*
X32080681Y-38037437D01*
X31968880Y-37925636D01*
X31968872Y-37925630D01*
X31831953Y-37846581D01*
X31831949Y-37846579D01*
X31831947Y-37846578D01*
X31679220Y-37805655D01*
X31521106Y-37805655D01*
X31368379Y-37846578D01*
X31368372Y-37846581D01*
X31231453Y-37925630D01*
X31231445Y-37925636D01*
X31119644Y-38037437D01*
X31119638Y-38037445D01*
X31040589Y-38174364D01*
X31040586Y-38174371D01*
X30999663Y-38327098D01*
X26603477Y-38327098D01*
X26613000Y-38291557D01*
X26613000Y-38133443D01*
X26572077Y-37980716D01*
X26540277Y-37925636D01*
X26493024Y-37843790D01*
X26493018Y-37843782D01*
X26381217Y-37731981D01*
X26381209Y-37731975D01*
X26244290Y-37652926D01*
X26244286Y-37652924D01*
X26244284Y-37652923D01*
X26091557Y-37612000D01*
X25933443Y-37612000D01*
X25780716Y-37652923D01*
X25780709Y-37652926D01*
X25643790Y-37731975D01*
X25643782Y-37731981D01*
X25531981Y-37843782D01*
X25531975Y-37843790D01*
X25452926Y-37980709D01*
X25452923Y-37980716D01*
X25412000Y-38133443D01*
X21115793Y-38133443D01*
X21218020Y-38031216D01*
X21297077Y-37894284D01*
X21338000Y-37741557D01*
X21338000Y-37583443D01*
X21297077Y-37430716D01*
X21260130Y-37366721D01*
X21218024Y-37293790D01*
X21218018Y-37293782D01*
X21106217Y-37181981D01*
X21106216Y-37181980D01*
X20969284Y-37102923D01*
X20816557Y-37062000D01*
X20658443Y-37062000D01*
X20505716Y-37102923D01*
X20505709Y-37102926D01*
X20368790Y-37181975D01*
X20368782Y-37181981D01*
X20256981Y-37293782D01*
X20256975Y-37293790D01*
X20177926Y-37430709D01*
X20177923Y-37430716D01*
X20137000Y-37583443D01*
X14763000Y-37583443D01*
X14763000Y-37033443D01*
X28312000Y-37033443D01*
X28312000Y-37191557D01*
X28352789Y-37343782D01*
X28352923Y-37344283D01*
X28352926Y-37344290D01*
X28431975Y-37481209D01*
X28431979Y-37481214D01*
X28431980Y-37481216D01*
X28543784Y-37593020D01*
X28543786Y-37593021D01*
X28543790Y-37593024D01*
X28647540Y-37652923D01*
X28680716Y-37672077D01*
X28833443Y-37713000D01*
X28833445Y-37713000D01*
X28991555Y-37713000D01*
X28991557Y-37713000D01*
X29144284Y-37672077D01*
X29211201Y-37633443D01*
X38862000Y-37633443D01*
X38862000Y-37791557D01*
X38897927Y-37925636D01*
X38902923Y-37944283D01*
X38902926Y-37944290D01*
X38981975Y-38081209D01*
X38981979Y-38081214D01*
X38981980Y-38081216D01*
X39093784Y-38193020D01*
X39093786Y-38193021D01*
X39093790Y-38193024D01*
X39187414Y-38247077D01*
X39230716Y-38272077D01*
X39383443Y-38313000D01*
X39383445Y-38313000D01*
X39541554Y-38313000D01*
X39541557Y-38313000D01*
X39603046Y-38296524D01*
X39672893Y-38298187D01*
X39730756Y-38337349D01*
X39758260Y-38401577D01*
X39746674Y-38470480D01*
X39733516Y-38491781D01*
X39731978Y-38493784D01*
X39652926Y-38630709D01*
X39652923Y-38630716D01*
X39612000Y-38783443D01*
X39612000Y-38941557D01*
X39647304Y-39073311D01*
X39652923Y-39094283D01*
X39652926Y-39094290D01*
X39731975Y-39231209D01*
X39731979Y-39231214D01*
X39731980Y-39231216D01*
X39843784Y-39343020D01*
X39843786Y-39343021D01*
X39843790Y-39343024D01*
X39947540Y-39402923D01*
X39980716Y-39422077D01*
X40133443Y-39463000D01*
X40133445Y-39463000D01*
X40291555Y-39463000D01*
X40291557Y-39463000D01*
X40444284Y-39422077D01*
X40581216Y-39343020D01*
X40693020Y-39231216D01*
X40762142Y-39111492D01*
X49757000Y-39111492D01*
X49757000Y-39313507D01*
X49796407Y-39511619D01*
X49796409Y-39511627D01*
X49873712Y-39698252D01*
X49873717Y-39698262D01*
X49985941Y-39866218D01*
X50128781Y-40009058D01*
X50296737Y-40121282D01*
X50296741Y-40121284D01*
X50296744Y-40121286D01*
X50483373Y-40198591D01*
X50681492Y-40237999D01*
X50681496Y-40238000D01*
X50681497Y-40238000D01*
X51433504Y-40238000D01*
X51433505Y-40237999D01*
X51631627Y-40198591D01*
X51818256Y-40121286D01*
X51986218Y-40009058D01*
X52129058Y-39866218D01*
X52241286Y-39698256D01*
X52318591Y-39511627D01*
X52358000Y-39313503D01*
X52358000Y-39111497D01*
X52318591Y-38913373D01*
X52277015Y-38813000D01*
X52275854Y-38810197D01*
X52268385Y-38740727D01*
X52299660Y-38678248D01*
X52342957Y-38648185D01*
X52439311Y-38608275D01*
X52554042Y-38531614D01*
X52651614Y-38434042D01*
X52728275Y-38319311D01*
X52734736Y-38303714D01*
X52747840Y-38272076D01*
X52781080Y-38191828D01*
X52795475Y-38119459D01*
X52808000Y-38056495D01*
X52808000Y-37918504D01*
X52781081Y-37783177D01*
X52781080Y-37783176D01*
X52781080Y-37783172D01*
X52774198Y-37766557D01*
X52728278Y-37655695D01*
X52728271Y-37655682D01*
X52651614Y-37540958D01*
X52651611Y-37540954D01*
X52554045Y-37443388D01*
X52554041Y-37443385D01*
X52439317Y-37366728D01*
X52439304Y-37366721D01*
X52311832Y-37313921D01*
X52311822Y-37313918D01*
X52176495Y-37287000D01*
X52176493Y-37287000D01*
X52038507Y-37287000D01*
X52038505Y-37287000D01*
X51903177Y-37313918D01*
X51903167Y-37313921D01*
X51775695Y-37366721D01*
X51775682Y-37366728D01*
X51660958Y-37443385D01*
X51660954Y-37443388D01*
X51563388Y-37540954D01*
X51563385Y-37540958D01*
X51486728Y-37655682D01*
X51486721Y-37655695D01*
X51433921Y-37783167D01*
X51433918Y-37783177D01*
X51407000Y-37918504D01*
X51407000Y-38062585D01*
X51404210Y-38062585D01*
X51393442Y-38119459D01*
X51345392Y-38170183D01*
X51283041Y-38187000D01*
X50681492Y-38187000D01*
X50483380Y-38226407D01*
X50483372Y-38226409D01*
X50296747Y-38303712D01*
X50296737Y-38303717D01*
X50128781Y-38415941D01*
X49985941Y-38558781D01*
X49873717Y-38726737D01*
X49873712Y-38726747D01*
X49796409Y-38913372D01*
X49796407Y-38913380D01*
X49757000Y-39111492D01*
X40762142Y-39111492D01*
X40772077Y-39094284D01*
X40813000Y-38941557D01*
X40813000Y-38783443D01*
X40772077Y-38630716D01*
X40759120Y-38608273D01*
X40693024Y-38493790D01*
X40693018Y-38493782D01*
X40581217Y-38381981D01*
X40581209Y-38381975D01*
X40444290Y-38302926D01*
X40444286Y-38302924D01*
X40444284Y-38302923D01*
X40291557Y-38262000D01*
X40133443Y-38262000D01*
X40133441Y-38262000D01*
X40071954Y-38278475D01*
X40002104Y-38276812D01*
X39944242Y-38237648D01*
X39916739Y-38173419D01*
X39928326Y-38104517D01*
X39941493Y-38083205D01*
X39943015Y-38081220D01*
X39943020Y-38081216D01*
X39968295Y-38037439D01*
X40001047Y-37980709D01*
X40022077Y-37944284D01*
X40063000Y-37791557D01*
X40063000Y-37633443D01*
X40056301Y-37608443D01*
X48487000Y-37608443D01*
X48487000Y-37766557D01*
X48521225Y-37894284D01*
X48527923Y-37919283D01*
X48527926Y-37919290D01*
X48606975Y-38056209D01*
X48606979Y-38056214D01*
X48606980Y-38056216D01*
X48718784Y-38168020D01*
X48718786Y-38168021D01*
X48718790Y-38168024D01*
X48839384Y-38237648D01*
X48855716Y-38247077D01*
X49008443Y-38288000D01*
X49008445Y-38288000D01*
X49166555Y-38288000D01*
X49166557Y-38288000D01*
X49319284Y-38247077D01*
X49456216Y-38168020D01*
X49568020Y-38056216D01*
X49647077Y-37919284D01*
X49688000Y-37766557D01*
X49688000Y-37608443D01*
X49647077Y-37455716D01*
X49647073Y-37455709D01*
X49568024Y-37318790D01*
X49568018Y-37318782D01*
X49456217Y-37206981D01*
X49456209Y-37206975D01*
X49319290Y-37127926D01*
X49319286Y-37127924D01*
X49319284Y-37127923D01*
X49166557Y-37087000D01*
X49008443Y-37087000D01*
X48855716Y-37127923D01*
X48855709Y-37127926D01*
X48718790Y-37206975D01*
X48718782Y-37206981D01*
X48606981Y-37318782D01*
X48606975Y-37318790D01*
X48527926Y-37455709D01*
X48527923Y-37455716D01*
X48487000Y-37608443D01*
X40056301Y-37608443D01*
X40022077Y-37480716D01*
X40022073Y-37480709D01*
X39943024Y-37343790D01*
X39943018Y-37343782D01*
X39831217Y-37231981D01*
X39831209Y-37231975D01*
X39694290Y-37152926D01*
X39694286Y-37152924D01*
X39694284Y-37152923D01*
X39541557Y-37112000D01*
X39383443Y-37112000D01*
X39230716Y-37152923D01*
X39230709Y-37152926D01*
X39093790Y-37231975D01*
X39093782Y-37231981D01*
X38981981Y-37343782D01*
X38981975Y-37343790D01*
X38902926Y-37480709D01*
X38902924Y-37480714D01*
X38902923Y-37480716D01*
X38862000Y-37633443D01*
X29211201Y-37633443D01*
X29281216Y-37593020D01*
X29393020Y-37481216D01*
X29472077Y-37344284D01*
X29513000Y-37191557D01*
X29513000Y-37033443D01*
X29472077Y-36880716D01*
X29472073Y-36880709D01*
X29393024Y-36743790D01*
X29393018Y-36743782D01*
X29281217Y-36631981D01*
X29281209Y-36631975D01*
X29144290Y-36552926D01*
X29144286Y-36552924D01*
X29144284Y-36552923D01*
X28991557Y-36512000D01*
X28833443Y-36512000D01*
X28680716Y-36552923D01*
X28680709Y-36552926D01*
X28543790Y-36631975D01*
X28543782Y-36631981D01*
X28431981Y-36743782D01*
X28431975Y-36743790D01*
X28352926Y-36880709D01*
X28352923Y-36880716D01*
X28312000Y-37033443D01*
X14763000Y-37033443D01*
X14763000Y-34833443D01*
X37662000Y-34833443D01*
X37662000Y-34991557D01*
X37673573Y-35034746D01*
X37702923Y-35144283D01*
X37702926Y-35144290D01*
X37781975Y-35281209D01*
X37781979Y-35281214D01*
X37781980Y-35281216D01*
X37893784Y-35393020D01*
X37893786Y-35393021D01*
X37893790Y-35393024D01*
X38013262Y-35462000D01*
X38030716Y-35472077D01*
X38183443Y-35513000D01*
X38183445Y-35513000D01*
X38341554Y-35513000D01*
X38341557Y-35513000D01*
X38403046Y-35496524D01*
X38472893Y-35498187D01*
X38530756Y-35537349D01*
X38558260Y-35601577D01*
X38546674Y-35670480D01*
X38533516Y-35691781D01*
X38531978Y-35693784D01*
X38452926Y-35830709D01*
X38452923Y-35830716D01*
X38412000Y-35983443D01*
X38412000Y-36141556D01*
X38452923Y-36294283D01*
X38452926Y-36294290D01*
X38531975Y-36431209D01*
X38531979Y-36431214D01*
X38531980Y-36431216D01*
X38643784Y-36543020D01*
X38643786Y-36543021D01*
X38643790Y-36543024D01*
X38780709Y-36622073D01*
X38780716Y-36622077D01*
X38933443Y-36663000D01*
X38933445Y-36663000D01*
X39091555Y-36663000D01*
X39091557Y-36663000D01*
X39244284Y-36622077D01*
X39381216Y-36543020D01*
X39493020Y-36431216D01*
X39572077Y-36294284D01*
X39613000Y-36141557D01*
X39613000Y-35983443D01*
X39572077Y-35830716D01*
X39523776Y-35747055D01*
X39493024Y-35693790D01*
X39493018Y-35693782D01*
X39381217Y-35581981D01*
X39381216Y-35581980D01*
X39244284Y-35502923D01*
X39091557Y-35462000D01*
X38933443Y-35462000D01*
X38933441Y-35462000D01*
X38871954Y-35478475D01*
X38802104Y-35476812D01*
X38744242Y-35437648D01*
X38743625Y-35436208D01*
X48759235Y-35436208D01*
X48759235Y-35594322D01*
X48785888Y-35693790D01*
X48800158Y-35747048D01*
X48800161Y-35747055D01*
X48879210Y-35883974D01*
X48879214Y-35883979D01*
X48879215Y-35883981D01*
X48991019Y-35995785D01*
X48991021Y-35995786D01*
X48991025Y-35995789D01*
X49127944Y-36074838D01*
X49127951Y-36074842D01*
X49280678Y-36115765D01*
X49280680Y-36115765D01*
X49438790Y-36115765D01*
X49438792Y-36115765D01*
X49591519Y-36074842D01*
X49728451Y-35995785D01*
X49840255Y-35883981D01*
X49919312Y-35747049D01*
X49960235Y-35594322D01*
X49960235Y-35436208D01*
X49919312Y-35283481D01*
X49918000Y-35281208D01*
X49840259Y-35146555D01*
X49840253Y-35146547D01*
X49728452Y-35034746D01*
X49728444Y-35034740D01*
X49591525Y-34955691D01*
X49591521Y-34955689D01*
X49591519Y-34955688D01*
X49438792Y-34914765D01*
X49280678Y-34914765D01*
X49127951Y-34955688D01*
X49127944Y-34955691D01*
X48991025Y-35034740D01*
X48991017Y-35034746D01*
X48879216Y-35146547D01*
X48879210Y-35146555D01*
X48800161Y-35283474D01*
X48800158Y-35283481D01*
X48759235Y-35436208D01*
X38743625Y-35436208D01*
X38716739Y-35373419D01*
X38728326Y-35304517D01*
X38741493Y-35283205D01*
X38743015Y-35281220D01*
X38743020Y-35281216D01*
X38822077Y-35144284D01*
X38863000Y-34991557D01*
X38863000Y-34833443D01*
X38822077Y-34680716D01*
X38814746Y-34668018D01*
X38743024Y-34543790D01*
X38743018Y-34543782D01*
X38631217Y-34431981D01*
X38631209Y-34431975D01*
X38494290Y-34352926D01*
X38494286Y-34352924D01*
X38494284Y-34352923D01*
X38341557Y-34312000D01*
X38183443Y-34312000D01*
X38030716Y-34352923D01*
X38030709Y-34352926D01*
X37893790Y-34431975D01*
X37893782Y-34431981D01*
X37781981Y-34543782D01*
X37781975Y-34543790D01*
X37702926Y-34680709D01*
X37702923Y-34680716D01*
X37662000Y-34833443D01*
X14763000Y-34833443D01*
X14763000Y-34033443D01*
X22987000Y-34033443D01*
X22987000Y-34191556D01*
X23027923Y-34344283D01*
X23027926Y-34344290D01*
X23106975Y-34481209D01*
X23106979Y-34481214D01*
X23106980Y-34481216D01*
X23218784Y-34593020D01*
X23218786Y-34593021D01*
X23218790Y-34593024D01*
X23348689Y-34668020D01*
X23355716Y-34672077D01*
X23508443Y-34713000D01*
X23508445Y-34713000D01*
X23666555Y-34713000D01*
X23666557Y-34713000D01*
X23819284Y-34672077D01*
X23956216Y-34593020D01*
X24068020Y-34481216D01*
X24147077Y-34344284D01*
X24188000Y-34191557D01*
X24188000Y-34033443D01*
X24147077Y-33880716D01*
X24147073Y-33880709D01*
X24068024Y-33743790D01*
X24068018Y-33743782D01*
X23956217Y-33631981D01*
X23956209Y-33631975D01*
X23819290Y-33552926D01*
X23819286Y-33552924D01*
X23819284Y-33552923D01*
X23666557Y-33512000D01*
X23508443Y-33512000D01*
X23355716Y-33552923D01*
X23355709Y-33552926D01*
X23218790Y-33631975D01*
X23218782Y-33631981D01*
X23106981Y-33743782D01*
X23106975Y-33743790D01*
X23027926Y-33880709D01*
X23027923Y-33880716D01*
X22987000Y-34033443D01*
X14763000Y-34033443D01*
X14763000Y-33151571D01*
X15881999Y-33151571D01*
X15906997Y-33277238D01*
X15906999Y-33277244D01*
X15956033Y-33395624D01*
X15956038Y-33395633D01*
X16027223Y-33502168D01*
X16027226Y-33502172D01*
X16117827Y-33592773D01*
X16117831Y-33592776D01*
X16224366Y-33663961D01*
X16224372Y-33663964D01*
X16224373Y-33663965D01*
X16342756Y-33713001D01*
X16342760Y-33713001D01*
X16342761Y-33713002D01*
X16468428Y-33738000D01*
X16468431Y-33738000D01*
X16596571Y-33738000D01*
X16698666Y-33717691D01*
X16722244Y-33713001D01*
X16840627Y-33663965D01*
X16947169Y-33592776D01*
X17037776Y-33502169D01*
X17108965Y-33395627D01*
X17158001Y-33277244D01*
X17183000Y-33151569D01*
X17183000Y-33023431D01*
X17183000Y-33023428D01*
X17182999Y-33023426D01*
X17166307Y-32939507D01*
X17163111Y-32923443D01*
X26852000Y-32923443D01*
X26852000Y-33081557D01*
X26881546Y-33191822D01*
X26892923Y-33234283D01*
X26892926Y-33234290D01*
X26971975Y-33371209D01*
X26971979Y-33371214D01*
X26971980Y-33371216D01*
X27083784Y-33483020D01*
X27083786Y-33483021D01*
X27083790Y-33483024D01*
X27204866Y-33552926D01*
X27220716Y-33562077D01*
X27373443Y-33603000D01*
X27373445Y-33603000D01*
X27531555Y-33603000D01*
X27531557Y-33603000D01*
X27684284Y-33562077D01*
X27821216Y-33483020D01*
X27933020Y-33371216D01*
X28012077Y-33234284D01*
X28053000Y-33081557D01*
X28053000Y-32947000D01*
X28072685Y-32879961D01*
X28125489Y-32834206D01*
X28163737Y-32825885D01*
X28163497Y-32824061D01*
X28171548Y-32823000D01*
X28171557Y-32823000D01*
X28324284Y-32782077D01*
X28461216Y-32703020D01*
X28505793Y-32658443D01*
X28962000Y-32658443D01*
X28962000Y-32816557D01*
X28995940Y-32943221D01*
X29002923Y-32969283D01*
X29002926Y-32969290D01*
X29081975Y-33106209D01*
X29081979Y-33106214D01*
X29081980Y-33106216D01*
X29193784Y-33218020D01*
X29193786Y-33218021D01*
X29193790Y-33218024D01*
X29296364Y-33277244D01*
X29330716Y-33297077D01*
X29483443Y-33338000D01*
X29483445Y-33338000D01*
X29641555Y-33338000D01*
X29641557Y-33338000D01*
X29794284Y-33297077D01*
X29931216Y-33218020D01*
X30043020Y-33106216D01*
X30113902Y-32983443D01*
X33087000Y-32983443D01*
X33087000Y-33141557D01*
X33107490Y-33218024D01*
X33127923Y-33294283D01*
X33127926Y-33294290D01*
X33206975Y-33431209D01*
X33206979Y-33431214D01*
X33206980Y-33431216D01*
X33318784Y-33543020D01*
X33318786Y-33543021D01*
X33318790Y-33543024D01*
X33422673Y-33603000D01*
X33455716Y-33622077D01*
X33608443Y-33663000D01*
X33608445Y-33663000D01*
X33766555Y-33663000D01*
X33766557Y-33663000D01*
X33919284Y-33622077D01*
X34056216Y-33543020D01*
X34168020Y-33431216D01*
X34247077Y-33294284D01*
X34288000Y-33141557D01*
X34288000Y-32983443D01*
X34247077Y-32830716D01*
X34217436Y-32779375D01*
X34168024Y-32693790D01*
X34168018Y-32693782D01*
X34056217Y-32581981D01*
X34056209Y-32581975D01*
X33919290Y-32502926D01*
X33919286Y-32502924D01*
X33919284Y-32502923D01*
X33766557Y-32462000D01*
X33608443Y-32462000D01*
X33455716Y-32502923D01*
X33455709Y-32502926D01*
X33318790Y-32581975D01*
X33318782Y-32581981D01*
X33206981Y-32693782D01*
X33206975Y-32693790D01*
X33127926Y-32830709D01*
X33127923Y-32830716D01*
X33087000Y-32983443D01*
X30113902Y-32983443D01*
X30122077Y-32969284D01*
X30163000Y-32816557D01*
X30163000Y-32658443D01*
X30122077Y-32505716D01*
X30120466Y-32502926D01*
X30043024Y-32368790D01*
X30043018Y-32368782D01*
X29931217Y-32256981D01*
X29931209Y-32256975D01*
X29794290Y-32177926D01*
X29794286Y-32177924D01*
X29794284Y-32177923D01*
X29641557Y-32137000D01*
X29483443Y-32137000D01*
X29330716Y-32177923D01*
X29330709Y-32177926D01*
X29193790Y-32256975D01*
X29193782Y-32256981D01*
X29081981Y-32368782D01*
X29081975Y-32368790D01*
X29002926Y-32505709D01*
X29002923Y-32505716D01*
X28962000Y-32658443D01*
X28505793Y-32658443D01*
X28573020Y-32591216D01*
X28573628Y-32590162D01*
X28574696Y-32588314D01*
X28622387Y-32505709D01*
X28652077Y-32454284D01*
X28693000Y-32301557D01*
X28693000Y-32143443D01*
X28652077Y-31990716D01*
X28652073Y-31990709D01*
X28573024Y-31853790D01*
X28573018Y-31853782D01*
X28461217Y-31741981D01*
X28461212Y-31741977D01*
X28336896Y-31670204D01*
X28336895Y-31670204D01*
X28324284Y-31662923D01*
X28318943Y-31661492D01*
X28171557Y-31622000D01*
X28013443Y-31622000D01*
X27860716Y-31662923D01*
X27860709Y-31662926D01*
X27723790Y-31741975D01*
X27723782Y-31741981D01*
X27611981Y-31853782D01*
X27611975Y-31853790D01*
X27532926Y-31990709D01*
X27532923Y-31990716D01*
X27492000Y-32143443D01*
X27492000Y-32278000D01*
X27472315Y-32345039D01*
X27419511Y-32390794D01*
X27381262Y-32399114D01*
X27381503Y-32400939D01*
X27373443Y-32402000D01*
X27220716Y-32442923D01*
X27220709Y-32442926D01*
X27083790Y-32521975D01*
X27083782Y-32521981D01*
X26971981Y-32633782D01*
X26971975Y-32633790D01*
X26892926Y-32770709D01*
X26892923Y-32770716D01*
X26852000Y-32923443D01*
X17163111Y-32923443D01*
X17158002Y-32897760D01*
X17158001Y-32897758D01*
X17158001Y-32897756D01*
X17120074Y-32806192D01*
X17108966Y-32779375D01*
X17108961Y-32779366D01*
X17037776Y-32672831D01*
X17037773Y-32672827D01*
X16947172Y-32582226D01*
X16947168Y-32582223D01*
X16840633Y-32511038D01*
X16840624Y-32511033D01*
X16722244Y-32461999D01*
X16722238Y-32461997D01*
X16596571Y-32437000D01*
X16596569Y-32437000D01*
X16468431Y-32437000D01*
X16468429Y-32437000D01*
X16342761Y-32461997D01*
X16342755Y-32461999D01*
X16224375Y-32511033D01*
X16224366Y-32511038D01*
X16117831Y-32582223D01*
X16117827Y-32582226D01*
X16027226Y-32672827D01*
X16027223Y-32672831D01*
X15956038Y-32779366D01*
X15956033Y-32779375D01*
X15906999Y-32897755D01*
X15906997Y-32897761D01*
X15882000Y-33023428D01*
X15882000Y-33023431D01*
X15882000Y-33151569D01*
X15882000Y-33151571D01*
X15881999Y-33151571D01*
X14763000Y-33151571D01*
X14763000Y-31570943D01*
X40399500Y-31570943D01*
X40399500Y-31729057D01*
X40432921Y-31853784D01*
X40440423Y-31881783D01*
X40440426Y-31881790D01*
X40519475Y-32018709D01*
X40519479Y-32018714D01*
X40519480Y-32018716D01*
X40631284Y-32130520D01*
X40631286Y-32130521D01*
X40631290Y-32130524D01*
X40713389Y-32177923D01*
X40768216Y-32209577D01*
X40920943Y-32250500D01*
X40920945Y-32250500D01*
X41079055Y-32250500D01*
X41079057Y-32250500D01*
X41231784Y-32209577D01*
X41368716Y-32130520D01*
X41480520Y-32018716D01*
X41559577Y-31881784D01*
X41600500Y-31729057D01*
X41600500Y-31661492D01*
X49757000Y-31661492D01*
X49757000Y-31863507D01*
X49796407Y-32061619D01*
X49796409Y-32061627D01*
X49873712Y-32248252D01*
X49873717Y-32248262D01*
X49985941Y-32416218D01*
X50128781Y-32559058D01*
X50296737Y-32671282D01*
X50296741Y-32671284D01*
X50296744Y-32671286D01*
X50483373Y-32748591D01*
X50638091Y-32779366D01*
X50681492Y-32787999D01*
X50681496Y-32788000D01*
X50681497Y-32788000D01*
X51283041Y-32788000D01*
X51350080Y-32807685D01*
X51395835Y-32860489D01*
X51404480Y-32912415D01*
X51407000Y-32912415D01*
X51407000Y-32918507D01*
X51407000Y-33056493D01*
X51407000Y-33056495D01*
X51406999Y-33056495D01*
X51433918Y-33191822D01*
X51433921Y-33191832D01*
X51486721Y-33319304D01*
X51486728Y-33319317D01*
X51563385Y-33434041D01*
X51563388Y-33434045D01*
X51660954Y-33531611D01*
X51660958Y-33531614D01*
X51720075Y-33571115D01*
X51764880Y-33624727D01*
X51773587Y-33694052D01*
X51743433Y-33757079D01*
X51738866Y-33761898D01*
X51681978Y-33818786D01*
X51681975Y-33818790D01*
X51602926Y-33955709D01*
X51602923Y-33955716D01*
X51562000Y-34108443D01*
X51562000Y-34266557D01*
X51585143Y-34352926D01*
X51602923Y-34419283D01*
X51602926Y-34419290D01*
X51681975Y-34556209D01*
X51681979Y-34556214D01*
X51681980Y-34556216D01*
X51793784Y-34668020D01*
X51793786Y-34668021D01*
X51793790Y-34668024D01*
X51871692Y-34713000D01*
X51930716Y-34747077D01*
X52083443Y-34788000D01*
X52083445Y-34788000D01*
X52241555Y-34788000D01*
X52241557Y-34788000D01*
X52394284Y-34747077D01*
X52531216Y-34668020D01*
X52643020Y-34556216D01*
X52722077Y-34419284D01*
X52763000Y-34266557D01*
X52763000Y-34108443D01*
X52722077Y-33955716D01*
X52678772Y-33880709D01*
X52643024Y-33818790D01*
X52643018Y-33818782D01*
X52541927Y-33717691D01*
X52508442Y-33656368D01*
X52513426Y-33586676D01*
X52550950Y-33534152D01*
X52554043Y-33531613D01*
X52651611Y-33434045D01*
X52651614Y-33434042D01*
X52728275Y-33319311D01*
X52781080Y-33191828D01*
X52798109Y-33106217D01*
X52808000Y-33056495D01*
X52808000Y-32918504D01*
X52781081Y-32783177D01*
X52781080Y-32783176D01*
X52781080Y-32783172D01*
X52781078Y-32783167D01*
X52728278Y-32655695D01*
X52728271Y-32655682D01*
X52651614Y-32540958D01*
X52651611Y-32540954D01*
X52554045Y-32443388D01*
X52554041Y-32443385D01*
X52439317Y-32366728D01*
X52439304Y-32366721D01*
X52342962Y-32326816D01*
X52288558Y-32282976D01*
X52266493Y-32216682D01*
X52275851Y-32164807D01*
X52318591Y-32061627D01*
X52358000Y-31863503D01*
X52358000Y-31661497D01*
X52350144Y-31622000D01*
X52334703Y-31544370D01*
X52331102Y-31526266D01*
X53657000Y-31526266D01*
X53657000Y-31698733D01*
X53690643Y-31867866D01*
X53690646Y-31867878D01*
X53756638Y-32027198D01*
X53756645Y-32027211D01*
X53852454Y-32170598D01*
X53852457Y-32170602D01*
X53974397Y-32292542D01*
X53974401Y-32292545D01*
X54117788Y-32388354D01*
X54117801Y-32388361D01*
X54277121Y-32454353D01*
X54277126Y-32454355D01*
X54446266Y-32487999D01*
X54446269Y-32488000D01*
X54446271Y-32488000D01*
X55268731Y-32488000D01*
X55268732Y-32487999D01*
X55437874Y-32454355D01*
X55597205Y-32388358D01*
X55740599Y-32292545D01*
X55862545Y-32170599D01*
X55958358Y-32027205D01*
X56024355Y-31867874D01*
X56058000Y-31698729D01*
X56058000Y-31526271D01*
X56058000Y-31526268D01*
X56057999Y-31526266D01*
X56045489Y-31463373D01*
X56024355Y-31357126D01*
X55992943Y-31281290D01*
X55958361Y-31197801D01*
X55958354Y-31197788D01*
X55862545Y-31054401D01*
X55862542Y-31054397D01*
X55740602Y-30932457D01*
X55740598Y-30932454D01*
X55597211Y-30836645D01*
X55597198Y-30836638D01*
X55437878Y-30770646D01*
X55437866Y-30770643D01*
X55268732Y-30737000D01*
X55268729Y-30737000D01*
X54446271Y-30737000D01*
X54446268Y-30737000D01*
X54277133Y-30770643D01*
X54277121Y-30770646D01*
X54117801Y-30836638D01*
X54117788Y-30836645D01*
X53974401Y-30932454D01*
X53974397Y-30932457D01*
X53852457Y-31054397D01*
X53852454Y-31054401D01*
X53756645Y-31197788D01*
X53756638Y-31197801D01*
X53690646Y-31357121D01*
X53690643Y-31357133D01*
X53657000Y-31526266D01*
X52331102Y-31526266D01*
X52320322Y-31472076D01*
X52318591Y-31463373D01*
X52241286Y-31276744D01*
X52241284Y-31276741D01*
X52241282Y-31276737D01*
X52129058Y-31108781D01*
X51986218Y-30965941D01*
X51818262Y-30853717D01*
X51818252Y-30853712D01*
X51631627Y-30776409D01*
X51631619Y-30776407D01*
X51433507Y-30737000D01*
X51433503Y-30737000D01*
X50681497Y-30737000D01*
X50681492Y-30737000D01*
X50483380Y-30776407D01*
X50483372Y-30776409D01*
X50296747Y-30853712D01*
X50296737Y-30853717D01*
X50128781Y-30965941D01*
X49985941Y-31108781D01*
X49873717Y-31276737D01*
X49873712Y-31276747D01*
X49796409Y-31463372D01*
X49796407Y-31463380D01*
X49757000Y-31661492D01*
X41600500Y-31661492D01*
X41600500Y-31570943D01*
X41559577Y-31418216D01*
X41524304Y-31357121D01*
X41480524Y-31281290D01*
X41480518Y-31281282D01*
X41368717Y-31169481D01*
X41368709Y-31169475D01*
X41231790Y-31090426D01*
X41231786Y-31090424D01*
X41231784Y-31090423D01*
X41079057Y-31049500D01*
X40920943Y-31049500D01*
X40768216Y-31090423D01*
X40768209Y-31090426D01*
X40631290Y-31169475D01*
X40631282Y-31169481D01*
X40519481Y-31281282D01*
X40519475Y-31281290D01*
X40440426Y-31418209D01*
X40440423Y-31418216D01*
X40399500Y-31570943D01*
X14763000Y-31570943D01*
X14763000Y-30151571D01*
X15881999Y-30151571D01*
X15906997Y-30277238D01*
X15906999Y-30277244D01*
X15956033Y-30395624D01*
X15956038Y-30395633D01*
X16027223Y-30502168D01*
X16027226Y-30502172D01*
X16117827Y-30592773D01*
X16117831Y-30592776D01*
X16224366Y-30663961D01*
X16224375Y-30663966D01*
X16234172Y-30668024D01*
X16342756Y-30713001D01*
X16342760Y-30713001D01*
X16342761Y-30713002D01*
X16468428Y-30738000D01*
X16468431Y-30738000D01*
X16596571Y-30738000D01*
X16681115Y-30721182D01*
X16722244Y-30713001D01*
X16840627Y-30663965D01*
X16947169Y-30592776D01*
X17037776Y-30502169D01*
X17108965Y-30395627D01*
X17158001Y-30277244D01*
X17171687Y-30208442D01*
X22012000Y-30208442D01*
X22012000Y-30366556D01*
X22048338Y-30502169D01*
X22052923Y-30519282D01*
X22052926Y-30519289D01*
X22131975Y-30656208D01*
X22131979Y-30656213D01*
X22131980Y-30656215D01*
X22243784Y-30768019D01*
X22243786Y-30768020D01*
X22243790Y-30768023D01*
X22362649Y-30836645D01*
X22380716Y-30847076D01*
X22533443Y-30887999D01*
X22533445Y-30887999D01*
X22691555Y-30887999D01*
X22691557Y-30887999D01*
X22844284Y-30847076D01*
X22981216Y-30768019D01*
X23093020Y-30656215D01*
X23172077Y-30519283D01*
X23198427Y-30420943D01*
X30999500Y-30420943D01*
X30999500Y-30579057D01*
X31035391Y-30713002D01*
X31040423Y-30731783D01*
X31040426Y-30731790D01*
X31119475Y-30868709D01*
X31119479Y-30868714D01*
X31119480Y-30868716D01*
X31231284Y-30980520D01*
X31231286Y-30980521D01*
X31231290Y-30980524D01*
X31350762Y-31049500D01*
X31368216Y-31059577D01*
X31520943Y-31100500D01*
X31520945Y-31100500D01*
X31679055Y-31100500D01*
X31679057Y-31100500D01*
X31831784Y-31059577D01*
X31968716Y-30980520D01*
X32080520Y-30868716D01*
X32159577Y-30731784D01*
X32200500Y-30579057D01*
X32200500Y-30420943D01*
X32159577Y-30268216D01*
X32092232Y-30151570D01*
X32080522Y-30131287D01*
X32080518Y-30131282D01*
X32057679Y-30108443D01*
X34542000Y-30108443D01*
X34542000Y-30266557D01*
X34576584Y-30395624D01*
X34582923Y-30419283D01*
X34582926Y-30419290D01*
X34661975Y-30556209D01*
X34661979Y-30556214D01*
X34661980Y-30556216D01*
X34773784Y-30668020D01*
X34773786Y-30668021D01*
X34773790Y-30668024D01*
X34884238Y-30731790D01*
X34910716Y-30747077D01*
X35063443Y-30788000D01*
X35063445Y-30788000D01*
X35221555Y-30788000D01*
X35221557Y-30788000D01*
X35374284Y-30747077D01*
X35511216Y-30668020D01*
X35623020Y-30556216D01*
X35702077Y-30419284D01*
X35725078Y-30333443D01*
X37812000Y-30333443D01*
X37812000Y-30491557D01*
X37839122Y-30592776D01*
X37852923Y-30644283D01*
X37852926Y-30644290D01*
X37931975Y-30781209D01*
X37931979Y-30781214D01*
X37931980Y-30781216D01*
X38043784Y-30893020D01*
X38043786Y-30893021D01*
X38043790Y-30893024D01*
X38170088Y-30965941D01*
X38180716Y-30972077D01*
X38333443Y-31013000D01*
X38333445Y-31013000D01*
X38491555Y-31013000D01*
X38491557Y-31013000D01*
X38644284Y-30972077D01*
X38781216Y-30893020D01*
X38840793Y-30833443D01*
X44099500Y-30833443D01*
X44099500Y-30991557D01*
X44130911Y-31108782D01*
X44140423Y-31144283D01*
X44140426Y-31144290D01*
X44219475Y-31281209D01*
X44219479Y-31281214D01*
X44219480Y-31281216D01*
X44331284Y-31393020D01*
X44331286Y-31393021D01*
X44331290Y-31393024D01*
X44453138Y-31463372D01*
X44468216Y-31472077D01*
X44620943Y-31513000D01*
X44620945Y-31513000D01*
X44779055Y-31513000D01*
X44779057Y-31513000D01*
X44931784Y-31472077D01*
X45068716Y-31393020D01*
X45180520Y-31281216D01*
X45259577Y-31144284D01*
X45300500Y-30991557D01*
X45300500Y-30833443D01*
X45259577Y-30680716D01*
X45252246Y-30668018D01*
X45180524Y-30543790D01*
X45180518Y-30543782D01*
X45068717Y-30431981D01*
X45068709Y-30431975D01*
X44931790Y-30352926D01*
X44931786Y-30352924D01*
X44931784Y-30352923D01*
X44779057Y-30312000D01*
X44620943Y-30312000D01*
X44468216Y-30352923D01*
X44468209Y-30352926D01*
X44331290Y-30431975D01*
X44331282Y-30431981D01*
X44219481Y-30543782D01*
X44219475Y-30543790D01*
X44140426Y-30680709D01*
X44140423Y-30680716D01*
X44099500Y-30833443D01*
X38840793Y-30833443D01*
X38893020Y-30781216D01*
X38900637Y-30768023D01*
X38903355Y-30763316D01*
X38932403Y-30713002D01*
X38972077Y-30644284D01*
X39013000Y-30491557D01*
X39013000Y-30333443D01*
X38972077Y-30180716D01*
X38943541Y-30131290D01*
X38893024Y-30043790D01*
X38893018Y-30043782D01*
X38781217Y-29931981D01*
X38781209Y-29931975D01*
X38644290Y-29852926D01*
X38644286Y-29852924D01*
X38644284Y-29852923D01*
X38491557Y-29812000D01*
X38333443Y-29812000D01*
X38180716Y-29852923D01*
X38180709Y-29852926D01*
X38043790Y-29931975D01*
X38043782Y-29931981D01*
X37931981Y-30043782D01*
X37931975Y-30043790D01*
X37852926Y-30180709D01*
X37852923Y-30180716D01*
X37812000Y-30333443D01*
X35725078Y-30333443D01*
X35743000Y-30266557D01*
X35743000Y-30108443D01*
X35732369Y-30068767D01*
X35734032Y-29998920D01*
X35773194Y-29941057D01*
X35835957Y-29913737D01*
X35841548Y-29913000D01*
X35841557Y-29913000D01*
X35994284Y-29872077D01*
X36131216Y-29793020D01*
X36243020Y-29681216D01*
X36322077Y-29544284D01*
X36363000Y-29391557D01*
X36363000Y-29233443D01*
X36322077Y-29080716D01*
X36300316Y-29043024D01*
X36243024Y-28943790D01*
X36243018Y-28943782D01*
X36204580Y-28905344D01*
X45937500Y-28905344D01*
X45943901Y-28964872D01*
X45943903Y-28964879D01*
X45994145Y-29099586D01*
X45994149Y-29099593D01*
X46080309Y-29214687D01*
X46080312Y-29214690D01*
X46195406Y-29300850D01*
X46195413Y-29300854D01*
X46330120Y-29351096D01*
X46330127Y-29351098D01*
X46389655Y-29357499D01*
X46389672Y-29357500D01*
X46687500Y-29357500D01*
X46687500Y-28607500D01*
X45937500Y-28607500D01*
X45937500Y-28905344D01*
X36204580Y-28905344D01*
X36131217Y-28831981D01*
X36131209Y-28831975D01*
X35994290Y-28752926D01*
X35994286Y-28752924D01*
X35994284Y-28752923D01*
X35841557Y-28712000D01*
X35683443Y-28712000D01*
X35530716Y-28752923D01*
X35530709Y-28752926D01*
X35393790Y-28831975D01*
X35393782Y-28831981D01*
X35281981Y-28943782D01*
X35281975Y-28943790D01*
X35202926Y-29080709D01*
X35202923Y-29080716D01*
X35162000Y-29233443D01*
X35162000Y-29391558D01*
X35172630Y-29431231D01*
X35170967Y-29501081D01*
X35131803Y-29558943D01*
X35069052Y-29586261D01*
X35063446Y-29586999D01*
X34910716Y-29627923D01*
X34910709Y-29627926D01*
X34773790Y-29706975D01*
X34773782Y-29706981D01*
X34661981Y-29818782D01*
X34661975Y-29818790D01*
X34582926Y-29955709D01*
X34582923Y-29955716D01*
X34542000Y-30108443D01*
X32057679Y-30108443D01*
X31968717Y-30019481D01*
X31968709Y-30019475D01*
X31831790Y-29940426D01*
X31831786Y-29940424D01*
X31831784Y-29940423D01*
X31679057Y-29899500D01*
X31520943Y-29899500D01*
X31368216Y-29940423D01*
X31368209Y-29940426D01*
X31231290Y-30019475D01*
X31231282Y-30019481D01*
X31119481Y-30131282D01*
X31119475Y-30131290D01*
X31040426Y-30268209D01*
X31040423Y-30268216D01*
X30999500Y-30420943D01*
X23198427Y-30420943D01*
X23213000Y-30366556D01*
X23213000Y-30208442D01*
X23172077Y-30055715D01*
X23153436Y-30023428D01*
X23093024Y-29918789D01*
X23093018Y-29918781D01*
X22981217Y-29806980D01*
X22981209Y-29806974D01*
X22844290Y-29727925D01*
X22844286Y-29727923D01*
X22844284Y-29727922D01*
X22691557Y-29686999D01*
X22533443Y-29686999D01*
X22380716Y-29727922D01*
X22380709Y-29727925D01*
X22243790Y-29806974D01*
X22243782Y-29806980D01*
X22131981Y-29918781D01*
X22131975Y-29918789D01*
X22052926Y-30055708D01*
X22052923Y-30055715D01*
X22012000Y-30208442D01*
X17171687Y-30208442D01*
X17183000Y-30151569D01*
X17183000Y-30023431D01*
X17182999Y-30023428D01*
X17169530Y-29955716D01*
X17165920Y-29937567D01*
X17172146Y-29867978D01*
X17215009Y-29812800D01*
X17240089Y-29798814D01*
X17244273Y-29797079D01*
X17244284Y-29797077D01*
X17381216Y-29718020D01*
X17493020Y-29606216D01*
X17572077Y-29469284D01*
X17613000Y-29316557D01*
X17613000Y-29158443D01*
X17592904Y-29083443D01*
X25362000Y-29083443D01*
X25362000Y-29241557D01*
X25402193Y-29391557D01*
X25402923Y-29394283D01*
X25402926Y-29394290D01*
X25481975Y-29531209D01*
X25481979Y-29531214D01*
X25481980Y-29531216D01*
X25593784Y-29643020D01*
X25593786Y-29643021D01*
X25593790Y-29643024D01*
X25723689Y-29718020D01*
X25730716Y-29722077D01*
X25883443Y-29763000D01*
X25883445Y-29763000D01*
X26041555Y-29763000D01*
X26041557Y-29763000D01*
X26194284Y-29722077D01*
X26331216Y-29643020D01*
X26443020Y-29531216D01*
X26522077Y-29394284D01*
X26563000Y-29241557D01*
X26563000Y-29083443D01*
X26522077Y-28930716D01*
X26509409Y-28908775D01*
X26494784Y-28883443D01*
X27412000Y-28883443D01*
X27412000Y-29041557D01*
X27444541Y-29163000D01*
X27452923Y-29194283D01*
X27452926Y-29194290D01*
X27531975Y-29331209D01*
X27531979Y-29331214D01*
X27531980Y-29331216D01*
X27643784Y-29443020D01*
X27643786Y-29443021D01*
X27643790Y-29443024D01*
X27761596Y-29511038D01*
X27780716Y-29522077D01*
X27933443Y-29563000D01*
X27933445Y-29563000D01*
X28091555Y-29563000D01*
X28091557Y-29563000D01*
X28244284Y-29522077D01*
X28381216Y-29443020D01*
X28493020Y-29331216D01*
X28572077Y-29194284D01*
X28613000Y-29041557D01*
X28613000Y-28883443D01*
X28572077Y-28730716D01*
X28572073Y-28730709D01*
X28493024Y-28593790D01*
X28493018Y-28593782D01*
X28382679Y-28483443D01*
X29611000Y-28483443D01*
X29611000Y-28641557D01*
X29651789Y-28793782D01*
X29651923Y-28794283D01*
X29651926Y-28794290D01*
X29730975Y-28931209D01*
X29730979Y-28931214D01*
X29730980Y-28931216D01*
X29842784Y-29043020D01*
X29842786Y-29043021D01*
X29842790Y-29043024D01*
X29940760Y-29099586D01*
X29979716Y-29122077D01*
X30132443Y-29163000D01*
X30132445Y-29163000D01*
X30290555Y-29163000D01*
X30290557Y-29163000D01*
X30443284Y-29122077D01*
X30466899Y-29108443D01*
X33187000Y-29108443D01*
X33187000Y-29266557D01*
X33221225Y-29394284D01*
X33227923Y-29419283D01*
X33227926Y-29419290D01*
X33306975Y-29556209D01*
X33306979Y-29556214D01*
X33306980Y-29556216D01*
X33418784Y-29668020D01*
X33418786Y-29668021D01*
X33418790Y-29668024D01*
X33512414Y-29722077D01*
X33555716Y-29747077D01*
X33708443Y-29788000D01*
X33708445Y-29788000D01*
X33866555Y-29788000D01*
X33866557Y-29788000D01*
X34019284Y-29747077D01*
X34156216Y-29668020D01*
X34268020Y-29556216D01*
X34347077Y-29419284D01*
X34388000Y-29266557D01*
X34388000Y-29108443D01*
X34347077Y-28955716D01*
X34332928Y-28931209D01*
X34268024Y-28818790D01*
X34268018Y-28818782D01*
X34156217Y-28706981D01*
X34156216Y-28706980D01*
X34019284Y-28627923D01*
X33866557Y-28587000D01*
X33708443Y-28587000D01*
X33555716Y-28627923D01*
X33555709Y-28627926D01*
X33418790Y-28706975D01*
X33418782Y-28706981D01*
X33306981Y-28818782D01*
X33306975Y-28818790D01*
X33227926Y-28955709D01*
X33227923Y-28955716D01*
X33187000Y-29108443D01*
X30466899Y-29108443D01*
X30580216Y-29043020D01*
X30692020Y-28931216D01*
X30771077Y-28794284D01*
X30812000Y-28641557D01*
X30812000Y-28483443D01*
X30771077Y-28330716D01*
X30749316Y-28293024D01*
X30692024Y-28193790D01*
X30692018Y-28193782D01*
X30580217Y-28081981D01*
X30580209Y-28081975D01*
X30443290Y-28002926D01*
X30443286Y-28002924D01*
X30443284Y-28002923D01*
X30290557Y-27962000D01*
X30132443Y-27962000D01*
X29979716Y-28002923D01*
X29979709Y-28002926D01*
X29842790Y-28081975D01*
X29842782Y-28081981D01*
X29730981Y-28193782D01*
X29730975Y-28193790D01*
X29651926Y-28330709D01*
X29651923Y-28330716D01*
X29611000Y-28483443D01*
X28382679Y-28483443D01*
X28381217Y-28481981D01*
X28381209Y-28481975D01*
X28244290Y-28402926D01*
X28244286Y-28402924D01*
X28244284Y-28402923D01*
X28091557Y-28362000D01*
X27933443Y-28362000D01*
X27780716Y-28402923D01*
X27780709Y-28402926D01*
X27643790Y-28481975D01*
X27643782Y-28481981D01*
X27531981Y-28593782D01*
X27531975Y-28593790D01*
X27452926Y-28730709D01*
X27452923Y-28730716D01*
X27412000Y-28883443D01*
X26494784Y-28883443D01*
X26443022Y-28793787D01*
X26443018Y-28793782D01*
X26331217Y-28681981D01*
X26331209Y-28681975D01*
X26194290Y-28602926D01*
X26194286Y-28602924D01*
X26194284Y-28602923D01*
X26041557Y-28562000D01*
X25883443Y-28562000D01*
X25730716Y-28602923D01*
X25730709Y-28602926D01*
X25593790Y-28681975D01*
X25593782Y-28681981D01*
X25481981Y-28793782D01*
X25481975Y-28793790D01*
X25402926Y-28930709D01*
X25402926Y-28930710D01*
X25402923Y-28930716D01*
X25362000Y-29083443D01*
X17592904Y-29083443D01*
X17572077Y-29005716D01*
X17543206Y-28955709D01*
X17493024Y-28868790D01*
X17493018Y-28868782D01*
X17381217Y-28756981D01*
X17381209Y-28756975D01*
X17244290Y-28677926D01*
X17244286Y-28677924D01*
X17244284Y-28677923D01*
X17091557Y-28637000D01*
X16933443Y-28637000D01*
X16780716Y-28677923D01*
X16780709Y-28677926D01*
X16643790Y-28756975D01*
X16643782Y-28756981D01*
X16531981Y-28868782D01*
X16531975Y-28868790D01*
X16452926Y-29005709D01*
X16452923Y-29005716D01*
X16412000Y-29158443D01*
X16412000Y-29316561D01*
X16412016Y-29316618D01*
X16412014Y-29316667D01*
X16413061Y-29324613D01*
X16411821Y-29324776D01*
X16410350Y-29386468D01*
X16371185Y-29444329D01*
X16339693Y-29463267D01*
X16224376Y-29511033D01*
X16224366Y-29511038D01*
X16117831Y-29582223D01*
X16117827Y-29582226D01*
X16027226Y-29672827D01*
X16027223Y-29672831D01*
X15956038Y-29779366D01*
X15956033Y-29779375D01*
X15906999Y-29897755D01*
X15906997Y-29897761D01*
X15882000Y-30023428D01*
X15882000Y-30023429D01*
X15882000Y-30023431D01*
X15882000Y-30151569D01*
X15882000Y-30151571D01*
X15881999Y-30151571D01*
X14763000Y-30151571D01*
X14763000Y-27733443D01*
X35162000Y-27733443D01*
X35162000Y-27891557D01*
X35199766Y-28032500D01*
X35202923Y-28044283D01*
X35202926Y-28044290D01*
X35281975Y-28181209D01*
X35281979Y-28181214D01*
X35281980Y-28181216D01*
X35393784Y-28293020D01*
X35393786Y-28293021D01*
X35393790Y-28293024D01*
X35513262Y-28362000D01*
X35530716Y-28372077D01*
X35683443Y-28413000D01*
X35683445Y-28413000D01*
X35841555Y-28413000D01*
X35841557Y-28413000D01*
X35994284Y-28372077D01*
X36131216Y-28293020D01*
X36243020Y-28181216D01*
X36322077Y-28044284D01*
X36363000Y-27891557D01*
X36363000Y-27733443D01*
X36322077Y-27580716D01*
X36256242Y-27466685D01*
X36243024Y-27443790D01*
X36243018Y-27443782D01*
X36131217Y-27331981D01*
X36131209Y-27331975D01*
X36003846Y-27258443D01*
X38412000Y-27258443D01*
X38412000Y-27416557D01*
X38425429Y-27466672D01*
X38452923Y-27569283D01*
X38452926Y-27569290D01*
X38531975Y-27706209D01*
X38531979Y-27706214D01*
X38531980Y-27706216D01*
X38643784Y-27818020D01*
X38643786Y-27818021D01*
X38643790Y-27818024D01*
X38771153Y-27891556D01*
X38780716Y-27897077D01*
X38933443Y-27938000D01*
X38933445Y-27938000D01*
X39091555Y-27938000D01*
X39091557Y-27938000D01*
X39244284Y-27897077D01*
X39381216Y-27818020D01*
X39493020Y-27706216D01*
X39572077Y-27569284D01*
X39613000Y-27416557D01*
X39613000Y-27258443D01*
X39572077Y-27105716D01*
X39504694Y-26989004D01*
X45937500Y-26989004D01*
X45937500Y-27185995D01*
X45975926Y-27379181D01*
X45975929Y-27379190D01*
X46018388Y-27481695D01*
X46025857Y-27551164D01*
X46003096Y-27603454D01*
X45994150Y-27615404D01*
X45994145Y-27615413D01*
X45943903Y-27750120D01*
X45943901Y-27750127D01*
X45937500Y-27809655D01*
X45937500Y-28107500D01*
X46727882Y-28107500D01*
X46677436Y-28157946D01*
X46634649Y-28232055D01*
X46612500Y-28314713D01*
X46612500Y-28400287D01*
X46634649Y-28482945D01*
X46677436Y-28557054D01*
X46737946Y-28617564D01*
X46812055Y-28660351D01*
X46894713Y-28682500D01*
X46980287Y-28682500D01*
X47062945Y-28660351D01*
X47137054Y-28617564D01*
X47187500Y-28567118D01*
X47187500Y-29357500D01*
X47485328Y-29357500D01*
X47485344Y-29357499D01*
X47544872Y-29351098D01*
X47544879Y-29351096D01*
X47679586Y-29300854D01*
X47679593Y-29300850D01*
X47794686Y-29214691D01*
X47829375Y-29168353D01*
X47885309Y-29126482D01*
X47955000Y-29121498D01*
X47968132Y-29125610D01*
X47968176Y-29125469D01*
X47973992Y-29127232D01*
X47974003Y-29127237D01*
X48128653Y-29157999D01*
X48128656Y-29158000D01*
X48128658Y-29158000D01*
X48286344Y-29158000D01*
X48286345Y-29157999D01*
X48440997Y-29127237D01*
X48586679Y-29066894D01*
X48717789Y-28979289D01*
X48732206Y-28964872D01*
X48754819Y-28942260D01*
X48816142Y-28908775D01*
X48885834Y-28913759D01*
X48930181Y-28942260D01*
X48967207Y-28979286D01*
X48967211Y-28979289D01*
X49098314Y-29066890D01*
X49098327Y-29066897D01*
X49240075Y-29125610D01*
X49244003Y-29127237D01*
X49398653Y-29157999D01*
X49398656Y-29158000D01*
X49398658Y-29158000D01*
X49556344Y-29158000D01*
X49556345Y-29157999D01*
X49710997Y-29127237D01*
X49856679Y-29066894D01*
X49987789Y-28979289D01*
X50002206Y-28964872D01*
X50024819Y-28942260D01*
X50086142Y-28908775D01*
X50155834Y-28913759D01*
X50200181Y-28942260D01*
X50237207Y-28979286D01*
X50237211Y-28979289D01*
X50368314Y-29066890D01*
X50368327Y-29066897D01*
X50510075Y-29125610D01*
X50514003Y-29127237D01*
X50668653Y-29157999D01*
X50668656Y-29158000D01*
X50668658Y-29158000D01*
X50826344Y-29158000D01*
X50826345Y-29157999D01*
X50980997Y-29127237D01*
X51126679Y-29066894D01*
X51257789Y-28979289D01*
X51272206Y-28964872D01*
X51294819Y-28942260D01*
X51356142Y-28908775D01*
X51425834Y-28913759D01*
X51470181Y-28942260D01*
X51507207Y-28979286D01*
X51507211Y-28979289D01*
X51638314Y-29066890D01*
X51638327Y-29066897D01*
X51780075Y-29125610D01*
X51784003Y-29127237D01*
X51938653Y-29157999D01*
X51938656Y-29158000D01*
X51938658Y-29158000D01*
X52096344Y-29158000D01*
X52096345Y-29157999D01*
X52250997Y-29127237D01*
X52396679Y-29066894D01*
X52527789Y-28979289D01*
X52639289Y-28867789D01*
X52726894Y-28736679D01*
X52787237Y-28590997D01*
X52818000Y-28436342D01*
X52818000Y-28278658D01*
X52818000Y-28278655D01*
X52817999Y-28278653D01*
X52808620Y-28231500D01*
X52787237Y-28124003D01*
X52737086Y-28002926D01*
X52726897Y-27978327D01*
X52726890Y-27978314D01*
X52639289Y-27847211D01*
X52639286Y-27847207D01*
X52602260Y-27810181D01*
X52568775Y-27748858D01*
X52573759Y-27679166D01*
X52602260Y-27634819D01*
X52639286Y-27597792D01*
X52639289Y-27597789D01*
X52726894Y-27466679D01*
X52787237Y-27320997D01*
X52818000Y-27166342D01*
X52818000Y-27008658D01*
X52818000Y-27008655D01*
X52817999Y-27008653D01*
X52787237Y-26854003D01*
X52755724Y-26777923D01*
X52726897Y-26708327D01*
X52726890Y-26708314D01*
X52639289Y-26577211D01*
X52639286Y-26577207D01*
X52527792Y-26465713D01*
X52527788Y-26465710D01*
X52396685Y-26378109D01*
X52396672Y-26378102D01*
X52251001Y-26317764D01*
X52250989Y-26317761D01*
X52096345Y-26287000D01*
X52096342Y-26287000D01*
X51938658Y-26287000D01*
X51938655Y-26287000D01*
X51784010Y-26317761D01*
X51783998Y-26317764D01*
X51638327Y-26378102D01*
X51638314Y-26378109D01*
X51507211Y-26465710D01*
X51507207Y-26465713D01*
X51470181Y-26502740D01*
X51408858Y-26536225D01*
X51339166Y-26531241D01*
X51294819Y-26502740D01*
X51257792Y-26465713D01*
X51257788Y-26465710D01*
X51126685Y-26378109D01*
X51126672Y-26378102D01*
X50981001Y-26317764D01*
X50980989Y-26317761D01*
X50826345Y-26287000D01*
X50826342Y-26287000D01*
X50668658Y-26287000D01*
X50668655Y-26287000D01*
X50514010Y-26317761D01*
X50513998Y-26317764D01*
X50368327Y-26378102D01*
X50368314Y-26378109D01*
X50237211Y-26465710D01*
X50237207Y-26465713D01*
X50200181Y-26502740D01*
X50138858Y-26536225D01*
X50069166Y-26531241D01*
X50024819Y-26502740D01*
X49987792Y-26465713D01*
X49987788Y-26465710D01*
X49856685Y-26378109D01*
X49856672Y-26378102D01*
X49711001Y-26317764D01*
X49710989Y-26317761D01*
X49556345Y-26287000D01*
X49556342Y-26287000D01*
X49398658Y-26287000D01*
X49398655Y-26287000D01*
X49244010Y-26317761D01*
X49243998Y-26317764D01*
X49098327Y-26378102D01*
X49098314Y-26378109D01*
X48967211Y-26465710D01*
X48967207Y-26465713D01*
X48930181Y-26502740D01*
X48868858Y-26536225D01*
X48799166Y-26531241D01*
X48754819Y-26502740D01*
X48717792Y-26465713D01*
X48717788Y-26465710D01*
X48586685Y-26378109D01*
X48586672Y-26378102D01*
X48441001Y-26317764D01*
X48440989Y-26317761D01*
X48286345Y-26287000D01*
X48286342Y-26287000D01*
X48128658Y-26287000D01*
X48128655Y-26287000D01*
X47974010Y-26317761D01*
X47973998Y-26317764D01*
X47828327Y-26378102D01*
X47828314Y-26378109D01*
X47697211Y-26465710D01*
X47697207Y-26465713D01*
X47585713Y-26577207D01*
X47585710Y-26577211D01*
X47498109Y-26708314D01*
X47498102Y-26708327D01*
X47437764Y-26853998D01*
X47437761Y-26854008D01*
X47423551Y-26925448D01*
X47391166Y-26987359D01*
X47389615Y-26988937D01*
X47262500Y-27116052D01*
X47262500Y-27044713D01*
X47240351Y-26962055D01*
X47197564Y-26887946D01*
X47137054Y-26827436D01*
X47062945Y-26784649D01*
X46980287Y-26762500D01*
X46894713Y-26762500D01*
X46812055Y-26784649D01*
X46737946Y-26827436D01*
X46677436Y-26887946D01*
X46634649Y-26962055D01*
X46612500Y-27044713D01*
X46612500Y-27116052D01*
X46074926Y-26578478D01*
X46074926Y-26578479D01*
X46051313Y-26613818D01*
X46051309Y-26613825D01*
X45975929Y-26795810D01*
X45975927Y-26795818D01*
X45937500Y-26989004D01*
X39504694Y-26989004D01*
X39493020Y-26968784D01*
X39381216Y-26856980D01*
X39381214Y-26856979D01*
X39381209Y-26856975D01*
X39244290Y-26777926D01*
X39244286Y-26777924D01*
X39244284Y-26777923D01*
X39091557Y-26737000D01*
X38933443Y-26737000D01*
X38780716Y-26777923D01*
X38780709Y-26777926D01*
X38643790Y-26856975D01*
X38643782Y-26856981D01*
X38531981Y-26968782D01*
X38531975Y-26968790D01*
X38452926Y-27105709D01*
X38452923Y-27105716D01*
X38412000Y-27258443D01*
X36003846Y-27258443D01*
X35994290Y-27252926D01*
X35994286Y-27252924D01*
X35994284Y-27252923D01*
X35841557Y-27212000D01*
X35683443Y-27212000D01*
X35530716Y-27252923D01*
X35530709Y-27252926D01*
X35393790Y-27331975D01*
X35393782Y-27331981D01*
X35281981Y-27443782D01*
X35281975Y-27443790D01*
X35202926Y-27580709D01*
X35202923Y-27580716D01*
X35162000Y-27733443D01*
X14763000Y-27733443D01*
X14763000Y-25883443D01*
X19412000Y-25883443D01*
X19412000Y-26041557D01*
X19449422Y-26181216D01*
X19452923Y-26194283D01*
X19452926Y-26194290D01*
X19531975Y-26331209D01*
X19531979Y-26331214D01*
X19531980Y-26331216D01*
X19643784Y-26443020D01*
X19643786Y-26443021D01*
X19643790Y-26443024D01*
X19743341Y-26500499D01*
X19780716Y-26522077D01*
X19933443Y-26563000D01*
X19933445Y-26563000D01*
X20091555Y-26563000D01*
X20091557Y-26563000D01*
X20244284Y-26522077D01*
X20381216Y-26443020D01*
X20493020Y-26331216D01*
X20572077Y-26194284D01*
X20613000Y-26041557D01*
X20613000Y-25883443D01*
X21412000Y-25883443D01*
X21412000Y-26041557D01*
X21449422Y-26181216D01*
X21452923Y-26194283D01*
X21452926Y-26194290D01*
X21531975Y-26331209D01*
X21531979Y-26331214D01*
X21531980Y-26331216D01*
X21643784Y-26443020D01*
X21643786Y-26443021D01*
X21643790Y-26443024D01*
X21743341Y-26500499D01*
X21780716Y-26522077D01*
X21933443Y-26563000D01*
X21933445Y-26563000D01*
X22091555Y-26563000D01*
X22091557Y-26563000D01*
X22244284Y-26522077D01*
X22381216Y-26443020D01*
X22493020Y-26331216D01*
X22572077Y-26194284D01*
X22613000Y-26041557D01*
X22613000Y-25883443D01*
X23412000Y-25883443D01*
X23412000Y-26041557D01*
X23449422Y-26181216D01*
X23452923Y-26194283D01*
X23452926Y-26194290D01*
X23531975Y-26331209D01*
X23531979Y-26331214D01*
X23531980Y-26331216D01*
X23643784Y-26443020D01*
X23643786Y-26443021D01*
X23643790Y-26443024D01*
X23743341Y-26500499D01*
X23780716Y-26522077D01*
X23933443Y-26563000D01*
X23933445Y-26563000D01*
X24091555Y-26563000D01*
X24091557Y-26563000D01*
X24244284Y-26522077D01*
X24381216Y-26443020D01*
X24493020Y-26331216D01*
X24572077Y-26194284D01*
X24613000Y-26041557D01*
X24613000Y-25883443D01*
X24572808Y-25733443D01*
X25862000Y-25733443D01*
X25862000Y-25891557D01*
X25902193Y-26041557D01*
X25902923Y-26044283D01*
X25902926Y-26044290D01*
X25981975Y-26181209D01*
X25981979Y-26181214D01*
X25981980Y-26181216D01*
X26093784Y-26293020D01*
X26093786Y-26293021D01*
X26093790Y-26293024D01*
X26230709Y-26372073D01*
X26230716Y-26372077D01*
X26383443Y-26413000D01*
X26383445Y-26413000D01*
X26541555Y-26413000D01*
X26541557Y-26413000D01*
X26694284Y-26372077D01*
X26831216Y-26293020D01*
X26943020Y-26181216D01*
X27022077Y-26044284D01*
X27063000Y-25891557D01*
X27063000Y-25733443D01*
X27022077Y-25580716D01*
X26965073Y-25481981D01*
X26943024Y-25443790D01*
X26943018Y-25443782D01*
X26831217Y-25331981D01*
X26831209Y-25331975D01*
X26694290Y-25252926D01*
X26694286Y-25252924D01*
X26694284Y-25252923D01*
X26541557Y-25212000D01*
X26383443Y-25212000D01*
X26230716Y-25252923D01*
X26230709Y-25252926D01*
X26093790Y-25331975D01*
X26093782Y-25331981D01*
X25981981Y-25443782D01*
X25981975Y-25443790D01*
X25902926Y-25580709D01*
X25902923Y-25580716D01*
X25862000Y-25733443D01*
X24572808Y-25733443D01*
X24572077Y-25730716D01*
X24535989Y-25668209D01*
X24493024Y-25593790D01*
X24493018Y-25593782D01*
X24381217Y-25481981D01*
X24381209Y-25481975D01*
X24244290Y-25402926D01*
X24244286Y-25402924D01*
X24244284Y-25402923D01*
X24091557Y-25362000D01*
X23933443Y-25362000D01*
X23780716Y-25402923D01*
X23780709Y-25402926D01*
X23643790Y-25481975D01*
X23643782Y-25481981D01*
X23531981Y-25593782D01*
X23531975Y-25593790D01*
X23452926Y-25730709D01*
X23452923Y-25730716D01*
X23412000Y-25883443D01*
X22613000Y-25883443D01*
X22572077Y-25730716D01*
X22535989Y-25668209D01*
X22493024Y-25593790D01*
X22493018Y-25593782D01*
X22381217Y-25481981D01*
X22381209Y-25481975D01*
X22244290Y-25402926D01*
X22244286Y-25402924D01*
X22244284Y-25402923D01*
X22091557Y-25362000D01*
X21933443Y-25362000D01*
X21780716Y-25402923D01*
X21780709Y-25402926D01*
X21643790Y-25481975D01*
X21643782Y-25481981D01*
X21531981Y-25593782D01*
X21531975Y-25593790D01*
X21452926Y-25730709D01*
X21452923Y-25730716D01*
X21412000Y-25883443D01*
X20613000Y-25883443D01*
X20572077Y-25730716D01*
X20535989Y-25668209D01*
X20493024Y-25593790D01*
X20493018Y-25593782D01*
X20381217Y-25481981D01*
X20381209Y-25481975D01*
X20244290Y-25402926D01*
X20244286Y-25402924D01*
X20244284Y-25402923D01*
X20091557Y-25362000D01*
X19933443Y-25362000D01*
X19780716Y-25402923D01*
X19780709Y-25402926D01*
X19643790Y-25481975D01*
X19643782Y-25481981D01*
X19531981Y-25593782D01*
X19531975Y-25593790D01*
X19452926Y-25730709D01*
X19452923Y-25730716D01*
X19412000Y-25883443D01*
X14763000Y-25883443D01*
X14763000Y-20489924D01*
X14763096Y-20485056D01*
X14764358Y-20452926D01*
X14779569Y-20065756D01*
X14779891Y-20060484D01*
X14782854Y-20024732D01*
X16212000Y-20024732D01*
X16212000Y-20400267D01*
X16244729Y-20774365D01*
X16309938Y-21144179D01*
X16309941Y-21144192D01*
X16407130Y-21506910D01*
X16535568Y-21859793D01*
X16694271Y-22200133D01*
X16694276Y-22200142D01*
X16882040Y-22525358D01*
X16882044Y-22525364D01*
X16882051Y-22525375D01*
X17097434Y-22832974D01*
X17271907Y-23040902D01*
X17338818Y-23120644D01*
X17604356Y-23386182D01*
X17672091Y-23443018D01*
X17892025Y-23627565D01*
X18199624Y-23842948D01*
X18199631Y-23842952D01*
X18199642Y-23842960D01*
X18439096Y-23981209D01*
X18524851Y-24030720D01*
X18524866Y-24030728D01*
X18865206Y-24189431D01*
X19042763Y-24254056D01*
X19218083Y-24317867D01*
X19218084Y-24317867D01*
X19218089Y-24317869D01*
X19311955Y-24343020D01*
X19580815Y-24415061D01*
X19950637Y-24480271D01*
X20324734Y-24512999D01*
X20324735Y-24513000D01*
X20324736Y-24513000D01*
X20700265Y-24513000D01*
X20700265Y-24512999D01*
X21074363Y-24480271D01*
X21444185Y-24415061D01*
X21806917Y-24317867D01*
X22159798Y-24189429D01*
X22500142Y-24030724D01*
X22825358Y-23842960D01*
X23132973Y-23627566D01*
X23231438Y-23544944D01*
X28000499Y-23544944D01*
X28000499Y-23703058D01*
X28038341Y-23844284D01*
X28041422Y-23855784D01*
X28041425Y-23855791D01*
X28120474Y-23992710D01*
X28120478Y-23992715D01*
X28120479Y-23992717D01*
X28232283Y-24104521D01*
X28232285Y-24104522D01*
X28232289Y-24104525D01*
X28369208Y-24183574D01*
X28369215Y-24183578D01*
X28521942Y-24224501D01*
X28521944Y-24224501D01*
X28680054Y-24224501D01*
X28680056Y-24224501D01*
X28832783Y-24183578D01*
X28969715Y-24104521D01*
X29081519Y-23992717D01*
X29160576Y-23855785D01*
X29201499Y-23703058D01*
X29201499Y-23544944D01*
X29198417Y-23533443D01*
X29687000Y-23533443D01*
X29687000Y-23691557D01*
X29727570Y-23842964D01*
X29727923Y-23844283D01*
X29727926Y-23844290D01*
X29806975Y-23981209D01*
X29806979Y-23981214D01*
X29806980Y-23981216D01*
X29918784Y-24093020D01*
X29918786Y-24093021D01*
X29918790Y-24093024D01*
X29938704Y-24104521D01*
X30055716Y-24172077D01*
X30208443Y-24213000D01*
X30208445Y-24213000D01*
X30366552Y-24213000D01*
X30366557Y-24213000D01*
X30366561Y-24212998D01*
X30374288Y-24211981D01*
X30443324Y-24222742D01*
X30495583Y-24269118D01*
X30514473Y-24336386D01*
X30493997Y-24403188D01*
X30478164Y-24422600D01*
X30406978Y-24493786D01*
X30406975Y-24493790D01*
X30327926Y-24630709D01*
X30327923Y-24630716D01*
X30287000Y-24783443D01*
X30287000Y-24941556D01*
X30327923Y-25094283D01*
X30327926Y-25094290D01*
X30406975Y-25231209D01*
X30406979Y-25231214D01*
X30406980Y-25231216D01*
X30518784Y-25343020D01*
X30614926Y-25398527D01*
X30663141Y-25449093D01*
X30676365Y-25517700D01*
X30660316Y-25567909D01*
X30652925Y-25580711D01*
X30652923Y-25580716D01*
X30612000Y-25733443D01*
X30612000Y-25891557D01*
X30652193Y-26041557D01*
X30652923Y-26044283D01*
X30652926Y-26044290D01*
X30731975Y-26181209D01*
X30731979Y-26181214D01*
X30731980Y-26181216D01*
X30843784Y-26293020D01*
X30843786Y-26293021D01*
X30843790Y-26293024D01*
X30980709Y-26372073D01*
X30980716Y-26372077D01*
X31133443Y-26413000D01*
X31133445Y-26413000D01*
X31291555Y-26413000D01*
X31291557Y-26413000D01*
X31444284Y-26372077D01*
X31581216Y-26293020D01*
X31693020Y-26181216D01*
X31772077Y-26044284D01*
X31813000Y-25891557D01*
X31813000Y-25733443D01*
X35387000Y-25733443D01*
X35387000Y-25891557D01*
X35427193Y-26041557D01*
X35427923Y-26044283D01*
X35427926Y-26044290D01*
X35506975Y-26181209D01*
X35506979Y-26181214D01*
X35506980Y-26181216D01*
X35618784Y-26293020D01*
X35618786Y-26293021D01*
X35618790Y-26293024D01*
X35755709Y-26372073D01*
X35755716Y-26372077D01*
X35908443Y-26413000D01*
X35908445Y-26413000D01*
X36066555Y-26413000D01*
X36066557Y-26413000D01*
X36219284Y-26372077D01*
X36356216Y-26293020D01*
X36468020Y-26181216D01*
X36495602Y-26133443D01*
X39712000Y-26133443D01*
X39712000Y-26291557D01*
X39752586Y-26443024D01*
X39752923Y-26444283D01*
X39752926Y-26444290D01*
X39831975Y-26581209D01*
X39831979Y-26581214D01*
X39831980Y-26581216D01*
X39943784Y-26693020D01*
X39943786Y-26693021D01*
X39943790Y-26693024D01*
X40019960Y-26737000D01*
X40080716Y-26772077D01*
X40233443Y-26813000D01*
X40233445Y-26813000D01*
X40391555Y-26813000D01*
X40391557Y-26813000D01*
X40544284Y-26772077D01*
X40681216Y-26693020D01*
X40793020Y-26581216D01*
X40872077Y-26444284D01*
X40913000Y-26291557D01*
X40913000Y-26133443D01*
X40872077Y-25980716D01*
X40810039Y-25873263D01*
X40793022Y-25843787D01*
X40793018Y-25843782D01*
X40770179Y-25820943D01*
X41662000Y-25820943D01*
X41662000Y-25979057D01*
X41701355Y-26125930D01*
X41702923Y-26131783D01*
X41702926Y-26131790D01*
X41781975Y-26268709D01*
X41781979Y-26268714D01*
X41781980Y-26268716D01*
X41893784Y-26380520D01*
X41893786Y-26380521D01*
X41893790Y-26380524D01*
X42004238Y-26444290D01*
X42030716Y-26459577D01*
X42183443Y-26500500D01*
X42183445Y-26500500D01*
X42341555Y-26500500D01*
X42341557Y-26500500D01*
X42494284Y-26459577D01*
X42631216Y-26380520D01*
X42743020Y-26268716D01*
X42768302Y-26224926D01*
X46428478Y-26224926D01*
X46937500Y-26733946D01*
X46937501Y-26733946D01*
X47446520Y-26224926D01*
X47411175Y-26201309D01*
X47411173Y-26201308D01*
X47229193Y-26125930D01*
X47229181Y-26125927D01*
X47035995Y-26087500D01*
X46839004Y-26087500D01*
X46645818Y-26125927D01*
X46645810Y-26125929D01*
X46463825Y-26201309D01*
X46463818Y-26201313D01*
X46428479Y-26224926D01*
X46428478Y-26224926D01*
X42768302Y-26224926D01*
X42785990Y-26194290D01*
X42793542Y-26181209D01*
X42822077Y-26131784D01*
X42863000Y-25979057D01*
X42863000Y-25820943D01*
X42822077Y-25668216D01*
X42779103Y-25593782D01*
X42743024Y-25531290D01*
X42743018Y-25531282D01*
X42631217Y-25419481D01*
X42631209Y-25419475D01*
X42494290Y-25340426D01*
X42494286Y-25340424D01*
X42494284Y-25340423D01*
X42341557Y-25299500D01*
X42183443Y-25299500D01*
X42030716Y-25340423D01*
X42030709Y-25340426D01*
X41893790Y-25419475D01*
X41893782Y-25419481D01*
X41781981Y-25531282D01*
X41781975Y-25531290D01*
X41702926Y-25668209D01*
X41702923Y-25668216D01*
X41662000Y-25820943D01*
X40770179Y-25820943D01*
X40681217Y-25731981D01*
X40681209Y-25731975D01*
X40544290Y-25652926D01*
X40544286Y-25652924D01*
X40544284Y-25652923D01*
X40391557Y-25612000D01*
X40233443Y-25612000D01*
X40080716Y-25652923D01*
X40080709Y-25652926D01*
X39943790Y-25731975D01*
X39943782Y-25731981D01*
X39831981Y-25843782D01*
X39831975Y-25843790D01*
X39752926Y-25980709D01*
X39752923Y-25980716D01*
X39712000Y-26133443D01*
X36495602Y-26133443D01*
X36547077Y-26044284D01*
X36588000Y-25891557D01*
X36588000Y-25733443D01*
X36547077Y-25580716D01*
X36490073Y-25481981D01*
X36468024Y-25443790D01*
X36468018Y-25443782D01*
X36356217Y-25331981D01*
X36356209Y-25331975D01*
X36219290Y-25252926D01*
X36219286Y-25252924D01*
X36219284Y-25252923D01*
X36066557Y-25212000D01*
X35908443Y-25212000D01*
X35755716Y-25252923D01*
X35755709Y-25252926D01*
X35618790Y-25331975D01*
X35618782Y-25331981D01*
X35506981Y-25443782D01*
X35506975Y-25443790D01*
X35427926Y-25580709D01*
X35427923Y-25580716D01*
X35387000Y-25733443D01*
X31813000Y-25733443D01*
X31772077Y-25580716D01*
X31715073Y-25481981D01*
X31693024Y-25443790D01*
X31693018Y-25443782D01*
X31581217Y-25331981D01*
X31581212Y-25331977D01*
X31485073Y-25276472D01*
X31436858Y-25225906D01*
X31423634Y-25157299D01*
X31439686Y-25107085D01*
X31447077Y-25094284D01*
X31488000Y-24941557D01*
X31488000Y-24783443D01*
X31447077Y-24630716D01*
X31396844Y-24543709D01*
X31368024Y-24493790D01*
X31368018Y-24493782D01*
X31256217Y-24381981D01*
X31256209Y-24381975D01*
X31119290Y-24302926D01*
X31119286Y-24302924D01*
X31119284Y-24302923D01*
X30966557Y-24262000D01*
X30808443Y-24262000D01*
X30808442Y-24262000D01*
X30800702Y-24263019D01*
X30731667Y-24252253D01*
X30679411Y-24205874D01*
X30660526Y-24138605D01*
X30681007Y-24071804D01*
X30696827Y-24052408D01*
X30768020Y-23981216D01*
X30847077Y-23844284D01*
X30888000Y-23691557D01*
X30888000Y-23533443D01*
X30847077Y-23380716D01*
X30818499Y-23331217D01*
X30768024Y-23243790D01*
X30768018Y-23243782D01*
X30682679Y-23158443D01*
X32512000Y-23158443D01*
X32512000Y-23316557D01*
X32529531Y-23381981D01*
X32552923Y-23469283D01*
X32552926Y-23469290D01*
X32631975Y-23606209D01*
X32631979Y-23606214D01*
X32631980Y-23606216D01*
X32743784Y-23718020D01*
X32743786Y-23718021D01*
X32743790Y-23718024D01*
X32780055Y-23738961D01*
X32880716Y-23797077D01*
X33033443Y-23838000D01*
X33033445Y-23838000D01*
X33191555Y-23838000D01*
X33191557Y-23838000D01*
X33344284Y-23797077D01*
X33367899Y-23783443D01*
X34312000Y-23783443D01*
X34312000Y-23941557D01*
X34352586Y-24093024D01*
X34352923Y-24094283D01*
X34352926Y-24094290D01*
X34431975Y-24231209D01*
X34431979Y-24231214D01*
X34431980Y-24231216D01*
X34543784Y-24343020D01*
X34543786Y-24343021D01*
X34543790Y-24343024D01*
X34668564Y-24415061D01*
X34680716Y-24422077D01*
X34833443Y-24463000D01*
X34833445Y-24463000D01*
X34991555Y-24463000D01*
X34991557Y-24463000D01*
X35144284Y-24422077D01*
X35281216Y-24343020D01*
X35393020Y-24231216D01*
X35472077Y-24094284D01*
X35513000Y-23941557D01*
X35513000Y-23783443D01*
X35472077Y-23630716D01*
X35450027Y-23592524D01*
X35393024Y-23493790D01*
X35393018Y-23493782D01*
X35281217Y-23381981D01*
X35281216Y-23381980D01*
X35144284Y-23302923D01*
X34991557Y-23262000D01*
X34833443Y-23262000D01*
X34680716Y-23302923D01*
X34680709Y-23302926D01*
X34543790Y-23381975D01*
X34543782Y-23381981D01*
X34431981Y-23493782D01*
X34431975Y-23493790D01*
X34352926Y-23630709D01*
X34352923Y-23630716D01*
X34312000Y-23783443D01*
X33367899Y-23783443D01*
X33481216Y-23718020D01*
X33593020Y-23606216D01*
X33672077Y-23469284D01*
X33713000Y-23316557D01*
X33713000Y-23208443D01*
X37812000Y-23208443D01*
X37812000Y-23366557D01*
X37846091Y-23493784D01*
X37852923Y-23519283D01*
X37852926Y-23519290D01*
X37931975Y-23656209D01*
X37931981Y-23656217D01*
X38014725Y-23738961D01*
X38048210Y-23800284D01*
X38043226Y-23869976D01*
X38034431Y-23888642D01*
X38002924Y-23943213D01*
X38002923Y-23943216D01*
X37962000Y-24095943D01*
X37962000Y-24254057D01*
X38001960Y-24403188D01*
X38002923Y-24406783D01*
X38002926Y-24406790D01*
X38081975Y-24543709D01*
X38081979Y-24543714D01*
X38081980Y-24543716D01*
X38193784Y-24655520D01*
X38193786Y-24655521D01*
X38193790Y-24655524D01*
X38330709Y-24734573D01*
X38330716Y-24734577D01*
X38483443Y-24775500D01*
X38483445Y-24775500D01*
X38641555Y-24775500D01*
X38641557Y-24775500D01*
X38794284Y-24734577D01*
X38931216Y-24655520D01*
X39043020Y-24543716D01*
X39122077Y-24406784D01*
X39163000Y-24254057D01*
X39163000Y-24095943D01*
X39122077Y-23943216D01*
X39090569Y-23888642D01*
X39043024Y-23806290D01*
X39043018Y-23806282D01*
X38960275Y-23723539D01*
X38926790Y-23662216D01*
X38931774Y-23592524D01*
X38940569Y-23573858D01*
X38946838Y-23562999D01*
X38972077Y-23519284D01*
X39013000Y-23366557D01*
X39013000Y-23208443D01*
X38972077Y-23055716D01*
X38893023Y-22918790D01*
X38893022Y-22918787D01*
X38893018Y-22918782D01*
X38857679Y-22883443D01*
X44412000Y-22883443D01*
X44412000Y-23041557D01*
X44443320Y-23158443D01*
X44452923Y-23194283D01*
X44452926Y-23194290D01*
X44531975Y-23331209D01*
X44531979Y-23331214D01*
X44531980Y-23331216D01*
X44643784Y-23443020D01*
X44643786Y-23443021D01*
X44643790Y-23443024D01*
X44731721Y-23493790D01*
X44780716Y-23522077D01*
X44933443Y-23563000D01*
X44933445Y-23563000D01*
X45091555Y-23563000D01*
X45091557Y-23563000D01*
X45244284Y-23522077D01*
X45381216Y-23443020D01*
X45493020Y-23331216D01*
X45572077Y-23194284D01*
X45613000Y-23041557D01*
X45613000Y-22883443D01*
X45572077Y-22730716D01*
X45570466Y-22727926D01*
X45493024Y-22593790D01*
X45493018Y-22593782D01*
X45381217Y-22481981D01*
X45381209Y-22481975D01*
X45244290Y-22402926D01*
X45244286Y-22402924D01*
X45244284Y-22402923D01*
X45091557Y-22362000D01*
X44933443Y-22362000D01*
X44780716Y-22402923D01*
X44780709Y-22402926D01*
X44643790Y-22481975D01*
X44643782Y-22481981D01*
X44531981Y-22593782D01*
X44531975Y-22593790D01*
X44452926Y-22730709D01*
X44452923Y-22730716D01*
X44412000Y-22883443D01*
X38857679Y-22883443D01*
X38781217Y-22806981D01*
X38781209Y-22806975D01*
X38644290Y-22727926D01*
X38644286Y-22727924D01*
X38644284Y-22727923D01*
X38491557Y-22687000D01*
X38333443Y-22687000D01*
X38180716Y-22727923D01*
X38180709Y-22727926D01*
X38043790Y-22806975D01*
X38043782Y-22806981D01*
X37931981Y-22918782D01*
X37931975Y-22918790D01*
X37852926Y-23055709D01*
X37852923Y-23055716D01*
X37812000Y-23208443D01*
X33713000Y-23208443D01*
X33713000Y-23158443D01*
X33672077Y-23005716D01*
X33621889Y-22918787D01*
X33593024Y-22868790D01*
X33593018Y-22868782D01*
X33481217Y-22756981D01*
X33481209Y-22756975D01*
X33344290Y-22677926D01*
X33344286Y-22677924D01*
X33344284Y-22677923D01*
X33191557Y-22637000D01*
X33033443Y-22637000D01*
X32880716Y-22677923D01*
X32880709Y-22677926D01*
X32743790Y-22756975D01*
X32743782Y-22756981D01*
X32631981Y-22868782D01*
X32631975Y-22868790D01*
X32552926Y-23005709D01*
X32552923Y-23005716D01*
X32512000Y-23158443D01*
X30682679Y-23158443D01*
X30656217Y-23131981D01*
X30656209Y-23131975D01*
X30519290Y-23052926D01*
X30519286Y-23052924D01*
X30519284Y-23052923D01*
X30366557Y-23012000D01*
X30208443Y-23012000D01*
X30055716Y-23052923D01*
X30055709Y-23052926D01*
X29918790Y-23131975D01*
X29918782Y-23131981D01*
X29806981Y-23243782D01*
X29806975Y-23243790D01*
X29727926Y-23380709D01*
X29727923Y-23380716D01*
X29687000Y-23533443D01*
X29198417Y-23533443D01*
X29160576Y-23392217D01*
X29125358Y-23331217D01*
X29081523Y-23255291D01*
X29081517Y-23255283D01*
X28969716Y-23143482D01*
X28969708Y-23143476D01*
X28832789Y-23064427D01*
X28832785Y-23064425D01*
X28832783Y-23064424D01*
X28680056Y-23023501D01*
X28521942Y-23023501D01*
X28369215Y-23064424D01*
X28369208Y-23064427D01*
X28232289Y-23143476D01*
X28232281Y-23143482D01*
X28120480Y-23255283D01*
X28120474Y-23255291D01*
X28041425Y-23392210D01*
X28041422Y-23392217D01*
X28000499Y-23544944D01*
X23231438Y-23544944D01*
X23420644Y-23386182D01*
X23686182Y-23120644D01*
X23927566Y-22832973D01*
X24142960Y-22525358D01*
X24330724Y-22200142D01*
X24489429Y-21859798D01*
X24617867Y-21506917D01*
X24715061Y-21144185D01*
X24751539Y-20937312D01*
X24752221Y-20933443D01*
X27862000Y-20933443D01*
X27862000Y-21091557D01*
X27889526Y-21194283D01*
X27902923Y-21244283D01*
X27902926Y-21244290D01*
X27981975Y-21381209D01*
X27981979Y-21381214D01*
X27981980Y-21381216D01*
X28093784Y-21493020D01*
X28093786Y-21493021D01*
X28093790Y-21493024D01*
X28203245Y-21556217D01*
X28230716Y-21572077D01*
X28383443Y-21613000D01*
X28383445Y-21613000D01*
X28541555Y-21613000D01*
X28541557Y-21613000D01*
X28694284Y-21572077D01*
X28831216Y-21493020D01*
X28943020Y-21381216D01*
X29022077Y-21244284D01*
X29058475Y-21108443D01*
X35737000Y-21108443D01*
X35737000Y-21266557D01*
X35754326Y-21331216D01*
X35777923Y-21419283D01*
X35777926Y-21419290D01*
X35856975Y-21556209D01*
X35856979Y-21556214D01*
X35856980Y-21556216D01*
X35968784Y-21668020D01*
X35968786Y-21668021D01*
X35968790Y-21668024D01*
X36105709Y-21747073D01*
X36105716Y-21747077D01*
X36258443Y-21788000D01*
X36258445Y-21788000D01*
X36416555Y-21788000D01*
X36416557Y-21788000D01*
X36569284Y-21747077D01*
X36706216Y-21668020D01*
X36818020Y-21556216D01*
X36897077Y-21419284D01*
X36938000Y-21266557D01*
X36938000Y-21108443D01*
X36897077Y-20955716D01*
X36867094Y-20903783D01*
X36855351Y-20883443D01*
X42412000Y-20883443D01*
X42412000Y-21041557D01*
X42439498Y-21144179D01*
X42452923Y-21194283D01*
X42452926Y-21194290D01*
X42531975Y-21331209D01*
X42531979Y-21331214D01*
X42531980Y-21331216D01*
X42643784Y-21443020D01*
X42643786Y-21443021D01*
X42643790Y-21443024D01*
X42730387Y-21493020D01*
X42780716Y-21522077D01*
X42933443Y-21563000D01*
X42933445Y-21563000D01*
X43091555Y-21563000D01*
X43091557Y-21563000D01*
X43244284Y-21522077D01*
X43381216Y-21443020D01*
X43493020Y-21331216D01*
X43572077Y-21194284D01*
X43613000Y-21041557D01*
X43613000Y-20883443D01*
X44412000Y-20883443D01*
X44412000Y-21041557D01*
X44439498Y-21144179D01*
X44452923Y-21194283D01*
X44452926Y-21194290D01*
X44531975Y-21331209D01*
X44531979Y-21331214D01*
X44531980Y-21331216D01*
X44643784Y-21443020D01*
X44643786Y-21443021D01*
X44643790Y-21443024D01*
X44730387Y-21493020D01*
X44780716Y-21522077D01*
X44933443Y-21563000D01*
X44933445Y-21563000D01*
X45091555Y-21563000D01*
X45091557Y-21563000D01*
X45244284Y-21522077D01*
X45381216Y-21443020D01*
X45493020Y-21331216D01*
X45572077Y-21194284D01*
X45613000Y-21041557D01*
X45613000Y-20883443D01*
X45572077Y-20730716D01*
X45521891Y-20643790D01*
X45493024Y-20593790D01*
X45493018Y-20593782D01*
X45381217Y-20481981D01*
X45381209Y-20481975D01*
X45244290Y-20402926D01*
X45244286Y-20402924D01*
X45244284Y-20402923D01*
X45091557Y-20362000D01*
X44933443Y-20362000D01*
X44780716Y-20402923D01*
X44780709Y-20402926D01*
X44643790Y-20481975D01*
X44643782Y-20481981D01*
X44531981Y-20593782D01*
X44531975Y-20593790D01*
X44452926Y-20730709D01*
X44452923Y-20730716D01*
X44412000Y-20883443D01*
X43613000Y-20883443D01*
X43572077Y-20730716D01*
X43521891Y-20643790D01*
X43493024Y-20593790D01*
X43493018Y-20593782D01*
X43381217Y-20481981D01*
X43381209Y-20481975D01*
X43244290Y-20402926D01*
X43244286Y-20402924D01*
X43244284Y-20402923D01*
X43091557Y-20362000D01*
X42933443Y-20362000D01*
X42780716Y-20402923D01*
X42780709Y-20402926D01*
X42643790Y-20481975D01*
X42643782Y-20481981D01*
X42531981Y-20593782D01*
X42531975Y-20593790D01*
X42452926Y-20730709D01*
X42452923Y-20730716D01*
X42412000Y-20883443D01*
X36855351Y-20883443D01*
X36818024Y-20818790D01*
X36818018Y-20818782D01*
X36706217Y-20706981D01*
X36706209Y-20706975D01*
X36569290Y-20627926D01*
X36569286Y-20627924D01*
X36569284Y-20627923D01*
X36416557Y-20587000D01*
X36258443Y-20587000D01*
X36105716Y-20627923D01*
X36105709Y-20627926D01*
X35968790Y-20706975D01*
X35968782Y-20706981D01*
X35856981Y-20818782D01*
X35856975Y-20818790D01*
X35777926Y-20955709D01*
X35777923Y-20955716D01*
X35737000Y-21108443D01*
X29058475Y-21108443D01*
X29063000Y-21091557D01*
X29063000Y-20933443D01*
X29022077Y-20780716D01*
X28993206Y-20730709D01*
X28943024Y-20643790D01*
X28943018Y-20643782D01*
X28831217Y-20531981D01*
X28831209Y-20531975D01*
X28694290Y-20452926D01*
X28694286Y-20452924D01*
X28694284Y-20452923D01*
X28541557Y-20412000D01*
X28383443Y-20412000D01*
X28230716Y-20452923D01*
X28230709Y-20452926D01*
X28093790Y-20531975D01*
X28093782Y-20531981D01*
X27981981Y-20643782D01*
X27981975Y-20643790D01*
X27902926Y-20780709D01*
X27902923Y-20780716D01*
X27862000Y-20933443D01*
X24752221Y-20933443D01*
X24757451Y-20903783D01*
X24757451Y-20903782D01*
X24780270Y-20774369D01*
X24780270Y-20774368D01*
X24780271Y-20774363D01*
X24813000Y-20400264D01*
X24813000Y-20024736D01*
X24813000Y-20024732D01*
X46712000Y-20024732D01*
X46712000Y-20400267D01*
X46744729Y-20774365D01*
X46809938Y-21144179D01*
X46809941Y-21144192D01*
X46907130Y-21506910D01*
X47035568Y-21859793D01*
X47194271Y-22200133D01*
X47194276Y-22200142D01*
X47382040Y-22525358D01*
X47382044Y-22525364D01*
X47382051Y-22525375D01*
X47597434Y-22832974D01*
X47771907Y-23040902D01*
X47838818Y-23120644D01*
X48104356Y-23386182D01*
X48172091Y-23443018D01*
X48392025Y-23627565D01*
X48699624Y-23842948D01*
X48699631Y-23842952D01*
X48699642Y-23842960D01*
X48939096Y-23981209D01*
X49024851Y-24030720D01*
X49024866Y-24030728D01*
X49365206Y-24189431D01*
X49542763Y-24254056D01*
X49718083Y-24317867D01*
X49718084Y-24317867D01*
X49718089Y-24317869D01*
X49811955Y-24343020D01*
X50080815Y-24415061D01*
X50450637Y-24480271D01*
X50824734Y-24512999D01*
X50824735Y-24513000D01*
X50824736Y-24513000D01*
X51200265Y-24513000D01*
X51200265Y-24512999D01*
X51574363Y-24480271D01*
X51944185Y-24415061D01*
X52306917Y-24317867D01*
X52659798Y-24189429D01*
X53000142Y-24030724D01*
X53325358Y-23842960D01*
X53632973Y-23627566D01*
X53920644Y-23386182D01*
X54186182Y-23120644D01*
X54427566Y-22832973D01*
X54642960Y-22525358D01*
X54830724Y-22200142D01*
X54989429Y-21859798D01*
X55117867Y-21506917D01*
X55215061Y-21144185D01*
X55280271Y-20774363D01*
X55313000Y-20400264D01*
X55313000Y-20024736D01*
X55280271Y-19650637D01*
X55215061Y-19280815D01*
X55123020Y-18937313D01*
X55117869Y-18918089D01*
X54989431Y-18565206D01*
X54830728Y-18224866D01*
X54830720Y-18224851D01*
X54788889Y-18152398D01*
X54642960Y-17899642D01*
X54642952Y-17899631D01*
X54642948Y-17899624D01*
X54427565Y-17592025D01*
X54223410Y-17348723D01*
X54186182Y-17304356D01*
X53920644Y-17038818D01*
X53770700Y-16913000D01*
X53632974Y-16797434D01*
X53325375Y-16582051D01*
X53325364Y-16582044D01*
X53325358Y-16582040D01*
X53152051Y-16481981D01*
X53000148Y-16394279D01*
X53000133Y-16394271D01*
X52659793Y-16235568D01*
X52306910Y-16107130D01*
X51944192Y-16009941D01*
X51944195Y-16009941D01*
X51944185Y-16009939D01*
X51891971Y-16000732D01*
X51574365Y-15944729D01*
X51200267Y-15912000D01*
X51200264Y-15912000D01*
X50824736Y-15912000D01*
X50824732Y-15912000D01*
X50450634Y-15944729D01*
X50080820Y-16009938D01*
X50080817Y-16009938D01*
X50080815Y-16009939D01*
X50080810Y-16009940D01*
X50080807Y-16009941D01*
X49718089Y-16107130D01*
X49365206Y-16235568D01*
X49024866Y-16394271D01*
X49024851Y-16394279D01*
X48699650Y-16582035D01*
X48699624Y-16582051D01*
X48392025Y-16797434D01*
X48104353Y-17038820D01*
X47838820Y-17304353D01*
X47597434Y-17592025D01*
X47382051Y-17899624D01*
X47382035Y-17899650D01*
X47194279Y-18224851D01*
X47194271Y-18224866D01*
X47035568Y-18565206D01*
X46907130Y-18918089D01*
X46809941Y-19280807D01*
X46809938Y-19280820D01*
X46744729Y-19650634D01*
X46712000Y-20024732D01*
X24813000Y-20024732D01*
X24780271Y-19650637D01*
X24715061Y-19280815D01*
X24623020Y-18937313D01*
X24617869Y-18918089D01*
X24545211Y-18718461D01*
X24532733Y-18684178D01*
X30262735Y-18684178D01*
X30262735Y-18842292D01*
X30288196Y-18937312D01*
X30303658Y-18995018D01*
X30303661Y-18995025D01*
X30382710Y-19131944D01*
X30382714Y-19131949D01*
X30382715Y-19131951D01*
X30494519Y-19243755D01*
X30494521Y-19243756D01*
X30494525Y-19243759D01*
X30622974Y-19317918D01*
X30631451Y-19322812D01*
X30784178Y-19363735D01*
X30784180Y-19363735D01*
X30942290Y-19363735D01*
X30942292Y-19363735D01*
X31095019Y-19322812D01*
X31231951Y-19243755D01*
X31343755Y-19131951D01*
X31422812Y-18995019D01*
X31456272Y-18870144D01*
X31773829Y-18870144D01*
X31773829Y-19028258D01*
X31801614Y-19131951D01*
X31814752Y-19180984D01*
X31814755Y-19180991D01*
X31893804Y-19317910D01*
X31893808Y-19317915D01*
X31893809Y-19317917D01*
X32005613Y-19429721D01*
X32005615Y-19429722D01*
X32005619Y-19429725D01*
X32107055Y-19488288D01*
X32142545Y-19508778D01*
X32295272Y-19549701D01*
X32295274Y-19549701D01*
X32453384Y-19549701D01*
X32453386Y-19549701D01*
X32606113Y-19508778D01*
X32743045Y-19429721D01*
X32854849Y-19317917D01*
X32854852Y-19317910D01*
X32859799Y-19311466D01*
X32860841Y-19312265D01*
X32905333Y-19269839D01*
X32973939Y-19256613D01*
X33038805Y-19282578D01*
X33079336Y-19339490D01*
X33081929Y-19347948D01*
X33086160Y-19363735D01*
X33096158Y-19401048D01*
X33096161Y-19401055D01*
X33175210Y-19537974D01*
X33175214Y-19537979D01*
X33175215Y-19537981D01*
X33287019Y-19649785D01*
X33287021Y-19649786D01*
X33287025Y-19649789D01*
X33423944Y-19728838D01*
X33423951Y-19728842D01*
X33576678Y-19769765D01*
X33576680Y-19769765D01*
X33734790Y-19769765D01*
X33734792Y-19769765D01*
X33887519Y-19728842D01*
X34024451Y-19649785D01*
X34136255Y-19537981D01*
X34215312Y-19401049D01*
X34256235Y-19248322D01*
X34256235Y-19090208D01*
X34215312Y-18937481D01*
X34184114Y-18883443D01*
X42412000Y-18883443D01*
X42412000Y-19041557D01*
X42449360Y-19180984D01*
X42452923Y-19194283D01*
X42452926Y-19194290D01*
X42531975Y-19331209D01*
X42531979Y-19331214D01*
X42531980Y-19331216D01*
X42643784Y-19443020D01*
X42643786Y-19443021D01*
X42643790Y-19443024D01*
X42757681Y-19508778D01*
X42780716Y-19522077D01*
X42933443Y-19563000D01*
X42933445Y-19563000D01*
X43091555Y-19563000D01*
X43091557Y-19563000D01*
X43244284Y-19522077D01*
X43381216Y-19443020D01*
X43493020Y-19331216D01*
X43572077Y-19194284D01*
X43613000Y-19041557D01*
X43613000Y-18883443D01*
X44412000Y-18883443D01*
X44412000Y-19041557D01*
X44449360Y-19180984D01*
X44452923Y-19194283D01*
X44452926Y-19194290D01*
X44531975Y-19331209D01*
X44531979Y-19331214D01*
X44531980Y-19331216D01*
X44643784Y-19443020D01*
X44643786Y-19443021D01*
X44643790Y-19443024D01*
X44757681Y-19508778D01*
X44780716Y-19522077D01*
X44933443Y-19563000D01*
X44933445Y-19563000D01*
X45091555Y-19563000D01*
X45091557Y-19563000D01*
X45244284Y-19522077D01*
X45381216Y-19443020D01*
X45493020Y-19331216D01*
X45572077Y-19194284D01*
X45613000Y-19041557D01*
X45613000Y-18883443D01*
X45572077Y-18730716D01*
X45565002Y-18718461D01*
X45493024Y-18593790D01*
X45493018Y-18593782D01*
X45381217Y-18481981D01*
X45381209Y-18481975D01*
X45244290Y-18402926D01*
X45244286Y-18402924D01*
X45244284Y-18402923D01*
X45091557Y-18362000D01*
X44933443Y-18362000D01*
X44780716Y-18402923D01*
X44780709Y-18402926D01*
X44643790Y-18481975D01*
X44643782Y-18481981D01*
X44531981Y-18593782D01*
X44531975Y-18593790D01*
X44452926Y-18730709D01*
X44452923Y-18730716D01*
X44412000Y-18883443D01*
X43613000Y-18883443D01*
X43572077Y-18730716D01*
X43565002Y-18718461D01*
X43493024Y-18593790D01*
X43493018Y-18593782D01*
X43381217Y-18481981D01*
X43381209Y-18481975D01*
X43244290Y-18402926D01*
X43244286Y-18402924D01*
X43244284Y-18402923D01*
X43091557Y-18362000D01*
X42933443Y-18362000D01*
X42780716Y-18402923D01*
X42780709Y-18402926D01*
X42643790Y-18481975D01*
X42643782Y-18481981D01*
X42531981Y-18593782D01*
X42531975Y-18593790D01*
X42452926Y-18730709D01*
X42452923Y-18730716D01*
X42412000Y-18883443D01*
X34184114Y-18883443D01*
X34156650Y-18835874D01*
X34136257Y-18800552D01*
X34136253Y-18800547D01*
X34024452Y-18688746D01*
X34024444Y-18688740D01*
X33887525Y-18609691D01*
X33887521Y-18609689D01*
X33887519Y-18609688D01*
X33734792Y-18568765D01*
X33576678Y-18568765D01*
X33423951Y-18609688D01*
X33423944Y-18609691D01*
X33287025Y-18688740D01*
X33287017Y-18688746D01*
X33175216Y-18800547D01*
X33170265Y-18807000D01*
X33169225Y-18806202D01*
X33124712Y-18848636D01*
X33056103Y-18861850D01*
X32991241Y-18835874D01*
X32950720Y-18778955D01*
X32948136Y-18770527D01*
X32933906Y-18717417D01*
X32917353Y-18688746D01*
X32854853Y-18580491D01*
X32854847Y-18580483D01*
X32743046Y-18468682D01*
X32743038Y-18468676D01*
X32606119Y-18389627D01*
X32606115Y-18389625D01*
X32606113Y-18389624D01*
X32453386Y-18348701D01*
X32295272Y-18348701D01*
X32142545Y-18389624D01*
X32142538Y-18389627D01*
X32005619Y-18468676D01*
X32005611Y-18468682D01*
X31893810Y-18580483D01*
X31893804Y-18580491D01*
X31814755Y-18717410D01*
X31814752Y-18717417D01*
X31773829Y-18870144D01*
X31456272Y-18870144D01*
X31463735Y-18842292D01*
X31463735Y-18684178D01*
X31422812Y-18531451D01*
X31394250Y-18481980D01*
X31343759Y-18394525D01*
X31343753Y-18394517D01*
X31231952Y-18282716D01*
X31231944Y-18282710D01*
X31095025Y-18203661D01*
X31095021Y-18203659D01*
X31095019Y-18203658D01*
X30942292Y-18162735D01*
X30784178Y-18162735D01*
X30631451Y-18203658D01*
X30631444Y-18203661D01*
X30494525Y-18282710D01*
X30494517Y-18282716D01*
X30382716Y-18394517D01*
X30382710Y-18394525D01*
X30303661Y-18531444D01*
X30303658Y-18531451D01*
X30262735Y-18684178D01*
X24532733Y-18684178D01*
X24489431Y-18565206D01*
X24330728Y-18224866D01*
X24330720Y-18224851D01*
X24288889Y-18152398D01*
X24142960Y-17899642D01*
X24142952Y-17899631D01*
X24142948Y-17899624D01*
X23927570Y-17592032D01*
X23916681Y-17579055D01*
X23784010Y-17420943D01*
X28249500Y-17420943D01*
X28249500Y-17579057D01*
X28252976Y-17592027D01*
X28290423Y-17731783D01*
X28290426Y-17731790D01*
X28369475Y-17868709D01*
X28369479Y-17868714D01*
X28369480Y-17868716D01*
X28481284Y-17980520D01*
X28481286Y-17980521D01*
X28481290Y-17980524D01*
X28618209Y-18059573D01*
X28618216Y-18059577D01*
X28770943Y-18100500D01*
X28770945Y-18100500D01*
X28929055Y-18100500D01*
X28929057Y-18100500D01*
X29081784Y-18059577D01*
X29218716Y-17980520D01*
X29330520Y-17868716D01*
X29409577Y-17731784D01*
X29450500Y-17579057D01*
X29450500Y-17420943D01*
X29409577Y-17268216D01*
X29409573Y-17268209D01*
X29330524Y-17131290D01*
X29330518Y-17131282D01*
X29218717Y-17019481D01*
X29218709Y-17019475D01*
X29081790Y-16940426D01*
X29081786Y-16940424D01*
X29081784Y-16940423D01*
X28929057Y-16899500D01*
X28770943Y-16899500D01*
X28618216Y-16940423D01*
X28618209Y-16940426D01*
X28481290Y-17019475D01*
X28481282Y-17019481D01*
X28369481Y-17131282D01*
X28369475Y-17131290D01*
X28290426Y-17268209D01*
X28290423Y-17268216D01*
X28249500Y-17420943D01*
X23784010Y-17420943D01*
X23686182Y-17304356D01*
X23420644Y-17038818D01*
X23270700Y-16913000D01*
X23132974Y-16797434D01*
X22825375Y-16582051D01*
X22825364Y-16582044D01*
X22825358Y-16582040D01*
X22652051Y-16481981D01*
X22500148Y-16394279D01*
X22500132Y-16394271D01*
X22378811Y-16337698D01*
X22159793Y-16235568D01*
X22153955Y-16233443D01*
X32552000Y-16233443D01*
X32552000Y-16391557D01*
X32576228Y-16481975D01*
X32592923Y-16544283D01*
X32592926Y-16544290D01*
X32671975Y-16681209D01*
X32671979Y-16681214D01*
X32671980Y-16681216D01*
X32783784Y-16793020D01*
X32783786Y-16793021D01*
X32783790Y-16793024D01*
X32920709Y-16872073D01*
X32920716Y-16872077D01*
X33073443Y-16913000D01*
X33073445Y-16913000D01*
X33231555Y-16913000D01*
X33231557Y-16913000D01*
X33341865Y-16883443D01*
X42412000Y-16883443D01*
X42412000Y-17041557D01*
X42441387Y-17151229D01*
X42452923Y-17194283D01*
X42452926Y-17194290D01*
X42531975Y-17331209D01*
X42531979Y-17331214D01*
X42531980Y-17331216D01*
X42643784Y-17443020D01*
X42643786Y-17443021D01*
X42643790Y-17443024D01*
X42780709Y-17522073D01*
X42780716Y-17522077D01*
X42933443Y-17563000D01*
X42933445Y-17563000D01*
X43091555Y-17563000D01*
X43091557Y-17563000D01*
X43244284Y-17522077D01*
X43381216Y-17443020D01*
X43493020Y-17331216D01*
X43572077Y-17194284D01*
X43613000Y-17041557D01*
X43613000Y-16883443D01*
X44412000Y-16883443D01*
X44412000Y-17041557D01*
X44441387Y-17151229D01*
X44452923Y-17194283D01*
X44452926Y-17194290D01*
X44531975Y-17331209D01*
X44531979Y-17331214D01*
X44531980Y-17331216D01*
X44643784Y-17443020D01*
X44643786Y-17443021D01*
X44643790Y-17443024D01*
X44780709Y-17522073D01*
X44780716Y-17522077D01*
X44933443Y-17563000D01*
X44933445Y-17563000D01*
X45091555Y-17563000D01*
X45091557Y-17563000D01*
X45244284Y-17522077D01*
X45381216Y-17443020D01*
X45493020Y-17331216D01*
X45572077Y-17194284D01*
X45613000Y-17041557D01*
X45613000Y-16883443D01*
X45572077Y-16730716D01*
X45543499Y-16681217D01*
X45493024Y-16593790D01*
X45493018Y-16593782D01*
X45381217Y-16481981D01*
X45381209Y-16481975D01*
X45244290Y-16402926D01*
X45244286Y-16402924D01*
X45244284Y-16402923D01*
X45091557Y-16362000D01*
X44933443Y-16362000D01*
X44780716Y-16402923D01*
X44780709Y-16402926D01*
X44643790Y-16481975D01*
X44643782Y-16481981D01*
X44531981Y-16593782D01*
X44531975Y-16593790D01*
X44452926Y-16730709D01*
X44452923Y-16730716D01*
X44412000Y-16883443D01*
X43613000Y-16883443D01*
X43572077Y-16730716D01*
X43543499Y-16681217D01*
X43493024Y-16593790D01*
X43493018Y-16593782D01*
X43381217Y-16481981D01*
X43381209Y-16481975D01*
X43244290Y-16402926D01*
X43244286Y-16402924D01*
X43244284Y-16402923D01*
X43091557Y-16362000D01*
X42933443Y-16362000D01*
X42780716Y-16402923D01*
X42780709Y-16402926D01*
X42643790Y-16481975D01*
X42643782Y-16481981D01*
X42531981Y-16593782D01*
X42531975Y-16593790D01*
X42452926Y-16730709D01*
X42452923Y-16730716D01*
X42412000Y-16883443D01*
X33341865Y-16883443D01*
X33384284Y-16872077D01*
X33521216Y-16793020D01*
X33633020Y-16681216D01*
X33712077Y-16544284D01*
X33753000Y-16391557D01*
X33753000Y-16233443D01*
X33712077Y-16080716D01*
X33710392Y-16077798D01*
X33633024Y-15943790D01*
X33633018Y-15943782D01*
X33521217Y-15831981D01*
X33521209Y-15831975D01*
X33384290Y-15752926D01*
X33384286Y-15752924D01*
X33384284Y-15752923D01*
X33231557Y-15712000D01*
X33073443Y-15712000D01*
X32920716Y-15752923D01*
X32920709Y-15752926D01*
X32783790Y-15831975D01*
X32783782Y-15831981D01*
X32671981Y-15943782D01*
X32671975Y-15943790D01*
X32592926Y-16080709D01*
X32592923Y-16080716D01*
X32552000Y-16233443D01*
X22153955Y-16233443D01*
X21806910Y-16107130D01*
X21444192Y-16009941D01*
X21444195Y-16009941D01*
X21444185Y-16009939D01*
X21391971Y-16000732D01*
X21074365Y-15944729D01*
X20700267Y-15912000D01*
X20700264Y-15912000D01*
X20324736Y-15912000D01*
X20324732Y-15912000D01*
X19950634Y-15944729D01*
X19580820Y-16009938D01*
X19580817Y-16009938D01*
X19580815Y-16009939D01*
X19580810Y-16009940D01*
X19580807Y-16009941D01*
X19218089Y-16107130D01*
X18865206Y-16235568D01*
X18524866Y-16394271D01*
X18524851Y-16394279D01*
X18199650Y-16582035D01*
X18199624Y-16582051D01*
X17892025Y-16797434D01*
X17604353Y-17038820D01*
X17338820Y-17304353D01*
X17097434Y-17592025D01*
X16882051Y-17899624D01*
X16882035Y-17899650D01*
X16694279Y-18224851D01*
X16694271Y-18224866D01*
X16535568Y-18565206D01*
X16407130Y-18918089D01*
X16309941Y-19280807D01*
X16309938Y-19280820D01*
X16244729Y-19650634D01*
X16212000Y-20024732D01*
X14782854Y-20024732D01*
X14788047Y-19962061D01*
X14788472Y-19957823D01*
X14831932Y-19590639D01*
X14832741Y-19584958D01*
X14848250Y-19492019D01*
X14848926Y-19488329D01*
X14922106Y-19120428D01*
X14923485Y-19114324D01*
X14944543Y-19031169D01*
X14945391Y-19027999D01*
X14954691Y-18995025D01*
X15049661Y-18658283D01*
X15051692Y-18651779D01*
X15075155Y-18583436D01*
X15075990Y-18581090D01*
X15213902Y-18207265D01*
X15216658Y-18200436D01*
X15236812Y-18154489D01*
X15237706Y-18152498D01*
X15413826Y-17770464D01*
X15417358Y-17763406D01*
X15423968Y-17751191D01*
X15424598Y-17750047D01*
X15644713Y-17357004D01*
X15649775Y-17348743D01*
X15906106Y-16965117D01*
X15911819Y-16957256D01*
X15925089Y-16940423D01*
X16197434Y-16594953D01*
X16203735Y-16587574D01*
X16516924Y-16248770D01*
X16523770Y-16241924D01*
X16862574Y-15928735D01*
X16869953Y-15922434D01*
X17232258Y-15636817D01*
X17240117Y-15631106D01*
X17623743Y-15374775D01*
X17632004Y-15369713D01*
X18025047Y-15149598D01*
X18026191Y-15148968D01*
X18038406Y-15142358D01*
X18045464Y-15138826D01*
X18427497Y-14962707D01*
X18429501Y-14961807D01*
X18475436Y-14941658D01*
X18482265Y-14938902D01*
X18856090Y-14800990D01*
X18858436Y-14800155D01*
X18926779Y-14776692D01*
X18933283Y-14774661D01*
X19303025Y-14670383D01*
X19306169Y-14669543D01*
X19389324Y-14648485D01*
X19395428Y-14647106D01*
X19763329Y-14573926D01*
X19767019Y-14573250D01*
X19859958Y-14557741D01*
X19865639Y-14556932D01*
X20232824Y-14513472D01*
X20237056Y-14513047D01*
X20335484Y-14504891D01*
X20340756Y-14504569D01*
X20760057Y-14488095D01*
X20764924Y-14488000D01*
X50760076Y-14488000D01*
X50764942Y-14488095D01*
G37*
%TD.AperFunction*%
%TD*%
M02*
