%TF.GenerationSoftware,KiCad,Pcbnew,9.0.1*%
%TF.CreationDate,2025-07-27T20:04:42-04:00*%
%TF.ProjectId,STM32_FlightController,53544d33-325f-4466-9c69-676874436f6e,rev?*%
%TF.SameCoordinates,Original*%
%TF.FileFunction,Copper,L4,Bot*%
%TF.FilePolarity,Positive*%
%FSLAX46Y46*%
G04 Gerber Fmt 4.6, Leading zero omitted, Abs format (unit mm)*
G04 Created by KiCad (PCBNEW 9.0.1) date 2025-07-27 20:04:42*
%MOMM*%
%LPD*%
G01*
G04 APERTURE LIST*
G04 Aperture macros list*
%AMRoundRect*
0 Rectangle with rounded corners*
0 $1 Rounding radius*
0 $2 $3 $4 $5 $6 $7 $8 $9 X,Y pos of 4 corners*
0 Add a 4 corners polygon primitive as box body*
4,1,4,$2,$3,$4,$5,$6,$7,$8,$9,$2,$3,0*
0 Add four circle primitives for the rounded corners*
1,1,$1+$1,$2,$3*
1,1,$1+$1,$4,$5*
1,1,$1+$1,$6,$7*
1,1,$1+$1,$8,$9*
0 Add four rect primitives between the rounded corners*
20,1,$1+$1,$2,$3,$4,$5,0*
20,1,$1+$1,$4,$5,$6,$7,0*
20,1,$1+$1,$6,$7,$8,$9,0*
20,1,$1+$1,$8,$9,$2,$3,0*%
G04 Aperture macros list end*
%TA.AperFunction,HeatsinkPad*%
%ADD10O,1.800000X1.150000*%
%TD*%
%TA.AperFunction,HeatsinkPad*%
%ADD11O,2.000000X1.450000*%
%TD*%
%TA.AperFunction,ComponentPad*%
%ADD12C,8.000000*%
%TD*%
%TA.AperFunction,ComponentPad*%
%ADD13R,1.000000X1.000000*%
%TD*%
%TA.AperFunction,ComponentPad*%
%ADD14C,1.000000*%
%TD*%
%TA.AperFunction,SMDPad,CuDef*%
%ADD15RoundRect,0.150000X0.150000X0.625000X-0.150000X0.625000X-0.150000X-0.625000X0.150000X-0.625000X0*%
%TD*%
%TA.AperFunction,SMDPad,CuDef*%
%ADD16RoundRect,0.250000X0.350000X0.650000X-0.350000X0.650000X-0.350000X-0.650000X0.350000X-0.650000X0*%
%TD*%
%TA.AperFunction,SMDPad,CuDef*%
%ADD17RoundRect,0.250000X0.250000X0.475000X-0.250000X0.475000X-0.250000X-0.475000X0.250000X-0.475000X0*%
%TD*%
%TA.AperFunction,SMDPad,CuDef*%
%ADD18RoundRect,0.225000X0.225000X0.250000X-0.225000X0.250000X-0.225000X-0.250000X0.225000X-0.250000X0*%
%TD*%
%TA.AperFunction,SMDPad,CuDef*%
%ADD19RoundRect,0.135000X-0.135000X-0.185000X0.135000X-0.185000X0.135000X0.185000X-0.135000X0.185000X0*%
%TD*%
%TA.AperFunction,SMDPad,CuDef*%
%ADD20RoundRect,0.150000X-0.512500X-0.150000X0.512500X-0.150000X0.512500X0.150000X-0.512500X0.150000X0*%
%TD*%
%TA.AperFunction,SMDPad,CuDef*%
%ADD21RoundRect,0.250000X-0.475000X0.250000X-0.475000X-0.250000X0.475000X-0.250000X0.475000X0.250000X0*%
%TD*%
%TA.AperFunction,SMDPad,CuDef*%
%ADD22RoundRect,0.150000X-0.587500X-0.150000X0.587500X-0.150000X0.587500X0.150000X-0.587500X0.150000X0*%
%TD*%
%TA.AperFunction,SMDPad,CuDef*%
%ADD23RoundRect,0.375000X-0.625000X-0.375000X0.625000X-0.375000X0.625000X0.375000X-0.625000X0.375000X0*%
%TD*%
%TA.AperFunction,SMDPad,CuDef*%
%ADD24RoundRect,0.500000X-0.500000X-1.400000X0.500000X-1.400000X0.500000X1.400000X-0.500000X1.400000X0*%
%TD*%
%TA.AperFunction,SMDPad,CuDef*%
%ADD25RoundRect,0.150000X0.150000X-0.512500X0.150000X0.512500X-0.150000X0.512500X-0.150000X-0.512500X0*%
%TD*%
%TA.AperFunction,SMDPad,CuDef*%
%ADD26RoundRect,0.135000X0.135000X0.185000X-0.135000X0.185000X-0.135000X-0.185000X0.135000X-0.185000X0*%
%TD*%
%TA.AperFunction,ViaPad*%
%ADD27C,0.600000*%
%TD*%
%TA.AperFunction,Conductor*%
%ADD28C,0.300000*%
%TD*%
%TA.AperFunction,Conductor*%
%ADD29C,0.500000*%
%TD*%
%TA.AperFunction,Conductor*%
%ADD30C,0.200000*%
%TD*%
G04 APERTURE END LIST*
D10*
%TO.P,J1,6,Shield*%
%TO.N,unconnected-(J1-Shield-Pad6)_2*%
X54857500Y-39362500D03*
D11*
%TO.N,unconnected-(J1-Shield-Pad6)*%
X51057500Y-39212500D03*
%TO.N,unconnected-(J1-Shield-Pad6)_3*%
X51057500Y-31762500D03*
D10*
%TO.N,unconnected-(J1-Shield-Pad6)_1*%
X54857500Y-31612500D03*
%TD*%
D12*
%TO.P,H1,1,1*%
%TO.N,unconnected-(H1-Pad1)*%
X20512500Y-20212500D03*
%TD*%
%TO.P,H3,1,1*%
%TO.N,unconnected-(H3-Pad1)*%
X20512500Y-50712500D03*
%TD*%
%TO.P,H4,1,1*%
%TO.N,unconnected-(H4-Pad1)*%
X51012500Y-50712500D03*
%TD*%
%TO.P,H2,1,1*%
%TO.N,unconnected-(H2-Pad1)*%
X51012500Y-20212500D03*
%TD*%
D13*
%TO.P,J5,1,Pin_1*%
%TO.N,+3V3*%
X46937500Y-28357500D03*
D14*
%TO.P,J5,2,Pin_2*%
X46937500Y-27087500D03*
%TO.P,J5,3,Pin_3*%
%TO.N,/SWO*%
X48207500Y-28357500D03*
%TO.P,J5,4,Pin_4*%
X48207500Y-27087500D03*
%TO.P,J5,5,Pin_5*%
%TO.N,/SWCLK*%
X49477500Y-28357500D03*
%TO.P,J5,6,Pin_6*%
X49477500Y-27087500D03*
%TO.P,J5,7,Pin_7*%
%TO.N,/SWDIO*%
X50747500Y-28357500D03*
%TO.P,J5,8,Pin_8*%
X50747500Y-27087500D03*
%TO.P,J5,9,Pin_9*%
%TO.N,GND*%
X52017500Y-28357500D03*
%TO.P,J5,10,Pin_10*%
X52017500Y-27087500D03*
%TD*%
D15*
%TO.P,J2,1,Pin_1*%
%TO.N,/BAT*%
X39512500Y-53587500D03*
%TO.P,J2,2,Pin_2*%
%TO.N,/CRT*%
X38512500Y-53587500D03*
%TO.P,J2,3,Pin_3*%
%TO.N,GND*%
X37512500Y-53587500D03*
%TO.P,J2,4,Pin_4*%
%TO.N,+5V*%
X36512500Y-53587500D03*
%TO.P,J2,5,Pin_5*%
%TO.N,/S1*%
X35512500Y-53587500D03*
%TO.P,J2,6,Pin_6*%
%TO.N,/S2*%
X34512500Y-53587500D03*
%TO.P,J2,7,Pin_7*%
%TO.N,/S3*%
X33512500Y-53587500D03*
%TO.P,J2,8,Pin_8*%
%TO.N,/S4*%
X32512500Y-53587500D03*
D16*
%TO.P,J2,MP*%
%TO.N,N/C*%
X40812500Y-57462500D03*
X31212500Y-57462500D03*
%TD*%
D17*
%TO.P,C20,1*%
%TO.N,+3V3*%
X43712500Y-49687500D03*
%TO.P,C20,2*%
%TO.N,GND*%
X41812500Y-49687500D03*
%TD*%
D18*
%TO.P,C18,1*%
%TO.N,+1V8*%
X32312500Y-32737500D03*
%TO.P,C18,2*%
%TO.N,GND*%
X30762500Y-32737500D03*
%TD*%
D19*
%TO.P,R4,1*%
%TO.N,/IMU_SCK*%
X30852500Y-18087500D03*
%TO.P,R4,2*%
%TO.N,/SCK*%
X31872500Y-18087500D03*
%TD*%
D20*
%TO.P,U1,1,VCCA*%
%TO.N,+3V3*%
X32637500Y-26762500D03*
%TO.P,U1,2,GND*%
%TO.N,GND*%
X32637500Y-25812500D03*
%TO.P,U1,3,A*%
%TO.N,/INT1*%
X32637500Y-24862500D03*
%TO.P,U1,4,B*%
%TO.N,/IMU_INT*%
X34912500Y-24862500D03*
%TO.P,U1,5,DIR*%
%TO.N,GND*%
X34912500Y-25812500D03*
%TO.P,U1,6,VCCB*%
%TO.N,+1V8*%
X34912500Y-26762500D03*
%TD*%
%TO.P,U8,1,VCCA*%
%TO.N,+3V3*%
X27537500Y-26762500D03*
%TO.P,U8,2,GND*%
%TO.N,GND*%
X27537500Y-25812500D03*
%TO.P,U8,3,A*%
%TO.N,/MISO*%
X27537500Y-24862500D03*
%TO.P,U8,4,B*%
%TO.N,/IMU_MISO*%
X29812500Y-24862500D03*
%TO.P,U8,5,DIR*%
%TO.N,GND*%
X29812500Y-25812500D03*
%TO.P,U8,6,VCCB*%
%TO.N,+1V8*%
X29812500Y-26762500D03*
%TD*%
D21*
%TO.P,C19,1*%
%TO.N,V_MAIN*%
X36562500Y-47687500D03*
%TO.P,C19,2*%
%TO.N,GND*%
X36562500Y-49587500D03*
%TD*%
D22*
%TO.P,D1,1,A*%
%TO.N,+5V*%
X34512500Y-43837500D03*
%TO.P,D1,2,A*%
%TO.N,VBUS*%
X34512500Y-41937500D03*
%TO.P,D1,3,K*%
%TO.N,V_MAIN*%
X36387500Y-42887500D03*
%TD*%
D23*
%TO.P,U5,1,GND*%
%TO.N,GND*%
X39562500Y-46687500D03*
%TO.P,U5,2,VO*%
%TO.N,+3V3*%
X39562500Y-44387500D03*
D24*
X45862500Y-44387500D03*
D23*
%TO.P,U5,3,VI*%
%TO.N,V_MAIN*%
X39562500Y-42087500D03*
%TD*%
D25*
%TO.P,U6,1,IN*%
%TO.N,+3V3*%
X32312500Y-37025000D03*
%TO.P,U6,2,GND*%
%TO.N,GND*%
X31362500Y-37025000D03*
%TO.P,U6,3,EN*%
%TO.N,+3V3*%
X30412500Y-37025000D03*
%TO.P,U6,4,NC*%
%TO.N,unconnected-(U6-NC-Pad4)*%
X30412500Y-34750000D03*
%TO.P,U6,5,OUT*%
%TO.N,+1V8*%
X32312500Y-34750000D03*
%TD*%
D18*
%TO.P,C17,1*%
%TO.N,+3V3*%
X32112500Y-39750000D03*
%TO.P,C17,2*%
%TO.N,GND*%
X30562500Y-39750000D03*
%TD*%
D26*
%TO.P,R3,1*%
%TO.N,GND*%
X31872500Y-16987500D03*
%TO.P,R3,2*%
%TO.N,/IMU_SCK*%
X30852500Y-16987500D03*
%TD*%
D27*
%TO.N,/S1*%
X35512500Y-54752500D03*
%TO.N,GND*%
X43012500Y-18962500D03*
X38887500Y-48900000D03*
X40237500Y-48900000D03*
X32374329Y-18949201D03*
X41000000Y-31650000D03*
X50012500Y-41962500D03*
X17012500Y-38962500D03*
X38142500Y-46692500D03*
X35987500Y-25812500D03*
X40237500Y-49575000D03*
X37512500Y-54712500D03*
X20012500Y-25962500D03*
X44700000Y-30912500D03*
X33687500Y-33062500D03*
X23587500Y-34112500D03*
X28850000Y-17500000D03*
X45012500Y-20962500D03*
X48012500Y-39962500D03*
X25012500Y-43962500D03*
X27012500Y-47962500D03*
X28912500Y-54712500D03*
X22612500Y-30287499D03*
X28092500Y-32222500D03*
X27452500Y-33002500D03*
X50012500Y-43962500D03*
X24012500Y-25962500D03*
X25012500Y-47962500D03*
X39562500Y-48900000D03*
X43012500Y-20962500D03*
X54212500Y-40787500D03*
X31212500Y-25812500D03*
X48012500Y-41962500D03*
X27012500Y-49962500D03*
X31912500Y-44562500D03*
X21012500Y-42962500D03*
X48012500Y-45962500D03*
X23012500Y-42962500D03*
X25012500Y-45962500D03*
X25962500Y-29162500D03*
X17012500Y-40962500D03*
X52162500Y-34187500D03*
X26012500Y-38212500D03*
X26462500Y-25812500D03*
X19012500Y-38962500D03*
X31600163Y-38406155D03*
X17012500Y-42962500D03*
X27012500Y-45962500D03*
X33655735Y-19169265D03*
X17012500Y-29237500D03*
X42450000Y-46050000D03*
X38562500Y-24175000D03*
X28462500Y-21012500D03*
X43012500Y-16962500D03*
X19012500Y-42962500D03*
X45012500Y-22962500D03*
X19012500Y-40962500D03*
X22012500Y-25962500D03*
X33152500Y-16312500D03*
X45012500Y-16962500D03*
X39562500Y-49575000D03*
X28390000Y-42885000D03*
X21012500Y-40962500D03*
X49359735Y-35515265D03*
X42042500Y-42800000D03*
X45012500Y-18962500D03*
X29562500Y-32737500D03*
X20737500Y-37662500D03*
X38887500Y-49550000D03*
X40112500Y-52362500D03*
X42262500Y-25900000D03*
X31600000Y-30500000D03*
X48012500Y-43962500D03*
%TO.N,+3V3*%
X35312500Y-21462500D03*
X29612500Y-30462500D03*
X26462500Y-26762500D03*
X52362500Y-42887500D03*
X32712500Y-41687500D03*
X41062500Y-43062500D03*
X27912500Y-54712500D03*
X31556793Y-26768207D03*
X28262500Y-34262500D03*
X17012500Y-33962500D03*
X41062500Y-26862500D03*
X33125000Y-39750000D03*
X42262500Y-23387500D03*
X43262500Y-46562500D03*
X44162500Y-46562500D03*
X42652500Y-32622500D03*
X40912500Y-22562500D03*
X44162500Y-47262500D03*
X24987500Y-41462500D03*
X43262500Y-47262500D03*
%TO.N,/NRST*%
X28012500Y-28962500D03*
X28912500Y-37112500D03*
%TO.N,V_MAIN*%
X37712500Y-47712500D03*
%TO.N,VBUS*%
X49087500Y-37687500D03*
%TO.N,+1V8*%
X30287500Y-23612500D03*
X28600999Y-23624001D03*
X33112500Y-23237500D03*
%TO.N,/IMU_MISO*%
X30887500Y-24862500D03*
%TO.N,/MISO*%
X30211500Y-28562500D03*
%TO.N,/IMU_INT*%
X34912500Y-23862500D03*
%TO.N,/INT1*%
X35142500Y-30187500D03*
X33787500Y-29187500D03*
X39462500Y-37712500D03*
%TO.N,/MOSI*%
X35762500Y-27812500D03*
X35762500Y-29312500D03*
%TO.N,/IMU_SCK*%
X30863235Y-18763235D03*
%TO.N,/SCK*%
X38412500Y-23287500D03*
X38412500Y-30412500D03*
%TO.N,/CS1*%
X38262500Y-34912500D03*
X36337500Y-21187500D03*
%TO.N,/S2*%
X34512500Y-52462500D03*
%TO.N,/S3*%
X33512500Y-52462500D03*
%TO.N,/S4*%
X32512500Y-52462500D03*
%TO.N,/CS2*%
X39012500Y-36062500D03*
X39012500Y-27337500D03*
%TO.N,/INT2*%
X40312500Y-26212500D03*
X40212500Y-38862500D03*
%TO.N,/GPS_RX*%
X30912500Y-47962500D03*
X28812500Y-46862500D03*
%TO.N,/ELRS_RX*%
X43612500Y-52137500D03*
X41637500Y-52137500D03*
%TD*%
D28*
%TO.N,GND*%
X29812500Y-25812500D02*
X31212500Y-25812500D01*
X36562500Y-49587500D02*
X36517500Y-49587500D01*
D29*
X31362500Y-37025000D02*
X31362500Y-38950000D01*
X39562500Y-46687500D02*
X38147500Y-46687500D01*
X30600000Y-39750000D02*
X30562500Y-39750000D01*
X31362500Y-38950000D02*
X30562500Y-39750000D01*
D28*
X30762500Y-32737500D02*
X29562500Y-32737500D01*
D30*
X32612500Y-25787500D02*
X32637500Y-25812500D01*
D29*
X38147500Y-46687500D02*
X38142500Y-46692500D01*
D30*
X32537500Y-16987500D02*
X31872500Y-16987500D01*
X33152500Y-16372500D02*
X32537500Y-16987500D01*
D28*
X37512500Y-53587500D02*
X37512500Y-54712500D01*
X35987500Y-25812500D02*
X34912500Y-25812500D01*
D30*
X33152500Y-16312500D02*
X33152500Y-16372500D01*
D28*
X31212500Y-25812500D02*
X32637500Y-25812500D01*
D30*
X27537500Y-25812500D02*
X26462500Y-25812500D01*
D29*
%TO.N,+3V3*%
X30863501Y-35911500D02*
X31861499Y-35911500D01*
D28*
X31562500Y-26762500D02*
X32637500Y-26762500D01*
D29*
X31861499Y-35911500D02*
X32312500Y-36362501D01*
X32312500Y-37025000D02*
X32612500Y-37325000D01*
D28*
X31556793Y-26768207D02*
X31562500Y-26762500D01*
D29*
X30412500Y-36362501D02*
X30863501Y-35911500D01*
D30*
X26462500Y-26762500D02*
X27537500Y-26762500D01*
D29*
X30412500Y-37025000D02*
X30412500Y-36362501D01*
X32612500Y-37325000D02*
X32612500Y-39250000D01*
X32312500Y-36362501D02*
X32312500Y-37025000D01*
D28*
X33125000Y-39750000D02*
X32112500Y-39750000D01*
D29*
X32612500Y-39250000D02*
X32112500Y-39750000D01*
D28*
%TO.N,/NRST*%
X28912500Y-29487500D02*
X28912500Y-37112500D01*
X28387500Y-28962500D02*
X28912500Y-29487500D01*
X28012500Y-28962500D02*
X28387500Y-28962500D01*
D29*
%TO.N,V_MAIN*%
X36587500Y-47712500D02*
X36562500Y-47687500D01*
X37712500Y-47712500D02*
X36587500Y-47712500D01*
%TO.N,VBUS*%
X48095900Y-37687500D02*
X45795900Y-39987500D01*
X35862500Y-39987500D02*
X34512500Y-41337500D01*
X49087500Y-37687500D02*
X48095900Y-37687500D01*
X34512500Y-41337500D02*
X34512500Y-41937500D01*
X45795900Y-39987500D02*
X35862500Y-39987500D01*
D28*
%TO.N,+1V8*%
X32312500Y-32737500D02*
X34492500Y-30557500D01*
D30*
X32737500Y-23612500D02*
X33112500Y-23237500D01*
X28600999Y-23624001D02*
X28600999Y-25905467D01*
D28*
X32312500Y-29262500D02*
X29812500Y-26762500D01*
D30*
X28605000Y-23620000D02*
X28600999Y-23624001D01*
D28*
X34492500Y-30557500D02*
X34492500Y-27182500D01*
D30*
X29458032Y-26762500D02*
X29812500Y-26762500D01*
X28612500Y-23612500D02*
X30287500Y-23612500D01*
X30287500Y-23612500D02*
X32737500Y-23612500D01*
D28*
X32312500Y-32737500D02*
X32312500Y-29262500D01*
D29*
X32312500Y-34750000D02*
X32312500Y-32737500D01*
D28*
X34492500Y-27182500D02*
X34912500Y-26762500D01*
D30*
X28605000Y-23620000D02*
X28612500Y-23612500D01*
X28600999Y-25905467D02*
X29458032Y-26762500D01*
%TO.N,/IMU_MISO*%
X30887500Y-24862500D02*
X29812500Y-24862500D01*
%TO.N,/MISO*%
X25862500Y-25262500D02*
X26262500Y-24862500D01*
X27425000Y-24712500D02*
X28087499Y-24712500D01*
X26262500Y-24862500D02*
X27537500Y-24862500D01*
X25862500Y-27412500D02*
X25862500Y-25262500D01*
X30062500Y-28413500D02*
X30038500Y-28413500D01*
X29687500Y-28062500D02*
X26512500Y-28062500D01*
X30211500Y-28562500D02*
X30062500Y-28413500D01*
X30038500Y-28413500D02*
X29687500Y-28062500D01*
X26512500Y-28062500D02*
X25862500Y-27412500D01*
%TO.N,/IMU_INT*%
X34912500Y-23862500D02*
X34912500Y-24862500D01*
%TO.N,/INT1*%
X39462500Y-37712500D02*
X35142500Y-33392500D01*
X33787500Y-25312500D02*
X33337500Y-24862500D01*
X35142500Y-33392500D02*
X35142500Y-30187500D01*
X33337500Y-24862500D02*
X32637500Y-24862500D01*
X33787500Y-29187500D02*
X33787500Y-25312500D01*
%TO.N,/MOSI*%
X35762500Y-27812500D02*
X35762500Y-29312500D01*
%TO.N,/IMU_SCK*%
X30852500Y-18087500D02*
X30852500Y-16987500D01*
X30863235Y-18708365D02*
X30862500Y-18707630D01*
X30862500Y-18097500D02*
X30852500Y-18087500D01*
X30862500Y-18707630D02*
X30862500Y-18097500D01*
X30863235Y-18763235D02*
X30863235Y-18708365D01*
%TO.N,/SCK*%
X37962500Y-29962500D02*
X37962500Y-23737500D01*
X37962500Y-23737500D02*
X38412500Y-23287500D01*
X38412500Y-22387500D02*
X34112500Y-18087500D01*
X38412500Y-30412500D02*
X37962500Y-29962500D01*
X38412500Y-23287500D02*
X38412500Y-22387500D01*
X34112500Y-18087500D02*
X31872500Y-18087500D01*
%TO.N,/CS1*%
X36337500Y-24454600D02*
X36337500Y-21187500D01*
X37061500Y-25178600D02*
X36337500Y-24454600D01*
X37061500Y-33711500D02*
X37061500Y-25178600D01*
X38262500Y-34912500D02*
X37061500Y-33711500D01*
D28*
%TO.N,/S2*%
X34512500Y-53587500D02*
X34512500Y-52462500D01*
%TO.N,/S3*%
X33512500Y-53587500D02*
X33512500Y-52462500D01*
%TO.N,/S4*%
X32512500Y-53587500D02*
X32512500Y-52462500D01*
D30*
%TO.N,/CS2*%
X39012500Y-36062500D02*
X39012500Y-27337500D01*
%TO.N,/INT2*%
X40212500Y-38839500D02*
X40212500Y-38862500D01*
X40312500Y-26212500D02*
X40211500Y-26313500D01*
X40211500Y-38838500D02*
X40212500Y-38839500D01*
X40211500Y-26313500D02*
X40211500Y-38838500D01*
D28*
%TO.N,/GPS_RX*%
X30912500Y-47962500D02*
X30412500Y-47462500D01*
X30412500Y-47462500D02*
X29412500Y-47462500D01*
X29412500Y-47462500D02*
X28812500Y-46862500D01*
%TO.N,/ELRS_RX*%
X41637500Y-52137500D02*
X43612500Y-52137500D01*
%TO.N,/S1*%
X35512500Y-53587500D02*
X35512500Y-54752500D01*
%TD*%
%TA.AperFunction,Conductor*%
%TO.N,V_MAIN*%
G36*
X40378177Y-41307185D02*
G01*
X40398819Y-41323819D01*
X40576181Y-41501181D01*
X40609666Y-41562504D01*
X40612500Y-41588862D01*
X40612500Y-42586138D01*
X40592815Y-42653177D01*
X40576181Y-42673819D01*
X40398819Y-42851181D01*
X40337496Y-42884666D01*
X40311138Y-42887500D01*
X38462499Y-42887500D01*
X37312500Y-44037499D01*
X37312500Y-47986138D01*
X37292815Y-48053177D01*
X37276181Y-48073819D01*
X37098819Y-48251181D01*
X37037496Y-48284666D01*
X37011138Y-48287500D01*
X36113862Y-48287500D01*
X36046823Y-48267815D01*
X36026181Y-48251181D01*
X35848819Y-48073819D01*
X35815334Y-48012496D01*
X35812500Y-47986138D01*
X35812500Y-43988862D01*
X35832185Y-43921823D01*
X35848819Y-43901181D01*
X36537500Y-43212500D01*
X37187500Y-43212500D01*
X37187500Y-42562500D01*
X38426181Y-41323819D01*
X38487504Y-41290334D01*
X38513862Y-41287500D01*
X40311138Y-41287500D01*
X40378177Y-41307185D01*
G37*
%TD.AperFunction*%
%TD*%
%TA.AperFunction,Conductor*%
%TO.N,+5V*%
G36*
X35203177Y-43532185D02*
G01*
X35223819Y-43548819D01*
X35226181Y-43551181D01*
X35259666Y-43612504D01*
X35262500Y-43638862D01*
X35262500Y-44038500D01*
X35242815Y-44105539D01*
X35190011Y-44151294D01*
X35138500Y-44162500D01*
X34462499Y-44162500D01*
X34312500Y-44312499D01*
X34312500Y-49337500D01*
X36826181Y-51851181D01*
X36859666Y-51912504D01*
X36862500Y-51938862D01*
X36862500Y-54363500D01*
X36842815Y-54430539D01*
X36790011Y-54476294D01*
X36738500Y-54487500D01*
X36286500Y-54487500D01*
X36219461Y-54467815D01*
X36173706Y-54415011D01*
X36162500Y-54363500D01*
X36162500Y-52662501D01*
X36162500Y-52662500D01*
X34513997Y-50992377D01*
X33148249Y-49608717D01*
X33115165Y-49547177D01*
X33112500Y-49521609D01*
X33112500Y-44294890D01*
X33132185Y-44227851D01*
X33146037Y-44210081D01*
X33306894Y-44038500D01*
X33763278Y-43551690D01*
X33823489Y-43516247D01*
X33853740Y-43512500D01*
X35136138Y-43512500D01*
X35203177Y-43532185D01*
G37*
%TD.AperFunction*%
%TD*%
%TA.AperFunction,Conductor*%
%TO.N,GND*%
G36*
X40662007Y-46137007D02*
G01*
X40660243Y-48389512D01*
X40660000Y-48700000D01*
X40862500Y-48887500D01*
X42162500Y-48887500D01*
X42412500Y-49137500D01*
X42412500Y-50237500D01*
X42162500Y-50487500D01*
X41462500Y-50487500D01*
X41162500Y-50187500D01*
X36012500Y-50187500D01*
X35772500Y-49947500D01*
X35772500Y-49227500D01*
X36012500Y-48987500D01*
X38162500Y-48987500D01*
X38462500Y-48687500D01*
X38462500Y-46137500D01*
X38762500Y-45837500D01*
X40362500Y-45837500D01*
X40662007Y-46137007D01*
G37*
%TD.AperFunction*%
%TD*%
%TA.AperFunction,Conductor*%
%TO.N,+3V3*%
G36*
X46628177Y-42407185D02*
G01*
X46648819Y-42423819D01*
X46976181Y-42751181D01*
X47009666Y-42812504D01*
X47012500Y-42838862D01*
X47012500Y-45936138D01*
X46992815Y-46003177D01*
X46976181Y-46023819D01*
X46648819Y-46351181D01*
X46587496Y-46384666D01*
X46561138Y-46387500D01*
X44662499Y-46387500D01*
X44312500Y-46737499D01*
X44312500Y-50186138D01*
X44292815Y-50253177D01*
X44276181Y-50273819D01*
X44048819Y-50501181D01*
X43987496Y-50534666D01*
X43961138Y-50537500D01*
X43463862Y-50537500D01*
X43396823Y-50517815D01*
X43376181Y-50501181D01*
X43148819Y-50273819D01*
X43115334Y-50212496D01*
X43112500Y-50186138D01*
X43112500Y-45537500D01*
X42812500Y-45237500D01*
X38863862Y-45237500D01*
X38796823Y-45217815D01*
X38776181Y-45201181D01*
X38498819Y-44923819D01*
X38465334Y-44862496D01*
X38462500Y-44836138D01*
X38462500Y-43938862D01*
X38482185Y-43871823D01*
X38498819Y-43851181D01*
X38776181Y-43573819D01*
X38837504Y-43540334D01*
X38863862Y-43537500D01*
X44512500Y-43537500D01*
X44762500Y-43287500D01*
X44762500Y-42838862D01*
X44782185Y-42771823D01*
X44798819Y-42751181D01*
X45126181Y-42423819D01*
X45187504Y-42390334D01*
X45213862Y-42387500D01*
X46561138Y-42387500D01*
X46628177Y-42407185D01*
G37*
%TD.AperFunction*%
%TD*%
%TA.AperFunction,Conductor*%
%TO.N,V_MAIN*%
G36*
X37187500Y-43212500D02*
G01*
X35763862Y-43212500D01*
X35734421Y-43203855D01*
X35704435Y-43197332D01*
X35699419Y-43193577D01*
X35696823Y-43192815D01*
X35676181Y-43176181D01*
X35673819Y-43173819D01*
X35640334Y-43112496D01*
X35637500Y-43086138D01*
X35637500Y-42688862D01*
X35657185Y-42621823D01*
X35673819Y-42601181D01*
X35676181Y-42598819D01*
X35737504Y-42565334D01*
X35763862Y-42562500D01*
X37187500Y-42562500D01*
X37187500Y-43212500D01*
G37*
%TD.AperFunction*%
%TD*%
%TA.AperFunction,Conductor*%
%TO.N,GND*%
G36*
X28143538Y-25582185D02*
G01*
X28189293Y-25634989D01*
X28200499Y-25686500D01*
X28200499Y-25938500D01*
X28180814Y-26005539D01*
X28128010Y-26051294D01*
X28076499Y-26062500D01*
X27661500Y-26062500D01*
X27594461Y-26042815D01*
X27548706Y-25990011D01*
X27537500Y-25938500D01*
X27537500Y-25686500D01*
X27557185Y-25619461D01*
X27609989Y-25573706D01*
X27661500Y-25562500D01*
X28076499Y-25562500D01*
X28143538Y-25582185D01*
G37*
%TD.AperFunction*%
%TA.AperFunction,Conductor*%
G36*
X29755539Y-25582185D02*
G01*
X29801294Y-25634989D01*
X29812500Y-25686500D01*
X29812500Y-25938500D01*
X29792815Y-26005539D01*
X29740011Y-26051294D01*
X29688500Y-26062500D01*
X29375786Y-26062500D01*
X29308747Y-26042815D01*
X29288105Y-26026181D01*
X29200424Y-25938500D01*
X29037818Y-25775893D01*
X29023114Y-25748965D01*
X29006522Y-25723147D01*
X29005630Y-25716946D01*
X29004333Y-25714570D01*
X29001499Y-25688212D01*
X29001499Y-25686500D01*
X29021184Y-25619461D01*
X29073988Y-25573706D01*
X29125499Y-25562500D01*
X29688500Y-25562500D01*
X29755539Y-25582185D01*
G37*
%TD.AperFunction*%
%TA.AperFunction,Conductor*%
G36*
X33330039Y-25582185D02*
G01*
X33375794Y-25634989D01*
X33387000Y-25686500D01*
X33387000Y-25938500D01*
X33367315Y-26005539D01*
X33314511Y-26051294D01*
X33263000Y-26062500D01*
X32761500Y-26062500D01*
X32694461Y-26042815D01*
X32648706Y-25990011D01*
X32637500Y-25938500D01*
X32637500Y-25686500D01*
X32657185Y-25619461D01*
X32709989Y-25573706D01*
X32761500Y-25562500D01*
X33263000Y-25562500D01*
X33330039Y-25582185D01*
G37*
%TD.AperFunction*%
%TA.AperFunction,Conductor*%
G36*
X34855539Y-25582185D02*
G01*
X34901294Y-25634989D01*
X34912500Y-25686500D01*
X34912500Y-25938500D01*
X34892815Y-26005539D01*
X34840011Y-26051294D01*
X34788500Y-26062500D01*
X34312000Y-26062500D01*
X34244961Y-26042815D01*
X34199206Y-25990011D01*
X34188000Y-25938500D01*
X34188000Y-25686500D01*
X34207685Y-25619461D01*
X34260489Y-25573706D01*
X34312000Y-25562500D01*
X34788500Y-25562500D01*
X34855539Y-25582185D01*
G37*
%TD.AperFunction*%
%TA.AperFunction,Conductor*%
G36*
X50764942Y-14488095D02*
G01*
X51184237Y-14504569D01*
X51189520Y-14504892D01*
X51287932Y-14513046D01*
X51292186Y-14513473D01*
X51659348Y-14556930D01*
X51665052Y-14557743D01*
X51757957Y-14573247D01*
X51761694Y-14573931D01*
X52129554Y-14647103D01*
X52135691Y-14648489D01*
X52218792Y-14669533D01*
X52221999Y-14670391D01*
X52302980Y-14693229D01*
X52591695Y-14774655D01*
X52598240Y-14776699D01*
X52666507Y-14800136D01*
X52668967Y-14801011D01*
X53042710Y-14938893D01*
X53049579Y-14941665D01*
X53095497Y-14961807D01*
X53097580Y-14962743D01*
X53252110Y-15033982D01*
X53479513Y-15138816D01*
X53486609Y-15142367D01*
X53490747Y-15144606D01*
X53498696Y-15148907D01*
X53500086Y-15149673D01*
X53892983Y-15369707D01*
X53901267Y-15374782D01*
X54284867Y-15631096D01*
X54292743Y-15636819D01*
X54655039Y-15922429D01*
X54662437Y-15928747D01*
X55001215Y-16241911D01*
X55008088Y-16248784D01*
X55232062Y-16491077D01*
X55321247Y-16587556D01*
X55327570Y-16594960D01*
X55613180Y-16957256D01*
X55618903Y-16965132D01*
X55875204Y-17348714D01*
X55880291Y-17357016D01*
X56100289Y-17749850D01*
X56101156Y-17751425D01*
X56107628Y-17763385D01*
X56111182Y-17770485D01*
X56287246Y-18152398D01*
X56288191Y-18154501D01*
X56308333Y-18200419D01*
X56311114Y-18207311D01*
X56448961Y-18580960D01*
X56449898Y-18583593D01*
X56466827Y-18632904D01*
X56473286Y-18651719D01*
X56475349Y-18658323D01*
X56579607Y-19027999D01*
X56580467Y-19031215D01*
X56601495Y-19114247D01*
X56602907Y-19120498D01*
X56676064Y-19488288D01*
X56676756Y-19492068D01*
X56692247Y-19584895D01*
X56693079Y-19590732D01*
X56736518Y-19957750D01*
X56736953Y-19962083D01*
X56745103Y-20060432D01*
X56745431Y-20065805D01*
X56761904Y-20485056D01*
X56762000Y-20489924D01*
X56762000Y-50485075D01*
X56761904Y-50489943D01*
X56745431Y-50909193D01*
X56745103Y-50914566D01*
X56736953Y-51012915D01*
X56736518Y-51017248D01*
X56693079Y-51384266D01*
X56692247Y-51390103D01*
X56676756Y-51482930D01*
X56676064Y-51486710D01*
X56602907Y-51854500D01*
X56601495Y-51860751D01*
X56580467Y-51943783D01*
X56579607Y-51946999D01*
X56475349Y-52316675D01*
X56473286Y-52323279D01*
X56449907Y-52391381D01*
X56448961Y-52394038D01*
X56311114Y-52767687D01*
X56308333Y-52774579D01*
X56288191Y-52820497D01*
X56287246Y-52822600D01*
X56111182Y-53204513D01*
X56107628Y-53211613D01*
X56101156Y-53223573D01*
X56100290Y-53225148D01*
X55880292Y-53617983D01*
X55875204Y-53626285D01*
X55618903Y-54009867D01*
X55613180Y-54017743D01*
X55327570Y-54380039D01*
X55321247Y-54387443D01*
X55008094Y-54726209D01*
X55001209Y-54733094D01*
X54662443Y-55046247D01*
X54655039Y-55052570D01*
X54292743Y-55338180D01*
X54284867Y-55343903D01*
X53901285Y-55600204D01*
X53892983Y-55605292D01*
X53500148Y-55825290D01*
X53498573Y-55826156D01*
X53486613Y-55832628D01*
X53479513Y-55836182D01*
X53097600Y-56012246D01*
X53095497Y-56013191D01*
X53049579Y-56033333D01*
X53042687Y-56036114D01*
X52669038Y-56173961D01*
X52666381Y-56174907D01*
X52598279Y-56198286D01*
X52591675Y-56200349D01*
X52221999Y-56304607D01*
X52218783Y-56305467D01*
X52135751Y-56326495D01*
X52129500Y-56327907D01*
X51761710Y-56401064D01*
X51757930Y-56401756D01*
X51665103Y-56417247D01*
X51659266Y-56418079D01*
X51292248Y-56461518D01*
X51287915Y-56461953D01*
X51189566Y-56470103D01*
X51184193Y-56470431D01*
X50764943Y-56486904D01*
X50760075Y-56487000D01*
X50668014Y-56487000D01*
X50481381Y-56516560D01*
X50457067Y-56524460D01*
X50457061Y-56524462D01*
X50452338Y-56525996D01*
X50451324Y-56526175D01*
X50447475Y-56527575D01*
X50445409Y-56528247D01*
X50301671Y-56574951D01*
X50269311Y-56591438D01*
X50269310Y-56591437D01*
X50262543Y-56594884D01*
X50254389Y-56597853D01*
X50236871Y-56607967D01*
X50233957Y-56609452D01*
X50133307Y-56660736D01*
X50133295Y-56660743D01*
X50091473Y-56691126D01*
X50091474Y-56691127D01*
X50086207Y-56694953D01*
X50072894Y-56702640D01*
X50055247Y-56717447D01*
X50051731Y-56720002D01*
X50051723Y-56720008D01*
X49980426Y-56771810D01*
X49980420Y-56771815D01*
X49928093Y-56824141D01*
X49912351Y-56837351D01*
X49899141Y-56853093D01*
X49846815Y-56905420D01*
X49846810Y-56905426D01*
X49795008Y-56976723D01*
X49792448Y-56980246D01*
X49777640Y-56997894D01*
X49769954Y-57011206D01*
X49766129Y-57016471D01*
X49735743Y-57058295D01*
X49735736Y-57058307D01*
X49684452Y-57158957D01*
X49682967Y-57161870D01*
X49672853Y-57179389D01*
X49669884Y-57187546D01*
X49666440Y-57194305D01*
X49666438Y-57194311D01*
X49649951Y-57226671D01*
X49603249Y-57370399D01*
X49603250Y-57370400D01*
X49602576Y-57372474D01*
X49601175Y-57376324D01*
X49600996Y-57377338D01*
X49599462Y-57382061D01*
X49599460Y-57382067D01*
X49591560Y-57406381D01*
X49562000Y-57593013D01*
X49562000Y-57682623D01*
X49561618Y-57692353D01*
X49549007Y-57852570D01*
X49547506Y-57864370D01*
X49541773Y-57896887D01*
X49540230Y-57904304D01*
X49507105Y-58042280D01*
X49503052Y-58055745D01*
X49494985Y-58077908D01*
X49493025Y-58082949D01*
X49434994Y-58223049D01*
X49426160Y-58240386D01*
X49338015Y-58384225D01*
X49326579Y-58399966D01*
X49217013Y-58528253D01*
X49203253Y-58542013D01*
X49074966Y-58651579D01*
X49059225Y-58663015D01*
X48915386Y-58751160D01*
X48898049Y-58759994D01*
X48757949Y-58818025D01*
X48752908Y-58819985D01*
X48730745Y-58828052D01*
X48717280Y-58832105D01*
X48579304Y-58865230D01*
X48571887Y-58866773D01*
X48539370Y-58872506D01*
X48527570Y-58874007D01*
X48367353Y-58886618D01*
X48357623Y-58887000D01*
X41351552Y-58887000D01*
X41284513Y-58867315D01*
X41238758Y-58814511D01*
X41228814Y-58745353D01*
X41257839Y-58681797D01*
X41306060Y-58647646D01*
X41434842Y-58596861D01*
X41555422Y-58505422D01*
X41646861Y-58384842D01*
X41702377Y-58244064D01*
X41713000Y-58155602D01*
X41713000Y-56769398D01*
X41702377Y-56680936D01*
X41646861Y-56540158D01*
X41646860Y-56540157D01*
X41646860Y-56540156D01*
X41555422Y-56419577D01*
X41434843Y-56328139D01*
X41294061Y-56272622D01*
X41248426Y-56267142D01*
X41205602Y-56262000D01*
X40419398Y-56262000D01*
X40380353Y-56266688D01*
X40330938Y-56272622D01*
X40190156Y-56328139D01*
X40069577Y-56419577D01*
X39978139Y-56540156D01*
X39922622Y-56680938D01*
X39917932Y-56720001D01*
X39912000Y-56769398D01*
X39912000Y-58155602D01*
X39917626Y-58202454D01*
X39922622Y-58244061D01*
X39978139Y-58384843D01*
X40069577Y-58505422D01*
X40190156Y-58596860D01*
X40190157Y-58596860D01*
X40190158Y-58596861D01*
X40318939Y-58647646D01*
X40374082Y-58690551D01*
X40397275Y-58756459D01*
X40381155Y-58824444D01*
X40330838Y-58872920D01*
X40273448Y-58887000D01*
X31751552Y-58887000D01*
X31684513Y-58867315D01*
X31638758Y-58814511D01*
X31628814Y-58745353D01*
X31657839Y-58681797D01*
X31706060Y-58647646D01*
X31834842Y-58596861D01*
X31955422Y-58505422D01*
X32046861Y-58384842D01*
X32102377Y-58244064D01*
X32113000Y-58155602D01*
X32113000Y-56769398D01*
X32102377Y-56680936D01*
X32046861Y-56540158D01*
X32046860Y-56540157D01*
X32046860Y-56540156D01*
X31955422Y-56419577D01*
X31834843Y-56328139D01*
X31694061Y-56272622D01*
X31648426Y-56267142D01*
X31605602Y-56262000D01*
X30819398Y-56262000D01*
X30780353Y-56266688D01*
X30730938Y-56272622D01*
X30590156Y-56328139D01*
X30469577Y-56419577D01*
X30378139Y-56540156D01*
X30322622Y-56680938D01*
X30317932Y-56720001D01*
X30312000Y-56769398D01*
X30312000Y-58155602D01*
X30317626Y-58202454D01*
X30322622Y-58244061D01*
X30378139Y-58384843D01*
X30469577Y-58505422D01*
X30590156Y-58596860D01*
X30590157Y-58596860D01*
X30590158Y-58596861D01*
X30718939Y-58647646D01*
X30774082Y-58690551D01*
X30797275Y-58756459D01*
X30781155Y-58824444D01*
X30730838Y-58872920D01*
X30673448Y-58887000D01*
X23167377Y-58887000D01*
X23157647Y-58886618D01*
X22997428Y-58874007D01*
X22985628Y-58872506D01*
X22962395Y-58868409D01*
X22953105Y-58866771D01*
X22945694Y-58865230D01*
X22807718Y-58832105D01*
X22794253Y-58828052D01*
X22772090Y-58819985D01*
X22767049Y-58818025D01*
X22626949Y-58759994D01*
X22609612Y-58751160D01*
X22465774Y-58663016D01*
X22450033Y-58651580D01*
X22393375Y-58603190D01*
X22321746Y-58542013D01*
X22307986Y-58528253D01*
X22257869Y-58469573D01*
X22198416Y-58399961D01*
X22186987Y-58384230D01*
X22098833Y-58240376D01*
X22090007Y-58223056D01*
X22031966Y-58082931D01*
X22030013Y-58077908D01*
X22021946Y-58055745D01*
X22017898Y-58042298D01*
X21984761Y-57904274D01*
X21983235Y-57896938D01*
X21977489Y-57864350D01*
X21975991Y-57852568D01*
X21963382Y-57692353D01*
X21963000Y-57682624D01*
X21963000Y-57593013D01*
X21946876Y-57491217D01*
X21933440Y-57406382D01*
X21924004Y-57377342D01*
X21923825Y-57376324D01*
X21922418Y-57372461D01*
X21900379Y-57304633D01*
X21875049Y-57226672D01*
X21858565Y-57194320D01*
X21858160Y-57193527D01*
X21855120Y-57187560D01*
X21852147Y-57179389D01*
X21842019Y-57161847D01*
X21789260Y-57058301D01*
X21789258Y-57058298D01*
X21789257Y-57058296D01*
X21758872Y-57016476D01*
X21758872Y-57016475D01*
X21755053Y-57011218D01*
X21747360Y-56997894D01*
X21732539Y-56980231D01*
X21730002Y-56976739D01*
X21729992Y-56976726D01*
X21729990Y-56976723D01*
X21678190Y-56905427D01*
X21625868Y-56853105D01*
X21612649Y-56837351D01*
X21596894Y-56824131D01*
X21544572Y-56771809D01*
X21473266Y-56720001D01*
X21473266Y-56720002D01*
X21469772Y-56717463D01*
X21452106Y-56702640D01*
X21438775Y-56694943D01*
X21391699Y-56660740D01*
X21391691Y-56660736D01*
X21291033Y-56609448D01*
X21291033Y-56609447D01*
X21288131Y-56607968D01*
X21270611Y-56597853D01*
X21262450Y-56594882D01*
X21255690Y-56591438D01*
X21255684Y-56591436D01*
X21223340Y-56574957D01*
X21223332Y-56574953D01*
X21079612Y-56528255D01*
X21079612Y-56528254D01*
X21077525Y-56527576D01*
X21073676Y-56526175D01*
X21072663Y-56525996D01*
X21067947Y-56524464D01*
X21067936Y-56524461D01*
X21043619Y-56516560D01*
X20856986Y-56487000D01*
X20856981Y-56487000D01*
X20764925Y-56487000D01*
X20760057Y-56486904D01*
X20340805Y-56470431D01*
X20335432Y-56470103D01*
X20237083Y-56461953D01*
X20232750Y-56461518D01*
X19952573Y-56428357D01*
X19865723Y-56418077D01*
X19859895Y-56417247D01*
X19767068Y-56401756D01*
X19763288Y-56401064D01*
X19395498Y-56327907D01*
X19389251Y-56326496D01*
X19382161Y-56324700D01*
X19306215Y-56305467D01*
X19302999Y-56304607D01*
X18933323Y-56200349D01*
X18926719Y-56198286D01*
X18907904Y-56191827D01*
X18858593Y-56174898D01*
X18855960Y-56173961D01*
X18482311Y-56036114D01*
X18475419Y-56033333D01*
X18429501Y-56013191D01*
X18427398Y-56012246D01*
X18045485Y-55836182D01*
X18038385Y-55832628D01*
X18026425Y-55826156D01*
X18024850Y-55825289D01*
X17632016Y-55605291D01*
X17623714Y-55600204D01*
X17240132Y-55343903D01*
X17232256Y-55338180D01*
X16869960Y-55052570D01*
X16862556Y-55046247D01*
X16826589Y-55012999D01*
X16523784Y-54733088D01*
X16516911Y-54726215D01*
X16203747Y-54387437D01*
X16197429Y-54380039D01*
X15911819Y-54017743D01*
X15906096Y-54009867D01*
X15823450Y-53886179D01*
X15649782Y-53626267D01*
X15644707Y-53617983D01*
X15424673Y-53225086D01*
X15423907Y-53223696D01*
X15417367Y-53211609D01*
X15413816Y-53204513D01*
X15237752Y-52822600D01*
X15236807Y-52820497D01*
X15216665Y-52774579D01*
X15213893Y-52767710D01*
X15076011Y-52393967D01*
X15075136Y-52391507D01*
X15051699Y-52323240D01*
X15049655Y-52316695D01*
X14955257Y-51981981D01*
X14945391Y-51946999D01*
X14944531Y-51943783D01*
X14923489Y-51860691D01*
X14922103Y-51854554D01*
X14848931Y-51486694D01*
X14848242Y-51482930D01*
X14832743Y-51390052D01*
X14831930Y-51384348D01*
X14788473Y-51017187D01*
X14788045Y-51012915D01*
X14779892Y-50914520D01*
X14779569Y-50909237D01*
X14764463Y-50524732D01*
X16212000Y-50524732D01*
X16212000Y-50900267D01*
X16244729Y-51274365D01*
X16309938Y-51644179D01*
X16309941Y-51644192D01*
X16407130Y-52006910D01*
X16535568Y-52359793D01*
X16694271Y-52700133D01*
X16694279Y-52700148D01*
X16733273Y-52767687D01*
X16882040Y-53025358D01*
X16882044Y-53025364D01*
X16882051Y-53025375D01*
X17097434Y-53332974D01*
X17171913Y-53421734D01*
X17338818Y-53620644D01*
X17604356Y-53886182D01*
X17723968Y-53986548D01*
X17892025Y-54127565D01*
X18199624Y-54342948D01*
X18199631Y-54342952D01*
X18199642Y-54342960D01*
X18342401Y-54425382D01*
X18524851Y-54530720D01*
X18524866Y-54530728D01*
X18865206Y-54689431D01*
X19128979Y-54785436D01*
X19218083Y-54817867D01*
X19218084Y-54817867D01*
X19218089Y-54817869D01*
X19332042Y-54848402D01*
X19580815Y-54915061D01*
X19950637Y-54980271D01*
X20324734Y-55012999D01*
X20324735Y-55013000D01*
X20324736Y-55013000D01*
X20700265Y-55013000D01*
X20700265Y-55012999D01*
X21074363Y-54980271D01*
X21444185Y-54915061D01*
X21806917Y-54817867D01*
X22111041Y-54707175D01*
X22159793Y-54689431D01*
X22159794Y-54689430D01*
X22159798Y-54689429D01*
X22279860Y-54633443D01*
X27312000Y-54633443D01*
X27312000Y-54791557D01*
X27340308Y-54897202D01*
X27352923Y-54944283D01*
X27352926Y-54944290D01*
X27431975Y-55081209D01*
X27431979Y-55081214D01*
X27431980Y-55081216D01*
X27543784Y-55193020D01*
X27543786Y-55193021D01*
X27543790Y-55193024D01*
X27680709Y-55272073D01*
X27680716Y-55272077D01*
X27833443Y-55313000D01*
X27833445Y-55313000D01*
X27991555Y-55313000D01*
X27991557Y-55313000D01*
X28144284Y-55272077D01*
X28281216Y-55193020D01*
X28393020Y-55081216D01*
X28472077Y-54944284D01*
X28513000Y-54791557D01*
X28513000Y-54633443D01*
X28472077Y-54480716D01*
X28440129Y-54425380D01*
X28393024Y-54343790D01*
X28393018Y-54343782D01*
X28281217Y-54231981D01*
X28281209Y-54231975D01*
X28144290Y-54152926D01*
X28144286Y-54152924D01*
X28144284Y-54152923D01*
X27991557Y-54112000D01*
X27833443Y-54112000D01*
X27680716Y-54152923D01*
X27680709Y-54152926D01*
X27543790Y-54231975D01*
X27543782Y-54231981D01*
X27431981Y-54343782D01*
X27431975Y-54343790D01*
X27352926Y-54480709D01*
X27352923Y-54480716D01*
X27312000Y-54633443D01*
X22279860Y-54633443D01*
X22500142Y-54530724D01*
X22524587Y-54516611D01*
X22640701Y-54449572D01*
X22825358Y-54342960D01*
X23132973Y-54127566D01*
X23420644Y-53886182D01*
X23686182Y-53620644D01*
X23927566Y-53332973D01*
X24142960Y-53025358D01*
X24330724Y-52700142D01*
X24489429Y-52359798D01*
X24505125Y-52316675D01*
X24551782Y-52188483D01*
X24617867Y-52006917D01*
X24715061Y-51644185D01*
X24780271Y-51274363D01*
X24813000Y-50900264D01*
X24813000Y-50524736D01*
X24780271Y-50150637D01*
X24715061Y-49780815D01*
X24629501Y-49461500D01*
X24617869Y-49418089D01*
X24489431Y-49065206D01*
X24330728Y-48724866D01*
X24330720Y-48724851D01*
X24309155Y-48687499D01*
X24142960Y-48399642D01*
X24142952Y-48399631D01*
X24142948Y-48399624D01*
X23927565Y-48092025D01*
X23777345Y-47913000D01*
X23686182Y-47804356D01*
X23420644Y-47538818D01*
X23281516Y-47422076D01*
X23132974Y-47297434D01*
X22825375Y-47082051D01*
X22825364Y-47082044D01*
X22825358Y-47082040D01*
X22728733Y-47026253D01*
X22500148Y-46894279D01*
X22500124Y-46894267D01*
X22486037Y-46887698D01*
X22486036Y-46887698D01*
X22262461Y-46783443D01*
X28212000Y-46783443D01*
X28212000Y-46941557D01*
X28249643Y-47082040D01*
X28252923Y-47094283D01*
X28252926Y-47094290D01*
X28331975Y-47231209D01*
X28331979Y-47231214D01*
X28331980Y-47231216D01*
X28443784Y-47343020D01*
X28443786Y-47343021D01*
X28443790Y-47343024D01*
X28547540Y-47402923D01*
X28580716Y-47422077D01*
X28733443Y-47463000D01*
X28733445Y-47463000D01*
X28740599Y-47463942D01*
X28804496Y-47492207D01*
X28812097Y-47499200D01*
X29135886Y-47822989D01*
X29238613Y-47882299D01*
X29262821Y-47888784D01*
X29262824Y-47888786D01*
X29262825Y-47888786D01*
X29292947Y-47896857D01*
X29353191Y-47913000D01*
X30174535Y-47913000D01*
X30203975Y-47921644D01*
X30233962Y-47928168D01*
X30238977Y-47931922D01*
X30241574Y-47932685D01*
X30262216Y-47949319D01*
X30275799Y-47962902D01*
X30309284Y-48024225D01*
X30311056Y-48034393D01*
X30311998Y-48041550D01*
X30352923Y-48194283D01*
X30352926Y-48194290D01*
X30431975Y-48331209D01*
X30431979Y-48331214D01*
X30431980Y-48331216D01*
X30543784Y-48443020D01*
X30543786Y-48443021D01*
X30543790Y-48443024D01*
X30675927Y-48519312D01*
X30680716Y-48522077D01*
X30833443Y-48563000D01*
X30833445Y-48563000D01*
X30991555Y-48563000D01*
X30991557Y-48563000D01*
X31144284Y-48522077D01*
X31281216Y-48443020D01*
X31393020Y-48331216D01*
X31472077Y-48194284D01*
X31513000Y-48041557D01*
X31513000Y-47883443D01*
X31472077Y-47730716D01*
X31457758Y-47705914D01*
X31393024Y-47593790D01*
X31393018Y-47593782D01*
X31281217Y-47481981D01*
X31281209Y-47481975D01*
X31144290Y-47402926D01*
X31144286Y-47402924D01*
X31144284Y-47402923D01*
X30991557Y-47362000D01*
X30991550Y-47361998D01*
X30984393Y-47361056D01*
X30920497Y-47332787D01*
X30912902Y-47325799D01*
X30689116Y-47102013D01*
X30689114Y-47102011D01*
X30637750Y-47072356D01*
X30586388Y-47042701D01*
X30574280Y-47039457D01*
X30562173Y-47036213D01*
X30562170Y-47036212D01*
X30523978Y-47025978D01*
X30471809Y-47012000D01*
X30471808Y-47012000D01*
X29650465Y-47012000D01*
X29621024Y-47003355D01*
X29591038Y-46996832D01*
X29586022Y-46993077D01*
X29583426Y-46992315D01*
X29562784Y-46975681D01*
X29449200Y-46862097D01*
X29415715Y-46800774D01*
X29413942Y-46790599D01*
X29413000Y-46783445D01*
X29413000Y-46783443D01*
X29372077Y-46630716D01*
X29365492Y-46619310D01*
X29293024Y-46493790D01*
X29293018Y-46493782D01*
X29181217Y-46381981D01*
X29181209Y-46381975D01*
X29044290Y-46302926D01*
X29044286Y-46302924D01*
X29044284Y-46302923D01*
X28891557Y-46262000D01*
X28733443Y-46262000D01*
X28580716Y-46302923D01*
X28580709Y-46302926D01*
X28443790Y-46381975D01*
X28443782Y-46381981D01*
X28331981Y-46493782D01*
X28331975Y-46493790D01*
X28252926Y-46630709D01*
X28252923Y-46630716D01*
X28212000Y-46783443D01*
X22262461Y-46783443D01*
X22159793Y-46735568D01*
X21806910Y-46607130D01*
X21444192Y-46509941D01*
X21444195Y-46509941D01*
X21444185Y-46509939D01*
X21352555Y-46493782D01*
X21074365Y-46444729D01*
X20700267Y-46412000D01*
X20700264Y-46412000D01*
X20324736Y-46412000D01*
X20324732Y-46412000D01*
X19950634Y-46444729D01*
X19580820Y-46509938D01*
X19580817Y-46509938D01*
X19580815Y-46509939D01*
X19580810Y-46509940D01*
X19580807Y-46509941D01*
X19218089Y-46607130D01*
X18865206Y-46735568D01*
X18524866Y-46894271D01*
X18524851Y-46894279D01*
X18199650Y-47082035D01*
X18199624Y-47082051D01*
X17892025Y-47297434D01*
X17604353Y-47538820D01*
X17338820Y-47804353D01*
X17097434Y-48092025D01*
X16882051Y-48399624D01*
X16882035Y-48399650D01*
X16694279Y-48724851D01*
X16694271Y-48724866D01*
X16535568Y-49065206D01*
X16407130Y-49418089D01*
X16309941Y-49780807D01*
X16309938Y-49780820D01*
X16244729Y-50150634D01*
X16212000Y-50524732D01*
X14764463Y-50524732D01*
X14763096Y-50489943D01*
X14763000Y-50485075D01*
X14763000Y-41383443D01*
X24387000Y-41383443D01*
X24387000Y-41541557D01*
X24407862Y-41619413D01*
X24427923Y-41694283D01*
X24427926Y-41694290D01*
X24506975Y-41831209D01*
X24506979Y-41831214D01*
X24506980Y-41831216D01*
X24618784Y-41943020D01*
X24618786Y-41943021D01*
X24618790Y-41943024D01*
X24701703Y-41990893D01*
X24755716Y-42022077D01*
X24908443Y-42063000D01*
X24908445Y-42063000D01*
X25066555Y-42063000D01*
X25066557Y-42063000D01*
X25219284Y-42022077D01*
X25356216Y-41943020D01*
X25468020Y-41831216D01*
X25547077Y-41694284D01*
X25588000Y-41541557D01*
X25588000Y-41383443D01*
X25547077Y-41230716D01*
X25476119Y-41107812D01*
X25468024Y-41093790D01*
X25468018Y-41093782D01*
X25356217Y-40981981D01*
X25356209Y-40981975D01*
X25219290Y-40902926D01*
X25219286Y-40902924D01*
X25219284Y-40902923D01*
X25066557Y-40862000D01*
X24908443Y-40862000D01*
X24755716Y-40902923D01*
X24755709Y-40902926D01*
X24618790Y-40981975D01*
X24618782Y-40981981D01*
X24506981Y-41093782D01*
X24506975Y-41093790D01*
X24427926Y-41230709D01*
X24427923Y-41230716D01*
X24387000Y-41383443D01*
X14763000Y-41383443D01*
X14763000Y-40048322D01*
X29612501Y-40048322D01*
X29622644Y-40147607D01*
X29675952Y-40308481D01*
X29675957Y-40308492D01*
X29764924Y-40452728D01*
X29764927Y-40452732D01*
X29884767Y-40572572D01*
X29884771Y-40572575D01*
X30029007Y-40661542D01*
X30029018Y-40661547D01*
X30189893Y-40714855D01*
X30289183Y-40724999D01*
X30312500Y-40724998D01*
X30312500Y-40000000D01*
X29612501Y-40000000D01*
X29612501Y-40048322D01*
X14763000Y-40048322D01*
X14763000Y-39451677D01*
X29612500Y-39451677D01*
X29612500Y-39500000D01*
X30312500Y-39500000D01*
X30312500Y-38774999D01*
X30289193Y-38775000D01*
X30289174Y-38775001D01*
X30189892Y-38785144D01*
X30029018Y-38838452D01*
X30029007Y-38838457D01*
X29884771Y-38927424D01*
X29884767Y-38927427D01*
X29764927Y-39047267D01*
X29764924Y-39047271D01*
X29675957Y-39191507D01*
X29675952Y-39191518D01*
X29622644Y-39352393D01*
X29612500Y-39451677D01*
X14763000Y-39451677D01*
X14763000Y-33151571D01*
X15881999Y-33151571D01*
X15906997Y-33277238D01*
X15906999Y-33277244D01*
X15956033Y-33395624D01*
X15956038Y-33395633D01*
X16027223Y-33502168D01*
X16027226Y-33502172D01*
X16117827Y-33592773D01*
X16117831Y-33592776D01*
X16224366Y-33663961D01*
X16224379Y-33663968D01*
X16345721Y-33714229D01*
X16400125Y-33758070D01*
X16422190Y-33824364D01*
X16418045Y-33860879D01*
X16412000Y-33883440D01*
X16412000Y-33883443D01*
X16412000Y-34041557D01*
X16441808Y-34152800D01*
X16452923Y-34194283D01*
X16452926Y-34194290D01*
X16531975Y-34331209D01*
X16531979Y-34331214D01*
X16531980Y-34331216D01*
X16643784Y-34443020D01*
X16643786Y-34443021D01*
X16643790Y-34443024D01*
X16732587Y-34494290D01*
X16780716Y-34522077D01*
X16933443Y-34563000D01*
X16933445Y-34563000D01*
X17091555Y-34563000D01*
X17091557Y-34563000D01*
X17244284Y-34522077D01*
X17381216Y-34443020D01*
X17493020Y-34331216D01*
X17572077Y-34194284D01*
X17613000Y-34041557D01*
X17613000Y-33883443D01*
X17572077Y-33730716D01*
X17547415Y-33688000D01*
X17493024Y-33593790D01*
X17493018Y-33593782D01*
X17381217Y-33481981D01*
X17381209Y-33481975D01*
X17244290Y-33402926D01*
X17244287Y-33402924D01*
X17244284Y-33402923D01*
X17244280Y-33402922D01*
X17236777Y-33399814D01*
X17237997Y-33396866D01*
X17191136Y-33368288D01*
X17160620Y-33305434D01*
X17161291Y-33260706D01*
X17183000Y-33151571D01*
X17183000Y-33023428D01*
X17158002Y-32897761D01*
X17158001Y-32897760D01*
X17158001Y-32897756D01*
X17120074Y-32806192D01*
X17108966Y-32779375D01*
X17108961Y-32779366D01*
X17037776Y-32672831D01*
X17037773Y-32672827D01*
X16947172Y-32582226D01*
X16947168Y-32582223D01*
X16840633Y-32511038D01*
X16840624Y-32511033D01*
X16722244Y-32461999D01*
X16722238Y-32461997D01*
X16596571Y-32437000D01*
X16596569Y-32437000D01*
X16468431Y-32437000D01*
X16468429Y-32437000D01*
X16342761Y-32461997D01*
X16342755Y-32461999D01*
X16224375Y-32511033D01*
X16224366Y-32511038D01*
X16117831Y-32582223D01*
X16117827Y-32582226D01*
X16027226Y-32672827D01*
X16027223Y-32672831D01*
X15956038Y-32779366D01*
X15956033Y-32779375D01*
X15906999Y-32897755D01*
X15906997Y-32897761D01*
X15882000Y-33023428D01*
X15882000Y-33023431D01*
X15882000Y-33151569D01*
X15882000Y-33151571D01*
X15881999Y-33151571D01*
X14763000Y-33151571D01*
X14763000Y-30151571D01*
X15881999Y-30151571D01*
X15906997Y-30277238D01*
X15906999Y-30277244D01*
X15956033Y-30395624D01*
X15956038Y-30395633D01*
X16027223Y-30502168D01*
X16027226Y-30502172D01*
X16117827Y-30592773D01*
X16117831Y-30592776D01*
X16224366Y-30663961D01*
X16224372Y-30663964D01*
X16224373Y-30663965D01*
X16342756Y-30713001D01*
X16342760Y-30713001D01*
X16342761Y-30713002D01*
X16468428Y-30738000D01*
X16468431Y-30738000D01*
X16596571Y-30738000D01*
X16681115Y-30721182D01*
X16722244Y-30713001D01*
X16840627Y-30663965D01*
X16947169Y-30592776D01*
X17037776Y-30502169D01*
X17108965Y-30395627D01*
X17158001Y-30277244D01*
X17183000Y-30151569D01*
X17183000Y-30023431D01*
X17183000Y-30023428D01*
X17158002Y-29897761D01*
X17158001Y-29897760D01*
X17158001Y-29897756D01*
X17114326Y-29792315D01*
X17108966Y-29779375D01*
X17108961Y-29779366D01*
X17037776Y-29672831D01*
X17037773Y-29672827D01*
X16947172Y-29582226D01*
X16947168Y-29582223D01*
X16840633Y-29511038D01*
X16840624Y-29511033D01*
X16722244Y-29461999D01*
X16722238Y-29461997D01*
X16596571Y-29437000D01*
X16596569Y-29437000D01*
X16468431Y-29437000D01*
X16468429Y-29437000D01*
X16342761Y-29461997D01*
X16342755Y-29461999D01*
X16224375Y-29511033D01*
X16224366Y-29511038D01*
X16117831Y-29582223D01*
X16117827Y-29582226D01*
X16027226Y-29672827D01*
X16027223Y-29672831D01*
X15956038Y-29779366D01*
X15956033Y-29779375D01*
X15906999Y-29897755D01*
X15906997Y-29897761D01*
X15882000Y-30023428D01*
X15882000Y-30023431D01*
X15882000Y-30151569D01*
X15882000Y-30151571D01*
X15881999Y-30151571D01*
X14763000Y-30151571D01*
X14763000Y-25209773D01*
X25462000Y-25209773D01*
X25462000Y-25216596D01*
X25462000Y-27465226D01*
X25489293Y-27567089D01*
X25506285Y-27596519D01*
X25542020Y-27658413D01*
X26266587Y-28382980D01*
X26357912Y-28435707D01*
X26459773Y-28463000D01*
X26565227Y-28463000D01*
X27392714Y-28463000D01*
X27459753Y-28482685D01*
X27505508Y-28535489D01*
X27515452Y-28604647D01*
X27500102Y-28648999D01*
X27452923Y-28730715D01*
X27452923Y-28730716D01*
X27412000Y-28883443D01*
X27412000Y-29041557D01*
X27444541Y-29163000D01*
X27452923Y-29194283D01*
X27452926Y-29194290D01*
X27531975Y-29331209D01*
X27531979Y-29331214D01*
X27531980Y-29331216D01*
X27643784Y-29443020D01*
X27643786Y-29443021D01*
X27643790Y-29443024D01*
X27761596Y-29511038D01*
X27780716Y-29522077D01*
X27933443Y-29563000D01*
X27933445Y-29563000D01*
X28091554Y-29563000D01*
X28091557Y-29563000D01*
X28226944Y-29526723D01*
X28238940Y-29527008D01*
X28250187Y-29522814D01*
X28273221Y-29527824D01*
X28296789Y-29528386D01*
X28308436Y-29535485D01*
X28318460Y-29537666D01*
X28346714Y-29558817D01*
X28425681Y-29637784D01*
X28459166Y-29699107D01*
X28462000Y-29725465D01*
X28462000Y-33538000D01*
X28442315Y-33605039D01*
X28389511Y-33650794D01*
X28338000Y-33662000D01*
X28183443Y-33662000D01*
X28030716Y-33702923D01*
X28030709Y-33702926D01*
X27893790Y-33781975D01*
X27893782Y-33781981D01*
X27781981Y-33893782D01*
X27781975Y-33893790D01*
X27702926Y-34030709D01*
X27702923Y-34030716D01*
X27662000Y-34183443D01*
X27662000Y-34341557D01*
X27689187Y-34443018D01*
X27702923Y-34494283D01*
X27702926Y-34494290D01*
X27781975Y-34631209D01*
X27781979Y-34631214D01*
X27781980Y-34631216D01*
X27893784Y-34743020D01*
X27893786Y-34743021D01*
X27893790Y-34743024D01*
X28030709Y-34822073D01*
X28030716Y-34822077D01*
X28183443Y-34863000D01*
X28183445Y-34863000D01*
X28338000Y-34863000D01*
X28405039Y-34882685D01*
X28450794Y-34935489D01*
X28462000Y-34987000D01*
X28462000Y-36662569D01*
X28442315Y-36729608D01*
X28436375Y-36738057D01*
X28431975Y-36743790D01*
X28352926Y-36880709D01*
X28352923Y-36880716D01*
X28312000Y-37033443D01*
X28312000Y-37191557D01*
X28346091Y-37318784D01*
X28352923Y-37344283D01*
X28352926Y-37344290D01*
X28431975Y-37481209D01*
X28431979Y-37481214D01*
X28431980Y-37481216D01*
X28543784Y-37593020D01*
X28543786Y-37593021D01*
X28543790Y-37593024D01*
X28594327Y-37622201D01*
X28680716Y-37672077D01*
X28833443Y-37713000D01*
X28833445Y-37713000D01*
X28991555Y-37713000D01*
X28991557Y-37713000D01*
X29144284Y-37672077D01*
X29281216Y-37593020D01*
X29393020Y-37481216D01*
X29472077Y-37344284D01*
X29513000Y-37191557D01*
X29513000Y-37033443D01*
X29472077Y-36880716D01*
X29438161Y-36821971D01*
X29393024Y-36743790D01*
X29393021Y-36743787D01*
X29393020Y-36743784D01*
X29393017Y-36743781D01*
X29388625Y-36738057D01*
X29363430Y-36672888D01*
X29363000Y-36662569D01*
X29363000Y-32439177D01*
X29812500Y-32439177D01*
X29812500Y-32487500D01*
X30512500Y-32487500D01*
X30512500Y-31762499D01*
X30489193Y-31762500D01*
X30489174Y-31762501D01*
X30389892Y-31772644D01*
X30229018Y-31825952D01*
X30229007Y-31825957D01*
X30084771Y-31914924D01*
X30084767Y-31914927D01*
X29964927Y-32034767D01*
X29964924Y-32034771D01*
X29875957Y-32179007D01*
X29875952Y-32179018D01*
X29822644Y-32339893D01*
X29812500Y-32439177D01*
X29363000Y-32439177D01*
X29363000Y-31178929D01*
X29382685Y-31111890D01*
X29435489Y-31066135D01*
X29504647Y-31056191D01*
X29519084Y-31059152D01*
X29533443Y-31063000D01*
X29533445Y-31063000D01*
X29691555Y-31063000D01*
X29691557Y-31063000D01*
X29844284Y-31022077D01*
X29981216Y-30943020D01*
X30093020Y-30831216D01*
X30172077Y-30694284D01*
X30213000Y-30541557D01*
X30213000Y-30383443D01*
X30172077Y-30230716D01*
X30162981Y-30214961D01*
X30093024Y-30093790D01*
X30093018Y-30093782D01*
X29981217Y-29981981D01*
X29981209Y-29981975D01*
X29844290Y-29902926D01*
X29844286Y-29902924D01*
X29844284Y-29902923D01*
X29691557Y-29862000D01*
X29533443Y-29862000D01*
X29533438Y-29862000D01*
X29519091Y-29865845D01*
X29449241Y-29864181D01*
X29391380Y-29825018D01*
X29363877Y-29760789D01*
X29363000Y-29746070D01*
X29363000Y-29428192D01*
X29358871Y-29412784D01*
X29338786Y-29337826D01*
X29338786Y-29337825D01*
X29338786Y-29337824D01*
X29336044Y-29327591D01*
X29332299Y-29313613D01*
X29272989Y-29210886D01*
X28736784Y-28674681D01*
X28703299Y-28613358D01*
X28708283Y-28543666D01*
X28750155Y-28487733D01*
X28815619Y-28463316D01*
X28824465Y-28463000D01*
X29470245Y-28463000D01*
X29499685Y-28471644D01*
X29529672Y-28478168D01*
X29534687Y-28481922D01*
X29537284Y-28482685D01*
X29557926Y-28499319D01*
X29574681Y-28516074D01*
X29608166Y-28577397D01*
X29611000Y-28603755D01*
X29611000Y-28641557D01*
X29637047Y-28738764D01*
X29651923Y-28794283D01*
X29651926Y-28794290D01*
X29730975Y-28931209D01*
X29730979Y-28931214D01*
X29730980Y-28931216D01*
X29842784Y-29043020D01*
X29842786Y-29043021D01*
X29842790Y-29043024D01*
X29961985Y-29111840D01*
X29979716Y-29122077D01*
X30132443Y-29163000D01*
X30132445Y-29163000D01*
X30290555Y-29163000D01*
X30290557Y-29163000D01*
X30443284Y-29122077D01*
X30580216Y-29043020D01*
X30692020Y-28931216D01*
X30771077Y-28794284D01*
X30807649Y-28657791D01*
X30844013Y-28598134D01*
X30906859Y-28567605D01*
X30976235Y-28575899D01*
X31015104Y-28602207D01*
X31825681Y-29412784D01*
X31859166Y-29474107D01*
X31862000Y-29500465D01*
X31862000Y-31937403D01*
X31860824Y-31941407D01*
X31861737Y-31945481D01*
X31851063Y-31974649D01*
X31842315Y-32004442D01*
X31838751Y-32008293D01*
X31837726Y-32011096D01*
X31812925Y-32036207D01*
X31750045Y-32083890D01*
X31684733Y-32108713D01*
X31616370Y-32094285D01*
X31569582Y-32050184D01*
X31560073Y-32034768D01*
X31440232Y-31914927D01*
X31440228Y-31914924D01*
X31295992Y-31825957D01*
X31295981Y-31825952D01*
X31135106Y-31772644D01*
X31035822Y-31762500D01*
X31012500Y-31762500D01*
X31012500Y-32613500D01*
X30992815Y-32680539D01*
X30940011Y-32726294D01*
X30888500Y-32737500D01*
X30762500Y-32737500D01*
X30762500Y-32863500D01*
X30742815Y-32930539D01*
X30690011Y-32976294D01*
X30638500Y-32987500D01*
X29812501Y-32987500D01*
X29812501Y-33035822D01*
X29822644Y-33135107D01*
X29875952Y-33295981D01*
X29875957Y-33295992D01*
X29964924Y-33440228D01*
X29964927Y-33440232D01*
X30084766Y-33560071D01*
X30134629Y-33590827D01*
X30181353Y-33642775D01*
X30192576Y-33711738D01*
X30164732Y-33775820D01*
X30110488Y-33813407D01*
X30049617Y-33834707D01*
X29940350Y-33915350D01*
X29859707Y-34024617D01*
X29859706Y-34024619D01*
X29814853Y-34152798D01*
X29814853Y-34152800D01*
X29812000Y-34183230D01*
X29812000Y-35316769D01*
X29814853Y-35347199D01*
X29814853Y-35347201D01*
X29859706Y-35475380D01*
X29859707Y-35475382D01*
X29940350Y-35584650D01*
X30049618Y-35665293D01*
X30071928Y-35673099D01*
X30128703Y-35713819D01*
X30154451Y-35778772D01*
X30140995Y-35847333D01*
X30118655Y-35877821D01*
X29971990Y-36024486D01*
X29950333Y-36061999D01*
X29950332Y-36062000D01*
X29899517Y-36150012D01*
X29899516Y-36150016D01*
X29862000Y-36290026D01*
X29862000Y-36290028D01*
X29859897Y-36297877D01*
X29859349Y-36297730D01*
X29857132Y-36306974D01*
X29814853Y-36427801D01*
X29812000Y-36458230D01*
X29812000Y-37591769D01*
X29814853Y-37622199D01*
X29814853Y-37622201D01*
X29859706Y-37750380D01*
X29859707Y-37750382D01*
X29940350Y-37859650D01*
X30049618Y-37940293D01*
X30092345Y-37955244D01*
X30177799Y-37985146D01*
X30208230Y-37988000D01*
X30208234Y-37988000D01*
X30616770Y-37988000D01*
X30647193Y-37985147D01*
X30647196Y-37985146D01*
X30647199Y-37985146D01*
X30647201Y-37985145D01*
X30654568Y-37983536D01*
X30655101Y-37985978D01*
X30712830Y-37983021D01*
X30771711Y-38015950D01*
X30810938Y-38055178D01*
X30810947Y-38055185D01*
X30952301Y-38138781D01*
X31110014Y-38184600D01*
X31110011Y-38184600D01*
X31112498Y-38184795D01*
X31112500Y-38184795D01*
X31112500Y-37149000D01*
X31132185Y-37081961D01*
X31184989Y-37036206D01*
X31236500Y-37025000D01*
X31488500Y-37025000D01*
X31555539Y-37044685D01*
X31601294Y-37097489D01*
X31612500Y-37149000D01*
X31612500Y-38184795D01*
X31612501Y-38184795D01*
X31614986Y-38184600D01*
X31772698Y-38138781D01*
X31874879Y-38078352D01*
X31942603Y-38061169D01*
X32008865Y-38083329D01*
X32052629Y-38137795D01*
X32062000Y-38185084D01*
X32062000Y-38850500D01*
X32042315Y-38917539D01*
X31989511Y-38963294D01*
X31938000Y-38974500D01*
X31846356Y-38974500D01*
X31808341Y-38979065D01*
X31761911Y-38984640D01*
X31627523Y-39037636D01*
X31550045Y-39096390D01*
X31484733Y-39121213D01*
X31416369Y-39106785D01*
X31369582Y-39062684D01*
X31360073Y-39047268D01*
X31240232Y-38927427D01*
X31240228Y-38927424D01*
X31095992Y-38838457D01*
X31095981Y-38838452D01*
X30935106Y-38785144D01*
X30835822Y-38775000D01*
X30812500Y-38775000D01*
X30812500Y-40724999D01*
X30835808Y-40724999D01*
X30835822Y-40724998D01*
X30935107Y-40714855D01*
X31095981Y-40661547D01*
X31095992Y-40661542D01*
X31240228Y-40572575D01*
X31240232Y-40572572D01*
X31360073Y-40452731D01*
X31369581Y-40437317D01*
X31421529Y-40390592D01*
X31490491Y-40379369D01*
X31550044Y-40403608D01*
X31627525Y-40462364D01*
X31761910Y-40515359D01*
X31846356Y-40525500D01*
X31846362Y-40525500D01*
X32378638Y-40525500D01*
X32378644Y-40525500D01*
X32463090Y-40515359D01*
X32597475Y-40462364D01*
X32712578Y-40375078D01*
X32736043Y-40344135D01*
X32792235Y-40302612D01*
X32861956Y-40298060D01*
X32885398Y-40307207D01*
X32885706Y-40306466D01*
X32893209Y-40309573D01*
X32893216Y-40309577D01*
X33045943Y-40350500D01*
X33045945Y-40350500D01*
X33204055Y-40350500D01*
X33204057Y-40350500D01*
X33356784Y-40309577D01*
X33493716Y-40230520D01*
X33605520Y-40118716D01*
X33684577Y-39981784D01*
X33725500Y-39829057D01*
X33725500Y-39670943D01*
X33684577Y-39518216D01*
X33646161Y-39451677D01*
X33605524Y-39381290D01*
X33605518Y-39381282D01*
X33493717Y-39269481D01*
X33493709Y-39269475D01*
X33356790Y-39190426D01*
X33356785Y-39190423D01*
X33254906Y-39163125D01*
X33195246Y-39126760D01*
X33164717Y-39063912D01*
X33163000Y-39043350D01*
X33163000Y-37252527D01*
X33163000Y-37252525D01*
X33125484Y-37112515D01*
X33110753Y-37087000D01*
X33053010Y-36986985D01*
X32949319Y-36883294D01*
X32915834Y-36821971D01*
X32913000Y-36795613D01*
X32913000Y-36458230D01*
X32910466Y-36431216D01*
X32910146Y-36427801D01*
X32867866Y-36306972D01*
X32865668Y-36297725D01*
X32865103Y-36297877D01*
X32863000Y-36290028D01*
X32863000Y-36290026D01*
X32825484Y-36150016D01*
X32774668Y-36062000D01*
X32753010Y-36024486D01*
X32606345Y-35877821D01*
X32572860Y-35816498D01*
X32577844Y-35746806D01*
X32619716Y-35690873D01*
X32653069Y-35673100D01*
X32675382Y-35665293D01*
X32784650Y-35584650D01*
X32865293Y-35475382D01*
X32905317Y-35361000D01*
X32910146Y-35347201D01*
X32910146Y-35347199D01*
X32913000Y-35316769D01*
X32913000Y-34183230D01*
X32910146Y-34152802D01*
X32910145Y-34152800D01*
X32871220Y-34041556D01*
X32869958Y-34037949D01*
X32863000Y-33996995D01*
X32863000Y-33461763D01*
X32882685Y-33394724D01*
X32906738Y-33368727D01*
X32906583Y-33368572D01*
X32910574Y-33364580D01*
X32912073Y-33362960D01*
X32912578Y-33362578D01*
X32999864Y-33247475D01*
X33052859Y-33113090D01*
X33063000Y-33028644D01*
X33063000Y-32675465D01*
X33082685Y-32608426D01*
X33099319Y-32587784D01*
X34530319Y-31156784D01*
X34591642Y-31123299D01*
X34661334Y-31128283D01*
X34717267Y-31170155D01*
X34741684Y-31235619D01*
X34742000Y-31244465D01*
X34742000Y-33445226D01*
X34769293Y-33547089D01*
X34776789Y-33560072D01*
X34822020Y-33638413D01*
X36833690Y-35650083D01*
X38825681Y-37642073D01*
X38859166Y-37703396D01*
X38862000Y-37729754D01*
X38862000Y-37791557D01*
X38901854Y-37940292D01*
X38902923Y-37944283D01*
X38902926Y-37944290D01*
X38981975Y-38081209D01*
X38981979Y-38081214D01*
X38981980Y-38081216D01*
X39093784Y-38193020D01*
X39093786Y-38193021D01*
X39093790Y-38193024D01*
X39187414Y-38247077D01*
X39230716Y-38272077D01*
X39383443Y-38313000D01*
X39383445Y-38313000D01*
X39541554Y-38313000D01*
X39541557Y-38313000D01*
X39603046Y-38296524D01*
X39672893Y-38298187D01*
X39730756Y-38337349D01*
X39758260Y-38401577D01*
X39746674Y-38470480D01*
X39733516Y-38491781D01*
X39731978Y-38493784D01*
X39652926Y-38630709D01*
X39652923Y-38630716D01*
X39612000Y-38783443D01*
X39612000Y-38941557D01*
X39639276Y-39043350D01*
X39652923Y-39094283D01*
X39652926Y-39094290D01*
X39731975Y-39231210D01*
X39736810Y-39237510D01*
X39762007Y-39302679D01*
X39747971Y-39371124D01*
X39699158Y-39421115D01*
X39638437Y-39437000D01*
X35790025Y-39437000D01*
X35685017Y-39465137D01*
X35650014Y-39474516D01*
X35524486Y-39546989D01*
X35524483Y-39546991D01*
X34071989Y-40999485D01*
X34027767Y-41076082D01*
X34027766Y-41076084D01*
X34022075Y-41085942D01*
X33999516Y-41125015D01*
X33965630Y-41251474D01*
X33964000Y-41256078D01*
X33946273Y-41280591D01*
X33930527Y-41306425D01*
X33926003Y-41308622D01*
X33923058Y-41312696D01*
X33894891Y-41323734D01*
X33867680Y-41336953D01*
X33858698Y-41338128D01*
X33840299Y-41339853D01*
X33840298Y-41339853D01*
X33712119Y-41384706D01*
X33712117Y-41384707D01*
X33669591Y-41416093D01*
X33602850Y-41465350D01*
X33546609Y-41541555D01*
X33516689Y-41582095D01*
X33514299Y-41580331D01*
X33476259Y-41619413D01*
X33408193Y-41635185D01*
X33342405Y-41611654D01*
X33299783Y-41556290D01*
X33295598Y-41543500D01*
X33272077Y-41455716D01*
X33249198Y-41416088D01*
X33193024Y-41318790D01*
X33193018Y-41318782D01*
X33081217Y-41206981D01*
X33081209Y-41206975D01*
X32944290Y-41127926D01*
X32944286Y-41127924D01*
X32944284Y-41127923D01*
X32791557Y-41087000D01*
X32633443Y-41087000D01*
X32480716Y-41127923D01*
X32480709Y-41127926D01*
X32343790Y-41206975D01*
X32343782Y-41206981D01*
X32231981Y-41318782D01*
X32231975Y-41318790D01*
X32152926Y-41455709D01*
X32152923Y-41455716D01*
X32112000Y-41608443D01*
X32112000Y-41766557D01*
X32129326Y-41831216D01*
X32152923Y-41919283D01*
X32152926Y-41919290D01*
X32231975Y-42056209D01*
X32231979Y-42056214D01*
X32231980Y-42056216D01*
X32343784Y-42168020D01*
X32343786Y-42168021D01*
X32343790Y-42168024D01*
X32425380Y-42215129D01*
X32480716Y-42247077D01*
X32633443Y-42288000D01*
X32633445Y-42288000D01*
X32791555Y-42288000D01*
X32791557Y-42288000D01*
X32944284Y-42247077D01*
X33081216Y-42168020D01*
X33193020Y-42056216D01*
X33243113Y-41969450D01*
X33293679Y-41921236D01*
X33362286Y-41908012D01*
X33427151Y-41933980D01*
X33467680Y-41990893D01*
X33474500Y-42031451D01*
X33474500Y-42141769D01*
X33477353Y-42172199D01*
X33477353Y-42172201D01*
X33522206Y-42300380D01*
X33522207Y-42300382D01*
X33602850Y-42409650D01*
X33712118Y-42490293D01*
X33748213Y-42502923D01*
X33840299Y-42535146D01*
X33870730Y-42538000D01*
X33870734Y-42538000D01*
X35154270Y-42538000D01*
X35184692Y-42535147D01*
X35184694Y-42535146D01*
X35184699Y-42535146D01*
X35184702Y-42535144D01*
X35184954Y-42535090D01*
X35185152Y-42535104D01*
X35192212Y-42534442D01*
X35192321Y-42535610D01*
X35254650Y-42540015D01*
X35310619Y-42581839D01*
X35335092Y-42647282D01*
X35334154Y-42673880D01*
X35332000Y-42688860D01*
X35332000Y-43086153D01*
X35332044Y-43087794D01*
X35332000Y-43087795D01*
X35332000Y-43087799D01*
X35331858Y-43087799D01*
X35331416Y-43087810D01*
X35315868Y-43153482D01*
X35265569Y-43201977D01*
X35197036Y-43215579D01*
X35190493Y-43214815D01*
X35147902Y-43208691D01*
X35136138Y-43207000D01*
X33853740Y-43207000D01*
X33826946Y-43208653D01*
X33816200Y-43209316D01*
X33816192Y-43209316D01*
X33816187Y-43209317D01*
X33816183Y-43209317D01*
X33816177Y-43209318D01*
X33785917Y-43213065D01*
X33774087Y-43214767D01*
X33774085Y-43214767D01*
X33668509Y-43252974D01*
X33668508Y-43252974D01*
X33608318Y-43288406D01*
X33608306Y-43288413D01*
X33608303Y-43288416D01*
X33574353Y-43315581D01*
X33540402Y-43342747D01*
X32923156Y-44001144D01*
X32905097Y-44022255D01*
X32891208Y-44040073D01*
X32889946Y-44041703D01*
X32839060Y-44141780D01*
X32819377Y-44208811D01*
X32807000Y-44294892D01*
X32807000Y-49521606D01*
X32808646Y-49553280D01*
X32808648Y-49553302D01*
X32811313Y-49578879D01*
X32811996Y-49584856D01*
X32811996Y-49584857D01*
X32811997Y-49584862D01*
X32811998Y-49584864D01*
X32846085Y-49691835D01*
X32879169Y-49753375D01*
X32930825Y-49823326D01*
X32930826Y-49823327D01*
X34748613Y-51664954D01*
X34781697Y-51726494D01*
X34776259Y-51796152D01*
X34734024Y-51851811D01*
X34668402Y-51875801D01*
X34628269Y-51871837D01*
X34591557Y-51862000D01*
X34433443Y-51862000D01*
X34280716Y-51902923D01*
X34280709Y-51902926D01*
X34143790Y-51981975D01*
X34143782Y-51981981D01*
X34100181Y-52025583D01*
X34038858Y-52059068D01*
X33969166Y-52054084D01*
X33924819Y-52025583D01*
X33881217Y-51981981D01*
X33881209Y-51981975D01*
X33744290Y-51902926D01*
X33744286Y-51902924D01*
X33744284Y-51902923D01*
X33591557Y-51862000D01*
X33433443Y-51862000D01*
X33280716Y-51902923D01*
X33280709Y-51902926D01*
X33143790Y-51981975D01*
X33143782Y-51981981D01*
X33100181Y-52025583D01*
X33038858Y-52059068D01*
X32969166Y-52054084D01*
X32924819Y-52025583D01*
X32881217Y-51981981D01*
X32881209Y-51981975D01*
X32744290Y-51902926D01*
X32744286Y-51902924D01*
X32744284Y-51902923D01*
X32591557Y-51862000D01*
X32433443Y-51862000D01*
X32280716Y-51902923D01*
X32280709Y-51902926D01*
X32143790Y-51981975D01*
X32143782Y-51981981D01*
X32031981Y-52093782D01*
X32031975Y-52093790D01*
X31952926Y-52230709D01*
X31952923Y-52230716D01*
X31912000Y-52383443D01*
X31912000Y-52541557D01*
X31952923Y-52694284D01*
X31954362Y-52699654D01*
X31952699Y-52769504D01*
X31951629Y-52772701D01*
X31914853Y-52877801D01*
X31912000Y-52908230D01*
X31912000Y-54266769D01*
X31914853Y-54297199D01*
X31914853Y-54297201D01*
X31959706Y-54425380D01*
X31959707Y-54425382D01*
X32040350Y-54534650D01*
X32149618Y-54615293D01*
X32192345Y-54630244D01*
X32277799Y-54660146D01*
X32308230Y-54663000D01*
X32308234Y-54663000D01*
X32716770Y-54663000D01*
X32747199Y-54660146D01*
X32747201Y-54660146D01*
X32823512Y-54633443D01*
X32875382Y-54615293D01*
X32938868Y-54568438D01*
X33004495Y-54544468D01*
X33072665Y-54559783D01*
X33086124Y-54568432D01*
X33149618Y-54615293D01*
X33192345Y-54630244D01*
X33277799Y-54660146D01*
X33308230Y-54663000D01*
X33308234Y-54663000D01*
X33716770Y-54663000D01*
X33747199Y-54660146D01*
X33747201Y-54660146D01*
X33823512Y-54633443D01*
X33875382Y-54615293D01*
X33938868Y-54568438D01*
X34004495Y-54544468D01*
X34072665Y-54559783D01*
X34086124Y-54568432D01*
X34149618Y-54615293D01*
X34192345Y-54630244D01*
X34277799Y-54660146D01*
X34308230Y-54663000D01*
X34308234Y-54663000D01*
X34716770Y-54663000D01*
X34747199Y-54660146D01*
X34754573Y-54658536D01*
X34754849Y-54659804D01*
X34816812Y-54656635D01*
X34877443Y-54691358D01*
X34909676Y-54753348D01*
X34912000Y-54777241D01*
X34912000Y-54831557D01*
X34951848Y-54980270D01*
X34952923Y-54984283D01*
X34952926Y-54984290D01*
X35031975Y-55121209D01*
X35031979Y-55121214D01*
X35031980Y-55121216D01*
X35143784Y-55233020D01*
X35143786Y-55233021D01*
X35143790Y-55233024D01*
X35211433Y-55272077D01*
X35280716Y-55312077D01*
X35433443Y-55353000D01*
X35433445Y-55353000D01*
X35591555Y-55353000D01*
X35591557Y-55353000D01*
X35744284Y-55312077D01*
X35881216Y-55233020D01*
X35993020Y-55121216D01*
X36072077Y-54984284D01*
X36100899Y-54876715D01*
X36137264Y-54817056D01*
X36200111Y-54786527D01*
X36238317Y-54786072D01*
X36286500Y-54793000D01*
X36286504Y-54793000D01*
X36738490Y-54793000D01*
X36738500Y-54793000D01*
X36803441Y-54786018D01*
X36854952Y-54774812D01*
X36893158Y-54763854D01*
X36893162Y-54763851D01*
X36900289Y-54760803D01*
X36900815Y-54762033D01*
X36960713Y-54747143D01*
X37018636Y-54764302D01*
X37102301Y-54813781D01*
X37260014Y-54859600D01*
X37260011Y-54859600D01*
X37262498Y-54859795D01*
X37262500Y-54859795D01*
X37762500Y-54859795D01*
X37762501Y-54859795D01*
X37764986Y-54859600D01*
X37922698Y-54813781D01*
X38064050Y-54730186D01*
X38064058Y-54730180D01*
X38116248Y-54677990D01*
X38177571Y-54644504D01*
X38244885Y-54648629D01*
X38277798Y-54660145D01*
X38277800Y-54660146D01*
X38308230Y-54663000D01*
X38308234Y-54663000D01*
X38716770Y-54663000D01*
X38747199Y-54660146D01*
X38747201Y-54660146D01*
X38823512Y-54633443D01*
X38875382Y-54615293D01*
X38938868Y-54568438D01*
X39004495Y-54544468D01*
X39072665Y-54559783D01*
X39086124Y-54568432D01*
X39149618Y-54615293D01*
X39192345Y-54630244D01*
X39277799Y-54660146D01*
X39308230Y-54663000D01*
X39308234Y-54663000D01*
X39716770Y-54663000D01*
X39747199Y-54660146D01*
X39747201Y-54660146D01*
X39823512Y-54633443D01*
X39875382Y-54615293D01*
X39984650Y-54534650D01*
X40065293Y-54425382D01*
X40094138Y-54342948D01*
X40110146Y-54297201D01*
X40110146Y-54297199D01*
X40113000Y-54266769D01*
X40113000Y-52908230D01*
X40110146Y-52877800D01*
X40110146Y-52877798D01*
X40072251Y-52769504D01*
X40065293Y-52749618D01*
X39984650Y-52640350D01*
X39875382Y-52559707D01*
X39875380Y-52559706D01*
X39747200Y-52514853D01*
X39716770Y-52512000D01*
X39716766Y-52512000D01*
X39308234Y-52512000D01*
X39308230Y-52512000D01*
X39277800Y-52514853D01*
X39277798Y-52514853D01*
X39149619Y-52559706D01*
X39149618Y-52559707D01*
X39110700Y-52588430D01*
X39086133Y-52606561D01*
X39020504Y-52630531D01*
X38952334Y-52615215D01*
X38938867Y-52606561D01*
X38927087Y-52597867D01*
X38875382Y-52559707D01*
X38875380Y-52559706D01*
X38747200Y-52514853D01*
X38716770Y-52512000D01*
X38716766Y-52512000D01*
X38308234Y-52512000D01*
X38308230Y-52512000D01*
X38277805Y-52514853D01*
X38277795Y-52514855D01*
X38244883Y-52526371D01*
X38175104Y-52529932D01*
X38116250Y-52497010D01*
X38064061Y-52444821D01*
X38064052Y-52444814D01*
X37922696Y-52361217D01*
X37922693Y-52361216D01*
X37764994Y-52315400D01*
X37764997Y-52315400D01*
X37762500Y-52315203D01*
X37762500Y-54859795D01*
X37262500Y-54859795D01*
X37262500Y-52322123D01*
X37216543Y-52286882D01*
X37201627Y-52266467D01*
X37183617Y-52248726D01*
X37180841Y-52238018D01*
X37175323Y-52230466D01*
X37174254Y-52212607D01*
X37168000Y-52188483D01*
X37168000Y-52058443D01*
X41037000Y-52058443D01*
X41037000Y-52216557D01*
X41075762Y-52361217D01*
X41077923Y-52369283D01*
X41077926Y-52369290D01*
X41156975Y-52506209D01*
X41156979Y-52506214D01*
X41156980Y-52506216D01*
X41268784Y-52618020D01*
X41268786Y-52618021D01*
X41268790Y-52618024D01*
X41400878Y-52694284D01*
X41405716Y-52697077D01*
X41558443Y-52738000D01*
X41558445Y-52738000D01*
X41716555Y-52738000D01*
X41716557Y-52738000D01*
X41869284Y-52697077D01*
X42006216Y-52618020D01*
X42006221Y-52618014D01*
X42011943Y-52613625D01*
X42077112Y-52588430D01*
X42087431Y-52588000D01*
X43162569Y-52588000D01*
X43229608Y-52607685D01*
X43238057Y-52613625D01*
X43243781Y-52618017D01*
X43243784Y-52618020D01*
X43243787Y-52618021D01*
X43243790Y-52618024D01*
X43375878Y-52694284D01*
X43380716Y-52697077D01*
X43533443Y-52738000D01*
X43533445Y-52738000D01*
X43691555Y-52738000D01*
X43691557Y-52738000D01*
X43844284Y-52697077D01*
X43981216Y-52618020D01*
X44093020Y-52506216D01*
X44172077Y-52369284D01*
X44213000Y-52216557D01*
X44213000Y-52058443D01*
X44172077Y-51905716D01*
X44170466Y-51902926D01*
X44093024Y-51768790D01*
X44093018Y-51768782D01*
X43981217Y-51656981D01*
X43981209Y-51656975D01*
X43844290Y-51577926D01*
X43844286Y-51577924D01*
X43844284Y-51577923D01*
X43691557Y-51537000D01*
X43533443Y-51537000D01*
X43380716Y-51577923D01*
X43380709Y-51577926D01*
X43243790Y-51656975D01*
X43238057Y-51661375D01*
X43172888Y-51686570D01*
X43162569Y-51687000D01*
X42087431Y-51687000D01*
X42020392Y-51667315D01*
X42011943Y-51661375D01*
X42006209Y-51656975D01*
X41869290Y-51577926D01*
X41869286Y-51577924D01*
X41869284Y-51577923D01*
X41716557Y-51537000D01*
X41558443Y-51537000D01*
X41405716Y-51577923D01*
X41405709Y-51577926D01*
X41268790Y-51656975D01*
X41268782Y-51656981D01*
X41156981Y-51768782D01*
X41156975Y-51768790D01*
X41077926Y-51905709D01*
X41077923Y-51905716D01*
X41037000Y-52058443D01*
X37168000Y-52058443D01*
X37168000Y-51938861D01*
X37167890Y-51936820D01*
X37166249Y-51906203D01*
X37163415Y-51879845D01*
X37162580Y-51872840D01*
X37128674Y-51768784D01*
X37127799Y-51766098D01*
X37127795Y-51766088D01*
X37094310Y-51704766D01*
X37042210Y-51635170D01*
X37042205Y-51635165D01*
X37042202Y-51635160D01*
X37042198Y-51635156D01*
X37042192Y-51635149D01*
X36206222Y-50799180D01*
X36172737Y-50737857D01*
X36177721Y-50668166D01*
X36219593Y-50612232D01*
X36285057Y-50587815D01*
X36293903Y-50587499D01*
X36312499Y-50587499D01*
X36312500Y-50587498D01*
X36312500Y-50187500D01*
X36812500Y-50187500D01*
X36812500Y-50587499D01*
X37087472Y-50587499D01*
X37087486Y-50587498D01*
X37190197Y-50577005D01*
X37356619Y-50521858D01*
X37356624Y-50521856D01*
X37505845Y-50429815D01*
X37629815Y-50305845D01*
X37702811Y-50187500D01*
X40812501Y-50187500D01*
X40812501Y-50212486D01*
X40822994Y-50315197D01*
X40878141Y-50481619D01*
X40878143Y-50481624D01*
X40970184Y-50630845D01*
X41094154Y-50754815D01*
X41243375Y-50846856D01*
X41243380Y-50846858D01*
X41409802Y-50902005D01*
X41409809Y-50902006D01*
X41512519Y-50912499D01*
X41562499Y-50912498D01*
X41562500Y-50912498D01*
X41562500Y-50487500D01*
X42062500Y-50487500D01*
X42062500Y-50912499D01*
X42112472Y-50912499D01*
X42112486Y-50912498D01*
X42215197Y-50902005D01*
X42381619Y-50846858D01*
X42381624Y-50846856D01*
X42530845Y-50754815D01*
X42654817Y-50630843D01*
X42732557Y-50504806D01*
X42784505Y-50458081D01*
X42853467Y-50446858D01*
X42917549Y-50474701D01*
X42931808Y-50488698D01*
X42932801Y-50489844D01*
X43055190Y-50612232D01*
X43160160Y-50717202D01*
X43181384Y-50736266D01*
X43184493Y-50739059D01*
X43205174Y-50755724D01*
X43210672Y-50760051D01*
X43210675Y-50760053D01*
X43310751Y-50810939D01*
X43377790Y-50830624D01*
X43463862Y-50843000D01*
X43463865Y-50843000D01*
X43961139Y-50843000D01*
X43963059Y-50842897D01*
X43993797Y-50841249D01*
X44020155Y-50838415D01*
X44027160Y-50837580D01*
X44133907Y-50802797D01*
X44195230Y-50769312D01*
X44207599Y-50760053D01*
X44237248Y-50737857D01*
X44264840Y-50717202D01*
X44457310Y-50524732D01*
X46712000Y-50524732D01*
X46712000Y-50900267D01*
X46744729Y-51274365D01*
X46809938Y-51644179D01*
X46809941Y-51644192D01*
X46907130Y-52006910D01*
X47035568Y-52359793D01*
X47194271Y-52700133D01*
X47194279Y-52700148D01*
X47233273Y-52767687D01*
X47382040Y-53025358D01*
X47382044Y-53025364D01*
X47382051Y-53025375D01*
X47597434Y-53332974D01*
X47671913Y-53421734D01*
X47838818Y-53620644D01*
X48104356Y-53886182D01*
X48223968Y-53986548D01*
X48392025Y-54127565D01*
X48699624Y-54342948D01*
X48699631Y-54342952D01*
X48699642Y-54342960D01*
X48842401Y-54425382D01*
X49024851Y-54530720D01*
X49024866Y-54530728D01*
X49365206Y-54689431D01*
X49628979Y-54785436D01*
X49718083Y-54817867D01*
X49718084Y-54817867D01*
X49718089Y-54817869D01*
X49832042Y-54848402D01*
X50080815Y-54915061D01*
X50450637Y-54980271D01*
X50824734Y-55012999D01*
X50824735Y-55013000D01*
X50824736Y-55013000D01*
X51200265Y-55013000D01*
X51200265Y-55012999D01*
X51574363Y-54980271D01*
X51944185Y-54915061D01*
X52306917Y-54817867D01*
X52611041Y-54707175D01*
X52659793Y-54689431D01*
X52659794Y-54689430D01*
X52659798Y-54689429D01*
X53000142Y-54530724D01*
X53325358Y-54342960D01*
X53632973Y-54127566D01*
X53920644Y-53886182D01*
X54186182Y-53620644D01*
X54427566Y-53332973D01*
X54642960Y-53025358D01*
X54830724Y-52700142D01*
X54989429Y-52359798D01*
X55005125Y-52316675D01*
X55051782Y-52188483D01*
X55117867Y-52006917D01*
X55215061Y-51644185D01*
X55280271Y-51274363D01*
X55313000Y-50900264D01*
X55313000Y-50524736D01*
X55280271Y-50150637D01*
X55215061Y-49780815D01*
X55129501Y-49461500D01*
X55117869Y-49418089D01*
X54989431Y-49065206D01*
X54830728Y-48724866D01*
X54830720Y-48724851D01*
X54809155Y-48687499D01*
X54642960Y-48399642D01*
X54642952Y-48399631D01*
X54642948Y-48399624D01*
X54427565Y-48092025D01*
X54277345Y-47913000D01*
X54186182Y-47804356D01*
X53920644Y-47538818D01*
X53781516Y-47422076D01*
X53632974Y-47297434D01*
X53325375Y-47082051D01*
X53325364Y-47082044D01*
X53325358Y-47082040D01*
X53228733Y-47026253D01*
X53000148Y-46894279D01*
X53000133Y-46894271D01*
X52659793Y-46735568D01*
X52306910Y-46607130D01*
X51944192Y-46509941D01*
X51944195Y-46509941D01*
X51944185Y-46509939D01*
X51852555Y-46493782D01*
X51574365Y-46444729D01*
X51200267Y-46412000D01*
X51200264Y-46412000D01*
X50824736Y-46412000D01*
X50824732Y-46412000D01*
X50450634Y-46444729D01*
X50080820Y-46509938D01*
X50080817Y-46509938D01*
X50080815Y-46509939D01*
X50080810Y-46509940D01*
X50080807Y-46509941D01*
X49718089Y-46607130D01*
X49365206Y-46735568D01*
X49024866Y-46894271D01*
X49024851Y-46894279D01*
X48699650Y-47082035D01*
X48699624Y-47082051D01*
X48392025Y-47297434D01*
X48104353Y-47538820D01*
X47838820Y-47804353D01*
X47597434Y-48092025D01*
X47382051Y-48399624D01*
X47382035Y-48399650D01*
X47194279Y-48724851D01*
X47194271Y-48724866D01*
X47035568Y-49065206D01*
X46907130Y-49418089D01*
X46809941Y-49780807D01*
X46809938Y-49780820D01*
X46744729Y-50150634D01*
X46712000Y-50524732D01*
X44457310Y-50524732D01*
X44492202Y-50489840D01*
X44514058Y-50465508D01*
X44530692Y-50444866D01*
X44530703Y-50444852D01*
X44530728Y-50444821D01*
X44535052Y-50439326D01*
X44535053Y-50439325D01*
X44585939Y-50339249D01*
X44605624Y-50272210D01*
X44618000Y-50186138D01*
X44618000Y-47705914D01*
X44637685Y-47638875D01*
X44642794Y-47631607D01*
X44643020Y-47631216D01*
X44722077Y-47494284D01*
X44763000Y-47341557D01*
X44763000Y-47183443D01*
X44722077Y-47030716D01*
X44689619Y-46974497D01*
X44687715Y-46966650D01*
X44682625Y-46960382D01*
X44679599Y-46933195D01*
X44673147Y-46906601D01*
X44675591Y-46897185D01*
X44674896Y-46890941D01*
X44682966Y-46868773D01*
X44685916Y-46857412D01*
X44687656Y-46853901D01*
X44722077Y-46794284D01*
X44727785Y-46772978D01*
X44733273Y-46761912D01*
X44748937Y-46744959D01*
X44760951Y-46725249D01*
X44772201Y-46719783D01*
X44780691Y-46710596D01*
X44803036Y-46704803D01*
X44823796Y-46694718D01*
X44844364Y-46693000D01*
X46561139Y-46693000D01*
X46563059Y-46692897D01*
X46593797Y-46691249D01*
X46620155Y-46688415D01*
X46627160Y-46687580D01*
X46733907Y-46652797D01*
X46795230Y-46619312D01*
X46864840Y-46567202D01*
X47192202Y-46239840D01*
X47214058Y-46215508D01*
X47230692Y-46194866D01*
X47235053Y-46189325D01*
X47285939Y-46089249D01*
X47305624Y-46022210D01*
X47318000Y-45936138D01*
X47318000Y-42838862D01*
X47316369Y-42808443D01*
X51762000Y-42808443D01*
X51762000Y-42966557D01*
X51799900Y-43108000D01*
X51802923Y-43119283D01*
X51802926Y-43119290D01*
X51881975Y-43256209D01*
X51881979Y-43256214D01*
X51881980Y-43256216D01*
X51993784Y-43368020D01*
X51993786Y-43368021D01*
X51993790Y-43368024D01*
X52110113Y-43435182D01*
X52130716Y-43447077D01*
X52283443Y-43488000D01*
X52283445Y-43488000D01*
X52441555Y-43488000D01*
X52441557Y-43488000D01*
X52594284Y-43447077D01*
X52731216Y-43368020D01*
X52843020Y-43256216D01*
X52922077Y-43119284D01*
X52963000Y-42966557D01*
X52963000Y-42808443D01*
X52922077Y-42655716D01*
X52892661Y-42604766D01*
X52843024Y-42518790D01*
X52843018Y-42518782D01*
X52731217Y-42406981D01*
X52731209Y-42406975D01*
X52594290Y-42327926D01*
X52594286Y-42327924D01*
X52594284Y-42327923D01*
X52441557Y-42287000D01*
X52283443Y-42287000D01*
X52130716Y-42327923D01*
X52130709Y-42327926D01*
X51993790Y-42406975D01*
X51993782Y-42406981D01*
X51881981Y-42518782D01*
X51881975Y-42518790D01*
X51802926Y-42655709D01*
X51802923Y-42655716D01*
X51762000Y-42808443D01*
X47316369Y-42808443D01*
X47316249Y-42806203D01*
X47313415Y-42779845D01*
X47312580Y-42772840D01*
X47286820Y-42693784D01*
X47277799Y-42666098D01*
X47277795Y-42666088D01*
X47244310Y-42604766D01*
X47192210Y-42535170D01*
X47192204Y-42535163D01*
X47192202Y-42535160D01*
X47192198Y-42535156D01*
X47192192Y-42535149D01*
X46864853Y-42207811D01*
X46864849Y-42207807D01*
X46864840Y-42207798D01*
X46840508Y-42185942D01*
X46819866Y-42169308D01*
X46819863Y-42169306D01*
X46819825Y-42169275D01*
X46814327Y-42164948D01*
X46814325Y-42164947D01*
X46784380Y-42149721D01*
X46714249Y-42114061D01*
X46714248Y-42114060D01*
X46714247Y-42114060D01*
X46647216Y-42094377D01*
X46647210Y-42094376D01*
X46561138Y-42082000D01*
X45213862Y-42082000D01*
X45213861Y-42082000D01*
X45181218Y-42083750D01*
X45181209Y-42083750D01*
X45181203Y-42083751D01*
X45181198Y-42083751D01*
X45181165Y-42083754D01*
X45154874Y-42086581D01*
X45147839Y-42087420D01*
X45147837Y-42087420D01*
X45041098Y-42122200D01*
X45041088Y-42122204D01*
X44979766Y-42155689D01*
X44910170Y-42207789D01*
X44910149Y-42207807D01*
X44582811Y-42535146D01*
X44582795Y-42535163D01*
X44560940Y-42559493D01*
X44544275Y-42580174D01*
X44539948Y-42585672D01*
X44539947Y-42585674D01*
X44489060Y-42685752D01*
X44469377Y-42752783D01*
X44469376Y-42752790D01*
X44458172Y-42830716D01*
X44457000Y-42838864D01*
X44457000Y-43108000D01*
X44437315Y-43175039D01*
X44384511Y-43220794D01*
X44333000Y-43232000D01*
X41787000Y-43232000D01*
X41719961Y-43212315D01*
X41674206Y-43159511D01*
X41663000Y-43108000D01*
X41663000Y-42983445D01*
X41663000Y-42983443D01*
X41622077Y-42830716D01*
X41577083Y-42752783D01*
X41543024Y-42693790D01*
X41543018Y-42693782D01*
X41431217Y-42581981D01*
X41431209Y-42581975D01*
X41294290Y-42502926D01*
X41294286Y-42502924D01*
X41294284Y-42502923D01*
X41141557Y-42462000D01*
X41042000Y-42462000D01*
X40974961Y-42442315D01*
X40929206Y-42389511D01*
X40918000Y-42338000D01*
X40918000Y-41588861D01*
X40917637Y-41582095D01*
X40916249Y-41556203D01*
X40913415Y-41529845D01*
X40912580Y-41522840D01*
X40890706Y-41455709D01*
X40877799Y-41416098D01*
X40877795Y-41416088D01*
X40844310Y-41354766D01*
X40792210Y-41285170D01*
X40792205Y-41285165D01*
X40792202Y-41285160D01*
X40792198Y-41285156D01*
X40792192Y-41285149D01*
X40614854Y-41107812D01*
X40614849Y-41107807D01*
X40614840Y-41107798D01*
X40590508Y-41085942D01*
X40569866Y-41069308D01*
X40569863Y-41069306D01*
X40569825Y-41069275D01*
X40564327Y-41064948D01*
X40564325Y-41064947D01*
X40464247Y-41014060D01*
X40397216Y-40994377D01*
X40397210Y-40994376D01*
X40311138Y-40982000D01*
X38513862Y-40982000D01*
X38513861Y-40982000D01*
X38481218Y-40983750D01*
X38481209Y-40983750D01*
X38481203Y-40983751D01*
X38481198Y-40983751D01*
X38481165Y-40983754D01*
X38454874Y-40986581D01*
X38447839Y-40987420D01*
X38447837Y-40987420D01*
X38341098Y-41022200D01*
X38341088Y-41022204D01*
X38279766Y-41055689D01*
X38210170Y-41107789D01*
X38210149Y-41107807D01*
X37097277Y-42220681D01*
X37035954Y-42254166D01*
X37009596Y-42257000D01*
X35763861Y-42257000D01*
X35731218Y-42258750D01*
X35731209Y-42258750D01*
X35731203Y-42258751D01*
X35731198Y-42258751D01*
X35731165Y-42258754D01*
X35704874Y-42261581D01*
X35691794Y-42263141D01*
X35691542Y-42261028D01*
X35631436Y-42256870D01*
X35575406Y-42215129D01*
X35550837Y-42149721D01*
X35550500Y-42140588D01*
X35550500Y-41733230D01*
X35547646Y-41702800D01*
X35547646Y-41702798D01*
X35502793Y-41574619D01*
X35502792Y-41574617D01*
X35489174Y-41556165D01*
X35422150Y-41465350D01*
X35389078Y-41440942D01*
X35346829Y-41385296D01*
X35341370Y-41315640D01*
X35374437Y-41254090D01*
X35375032Y-41253492D01*
X36054206Y-40574319D01*
X36115529Y-40540834D01*
X36141887Y-40538000D01*
X45868372Y-40538000D01*
X45868374Y-40538000D01*
X45868375Y-40538000D01*
X46008385Y-40500484D01*
X46074411Y-40462364D01*
X46133915Y-40428010D01*
X47450433Y-39111492D01*
X49757000Y-39111492D01*
X49757000Y-39313507D01*
X49796407Y-39511619D01*
X49796409Y-39511627D01*
X49873712Y-39698252D01*
X49873717Y-39698262D01*
X49985941Y-39866218D01*
X50128781Y-40009058D01*
X50296737Y-40121282D01*
X50296741Y-40121284D01*
X50296744Y-40121286D01*
X50483373Y-40198591D01*
X50681492Y-40237999D01*
X50681496Y-40238000D01*
X50681497Y-40238000D01*
X51433504Y-40238000D01*
X51433505Y-40237999D01*
X51631627Y-40198591D01*
X51818256Y-40121286D01*
X51986218Y-40009058D01*
X52129058Y-39866218D01*
X52241286Y-39698256D01*
X52318591Y-39511627D01*
X52358000Y-39313503D01*
X52358000Y-39276266D01*
X53657000Y-39276266D01*
X53657000Y-39448733D01*
X53690643Y-39617866D01*
X53690646Y-39617878D01*
X53756638Y-39777198D01*
X53756645Y-39777211D01*
X53852454Y-39920598D01*
X53852457Y-39920602D01*
X53974397Y-40042542D01*
X53974401Y-40042545D01*
X54117788Y-40138354D01*
X54117801Y-40138361D01*
X54263208Y-40198590D01*
X54277126Y-40204355D01*
X54408687Y-40230524D01*
X54446266Y-40237999D01*
X54446269Y-40238000D01*
X54446271Y-40238000D01*
X55268731Y-40238000D01*
X55268732Y-40237999D01*
X55437874Y-40204355D01*
X55597205Y-40138358D01*
X55740599Y-40042545D01*
X55862545Y-39920599D01*
X55958358Y-39777205D01*
X56024355Y-39617874D01*
X56058000Y-39448729D01*
X56058000Y-39276271D01*
X56058000Y-39276268D01*
X56057999Y-39276266D01*
X56049037Y-39231210D01*
X56024355Y-39107126D01*
X56005947Y-39062684D01*
X55958361Y-38947801D01*
X55958354Y-38947788D01*
X55862545Y-38804401D01*
X55862542Y-38804397D01*
X55740602Y-38682457D01*
X55740598Y-38682454D01*
X55597211Y-38586645D01*
X55597198Y-38586638D01*
X55437878Y-38520646D01*
X55437866Y-38520643D01*
X55268732Y-38487000D01*
X55268729Y-38487000D01*
X54446271Y-38487000D01*
X54446268Y-38487000D01*
X54277133Y-38520643D01*
X54277121Y-38520646D01*
X54117801Y-38586638D01*
X54117788Y-38586645D01*
X53974401Y-38682454D01*
X53974397Y-38682457D01*
X53852457Y-38804397D01*
X53852454Y-38804401D01*
X53756645Y-38947788D01*
X53756638Y-38947801D01*
X53690646Y-39107121D01*
X53690643Y-39107133D01*
X53657000Y-39276266D01*
X52358000Y-39276266D01*
X52358000Y-39111497D01*
X52318591Y-38913373D01*
X52290517Y-38845599D01*
X52275854Y-38810197D01*
X52268385Y-38740727D01*
X52299660Y-38678248D01*
X52342957Y-38648185D01*
X52439311Y-38608275D01*
X52554042Y-38531614D01*
X52651614Y-38434042D01*
X52728275Y-38319311D01*
X52734736Y-38303714D01*
X52747840Y-38272076D01*
X52781080Y-38191828D01*
X52803082Y-38081217D01*
X52808000Y-38056495D01*
X52808000Y-37918504D01*
X52781081Y-37783177D01*
X52781080Y-37783176D01*
X52781080Y-37783172D01*
X52774198Y-37766557D01*
X52728278Y-37655695D01*
X52728271Y-37655682D01*
X52651614Y-37540958D01*
X52651611Y-37540954D01*
X52554045Y-37443388D01*
X52554041Y-37443385D01*
X52439317Y-37366728D01*
X52439304Y-37366721D01*
X52311832Y-37313921D01*
X52311822Y-37313918D01*
X52176495Y-37287000D01*
X52176493Y-37287000D01*
X52038507Y-37287000D01*
X52038505Y-37287000D01*
X51903177Y-37313918D01*
X51903167Y-37313921D01*
X51775695Y-37366721D01*
X51775682Y-37366728D01*
X51660958Y-37443385D01*
X51660954Y-37443388D01*
X51563388Y-37540954D01*
X51563385Y-37540958D01*
X51486728Y-37655682D01*
X51486721Y-37655695D01*
X51433921Y-37783167D01*
X51433918Y-37783177D01*
X51407000Y-37918504D01*
X51407000Y-38062585D01*
X51404210Y-38062585D01*
X51393442Y-38119459D01*
X51345392Y-38170183D01*
X51283041Y-38187000D01*
X50681492Y-38187000D01*
X50483380Y-38226407D01*
X50483372Y-38226409D01*
X50296747Y-38303712D01*
X50296737Y-38303717D01*
X50128781Y-38415941D01*
X49985941Y-38558781D01*
X49873717Y-38726737D01*
X49873712Y-38726747D01*
X49796409Y-38913372D01*
X49796407Y-38913380D01*
X49757000Y-39111492D01*
X47450433Y-39111492D01*
X48287606Y-38274319D01*
X48348929Y-38240834D01*
X48375287Y-38238000D01*
X48809137Y-38238000D01*
X48847679Y-38245665D01*
X48847865Y-38244973D01*
X48855714Y-38247076D01*
X48855716Y-38247077D01*
X49008443Y-38288000D01*
X49008445Y-38288000D01*
X49166555Y-38288000D01*
X49166557Y-38288000D01*
X49319284Y-38247077D01*
X49456216Y-38168020D01*
X49568020Y-38056216D01*
X49647077Y-37919284D01*
X49688000Y-37766557D01*
X49688000Y-37608443D01*
X49647077Y-37455716D01*
X49647073Y-37455709D01*
X49568024Y-37318790D01*
X49568018Y-37318782D01*
X49456217Y-37206981D01*
X49456209Y-37206975D01*
X49319290Y-37127926D01*
X49319286Y-37127924D01*
X49319284Y-37127923D01*
X49166557Y-37087000D01*
X49008443Y-37087000D01*
X48855716Y-37127923D01*
X48855714Y-37127923D01*
X48847865Y-37130027D01*
X48847679Y-37129334D01*
X48809137Y-37137000D01*
X48023425Y-37137000D01*
X47893517Y-37171809D01*
X47893516Y-37171809D01*
X47883417Y-37174514D01*
X47757886Y-37246989D01*
X47757883Y-37246991D01*
X45604194Y-39400681D01*
X45542871Y-39434166D01*
X45516513Y-39437000D01*
X40786563Y-39437000D01*
X40719524Y-39417315D01*
X40673769Y-39364511D01*
X40663825Y-39295353D01*
X40688190Y-39237510D01*
X40693017Y-39231218D01*
X40693020Y-39231216D01*
X40693021Y-39231212D01*
X40693024Y-39231210D01*
X40754388Y-39124922D01*
X40772077Y-39094284D01*
X40813000Y-38941557D01*
X40813000Y-38783443D01*
X40772077Y-38630716D01*
X40759120Y-38608273D01*
X40693024Y-38493790D01*
X40693018Y-38493782D01*
X40648319Y-38449083D01*
X40614834Y-38387760D01*
X40612000Y-38361402D01*
X40612000Y-32543443D01*
X42052000Y-32543443D01*
X42052000Y-32701557D01*
X42075163Y-32788000D01*
X42092923Y-32854283D01*
X42092926Y-32854290D01*
X42171975Y-32991209D01*
X42171979Y-32991214D01*
X42171980Y-32991216D01*
X42283784Y-33103020D01*
X42283786Y-33103021D01*
X42283790Y-33103024D01*
X42420709Y-33182073D01*
X42420716Y-33182077D01*
X42573443Y-33223000D01*
X42573445Y-33223000D01*
X42731555Y-33223000D01*
X42731557Y-33223000D01*
X42884284Y-33182077D01*
X43021216Y-33103020D01*
X43133020Y-32991216D01*
X43212077Y-32854284D01*
X43253000Y-32701557D01*
X43253000Y-32543443D01*
X43212077Y-32390716D01*
X43175185Y-32326816D01*
X43133024Y-32253790D01*
X43133018Y-32253782D01*
X43021217Y-32141981D01*
X43021209Y-32141975D01*
X42884290Y-32062926D01*
X42884286Y-32062924D01*
X42884284Y-32062923D01*
X42731557Y-32022000D01*
X42573443Y-32022000D01*
X42420716Y-32062923D01*
X42420709Y-32062926D01*
X42283790Y-32141975D01*
X42283782Y-32141981D01*
X42171981Y-32253782D01*
X42171975Y-32253790D01*
X42092926Y-32390709D01*
X42092923Y-32390716D01*
X42052000Y-32543443D01*
X40612000Y-32543443D01*
X40612000Y-31661492D01*
X49757000Y-31661492D01*
X49757000Y-31863507D01*
X49796407Y-32061619D01*
X49796409Y-32061627D01*
X49873712Y-32248252D01*
X49873717Y-32248262D01*
X49985941Y-32416218D01*
X50128781Y-32559058D01*
X50296737Y-32671282D01*
X50296741Y-32671284D01*
X50296744Y-32671286D01*
X50483373Y-32748591D01*
X50638091Y-32779366D01*
X50681492Y-32787999D01*
X50681496Y-32788000D01*
X50681497Y-32788000D01*
X51283041Y-32788000D01*
X51350080Y-32807685D01*
X51395835Y-32860489D01*
X51404480Y-32912415D01*
X51407000Y-32912415D01*
X51407000Y-32918507D01*
X51407000Y-33056493D01*
X51407000Y-33056495D01*
X51406999Y-33056495D01*
X51433918Y-33191822D01*
X51433921Y-33191832D01*
X51486721Y-33319304D01*
X51486728Y-33319317D01*
X51563385Y-33434041D01*
X51563388Y-33434045D01*
X51660954Y-33531611D01*
X51660958Y-33531614D01*
X51775682Y-33608271D01*
X51775695Y-33608278D01*
X51878339Y-33650794D01*
X51903172Y-33661080D01*
X51903176Y-33661080D01*
X51903177Y-33661081D01*
X52038504Y-33688000D01*
X52038507Y-33688000D01*
X52176495Y-33688000D01*
X52267541Y-33669889D01*
X52311828Y-33661080D01*
X52439311Y-33608275D01*
X52554042Y-33531614D01*
X52651614Y-33434042D01*
X52728275Y-33319311D01*
X52781080Y-33191828D01*
X52796742Y-33113090D01*
X52808000Y-33056495D01*
X52808000Y-32918504D01*
X52781081Y-32783177D01*
X52781080Y-32783176D01*
X52781080Y-32783172D01*
X52762162Y-32737500D01*
X52728278Y-32655695D01*
X52728271Y-32655682D01*
X52651614Y-32540958D01*
X52651611Y-32540954D01*
X52554045Y-32443388D01*
X52554041Y-32443385D01*
X52439317Y-32366728D01*
X52439304Y-32366721D01*
X52342962Y-32326816D01*
X52288558Y-32282976D01*
X52266493Y-32216682D01*
X52275851Y-32164807D01*
X52318591Y-32061627D01*
X52358000Y-31863503D01*
X52358000Y-31661497D01*
X52357845Y-31660722D01*
X52334703Y-31544370D01*
X52331102Y-31526266D01*
X53657000Y-31526266D01*
X53657000Y-31698733D01*
X53690643Y-31867866D01*
X53690646Y-31867878D01*
X53756638Y-32027198D01*
X53756645Y-32027211D01*
X53852454Y-32170598D01*
X53852457Y-32170602D01*
X53974397Y-32292542D01*
X53974401Y-32292545D01*
X54117788Y-32388354D01*
X54117801Y-32388361D01*
X54277121Y-32454353D01*
X54277126Y-32454355D01*
X54443757Y-32487500D01*
X54446266Y-32487999D01*
X54446269Y-32488000D01*
X54446271Y-32488000D01*
X55268731Y-32488000D01*
X55268732Y-32487999D01*
X55437874Y-32454355D01*
X55597205Y-32388358D01*
X55740599Y-32292545D01*
X55862545Y-32170599D01*
X55958358Y-32027205D01*
X56024355Y-31867874D01*
X56058000Y-31698729D01*
X56058000Y-31526271D01*
X56058000Y-31526268D01*
X56057999Y-31526266D01*
X56045489Y-31463373D01*
X56024355Y-31357126D01*
X55991057Y-31276737D01*
X55958361Y-31197801D01*
X55958354Y-31197788D01*
X55862545Y-31054401D01*
X55862542Y-31054397D01*
X55740602Y-30932457D01*
X55740598Y-30932454D01*
X55597211Y-30836645D01*
X55597198Y-30836638D01*
X55437878Y-30770646D01*
X55437866Y-30770643D01*
X55268732Y-30737000D01*
X55268729Y-30737000D01*
X54446271Y-30737000D01*
X54446268Y-30737000D01*
X54277133Y-30770643D01*
X54277121Y-30770646D01*
X54117801Y-30836638D01*
X54117788Y-30836645D01*
X53974401Y-30932454D01*
X53974397Y-30932457D01*
X53852457Y-31054397D01*
X53852454Y-31054401D01*
X53756645Y-31197788D01*
X53756638Y-31197801D01*
X53690646Y-31357121D01*
X53690643Y-31357133D01*
X53657000Y-31526266D01*
X52331102Y-31526266D01*
X52318592Y-31463380D01*
X52318591Y-31463373D01*
X52241286Y-31276744D01*
X52241284Y-31276741D01*
X52241282Y-31276737D01*
X52129058Y-31108781D01*
X51986218Y-30965941D01*
X51818262Y-30853717D01*
X51818252Y-30853712D01*
X51631627Y-30776409D01*
X51631619Y-30776407D01*
X51433507Y-30737000D01*
X51433503Y-30737000D01*
X50681497Y-30737000D01*
X50681492Y-30737000D01*
X50483380Y-30776407D01*
X50483372Y-30776409D01*
X50296747Y-30853712D01*
X50296737Y-30853717D01*
X50128781Y-30965941D01*
X49985941Y-31108781D01*
X49873717Y-31276737D01*
X49873712Y-31276747D01*
X49796409Y-31463372D01*
X49796407Y-31463380D01*
X49757000Y-31661492D01*
X40612000Y-31661492D01*
X40612000Y-29220072D01*
X51508479Y-29220072D01*
X51543828Y-29243692D01*
X51725806Y-29319069D01*
X51725818Y-29319072D01*
X51919004Y-29357499D01*
X51919008Y-29357500D01*
X52115992Y-29357500D01*
X52115995Y-29357499D01*
X52309181Y-29319072D01*
X52309193Y-29319069D01*
X52491176Y-29243690D01*
X52491180Y-29243687D01*
X52526519Y-29220073D01*
X52526520Y-29220072D01*
X52017501Y-28711053D01*
X52017500Y-28711053D01*
X51508479Y-29220072D01*
X40612000Y-29220072D01*
X40612000Y-27510575D01*
X40631685Y-27443536D01*
X40684489Y-27397781D01*
X40753647Y-27387837D01*
X40797995Y-27403186D01*
X40830716Y-27422077D01*
X40983443Y-27463000D01*
X40983445Y-27463000D01*
X41141555Y-27463000D01*
X41141557Y-27463000D01*
X41294284Y-27422077D01*
X41431216Y-27343020D01*
X41543020Y-27231216D01*
X41622077Y-27094284D01*
X41645022Y-27008653D01*
X46137000Y-27008653D01*
X46137000Y-27166346D01*
X46167761Y-27320989D01*
X46167764Y-27321001D01*
X46228103Y-27466674D01*
X46228105Y-27466677D01*
X46228106Y-27466679D01*
X46238246Y-27481854D01*
X46241762Y-27487116D01*
X46262639Y-27553793D01*
X46244154Y-27621173D01*
X46226342Y-27643685D01*
X46185295Y-27684733D01*
X46185294Y-27684734D01*
X46139915Y-27787506D01*
X46139915Y-27787508D01*
X46137000Y-27812631D01*
X46137000Y-28902356D01*
X46137002Y-28902382D01*
X46139913Y-28927487D01*
X46139915Y-28927491D01*
X46185293Y-29030264D01*
X46185294Y-29030265D01*
X46264735Y-29109706D01*
X46367509Y-29155085D01*
X46392635Y-29158000D01*
X47482364Y-29157999D01*
X47482379Y-29157997D01*
X47482382Y-29157997D01*
X47507487Y-29155086D01*
X47507488Y-29155085D01*
X47507491Y-29155085D01*
X47610265Y-29109706D01*
X47651313Y-29068657D01*
X47712634Y-29035173D01*
X47782325Y-29040157D01*
X47807878Y-29053234D01*
X47828321Y-29066894D01*
X47828323Y-29066895D01*
X47828325Y-29066896D01*
X47973998Y-29127235D01*
X47974003Y-29127237D01*
X48128643Y-29157997D01*
X48128653Y-29157999D01*
X48128656Y-29158000D01*
X48128658Y-29158000D01*
X48286344Y-29158000D01*
X48286345Y-29157999D01*
X48440997Y-29127237D01*
X48586679Y-29066894D01*
X48717789Y-28979289D01*
X48717792Y-28979286D01*
X48754819Y-28942260D01*
X48816142Y-28908775D01*
X48885834Y-28913759D01*
X48930181Y-28942260D01*
X48967207Y-28979286D01*
X48967211Y-28979289D01*
X49098314Y-29066890D01*
X49098327Y-29066897D01*
X49243998Y-29127235D01*
X49244003Y-29127237D01*
X49398643Y-29157997D01*
X49398653Y-29157999D01*
X49398656Y-29158000D01*
X49398658Y-29158000D01*
X49556344Y-29158000D01*
X49556345Y-29157999D01*
X49710997Y-29127237D01*
X49856679Y-29066894D01*
X49987789Y-28979289D01*
X49987792Y-28979286D01*
X50024819Y-28942260D01*
X50086142Y-28908775D01*
X50155834Y-28913759D01*
X50200181Y-28942260D01*
X50237207Y-28979286D01*
X50237211Y-28979289D01*
X50368314Y-29066890D01*
X50368327Y-29066897D01*
X50513998Y-29127235D01*
X50514003Y-29127237D01*
X50668643Y-29157997D01*
X50668653Y-29157999D01*
X50668656Y-29158000D01*
X50668658Y-29158000D01*
X50826344Y-29158000D01*
X50826345Y-29157999D01*
X50980997Y-29127237D01*
X51126679Y-29066894D01*
X51257789Y-28979289D01*
X51369289Y-28867789D01*
X51456894Y-28736679D01*
X51517237Y-28590997D01*
X51531449Y-28519547D01*
X51563832Y-28457641D01*
X51565384Y-28456060D01*
X51663945Y-28357499D01*
X51621159Y-28314713D01*
X51692500Y-28314713D01*
X51692500Y-28400287D01*
X51714649Y-28482945D01*
X51757436Y-28557054D01*
X51817946Y-28617564D01*
X51892055Y-28660351D01*
X51974713Y-28682500D01*
X52060287Y-28682500D01*
X52142945Y-28660351D01*
X52217054Y-28617564D01*
X52277564Y-28557054D01*
X52320351Y-28482945D01*
X52342500Y-28400287D01*
X52342500Y-28357499D01*
X52371053Y-28357499D01*
X52371053Y-28357501D01*
X52880072Y-28866520D01*
X52880073Y-28866519D01*
X52903687Y-28831180D01*
X52903690Y-28831176D01*
X52979069Y-28649193D01*
X52979072Y-28649181D01*
X53017499Y-28455995D01*
X53017500Y-28455992D01*
X53017500Y-28259008D01*
X53017499Y-28259004D01*
X52979072Y-28065818D01*
X52979069Y-28065806D01*
X52903692Y-27883828D01*
X52880072Y-27848479D01*
X52371053Y-28357499D01*
X52342500Y-28357499D01*
X52342500Y-28314713D01*
X52320351Y-28232055D01*
X52277564Y-28157946D01*
X52217054Y-28097436D01*
X52142945Y-28054649D01*
X52060287Y-28032500D01*
X51974713Y-28032500D01*
X51892055Y-28054649D01*
X51817946Y-28097436D01*
X51757436Y-28157946D01*
X51714649Y-28232055D01*
X51692500Y-28314713D01*
X51621159Y-28314713D01*
X51565384Y-28258938D01*
X51531899Y-28197615D01*
X51531472Y-28195571D01*
X51517237Y-28124003D01*
X51472547Y-28016110D01*
X51456897Y-27978327D01*
X51456890Y-27978314D01*
X51369289Y-27847211D01*
X51369286Y-27847207D01*
X51332260Y-27810181D01*
X51328482Y-27803263D01*
X51322084Y-27798658D01*
X51311974Y-27773031D01*
X51298775Y-27748858D01*
X51299337Y-27740996D01*
X51296444Y-27733662D01*
X51298654Y-27722500D01*
X51736053Y-27722500D01*
X52017500Y-28003946D01*
X52017501Y-28003946D01*
X52298946Y-27722501D01*
X52298946Y-27722499D01*
X52017501Y-27441053D01*
X52017500Y-27441053D01*
X51736053Y-27722500D01*
X51298654Y-27722500D01*
X51301794Y-27706638D01*
X51303759Y-27679166D01*
X51308827Y-27671113D01*
X51310014Y-27665123D01*
X51328159Y-27640405D01*
X51330632Y-27636477D01*
X51331443Y-27635634D01*
X51369289Y-27597789D01*
X51372452Y-27593056D01*
X51456890Y-27466685D01*
X51456890Y-27466684D01*
X51456894Y-27466679D01*
X51457496Y-27465227D01*
X51467509Y-27441053D01*
X51517237Y-27320997D01*
X51531449Y-27249547D01*
X51563832Y-27187641D01*
X51565384Y-27186060D01*
X51663945Y-27087499D01*
X51621159Y-27044713D01*
X51692500Y-27044713D01*
X51692500Y-27130287D01*
X51714649Y-27212945D01*
X51757436Y-27287054D01*
X51817946Y-27347564D01*
X51892055Y-27390351D01*
X51974713Y-27412500D01*
X52060287Y-27412500D01*
X52142945Y-27390351D01*
X52217054Y-27347564D01*
X52277564Y-27287054D01*
X52320351Y-27212945D01*
X52342500Y-27130287D01*
X52342500Y-27087499D01*
X52371053Y-27087499D01*
X52371053Y-27087501D01*
X52880071Y-27596519D01*
X52880073Y-27596519D01*
X52903687Y-27561180D01*
X52903690Y-27561176D01*
X52979069Y-27379193D01*
X52979072Y-27379181D01*
X53017499Y-27185995D01*
X53017500Y-27185992D01*
X53017500Y-26989008D01*
X53017499Y-26989004D01*
X52979072Y-26795818D01*
X52979069Y-26795806D01*
X52903692Y-26613828D01*
X52880072Y-26578479D01*
X52371053Y-27087499D01*
X52342500Y-27087499D01*
X52342500Y-27044713D01*
X52320351Y-26962055D01*
X52277564Y-26887946D01*
X52217054Y-26827436D01*
X52142945Y-26784649D01*
X52060287Y-26762500D01*
X51974713Y-26762500D01*
X51892055Y-26784649D01*
X51817946Y-26827436D01*
X51757436Y-26887946D01*
X51714649Y-26962055D01*
X51692500Y-27044713D01*
X51621159Y-27044713D01*
X51565384Y-26988938D01*
X51531899Y-26927615D01*
X51531472Y-26925571D01*
X51517237Y-26854003D01*
X51468773Y-26737000D01*
X51456897Y-26708327D01*
X51456890Y-26708314D01*
X51369289Y-26577211D01*
X51369286Y-26577207D01*
X51257792Y-26465713D01*
X51257788Y-26465710D01*
X51126682Y-26378107D01*
X51126676Y-26378104D01*
X50981001Y-26317764D01*
X50980989Y-26317761D01*
X50826345Y-26287000D01*
X50826342Y-26287000D01*
X50668658Y-26287000D01*
X50668655Y-26287000D01*
X50514010Y-26317761D01*
X50513998Y-26317764D01*
X50368327Y-26378102D01*
X50368314Y-26378109D01*
X50237211Y-26465710D01*
X50237207Y-26465713D01*
X50200181Y-26502740D01*
X50138858Y-26536225D01*
X50069166Y-26531241D01*
X50024819Y-26502740D01*
X49987792Y-26465713D01*
X49987788Y-26465710D01*
X49856685Y-26378109D01*
X49856672Y-26378102D01*
X49711001Y-26317764D01*
X49710989Y-26317761D01*
X49556345Y-26287000D01*
X49556342Y-26287000D01*
X49398658Y-26287000D01*
X49398655Y-26287000D01*
X49244010Y-26317761D01*
X49243998Y-26317764D01*
X49098327Y-26378102D01*
X49098314Y-26378109D01*
X48967211Y-26465710D01*
X48967207Y-26465713D01*
X48930181Y-26502740D01*
X48868858Y-26536225D01*
X48799166Y-26531241D01*
X48754819Y-26502740D01*
X48717792Y-26465713D01*
X48717788Y-26465710D01*
X48586685Y-26378109D01*
X48586672Y-26378102D01*
X48441001Y-26317764D01*
X48440989Y-26317761D01*
X48286345Y-26287000D01*
X48286342Y-26287000D01*
X48128658Y-26287000D01*
X48128655Y-26287000D01*
X47974010Y-26317761D01*
X47973998Y-26317764D01*
X47828327Y-26378102D01*
X47828314Y-26378109D01*
X47697211Y-26465710D01*
X47697207Y-26465713D01*
X47660181Y-26502740D01*
X47598858Y-26536225D01*
X47529166Y-26531241D01*
X47484819Y-26502740D01*
X47447792Y-26465713D01*
X47447788Y-26465710D01*
X47316685Y-26378109D01*
X47316672Y-26378102D01*
X47171001Y-26317764D01*
X47170989Y-26317761D01*
X47016345Y-26287000D01*
X47016342Y-26287000D01*
X46858658Y-26287000D01*
X46858655Y-26287000D01*
X46704010Y-26317761D01*
X46703998Y-26317764D01*
X46558327Y-26378102D01*
X46558314Y-26378109D01*
X46427211Y-26465710D01*
X46427207Y-26465713D01*
X46315713Y-26577207D01*
X46315710Y-26577211D01*
X46228109Y-26708314D01*
X46228102Y-26708327D01*
X46167764Y-26853998D01*
X46167761Y-26854010D01*
X46137000Y-27008653D01*
X41645022Y-27008653D01*
X41663000Y-26941557D01*
X41663000Y-26783443D01*
X41622077Y-26630716D01*
X41580230Y-26558234D01*
X41543024Y-26493790D01*
X41543018Y-26493782D01*
X41431217Y-26381981D01*
X41431209Y-26381975D01*
X41294290Y-26302926D01*
X41294286Y-26302924D01*
X41294284Y-26302923D01*
X41141557Y-26262000D01*
X41037000Y-26262000D01*
X40969961Y-26242315D01*
X40954893Y-26224926D01*
X51508478Y-26224926D01*
X52017500Y-26733946D01*
X52017501Y-26733946D01*
X52526520Y-26224926D01*
X52491175Y-26201309D01*
X52491173Y-26201308D01*
X52309193Y-26125930D01*
X52309181Y-26125927D01*
X52115995Y-26087500D01*
X51919004Y-26087500D01*
X51725818Y-26125927D01*
X51725810Y-26125929D01*
X51543825Y-26201309D01*
X51543818Y-26201313D01*
X51508479Y-26224926D01*
X51508478Y-26224926D01*
X40954893Y-26224926D01*
X40924206Y-26189511D01*
X40913000Y-26138000D01*
X40913000Y-26133445D01*
X40913000Y-26133443D01*
X40872077Y-25980716D01*
X40798191Y-25852740D01*
X40793024Y-25843790D01*
X40793018Y-25843782D01*
X40681217Y-25731981D01*
X40681209Y-25731975D01*
X40544290Y-25652926D01*
X40544286Y-25652924D01*
X40544284Y-25652923D01*
X40391557Y-25612000D01*
X40233443Y-25612000D01*
X40080716Y-25652923D01*
X40080709Y-25652926D01*
X39943790Y-25731975D01*
X39943782Y-25731981D01*
X39831981Y-25843782D01*
X39831975Y-25843790D01*
X39752926Y-25980709D01*
X39752923Y-25980716D01*
X39712000Y-26133443D01*
X39712000Y-26291557D01*
X39752923Y-26444284D01*
X39781500Y-26493782D01*
X39794387Y-26516102D01*
X39811000Y-26578102D01*
X39811000Y-27059137D01*
X39791315Y-27126176D01*
X39738511Y-27171931D01*
X39669353Y-27181875D01*
X39605797Y-27152850D01*
X39576665Y-27112451D01*
X39576141Y-27112754D01*
X39573157Y-27107586D01*
X39572439Y-27106590D01*
X39572075Y-27105711D01*
X39493024Y-26968790D01*
X39493018Y-26968782D01*
X39381217Y-26856981D01*
X39381209Y-26856975D01*
X39244290Y-26777926D01*
X39244286Y-26777924D01*
X39244284Y-26777923D01*
X39091557Y-26737000D01*
X38933443Y-26737000D01*
X38780716Y-26777923D01*
X38780709Y-26777926D01*
X38643790Y-26856975D01*
X38643782Y-26856981D01*
X38574681Y-26926083D01*
X38513358Y-26959568D01*
X38443666Y-26954584D01*
X38387733Y-26912712D01*
X38363316Y-26847248D01*
X38363000Y-26838402D01*
X38363000Y-24012000D01*
X38382685Y-23944961D01*
X38435489Y-23899206D01*
X38487000Y-23888000D01*
X38491555Y-23888000D01*
X38491557Y-23888000D01*
X38644284Y-23847077D01*
X38781216Y-23768020D01*
X38893020Y-23656216D01*
X38972077Y-23519284D01*
X39013000Y-23366557D01*
X39013000Y-23308443D01*
X41662000Y-23308443D01*
X41662000Y-23466557D01*
X41699422Y-23606216D01*
X41702923Y-23619283D01*
X41702926Y-23619290D01*
X41781975Y-23756209D01*
X41781979Y-23756214D01*
X41781980Y-23756216D01*
X41893784Y-23868020D01*
X41893786Y-23868021D01*
X41893790Y-23868024D01*
X42021153Y-23941556D01*
X42030716Y-23947077D01*
X42183443Y-23988000D01*
X42183445Y-23988000D01*
X42341555Y-23988000D01*
X42341557Y-23988000D01*
X42494284Y-23947077D01*
X42631216Y-23868020D01*
X42743020Y-23756216D01*
X42822077Y-23619284D01*
X42863000Y-23466557D01*
X42863000Y-23308443D01*
X42822077Y-23155716D01*
X42802655Y-23122076D01*
X42743024Y-23018790D01*
X42743018Y-23018782D01*
X42631217Y-22906981D01*
X42631209Y-22906975D01*
X42494290Y-22827926D01*
X42494286Y-22827924D01*
X42494284Y-22827923D01*
X42341557Y-22787000D01*
X42183443Y-22787000D01*
X42030716Y-22827923D01*
X42030709Y-22827926D01*
X41893790Y-22906975D01*
X41893782Y-22906981D01*
X41781981Y-23018782D01*
X41781975Y-23018790D01*
X41702926Y-23155709D01*
X41702923Y-23155716D01*
X41662000Y-23308443D01*
X39013000Y-23308443D01*
X39013000Y-23208443D01*
X38972077Y-23055716D01*
X38970466Y-23052926D01*
X38893024Y-22918790D01*
X38893018Y-22918782D01*
X38849319Y-22875083D01*
X38815834Y-22813760D01*
X38813000Y-22787402D01*
X38813000Y-22483443D01*
X40312000Y-22483443D01*
X40312000Y-22641557D01*
X40350972Y-22787000D01*
X40352923Y-22794283D01*
X40352926Y-22794290D01*
X40431975Y-22931209D01*
X40431979Y-22931214D01*
X40431980Y-22931216D01*
X40543784Y-23043020D01*
X40543786Y-23043021D01*
X40543790Y-23043024D01*
X40580862Y-23064427D01*
X40680716Y-23122077D01*
X40833443Y-23163000D01*
X40833445Y-23163000D01*
X40991555Y-23163000D01*
X40991557Y-23163000D01*
X41144284Y-23122077D01*
X41281216Y-23043020D01*
X41393020Y-22931216D01*
X41472077Y-22794284D01*
X41513000Y-22641557D01*
X41513000Y-22483443D01*
X41472077Y-22330716D01*
X41415611Y-22232913D01*
X41393024Y-22193790D01*
X41393018Y-22193782D01*
X41281217Y-22081981D01*
X41281209Y-22081975D01*
X41144290Y-22002926D01*
X41144286Y-22002924D01*
X41144284Y-22002923D01*
X40991557Y-21962000D01*
X40833443Y-21962000D01*
X40680716Y-22002923D01*
X40680709Y-22002926D01*
X40543790Y-22081975D01*
X40543782Y-22081981D01*
X40431981Y-22193782D01*
X40431975Y-22193790D01*
X40352926Y-22330709D01*
X40352923Y-22330716D01*
X40312000Y-22483443D01*
X38813000Y-22483443D01*
X38813000Y-22334775D01*
X38813000Y-22334773D01*
X38785707Y-22232913D01*
X38732980Y-22141587D01*
X38658413Y-22067020D01*
X36616125Y-20024732D01*
X46712000Y-20024732D01*
X46712000Y-20400267D01*
X46744729Y-20774365D01*
X46809938Y-21144179D01*
X46809941Y-21144192D01*
X46907130Y-21506910D01*
X47035568Y-21859793D01*
X47194271Y-22200133D01*
X47194279Y-22200148D01*
X47326253Y-22428733D01*
X47382040Y-22525358D01*
X47382044Y-22525364D01*
X47382051Y-22525375D01*
X47597434Y-22832974D01*
X47771907Y-23040902D01*
X47838818Y-23120644D01*
X48104356Y-23386182D01*
X48203392Y-23469283D01*
X48392025Y-23627565D01*
X48699624Y-23842948D01*
X48699631Y-23842952D01*
X48699642Y-23842960D01*
X48994159Y-24013000D01*
X49024851Y-24030720D01*
X49024866Y-24030728D01*
X49365206Y-24189431D01*
X49594103Y-24272742D01*
X49718083Y-24317867D01*
X49718084Y-24317867D01*
X49718089Y-24317869D01*
X49815877Y-24344071D01*
X50080815Y-24415061D01*
X50450637Y-24480271D01*
X50824734Y-24512999D01*
X50824735Y-24513000D01*
X50824736Y-24513000D01*
X51200265Y-24513000D01*
X51200265Y-24512999D01*
X51574363Y-24480271D01*
X51944185Y-24415061D01*
X52306917Y-24317867D01*
X52659798Y-24189429D01*
X53000142Y-24030724D01*
X53325358Y-23842960D01*
X53632973Y-23627566D01*
X53920644Y-23386182D01*
X54186182Y-23120644D01*
X54427566Y-22832973D01*
X54642960Y-22525358D01*
X54830724Y-22200142D01*
X54989429Y-21859798D01*
X55117867Y-21506917D01*
X55215061Y-21144185D01*
X55280271Y-20774363D01*
X55313000Y-20400264D01*
X55313000Y-20024736D01*
X55280271Y-19650637D01*
X55215061Y-19280815D01*
X55117867Y-18918083D01*
X55079569Y-18812859D01*
X54989431Y-18565206D01*
X54830728Y-18224866D01*
X54830720Y-18224851D01*
X54788889Y-18152398D01*
X54642960Y-17899642D01*
X54642952Y-17899631D01*
X54642948Y-17899624D01*
X54427565Y-17592025D01*
X54248223Y-17378294D01*
X54186182Y-17304356D01*
X53920644Y-17038818D01*
X53823442Y-16957256D01*
X53632974Y-16797434D01*
X53325375Y-16582051D01*
X53325364Y-16582044D01*
X53325358Y-16582040D01*
X53167804Y-16491076D01*
X53000148Y-16394279D01*
X53000133Y-16394271D01*
X52659793Y-16235568D01*
X52306910Y-16107130D01*
X51944192Y-16009941D01*
X51944195Y-16009941D01*
X51944185Y-16009939D01*
X51891971Y-16000732D01*
X51574365Y-15944729D01*
X51200267Y-15912000D01*
X51200264Y-15912000D01*
X50824736Y-15912000D01*
X50824732Y-15912000D01*
X50450634Y-15944729D01*
X50080820Y-16009938D01*
X50080817Y-16009938D01*
X50080815Y-16009939D01*
X50080810Y-16009940D01*
X50080807Y-16009941D01*
X49718089Y-16107130D01*
X49365206Y-16235568D01*
X49024866Y-16394271D01*
X49024851Y-16394279D01*
X48699650Y-16582035D01*
X48699624Y-16582051D01*
X48392025Y-16797434D01*
X48104353Y-17038820D01*
X47838820Y-17304353D01*
X47597434Y-17592025D01*
X47382051Y-17899624D01*
X47382035Y-17899650D01*
X47194279Y-18224851D01*
X47194271Y-18224866D01*
X47035568Y-18565206D01*
X46907130Y-18918089D01*
X46809941Y-19280807D01*
X46809938Y-19280820D01*
X46744729Y-19650634D01*
X46712000Y-20024732D01*
X36616125Y-20024732D01*
X34358413Y-17767020D01*
X34312750Y-17740656D01*
X34267089Y-17714293D01*
X34216157Y-17700646D01*
X34165227Y-17687000D01*
X34165226Y-17687000D01*
X32658356Y-17687000D01*
X32591317Y-17667315D01*
X32545562Y-17614511D01*
X32535618Y-17545353D01*
X32551624Y-17499879D01*
X32594906Y-17426691D01*
X32594907Y-17426688D01*
X32639666Y-17272628D01*
X32639667Y-17272622D01*
X32642431Y-17237500D01*
X31996500Y-17237500D01*
X31929461Y-17217815D01*
X31883706Y-17165011D01*
X31872500Y-17113500D01*
X31872500Y-16987500D01*
X31746500Y-16987500D01*
X31679461Y-16967815D01*
X31633706Y-16915011D01*
X31622500Y-16863500D01*
X31622500Y-16174654D01*
X32122500Y-16174654D01*
X32122500Y-16737500D01*
X32642431Y-16737500D01*
X32639667Y-16702377D01*
X32639666Y-16702371D01*
X32594907Y-16548311D01*
X32594906Y-16548308D01*
X32513238Y-16410214D01*
X32513231Y-16410205D01*
X32399794Y-16296768D01*
X32399785Y-16296761D01*
X32261691Y-16215093D01*
X32261688Y-16215091D01*
X32122501Y-16174653D01*
X32122500Y-16174654D01*
X31622500Y-16174654D01*
X31622498Y-16174653D01*
X31483311Y-16215091D01*
X31483308Y-16215093D01*
X31345214Y-16296761D01*
X31345209Y-16296765D01*
X31274731Y-16367243D01*
X31213407Y-16400727D01*
X31146096Y-16396603D01*
X31069378Y-16369758D01*
X31039961Y-16367000D01*
X30665046Y-16367000D01*
X30635625Y-16369758D01*
X30635615Y-16369760D01*
X30511707Y-16413118D01*
X30406076Y-16491076D01*
X30328118Y-16596707D01*
X30284758Y-16720618D01*
X30284758Y-16720620D01*
X30282000Y-16750038D01*
X30282000Y-17224953D01*
X30284758Y-17254374D01*
X30284760Y-17254384D01*
X30328118Y-17378292D01*
X30391274Y-17463866D01*
X30415245Y-17529495D01*
X30399929Y-17597666D01*
X30391274Y-17611134D01*
X30328118Y-17696707D01*
X30284758Y-17820618D01*
X30284758Y-17820620D01*
X30282000Y-17850038D01*
X30282000Y-18324953D01*
X30284758Y-18354374D01*
X30284760Y-18354384D01*
X30311681Y-18431319D01*
X30315243Y-18501098D01*
X30306235Y-18523714D01*
X30306770Y-18523936D01*
X30303660Y-18531443D01*
X30303658Y-18531451D01*
X30262735Y-18684178D01*
X30262735Y-18684180D01*
X30262735Y-18842291D01*
X30303658Y-18995018D01*
X30303661Y-18995025D01*
X30382710Y-19131944D01*
X30382714Y-19131949D01*
X30382715Y-19131951D01*
X30494519Y-19243755D01*
X30494521Y-19243756D01*
X30494525Y-19243759D01*
X30558709Y-19280815D01*
X30631451Y-19322812D01*
X30784178Y-19363735D01*
X30784180Y-19363735D01*
X30942290Y-19363735D01*
X30942292Y-19363735D01*
X31095019Y-19322812D01*
X31231951Y-19243755D01*
X31343755Y-19131951D01*
X31422812Y-18995019D01*
X31463735Y-18842292D01*
X31463735Y-18812859D01*
X31483420Y-18745820D01*
X31536224Y-18700065D01*
X31605382Y-18690121D01*
X31628691Y-18695818D01*
X31655621Y-18705241D01*
X31655620Y-18705241D01*
X31660034Y-18705654D01*
X31685043Y-18708000D01*
X32059956Y-18707999D01*
X32089379Y-18705241D01*
X32213294Y-18661881D01*
X32318923Y-18583923D01*
X32352546Y-18538366D01*
X32408194Y-18496116D01*
X32452316Y-18488000D01*
X33895245Y-18488000D01*
X33962284Y-18507685D01*
X33982926Y-18524319D01*
X35980159Y-20521552D01*
X36013644Y-20582875D01*
X36008660Y-20652567D01*
X35973467Y-20700169D01*
X35974531Y-20701233D01*
X35856981Y-20818782D01*
X35856977Y-20818787D01*
X35804373Y-20909902D01*
X35753806Y-20958117D01*
X35685199Y-20971341D01*
X35634987Y-20955290D01*
X35544284Y-20902923D01*
X35391557Y-20862000D01*
X35233443Y-20862000D01*
X35080716Y-20902923D01*
X35080709Y-20902926D01*
X34943790Y-20981975D01*
X34943782Y-20981981D01*
X34831981Y-21093782D01*
X34831975Y-21093790D01*
X34752926Y-21230709D01*
X34752923Y-21230716D01*
X34712000Y-21383443D01*
X34712000Y-21541557D01*
X34751132Y-21687598D01*
X34752923Y-21694283D01*
X34752926Y-21694290D01*
X34831975Y-21831209D01*
X34831979Y-21831214D01*
X34831980Y-21831216D01*
X34943784Y-21943020D01*
X34943786Y-21943021D01*
X34943790Y-21943024D01*
X35003942Y-21977752D01*
X35080716Y-22022077D01*
X35233443Y-22063000D01*
X35233445Y-22063000D01*
X35391555Y-22063000D01*
X35391557Y-22063000D01*
X35544284Y-22022077D01*
X35681216Y-21943020D01*
X35725319Y-21898917D01*
X35786642Y-21865432D01*
X35856334Y-21870416D01*
X35912267Y-21912288D01*
X35936684Y-21977752D01*
X35937000Y-21986598D01*
X35937000Y-24284835D01*
X35917315Y-24351874D01*
X35864511Y-24397629D01*
X35795353Y-24407573D01*
X35739367Y-24384606D01*
X35735802Y-24381975D01*
X35637882Y-24309707D01*
X35537735Y-24274663D01*
X35480959Y-24233941D01*
X35455213Y-24168988D01*
X35468670Y-24100426D01*
X35471307Y-24095617D01*
X35471453Y-24095364D01*
X35472077Y-24094284D01*
X35513000Y-23941557D01*
X35513000Y-23783443D01*
X35472077Y-23630716D01*
X35444478Y-23582912D01*
X35393024Y-23493790D01*
X35393018Y-23493782D01*
X35281217Y-23381981D01*
X35281209Y-23381975D01*
X35144290Y-23302926D01*
X35144286Y-23302924D01*
X35144284Y-23302923D01*
X34991557Y-23262000D01*
X34833443Y-23262000D01*
X34680716Y-23302923D01*
X34680709Y-23302926D01*
X34543790Y-23381975D01*
X34543782Y-23381981D01*
X34431981Y-23493782D01*
X34431975Y-23493790D01*
X34352926Y-23630709D01*
X34352923Y-23630716D01*
X34312000Y-23783443D01*
X34312000Y-23941557D01*
X34352585Y-24093020D01*
X34352923Y-24094283D01*
X34352923Y-24094284D01*
X34353698Y-24095626D01*
X34354007Y-24096900D01*
X34356034Y-24101794D01*
X34355270Y-24102110D01*
X34370167Y-24163527D01*
X34347312Y-24229553D01*
X34292389Y-24272742D01*
X34287265Y-24274663D01*
X34207382Y-24302616D01*
X34187118Y-24309707D01*
X34187117Y-24309707D01*
X34187116Y-24309708D01*
X34077850Y-24390350D01*
X33997207Y-24499617D01*
X33997206Y-24499619D01*
X33952353Y-24627798D01*
X33950744Y-24635170D01*
X33948481Y-24634675D01*
X33946602Y-24639389D01*
X33945427Y-24655824D01*
X33933932Y-24671177D01*
X33926833Y-24688992D01*
X33913427Y-24698568D01*
X33903555Y-24711757D01*
X33885587Y-24718458D01*
X33869981Y-24729608D01*
X33853525Y-24730417D01*
X33838091Y-24736174D01*
X33819350Y-24732097D01*
X33800196Y-24733039D01*
X33785303Y-24724690D01*
X33769818Y-24721322D01*
X33741566Y-24700173D01*
X33583413Y-24542020D01*
X33583412Y-24542019D01*
X33579146Y-24537753D01*
X33559600Y-24506535D01*
X33557137Y-24507837D01*
X33552793Y-24499618D01*
X33548486Y-24493782D01*
X33472150Y-24390350D01*
X33362882Y-24309707D01*
X33362880Y-24309706D01*
X33234700Y-24264853D01*
X33204270Y-24262000D01*
X33204266Y-24262000D01*
X32070734Y-24262000D01*
X32070730Y-24262000D01*
X32040300Y-24264853D01*
X32040298Y-24264853D01*
X31912119Y-24309706D01*
X31912117Y-24309707D01*
X31802850Y-24390350D01*
X31722207Y-24499617D01*
X31678639Y-24624124D01*
X31637917Y-24680900D01*
X31572963Y-24706646D01*
X31504402Y-24693189D01*
X31454000Y-24644801D01*
X31447123Y-24630796D01*
X31368024Y-24493790D01*
X31368018Y-24493782D01*
X31256217Y-24381981D01*
X31256209Y-24381975D01*
X31119290Y-24302926D01*
X31119286Y-24302924D01*
X31119284Y-24302923D01*
X30966557Y-24262000D01*
X30808443Y-24262000D01*
X30808442Y-24262000D01*
X30800702Y-24263019D01*
X30731667Y-24252253D01*
X30679411Y-24205874D01*
X30660526Y-24138605D01*
X30681007Y-24071804D01*
X30696845Y-24052390D01*
X30699931Y-24049305D01*
X30761260Y-24015830D01*
X30787598Y-24013000D01*
X32790225Y-24013000D01*
X32790227Y-24013000D01*
X32892088Y-23985707D01*
X32983413Y-23932980D01*
X33042074Y-23874319D01*
X33103397Y-23840834D01*
X33129755Y-23838000D01*
X33191555Y-23838000D01*
X33191557Y-23838000D01*
X33344284Y-23797077D01*
X33481216Y-23718020D01*
X33593020Y-23606216D01*
X33672077Y-23469284D01*
X33713000Y-23316557D01*
X33713000Y-23158443D01*
X33672077Y-23005716D01*
X33672073Y-23005709D01*
X33593024Y-22868790D01*
X33593018Y-22868782D01*
X33481217Y-22756981D01*
X33481209Y-22756975D01*
X33344290Y-22677926D01*
X33344286Y-22677924D01*
X33344284Y-22677923D01*
X33191557Y-22637000D01*
X33033443Y-22637000D01*
X32880716Y-22677923D01*
X32880709Y-22677926D01*
X32743790Y-22756975D01*
X32743782Y-22756981D01*
X32631981Y-22868782D01*
X32631975Y-22868790D01*
X32552926Y-23005709D01*
X32552923Y-23005714D01*
X32522276Y-23120094D01*
X32485911Y-23179754D01*
X32423064Y-23210283D01*
X32402501Y-23212000D01*
X30787598Y-23212000D01*
X30720559Y-23192315D01*
X30699917Y-23175681D01*
X30656217Y-23131981D01*
X30656209Y-23131975D01*
X30519290Y-23052926D01*
X30519286Y-23052924D01*
X30519284Y-23052923D01*
X30366557Y-23012000D01*
X30208443Y-23012000D01*
X30055716Y-23052923D01*
X30055709Y-23052926D01*
X29918790Y-23131975D01*
X29918782Y-23131981D01*
X29875083Y-23175681D01*
X29813760Y-23209166D01*
X29787402Y-23212000D01*
X29089596Y-23212000D01*
X29022557Y-23192315D01*
X29001915Y-23175681D01*
X28969716Y-23143482D01*
X28969708Y-23143476D01*
X28832789Y-23064427D01*
X28832785Y-23064425D01*
X28832783Y-23064424D01*
X28680056Y-23023501D01*
X28521942Y-23023501D01*
X28369215Y-23064424D01*
X28369208Y-23064427D01*
X28232289Y-23143476D01*
X28232281Y-23143482D01*
X28120480Y-23255283D01*
X28120474Y-23255291D01*
X28041425Y-23392210D01*
X28041422Y-23392217D01*
X28000499Y-23544944D01*
X28000499Y-23703058D01*
X28039089Y-23847076D01*
X28041422Y-23855784D01*
X28041425Y-23855791D01*
X28120474Y-23992710D01*
X28120480Y-23992718D01*
X28164180Y-24036418D01*
X28178883Y-24063345D01*
X28195476Y-24089164D01*
X28196367Y-24095364D01*
X28197665Y-24097741D01*
X28200499Y-24124099D01*
X28200499Y-24138000D01*
X28180814Y-24205039D01*
X28128010Y-24250794D01*
X28076499Y-24262000D01*
X26970730Y-24262000D01*
X26940300Y-24264853D01*
X26940298Y-24264853D01*
X26812119Y-24309706D01*
X26812117Y-24309707D01*
X26702850Y-24390350D01*
X26687142Y-24411634D01*
X26631494Y-24453885D01*
X26587372Y-24462000D01*
X26209773Y-24462000D01*
X26107913Y-24489293D01*
X26107910Y-24489294D01*
X26016585Y-24542021D01*
X25542022Y-25016584D01*
X25542020Y-25016587D01*
X25489291Y-25107913D01*
X25481279Y-25137817D01*
X25481265Y-25137870D01*
X25480933Y-25139113D01*
X25462000Y-25209773D01*
X14763000Y-25209773D01*
X14763000Y-20489924D01*
X14763096Y-20485056D01*
X14766427Y-20400264D01*
X14779569Y-20065756D01*
X14779891Y-20060484D01*
X14782854Y-20024732D01*
X16212000Y-20024732D01*
X16212000Y-20400267D01*
X16244729Y-20774365D01*
X16309938Y-21144179D01*
X16309941Y-21144192D01*
X16407130Y-21506910D01*
X16535568Y-21859793D01*
X16694271Y-22200133D01*
X16694279Y-22200148D01*
X16826253Y-22428733D01*
X16882040Y-22525358D01*
X16882044Y-22525364D01*
X16882051Y-22525375D01*
X17097434Y-22832974D01*
X17271907Y-23040902D01*
X17338818Y-23120644D01*
X17604356Y-23386182D01*
X17703392Y-23469283D01*
X17892025Y-23627565D01*
X18199624Y-23842948D01*
X18199631Y-23842952D01*
X18199642Y-23842960D01*
X18494159Y-24013000D01*
X18524851Y-24030720D01*
X18524866Y-24030728D01*
X18865206Y-24189431D01*
X19094103Y-24272742D01*
X19218083Y-24317867D01*
X19218084Y-24317867D01*
X19218089Y-24317869D01*
X19315877Y-24344071D01*
X19580815Y-24415061D01*
X19950637Y-24480271D01*
X20324734Y-24512999D01*
X20324735Y-24513000D01*
X20324736Y-24513000D01*
X20700265Y-24513000D01*
X20700265Y-24512999D01*
X21074363Y-24480271D01*
X21444185Y-24415061D01*
X21806917Y-24317867D01*
X22159798Y-24189429D01*
X22500142Y-24030724D01*
X22825358Y-23842960D01*
X23132973Y-23627566D01*
X23420644Y-23386182D01*
X23686182Y-23120644D01*
X23927566Y-22832973D01*
X24142960Y-22525358D01*
X24330724Y-22200142D01*
X24489429Y-21859798D01*
X24617867Y-21506917D01*
X24715061Y-21144185D01*
X24780271Y-20774363D01*
X24813000Y-20400264D01*
X24813000Y-20024736D01*
X24780271Y-19650637D01*
X24715061Y-19280815D01*
X24617867Y-18918083D01*
X24579569Y-18812859D01*
X24489431Y-18565206D01*
X24330728Y-18224866D01*
X24330720Y-18224851D01*
X24288889Y-18152398D01*
X24142960Y-17899642D01*
X24142952Y-17899631D01*
X24142948Y-17899624D01*
X23927565Y-17592025D01*
X23748223Y-17378294D01*
X23686182Y-17304356D01*
X23420644Y-17038818D01*
X23323442Y-16957256D01*
X23132974Y-16797434D01*
X22825375Y-16582051D01*
X22825364Y-16582044D01*
X22825358Y-16582040D01*
X22667804Y-16491076D01*
X22500148Y-16394279D01*
X22500133Y-16394271D01*
X22159793Y-16235568D01*
X21806910Y-16107130D01*
X21444192Y-16009941D01*
X21444195Y-16009941D01*
X21444185Y-16009939D01*
X21391971Y-16000732D01*
X21074365Y-15944729D01*
X20700267Y-15912000D01*
X20700264Y-15912000D01*
X20324736Y-15912000D01*
X20324732Y-15912000D01*
X19950634Y-15944729D01*
X19580820Y-16009938D01*
X19580817Y-16009938D01*
X19580815Y-16009939D01*
X19580810Y-16009940D01*
X19580807Y-16009941D01*
X19218089Y-16107130D01*
X18865206Y-16235568D01*
X18524866Y-16394271D01*
X18524851Y-16394279D01*
X18199650Y-16582035D01*
X18199624Y-16582051D01*
X17892025Y-16797434D01*
X17604353Y-17038820D01*
X17338820Y-17304353D01*
X17097434Y-17592025D01*
X16882051Y-17899624D01*
X16882035Y-17899650D01*
X16694279Y-18224851D01*
X16694271Y-18224866D01*
X16535568Y-18565206D01*
X16407130Y-18918089D01*
X16309941Y-19280807D01*
X16309938Y-19280820D01*
X16244729Y-19650634D01*
X16212000Y-20024732D01*
X14782854Y-20024732D01*
X14788047Y-19962061D01*
X14788472Y-19957823D01*
X14831932Y-19590639D01*
X14832741Y-19584958D01*
X14848250Y-19492019D01*
X14848926Y-19488329D01*
X14922106Y-19120428D01*
X14923485Y-19114324D01*
X14944543Y-19031169D01*
X14945391Y-19027999D01*
X14954691Y-18995025D01*
X15049661Y-18658283D01*
X15051692Y-18651779D01*
X15075155Y-18583436D01*
X15075990Y-18581090D01*
X15213902Y-18207265D01*
X15216658Y-18200436D01*
X15236812Y-18154489D01*
X15237706Y-18152498D01*
X15413826Y-17770464D01*
X15417358Y-17763406D01*
X15423968Y-17751191D01*
X15424598Y-17750047D01*
X15644713Y-17357004D01*
X15649775Y-17348743D01*
X15906106Y-16965117D01*
X15911819Y-16957256D01*
X16037812Y-16797434D01*
X16197434Y-16594953D01*
X16203735Y-16587574D01*
X16516924Y-16248770D01*
X16523770Y-16241924D01*
X16862574Y-15928735D01*
X16869953Y-15922434D01*
X17232258Y-15636817D01*
X17240117Y-15631106D01*
X17623743Y-15374775D01*
X17632004Y-15369713D01*
X18025047Y-15149598D01*
X18026191Y-15148968D01*
X18038406Y-15142358D01*
X18045464Y-15138826D01*
X18427497Y-14962707D01*
X18429501Y-14961807D01*
X18475436Y-14941658D01*
X18482265Y-14938902D01*
X18856090Y-14800990D01*
X18858436Y-14800155D01*
X18926779Y-14776692D01*
X18933283Y-14774661D01*
X19303025Y-14670383D01*
X19306169Y-14669543D01*
X19389324Y-14648485D01*
X19395428Y-14647106D01*
X19763329Y-14573926D01*
X19767019Y-14573250D01*
X19859958Y-14557741D01*
X19865639Y-14556932D01*
X20232824Y-14513472D01*
X20237056Y-14513047D01*
X20335484Y-14504891D01*
X20340756Y-14504569D01*
X20760057Y-14488095D01*
X20764924Y-14488000D01*
X50760076Y-14488000D01*
X50764942Y-14488095D01*
G37*
%TD.AperFunction*%
%TD*%
M02*
